<?xml version="1.0" encoding="utf-8"?>
<!-- Generator: Adobe Illustrator 16.0.2, SVG Export Plug-In . SVG Version: 6.00 Build 0)  -->
<!DOCTYPE svg PUBLIC "-//W3C//DTD SVG 1.1//EN" "http://www.w3.org/Graphics/SVG/1.1/DTD/svg11.dtd">
<svg version="1.1" id="Layer_1" xmlns="http://www.w3.org/2000/svg" xmlns:xlink="http://www.w3.org/1999/xlink" x="0px" y="0px"
	 width="576px" height="179px" viewBox="0 0 576 179" enable-background="new 0 0 576 179" xml:space="preserve">
<title>3A04F55D-EA7C-441E-9685-586B0994099C</title>
<desc>Created with sketchtool.</desc>
<g id="Page-1_1_">
	<g id="_x35_06_x5F_M2U_x5F_Planner_x5F_Travel-Copy-22" transform="translate(-704.000000, -240.000000)">
		<g id="Group-32" transform="translate(706.000000, 240.000000)">
			<g id="Group-15" transform="translate(0.000000, 137.000000)">
				<path id="Line" fill="none" stroke="#1C1918" stroke-width="2.4" stroke-linecap="round" stroke-linejoin="round" d="M156,1.2
					h572.504"/>
				<path id="Line-Copy" fill="none" stroke="#1C1918" stroke-width="2.4" stroke-linecap="round" stroke-linejoin="round" d="
					M23,1.2h124"/>
				<path id="Line-Copy_1_" fill="none" stroke="#1C1918" stroke-width="2.4" stroke-linecap="round" stroke-linejoin="round" d="
					M0,1.2h13"/>
			</g>
			<g id="Page-1" transform="translate(152.000000, 0.600006)">
				<path id="Stroke-1" fill="none" stroke="#D1D1D1" stroke-width="2" stroke-linecap="round" stroke-linejoin="round" d="
					M91.312,16.788c0.008-0.531,0.118-1.447,0.702-2.172c0.636-0.789,2.979-2.518,4.558-2.609"/>
				<path id="Stroke-3" fill="none" stroke="#D1D1D1" stroke-width="2" stroke-linecap="round" stroke-linejoin="round" d="
					M83.866,12.328c0.766-0.009,5.725,1.347,6.156,4.645"/>
				<g id="Group-8" transform="translate(0.000000, 136.615804)">
					<path id="Fill-5" fill="#FFFFFF" d="M369.116,0.964H0"/>
					<path id="Stroke-7" fill="none" stroke="#000000" stroke-width="2" stroke-linecap="round" stroke-linejoin="round" d="
						M369.116,0.964H0"/>
				</g>
				<path id="Stroke-9" fill="none" stroke="#E2E2E2" stroke-width="12" stroke-linecap="round" stroke-linejoin="round" d="
					M8.039,148.023h353.327"/>
				<g id="Group-14" transform="translate(33.797203, 157.895524)">
					<path id="Fill-11" fill="#FFFFFF" d="M164.247,0.835H0.997"/>
					<path id="Stroke-13" fill="none" stroke="#000000" stroke-width="2" stroke-linecap="round" stroke-linejoin="round" d="
						M164.247,0.835H0.997"/>
				</g>
				<g id="Group-18" transform="translate(207.790210, 157.895524)">
					<path id="Fill-15" fill="#FFFFFF" d="M75.621,0.835H0.51"/>
					<path id="Stroke-17" fill="none" stroke="#000000" stroke-width="2" stroke-linecap="round" stroke-linejoin="round" d="
						M75.621,0.835H0.51"/>
				</g>
				<g id="Group-22" transform="translate(292.909091, 157.895524)">
					<path id="Fill-19" fill="#FFFFFF" d="M44.055,0.835H0.686"/>
					<path id="Stroke-21" fill="none" stroke="#000000" stroke-width="2" stroke-linecap="round" stroke-linejoin="round" d="
						M44.055,0.835H0.686"/>
				</g>
				<g id="Group-26" transform="translate(229.069930, 176.671748)">
					<path id="Fill-23" fill="#FFFFFF" d="M33.877,0H0.48"/>
					<path id="Stroke-25" fill="none" stroke="#000000" stroke-width="2" stroke-linecap="round" stroke-linejoin="round" d="
						M33.877,0H0.48"/>
				</g>
				<g id="Group-30" transform="translate(88.874126, 176.671748)">
					<path id="Fill-27" fill="#FFFFFF" d="M49.328,0H0.4"/>
					<path id="Stroke-29" fill="none" stroke="#000000" stroke-width="2" stroke-linecap="round" stroke-linejoin="round" d="
						M49.328,0H0.4"/>
				</g>
				<g id="Group-34" transform="translate(147.706294, 176.671748)">
					<path id="Fill-31" fill="#FFFFFF" d="M72.642,0H1.005"/>
					<path id="Stroke-33" fill="none" stroke="#000000" stroke-width="2" stroke-linecap="round" stroke-linejoin="round" d="
						M72.642,0H1.005"/>
				</g>
				<g id="Group-38" transform="translate(65.090909, 176.671748)">
					<path id="Fill-35" fill="#FFFFFF" d="M15.772,0H1.146"/>
					<path id="Stroke-37" fill="none" stroke="#000000" stroke-width="2" stroke-linecap="round" stroke-linejoin="round" d="
						M15.772,0H1.146"/>
				</g>
				<path id="Stroke-39" fill="none" stroke="#D1D1D1" stroke-width="2" stroke-linecap="round" stroke-linejoin="round" d="
					M325.031,69.271c0.006-0.531,0.112-1.447,0.697-2.173c0.633-0.791,2.972-2.526,4.55-2.623"/>
				<path id="Stroke-41" fill="none" stroke="#D1D1D1" stroke-width="2" stroke-linecap="round" stroke-linejoin="round" d="
					M317.573,64.832c0.766-0.01,5.728,1.332,6.169,4.629"/>
				<path id="Stroke-43" fill="none" stroke="#D1D1D1" stroke-width="2" stroke-linecap="round" stroke-linejoin="round" d="
					M305.973,40.468c0.007-0.531,0.113-1.447,0.697-2.173c0.634-0.792,2.972-2.526,4.551-2.623"/>
				<path id="Stroke-45" fill="none" stroke="#D1D1D1" stroke-width="2" stroke-linecap="round" stroke-linejoin="round" d="
					M298.515,36.029c0.767-0.01,5.729,1.332,6.169,4.629"/>
				<path id="Stroke-47" fill="none" stroke="#D1D1D1" stroke-width="2" stroke-linecap="round" stroke-linejoin="round" d="
					M234.596,20.162c0,7.732,6.268,14,13.999,14c7.732,0,14-6.268,14-14s-6.268-14-14-14
					C240.863,6.163,234.596,12.43,234.596,20.162L234.596,20.162z"/>
				<g id="Group-52" transform="translate(246.594406, 0.175245)">
					<path id="Fill-49" fill="#FFFFFF" d="M0.878,1.076v5.007"/>
					<path id="Stroke-51" fill="none" stroke="#D1D1D1" stroke-width="2" stroke-linecap="round" stroke-linejoin="round" d="
						M0.878,1.076v5.007"/>
				</g>
				<g id="Group-56" transform="translate(246.594406, 33.972448)">
					<path id="Fill-53" fill="#FFFFFF" d="M0.878,1.076v5.007"/>
					<path id="Stroke-55" fill="none" stroke="#D1D1D1" stroke-width="2" stroke-linecap="round" stroke-linejoin="round" d="
						M0.878,1.076v5.007"/>
				</g>
				<g id="Group-60" transform="translate(257.860140, 6.433986)">
					<path id="Fill-57" fill="#FFFFFF" d="M4.538,0.292L1.009,3.82"/>
					<path id="Stroke-59" fill="none" stroke="#D1D1D1" stroke-width="2" stroke-linecap="round" stroke-linejoin="round" d="
						M4.538,0.292L1.009,3.82"/>
				</g>
				<g id="Group-64" transform="translate(262.867133, 21.454965)">
					<path id="Fill-61" fill="#FFFFFF" d="M5.26,0.45H0.253"/>
					<path id="Stroke-63" fill="none" stroke="#D1D1D1" stroke-width="2" stroke-linecap="round" stroke-linejoin="round" d="
						M5.26,0.45H0.253"/>
				</g>
				<g id="Group-68" transform="translate(257.860140, 28.965455)">
					<path id="Fill-65" fill="#FFFFFF" d="M4.724,4.504L1.195,0.975"/>
					<path id="Stroke-67" fill="none" stroke="#D1D1D1" stroke-width="2" stroke-linecap="round" stroke-linejoin="round" d="
						M4.724,4.504L1.195,0.975"/>
				</g>
				<g id="Group-72" transform="translate(234.076923, 28.965455)">
					<path id="Fill-69" fill="#FFFFFF" d="M0.512,4.689L4.04,1.161"/>
					<path id="Stroke-71" fill="none" stroke="#D1D1D1" stroke-width="2" stroke-linecap="round" stroke-linejoin="round" d="
						M0.512,4.689L4.04,1.161"/>
				</g>
				<g id="Group-76" transform="translate(229.069930, 21.454965)">
					<path id="Fill-73" fill="#FFFFFF" d="M0.252,0.45H5.26"/>
					<path id="Stroke-75" fill="none" stroke="#D1D1D1" stroke-width="2" stroke-linecap="round" stroke-linejoin="round" d="
						M0.252,0.45H5.26"/>
				</g>
				<g id="Group-80" transform="translate(234.076923, 6.433986)">
					<path id="Fill-77" fill="#FFFFFF" d="M0.326,0.478l3.528,3.528"/>
					<path id="Stroke-79" fill="none" stroke="#D1D1D1" stroke-width="2" stroke-linecap="round" stroke-linejoin="round" d="
						M0.326,0.478l3.528,3.528"/>
				</g>
				<path id="Fill-81" fill="#FFFFFF" d="M222.784,50.931c0.009,0.012,0.018,0.023,0.026,0.036l52.655,71.155H150.581
					l42.871-110.831L222.784,50.931z"/>
				<path id="Stroke-83" fill="none" stroke="#000000" stroke-width="2" stroke-linecap="round" stroke-linejoin="round" d="
					M222.784,50.931c0.009,0.012,0.018,0.023,0.026,0.036l52.655,71.155H150.581l42.871-110.831L222.784,50.931L222.784,50.931z"/>
				<polygon id="Fill-85" fill="#E2E2E2" points="193.791,13.683 179.497,121.075 153.174,121.107 				"/>
				<polygon id="Fill-87" fill="#FFC83D" points="193.452,11.292 151.139,122.125 116.144,122.125 				"/>
				
					<polygon id="Stroke-89" fill="none" stroke="#000000" stroke-width="2" stroke-linecap="round" stroke-linejoin="round" points="
					193.452,11.292 151.139,122.125 116.144,122.125 				"/>
				<g id="Group-94" transform="translate(206.538462, 64.014406)">
					<path id="Fill-91" fill="#FFFFFF" d="M25.672,1.119H1.043"/>
					<path id="Stroke-93" fill="none" stroke="#000000" stroke-width="2" stroke-linecap="round" stroke-linejoin="round" d="
						M25.672,1.119H1.043"/>
				</g>
				<g id="Group-98" transform="translate(192.769231, 87.797622)">
					<path id="Fill-95" fill="#FFFFFF" d="M52.314,1.212H0.399"/>
					<path id="Stroke-97" fill="none" stroke="#000000" stroke-width="2" stroke-linecap="round" stroke-linejoin="round" d="
						M52.314,1.212H0.399"/>
				</g>
				<path id="Fill-99" fill="#FFFFFF" d="M176.868,50.185c0.01,0.015,0.021,0.029,0.032,0.044l64.748,87.501H88.08L140.799,1.441
					L176.868,50.185z"/>
				<path id="Stroke-101" fill="none" stroke="#000000" stroke-width="2" stroke-linecap="round" stroke-linejoin="round" d="
					M176.868,50.185c0.01,0.015,0.021,0.029,0.032,0.044l64.748,87.501H88.08L140.799,1.441L176.868,50.185L176.868,50.185z"/>
				<polygon id="Fill-103" fill="#E2E2E2" points="141.215,4.381 116.806,136.441 91.269,136.478 				"/>
				<polygon id="Fill-105" fill="#FFC83D" points="140.799,1.441 88.766,137.73 45.733,137.73 				"/>
				
					<polygon id="Stroke-107" fill="none" stroke="#000000" stroke-width="2" stroke-linecap="round" stroke-linejoin="round" points="
					140.799,1.441 88.766,137.73 45.733,137.73 				"/>
				<g id="Group-112" transform="translate(165.230769, 75.280140)">
					<path id="Fill-109" fill="#FFFFFF" d="M30.54,0.45H0.253"/>
					<path id="Stroke-111" fill="none" stroke="#000000" stroke-width="2" stroke-linecap="round" stroke-linejoin="round" d="
						M30.54,0.45H0.253"/>
				</g>
				<g id="Group-116" transform="translate(140.195804, 96.559860)">
					<path id="Fill-113" fill="#FFFFFF" d="M64.092,0.45H0.253"/>
					<path id="Stroke-115" fill="none" stroke="#000000" stroke-width="2" stroke-linecap="round" stroke-linejoin="round" d="
						M64.092,0.45H0.253"/>
				</g>
				<path id="Fill-117" fill="#FFC83D" d="M35.319,40.682h11.284l2.574,6.259H62.64c0,0-1.584,5.007-6.137,5.007H44.69v8.762h-5.007
					v7.511h-7.51V60.71h-2.198C29.974,60.71,27.203,40.682,35.319,40.682"/>
				<path id="Stroke-119" fill="none" stroke="#000000" stroke-width="2" stroke-linecap="round" stroke-linejoin="round" d="
					M35.319,40.682h11.284l2.574,6.259H62.64c0,0-1.584,5.007-6.137,5.007H44.69v8.762h-5.007v7.511h-7.51V60.71h-2.198
					C29.974,60.71,27.203,40.682,35.319,40.682L35.319,40.682z"/>
				<path id="Fill-121" fill="#FFFFFF" d="M26.411,60.71h24.945c0,0,4.355-0.001,5.741,6.136l3.563,15.144h7.918l2.178-2.503h2.724
					v7.511H55.513l-4.603-16.15l-3.118,19.593l7.126,46.965l8.711,7.173H50.761L40.664,99.538l-8.513,40.387l3.563,4.652h-11.68
					l10.889-52.958l-4.891-21.183l-3.425,33.457l2.237,3.936l-4.811,4.033l-5.147-7.349l2.771-40.289
					C21.659,64.223,22.056,60.71,26.411,60.71"/>
				<polygon id="Fill-123" fill="#E2E2E2" points="38.102,80.894 30.592,69.315 33.408,80.738 				"/>
				<path id="Fill-125" fill="#E2E2E2" d="M52.028,70.15c0,0,3.912,12.465,6.832,14.03c2.922,1.564,9.65,1.564,9.65,1.564
					l-0.105,1.252H56.409L52.028,70.15z"/>
				<polygon id="Fill-127" fill="#E2E2E2" points="31.531,114.535 25.428,143.326 33.095,143.169 30.748,139.882 33.564,113.439 
									"/>
				<polygon id="Fill-129" fill="#E2E2E2" points="43.813,107.787 51.756,143.334 60.126,143.334 53.906,138.005 45.242,106.985 
									"/>
				<path id="Fill-131" fill="#E2E2E2" d="M22.82,61.544c0,0,0.919-0.559,1.356,8.083c0.64,12.635-1.408,35.674,4.67,38.2
					l-2.479,2.013l-2.332,2.021l-5.147-7.35L22.82,61.544z"/>
				<path id="Stroke-133" fill="none" stroke="#000000" stroke-width="2" stroke-linecap="round" stroke-linejoin="round" d="
					M26.411,60.71h24.945c0,0,4.355-0.001,5.741,6.136l3.563,15.144h7.918l2.178-2.503h2.724v8.71H55.513l-4.603-17.35
					l-3.118,19.593l7.126,46.965l8.711,7.173H50.761L40.664,99.538l-8.513,40.387l3.563,4.652h-11.68l10.889-52.958l-4.891-21.183
					l-3.425,33.457l2.237,3.936l-4.811,4.033l-5.147-7.349l2.771-40.289C21.659,64.223,22.056,60.71,26.411,60.71L26.411,60.71z"/>
				
					<polyline id="Stroke-135" fill="none" stroke="#000000" stroke-width="2" stroke-linecap="round" stroke-linejoin="round" points="
					71.032,48.201 73.447,53.593 69.724,57.963 69.724,140.196 				"/>
				<polygon id="Fill-137" fill="#FFC83D" points="32.548,80.728 48.984,82.389 47.791,90.035 34.923,90.827 				"/>
				
					<polygon id="Stroke-139" fill="none" stroke="#000000" stroke-width="2" stroke-linecap="round" stroke-linejoin="round" points="
					32.548,80.728 48.984,82.389 47.791,90.035 34.923,90.827 				"/>
				<g id="Group-144" transform="translate(33.797203, 35.224196)">
					<path id="Fill-141" fill="#FFC83D" d="M0.879,4.832V1.076"/>
					<path id="Stroke-143" fill="none" stroke="#000000" stroke-width="2" stroke-linecap="round" stroke-linejoin="round" d="
						M0.879,4.832V1.076"/>
				</g>
				<g id="Group-148" transform="translate(40.055944, 35.224196)">
					<path id="Fill-145" fill="#FFFFFF" d="M0.879,4.832V1.076"/>
					<path id="Stroke-147" fill="none" stroke="#000000" stroke-width="2" stroke-linecap="round" stroke-linejoin="round" d="
						M0.879,4.832V1.076"/>
				</g>
				<polygon id="Fill-149" fill="#FFFFFF" points="28.846,114.584 50.342,102.769 48.386,90.036 34.923,90.827 				"/>
				
					<polygon id="Stroke-151" fill="none" stroke="#000000" stroke-width="2" stroke-linecap="round" stroke-linejoin="round" points="
					28.846,114.584 50.342,102.769 48.386,90.036 34.923,90.827 				"/>
				<path id="Fill-153" fill="#E2E2E2" d="M39.326,91.82c0,0-2.319,12.648-1.015,16.143l-7.563,4.068l5.111-20.027L39.326,91.82z"/>
				<g id="Group-158" transform="translate(295.412587, 121.594825)">
					<polyline id="Fill-155" fill="#E2E2E2" points="7.594,5.046 10.987,15.472 4.349,15.472 0.788,0.88 					"/>
					
						<polyline id="Stroke-157" fill="none" stroke="#000000" stroke-width="2" stroke-linecap="round" stroke-linejoin="round" points="
						7.594,5.046 10.987,15.472 4.349,15.472 0.788,0.88 					"/>
				</g>
				<g id="Group-162" transform="translate(317.944056, 122.846573)">
					<polyline id="Fill-159" fill="#E2E2E2" points="8.122,5.612 7.072,12.967 0.272,12.967 2.133,0.437 					"/>
					
						<polyline id="Stroke-161" fill="none" stroke="#000000" stroke-width="2" stroke-linecap="round" stroke-linejoin="round" points="
						8.122,5.612 7.072,12.967 0.272,12.967 2.133,0.437 					"/>
				</g>
				<path id="Fill-163" fill="#FFFFFF" d="M296.848,103.63c0,0,19.523,3.158,26.396,0.286c4.78-1.997,8.246-2.876,11.322-2.067
					c3.076,0.811,7.771,6.639,7.771,6.639l6.639-2.832c0,0-1.296,4.451-3.076,6.879l6.689,6.942c0,0,5.29,0.829,12.574-5.485
					c0,0-7.151,12.349-12.114,12.349c-4.964,0-11.277-5.146-11.277-5.146l-10.767,2.672l6.961,8.682l-0.485,7.021h-7.608
					l1.133-5.989l-10.684-9.714c0,0-8.903,8.742-24.121-0.971l-6.638,8.564l0.81,4.354h-8.094l4.208-15.04
					C286.486,120.775,282.926,104.927,296.848,103.63"/>
				<path id="Stroke-165" fill="none" stroke="#000000" stroke-width="2" stroke-linecap="round" stroke-linejoin="round" d="
					M296.848,103.63c0,0,19.523,3.158,26.396,0.286c4.78-1.997,8.246-2.876,11.322-2.067c3.076,0.811,7.771,6.639,7.771,6.639
					l6.639-2.832c0,0-1.296,4.451-3.076,6.879l6.689,6.942c0,0,5.29,0.829,12.574-5.485c0,0-7.151,12.349-12.114,12.349
					c-4.964,0-11.277-5.146-11.277-5.146l-10.767,2.672l6.961,8.682l-0.485,7.021h-7.608l1.133-5.989l-10.684-9.714
					c0,0-8.903,8.742-24.121-0.971l-6.638,8.564l0.81,4.354h-8.094l4.208-15.04C286.486,120.775,282.926,104.927,296.848,103.63
					L296.848,103.63z"/>
				<path id="Fill-167" fill="#E2E2E2" d="M287.773,121.003l-3.845,13.563l4.967-0.004l-0.721-3.35l6.953-9.011
					c0,0-7.354-6.937-3.39-15.568C285.427,110.416,287.773,121.003,287.773,121.003"/>
				<path id="Fill-169" fill="#E2E2E2" d="M296.536,121.628c0,0,19.036,2.607,23.522,0.834c0,0-3.755,4.225-11.318,3.756
					C308.74,126.218,302.586,125.8,296.536,121.628"/>
				<path id="Fill-171" fill="#E2E2E2" d="M360.428,118.759c0,0-3.169,5.32-7.041,6.336c0,0-3.795,0.705-11.109-5.006
					C342.277,120.089,351.431,125.566,360.428,118.759"/>
				<polygon id="Fill-173" fill="#E2E2E2" points="320.632,122.567 334.089,129.661 336.748,132.92 336.279,138.214 
					331.481,138.318 332.314,133.05 				"/>
				<g id="Group-178" transform="translate(187.762238, 77.783636)">
					<path id="Fill-175" fill="#FFFFFF" d="M61.581,2.029c0,0-21.87,3.068-31.149,0.075c0,0-26.132-7.812-30.322,19.727
						c0,0-0.35,2.98,1.445,11.062c0,0,1.526-9.764,4.819-13.655c0,0-1.759,15.923,8.618,26.15c0,0-0.299,10.229-2.992,18.903h12.571
						l1.497-14.594l0.299-8.043c0,0,12.914-0.282,26.684-5.969l4.789,11.01L56.943,64.29h13.77l-1.198-18.783
						c0,0-2.395-12.236,2.693-16.127"/>
					<path id="Stroke-177" fill="none" stroke="#000000" stroke-width="2" stroke-linecap="round" stroke-linejoin="round" d="
						M61.581,2.029c0,0-21.87,3.068-31.149,0.075c0,0-26.132-7.812-30.322,19.727c0,0-0.35,2.98,1.445,11.062
						c0,0,1.526-9.764,4.819-13.655c0,0-1.759,15.923,8.618,26.15c0,0-0.299,10.229-2.992,18.903h12.571l1.497-14.594l0.299-8.043
						c0,0,12.914-0.282,26.684-5.969l4.789,11.01L56.943,64.29h13.77l-1.198-18.783c0,0-2.395-12.236,2.693-16.127"/>
				</g>
				<path id="Fill-179" fill="#E2E2E2" d="M257.94,107.65c0,0-4.068,3.6-1.937,15.804l1.102,17.315l-5.268,0.053
					c0,0-1.486-23.252-2.752-24.436c-4.103-3.84-8.495-10.834-7.835-22.361C241.251,94.025,246.466,107.441,257.94,107.65"/>
				<path id="Fill-181" fill="#E2E2E2" d="M281.098,121.159c3.572-2.19,1.486-13.065,1.486-13.065l3.261-0.808
					C285.845,107.286,288.086,117.664,281.098,121.159"/>
				<path id="Fill-183" fill="#E2E2E2" d="M264.981,96.333c0,0,12.01,11.122,28.517,3.103c0,0-12.321,14.2-28.464-0.234
					L264.981,96.333z"/>
				<path id="Fill-185" fill="#E2E2E2" d="M195.588,96.854c0,0,5.972,20.758,13.899,24.306c0,0,0.782,11.942-3.09,19.67h-4.977
					c2.113-6.493,2.616-18.002,2.616-18.002S193.397,112.814,195.588,96.854"/>
				<g id="Group-190" transform="translate(266.622378, 105.322098)">
					<path id="Fill-187" fill="#FFFFFF" d="M20.287,1.058c0,0,4.789,15.487-2.395,19.08c-5.537,3.143-12.036,0.506-15.109-3.893
						c-6.71-9.601,6.13-2.473,6.13-2.473s8.979,7.562,5.688-11.518"/>
					<path id="Stroke-189" fill="none" stroke="#000000" stroke-width="2" stroke-linecap="round" stroke-linejoin="round" d="
						M20.287,1.058c0,0,4.789,15.487-2.395,19.08c-5.537,3.143-12.036,0.506-15.109-3.893c-6.71-9.601,6.13-2.473,6.13-2.473
						s8.979,7.562,5.688-11.518"/>
				</g>
				<g id="Group-194" transform="translate(241.587413, 76.531888)">
					<path id="Fill-191" fill="#FFFFFF" d="M33.649,20.791c5.986,9.579,23.812-2.395,23.812-2.395
						c-17.284,24.017-35.302,4.682-35.302,4.682v-3.071v9.465C5.886,32.465,0.964,16.675,0.964,16.675
						C3.059,5.6,9.224,2.22,9.224,2.22c5.089-4.953,14.606,1.51,14.606,1.51l5.508-1.66c0,0,9.115,4.26,13.305,21.921"/>
					<path id="Stroke-193" fill="none" stroke="#000000" stroke-width="2" stroke-linecap="round" stroke-linejoin="round" d="
						M33.649,20.791c5.986,9.579,23.812-2.395,23.812-2.395c-17.284,24.017-35.302,4.682-35.302,4.682v-3.071v9.465
						C5.886,32.465,0.964,16.675,0.964,16.675C3.059,5.6,9.224,2.22,9.224,2.22c5.089-4.953,14.606,1.51,14.606,1.51l5.508-1.66
						c0,0,9.115,4.26,13.305,21.921"/>
				</g>
			</g>
		</g>
	</g>
</g>
<g id="Page-1_2_">
	<g id="_x32_07_x5F_M2U_x5F_Planner_x5F_Travel-Copy" transform="translate(-823.000000, -337.000000)">
		
			<g id="plane" transform="translate(853.110230, 355.168677) rotate(26.000000) translate(-853.110230, -355.168677) translate(823.110230, 339.668677)">
			<path id="Fill-1" fill="#373737" d="M194.717,48.066c0.015,0.031,0.033,0.058,0.047,0.088l0.339,0.727
				c0.586,1.258-0.319,2.224-1.284,2.674l-37.338,17.853l-4.679,2.182c-0.836,0.389-1.812,0.285-2.547-0.273l-7.567-5.753
				l1.966-0.915l5.063,2.732c0.356,0.191,0.784,0.189,1.14-0.006l11.127-6.134l1.649,1.384c0.211,0.16,0.465,0.243,0.72,0.242
				c0.171,0,0.343-0.036,0.503-0.111l9.802-4.572c0.408-0.189,0.673-0.593,0.687-1.042c0.013-0.45-0.228-0.869-0.624-1.081
				l-1.776-0.863l13.295-7.329c3.022-1.452,5.643-1.956,7.434-1.439L194.717,48.066z M163.501,60.295l-12.812-9.871l3.965-1.849
				l15.852,8.453L163.501,60.295z M197.259,47.875l-0.337-0.725c-0.639-1.368-1.747-2.366-3.208-2.888
				c-2.436-0.868-5.733-0.357-9.537,1.477c-0.019,0.009-0.038,0.02-0.058,0.029l-14.666,8.086l-14.195-7.657
				c-0.331-0.178-0.727-0.189-1.067-0.029l-6.293,2.935c-0.378,0.176-0.636,0.536-0.681,0.951c-0.045,0.413,0.13,0.821,0.463,1.073
				l11.232,8.539l-9.636,5.313l-5.019-2.706c-0.331-0.178-0.727-0.19-1.067-0.031l-4.292,2.002c-0.378,0.177-0.637,0.538-0.68,0.951
				c-0.044,0.415,0.132,0.822,0.462,1.074l9.136,6.944c0.863,0.656,1.896,0.993,2.937,0.993c0.698,0.001,1.399-0.15,2.056-0.457
				l4.689-2.187l37.337-17.852c1.121-0.523,1.993-1.359,2.457-2.354C197.802,50.253,197.792,49.017,197.259,47.875L197.259,47.875z"
				/>
		</g>
	</g>
</g>
</svg>
