<?xml version="1.0" encoding="utf-8"?>
<!-- Generator: Adobe Illustrator 16.0.2, SVG Export Plug-In . SVG Version: 6.00 Build 0)  -->
<!DOCTYPE svg PUBLIC "-//W3C//DTD SVG 1.1//EN" "http://www.w3.org/Graphics/SVG/1.1/DTD/svg11.dtd">
<svg version="1.1" id="Layer_1" xmlns="http://www.w3.org/2000/svg" xmlns:xlink="http://www.w3.org/1999/xlink" x="0px" y="0px"
	 width="576px" height="180px" viewBox="0 0 576 180" enable-background="new 0 0 576 180" xml:space="preserve">
<title>B2E97175-4180-4E86-B72E-53E46AE63AA5</title>
<desc>Created with sketchtool.</desc>
<g id="Page-1_1_">
	<g id="_x32_07_x5F_M2U_x5F_Planner_x5F_Travel-Copy" transform="translate(-704.000000, -234.000000)">
		<g id="Group-15" transform="translate(706.000000, 235.000000)">
			<path id="Line" fill="none" stroke="#1C1918" stroke-width="2.4" stroke-linecap="round" stroke-linejoin="round" d="M156,143.2
				h572.504"/>
			<path id="Line-Copy" fill="none" stroke="#1C1918" stroke-width="2.4" stroke-linecap="round" stroke-linejoin="round" d="
				M23,143.2h124"/>
			<path id="Line-Copy_1_" fill="none" stroke="#1C1918" stroke-width="2.4" stroke-linecap="round" stroke-linejoin="round" d="
				M0,143.2h13"/>
			<g id="Page-1" transform="translate(198.000000, 0.000000)">
				<path id="Stroke-1" fill="none" stroke="#D1D1D1" stroke-width="2" stroke-linecap="round" stroke-linejoin="round" d="
					M78.352,77.437c0,42.712,34.625,59.974,77.335,59.974c42.712,0,77.337-17.262,77.337-59.974
					c0-42.711-34.625-77.335-77.337-77.335C112.977,0.101,78.352,34.725,78.352,77.437L78.352,77.437z"/>
				<g id="Group-6" transform="translate(3.604027, 151.938255)">
					<path id="Stroke-5" fill="none" stroke="#E2E2E2" stroke-width="12" stroke-linecap="round" stroke-linejoin="round" d="
						M0,0.124h306.982"/>
				</g>
				<g id="Group-10" transform="translate(20.114094, 160.743624)">
					<path id="Fill-7" fill="#FFFFFF" d="M59.377,0.734H0.325"/>
					<path id="Stroke-9" fill="none" stroke="#000000" stroke-width="2" stroke-linecap="round" stroke-linejoin="round" d="
						M59.377,0.734H0.325"/>
				</g>
				<g id="Group-14" transform="translate(88.355705, 160.743624)">
					<path id="Fill-11" fill="#FFFFFF" d="M154.768,0.734H0.675"/>
					<path id="Stroke-13" fill="none" stroke="#000000" stroke-width="2" stroke-linecap="round" stroke-linejoin="round" d="
						M154.768,0.734H0.675"/>
				</g>
				<g id="Group-18" transform="translate(252.355705, 160.743624)">
					<path id="Fill-15" fill="#FFFFFF" d="M29.659,0.734H0.307"/>
					<path id="Stroke-17" fill="none" stroke="#000000" stroke-width="2" stroke-linecap="round" stroke-linejoin="round" d="
						M29.659,0.734H0.307"/>
				</g>
				<g id="Group-22" transform="translate(189.617450, 177.253691)">
					<path id="Fill-19" fill="#FFFFFF" d="M13.883,0H0.224"/>
					<path id="Stroke-21" fill="none" stroke="#000000" stroke-width="2" stroke-linecap="round" stroke-linejoin="round" d="
						M13.883,0H0.224"/>
				</g>
				<g id="Group-26" transform="translate(83.953020, 177.253691)">
					<path id="Fill-23" fill="#FFFFFF" d="M42.843,0H0.028"/>
					<path id="Stroke-25" fill="none" stroke="#000000" stroke-width="2" stroke-linecap="round" stroke-linejoin="round" d="
						M42.843,0H0.028"/>
				</g>
				<g id="Group-30" transform="translate(135.684564, 177.253691)">
					<path id="Fill-27" fill="#FFFFFF" d="M46.106,0H0.308"/>
					<path id="Stroke-29" fill="none" stroke="#000000" stroke-width="2" stroke-linecap="round" stroke-linejoin="round" d="
						M46.106,0H0.308"/>
				</g>
				<g id="Group-34" transform="translate(63.040268, 177.253691)">
					<path id="Fill-31" fill="#FFFFFF" d="M13.58,0H0.783"/>
					<path id="Stroke-33" fill="none" stroke="#000000" stroke-width="2" stroke-linecap="round" stroke-linejoin="round" d="
						M13.58,0H0.783"/>
				</g>
				<path id="Stroke-35" fill="none" stroke="#000000" stroke-width="2" stroke-linecap="round" stroke-linejoin="round" d="
					M0.722,143.187h321.937"/>
				<polyline id="Fill-37" fill="#FFFFFF" points="75.665,102.041 83.169,78.675 94.243,78.122 98.556,107.848 				"/>
				<g id="Group-42" transform="translate(61.939597, 72.589262)">
					<path id="Fill-39" fill="#FFFFFF" d="M31.82,4.002C14.153-3.099,0.047,1.433,0.047,1.433l13.678,28.019
						c0,0,3.532-13.485,18.294-22.319"/>
				</g>
				<path id="Fill-43" fill="#E2E2E2" d="M80.684,73.523c0,0,5.413,5.258,8.164,14.493c2.567,8.621,2.018,17.427,2.018,17.427
					l7.689,2.405L93.76,76.591L80.684,73.523z"/>
				<g id="Group-56" transform="translate(113.671141, 40.770470)">
					<path id="Fill-53" fill="#FFFFFF" d="M54.841,42.26C40.971,7.412,0.373,0.197,0.373,0.197L12.842,71.38
						c0,0,0.405,0.663,0.877,0.206c6.284-6.085,52.627-49.214,91.038-36.62L96.22,50.442L96.209,72.29H9.81"/>
					<path id="Fill-57" fill="#E2E2E2" d="M104.757,35.008c0,0-27.769,14.318-29.97,37.432l5.749-0.064h15.672
						C96.208,72.376,87.26,59.211,104.757,35.008"/>
					<path id="Fill-83" fill="#E2E2E2" d="M48.737,31.651c0,0-34.919,24.424-35.896,39.729c0,0,30.942-25.145,38.647-28.171
						S51.055,35.319,48.737,31.651"/>
					<path id="Stroke-55" fill="none" stroke="#000000" stroke-width="2" stroke-linecap="round" stroke-linejoin="round" d="
						M54.841,42.26C40.971,7.412,0.373,0.197,0.373,0.197L12.842,71.38c0,0,0.405,0.663,0.877,0.206
						c6.284-6.085,52.627-49.214,91.038-36.62L96.22,50.442L96.209,72.29H9.81"/>
				</g>
				<g id="Group-62" transform="translate(162.100671, 80.394631)">
					<path id="Fill-59" fill="#FFFFFF" d="M32.106,32.667c0,0-16.272-22.409-20.105-32.149c0,0-8.675,6.219-11.239,32.149"/>
					<path id="Fill-63" fill="#E2E2E2" d="M12.002,0.517c0,0,0.046,20.127,3.348,32.234h16.757
						C32.106,32.752,18.652,13.674,12.002,0.517"/>
					<path id="Stroke-61" fill="none" stroke="#000000" stroke-width="2" stroke-linecap="round" stroke-linejoin="round" d="
						M32.106,32.667c0,0-16.272-22.409-20.105-32.149c0,0-8.675,6.219-11.239,32.149"/>
				</g>
				<path id="Stroke-41" fill="none" stroke="#000000" stroke-width="2" stroke-linecap="round" stroke-linejoin="round" d="
					M93.76,76.591c-17.667-7.101-31.773-2.569-31.773-2.569l13.678,28.019c0,0,3.532-13.485,18.294-22.319"/>
				<g id="Group-68" transform="translate(221.536913, 89.200000)">
					<path id="Fill-65" fill="#FFFFFF" d="M8.004,27.824L36.5,1.491c0,0-16.107-4.795-35.837,5.297"/>
				</g>
				<g id="Group-72" transform="translate(200.624161, 89.200000)">
					<path id="Fill-69" fill="#FFFFFF" d="M9.255,23.862L0.706,0.239c0,0,12.674,1.729,20.87,6.549l4.886,19.33"/>
					<path id="Fill-73" fill="#E2E2E2" d="M24.156,19.177c0,0,23.919-18.471,33.221-17.663L28.899,27.835l-2.445-1.67l-3.236-2.219
						H9.113L2.877,6.336L24.156,19.177z"/>
					<path id="Stroke-67" fill="none" stroke="#000000" stroke-width="2" stroke-linecap="round" stroke-linejoin="round" d="
						M28.917,27.824L57.412,1.491c0,0-16.106-4.795-35.836,5.297"/>
					<path id="Stroke-71" fill="none" stroke="#000000" stroke-width="2" stroke-linecap="round" stroke-linejoin="round" d="
						M9.255,23.862L0.706,0.239c0,0,12.674,1.729,20.87,6.549l4.886,19.33"/>
				</g>
				<g id="Group-78" transform="translate(75.147651, 101.307383)">
					<polyline id="Fill-75" fill="#FFC83D" points="178.33,38.642 168.357,15.717 154.393,15.717 148.694,11.755 43.957,11.755 
						43.957,38.642 43.957,11.755 0.518,0.734 0.518,38.642 					"/>
					
						<polyline id="Stroke-77" fill="none" stroke="#000000" stroke-width="2" stroke-linecap="round" stroke-linejoin="round" points="
						178.33,38.642 168.357,15.717 154.393,15.717 148.694,11.755 43.957,11.755 43.957,38.642 43.957,11.755 0.518,0.734 
						0.518,38.642 					"/>
				</g>
				<polygon id="Fill-79" fill="#FFC83D" points="65.003,142.837 257.091,142.837 257.091,134.615 65.003,134.615 				"/>
				
					<polygon id="Stroke-81" fill="none" stroke="#000000" stroke-width="2" stroke-linecap="round" stroke-linejoin="round" points="
					65.003,142.837 257.091,142.837 257.091,134.615 65.003,134.615 				"/>
				<path id="Fill-82" fill="#E2E2E2" d="M106.824,63.066l10.869,2.889l8.819,46.195l-7.408,0.91l-2.649-1.289
					c0.098-2.664-0.939-15.85-2.063-24.766C112.19,69.533,106.824,63.066,106.824,63.066"/>
				<g id="Group-48" transform="translate(98.261745, 71.589262)">
					<path id="Fill-45" fill="#FFFFFF" d="M0.908,34.923c2.418-5.185,11.579-24.167,20.414-33.915"/>
					<path id="Stroke-47" fill="none" stroke="#000000" stroke-width="2" stroke-linecap="round" stroke-linejoin="round" d="
						M0.908,34.923c2.418-5.185,11.579-24.167,20.414-33.915"/>
				</g>
				<g id="Group-86" transform="translate(24.516779, 123.320805)">
					<path id="Fill-84" fill="#FFFFFF" d="M21.079,13.169c-2.42,7.16,3.127,7.16,3.127,7.16l-0.223,2.926l-2.34,0.707v1.697h5.892
						l-0.354-6.556c2.723-2.018,2.371-6.687,2.371-6.687c0-4.236-6.355-7.467-6.355-7.467S20.575,3.31,17.044,4.32
						c0,0-2.118-3.847-5.144-3.141c0,0-3.631,0.195-3.328,3.727l-8.17,4.131l10.187-1.111c0,0,1.917,2.118,3.127,2.017
						c0,0-0.504,5.447,3.328,9.079c0,0,2.018,2.52,5.952,1.814"/>
					<path id="Stroke-85" fill="none" stroke="#000000" stroke-width="2" stroke-linecap="round" stroke-linejoin="round" d="
						M21.079,13.169c-2.42,7.16,3.127,7.16,3.127,7.16l-0.223,2.926l-2.34,0.707v1.697h5.892l-0.354-6.556
						c2.723-2.018,2.371-6.687,2.371-6.687c0-4.236-6.355-7.467-6.355-7.467S20.575,3.31,17.044,4.32c0,0-2.118-3.847-5.144-3.141
						c0,0-3.631,0.195-3.328,3.727l-8.17,4.131l10.187-1.111c0,0,1.917,2.118,3.127,2.017c0,0-0.504,5.447,3.328,9.079
						c0,0,2.018,2.52,5.952,1.814"/>
				</g>
				<g id="Group-89" transform="translate(36.624161, 142.032215)">
					<polyline id="Fill-87" fill="#FFC83D" points="3.482,0.3 3.917,4.494 0.729,5.352 0.729,6.948 6.652,6.948 6.548,2.357 					
						"/>
					
						<polyline id="Stroke-88" fill="none" stroke="#000000" stroke-width="2" stroke-linecap="round" stroke-linejoin="round" points="
						3.482,0.3 3.917,4.494 0.729,5.352 0.729,6.948 6.652,6.948 6.548,2.357 					"/>
				</g>
				<path id="Fill-90" fill="#FFFFFF" d="M82.345,116.156c-3.321-4.328-7.513-10.802-9.182-13.82
					c-3.574-6.477-6.374-9.946-12.28-14.017c-11.426-7.891-26.484-4.542-34.8,5.798c-3.867,3.967-7.315,1.463-8.313-1.256
					c2.654-0.994,3.767-4.785,2.418-7.25c-1.605,2.008-5.029,1.911-5.415,4.738c-0.132-2.245-3.686-1.903-5.074-3.868
					c-1.603,2.243,0.323,4.397,2.323,5.601c-0.85,1.188-1.234,0.789-2,2.018c-0.693,1.305-0.788,2.162-1.286,2.817
					c-0.048,0.062-1.006,0.321-1.477,0.56c-1.334,0.676-2.993,0.305-3.759,2.455c-0.512,1.429,1.15,2.531,3.732,2.311
					c2.569-0.463,5.679-1.254,6.531-0.688c3.611,2.414,5.613,8.611,12.952,7.154c-0.819,4.48,4.36,10.715,9.281,10.828
					c1.138,0.027,1.313-0.201,1.548-1.16c-3.457-0.76-5.894-5.799-5.902-9.765c2.897,0.661,9.039,0.822,11.7-0.288
					c-0.985,6.395,14.492,11.778,18.751,16.239c-1.992,4.827,0.076,24.32,7.736,17.4c0.131-1.271-1.282-1.482-1.74-2.321
					c-1.033-1.888-1.166-5.371-1.159-7.926c0.009-4.12,0.667-4.389,1.351-7.731c0.07-0.349-0.104-1.189-0.191-1.354
					c-0.944-1.782-4.756-3.118-6.573-5.607c-1.946-2.663-4.419-11.939-2.319-14.498c3.26-3.975,7.054,3.428,9.28,6.381
					c4.662,6.176,17.733,23.298,31.653,14.986C90.465,125.051,84.571,119.059,82.345,116.156"/>
				<path id="Fill-92" fill="#E2E2E2" d="M18.872,89.559c0.242,0.662,0.633,1.309,1.136,1.854c0.559-0.983,0.823-2.168,0.736-3.302
					C20.259,88.756,19.631,89.275,18.872,89.559"/>
				<path id="Fill-93" fill="#E2E2E2" d="M10.714,91.672c0.112-0.268,0.243-0.558,0.412-0.875c0.718-1.149,1.105-0.89,1.847-1.824
					c-1.135-0.489-2.519-0.876-3.271-1.94C8.463,88.765,9.333,90.441,10.714,91.672"/>
				<path id="Fill-94" fill="#E2E2E2" d="M87.957,121.791c-8.378-3.04-15.259-12.056-18.375-16.187
					c-2.227-2.953-6.02-10.356-9.281-6.382c-0.596,0.728-0.814,2.004-0.79,3.51c3.188-3.168,6.814,3.863,8.97,6.725
					c4.661,6.176,17.733,23.298,31.65,14.985C95.02,125.056,90.975,123.663,87.957,121.791"/>
				<path id="Fill-95" fill="#E2E2E2" d="M68.092,140.193c-0.013-0.025-0.023-0.057-0.036-0.081
					c-2.094-3.163-3.671-11.528-1.956-15.684c-4.261-4.461-21.348-13.142-20.362-19.536c-5.366,1.1-11.687,3.412-14.584,2.751
					c0.002,1.334,1.879,0.454,2.377,1.828c3.153,0.368,7.643,0.31,9.816-0.598c-0.985,6.396,14.49,11.78,18.75,16.239
					c-1.992,4.829,0.077,24.32,7.736,17.4C69.963,141.244,68.551,141.031,68.092,140.193"/>
				<path id="Fill-96" fill="#E2E2E2" d="M33.131,114.915c-3.335-2.088-3.949-4.707-3.354-7.96c-7.567,0-10.181-6.741-12.658-11.145
					c-0.502-0.891-1.578-7.3-4.147-6.838c-1.116,0.096-3.557,8.765-7.35,9.582c-0.854,0.246-1.652,0.617-2.119,1.928
					c-0.512,1.429,1.15,2.531,3.731,2.311c2.569-0.463,5.68-1.254,6.533-0.688c3.611,2.415,5.612,8.612,12.952,7.155
					c-0.82,4.48,4.36,10.715,9.281,10.828c1.138,0.025,1.313-0.201,1.549-1.16C35.719,118.524,34.18,116.921,33.131,114.915"/>
				<path id="Stroke-51" fill="none" stroke="#000000" stroke-width="2" stroke-linecap="round" stroke-linejoin="round" d="
					M98.555,107.848l-6.933-47.789c0,0,16.78,0.285,26.627,7.125l8.718,45.876h-7.862L98.555,107.848L98.555,107.848z"/>
				<g id="Group-99" transform="translate(302.986577, 138.730201)">
					<polyline id="Fill-97" fill="#FFFFFF" points="0.359,1.047 0.359,9.334 3.911,9.334 3.911,1.047 					"/>
					
						<polyline id="Stroke-98" fill="none" stroke="#000000" stroke-width="2" stroke-linecap="round" stroke-linejoin="round" points="
						0.359,1.047 0.359,9.334 3.911,9.334 3.911,1.047 					"/>
				</g>
				<path id="Fill-100" fill="#FFFFFF" d="M301.889,140.077c7.674,1.765,6.096-3.86,6.096-3.86l-4.639-0.354L301.889,140.077z"/>
				<path id="Stroke-101" fill="none" stroke="#000000" stroke-width="2" stroke-linecap="round" stroke-linejoin="round" d="
					M301.889,140.077c7.674,1.765,6.096-3.86,6.096-3.86l-4.639-0.354L301.889,140.077L301.889,140.077z"/>
				<path id="Fill-102" fill="#FFC83D" d="M315.496,109.59h1.477c0,0,6.615,0.131,6.615,6.326c0,6.197-6.317,6.696-6.317,6.696
					h-5.082l-1.563-3.157c0,0,0.644-1.565,0.43-3.736c-0.215-2.17-1.285-2.867-1.285-2.867l1.959-2.25
					C311.729,110.602,313.659,112.496,315.496,109.59"/>
				<path id="Stroke-103" fill="none" stroke="#000000" stroke-width="2" stroke-linecap="round" stroke-linejoin="round" d="
					M315.496,109.59h1.477c0,0,6.615,0.131,6.615,6.326c0,6.197-6.317,6.696-6.317,6.696h-5.082l-1.563-3.157
					c0,0,0.644-1.565,0.43-3.736c-0.215-2.17-1.285-2.867-1.285-2.867l1.959-2.25C311.729,110.602,313.659,112.496,315.496,109.59
					L315.496,109.59z"/>
				<path id="Fill-104" d="M314.756,114.408c0,0.475-0.385,0.859-0.859,0.859c-0.476,0-0.86-0.385-0.86-0.859
					c0-0.476,0.385-0.859,0.86-0.859C314.371,113.549,314.756,113.933,314.756,114.408"/>
				<path id="Stroke-91" fill="none" stroke="#000000" stroke-width="2" stroke-linecap="round" stroke-linejoin="round" d="
					M82.345,116.156c-3.321-4.328-7.513-10.802-9.182-13.82c-3.574-6.477-6.374-9.946-12.28-14.017
					c-11.426-7.891-26.484-4.542-34.8,5.798c-3.867,3.967-7.315,1.463-8.313-1.256c2.654-0.994,3.767-4.785,2.418-7.25
					c-1.605,2.008-5.029,1.911-5.415,4.738c-0.132-2.245-3.686-1.903-5.074-3.868c-1.603,2.243,0.323,4.397,2.323,5.601
					c-0.85,1.188-1.234,0.789-2,2.018c-0.693,1.305-0.788,2.162-1.286,2.817c-0.048,0.062-1.006,0.321-1.477,0.56
					c-1.334,0.676-2.993,0.305-3.759,2.455c-0.512,1.429,1.15,2.531,3.732,2.311c2.569-0.463,5.679-1.254,6.531-0.688
					c3.611,2.414,5.613,8.611,12.952,7.154c-0.819,4.48,4.36,10.715,9.281,10.828c1.138,0.027,1.313-0.201,1.548-1.16
					c-3.457-0.76-5.894-5.799-5.902-9.765c2.897,0.661,9.039,0.822,11.7-0.288c-0.985,6.395,14.492,11.778,18.751,16.239
					c-1.992,4.827,0.076,24.32,7.736,17.4c0.131-1.271-1.282-1.482-1.74-2.321c-1.033-1.888-1.166-5.371-1.159-7.926
					c0.009-4.12,0.667-4.389,1.351-7.731c0.07-0.349-0.104-1.189-0.191-1.354c-0.944-1.782-4.756-3.118-6.573-5.607
					c-1.946-2.663-4.419-11.939-2.319-14.498c3.26-3.975,7.054,3.428,9.28,6.381c4.662,6.176,17.733,23.298,31.653,14.986
					C90.465,125.051,84.571,119.059,82.345,116.156L82.345,116.156z"/>
				<g id="Group-107" transform="translate(295.281879, 138.730201)">
					<polyline id="Fill-105" fill="#FFFFFF" points="0.96,1.047 0.96,9.334 4.513,9.334 4.513,1.047 					"/>
					
						<polyline id="Stroke-106" fill="none" stroke="#000000" stroke-width="2" stroke-linecap="round" stroke-linejoin="round" points="
						0.96,1.047 0.96,9.334 4.513,9.334 4.513,1.047 					"/>
				</g>
				<g id="Group-110" transform="translate(274.369128, 138.730201)">
					<polyline id="Fill-108" fill="#FFFFFF" points="0.565,1.047 0.565,9.334 5.3,9.334 5.3,1.047 					"/>
					
						<polyline id="Stroke-109" fill="none" stroke="#000000" stroke-width="2" stroke-linecap="round" stroke-linejoin="round" points="
						0.565,1.047 0.565,9.334 5.3,9.334 5.3,1.047 					"/>
				</g>
				<g id="Group-113" transform="translate(283.174497, 136.528859)">
					<polyline id="Fill-111" fill="#FFFFFF" points="0.046,0.881 0.046,11.536 4.782,11.536 4.782,0.881 					"/>
					
						<polyline id="Stroke-112" fill="none" stroke="#000000" stroke-width="2" stroke-linecap="round" stroke-linejoin="round" points="
						0.046,0.881 0.046,11.536 4.782,11.536 4.782,0.881 					"/>
				</g>
				<path id="Fill-114" fill="#FFFFFF" d="M312.403,128.862c-0.305,0.215-0.459,0.586-0.394,0.954
					c0.055,0.32,0.083,0.639,0.083,0.95c0,3.036-2.47,5.505-5.504,5.505c-0.399,0-0.803-0.045-1.201-0.133
					c-0.212-0.048-0.434-0.021-0.63,0.073c-0.466,0.226-0.955,0.428-1.455,0.601c-0.375,0.131-0.633,0.479-0.646,0.875
					c-0.067,1.815-1.543,3.237-3.36,3.237c-1.456,0-2.741-0.931-3.195-2.313c-0.099-0.299-0.335-0.531-0.636-0.622
					s-0.627-0.03-0.875,0.164c-1.061,0.831-2.334,1.271-3.683,1.271c-1.518,0-2.965-0.571-4.075-1.608
					c-0.18-0.166-0.414-0.259-0.658-0.259h-1.233c-0.134,0-0.268,0.028-0.391,0.084c-0.673,0.298-1.443,0.329-2.143,0.078
					c-0.257-0.093-0.538-0.071-0.778,0.056c-0.24,0.128-0.415,0.352-0.481,0.615c-0.378,1.492-1.719,2.533-3.26,2.533
					c-1.854,0-3.364-1.508-3.364-3.363v-1.523c0-0.32-0.158-0.619-0.423-0.799c-0.461-0.313-0.904-0.652-1.316-1.012
					c-0.146-0.128-0.327-0.209-0.52-0.231c-2.766-0.327-4.85-2.676-4.85-5.464c0-0.745,0.146-1.466,0.434-2.146
					c0.149-0.352,0.077-0.756-0.185-1.034c-0.959-1.024-1.487-2.36-1.487-3.763c0-1.642,0.726-3.188,1.992-4.237
					c0.218-0.181,0.346-0.448,0.349-0.729c0.006-0.456,0.114-0.892,0.324-1.296c0.19-0.366,0.127-0.812-0.158-1.11
					s-0.728-0.382-1.102-0.209c-0.185,0.086-0.381,0.13-0.58,0.13c-0.771,0-1.4-0.629-1.4-1.4s0.629-1.399,1.4-1.399
					c0.047,0,0.097,0.003,0.147,0.008c0.323,0.035,0.643-0.094,0.849-0.346c0.176-0.213,0.435-0.335,0.71-0.335
					c0.302,0,0.586,0.149,0.757,0.399c0.249,0.364,0.714,0.512,1.127,0.361c0.415-0.153,0.861-0.1,1.223,0.127
					c0.219,0.139,0.485,0.184,0.738,0.123s0.47-0.221,0.604-0.443c0.988-1.662,2.801-2.693,4.731-2.693
					c0.913,0,1.818,0.229,2.616,0.661c0.253,0.136,0.555,0.153,0.821,0.045c0.268-0.108,0.472-0.33,0.558-0.605
					c0.379-1.213,1.487-2.026,2.759-2.026c0.809,0,1.56,0.326,2.113,0.919c0.331,0.355,0.876,0.409,1.27,0.124
					c0.942-0.684,2.058-1.043,3.223-1.043c1.458,0,2.831,0.564,3.869,1.59c0.195,0.193,0.462,0.293,0.736,0.277
					c0.273-0.018,0.527-0.15,0.697-0.365c0.552-0.697,1.379-1.098,2.266-1.098c0.827,0,1.615,0.355,2.163,0.974
					c0.241,0.272,0.612,0.386,0.963,0.295c0.237-0.062,0.482-0.093,0.728-0.093c0.328,0,0.649,0.057,0.953,0.162
					c0.879,1.289,2.219-1.534,4.621-1.534c0.923,0,1.77,0.426,2.321,1.17c0.167,0.225,0.424,0.366,0.703,0.387
					c0.28,0.02,0.554-0.081,0.752-0.28c0.339-0.338,0.789-0.524,1.267-0.524c0.987,0,1.79,0.802,1.79,1.79
					c0,0.065-0.004,0.132-0.012,0.197c-0.002,0.018-0.005,0.038-0.006,0.058c-0.125,0.867-0.872,1.536-1.772,1.536
					c-0.391,0-0.764-0.127-1.077-0.365c-0.224-0.17-0.511-0.234-0.785-0.175s-0.509,0.234-0.644,0.479
					c-0.174,0.32-0.404,0.6-0.684,0.834c-0.374,0.313-0.456,0.855-0.19,1.264c0.576,0.891,0.883,1.925,0.883,2.988
					c0,0.288-0.023,0.578-0.067,0.86c-0.09,0.569-0.269,1.119-0.531,1.634c-0.21,0.41-0.101,0.91,0.261,1.195
					c0.434,0.343,0.681,0.854,0.681,1.402c0,0.533,0.433,0.965,0.965,0.965h0.195c0.064,0.486,0.104,0.978,0.116,1.469
					c0.005,0.26,0.115,0.506,0.306,0.684c0.592,0.553,0.919,1.304,0.919,2.113C313.632,127.436,313.173,128.321,312.403,128.862"/>
				<path id="Fill-116" fill="#E2E2E2" d="M312.091,130.014c-0.278-0.019-0.557-0.052-0.833-0.112
					c-0.211-0.048-0.434-0.022-0.629,0.073c-0.466,0.227-0.956,0.429-1.456,0.602c-0.375,0.13-0.633,0.478-0.646,0.875
					c-0.067,1.814-1.544,3.236-3.36,3.236c-1.457,0-2.741-0.93-3.194-2.313c-0.1-0.299-0.336-0.531-0.637-0.623
					c-0.302-0.091-0.627-0.029-0.874,0.164c-1.061,0.832-2.334,1.271-3.683,1.271c-1.518,0-2.966-0.302-4.077-1.338
					c-0.178-0.167-0.413,0.01-0.658,0.01h-1.232c-0.134,0-0.268-0.24-0.391-0.187c-0.673,0.3-1.443,0.195-2.143-0.056
					c-0.256-0.091-0.539-0.138-0.778-0.01c-0.24,0.128-0.415,0.317-0.481,0.58c-0.379,1.492,1.847-0.187,1.26-0.687
					c1.306-0.964-5.965-9.195-4.152-25.193c-1.039,0.193-1.918,0.931-2.242,1.969c-0.087,0.273-0.29,0.494-0.558,0.604
					c-0.267,0.107-0.568,0.09-0.821-0.047c-0.798-0.433-1.703-0.661-2.617-0.661c-0.34,0-0.676,0.043-1.006,0.105
					c0.179,6.504-0.402,12.8-1.297,18.474c-1.395-1.005-2.298-2.629-2.298-4.455c0-0.746,0.145-1.468,0.434-2.146
					c0.148-0.352,0.075-0.756-0.186-1.035c-0.96-1.024-1.487-2.36-1.487-3.762c0-1.643,0.726-3.188,1.993-4.238
					c0.217-0.18,0.344-0.447,0.348-0.73c0.005-0.454,0.114-0.891,0.324-1.294c0.055-0.104,0.083-0.214,0.096-0.326
					c-0.66,0.448-1.232,1.029-1.651,1.732c-0.134,0.224-0.351,0.384-0.604,0.444s-0.52,0.018-0.738-0.121
					c-0.361-0.229-0.807-0.281-1.222-0.129c-0.414,0.151-0.879,0.004-1.128-0.36c-0.171-0.251-0.455-0.4-0.757-0.4
					c-0.275,0-0.534,0.122-0.71,0.335c-0.206,0.252-0.525,0.381-0.849,0.348c-0.051-0.006-0.1-0.01-0.147-0.01
					c-0.771,0-1.4,0.629-1.4,1.4s0.629,1.4,1.4,1.4c0.199,0,0.396-0.044,0.58-0.13c0.374-0.173,0.816-0.089,1.102,0.209
					s0.35,0.744,0.159,1.11c-0.211,0.404-0.319,0.84-0.325,1.295c-0.003,0.283-0.131,0.55-0.349,0.73
					c-1.266,1.051-1.992,2.596-1.992,4.238c0,1.4,0.528,2.736,1.488,3.762c0.261,0.278,0.333,0.684,0.184,1.034
					c-0.287,0.679-0.434,1.401-0.434,2.146c0,2.787,2.084,5.136,4.85,5.464c0.192,0.023,0.373,0.104,0.52,0.23
					c0.412,0.36,0.856,0.701,1.316,1.012c0.003,0.002,0.004,0.007,0.008,0.01c-0.022,0.102-0.045,0.212-0.067,0.313
					c0.021,0.014,0.115,0.031,0.137,0.046c0.117,0.08,0.304,0.187,0.392,0.306c0.007,0.043,0.107,0.08,0.107,0.125v1.525
					c0,0.516,0.05,0.999,0.259,1.438c0.431,1.327,1.588,2.291,3.066,2.291c0.866,0,1.606-0.338,2.21-0.891
					c0.046-0.172,0.082-0.354,0.127-0.527c0.385-0.406,0.668-0.91,0.813-1.482c0.066-0.264,0.238-0.486,0.479-0.613
					c0.24-0.129,0.521-0.148,0.777-0.058c0.7,0.251,1.47,0.489,2.142,0.19c0.123-0.055,0.257,0.186,0.391,0.186h1.233
					c0.244,0,0.479-0.176,0.658-0.01c1.11,1.037,2.558,1.473,4.075,1.473c1.349,0,2.622-0.506,3.683-1.337
					c0.248-0.194,0.574-0.288,0.874-0.197c0.302,0.091,0.539,0.306,0.637,0.604c0.454,1.383,1.739,2.305,3.195,2.305
					c1.817,0,3.293-1.427,3.36-3.24c0.014-0.397,0.271-0.748,0.647-0.877c0.499-0.174,0.988-0.377,1.455-0.604
					c0.195-0.095,0.417-0.121,0.629-0.074c0.398,0.088,0.802,0.134,1.201,0.134c3.034,0,5.504-2.47,5.504-5.505
					C312.093,130.027,312.091,130.02,312.091,130.014"/>
				<path id="Fill-130" fill="#E2E2E2" d="M311.366,109.479c0,0-5.137,4.311-4.587,8.163c0,0-4.219-3.577-2.018-8.347
					S310.266,108.193,311.366,109.479"/>
				<path id="Stroke-115" fill="none" stroke="#000000" stroke-width="2" stroke-linecap="round" stroke-linejoin="round" d="
					M312.403,128.862c-0.305,0.215-0.459,0.586-0.394,0.954c0.055,0.32,0.083,0.639,0.083,0.95c0,3.036-2.47,5.505-5.504,5.505
					c-0.399,0-0.803-0.045-1.201-0.133c-0.212-0.048-0.434-0.021-0.63,0.073c-0.466,0.226-0.955,0.428-1.455,0.601
					c-0.375,0.131-0.633,0.479-0.646,0.875c-0.067,1.815-1.543,3.237-3.36,3.237c-1.456,0-2.741-0.931-3.195-2.313
					c-0.099-0.299-0.335-0.531-0.636-0.622s-0.627-0.03-0.875,0.164c-1.061,0.831-2.334,1.271-3.683,1.271
					c-1.518,0-2.965-0.571-4.075-1.608c-0.18-0.166-0.414-0.259-0.658-0.259h-1.233c-0.134,0-0.268,0.028-0.391,0.084
					c-0.673,0.298-1.443,0.329-2.143,0.078c-0.257-0.093-0.538-0.071-0.778,0.056c-0.24,0.128-0.415,0.352-0.481,0.615
					c-0.378,1.492-1.719,2.533-3.26,2.533c-1.854,0-3.364-1.508-3.364-3.363v-1.523c0-0.32-0.158-0.619-0.423-0.799
					c-0.461-0.313-0.904-0.652-1.316-1.012c-0.146-0.128-0.327-0.209-0.52-0.231c-2.766-0.327-4.85-2.676-4.85-5.464
					c0-0.745,0.146-1.466,0.434-2.146c0.149-0.352,0.077-0.756-0.185-1.034c-0.959-1.024-1.487-2.36-1.487-3.763
					c0-1.642,0.726-3.188,1.992-4.237c0.218-0.181,0.346-0.448,0.349-0.729c0.006-0.456,0.114-0.892,0.324-1.296
					c0.19-0.366,0.127-0.812-0.158-1.11s-0.728-0.382-1.102-0.209c-0.185,0.086-0.381,0.13-0.58,0.13c-0.771,0-1.4-0.629-1.4-1.4
					s0.629-1.399,1.4-1.399c0.047,0,0.097,0.003,0.147,0.008c0.323,0.035,0.643-0.094,0.849-0.346
					c0.176-0.213,0.435-0.335,0.71-0.335c0.302,0,0.586,0.149,0.757,0.399c0.249,0.364,0.714,0.512,1.127,0.361
					c0.415-0.153,0.861-0.1,1.223,0.127c0.219,0.139,0.485,0.184,0.738,0.123s0.47-0.221,0.604-0.443
					c0.988-1.662,2.801-2.693,4.731-2.693c0.913,0,1.818,0.229,2.616,0.661c0.253,0.136,0.555,0.153,0.821,0.045
					c0.268-0.108,0.472-0.33,0.558-0.605c0.379-1.213,1.487-2.026,2.759-2.026c0.809,0,1.56,0.326,2.113,0.919
					c0.331,0.355,0.876,0.409,1.27,0.124c0.942-0.684,2.058-1.043,3.223-1.043c1.458,0,2.831,0.564,3.869,1.59
					c0.195,0.193,0.462,0.293,0.736,0.277c0.273-0.018,0.527-0.15,0.697-0.365c0.552-0.697,1.379-1.098,2.266-1.098
					c0.827,0,1.615,0.355,2.163,0.974c0.241,0.272,0.612,0.386,0.963,0.295c0.237-0.062,0.482-0.093,0.728-0.093
					c0.328,0,0.649,0.057,0.953,0.162c0.879,1.289,2.219-1.534,4.621-1.534c0.923,0,1.77,0.426,2.321,1.17
					c0.167,0.225,0.424,0.366,0.703,0.387c0.28,0.02,0.554-0.081,0.752-0.28c0.339-0.338,0.789-0.524,1.267-0.524
					c0.987,0,1.79,0.802,1.79,1.79c0,0.065-0.004,0.132-0.012,0.197c-0.002,0.018-0.005,0.038-0.006,0.058
					c-0.125,0.867-0.872,1.536-1.772,1.536c-0.391,0-0.764-0.127-1.077-0.365c-0.224-0.17-0.511-0.234-0.785-0.175
					s-0.509,0.234-0.644,0.479c-0.174,0.32-0.404,0.6-0.684,0.834c-0.374,0.313-0.456,0.855-0.19,1.264
					c0.576,0.891,0.883,1.925,0.883,2.988c0,0.288-0.023,0.578-0.067,0.86c-0.09,0.569-0.269,1.119-0.531,1.634
					c-0.21,0.41-0.101,0.91,0.261,1.195c0.434,0.343,0.681,0.854,0.681,1.402c0,0.533,0.433,0.965,0.965,0.965h0.195
					c0.064,0.486,0.104,0.978,0.116,1.469c0.005,0.26,0.115,0.506,0.306,0.684c0.592,0.553,0.919,1.304,0.919,2.113
					C313.632,127.436,313.173,128.321,312.403,128.862L312.403,128.862z"/>
				<path id="Stroke-117" fill="none" stroke="#000000" stroke-width="2" stroke-linecap="round" stroke-linejoin="round" d="
					M304.202,112.556c0,0-0.579-4.201,2.549-5.263"/>
				<path id="Stroke-118" fill="none" stroke="#D1D1D1" stroke-width="2" stroke-linecap="round" stroke-linejoin="round" d="
					M264.592,41.839c0.019-0.466,0.135-1.269,0.665-1.893c0.577-0.679,2.675-2.147,4.064-2.192"/>
				<path id="Stroke-119" fill="none" stroke="#D1D1D1" stroke-width="2" stroke-linecap="round" stroke-linejoin="round" d="
					M258.146,37.754c0.673,0.01,5.001,1.311,5.308,4.22"/>
				<path id="Stroke-120" fill="none" stroke="#D1D1D1" stroke-width="2" stroke-linecap="round" stroke-linejoin="round" d="
					M48.744,39.912c0.019-0.466,0.135-1.269,0.666-1.893c0.577-0.679,2.674-2.147,4.063-2.192"/>
				<path id="Stroke-121" fill="none" stroke="#D1D1D1" stroke-width="2" stroke-linecap="round" stroke-linejoin="round" d="
					M42.297,35.827c0.674,0.01,5.001,1.311,5.308,4.22"/>
				<path id="Stroke-122" fill="none" stroke="#D1D1D1" stroke-width="2" stroke-linecap="round" stroke-linejoin="round" d="
					M291.415,63.468c0.019-0.467,0.136-1.269,0.666-1.894c0.577-0.679,2.675-2.147,4.063-2.192"/>
				<path id="Stroke-123" fill="none" stroke="#D1D1D1" stroke-width="2" stroke-linecap="round" stroke-linejoin="round" d="
					M284.97,59.383c0.673,0.01,5.001,1.311,5.307,4.22"/>
				<g id="Group-126" transform="translate(246.852349, 70.488591)">
					<path id="Fill-124" fill="#FFFFFF" d="M14.763,62.806v16.121H7.696c-1.536-3.719-8.819-25.232-6.748-46.59
						c0.13-1.336,0.295-2.671,0.502-4.002C3.054,17.999,7.091,7.963,15.3,0.293c9.275,8.667,13.24,20.357,14.389,32.089
						c0.098,0.989,0.174,1.979,0.233,2.967c1.2,20.33-5.438,40.035-6.895,43.578h-8.441"/>
					<path id="Fill-127" fill="#E2E2E2" d="M30.472,34.275c-0.058-0.988-0.135-1.99-0.231-2.98
						C29.266,21.358,23.897,11.1,17.367,3.034c3.556,6.592,7.749,14.286,8.47,21.647c0.097,0.988,0.174,2.004,0.232,2.991
						c1.201,20.329-5.594,38.1-7.051,41.401l-8.108,2.201H6.028c0.961,3.303,1.802,5.504,2.218,6.604h7.067h8.265
						C25.035,74.578,31.673,54.605,30.472,34.275"/>
					<path id="Stroke-125" fill="none" stroke="#000000" stroke-width="2" stroke-linecap="round" stroke-linejoin="round" d="
						M14.763,62.806v16.121H7.696c-1.536-3.719-8.819-25.232-6.748-46.59c0.13-1.336,0.295-2.671,0.502-4.002
						C3.054,17.999,7.091,7.963,15.3,0.293c9.275,8.667,13.24,20.357,14.389,32.089c0.098,0.989,0.174,1.979,0.233,2.967
						c1.2,20.33-5.438,40.035-6.895,43.578h-8.441"/>
				</g>
				<path id="Fill-128" fill="#FFC83D" d="M276.295,109.77c-1.276,1.19-2.374,2.996-5.945,3.207c-3.888,0.23-6.881-1.041-9.543-4.01
					c-2.591-3.33-4.503-5.091-7.646-5.158c-2.371-0.061-3.475,0.846-5.104,1.914l0.995-6.897c1.631-1.069,2.733-1.976,5.104-1.914
					c3.144,0.068,6.052,1.828,8.642,5.157c2.023,2.602,4.229,3.963,6.558,4.01c3.012,0.049,5.664-2.016,6.94-3.207V109.77z"/>
				<path id="Stroke-129" fill="none" stroke="#000000" stroke-width="2" stroke-linecap="round" stroke-linejoin="round" d="
					M276.295,109.77c-1.276,1.19-2.374,2.996-5.945,3.207c-3.888,0.23-6.881-1.041-9.543-4.01c-2.591-3.33-4.503-5.091-7.646-5.158
					c-2.371-0.061-3.475,0.846-5.104,1.914l0.995-6.897c1.631-1.069,2.733-1.976,5.104-1.914c3.144,0.068,6.052,1.828,8.642,5.157
					c2.023,2.602,4.229,3.963,6.558,4.01c3.012,0.049,5.664-2.016,6.94-3.207V109.77L276.295,109.77z"/>
			</g>
		</g>
	</g>
</g>
<g id="Page-1_2_">
	<g id="_x32_07_x5F_M2U_x5F_Planner_x5F_Travel-Copy_1_" transform="translate(-823.000000, -337.000000)">
		
			<g id="plane" transform="translate(853.110230, 355.168677) rotate(26.000000) translate(-853.110230, -355.168677) translate(823.110230, 339.668677)">
			<path id="Fill-1" fill="#373737" d="M212.649,43.771c0.015,0.031,0.033,0.058,0.047,0.088l0.339,0.727
				c0.586,1.258-0.319,2.224-1.284,2.674l-37.338,17.853l-4.679,2.182c-0.836,0.389-1.812,0.285-2.547-0.273l-7.567-5.753
				l1.966-0.915l5.063,2.732c0.356,0.191,0.784,0.189,1.14-0.006l11.127-6.134l1.649,1.384c0.211,0.16,0.465,0.243,0.72,0.242
				c0.171,0,0.343-0.036,0.503-0.111l9.802-4.572c0.408-0.189,0.673-0.593,0.687-1.042c0.013-0.45-0.228-0.869-0.624-1.081
				l-1.776-0.864l13.295-7.329c3.022-1.452,5.643-1.956,7.434-1.439L212.649,43.771z M181.432,56l-12.812-9.871l3.965-1.849
				l15.852,8.453L181.432,56z M215.191,43.58l-0.337-0.725c-0.639-1.368-1.747-2.366-3.208-2.888
				c-2.436-0.868-5.733-0.357-9.537,1.477c-0.019,0.009-0.038,0.02-0.058,0.029l-14.666,8.086l-14.195-7.656
				c-0.331-0.178-0.727-0.189-1.067-0.029l-6.293,2.935c-0.378,0.176-0.636,0.536-0.681,0.951c-0.045,0.413,0.13,0.821,0.463,1.073
				l11.232,8.539l-9.636,5.313l-5.019-2.706c-0.331-0.178-0.727-0.19-1.067-0.031l-4.292,2.002c-0.378,0.177-0.637,0.538-0.68,0.951
				c-0.044,0.415,0.132,0.822,0.462,1.074l9.136,6.944c0.863,0.656,1.896,0.993,2.937,0.993c0.698,0.001,1.399-0.15,2.056-0.457
				l4.689-2.187l37.337-17.852c1.121-0.523,1.993-1.359,2.457-2.354C215.734,45.957,215.724,44.722,215.191,43.58L215.191,43.58z"/>
		</g>
	</g>
</g>
</svg>
