<?xml version="1.0" encoding="UTF-8"?>
<svg width="732px" height="180px" viewBox="0 0 732 180" version="1.1" xmlns="http://www.w3.org/2000/svg" xmlns:xlink="http://www.w3.org/1999/xlink">
    <!-- Generator: sketchtool 41.2 (35397) - http://www.bohemiancoding.com/sketch -->
    <title>91E5D088-4876-44C1-B93A-4DB6957FAA9F</title>
    <desc>Created with sketchtool.</desc>
    <defs></defs>
    <g id="Page-1" stroke="none" stroke-width="1" fill="none" fill-rule="evenodd">
        <g id="204_M2U_Planner_Travel-Copy-12" transform="translate(-288.000000, -495.000000)">
            <g id="Group-5" transform="translate(290.000000, 496.000000)">
                <path d="M156,143.2 L728.503493,143.2" id="Line" stroke="#1C1918" stroke-width="2.4" stroke-linecap="round" stroke-linejoin="round"></path>
                <path d="M23,143.2 L147,143.2" id="Line-Copy" stroke="#1C1918" stroke-width="2.4" stroke-linecap="round" stroke-linejoin="round"></path>
                <path d="M0,143.2 L13,143.2" id="Line-Copy" stroke="#1C1918" stroke-width="2.4" stroke-linecap="round" stroke-linejoin="round"></path>
                <g id="Page-1" transform="translate(188.000000, 0.000000)">
                    <path d="M78.3515946,77.4364671 C78.3515946,120.148011 112.976507,137.409836 155.68695,137.409836 C198.398494,137.409836 233.023407,120.148011 233.023407,77.4364671 C233.023407,34.7249235 198.398494,0.101111409 155.68695,0.101111409 C112.976507,0.101111409 78.3515946,34.7249235 78.3515946,77.4364671 L78.3515946,77.4364671 Z" id="Stroke-1" stroke="#D1D1D1" stroke-width="2" stroke-linecap="round" stroke-linejoin="round"></path>
                    <g id="Group-6" transform="translate(3.604027, 151.938255)" stroke="#E2E2E2" stroke-width="12" stroke-linecap="round" stroke-linejoin="round">
                        <path d="M0,0.124375839 L306.981584,0.124375839" id="Stroke-5"></path>
                    </g>
                    <g id="Group-10" transform="translate(20.114094, 160.743624)">
                        <path d="M59.3771356,0.73381745 L0.325028188,0.73381745" id="Fill-7" fill="#FFFFFF"></path>
                        <path d="M59.3771356,0.73381745 L0.325028188,0.73381745" id="Stroke-9" stroke="#000000" stroke-width="2" stroke-linecap="round" stroke-linejoin="round"></path>
                    </g>
                    <g id="Group-14" transform="translate(88.355705, 160.743624)">
                        <path d="M154.768561,0.73381745 L0.674601342,0.73381745" id="Fill-11" fill="#FFFFFF"></path>
                        <path d="M154.768561,0.73381745 L0.674601342,0.73381745" id="Stroke-13" stroke="#000000" stroke-width="2" stroke-linecap="round" stroke-linejoin="round"></path>
                    </g>
                    <g id="Group-18" transform="translate(252.355705, 160.743624)">
                        <path d="M29.6590148,0.73381745 L0.30741745,0.73381745" id="Fill-15" fill="#FFFFFF"></path>
                        <path d="M29.6590148,0.73381745 L0.30741745,0.73381745" id="Stroke-17" stroke="#000000" stroke-width="2" stroke-linecap="round" stroke-linejoin="round"></path>
                    </g>
                    <g id="Group-22" transform="translate(189.617450, 177.253691)">
                        <path d="M13.882655,0 L0.224426846,0" id="Fill-19" fill="#FFFFFF"></path>
                        <path d="M13.882655,0 L0.224426846,0" id="Stroke-21" stroke="#000000" stroke-width="2" stroke-linecap="round" stroke-linejoin="round"></path>
                    </g>
                    <g id="Group-26" transform="translate(83.953020, 177.253691)">
                        <path d="M42.8431839,0 L0.0281771812,0" id="Fill-23" fill="#FFFFFF"></path>
                        <path d="M42.8431839,0 L0.0281771812,0" id="Stroke-25" stroke="#000000" stroke-width="2" stroke-linecap="round" stroke-linejoin="round"></path>
                    </g>
                    <g id="Group-30" transform="translate(135.684564, 177.253691)">
                        <path d="M46.1067839,0 L0.307857718,0" id="Fill-27" fill="#FFFFFF"></path>
                        <path d="M46.1067839,0 L0.307857718,0" id="Stroke-29" stroke="#000000" stroke-width="2" stroke-linecap="round" stroke-linejoin="round"></path>
                    </g>
                    <g id="Group-34" transform="translate(63.040268, 177.253691)">
                        <path d="M13.5803007,0 L0.782797315,0" id="Fill-31" fill="#FFFFFF"></path>
                        <path d="M13.5803007,0 L0.782797315,0" id="Stroke-33" stroke="#000000" stroke-width="2" stroke-linecap="round" stroke-linejoin="round"></path>
                    </g>
                    <path d="M0.721919463,143.186709 L322.658322,143.186709" id="Stroke-35" stroke="#000000" stroke-width="2" stroke-linecap="round" stroke-linejoin="round"></path>
                    <polyline id="Fill-37" fill="#FFFFFF" points="75.6649664 102.0412 83.1693423 78.6750523 94.2431946 78.1214148 98.5556242 107.848341"></polyline>
                    <g id="Group-42" transform="translate(61.939597, 72.589262)" fill="#FFFFFF">
                        <path d="M31.8200725,4.00188993 C14.1532,-3.0985396 0.0469986577,1.43292349 0.0469986577,1.43292349 L13.7250389,29.4516081 C13.7250389,29.4516081 17.2570926,15.9661852 32.019294,7.13219866" id="Fill-39"></path>
                    </g>
                    <path d="M80.6835866,73.5228107 C80.6835866,73.5228107 86.0966872,78.7807168 88.8472644,88.0153477 C91.4151302,96.6369047 90.8647946,105.442274 90.8647946,105.442274 L98.5551839,107.848341 L93.7595597,76.5914819 L80.6835866,73.5228107 Z" id="Fill-43" fill="#E2E2E2"></path>
                    <g id="Group-56" transform="translate(113.671141, 40.770470)">
                        <path d="M54.8409396,42.2599383 C40.9713826,7.41158926 0.373127517,0.196689933 0.373127517,0.196689933 L12.8415302,71.3803946 C12.8415302,71.3803946 13.2465772,72.0429987 13.7187651,71.5862201 C20.0024966,65.5017101 66.3451544,22.3719114 104.756376,34.9657906 L96.2206711,50.4423275 L96.2085638,72.2906497 L9.81028188,72.2906497" id="Fill-53" fill="#FFFFFF"></path>
                        <path d="M104.756816,35.0084966 C104.756816,35.0084966 76.9879839,49.3260268 74.7866416,72.4401208 L80.535447,72.3762819 L96.2079034,72.3762819 C96.2079034,72.3762819 87.2605477,59.2111544 104.756816,35.0084966" id="Fill-57" fill="#E2E2E2"></path>
                        <path d="M48.7372779,31.6516698 C48.7372779,31.6516698 13.8184859,56.0755624 12.8410899,71.3803946 C12.8410899,71.3803946 43.7842577,46.2355624 51.4889557,43.2087168 C59.1936537,40.1818711 51.0552913,35.319106 48.7372779,31.6516698" id="Fill-83" fill="#E2E2E2"></path>
                        <path d="M54.8409396,42.2599383 C40.9713826,7.41158926 0.373127517,0.196689933 0.373127517,0.196689933 L12.8415302,71.3803946 C12.8415302,71.3803946 13.2465772,72.0429987 13.7187651,71.5862201 C20.0024966,65.5017101 66.3451544,22.3719114 104.756376,34.9657906 L96.2206711,50.4423275 L96.2085638,72.2906497 L9.81028188,72.2906497" id="Stroke-55" stroke="#000000" stroke-width="2" stroke-linecap="round" stroke-linejoin="round"></path>
                    </g>
                    <g id="Group-62" transform="translate(162.100671, 80.394631)">
                        <path d="M32.1061369,32.6668188 C32.1061369,32.6668188 15.8338148,10.2571544 12.0012779,0.517315436 C12.0012779,0.517315436 3.32578792,6.73610738 0.761224161,32.6668188" id="Fill-59" fill="#FFFFFF"></path>
                        <path d="M12.0017181,0.51753557 C12.0017181,0.51753557 12.0479463,20.6444081 15.3499597,32.7517906 L32.1065772,32.7517906 C32.1065772,32.7517906 18.6519732,13.6738577 12.0017181,0.51753557" id="Fill-63" fill="#E2E2E2"></path>
                        <path d="M32.1061369,32.6668188 C32.1061369,32.6668188 15.8338148,10.2571544 12.0012779,0.517315436 C12.0012779,0.517315436 3.32578792,6.73610738 0.761224161,32.6668188" id="Stroke-61" stroke="#000000" stroke-width="2" stroke-linecap="round" stroke-linejoin="round"></path>
                    </g>
                    <path d="M93.7596698,76.5911517 C76.0927973,69.4907221 61.986596,74.0221852 61.986596,74.0221852 L75.6646362,102.04087 C75.6646362,102.04087 79.1966899,88.555447 93.9588913,79.7214604" id="Stroke-41" stroke="#000000" stroke-width="2" stroke-linecap="round" stroke-linejoin="round"></path>
                    <g id="Group-68" transform="translate(221.536913, 89.200000)" fill="#FFFFFF">
                        <path d="M8.00441074,27.824306 L36.4996859,1.49184966 C36.4996859,1.49184966 20.3924644,-3.3037745 0.662934228,6.78827919" id="Fill-65"></path>
                    </g>
                    <g id="Group-72" transform="translate(200.624161, 89.200000)">
                        <path d="M9.25521342,23.8614497 L0.706300671,0.238845638 C0.706300671,0.238845638 13.3794282,1.968 21.5761262,6.78783893 L26.4620054,26.1178255" id="Fill-69" fill="#FFFFFF"></path>
                        <path d="M24.1556591,19.1774336 C24.1556591,19.1774336 48.0754443,0.70597047 57.3772161,1.51386309 L28.8995517,27.8353128 L26.4538604,26.1655946 L23.2178872,23.9466416 L9.11278658,23.9466416 L2.87638389,6.33590336 L24.1556591,19.1774336 Z" id="Fill-73" fill="#E2E2E2"></path>
                        <path d="M28.9171624,27.824306 L57.4124376,1.49184966 C57.4124376,1.49184966 41.3052161,-3.3037745 21.5756859,6.78827919" id="Stroke-67" stroke="#000000" stroke-width="2" stroke-linecap="round" stroke-linejoin="round"></path>
                        <path d="M9.25521342,23.8614497 L0.706300671,0.238845638 C0.706300671,0.238845638 13.3794282,1.968 21.5761262,6.78783893 L26.4620054,26.1178255" id="Stroke-71" stroke="#000000" stroke-width="2" stroke-linecap="round" stroke-linejoin="round"></path>
                    </g>
                    <g id="Group-78" transform="translate(75.147651, 101.307383)">
                        <polyline id="Fill-75" fill="#FFC83D" points="178.330078 38.6418121 168.356897 15.7170336 154.393783 15.7170336 148.694507 11.7546174 43.956843 11.7546174 43.956843 38.6418121 43.956843 11.7546174 0.517755705 0.733597315 0.517755705 38.6418121"></polyline>
                        <polyline id="Stroke-77" stroke="#000000" stroke-width="2" stroke-linecap="round" stroke-linejoin="round" points="178.330078 38.6418121 168.356897 15.7170336 154.393783 15.7170336 148.694507 11.7546174 43.956843 11.7546174 43.956843 38.6418121 43.956843 11.7546174 0.517755705 0.733597315 0.517755705 38.6418121"></polyline>
                    </g>
                    <polygon id="Fill-79" fill="#FFC83D" points="65.0027651 142.836805 257.090792 142.836805 257.090792 134.614792 65.0027651 134.614792"></polygon>
                    <polygon id="Stroke-81" stroke="#000000" stroke-width="2" stroke-linecap="round" stroke-linejoin="round" points="65.0027651 142.836805 257.090792 142.836805 257.090792 134.614792 65.0027651 134.614792"></polygon>
                    <path d="M106.824526,63.0664349 L117.693654,65.9556966 L126.512231,112.150864 L119.104714,113.061119 L116.455399,111.771133 C116.552258,109.107509 115.515426,95.9225691 114.39164,87.0060322 C112.190298,69.5328779 106.824526,63.0664349 106.824526,63.0664349" id="Fill-82" fill="#E2E2E2"></path>
                    <g id="Group-48" transform="translate(98.261745, 71.589262)">
                        <path d="M0.908163758,34.9234148 C3.32633826,29.7392537 12.4872242,10.7559785 21.3223114,1.0084349" id="Fill-45" fill="#FFFFFF"></path>
                        <path d="M0.908163758,34.9234148 C3.32633826,29.7392537 12.4872242,10.7559785 21.3223114,1.0084349" id="Stroke-47" stroke="#000000" stroke-width="2" stroke-linecap="round" stroke-linejoin="round"></path>
                    </g>
                    <g id="Group-86" transform="translate(24.516779, 123.320805)">
                        <path d="M21.078953,13.1692 C18.6585772,20.3301664 24.2059597,20.3301664 24.2059597,20.3301664 L23.9825235,23.2557503 L21.6424966,23.9623812 L21.6424966,25.6596161 L27.5343893,25.6596161 L27.1810738,19.1040188 C29.9041342,17.0864886 29.5519195,12.4174416 29.5519195,12.4174416 C29.5519195,8.18095839 23.1966443,4.95048859 23.1966443,4.95048859 C23.1966443,4.95048859 20.5748456,3.31048859 17.0438926,4.31980403 C17.0438926,4.31980403 14.9262013,0.472958389 11.9004564,1.17958926 C11.9004564,1.17958926 8.26934228,1.37440805 8.57202685,4.90536107 L0.401744966,9.03728054 L10.5884564,7.92560268 C10.5884564,7.92560268 12.5058255,10.043294 13.7154631,9.94203221 C13.7154631,9.94203221 13.2113557,15.3892537 17.0438926,19.0203678 C17.0438926,19.0203678 19.0614228,21.5409047 22.9952215,20.8353745" id="Fill-84" fill="#FFFFFF"></path>
                        <path d="M21.078953,13.1692 C18.6585772,20.3301664 24.2059597,20.3301664 24.2059597,20.3301664 L23.9825235,23.2557503 L21.6424966,23.9623812 L21.6424966,25.6596161 L27.5343893,25.6596161 L27.1810738,19.1040188 C29.9041342,17.0864886 29.5519195,12.4174416 29.5519195,12.4174416 C29.5519195,8.18095839 23.1966443,4.95048859 23.1966443,4.95048859 C23.1966443,4.95048859 20.5748456,3.31048859 17.0438926,4.31980403 C17.0438926,4.31980403 14.9262013,0.472958389 11.9004564,1.17958926 C11.9004564,1.17958926 8.26934228,1.37440805 8.57202685,4.90536107 L0.401744966,9.03728054 L10.5884564,7.92560268 C10.5884564,7.92560268 12.5058255,10.043294 13.7154631,9.94203221 C13.7154631,9.94203221 13.2113557,15.3892537 17.0438926,19.0203678 C17.0438926,19.0203678 19.0614228,21.5409047 22.9952215,20.8353745" id="Stroke-85" stroke="#000000" stroke-width="2" stroke-linecap="round" stroke-linejoin="round"></path>
                    </g>
                    <g id="Group-89" transform="translate(36.624161, 142.032215)">
                        <polyline id="Fill-87" fill="#FFC83D" points="3.48219329 0.299272483 3.91695839 4.4939302 0.729414765 5.35135302 0.729414765 6.94842685 6.65212617 6.94842685 6.54756242 2.35752752"></polyline>
                        <polyline id="Stroke-88" stroke="#000000" stroke-width="2" stroke-linecap="round" stroke-linejoin="round" points="3.48219329 0.299272483 3.91695839 4.4939302 0.729414765 5.35135302 0.729414765 6.94842685 6.65212617 6.94842685 6.54756242 2.35752752"></polyline>
                    </g>
                    <path d="M82.3452698,116.156537 C79.024545,111.828698 74.8320886,105.35455 73.1634711,102.335409 C69.5895919,95.8590604 66.7894846,92.389745 60.8832832,88.3194631 C49.4572161,80.4287517 34.3989342,83.7769933 26.0833638,94.1177987 C22.216706,98.0835168 18.7683034,95.5805906 17.7710953,92.8608322 C20.4248134,91.8669262 21.5375919,88.0762148 20.1892698,85.6118121 C18.5844913,87.6194362 15.1603034,87.5225772 14.7750685,90.3491007 C14.6429879,88.1048322 11.0889208,88.4460403 9.7009745,86.4813423 C8.09839732,88.7245101 10.0245718,90.8785235 12.0244913,92.0826577 C11.1747732,93.2691812 10.7906389,92.8707383 10.0245718,94.1001879 C9.33114899,95.4044832 9.23649128,96.261906 8.73898792,96.9168054 C8.69055839,96.978443 7.7329745,97.2382013 7.26188725,97.4759463 C5.92787383,98.1517584 4.26916242,97.7819329 3.5030953,99.9315436 C2.99128322,101.360215 4.65329664,102.463087 7.23547114,102.241852 C9.80443758,101.77957 12.9138336,100.988188 13.7668537,101.555034 C17.3781557,103.968805 19.3791758,110.165584 26.718451,108.709396 C25.8995517,113.189128 31.0782094,119.423329 35.9993101,119.536698 C37.137404,119.564215 37.3124107,119.336376 37.5479544,118.376591 C34.0907463,117.617128 31.6538604,112.578255 31.6461557,108.612537 C34.5431221,109.27404 40.6848671,109.434738 43.3462899,108.324161 C42.3611893,114.71906 57.8377262,120.102443 62.0973235,124.563463 C60.1051087,129.391007 62.1732698,148.883893 69.8328403,141.963973 C69.9638201,140.693799 68.5505584,140.481369 68.0926792,139.642658 C67.0602497,137.755007 66.9270685,134.271383 66.9336725,131.716725 C66.9424779,127.596913 67.6006792,127.328349 68.284196,123.985611 C68.3546389,123.636698 68.1807329,122.795785 68.0926792,122.630685 C67.1483034,120.848698 63.3366792,119.512483 61.5194711,117.023866 C59.5734846,114.360242 57.1002765,105.083785 59.200357,102.524725 C62.460545,98.5502013 66.2545584,105.953315 68.4801154,108.906416 C73.1414577,115.082282 86.2130282,132.204322 100.132115,123.892054 C90.4649208,125.05106 84.5708268,119.057906 82.3452698,116.156537" id="Fill-90" fill="#FFFFFF"></path>
                    <path d="M18.8717664,89.5587087 C19.1139141,90.2202121 19.5046523,90.8674067 20.0076591,91.4133396 C20.5668,90.4293396 20.8309611,89.2450174 20.7440081,88.1113262 C20.2586121,88.7563195 19.6312295,89.2747356 18.8717664,89.5587087" id="Fill-92" fill="#E2E2E2"></path>
                    <path d="M10.7138121,91.6713369 C10.8260805,91.4038738 10.9570604,91.1143973 11.1254631,90.797404 C11.8431007,89.6472027 12.2305369,89.9069611 12.9723893,88.9724913 C11.8375973,88.4837933 10.452953,88.096357 9.70119463,87.0320081 C8.4629396,88.7644644 9.33357047,90.4418872 10.7138121,91.6713369" id="Fill-93" fill="#E2E2E2"></path>
                    <path d="M87.9570416,121.790983 C79.5787329,118.750929 72.6984376,109.735332 69.5813369,105.604513 C67.3546792,102.651412 63.5617664,95.248298 60.3004779,99.2228215 C59.7039141,99.9503651 59.4859812,101.227144 59.510196,102.732862 C62.6988403,99.5640295 66.324451,106.596217 68.4806658,109.456862 C73.1409074,115.632728 86.2135785,132.754768 100.131565,124.442499 C95.0200483,125.055573 90.9739812,123.663224 87.9570416,121.790983" id="Fill-94" fill="#E2E2E2"></path>
                    <path d="M68.092349,140.192773 C68.0791409,140.168558 68.0692349,140.136639 68.0560268,140.112424 C65.9625503,136.949095 64.3852886,128.583995 66.1001342,124.428961 C61.8394362,119.967941 44.7526174,111.286948 45.7377181,104.892048 C40.3719463,105.992719 34.0507919,108.304129 31.1538255,107.643726 C31.1560268,108.97774 33.0326711,108.098303 33.5312752,109.471941 C36.684698,109.839565 41.1743356,109.78123 43.3470604,108.874277 C42.3619597,115.269176 57.837396,120.653659 62.0969933,125.113579 C60.1047785,129.942223 62.1740403,149.434008 69.8336107,142.514089 C69.9634899,141.243914 68.5513289,141.031485 68.092349,140.192773" id="Fill-95" fill="#E2E2E2"></path>
                    <path d="M33.1311812,114.91531 C29.7961477,112.827337 29.1819732,110.20774 29.7774362,106.955256 C22.2103221,106.955256 19.5962282,100.213646 17.1197181,95.8109611 C16.6178121,94.9194174 15.5413557,88.5102094 12.9723893,88.9724913 C11.8563087,89.0682497 9.41502013,97.7371356 5.62210738,98.5549342 C4.76798658,98.8003839 3.97,99.1724107 3.50331544,100.482209 C2.99150336,101.910881 4.65351678,103.013753 7.2345906,102.792518 C9.80355705,102.330236 12.9140537,101.538854 13.7670738,102.104599 C17.3783758,104.519471 19.379396,110.71625 26.7186711,109.260062 C25.8986711,113.739793 31.0784295,119.973995 35.9995302,120.087364 C37.1376242,120.11378 37.3126309,119.887042 37.5481745,118.927256 C35.7188591,118.524411 34.1801208,116.920733 33.1311812,114.91531" id="Fill-96" fill="#E2E2E2"></path>
                    <path d="M98.5550738,107.848231 L91.6219463,60.0592913 C91.6219463,60.0592913 108.402779,60.3443651 118.249383,67.1839356 L126.966698,113.061009 L119.104604,113.061009 L98.5550738,107.848231 L98.5550738,107.848231 Z" id="Stroke-51" stroke="#000000" stroke-width="2" stroke-linecap="round" stroke-linejoin="round"></path>
                    <g id="Group-99" transform="translate(302.986577, 138.730201)">
                        <polyline id="Fill-97" fill="#FFFFFF" points="0.358708725 1.04706846 0.358708725 9.33402148 3.9105745 9.33402148 3.9105745 1.04706846"></polyline>
                        <polyline id="Stroke-98" stroke="#000000" stroke-width="2" stroke-linecap="round" stroke-linejoin="round" points="0.358708725 1.04706846 0.358708725 9.33402148 3.9105745 9.33402148 3.9105745 1.04706846"></polyline>
                    </g>
                    <path d="M301.888438,140.077313 C309.562317,141.841689 307.983954,136.216158 307.983954,136.216158 L303.345726,135.863944 L301.888438,140.077313 Z" id="Fill-100" fill="#FFFFFF"></path>
                    <path d="M301.888438,140.077313 C309.562317,141.841689 307.983954,136.216158 307.983954,136.216158 L303.345726,135.863944 L301.888438,140.077313 L301.888438,140.077313 Z" id="Stroke-101" stroke="#000000" stroke-width="2" stroke-linecap="round" stroke-linejoin="round"></path>
                    <path d="M315.495815,109.590483 L316.972915,109.590483 C316.972915,109.590483 323.587949,109.720362 323.587949,115.91604 C323.587949,122.112819 317.270097,122.612523 317.270097,122.612523 L312.188298,122.612523 L310.626446,119.454698 C310.626446,119.454698 311.269238,117.889544 311.055707,115.71902 C310.841077,113.548497 309.770123,112.851772 309.770123,112.851772 L311.729318,110.602 C311.729318,110.602 313.658795,112.496255 315.495815,109.590483" id="Fill-102" fill="#FFC83D"></path>
                    <path d="M315.495815,109.590483 L316.972915,109.590483 C316.972915,109.590483 323.587949,109.720362 323.587949,115.91604 C323.587949,122.112819 317.270097,122.612523 317.270097,122.612523 L312.188298,122.612523 L310.626446,119.454698 C310.626446,119.454698 311.269238,117.889544 311.055707,115.71902 C310.841077,113.548497 309.770123,112.851772 309.770123,112.851772 L311.729318,110.602 C311.729318,110.602 313.658795,112.496255 315.495815,109.590483 L315.495815,109.590483 Z" id="Stroke-103" stroke="#000000" stroke-width="2" stroke-linecap="round" stroke-linejoin="round"></path>
                    <path d="M314.756164,114.408011 C314.756164,114.883501 314.370929,115.267635 313.89654,115.267635 C313.42105,115.267635 313.035815,114.883501 313.035815,114.408011 C313.035815,113.932521 313.42105,113.548387 313.89654,113.548387 C314.370929,113.548387 314.756164,113.932521 314.756164,114.408011" id="Fill-104" fill="#000000"></path>
                    <path d="M82.3452698,116.156537 C79.024545,111.828698 74.8320886,105.35455 73.1634711,102.335409 C69.5895919,95.8590604 66.7894846,92.389745 60.8832832,88.3194631 C49.4572161,80.4287517 34.3989342,83.7769933 26.0833638,94.1177987 C22.216706,98.0835168 18.7683034,95.5805906 17.7710953,92.8608322 C20.4248134,91.8669262 21.5375919,88.0762148 20.1892698,85.6118121 C18.5844913,87.6194362 15.1603034,87.5225772 14.7750685,90.3491007 C14.6429879,88.1048322 11.0889208,88.4460403 9.7009745,86.4813423 C8.09839732,88.7245101 10.0245718,90.8785235 12.0244913,92.0826577 C11.1747732,93.2691812 10.7906389,92.8707383 10.0245718,94.1001879 C9.33114899,95.4044832 9.23649128,96.261906 8.73898792,96.9168054 C8.69055839,96.978443 7.7329745,97.2382013 7.26188725,97.4759463 C5.92787383,98.1517584 4.26916242,97.7819329 3.5030953,99.9315436 C2.99128322,101.360215 4.65329664,102.463087 7.23547114,102.241852 C9.80443758,101.77957 12.9138336,100.988188 13.7668537,101.555034 C17.3781557,103.968805 19.3791758,110.165584 26.718451,108.709396 C25.8995517,113.189128 31.0782094,119.423329 35.9993101,119.536698 C37.137404,119.564215 37.3124107,119.336376 37.5479544,118.376591 C34.0907463,117.617128 31.6538604,112.578255 31.6461557,108.612537 C34.5431221,109.27404 40.6848671,109.434738 43.3462899,108.324161 C42.3611893,114.71906 57.8377262,120.102443 62.0973235,124.563463 C60.1051087,129.391007 62.1732698,148.883893 69.8328403,141.963973 C69.9638201,140.693799 68.5505584,140.481369 68.0926792,139.642658 C67.0602497,137.755007 66.9270685,134.271383 66.9336725,131.716725 C66.9424779,127.596913 67.6006792,127.328349 68.284196,123.985611 C68.3546389,123.636698 68.1807329,122.795785 68.0926792,122.630685 C67.1483034,120.848698 63.3366792,119.512483 61.5194711,117.023866 C59.5734846,114.360242 57.1002765,105.083785 59.200357,102.524725 C62.460545,98.5502013 66.2545584,105.953315 68.4801154,108.906416 C73.1414577,115.082282 86.2130282,132.204322 100.132115,123.892054 C90.4649208,125.05106 84.5708268,119.057906 82.3452698,116.156537 L82.3452698,116.156537 Z" id="Stroke-91" stroke="#000000" stroke-width="2" stroke-linecap="round" stroke-linejoin="round"></path>
                    <g id="Group-107" transform="translate(295.281879, 138.730201)">
                        <polyline id="Fill-105" fill="#FFFFFF" points="0.960665772 1.04706846 0.960665772 9.33402148 4.51253154 9.33402148 4.51253154 1.04706846"></polyline>
                        <polyline id="Stroke-106" stroke="#000000" stroke-width="2" stroke-linecap="round" stroke-linejoin="round" points="0.960665772 1.04706846 0.960665772 9.33402148 4.51253154 9.33402148 4.51253154 1.04706846"></polyline>
                    </g>
                    <g id="Group-110" transform="translate(274.369128, 138.730201)">
                        <polyline id="Fill-108" fill="#FFFFFF" points="0.565084564 1.04706846 0.565084564 9.33402148 5.30017181 9.33402148 5.30017181 1.04706846"></polyline>
                        <polyline id="Stroke-109" stroke="#000000" stroke-width="2" stroke-linecap="round" stroke-linejoin="round" points="0.565084564 1.04706846 0.565084564 9.33402148 5.30017181 9.33402148 5.30017181 1.04706846"></polyline>
                    </g>
                    <g id="Group-113" transform="translate(283.174497, 136.528859)">
                        <polyline id="Fill-111" fill="#FFFFFF" points="0.046338255 0.880757047 0.046338255 11.5352537 4.7814255 11.5352537 4.7814255 0.880757047"></polyline>
                        <polyline id="Stroke-112" stroke="#000000" stroke-width="2" stroke-linecap="round" stroke-linejoin="round" points="0.046338255 0.880757047 0.046338255 11.5352537 4.7814255 11.5352537 4.7814255 0.880757047"></polyline>
                    </g>
                    <path d="M312.403479,128.862574 C312.098593,129.077205 311.944499,129.448132 312.009439,129.815756 C312.064472,130.136051 312.09309,130.455246 312.09309,130.766736 C312.09309,133.802387 309.623184,136.271192 306.588634,136.271192 C306.18909,136.271192 305.786244,136.226064 305.387801,136.138011 C305.175372,136.090682 304.954137,136.117098 304.758217,136.211756 C304.291533,136.437393 303.802835,136.639917 303.30313,136.812722 C302.927801,136.943702 302.670244,137.290413 302.655936,137.687756 C302.588795,139.502762 301.112795,140.92483 299.295587,140.92483 C297.839399,140.92483 296.554915,139.994762 296.100338,138.611219 C296.002379,138.312937 295.765734,138.080695 295.465251,137.98934 C295.163667,137.899085 294.837868,137.959621 294.590217,138.15334 C293.52917,138.984346 292.255694,139.424615 290.907372,139.424615 C289.389546,139.424615 287.942164,138.853366 286.831587,137.816534 C286.652177,137.650333 286.417734,137.557877 286.173385,137.557877 L284.940634,137.557877 C284.806352,137.557877 284.67317,137.586494 284.549895,137.641528 C283.877385,137.939809 283.106915,137.970628 282.406889,137.719675 C282.150432,137.627219 281.86866,137.648132 281.628714,137.775809 C281.388768,137.903487 281.213761,138.126923 281.147721,138.389984 C280.76909,139.882494 279.428472,140.923729 277.887533,140.923729 C276.032902,140.923729 274.523882,139.415809 274.523882,137.561179 L274.523882,136.036749 C274.523882,135.716454 274.365385,135.418172 274.100123,135.238762 C273.640043,134.926172 273.196472,134.586064 272.783721,134.226145 C272.637332,134.098467 272.456821,134.018118 272.264204,133.995004 C269.499318,133.668105 267.414647,131.319272 267.414647,128.531272 C267.414647,127.786118 267.561036,127.065179 267.848311,126.384964 C267.998003,126.03385 267.925358,125.628803 267.664499,125.350333 C266.704714,124.326709 266.176392,122.990494 266.176392,121.588239 C266.176392,119.946038 266.902835,118.400695 268.168607,117.350655 C268.38654,117.170145 268.514217,116.902682 268.517519,116.62091 C268.523023,116.165232 268.631989,115.729366 268.842217,115.32542 C269.032634,114.958897 268.968795,114.513125 268.683721,114.214843 C268.398647,113.916561 267.956177,113.83291 267.581949,114.005715 C267.397036,114.091568 267.201117,114.135595 267.001895,114.135595 C266.230325,114.135595 265.601842,113.507111 265.601842,112.735541 C265.601842,111.96397 266.230325,111.335487 267.001895,111.335487 C267.049224,111.335487 267.098754,111.338789 267.149385,111.344293 C267.472983,111.378413 267.792177,111.249635 267.998003,110.998682 C268.17411,110.785152 268.432768,110.662977 268.707936,110.662977 C269.009519,110.662977 269.293493,110.812668 269.465197,111.062521 C269.713949,111.426843 270.178432,111.574333 270.592285,111.423541 C271.007238,111.270548 271.453009,111.324481 271.81403,111.551219 C272.033063,111.689903 272.299426,111.73393 272.55258,111.673393 C272.805734,111.612856 273.022566,111.453259 273.155748,111.229823 C274.14415,109.56891 275.956956,108.537581 277.887533,108.537581 C278.80109,108.537581 279.705842,108.76542 280.503828,109.197984 C280.756983,109.334467 281.058566,109.350977 281.324929,109.243111 C281.592392,109.135246 281.797117,108.91291 281.882969,108.637742 C282.2616,107.424803 283.369976,106.611407 284.641251,106.611407 C285.450244,106.611407 286.200902,106.937205 286.75454,107.530467 C287.085842,107.885984 287.630674,107.938816 288.024714,107.653742 C288.966889,106.971326 290.081868,106.611407 291.247479,106.611407 C292.704768,106.611407 294.078405,107.176051 295.116338,108.200776 C295.311157,108.394494 295.57862,108.494655 295.852687,108.478145 C296.125654,108.461635 296.379909,108.328454 296.549412,108.113823 C297.101949,107.415997 297.928553,107.015353 298.815694,107.015353 C299.642298,107.015353 300.430379,107.37087 300.978513,107.989447 C301.21956,108.261313 301.590486,108.374682 301.9416,108.284427 C302.178244,108.222789 302.423694,108.19197 302.669144,108.19197 C302.997144,108.19197 303.31854,108.248105 303.622325,108.353769 C304.50066,109.642655 305.841278,106.819434 308.242942,106.819434 C309.166405,106.819434 310.012821,107.245393 310.564258,107.989447 C310.73156,108.213984 310.988016,108.35487 311.267587,108.375783 C311.548258,108.395595 311.821224,108.294333 312.019345,108.096212 C312.358352,107.757205 312.808526,107.571192 313.286217,107.571192 C314.273519,107.571192 315.075909,108.373581 315.075909,109.360883 C315.075909,109.426923 315.072607,109.492964 315.064902,109.557903 C315.062701,109.576615 315.059399,109.596427 315.058298,109.616239 C314.933922,110.483568 314.186566,111.151675 313.286217,111.151675 C312.895479,111.151675 312.522352,111.025098 312.20866,110.787353 C311.985224,110.61785 311.697949,110.55291 311.423882,110.612346 C311.149815,110.671783 310.915372,110.846789 310.779989,111.092239 C310.606083,111.411434 310.376043,111.691004 310.096472,111.925447 C309.722244,112.238038 309.640795,112.780668 309.906056,113.189017 C310.482808,114.080561 310.788795,115.114091 310.788795,116.17734 C310.788795,116.465715 310.765681,116.755192 310.721654,117.038064 C310.631399,117.607111 310.45309,118.157447 310.19003,118.672561 C309.980902,119.082011 310.089868,119.581715 310.450889,119.866789 C310.884553,120.210199 311.132204,120.72091 311.132204,121.270145 C311.132204,121.80287 311.564768,122.234333 312.096392,122.234333 L312.292311,122.234333 C312.35615,122.72083 312.396875,123.211729 312.407882,123.703729 C312.413385,123.962387 312.523452,124.208937 312.713868,124.386145 C313.30603,124.939783 313.632929,125.69044 313.632929,126.499434 C313.631828,127.436105 313.172848,128.321044 312.403479,128.862574" id="Fill-114" fill="#FFFFFF"></path>
                    <path d="M312.090999,130.013546 C311.812529,129.994835 311.534059,129.961815 311.257791,129.901278 C311.046462,129.853949 310.824126,129.879264 310.629307,129.973922 C310.162623,130.20066 309.672824,130.403184 309.173119,130.575989 C308.797791,130.705868 308.540234,131.053681 308.525925,131.451023 C308.458784,133.26603 306.982784,134.686996 305.165576,134.686996 C303.709388,134.686996 302.424905,133.75803 301.971428,132.374486 C301.872368,132.076204 301.635723,131.843962 301.33524,131.752607 C301.033656,131.661251 300.707858,131.722889 300.461307,131.916607 C299.40026,132.747613 298.126784,133.186781 296.778462,133.186781 C295.260636,133.186781 293.812153,132.885197 292.701576,131.848365 C292.523267,131.682164 292.287723,131.858271 292.043374,131.858271 L290.810623,131.858271 C290.676341,131.858271 290.54316,131.618325 290.419885,131.672258 C289.747374,131.97164 288.976905,131.867077 288.276878,131.616123 C288.021522,131.524768 287.73865,131.47854 287.498703,131.606217 C287.258757,131.733895 287.08375,131.923211 287.01771,132.186271 C286.639079,133.678781 288.864636,132.000258 288.276878,131.499452 C289.583374,130.536365 282.312341,122.304446 284.125146,106.306191 C283.086113,106.499909 282.206677,107.237358 281.883079,108.275291 C281.796126,108.549358 281.592502,108.769493 281.325039,108.878459 C281.058677,108.986325 280.757093,108.968714 280.503938,108.832231 C279.705952,108.399667 278.8012,108.170728 277.886542,108.170728 C277.546435,108.170728 277.21073,108.213654 276.880529,108.276392 C277.059938,114.780258 276.478784,121.076097 275.583938,126.750056 C274.189388,125.745144 273.285737,124.120553 273.285737,122.29454 C273.285737,121.549385 273.431026,120.827345 273.719401,120.148231 C273.867992,119.797117 273.795348,119.39207 273.534489,119.1136 C272.574703,118.088875 272.046381,116.75266 272.046381,115.351506 C272.046381,113.709305 272.772824,112.163962 274.039697,111.113922 C274.256529,110.933412 274.384207,110.665949 274.387509,110.383077 C274.393012,109.928499 274.501979,109.492634 274.712207,109.088687 C274.76614,108.984123 274.794757,108.875157 274.807965,108.762889 C274.147562,109.210862 273.575213,109.792016 273.155858,110.495345 C273.022677,110.718781 272.805844,110.879479 272.55269,110.940016 C272.299536,111.000553 272.033173,110.956526 271.81414,110.817842 C271.453119,110.590003 271.007348,110.53717 270.592395,110.689063 C270.178542,110.840956 269.714059,110.693466 269.465307,110.329144 C269.293603,110.078191 269.00963,109.928499 268.708046,109.928499 C268.432878,109.928499 268.17422,110.050674 267.998113,110.264204 C267.792287,110.515157 267.473093,110.645036 267.149495,110.610915 C267.098864,110.605412 267.049334,110.60211 267.002005,110.60211 C266.230435,110.60211 265.601952,111.230593 265.601952,112.002164 C265.601952,112.773734 266.230435,113.402217 267.002005,113.402217 C267.201227,113.402217 267.397146,113.358191 267.582059,113.272338 C267.956287,113.099533 268.398757,113.183184 268.683831,113.481466 C268.968905,113.779748 269.032744,114.225519 268.842328,114.592043 C268.632099,114.995989 268.523133,115.431855 268.51763,115.886432 C268.514328,116.169305 268.38665,116.436768 268.168717,116.617278 C266.902945,117.667318 266.176502,119.21266 266.176502,120.854862 C266.176502,122.256016 266.704824,123.592231 267.664609,124.616956 C267.925468,124.895426 267.998113,125.300472 267.848421,125.651587 C267.561146,126.330701 267.414757,127.052741 267.414757,127.797895 C267.414757,130.584795 269.499428,132.933627 272.264314,133.261627 C272.456932,133.284741 272.637442,133.36509 272.783831,133.491667 C273.196583,133.852687 273.640153,134.192795 274.100234,134.504285 C274.103536,134.506486 274.104636,134.510889 274.107938,134.51309 C274.085925,134.615452 274.063911,134.725519 274.040797,134.825681 C274.06171,134.839989 274.156368,134.8576 274.177281,134.871909 C274.295052,134.952258 274.481066,135.059023 274.569119,135.177895 C274.575723,135.220821 274.676985,135.258244 274.676985,135.302271 L274.676985,136.827801 C274.676985,137.344016 274.726515,137.827211 274.935643,138.265278 C275.366005,139.592687 276.523911,140.556875 278.002113,140.556875 C278.868341,140.556875 279.607992,140.218969 280.21226,139.665332 C280.257388,139.494728 280.29371,139.312016 280.338838,139.13811 C280.724072,138.731962 281.006945,138.227855 281.152234,137.656607 C281.218274,137.392446 281.391079,137.17011 281.631026,137.042432 C281.870972,136.914754 282.151643,136.893842 282.408099,136.985197 C283.108126,137.23615 283.877495,137.474996 284.550005,137.175613 C284.673281,137.121681 284.806462,137.361627 284.940744,137.361627 L286.173495,137.361627 C286.417844,137.361627 286.652287,137.185519 286.831697,137.351721 C287.942274,138.388553 289.389656,138.824419 290.907482,138.824419 C292.255804,138.824419 293.529281,138.31811 294.590328,137.487103 C294.837979,137.293385 295.163777,137.198728 295.46426,137.290083 C295.765844,137.380338 296.002489,137.59607 296.100448,137.894352 C296.555026,139.277895 297.839509,140.199157 299.295697,140.199157 C301.112905,140.199157 302.588905,138.772687 302.656046,136.958781 C302.670354,136.561439 302.926811,136.211426 303.30324,136.081546 C303.802945,135.908741 304.291643,135.705117 304.758328,135.478379 C304.954247,135.383721 305.175482,135.357305 305.387911,135.404634 C305.786354,135.492687 306.1892,135.537815 306.588744,135.537815 C309.623294,135.537815 312.0932,133.067909 312.0932,130.033358 C312.0932,130.026754 312.090999,130.02015 312.090999,130.013546" id="Fill-116" fill="#E2E2E2"></path>
                    <path d="M311.365877,109.478105 C311.365877,109.478105 306.229044,113.789434 306.77938,117.641783 C306.77938,117.641783 302.560507,114.064601 304.76185,109.294293 C306.963192,104.525085 310.265205,108.193621 311.365877,109.478105" id="Fill-130" fill="#E2E2E2"></path>
                    <path d="M312.403479,128.862574 C312.098593,129.077205 311.944499,129.448132 312.009439,129.815756 C312.064472,130.136051 312.09309,130.455246 312.09309,130.766736 C312.09309,133.802387 309.623184,136.271192 306.588634,136.271192 C306.18909,136.271192 305.786244,136.226064 305.387801,136.138011 C305.175372,136.090682 304.954137,136.117098 304.758217,136.211756 C304.291533,136.437393 303.802835,136.639917 303.30313,136.812722 C302.927801,136.943702 302.670244,137.290413 302.655936,137.687756 C302.588795,139.502762 301.112795,140.92483 299.295587,140.92483 C297.839399,140.92483 296.554915,139.994762 296.100338,138.611219 C296.002379,138.312937 295.765734,138.080695 295.465251,137.98934 C295.163667,137.899085 294.837868,137.959621 294.590217,138.15334 C293.52917,138.984346 292.255694,139.424615 290.907372,139.424615 C289.389546,139.424615 287.942164,138.853366 286.831587,137.816534 C286.652177,137.650333 286.417734,137.557877 286.173385,137.557877 L284.940634,137.557877 C284.806352,137.557877 284.67317,137.586494 284.549895,137.641528 C283.877385,137.939809 283.106915,137.970628 282.406889,137.719675 C282.150432,137.627219 281.86866,137.648132 281.628714,137.775809 C281.388768,137.903487 281.213761,138.126923 281.147721,138.389984 C280.76909,139.882494 279.428472,140.923729 277.887533,140.923729 C276.032902,140.923729 274.523882,139.415809 274.523882,137.561179 L274.523882,136.036749 C274.523882,135.716454 274.365385,135.418172 274.100123,135.238762 C273.640043,134.926172 273.196472,134.586064 272.783721,134.226145 C272.637332,134.098467 272.456821,134.018118 272.264204,133.995004 C269.499318,133.668105 267.414647,131.319272 267.414647,128.531272 C267.414647,127.786118 267.561036,127.065179 267.848311,126.384964 C267.998003,126.03385 267.925358,125.628803 267.664499,125.350333 C266.704714,124.326709 266.176392,122.990494 266.176392,121.588239 C266.176392,119.946038 266.902835,118.400695 268.168607,117.350655 C268.38654,117.170145 268.514217,116.902682 268.517519,116.62091 C268.523023,116.165232 268.631989,115.729366 268.842217,115.32542 C269.032634,114.958897 268.968795,114.513125 268.683721,114.214843 C268.398647,113.916561 267.956177,113.83291 267.581949,114.005715 C267.397036,114.091568 267.201117,114.135595 267.001895,114.135595 C266.230325,114.135595 265.601842,113.507111 265.601842,112.735541 C265.601842,111.96397 266.230325,111.335487 267.001895,111.335487 C267.049224,111.335487 267.098754,111.338789 267.149385,111.344293 C267.472983,111.378413 267.792177,111.249635 267.998003,110.998682 C268.17411,110.785152 268.432768,110.662977 268.707936,110.662977 C269.009519,110.662977 269.293493,110.812668 269.465197,111.062521 C269.713949,111.426843 270.178432,111.574333 270.592285,111.423541 C271.007238,111.270548 271.453009,111.324481 271.81403,111.551219 C272.033063,111.689903 272.299426,111.73393 272.55258,111.673393 C272.805734,111.612856 273.022566,111.453259 273.155748,111.229823 C274.14415,109.56891 275.956956,108.537581 277.887533,108.537581 C278.80109,108.537581 279.705842,108.76542 280.503828,109.197984 C280.756983,109.334467 281.058566,109.350977 281.324929,109.243111 C281.592392,109.135246 281.797117,108.91291 281.882969,108.637742 C282.2616,107.424803 283.369976,106.611407 284.641251,106.611407 C285.450244,106.611407 286.200902,106.937205 286.75454,107.530467 C287.085842,107.885984 287.630674,107.938816 288.024714,107.653742 C288.966889,106.971326 290.081868,106.611407 291.247479,106.611407 C292.704768,106.611407 294.078405,107.176051 295.116338,108.200776 C295.311157,108.394494 295.57862,108.494655 295.852687,108.478145 C296.125654,108.461635 296.379909,108.328454 296.549412,108.113823 C297.101949,107.415997 297.928553,107.015353 298.815694,107.015353 C299.642298,107.015353 300.430379,107.37087 300.978513,107.989447 C301.21956,108.261313 301.590486,108.374682 301.9416,108.284427 C302.178244,108.222789 302.423694,108.19197 302.669144,108.19197 C302.997144,108.19197 303.31854,108.248105 303.622325,108.353769 C304.50066,109.642655 305.841278,106.819434 308.242942,106.819434 C309.166405,106.819434 310.012821,107.245393 310.564258,107.989447 C310.73156,108.213984 310.988016,108.35487 311.267587,108.375783 C311.548258,108.395595 311.821224,108.294333 312.019345,108.096212 C312.358352,107.757205 312.808526,107.571192 313.286217,107.571192 C314.273519,107.571192 315.075909,108.373581 315.075909,109.360883 C315.075909,109.426923 315.072607,109.492964 315.064902,109.557903 C315.062701,109.576615 315.059399,109.596427 315.058298,109.616239 C314.933922,110.483568 314.186566,111.151675 313.286217,111.151675 C312.895479,111.151675 312.522352,111.025098 312.20866,110.787353 C311.985224,110.61785 311.697949,110.55291 311.423882,110.612346 C311.149815,110.671783 310.915372,110.846789 310.779989,111.092239 C310.606083,111.411434 310.376043,111.691004 310.096472,111.925447 C309.722244,112.238038 309.640795,112.780668 309.906056,113.189017 C310.482808,114.080561 310.788795,115.114091 310.788795,116.17734 C310.788795,116.465715 310.765681,116.755192 310.721654,117.038064 C310.631399,117.607111 310.45309,118.157447 310.19003,118.672561 C309.980902,119.082011 310.089868,119.581715 310.450889,119.866789 C310.884553,120.210199 311.132204,120.72091 311.132204,121.270145 C311.132204,121.80287 311.564768,122.234333 312.096392,122.234333 L312.292311,122.234333 C312.35615,122.72083 312.396875,123.211729 312.407882,123.703729 C312.413385,123.962387 312.523452,124.208937 312.713868,124.386145 C313.30603,124.939783 313.632929,125.69044 313.632929,126.499434 C313.631828,127.436105 313.172848,128.321044 312.403479,128.862574 L312.403479,128.862574 Z" id="Stroke-115" stroke="#000000" stroke-width="2" stroke-linecap="round" stroke-linejoin="round"></path>
                    <path d="M304.202599,112.555581 C304.202599,112.555581 303.622545,108.354319 306.750652,107.293272" id="Stroke-117" stroke="#000000" stroke-width="2" stroke-linecap="round" stroke-linejoin="round"></path>
                    <path d="M264.591315,41.8395517 C264.610027,41.3728671 264.726698,40.5704779 265.257221,39.9463973 C265.833973,39.2672832 267.931852,37.7989879 269.320899,37.7538604" id="Stroke-118" stroke="#D1D1D1" stroke-width="2" stroke-linecap="round" stroke-linejoin="round"></path>
                    <path d="M258.145235,37.7545208 C258.818846,37.7644268 263.146685,39.0654201 263.452671,41.974494" id="Stroke-119" stroke="#D1D1D1" stroke-width="2" stroke-linecap="round" stroke-linejoin="round"></path>
                    <path d="M48.743651,39.9117262 C48.7623624,39.4450416 48.8790336,38.6426523 49.409557,38.0185718 C49.9863087,37.3394577 52.0841879,35.8711624 53.4732349,35.8260349" id="Stroke-120" stroke="#D1D1D1" stroke-width="2" stroke-linecap="round" stroke-linejoin="round"></path>
                    <path d="M42.2975705,35.8266953 C42.9711812,35.8366013 47.2990201,37.1375946 47.6050067,40.0466685" id="Stroke-121" stroke="#D1D1D1" stroke-width="2" stroke-linecap="round" stroke-linejoin="round"></path>
                    <path d="M291.415332,63.4676295 C291.434043,63.000945 291.550714,62.1985557 292.081238,61.5744752 C292.657989,60.8953611 294.755868,59.4270658 296.144915,59.3819383" id="Stroke-122" stroke="#D1D1D1" stroke-width="2" stroke-linecap="round" stroke-linejoin="round"></path>
                    <path d="M284.969361,59.3825987 C285.642972,59.3925047 289.970811,60.693498 290.276797,63.6025718" id="Stroke-123" stroke="#D1D1D1" stroke-width="2" stroke-linecap="round" stroke-linejoin="round"></path>
                    <g id="Group-126" transform="translate(246.852349, 70.488591)">
                        <path d="M14.7628617,62.8057262 L14.7628617,78.9272564 L7.69545235,78.9272564 C6.15891544,75.2091893 -1.1242255,53.6954711 0.947237584,32.3380483 C1.07711678,31.0018336 1.24221745,29.6667195 1.44914362,28.3360081 C3.05392215,17.9985047 7.09118389,7.96258523 15.2999893,0.293108725 C24.575345,8.96089396 28.5399624,20.6500215 29.6890631,32.3820752 C29.7859221,33.3715785 29.8629691,34.3610819 29.9224054,35.3494846 C31.1221369,55.6788805 24.4839893,75.384196 23.0278013,78.9272564 L14.5856537,78.9272564" id="Fill-124" fill="#FFFFFF"></path>
                        <path d="M30.4721906,34.2753396 C30.413855,33.2869369 30.3368081,32.2842255 30.239949,31.2947221 C29.265855,21.3578631 23.8967812,11.0996081 17.3676,3.03388993 C20.9227678,9.6258094 25.1163248,17.3195007 25.8372644,24.6818899 C25.9341235,25.6702926 26.0111705,26.6851114 26.069506,27.6724134 C27.2703383,48.0018094 20.4758953,65.772145 19.0186067,69.0741584 L10.9099624,71.2755007 L6.02738523,71.2755007 C6.98827114,74.5775141 7.82918389,76.7788564 8.24523758,77.8795275 L15.312647,77.8795275 L23.5775866,77.8795275 C25.0348752,74.5775141 31.6730228,54.6047356 30.4721906,34.2753396" id="Fill-127" fill="#E2E2E2"></path>
                        <path d="M14.7628617,62.8057262 L14.7628617,78.9272564 L7.69545235,78.9272564 C6.15891544,75.2091893 -1.1242255,53.6954711 0.947237584,32.3380483 C1.07711678,31.0018336 1.24221745,29.6667195 1.44914362,28.3360081 C3.05392215,17.9985047 7.09118389,7.96258523 15.2999893,0.293108725 C24.575345,8.96089396 28.5399624,20.6500215 29.6890631,32.3820752 C29.7859221,33.3715785 29.8629691,34.3610819 29.9224054,35.3494846 C31.1221369,55.6788805 24.4839893,75.384196 23.0278013,78.9272564 L14.5856537,78.9272564" id="Stroke-125" stroke="#000000" stroke-width="2" stroke-linecap="round" stroke-linejoin="round"></path>
                    </g>
                    <path d="M276.295192,109.769122 C275.018413,110.960048 273.921044,112.765149 270.349366,112.976478 C266.461796,113.206518 263.469071,111.935243 260.806548,108.966733 C258.215568,105.637203 256.303702,103.876129 253.160185,103.808988 C250.78934,103.74735 249.685366,104.654303 248.055272,105.723055 L249.050279,98.825149 C250.681474,97.7563973 251.784346,96.8494443 254.155192,96.9110819 C257.298709,96.9793235 260.206682,98.7392966 262.796561,102.068827 C264.820695,104.669713 267.02644,106.031243 269.35436,106.078572 C272.365796,106.127001 275.018413,104.062142 276.295192,102.871216 L276.295192,109.769122 Z" id="Fill-128" fill="#FFC83D"></path>
                    <path d="M276.295192,109.769122 C275.018413,110.960048 273.921044,112.765149 270.349366,112.976478 C266.461796,113.206518 263.469071,111.935243 260.806548,108.966733 C258.215568,105.637203 256.303702,103.876129 253.160185,103.808988 C250.78934,103.74735 249.685366,104.654303 248.055272,105.723055 L249.050279,98.825149 C250.681474,97.7563973 251.784346,96.8494443 254.155192,96.9110819 C257.298709,96.9793235 260.206682,98.7392966 262.796561,102.068827 C264.820695,104.669713 267.02644,106.031243 269.35436,106.078572 C272.365796,106.127001 275.018413,104.062142 276.295192,102.871216 L276.295192,109.769122 L276.295192,109.769122 Z" id="Stroke-129" stroke="#000000" stroke-width="2" stroke-linecap="round" stroke-linejoin="round"></path>
                </g>
            </g>
        </g>
    </g>
</svg>