<?xml version="1.0" encoding="utf-8"?>
<!-- Generator: Adobe Illustrator 16.0.2, SVG Export Plug-In . SVG Version: 6.00 Build 0)  -->
<!DOCTYPE svg PUBLIC "-//W3C//DTD SVG 1.1//EN" "http://www.w3.org/Graphics/SVG/1.1/DTD/svg11.dtd">
<svg version="1.1" id="Layer_1" xmlns="http://www.w3.org/2000/svg" xmlns:xlink="http://www.w3.org/1999/xlink" x="0px" y="0px"
	 width="576px" height="178px" viewBox="0 0 576 178" enable-background="new 0 0 576 178" xml:space="preserve">
<title>FADFE905-E451-431B-9DDC-4FE01D70C14F</title>
<desc>Created with sketchtool.</desc>
<g id="Page-1_1_">
	<g id="_x34_06_x5F_M2U_x5F_Planner_x5F_Travel-Copy-6" transform="translate(-704.000000, -236.000000)">
		<g id="Group-32" transform="translate(706.000000, 236.000000)">
			<g id="Group-15" transform="translate(0.000000, 141.000000)">
				<path id="Line" fill="none" stroke="#1C1918" stroke-width="2.4" stroke-linecap="round" stroke-linejoin="round" d="M156,1.2
					h572.504"/>
				<path id="Line-Copy" fill="none" stroke="#1C1918" stroke-width="2.4" stroke-linecap="round" stroke-linejoin="round" d="
					M23,1.2h124"/>
				<path id="Line-Copy_1_" fill="none" stroke="#1C1918" stroke-width="2.4" stroke-linecap="round" stroke-linejoin="round" d="
					M0,1.2h13"/>
			</g>
			<g id="Page-1" transform="translate(188.957447, 0.000000)">
				<path id="Fill-1" fill="#FFFFFF" d="M10.447,150.926h312.025H10.447z"/>
				<path id="Stroke-2" fill="none" stroke="#E2E2E2" stroke-width="12" stroke-linecap="round" stroke-linejoin="round" d="
					M10.448,150.926h312.023"/>
				<path id="Fill-4" fill="#FFFFFF" d="M27.56,160.496h13.778H27.56z"/>
				<path id="Stroke-5" fill="none" stroke="#000000" stroke-width="2" stroke-linecap="round" stroke-linejoin="round" d="
					M41.339,160.496H27.56"/>
				<path id="Fill-6" fill="#FFFFFF" d="M51.781,160.496H196.21H51.781z"/>
				<path id="Stroke-7" fill="none" stroke="#000000" stroke-width="2" stroke-linecap="round" stroke-linejoin="round" d="
					M196.21,160.496H51.781"/>
				<path id="Fill-8" fill="#FFFFFF" d="M205.267,160.496h60.841H205.267z"/>
				<path id="Stroke-9" fill="none" stroke="#000000" stroke-width="2" stroke-linecap="round" stroke-linejoin="round" d="
					M266.108,160.496h-60.841"/>
				<path id="Fill-10" fill="#FFFFFF" d="M276.121,160.496h34.465H276.121z"/>
				<path id="Stroke-11" fill="none" stroke="#000000" stroke-width="2" stroke-linecap="round" stroke-linejoin="round" d="
					M310.586,160.496h-34.465"/>
				<path id="Fill-12" fill="#FFFFFF" d="M165.893,176.531h43.633H165.893z"/>
				<path id="Stroke-13" fill="none" stroke="#000000" stroke-width="2" stroke-linecap="round" stroke-linejoin="round" d="
					M209.525,176.531h-43.631"/>
				<path id="Fill-15" fill="#FFFFFF" d="M62.596,176.531h69.474H62.596z"/>
				<path id="Stroke-16" fill="none" stroke="#000000" stroke-width="2" stroke-linecap="round" stroke-linejoin="round" d="
					M132.07,176.531H62.595"/>
				<path id="Fill-18" fill="#FFFFFF" d="M141.417,176.531h14.036H141.417z"/>
				<path id="Stroke-19" fill="none" stroke="#000000" stroke-width="2" stroke-linecap="round" stroke-linejoin="round" d="
					M155.452,176.531h-14.034"/>
				<path id="Fill-21" fill="#FFFFFF" d="M220.011,176.531H249.8H220.011z"/>
				<g id="Group-261" transform="translate(0.000000, 0.768581)">
					<path id="Stroke-22" fill="none" stroke="#000000" stroke-width="2" stroke-linecap="round" stroke-linejoin="round" d="
						M249.8,175.763h-29.789H249.8z"/>
					<path id="Stroke-24" fill="none" stroke="#D1D1D1" stroke-width="2" stroke-linecap="round" stroke-linejoin="round" d="
						M225.107,69.428c0,27.82-22.553,50.374-50.373,50.374c-27.821,0-50.374-22.554-50.374-50.374s22.553-50.373,50.374-50.373
						C202.554,19.056,225.107,41.608,225.107,69.428L225.107,69.428z"/>
					<g id="Group-29" transform="translate(172.406250, 19.137500)">
						<path id="Fill-26" fill="#FFFFFF" d="M0.214,0.35v99.568"/>
						<path id="Stroke-28" fill="none" stroke="#D1D1D1" stroke-width="2" stroke-linecap="round" stroke-linejoin="round" d="
							M0.214,0.35v99.568"/>
					</g>
					<g id="Group-33" transform="translate(125.418750, 70.600000)">
						<path id="Fill-30" fill="#FFFFFF" d="M99.223,0.909H0.773"/>
						<path id="Stroke-32" fill="none" stroke="#D1D1D1" stroke-width="2" stroke-linecap="round" stroke-linejoin="round" d="
							M99.223,0.909H0.773"/>
					</g>
					<g id="Group-37" transform="translate(139.962500, 33.681250)">
						<path id="Fill-34" fill="#FFFFFF" d="M70.785,0.541L0.742,72.882"/>
						<path id="Stroke-36" fill="none" stroke="#D1D1D1" stroke-width="2" stroke-linecap="round" stroke-linejoin="round" d="
							M70.785,0.541L0.742,72.882"/>
					</g>
					<g id="Group-41" transform="translate(139.962500, 34.800000)">
						<path id="Fill-38" fill="#FFFFFF" d="M0.741,0.098l68.06,71.665"/>
						<path id="Stroke-40" fill="none" stroke="#D1D1D1" stroke-width="2" stroke-linecap="round" stroke-linejoin="round" d="
							M0.741,0.098l68.06,71.665"/>
					</g>
					<path id="Stroke-42" fill="none" stroke="#D1D1D1" stroke-width="2" stroke-linecap="round" stroke-linejoin="round" d="
						M226.15,27.22c0,4.307-3.492,7.798-7.799,7.798c-4.308,0-7.799-3.491-7.799-7.798s3.491-7.799,7.799-7.799
						C222.658,19.421,226.15,22.913,226.15,27.22L226.15,27.22z"/>
					<path id="Stroke-44" fill="none" stroke="#D1D1D1" stroke-width="2" stroke-linecap="round" stroke-linejoin="round" d="
						M218.489,19.487v8.95"/>
					<path id="Stroke-46" fill="none" stroke="#D1D1D1" stroke-width="2" stroke-linecap="round" stroke-linejoin="round" d="
						M211.217,28.997h14.544"/>
					<path id="Stroke-48" fill="none" stroke="#D1D1D1" stroke-width="2" stroke-linecap="round" stroke-linejoin="round" d="
						M242.365,69.109c0,4.307-3.492,7.799-7.799,7.799c-4.308,0-7.799-3.492-7.799-7.799s3.491-7.799,7.799-7.799
						C238.873,61.31,242.365,64.802,242.365,69.109L242.365,69.109z"/>
					<path id="Stroke-50" fill="none" stroke="#D1D1D1" stroke-width="2" stroke-linecap="round" stroke-linejoin="round" d="
						M234.152,62v7.831"/>
					<path id="Stroke-52" fill="none" stroke="#D1D1D1" stroke-width="2" stroke-linecap="round" stroke-linejoin="round" d="
						M226.879,70.391h15.663"/>
					<path id="Stroke-54" fill="none" stroke="#D1D1D1" stroke-width="2" stroke-linecap="round" stroke-linejoin="round" d="
						M141.139,27.22c0,4.307-3.491,7.798-7.799,7.798c-4.307,0-7.799-3.491-7.799-7.798s3.492-7.799,7.799-7.799
						C137.648,19.421,141.139,22.913,141.139,27.22L141.139,27.22z"/>
					<path id="Stroke-56" fill="none" stroke="#D1D1D1" stroke-width="2" stroke-linecap="round" stroke-linejoin="round" d="
						M133.464,19.487v8.95"/>
					<path id="Stroke-58" fill="none" stroke="#D1D1D1" stroke-width="2" stroke-linecap="round" stroke-linejoin="round" d="
						M126.192,28.997h14.544"/>
					<path id="Stroke-60" fill="none" stroke="#D1D1D1" stroke-width="2" stroke-linecap="round" stroke-linejoin="round" d="
						M125.027,69.109c0,4.307-3.492,7.799-7.799,7.799c-4.308,0-7.799-3.492-7.799-7.799s3.491-7.799,7.799-7.799
						C121.535,61.31,125.027,64.802,125.027,69.109L125.027,69.109z"/>
					<path id="Stroke-62" fill="none" stroke="#D1D1D1" stroke-width="2" stroke-linecap="round" stroke-linejoin="round" d="
						M116.683,62v7.831"/>
					<path id="Stroke-64" fill="none" stroke="#D1D1D1" stroke-width="2" stroke-linecap="round" stroke-linejoin="round" d="
						M109.411,70.391h15.663"/>
					<path id="Stroke-66" fill="none" stroke="#D1D1D1" stroke-width="2" stroke-linecap="round" stroke-linejoin="round" d="
						M179.553,8.303c0,4.307-3.491,7.799-7.799,7.799c-4.307,0-7.799-3.492-7.799-7.799s3.492-7.799,7.799-7.799
						C176.062,0.504,179.553,3.996,179.553,8.303L179.553,8.303z"/>
					<path id="Stroke-68" fill="none" stroke="#D1D1D1" stroke-width="2" stroke-linecap="round" stroke-linejoin="round" d="
						M172.621,0.469V8.3"/>
					<path id="Stroke-70" fill="none" stroke="#D1D1D1" stroke-width="2" stroke-linecap="round" stroke-linejoin="round" d="
						M164.23,9.978h14.543"/>
					<path id="Fill-72" fill="#FFFFFF" d="M49.525,141.882c0,0,30.486-35.799,30.486-103.122h4.638
						c0,66.743,30.429,103.122,30.429,103.122h-13.602c0-10.953-8.493-19.99-18.968-19.99c-10.476,0-18.969,9.037-18.969,19.99
						H49.525z"/>
					<path id="Fill-76" fill="#E2E2E2" d="M85.157,59.911c-1.028-8.144-1.066-10.666-1.066-19.616h-4.639
						c0,67.125-30.486,102.925-30.486,102.925h5.426C57.579,138.745,79.564,113.052,85.157,59.911"/>
					<path id="Fill-78" fill="#E2E2E2" d="M86.424,121.442c-0.903,0-1.784,0.146-2.655,0.275c7.957,2.395,17.61,4.721,17.148,21.502
						h7.805C109.071,135.389,96.719,121.442,86.424,121.442"/>
					<path id="Stroke-74" fill="none" stroke="#000000" stroke-width="2" stroke-linecap="round" stroke-linejoin="round" d="
						M49.525,141.882c0,0,30.486-35.799,30.486-103.122h4.638c0,66.743,30.429,103.122,30.429,103.122h-13.602
						c0-10.953-8.493-19.99-18.968-19.99c-10.476,0-18.969,9.037-18.969,19.99H49.525L49.525,141.882z"/>
					<g id="Group-83" transform="translate(75.075000, 96.331250)">
						<polyline id="Fill-80" fill="#FFC83D" points="0.078,18.138 4.637,0.691 10.231,0.691 14.518,18.138 						"/>
						
							<polyline id="Stroke-82" fill="none" stroke="#000000" stroke-width="2" stroke-linecap="round" stroke-linejoin="round" points="
							0.078,18.138 4.637,0.691 10.231,0.691 14.518,18.138 						"/>
					</g>
					<g id="Group-87" transform="translate(59.412500, 114.231250)">
						<path id="Fill-84" fill="#FFFFFF" d="M44.843,0.238H0.65"/>
						<path id="Stroke-86" fill="none" stroke="#000000" stroke-width="2" stroke-linecap="round" stroke-linejoin="round" d="
							M44.843,0.238H0.65"/>
					</g>
					<g id="Group-91" transform="translate(69.481250, 89.618750)">
						<path id="Fill-88" fill="#FFFFFF" d="M25.083,0.518H0.272"/>
						<path id="Stroke-90" fill="none" stroke="#000000" stroke-width="2" stroke-linecap="round" stroke-linejoin="round" d="
							M25.083,0.518H0.272"/>
					</g>
					<g id="Group-95" transform="translate(81.787500, 30.325000)">
						<path id="Fill-92" fill="#FFFFFF" d="M0.721,0.837v6.598"/>
						<path id="Stroke-94" fill="none" stroke="#000000" stroke-width="2" stroke-linecap="round" stroke-linejoin="round" d="
							M0.721,0.837v6.598"/>
					</g>
					<path id="Fill-96" fill="#FFC83D" d="M132.224,43.93c0,4.899-3.972,8.869-8.87,8.869s-8.87-3.97-8.87-8.869
						c0-4.899,3.972-8.87,8.87-8.87S132.224,39.03,132.224,43.93"/>
					<polyline id="Fill-98" fill="#FFFFFF" points="131.402,27.993 127.477,20.614 117.016,20.614 113.091,27.993 					"/>
					<polygon id="Fill-102" fill="#E2E2E2" points="130.093,27.709 114.058,27.709 115.177,24.632 128.975,24.632 					"/>
					
						<polyline id="Stroke-100" fill="none" stroke="#000000" stroke-width="2" stroke-linecap="round" stroke-linejoin="round" points="
						131.402,27.993 127.477,20.614 117.016,20.614 113.091,27.993 					"/>
					<polygon id="Fill-104" fill="#FFFFFF" points="106.663,59.867 138.536,59.867 138.536,27.994 106.663,27.994 					"/>
					
						<polygon id="Stroke-106" fill="none" stroke="#000000" stroke-width="2" stroke-linecap="round" stroke-linejoin="round" points="
						106.663,59.867 138.536,59.867 138.536,27.994 106.663,27.994 					"/>
					<path id="Fill-107" fill="#E2E2E2" d="M124.76,52.524c-5.855,0-10.603-4.522-10.603-10.101c0-2.305,0.819-4.422,2.182-6.122
						c-2.934,1.797-6.092,6.031-6.092,9.601c0,5.58,4.746,10.102,10.604,10.102c3.437,0,7.689-2.667,9.628-5.083
						C128.828,51.931,126.869,52.524,124.76,52.524"/>
					<path id="Fill-108" fill="#FFC83D" d="M132.11,43.93c0,5.252-4.258,9.509-9.51,9.509c-5.251,0-9.509-4.257-9.509-9.509
						c0-5.251,4.258-9.51,9.509-9.51C127.852,34.42,132.11,38.678,132.11,43.93"/>
					<path id="Stroke-109" fill="none" stroke="#000000" stroke-width="2" stroke-linecap="round" stroke-linejoin="round" d="
						M132.11,43.93c0,5.252-4.258,9.509-9.51,9.509c-5.251,0-9.509-4.257-9.509-9.509c0-5.251,4.258-9.51,9.509-9.51
						C127.852,34.42,132.11,38.678,132.11,43.93L132.11,43.93z"/>
					<g id="Group-112" transform="translate(122.062500, 6.831250)">
						<path id="Fill-110" fill="#FFFFFF" d="M0.302,0.049v12.924"/>
						<path id="Stroke-111" fill="none" stroke="#000000" stroke-width="2" stroke-linecap="round" stroke-linejoin="round" d="
							M0.302,0.049v12.924"/>
					</g>
					<polygon id="Fill-113" fill="#FFFFFF" points="109.542,141.813 135.521,141.813 135.521,59.866 109.542,59.866 					"/>
					<path id="Fill-115" fill="#E2E2E2" d="M109.211,114.47c0,0,4.754-36.977,7.271-43.13c2.206-5.393,12.188-5.314,17.9-5.314
						v-5.873h-25.172V114.47z"/>
					
						<polygon id="Stroke-114" fill="none" stroke="#000000" stroke-width="2" stroke-linecap="round" stroke-linejoin="round" points="
						109.542,141.813 135.521,141.813 135.521,59.866 109.542,59.866 					"/>
					<g id="Group-118" transform="translate(125.418750, 65.006250)">
						<path id="Fill-116" fill="#FFFFFF" d="M0.511,0.288v76.521"/>
						<path id="Stroke-117" fill="none" stroke="#000000" stroke-width="2" stroke-linecap="round" stroke-linejoin="round" d="
							M0.511,0.288v76.521"/>
					</g>
					<g id="Group-121" transform="translate(118.706250, 65.006250)">
						<path id="Fill-119" fill="#FFFFFF" d="M0.093,0.288v76.521"/>
						<path id="Stroke-120" fill="none" stroke="#000000" stroke-width="2" stroke-linecap="round" stroke-linejoin="round" d="
							M0.093,0.288v76.521"/>
					</g>
					
						<polyline id="Stroke-122" fill="none" stroke="#000000" stroke-width="2" stroke-linecap="round" stroke-linejoin="round" points="
						122.365,38.553 122.365,43.93 125.394,46.958 					"/>
					<polyline id="Fill-123" fill="#FFFFFF" points="150.058,142.035 150.058,78.996 185.708,78.996 194.573,99.802 244.429,99.927 
						244.222,142.035 					"/>
					<polygon id="Fill-124" fill="#E2E2E2" points="149.858,105.409 244.06,105.409 244.06,100.987 149.858,100.987 					"/>
					<polygon id="Fill-125" fill="#E2E2E2" points="149.858,126.252 244.06,126.252 244.06,121.831 149.858,121.831 					"/>
					<polygon id="Fill-126" fill="#E2E2E2" points="187.336,83.926 150.058,83.926 150.058,79.747 186.031,79.747 					"/>
					<g id="Group-129" transform="translate(150.031250, 141.081250)">
						<path id="Fill-127" fill="#FFFFFF" d="M62.54,0.954H0.027"/>
						<path id="Stroke-128" fill="none" stroke="#000000" stroke-width="2" stroke-linecap="round" stroke-linejoin="round" d="
							M62.54,0.954H0.027"/>
					</g>
					
						<polyline id="Stroke-130" fill="none" stroke="#000000" stroke-width="2" stroke-linecap="round" stroke-linejoin="round" points="
						143.882,79.157 186.007,79.157 212.571,142.036 					"/>
					<g id="Group-133" transform="translate(220.512500, 127.656250)">
						<path id="Fill-131" fill="#FFC83D" d="M0.802,14.379V5.441c0,0,0.195-5.008,5.284-5.008s5.268,5.008,5.268,5.008v8.938"/>
						<path id="Stroke-132" fill="none" stroke="#000000" stroke-width="2" stroke-linecap="round" stroke-linejoin="round" d="
							M0.802,14.379V5.441c0,0,0.195-5.008,5.284-5.008s5.268,5.008,5.268,5.008v8.938"/>
					</g>
					<path id="Stroke-134" fill="none" stroke="#000000" stroke-width="2" stroke-linecap="round" stroke-linejoin="round" d="
						M150.058,142.035V80.68"/>
					<path id="Stroke-135" fill="none" stroke="#000000" stroke-width="2" stroke-linecap="round" stroke-linejoin="round" d="
						M244.222,142.035v-40.431"/>
					<g id="Group-138" transform="translate(156.743750, 127.656250)">
						<path id="Fill-136" fill="#FFC83D" d="M0.29,14.379V5.441c0,0,0.194-5.008,5.284-5.008c5.089,0,5.268,5.008,5.268,5.008v8.938
							"/>
						<path id="Stroke-137" fill="none" stroke="#000000" stroke-width="2" stroke-linecap="round" stroke-linejoin="round" d="
							M0.29,14.379V5.441c0,0,0.194-5.008,5.284-5.008c5.089,0,5.268,5.008,5.268,5.008v8.938"/>
					</g>
					<g id="Group-141" transform="translate(173.525000, 127.656250)">
						<path id="Fill-139" fill="#FFC83D" d="M1.046,14.379V5.441c0,0,0.194-5.008,5.284-5.008c5.089,0,5.268,5.008,5.268,5.008
							v8.938"/>
						<path id="Stroke-140" fill="none" stroke="#000000" stroke-width="2" stroke-linecap="round" stroke-linejoin="round" d="
							M1.046,14.379V5.441c0,0,0.194-5.008,5.284-5.008c5.089,0,5.268,5.008,5.268,5.008v8.938"/>
					</g>
					<g id="Group-144" transform="translate(156.743750, 86.262500)">
						<path id="Fill-142" fill="#FFFFFF" d="M0.29,13.144V5.049c0,0,0.194-5.008,5.284-5.008c5.089,0,5.268,5.008,5.268,5.008v8.095
							"/>
						<path id="Stroke-143" fill="none" stroke="#000000" stroke-width="2" stroke-linecap="round" stroke-linejoin="round" d="
							M0.29,13.144V5.049c0,0,0.194-5.008,5.284-5.008c5.089,0,5.268,5.008,5.268,5.008v8.095"/>
					</g>
					<g id="Group-147" transform="translate(173.525000, 86.262500)">
						<path id="Fill-145" fill="#FFFFFF" d="M1.046,13.144V5.049c0,0,0.194-5.008,5.284-5.008c5.089,0,5.268,5.008,5.268,5.008
							v8.095"/>
						<path id="Stroke-146" fill="none" stroke="#000000" stroke-width="2" stroke-linecap="round" stroke-linejoin="round" d="
							M1.046,13.144V5.049c0,0,0.194-5.008,5.284-5.008c5.089,0,5.268,5.008,5.268,5.008v8.095"/>
					</g>
					<g id="Group-150" transform="translate(156.743750, 106.400000)">
						<path id="Fill-148" fill="#FFFFFF" d="M0.29,13.926V5.831c0,0,0.194-5.009,5.284-5.009c5.089,0,5.268,5.009,5.268,5.009v8.095
							"/>
						<path id="Stroke-149" fill="none" stroke="#000000" stroke-width="2" stroke-linecap="round" stroke-linejoin="round" d="
							M0.29,13.926V5.831c0,0,0.194-5.009,5.284-5.009c5.089,0,5.268,5.009,5.268,5.009v8.095"/>
					</g>
					<g id="Group-153" transform="translate(179.118750, 106.400000)">
						<path id="Fill-151" fill="#FFFFFF" d="M0.288,13.926V5.831c0,0,0.194-5.009,5.283-5.009c5.09,0,5.269,5.009,5.269,5.009v8.095
							"/>
						<path id="Stroke-152" fill="none" stroke="#000000" stroke-width="2" stroke-linecap="round" stroke-linejoin="round" d="
							M0.288,13.926V5.831c0,0,0.194-5.009,5.283-5.009c5.09,0,5.269,5.009,5.269,5.009v8.095"/>
					</g>
					<g id="Group-156" transform="translate(209.325000, 106.400000)">
						<path id="Fill-154" fill="#FFFFFF" d="M0.304,13.926V5.831c0,0,0.194-5.009,5.284-5.009c5.089,0,5.268,5.009,5.268,5.009
							v8.095"/>
						<path id="Stroke-155" fill="none" stroke="#000000" stroke-width="2" stroke-linecap="round" stroke-linejoin="round" d="
							M0.304,13.926V5.831c0,0,0.194-5.009,5.284-5.009c5.089,0,5.268,5.009,5.268,5.009v8.095"/>
					</g>
					<g id="Group-159" transform="translate(226.106250, 106.400000)">
						<path id="Fill-157" fill="#FFFFFF" d="M1.052,13.926V5.831c0,0,0.194-5.009,5.283-5.009c5.09,0,5.269,5.009,5.269,5.009v8.095
							"/>
						<path id="Stroke-158" fill="none" stroke="#000000" stroke-width="2" stroke-linecap="round" stroke-linejoin="round" d="
							M1.052,13.926V5.831c0,0,0.194-5.009,5.283-5.009c5.09,0,5.269,5.009,5.269,5.009v8.095"/>
					</g>
					<g id="Group-162" transform="translate(191.425000, 127.656250)">
						<path id="Fill-160" fill="#FFC83D" d="M0.683,14.379V5.441c0,0,0.194-5.008,5.284-5.008c5.089,0,5.268,5.008,5.268,5.008
							v8.938"/>
						<path id="Stroke-161" fill="none" stroke="#000000" stroke-width="2" stroke-linecap="round" stroke-linejoin="round" d="
							M0.683,14.379V5.441c0,0,0.194-5.008,5.284-5.008c5.089,0,5.268,5.008,5.268,5.008v8.938"/>
					</g>
					<g id="Group-165" transform="translate(143.318750, 120.943750)">
						<path id="Fill-163" fill="#FFFFFF" d="M0.564,0.034h106.989"/>
						<path id="Stroke-164" fill="none" stroke="#000000" stroke-width="2" stroke-linecap="round" stroke-linejoin="round" d="
							M0.564,0.034h106.989"/>
					</g>
					<g id="Group-168" transform="translate(143.318750, 99.687500)">
						<path id="Fill-166" fill="#FFFFFF" d="M0.564,0.389h106.989"/>
						<path id="Stroke-167" fill="none" stroke="#000000" stroke-width="2" stroke-linecap="round" stroke-linejoin="round" d="
							M0.564,0.389h106.989"/>
					</g>
					<polygon id="Fill-169" fill="#FFFFFF" points="281.929,131.761 256.858,129.546 262.993,60.108 288.065,62.323 					"/>
					<g id="Group-172" transform="translate(255.193750, 60.531250)">
					</g>
					<g id="Group-175" transform="translate(252.956250, 127.656250)">
						<polyline id="Fill-173" fill="#FFC83D" points="30.225,14.366 31.173,3.352 2.079,0.303 0.767,13.978 						"/>
						
							<polyline id="Stroke-174" fill="none" stroke="#000000" stroke-width="2" stroke-linecap="round" stroke-linejoin="round" points="
							30.225,14.366 31.173,3.352 2.079,0.303 0.767,13.978 						"/>
					</g>
					<polygon id="Fill-176" fill="#E2E2E2" points="283.769,118.104 257.187,115.108 257.693,110.622 284.274,113.616 					"/>
					<polygon id="Fill-177" fill="#E2E2E2" points="285.366,101.725 258.758,98.97 259.222,94.477 285.831,97.233 					"/>
					<polygon id="Fill-178" fill="#E2E2E2" points="286.561,85.733 259.959,82.924 260.434,78.434 287.036,81.242 					"/>
					<polygon id="Fill-179" fill="#E2E2E2" points="288.298,67.484 261.676,64.88 262.116,60.386 288.739,62.989 					"/>
					<path id="Fill-170" fill="#FFFFFF" d="M262.09,61.383l-5.914,66.695"/>
					<path id="Stroke-171" fill="none" stroke="#000000" stroke-width="2" stroke-linecap="round" stroke-linejoin="round" d="
						M262.09,61.383l-5.914,66.695"/>
					<g id="Group-182" transform="translate(282.043750, 63.887500)">
						<path id="Fill-180" fill="#FFFFFF" d="M6.591,0.301L0.829,66.988"/>
						<path id="Stroke-181" fill="none" stroke="#000000" stroke-width="2" stroke-linecap="round" stroke-linejoin="round" d="
							M6.591,0.301L0.829,66.988"/>
					</g>
					<polygon id="Fill-183" fill="#FFC83D" points="291.742,58.105 260.138,54.658 259.722,60.352 291.234,63.606 					"/>
					
						<polygon id="Stroke-184" fill="none" stroke="#000000" stroke-width="2" stroke-linecap="round" stroke-linejoin="round" points="
						291.742,58.105 260.138,54.658 259.722,60.352 291.234,63.606 					"/>
					<g id="Group-187" transform="translate(258.550000, 77.312500)">
						<path id="Fill-185" fill="#FFFFFF" d="M0.064,0.768l31.513,3.253"/>
						<path id="Stroke-186" fill="none" stroke="#000000" stroke-width="2" stroke-linecap="round" stroke-linejoin="round" d="
							M0.064,0.768l31.513,3.253"/>
					</g>
					<g id="Group-190" transform="translate(256.312500, 94.093750)">
						<path id="Fill-188" fill="#FFFFFF" d="M0.931,0.214l31.512,3.254"/>
						<path id="Stroke-189" fill="none" stroke="#000000" stroke-width="2" stroke-linecap="round" stroke-linejoin="round" d="
							M0.931,0.214l31.512,3.254"/>
					</g>
					<g id="Group-193" transform="translate(255.193750, 109.756250)">
						<path id="Fill-191" fill="#FFFFFF" d="M0.229,0.594L31.74,3.847"/>
						<path id="Stroke-192" fill="none" stroke="#000000" stroke-width="2" stroke-linecap="round" stroke-linejoin="round" d="
							M0.229,0.594L31.74,3.847"/>
					</g>
					<g id="Group-196" transform="translate(277.568750, 103.043750)">
						<path id="Fill-194" fill="#FFFFFF" d="M1.025,0.534L0.282,8.979"/>
						<path id="Stroke-195" fill="none" stroke="#000000" stroke-width="2" stroke-linecap="round" stroke-linejoin="round" d="
							M1.025,0.534L0.282,8.979"/>
					</g>
					<g id="Group-199" transform="translate(270.856250, 101.925000)">
						<path id="Fill-197" fill="#FFFFFF" d="M0.901,0.796l-0.74,8.739"/>
						<path id="Stroke-198" fill="none" stroke="#000000" stroke-width="2" stroke-linecap="round" stroke-linejoin="round" d="
							M0.901,0.796l-0.74,8.739"/>
					</g>
					<g id="Group-202" transform="translate(264.143750, 101.925000)">
						<path id="Fill-200" fill="#FFFFFF" d="M0.849,0.023L0.114,8.919"/>
						<path id="Stroke-201" fill="none" stroke="#000000" stroke-width="2" stroke-linecap="round" stroke-linejoin="round" d="
							M0.849,0.023L0.114,8.919"/>
					</g>
					<g id="Group-205" transform="translate(278.687500, 87.381250)">
						<path id="Fill-203" fill="#FFFFFF" d="M1.351,0.106L0.608,8.551"/>
						<path id="Stroke-204" fill="none" stroke="#000000" stroke-width="2" stroke-linecap="round" stroke-linejoin="round" d="
							M1.351,0.106L0.608,8.551"/>
					</g>
					<g id="Group-208" transform="translate(271.975000, 86.262500)">
						<path id="Fill-206" fill="#FFFFFF" d="M1.227,0.368l-0.74,8.74"/>
						<path id="Stroke-207" fill="none" stroke="#000000" stroke-width="2" stroke-linecap="round" stroke-linejoin="round" d="
							M1.227,0.368l-0.74,8.74"/>
					</g>
					<g id="Group-211" transform="translate(265.262500, 85.143750)">
						<path id="Fill-209" fill="#FFFFFF" d="M1.174,0.714L0.439,9.609"/>
						<path id="Stroke-210" fill="none" stroke="#000000" stroke-width="2" stroke-linecap="round" stroke-linejoin="round" d="
							M1.174,0.714L0.439,9.609"/>
					</g>
					<g id="Group-214" transform="translate(279.806250, 70.600000)">
						<path id="Fill-212" fill="#FFFFFF" d="M1.684,0.147L0.941,8.591"/>
						<path id="Stroke-213" fill="none" stroke="#000000" stroke-width="2" stroke-linecap="round" stroke-linejoin="round" d="
							M1.684,0.147L0.941,8.591"/>
					</g>
					<g id="Group-217" transform="translate(273.093750, 69.481250)">
						<path id="Fill-215" fill="#FFFFFF" d="M1.561,0.408L0.82,9.148"/>
						<path id="Stroke-216" fill="none" stroke="#000000" stroke-width="2" stroke-linecap="round" stroke-linejoin="round" d="
							M1.561,0.408L0.82,9.148"/>
					</g>
					<g id="Group-220" transform="translate(266.381250, 68.362500)">
						<path id="Fill-218" fill="#FFFFFF" d="M1.508,0.755L0.774,9.65"/>
						<path id="Stroke-219" fill="none" stroke="#000000" stroke-width="2" stroke-linecap="round" stroke-linejoin="round" d="
							M1.508,0.755L0.774,9.65"/>
					</g>
					<g id="Group-223" transform="translate(275.331250, 119.825000)">
						<path id="Fill-221" fill="#FFFFFF" d="M1.754,0.837L1.011,9.281"/>
						<path id="Stroke-222" fill="none" stroke="#000000" stroke-width="2" stroke-linecap="round" stroke-linejoin="round" d="
							M1.754,0.837L1.011,9.281"/>
					</g>
					<g id="Group-226" transform="translate(268.618750, 118.706250)">
						<path id="Fill-224" fill="#FFFFFF" d="M1.63,1.098L0.89,9.838"/>
						<path id="Stroke-225" fill="none" stroke="#000000" stroke-width="2" stroke-linecap="round" stroke-linejoin="round" d="
							M1.63,1.098L0.89,9.838"/>
					</g>
					<g id="Group-229" transform="translate(261.906250, 118.706250)">
						<path id="Fill-227" fill="#FFFFFF" d="M1.578,0.326L0.842,9.22"/>
						<path id="Stroke-228" fill="none" stroke="#000000" stroke-width="2" stroke-linecap="round" stroke-linejoin="round" d="
							M1.578,0.326L0.842,9.22"/>
					</g>
					<g id="Group-232" transform="translate(274.212500, 135.487500)">
						<path id="Fill-230" fill="#FFFFFF" d="M1.471,0.177L0.997,6.535"/>
						<path id="Stroke-231" fill="none" stroke="#000000" stroke-width="2" stroke-linecap="round" stroke-linejoin="round" d="
							M1.471,0.177L0.997,6.535"/>
					</g>
					<g id="Group-235" transform="translate(267.500000, 134.368750)">
						<path id="Fill-233" fill="#FFFFFF" d="M1.556,0.79L0.862,7.358"/>
						<path id="Stroke-234" fill="none" stroke="#000000" stroke-width="2" stroke-linecap="round" stroke-linejoin="round" d="
							M1.556,0.79L0.862,7.358"/>
					</g>
					<g id="Group-238" transform="translate(260.787500, 134.368750)">
						<path id="Fill-236" fill="#FFFFFF" d="M1.401,0.147L0.8,7.017"/>
						<path id="Stroke-237" fill="none" stroke="#000000" stroke-width="2" stroke-linecap="round" stroke-linejoin="round" d="
							M1.401,0.147L0.8,7.017"/>
					</g>
					<path id="Stroke-239" fill="none" stroke="#000000" stroke-width="2" stroke-linecap="round" stroke-linejoin="round" d="
						M332.344,142.035H0.119"/>
					<path id="Stroke-240" fill="none" stroke="#D1D1D1" stroke-width="2" stroke-linecap="round" stroke-linejoin="round" d="
						M35.611,60.744c0.019-0.474,0.138-1.29,0.677-1.924c0.586-0.69,2.719-2.183,4.131-2.229"/>
					<path id="Stroke-241" fill="none" stroke="#D1D1D1" stroke-width="2" stroke-linecap="round" stroke-linejoin="round" d="
						M29.06,56.592c0.685,0.01,5.083,1.332,5.395,4.289"/>
					<path id="Stroke-242" fill="none" stroke="#D1D1D1" stroke-width="2" stroke-linecap="round" stroke-linejoin="round" d="
						M290.422,30.445c0.02-0.475,0.138-1.29,0.677-1.924c0.587-0.69,2.719-2.183,4.131-2.229"/>
					<path id="Stroke-243" fill="none" stroke="#D1D1D1" stroke-width="2" stroke-linecap="round" stroke-linejoin="round" d="
						M283.871,26.293c0.685,0.01,5.084,1.333,5.395,4.289"/>
					<path id="Stroke-244" fill="none" stroke="#D1D1D1" stroke-width="2" stroke-linecap="round" stroke-linejoin="round" d="
						M57.986,33.893c0.019-0.474,0.138-1.29,0.677-1.924c0.586-0.69,2.719-2.183,4.131-2.229"/>
					<path id="Stroke-245" fill="none" stroke="#D1D1D1" stroke-width="2" stroke-linecap="round" stroke-linejoin="round" d="
						M51.435,29.742c0.685,0.01,5.083,1.333,5.395,4.289"/>
					<path id="Fill-246" fill="#FFFFFF" d="M40.954,142.038h-5.973v-14.9c8.204-0.785,15.913-7.693,15.913-16.104
						c0-2.853-0.738-6.356-2.034-9.806H20.57c-1.295,3.449-2.035,6.953-2.035,9.806c0,8.41,7.709,15.318,15.913,16.104v14.9h-5.973"
						/>
					<path id="Fill-249" fill="#E2E2E2" d="M39.457,121.964h-0.533c-8.204-1.119-15.913-7.885-15.913-16.294
						c0-1.453,0.194-2.726,0.553-4.963h-2.435c-1.295,4.476-2.034,7.425-2.034,10.276c0,8.409,7.709,15.455,15.913,16.574h0.533
						c5.973-1.119,11.667-4.676,14.332-9.955C46.994,120.165,43.285,121.964,39.457,121.964"/>
					<path id="Stroke-247" fill="none" stroke="#000000" stroke-width="2" stroke-linecap="round" stroke-linejoin="round" d="
						M40.954,142.038h-5.973v-14.9c8.204-0.785,15.913-7.693,15.913-16.104c0-2.853-0.738-6.356-2.034-9.806H20.57
						c-1.295,3.449-2.035,6.953-2.035,9.806c0,8.41,7.709,15.318,15.913,16.104v14.9h-5.973"/>
					<path id="Fill-250" fill="#FFFFFF" d="M24.903,110.458c0,6.029,4.887,10.916,10.916,10.916"/>
					<path id="Stroke-251" fill="none" stroke="#000000" stroke-width="2" stroke-linecap="round" stroke-linejoin="round" d="
						M24.903,110.458c0,6.029,4.887,10.916,10.916,10.916"/>
					<path id="Fill-253" fill="#FFFFFF" d="M297.795,145.878c-0.089,0-0.209-0.029-0.278-0.176l-16.23-34.156
						c3.505-5.733,9.776-9.271,16.509-9.271c6.731,0,13.005,3.538,16.509,9.271l-16.231,34.156
						C298.005,145.849,297.884,145.878,297.795,145.878"/>
					<path id="Fill-255" fill="#E2E2E2" d="M297.456,103.317c-6.339,0-12.197,3.972-15.771,8.391
						c2.681-1.307,3.398-2.008,6.525-2.797c6.674-1.683,15.65,0.201,19.019,5.781l-11.005,29.331c0.493,0.981,1.97,0.981,2.464,0
						l15.764-31.364C311.083,107.081,304.737,103.317,297.456,103.317"/>
					<path id="Fill-254" d="M297.795,101.155c-7.614,0-14.252,4.163-17.774,10.333l16.485,34.694
						c0.259,0.543,0.774,0.814,1.289,0.814c0.516,0,1.03-0.271,1.289-0.814l16.485-34.694
						C312.047,105.318,305.41,101.155,297.795,101.155 M297.795,103.393c6.142,0,11.878,3.125,15.234,8.229l-15.234,32.059
						l-15.234-32.059C285.917,106.518,291.654,103.393,297.795,103.393"/>
					<path id="Fill-256" d="M293.401,116.296c1.091,0,1.977,0.885,1.977,1.975c0,1.093-0.886,1.977-1.977,1.977
						s-1.976-0.884-1.976-1.977C291.425,117.181,292.31,116.296,293.401,116.296"/>
					<path id="Fill-257" d="M299.33,122.224c1.09,0,1.976,0.885,1.976,1.976c0,1.092-0.886,1.976-1.976,1.976
						c-1.093,0-1.977-0.884-1.977-1.976C297.353,123.108,298.237,122.224,299.33,122.224"/>
					<path id="Fill-258" d="M301.835,112.344c1.091,0,1.977,0.885,1.977,1.976c0,1.092-0.886,1.976-1.977,1.976
						s-1.976-0.884-1.976-1.976C299.86,113.228,300.745,112.344,301.835,112.344"/>
					<path id="Fill-259" fill="#FFC83D" d="M315.945,114.527c-3.903-5.868-10.573-10.658-18.149-10.658
						c-7.577,0-14.246,4.79-18.15,10.658c-0.591,0.532-1.684,0.302-2.891-0.732c-1.207-1.035,0.165-3.997,0.561-4.61
						c4.33-6.729,11.882-11.189,20.48-11.189c8.598,0,16.149,4.46,20.481,11.189c0.394,0.611,0.853,2.195,0.22,3.92
						C317.865,114.829,316.39,115.196,315.945,114.527"/>
					<path id="Stroke-260" fill="none" stroke="#000000" stroke-width="2" stroke-linecap="round" stroke-linejoin="round" d="
						M315.945,114.527c-3.903-5.868-10.573-10.658-18.149-10.658c-7.577,0-14.246,4.79-18.15,10.658
						c-0.591,0.532-1.684,0.302-2.891-0.732c-1.207-1.035,0.165-3.997,0.561-4.61c4.33-6.729,11.882-11.189,20.48-11.189
						c8.598,0,16.149,4.46,20.481,11.189c0.394,0.611,0.853,2.195,0.22,3.92C317.865,114.829,316.39,115.196,315.945,114.527
						L315.945,114.527z"/>
				</g>
			</g>
		</g>
	</g>
</g>
<g id="Page-1_2_">
	<g id="_x32_07_x5F_M2U_x5F_Planner_x5F_Travel-Copy" transform="translate(-823.000000, -337.000000)">
		
			<g id="plane" transform="translate(853.110230, 355.168677) rotate(26.000000) translate(-853.110230, -355.168677) translate(823.110230, 339.668677)">
			<path id="Fill-1_1_" fill="#373737" d="M206.357,46.84c0.015,0.031,0.033,0.058,0.047,0.088l0.339,0.727
				c0.586,1.258-0.319,2.224-1.284,2.674l-37.338,17.853l-4.68,2.182c-0.836,0.389-1.812,0.285-2.547-0.273l-7.567-5.753
				l1.966-0.915l5.063,2.732c0.356,0.191,0.784,0.189,1.14-0.006l11.127-6.134l1.649,1.384c0.211,0.16,0.465,0.243,0.72,0.242
				c0.171,0,0.343-0.036,0.503-0.111l9.802-4.572c0.408-0.189,0.673-0.593,0.687-1.042c0.013-0.45-0.228-0.869-0.624-1.081
				l-1.776-0.863l13.295-7.329c3.022-1.452,5.643-1.956,7.434-1.439L206.357,46.84z M175.141,59.068l-12.812-9.871l3.965-1.849
				l15.852,8.453L175.141,59.068z M208.899,46.648l-0.337-0.725c-0.639-1.368-1.747-2.366-3.208-2.888
				c-2.436-0.868-5.733-0.357-9.537,1.477c-0.019,0.009-0.038,0.02-0.057,0.029l-14.666,8.086l-14.195-7.657
				c-0.331-0.177-0.727-0.189-1.067-0.029l-6.293,2.935c-0.378,0.176-0.636,0.536-0.681,0.951c-0.045,0.413,0.13,0.821,0.463,1.073
				l11.232,8.539l-9.636,5.313l-5.019-2.706c-0.331-0.178-0.727-0.19-1.067-0.031l-4.292,2.002c-0.378,0.177-0.637,0.538-0.68,0.951
				c-0.044,0.415,0.132,0.822,0.462,1.074l9.136,6.944c0.863,0.656,1.896,0.993,2.937,0.993c0.698,0.001,1.399-0.15,2.056-0.457
				l4.689-2.187l37.337-17.852c1.121-0.523,1.993-1.359,2.457-2.354C209.442,49.026,209.432,47.79,208.899,46.648L208.899,46.648z"
				/>
		</g>
	</g>
</g>
</svg>
