<?xml version="1.0" encoding="UTF-8"?>
<svg width="76px" height="111px" viewBox="0 0 76 111" version="1.1" xmlns="http://www.w3.org/2000/svg" xmlns:xlink="http://www.w3.org/1999/xlink">
    <!-- Generator: sketchtool 39.1 (31720) - http://www.bohemiancoding.com/sketch -->
    <title>2538A42E-6FD5-4435-9933-3A978FAC8080</title>
    <desc>Created with sketchtool.</desc>
    <defs></defs>
    <g id="M2U-Planner" stroke="none" stroke-width="1" fill="none" fill-rule="evenodd">
        <g id="310_M2U_Planner_Travel" transform="translate(-914.000000, -354.000000)">
            <g id="Group" transform="translate(212.000000, 281.000000)">
                <g id="Japan" transform="translate(702.000000, 73.006032)">
                    <g transform="translate(3.560853, 4.638479)" fill="#FBFBFB">
                        <path d="M30.3954823,8.78875895 C30.3954823,10.0379439 29.3824932,11.0526164 28.1290353,11.0526164 C26.8790625,11.0526164 25.8672351,10.0379439 25.8672351,8.78875895 C25.8672351,7.54073498 26.8790625,6.52606246 28.1290353,6.52606246 C29.3824932,6.52606246 30.3954823,7.54073498 30.3954823,8.78875895" id="Fill-1"></path>
                        <path d="M36.8789613,8.78875895 C36.8789613,10.0379439 35.8671338,11.0526164 34.6159993,11.0526164 C33.3660265,11.0526164 32.350714,10.0379439 32.350714,8.78875895 C32.350714,7.54073498 33.3660265,6.52606246 34.6159993,6.52606246 C35.8671338,6.52606246 36.8789613,7.54073498 36.8789613,8.78875895" id="Fill-3"></path>
                        <path d="M30.3954823,14.8315169 C30.3954823,16.0795408 29.3824932,17.0930524 28.1290353,17.0930524 C26.8790625,17.0930524 25.8672351,16.0795408 25.8672351,14.8315169 C25.8672351,13.581171 26.8790625,12.5664985 28.1290353,12.5664985 C29.3824932,12.5664985 30.3954823,13.581171 30.3954823,14.8315169" id="Fill-5"></path>
                        <path d="M36.8789613,14.8315169 C36.8789613,16.0795408 35.8671338,17.0930524 34.6159993,17.0930524 C33.3660265,17.0930524 32.350714,16.0795408 32.350714,14.8315169 C32.350714,13.581171 33.3660265,12.5664985 34.6159993,12.5664985 C35.8671338,12.5664985 36.8789613,13.581171 36.8789613,14.8315169" id="Fill-7"></path>
                        <path d="M36.8789613,2.26408963 C36.8789613,3.51327455 35.8671338,4.52678611 34.6159993,4.52678611 C33.3660265,4.52678611 32.350714,3.51327455 32.350714,2.26408963 C32.350714,1.01374375 33.3660265,0.000232190509 34.6159993,0.000232190509 C35.8671338,0.000232190509 36.8789613,1.01374375 36.8789613,2.26408963" id="Fill-9"></path>
                        <path d="M30.3954823,27.8809716 C30.3954823,29.1289956 29.3824932,30.1413462 28.1290353,30.1413462 C26.8790625,30.1413462 25.8672351,29.1289956 25.8672351,27.8809716 C25.8672351,26.6306257 26.8790625,25.6182751 28.1290353,25.6182751 C29.3824932,25.6182751 30.3954823,26.6306257 30.3954823,27.8809716" id="Fill-11"></path>
                        <path d="M36.8789613,27.8809716 C36.8789613,29.1289956 35.8671338,30.1413462 34.6159993,30.1413462 C33.3660265,30.1413462 32.350714,29.1289956 32.350714,27.8809716 C32.350714,26.6306257 33.3660265,25.6182751 34.6159993,25.6182751 C35.8671338,25.6182751 36.8789613,26.6306257 36.8789613,27.8809716" id="Fill-13"></path>
                        <path d="M30.3954823,21.3539804 C30.3954823,22.6031653 29.3824932,23.6166769 28.1290353,23.6166769 C26.8790625,23.6166769 25.8672351,22.6031653 25.8672351,21.3539804 C25.8672351,20.1071174 26.8790625,19.0936058 28.1290353,19.0936058 C29.3824932,19.0936058 30.3954823,20.1071174 30.3954823,21.3539804" id="Fill-15"></path>
                        <path d="M36.8789613,21.3539804 C36.8789613,22.6031653 35.8671338,23.6166769 34.6159993,23.6166769 C33.3660265,23.6166769 32.350714,22.6031653 32.350714,21.3539804 C32.350714,20.1071174 33.3660265,19.0936058 34.6159993,19.0936058 C35.8671338,19.0936058 36.8789613,20.1071174 36.8789613,21.3539804" id="Fill-17"></path>
                        <path d="M11.0700428,41.2398202 C11.0700428,42.491327 10.0570537,43.5059995 8.80475747,43.5059995 C7.55478465,43.5059995 6.54063383,42.491327 6.54063383,41.2398202 C6.54063383,39.9929572 7.55478465,38.9782847 8.80475747,38.9782847 C10.0570537,38.9782847 11.0700428,39.9929572 11.0700428,41.2398202" id="Fill-19"></path>
                        <path d="M17.497877,41.2398202 C17.497877,42.491327 16.4837262,43.5059995 15.2349151,43.5059995 C13.9837806,43.5059995 12.9684681,42.491327 12.9684681,41.2398202 C12.9684681,39.9929572 13.9837806,38.9782847 15.2349151,38.9782847 C16.4837262,38.9782847 17.497877,39.9929572 17.497877,41.2398202" id="Fill-21"></path>
                        <path d="M23.9654409,41.2398202 C23.9654409,42.491327 22.9524518,43.5059995 21.7024789,43.5059995 C20.4513444,43.5059995 19.4383553,42.491327 19.4383553,41.2398202 C19.4383553,39.9929572 20.4513444,38.9782847 21.7024789,38.9782847 C22.9524518,38.9782847 23.9654409,39.9929572 23.9654409,41.2398202" id="Fill-23"></path>
                        <path d="M30.3954823,41.2398202 C30.3954823,42.491327 29.3824932,43.5059995 28.1290353,43.5059995 C26.8790625,43.5059995 25.8672351,42.491327 25.8672351,41.2398202 C25.8672351,39.9929572 26.8790625,38.9782847 28.1290353,38.9782847 C29.3824932,38.9782847 30.3954823,39.9929572 30.3954823,41.2398202" id="Fill-25"></path>
                        <path d="M36.8789613,41.2398202 C36.8789613,42.491327 35.8671338,43.5059995 34.6159993,43.5059995 C33.3660265,43.5059995 32.350714,42.491327 32.350714,41.2398202 C32.350714,39.9929572 33.3660265,38.9782847 34.6159993,38.9782847 C35.8671338,38.9782847 36.8789613,39.9929572 36.8789613,41.2398202" id="Fill-27"></path>
                        <path d="M17.497877,34.7139899 C17.497877,35.9654967 16.4837262,36.9790083 15.2349151,36.9790083 C13.9837806,36.9790083 12.9684681,35.9654967 12.9684681,34.7139899 C12.9684681,33.4671269 13.9837806,32.4524544 15.2349151,32.4524544 C16.4837262,32.4524544 17.497877,33.4671269 17.497877,34.7139899" id="Fill-29"></path>
                        <path d="M23.9654409,34.7139899 C23.9654409,35.9654967 22.9524518,36.9790083 21.7024789,36.9790083 C20.4513444,36.9790083 19.4383553,35.9654967 19.4383553,34.7139899 C19.4383553,33.4671269 20.4513444,32.4524544 21.7024789,32.4524544 C22.9524518,32.4524544 23.9654409,33.4671269 23.9654409,34.7139899" id="Fill-31"></path>
                        <path d="M30.3954823,34.7139899 C30.3954823,35.9654967 29.3824932,36.9790083 28.1290353,36.9790083 C26.8790625,36.9790083 25.8672351,35.9654967 25.8672351,34.7139899 C25.8672351,33.4671269 26.8790625,32.4524544 28.1290353,32.4524544 C29.3824932,32.4524544 30.3954823,33.4671269 30.3954823,34.7139899" id="Fill-33"></path>
                        <path d="M36.8789613,34.7139899 C36.8789613,35.9654967 35.8671338,36.9790083 34.6159993,36.9790083 C33.3660265,36.9790083 32.350714,35.9654967 32.350714,34.7139899 C32.350714,33.4671269 33.3660265,32.4524544 34.6159993,32.4524544 C35.8671338,32.4524544 36.8789613,33.4671269 36.8789613,34.7139899" id="Fill-35"></path>
                        <path d="M43.1672772,8.78875895 C43.1672772,10.0379439 42.1531264,11.0526164 40.9043152,11.0526164 C39.6543424,11.0526164 38.6390299,10.0379439 38.6390299,8.78875895 C38.6390299,7.54073498 39.6543424,6.52606246 40.9043152,6.52606246 C42.1531264,6.52606246 43.1672772,7.54073498 43.1672772,8.78875895" id="Fill-37"></path>
                        <path d="M43.1672772,14.8315169 C43.1672772,16.0795408 42.1531264,17.0930524 40.9043152,17.0930524 C39.6543424,17.0930524 38.6390299,16.0795408 38.6390299,14.8315169 C38.6390299,13.581171 39.6543424,12.5664985 40.9043152,12.5664985 C42.1531264,12.5664985 43.1672772,13.581171 43.1672772,14.8315169" id="Fill-39"></path>
                        <path d="M43.1672772,27.8809716 C43.1672772,29.1289956 42.1531264,30.1413462 40.9043152,30.1413462 C39.6543424,30.1413462 38.6390299,29.1289956 38.6390299,27.8809716 C38.6390299,26.6306257 39.6543424,25.6182751 40.9043152,25.6182751 C42.1531264,25.6182751 43.1672772,26.6306257 43.1672772,27.8809716" id="Fill-41"></path>
                        <path d="M43.1672772,21.3539804 C43.1672772,22.6031653 42.1531264,23.6166769 40.9043152,23.6166769 C39.6543424,23.6166769 38.6390299,22.6031653 38.6390299,21.3539804 C38.6390299,20.1071174 39.6543424,19.0936058 40.9043152,19.0936058 C42.1531264,19.0936058 43.1672772,20.1071174 43.1672772,21.3539804" id="Fill-43"></path>
                        <path d="M56.2248465,14.8315169 C56.2248465,16.0795408 55.2118573,17.0930524 53.9618845,17.0930524 C52.7119117,17.0930524 51.6989226,16.0795408 51.6989226,14.8315169 C51.6989226,13.581171 52.7119117,12.5664985 53.9618845,12.5664985 C55.2118573,12.5664985 56.2248465,13.581171 56.2248465,14.8315169" id="Fill-45"></path>
                        <path d="M56.2248465,21.3539804 C56.2248465,22.6031653 55.2118573,23.6166769 53.9618845,23.6166769 C52.7119117,23.6166769 51.6989226,22.6031653 51.6989226,21.3539804 C51.6989226,20.1071174 52.7119117,19.0936058 53.9618845,19.0936058 C55.2118573,19.0936058 56.2248465,20.1071174 56.2248465,21.3539804" id="Fill-47"></path>
                        <path d="M49.3987867,8.93492287 C49.3987867,10.1841078 48.3857976,11.1964584 47.1358247,11.1964584 C45.8858519,11.1964584 44.8717011,10.1841078 44.8717011,8.93492287 C44.8717011,7.68573795 45.8858519,6.67222639 47.1358247,6.67222639 C48.3857976,6.67222639 49.3987867,7.68573795 49.3987867,8.93492287" id="Fill-49"></path>
                        <path d="M49.6983852,21.3539804 C49.6983852,22.6031653 48.6842344,23.6166769 47.4342615,23.6166769 C46.183127,23.6166769 45.1701379,22.6031653 45.1701379,21.3539804 C45.1701379,20.1071174 46.183127,19.0936058 47.4342615,19.0936058 C48.6842344,19.0936058 49.6983852,20.1071174 49.6983852,21.3539804" id="Fill-51"></path>
                        <path d="M43.1672772,34.7139899 C43.1672772,35.9654967 42.1531264,36.9790083 40.9043152,36.9790083 C39.6543424,36.9790083 38.6390299,35.9654967 38.6390299,34.7139899 C38.6390299,33.4671269 39.6543424,32.4524544 40.9043152,32.4524544 C42.1531264,32.4524544 43.1672772,33.4671269 43.1672772,34.7139899" id="Fill-53"></path>
                        <path d="M11.0700428,54.2892749 C11.0700428,55.5407818 10.0570537,56.5542933 8.80475747,56.5542933 C7.55478465,56.5542933 6.54063383,55.5407818 6.54063383,54.2892749 C6.54063383,53.041251 7.55478465,52.0265784 8.80475747,52.0265784 C10.0570537,52.0265784 11.0700428,53.041251 11.0700428,54.2892749" id="Fill-55"></path>
                        <path d="M17.497877,54.2892749 C17.497877,55.5407818 16.4837262,56.5542933 15.2349151,56.5542933 C13.9837806,56.5542933 12.9684681,55.5407818 12.9684681,54.2892749 C12.9684681,53.041251 13.9837806,52.0265784 15.2349151,52.0265784 C16.4837262,52.0265784 17.497877,53.041251 17.497877,54.2892749" id="Fill-57"></path>
                        <path d="M30.3954823,54.2892749 C30.3954823,55.5407818 29.3824932,56.5542933 28.1290353,56.5542933 C26.8790625,56.5542933 25.8672351,55.5407818 25.8672351,54.2892749 C25.8672351,53.041251 26.8790625,52.0265784 28.1290353,52.0265784 C29.3824932,52.0265784 30.3954823,53.041251 30.3954823,54.2892749" id="Fill-59"></path>
                        <path d="M36.8789613,54.2892749 C36.8789613,55.5407818 35.8671338,56.5542933 34.6159993,56.5542933 C33.3660265,56.5542933 32.350714,55.5407818 32.350714,54.2892749 C32.350714,53.041251 33.3660265,52.0265784 34.6159993,52.0265784 C35.8671338,52.0265784 36.8789613,53.041251 36.8789613,54.2892749" id="Fill-61"></path>
                        <path d="M36.681591,60.5746719 C36.681591,61.8238569 35.6686019,62.8350465 34.4186291,62.8350465 C33.1663329,62.8350465 32.1545054,61.8238569 32.1545054,60.5746719 C32.1545054,59.3243261 33.1663329,58.3131364 34.4186291,58.3131364 C35.6686019,58.3131364 36.681591,59.3243261 36.681591,60.5746719" id="Fill-63"></path>
                        <path d="M43.1672772,60.5746719 C43.1672772,61.8238569 42.1531264,62.8350465 40.9043152,62.8350465 C39.652019,62.8350465 38.6390299,61.8238569 38.6390299,60.5746719 C38.6390299,59.3243261 39.652019,58.3131364 40.9043152,58.3131364 C42.1531264,58.3131364 43.1672772,59.3243261 43.1672772,60.5746719" id="Fill-65"></path>
                        <path d="M69.2847391,34.7139899 C69.2847391,35.9654967 68.2705883,36.9790083 67.0194538,36.9790083 C65.7718043,36.9790083 64.7564918,35.9654967 64.7564918,34.7139899 C64.7564918,33.4671269 65.7718043,32.4524544 67.0194538,32.4524544 C68.2705883,32.4524544 69.2847391,33.4671269 69.2847391,34.7139899" id="Fill-67"></path>
                        <path d="M69.2847391,47.0400551 C69.2847391,48.291562 68.2705883,49.3039126 67.0194538,49.3039126 C65.7718043,49.3039126 64.7564918,48.291562 64.7564918,47.0400551 C64.7564918,45.7931921 65.7718043,44.7785196 67.0194538,44.7785196 C68.2705883,44.7785196 69.2847391,45.7931921 69.2847391,47.0400551" id="Fill-69"></path>
                        <path d="M62.9964232,34.7139899 C62.9964232,35.9654967 61.9822724,36.9790083 60.7334613,36.9790083 C59.4834885,36.9790083 58.4704993,35.9654967 58.4704993,34.7139899 C58.4704993,33.4671269 59.4834885,32.4524544 60.7334613,32.4524544 C61.9822724,32.4524544 62.9964232,33.4671269 62.9964232,34.7139899" id="Fill-71"></path>
                        <path d="M69.2847391,54.2892749 C69.2847391,55.5407818 68.2705883,56.5542933 67.0194538,56.5542933 C65.7718043,56.5542933 64.7564918,55.5407818 64.7564918,54.2892749 C64.7564918,53.041251 65.7718043,52.0265784 67.0194538,52.0265784 C68.2705883,52.0265784 69.2847391,53.041251 69.2847391,54.2892749" id="Fill-73"></path>
                        <path d="M69.0850455,60.5746719 C69.0850455,61.8238569 68.0720564,62.8350465 66.8232452,62.8350465 C65.5732724,62.8350465 64.5579599,61.8238569 64.5579599,60.5746719 C64.5579599,59.3243261 65.5732724,58.3131364 66.8232452,58.3131364 C68.0720564,58.3131364 69.0850455,59.3243261 69.0850455,60.5746719" id="Fill-75"></path>
                        <path d="M63.2834755,60.5746719 C63.2834755,61.8238569 62.2693247,62.8350465 61.0193519,62.8350465 C59.7682174,62.8350465 58.7540666,61.8238569 58.7540666,60.5746719 C58.7540666,59.3243261 59.7682174,58.3131364 61.0193519,58.3131364 C62.2693247,58.3131364 63.2834755,59.3243261 63.2834755,60.5746719" id="Fill-77"></path>
                        <path d="M56.2248465,60.5746719 C56.2248465,61.8238569 55.2118573,62.8350465 53.9618845,62.8350465 C52.7119117,62.8350465 51.6989226,61.8238569 51.6989226,60.5746719 C51.6989226,59.3243261 52.7119117,58.3131364 53.9618845,58.3131364 C55.2118573,58.3131364 56.2248465,59.3243261 56.2248465,60.5746719" id="Fill-79"></path>
                        <path d="M11.0700428,47.7644895 C11.0700428,49.0136744 10.0570537,50.0283469 8.80475747,50.0283469 C7.55478465,50.0283469 6.54063383,49.0136744 6.54063383,47.7644895 C6.54063383,46.5164655 7.55478465,45.501793 8.80475747,45.501793 C10.0570537,45.501793 11.0700428,46.5164655 11.0700428,47.7644895" id="Fill-81"></path>
                        <path d="M17.497877,47.7644895 C17.497877,49.0136744 16.4837262,50.0283469 15.2349151,50.0283469 C13.9837806,50.0283469 12.9684681,49.0136744 12.9684681,47.7644895 C12.9684681,46.5164655 13.9837806,45.501793 15.2349151,45.501793 C16.4837262,45.501793 17.497877,46.5164655 17.497877,47.7644895" id="Fill-83"></path>
                        <path d="M4.52766644,67.0313094 C4.52766644,68.2816553 3.51467731,69.2940059 2.26586617,69.2940059 C1.01240829,69.2940059 0.00058084239,68.2816553 0.00058084239,67.0313094 C0.00058084239,65.7798026 1.01240829,64.767452 2.26586617,64.767452 C3.51467731,64.767452 4.52766644,65.7798026 4.52766644,67.0313094" id="Fill-85"></path>
                        <path d="M11.0700428,67.0313094 C11.0700428,68.2816553 10.0570537,69.2940059 8.80475747,69.2940059 C7.55478465,69.2940059 6.54063383,68.2816553 6.54063383,67.0313094 C6.54063383,65.7798026 7.55478465,64.767452 8.80475747,64.767452 C10.0570537,64.767452 11.0700428,65.7798026 11.0700428,67.0313094" id="Fill-87"></path>
                        <path d="M17.497877,67.0313094 C17.497877,68.2816553 16.4837262,69.2940059 15.2349151,69.2940059 C13.9837806,69.2940059 12.9684681,68.2816553 12.9684681,67.0313094 C12.9684681,65.7798026 13.9837806,64.767452 15.2349151,64.767452 C16.4837262,64.767452 17.497877,65.7798026 17.497877,67.0313094" id="Fill-89"></path>
                        <path d="M11.0700428,60.5044343 C11.0700428,61.7547802 10.0570537,62.7682917 8.80475747,62.7682917 C7.55478465,62.7682917 6.54063383,61.7547802 6.54063383,60.5044343 C6.54063383,59.2540884 7.55478465,58.2428988 8.80475747,58.2428988 C10.0570537,58.2428988 11.0700428,59.2540884 11.0700428,60.5044343" id="Fill-91"></path>
                        <path d="M17.497877,60.5044343 C17.497877,61.7547802 16.4837262,62.7682917 15.2349151,62.7682917 C13.9837806,62.7682917 12.9684681,61.7547802 12.9684681,60.5044343 C12.9684681,59.2540884 13.9837806,58.2428988 15.2349151,58.2428988 C16.4837262,58.2428988 17.497877,59.2540884 17.497877,60.5044343" id="Fill-93"></path>
                        <path d="M4.52766644,80.3924799 C4.52766644,81.6416648 3.51467731,82.6540155 2.26586617,82.6540155 C1.01240829,82.6540155 0.00058084239,81.6416648 0.00058084239,80.3924799 C0.00058084239,79.1409731 1.01240829,78.1309444 2.26586617,78.1309444 C3.51467731,78.1309444 4.52766644,79.1409731 4.52766644,80.3924799" id="Fill-95"></path>
                        <path d="M11.0700428,80.3924799 C11.0700428,81.6416648 10.0570537,82.6540155 8.80475747,82.6540155 C7.55478465,82.6540155 6.54063383,81.6416648 6.54063383,80.3924799 C6.54063383,79.1409731 7.55478465,78.1309444 8.80475747,78.1309444 C10.0570537,78.1309444 11.0700428,79.1409731 11.0700428,80.3924799" id="Fill-97"></path>
                        <path d="M17.497877,80.3924799 C17.497877,81.6416648 16.4837262,82.6540155 15.2349151,82.6540155 C13.9837806,82.6540155 12.9684681,81.6416648 12.9684681,80.3924799 C12.9684681,79.1409731 13.9837806,78.1309444 15.2349151,78.1309444 C16.4837262,78.1309444 17.497877,79.1409731 17.497877,80.3924799" id="Fill-99"></path>
                        <path d="M4.52766644,73.8644438 C4.52766644,75.1147897 3.51467731,76.1294622 2.26586617,76.1294622 C1.01240829,76.1294622 0.00058084239,75.1147897 0.00058084239,73.8644438 C0.00058084239,72.6164199 1.01240829,71.6040693 2.26586617,71.6040693 C3.51467731,71.6040693 4.52766644,72.6164199 4.52766644,73.8644438" id="Fill-101"></path>
                        <path d="M11.0700428,73.8644438 C11.0700428,75.1147897 10.0570537,76.1294622 8.80475747,76.1294622 C7.55478465,76.1294622 6.54063383,75.1147897 6.54063383,73.8644438 C6.54063383,72.6164199 7.55478465,71.6040693 8.80475747,71.6040693 C10.0570537,71.6040693 11.0700428,72.6164199 11.0700428,73.8644438" id="Fill-103"></path>
                        <path d="M17.497877,73.8644438 C17.497877,75.1147897 16.4837262,76.1294622 15.2349151,76.1294622 C13.9837806,76.1294622 12.9684681,75.1147897 12.9684681,73.8644438 C12.9684681,72.6164199 13.9837806,71.6040693 15.2349151,71.6040693 C16.4837262,71.6040693 17.497877,72.6164199 17.497877,73.8644438" id="Fill-105"></path>
                        <path d="M11.0700428,93.4419347 C11.0700428,94.6887977 10.0570537,95.7023092 8.80475747,95.7023092 C7.55478465,95.7023092 6.54063383,94.6887977 6.54063383,93.4419347 C6.54063383,92.1915888 7.55478465,91.1803991 8.80475747,91.1803991 C10.0570537,91.1803991 11.0700428,92.1915888 11.0700428,93.4419347" id="Fill-107"></path>
                        <path d="M17.497877,93.4419347 C17.497877,94.6887977 16.4837262,95.7023092 15.2349151,95.7023092 C13.9837806,95.7023092 12.9684681,94.6887977 12.9684681,93.4419347 C12.9684681,92.1915888 13.9837806,91.1803991 15.2349151,91.1803991 C16.4837262,91.1803991 17.497877,92.1915888 17.497877,93.4419347" id="Fill-109"></path>
                        <path d="M11.0700428,86.9161044 C11.0700428,88.1629674 10.0570537,89.1776399 8.80475747,89.1776399 C7.55478465,89.1776399 6.54063383,88.1629674 6.54063383,86.9161044 C6.54063383,85.6645976 7.55478465,84.651086 8.80475747,84.651086 C10.0570537,84.651086 11.0700428,85.6645976 11.0700428,86.9161044" id="Fill-111"></path>
                        <path d="M17.497877,86.9161044 C17.497877,88.1629674 16.4837262,89.1776399 15.2349151,89.1776399 C13.9837806,89.1776399 12.9684681,88.1629674 12.9684681,86.9161044 C12.9684681,85.6645976 13.9837806,84.651086 15.2349151,84.651086 C16.4837262,84.651086 17.497877,85.6645976 17.497877,86.9161044" id="Fill-113"></path>
                        <path d="M23.782824,80.3924799 C23.782824,81.6416648 22.7709966,82.6540155 21.5221855,82.6540155 C20.271051,82.6540155 19.2569001,81.6416648 19.2569001,80.3924799 C19.2569001,79.1409731 20.271051,78.1309444 21.5221855,78.1309444 C22.7709966,78.1309444 23.782824,79.1409731 23.782824,80.3924799" id="Fill-115"></path>
                        <path d="M29.1101943,80.3924799 C29.1101943,81.6416648 28.0983668,82.6540155 26.8472323,82.6540155 C25.5960978,82.6540155 24.5831087,81.6416648 24.5831087,80.3924799 C24.5831087,79.1409731 25.5960978,78.1309444 26.8472323,78.1309444 C28.0983668,78.1309444 29.1101943,79.1409731 29.1101943,80.3924799" id="Fill-117"></path>
                        <path d="M32.2537133,99.966604 C32.2537133,101.219272 31.2418859,102.2293 29.9895897,102.2293 C28.7396168,102.2293 27.7266277,101.219272 27.7266277,99.966604 C27.7266277,98.7174191 28.7396168,97.7050684 29.9895897,97.7050684 C31.2418859,97.7050684 32.2537133,98.7174191 32.2537133,99.966604" id="Fill-119"></path>
                        <path d="M23.782824,73.8644438 C23.782824,75.1147897 22.7709966,76.1294622 21.5221855,76.1294622 C20.271051,76.1294622 19.2569001,75.1147897 19.2569001,73.8644438 C19.2569001,72.6164199 20.271051,71.6040693 21.5221855,71.6040693 C22.7709966,71.6040693 23.782824,72.6164199 23.782824,73.8644438" id="Fill-121"></path>
                        <path d="M23.782824,93.4419347 C23.782824,94.6887977 22.7709966,95.7023092 21.5221855,95.7023092 C20.271051,95.7023092 19.2569001,94.6887977 19.2569001,93.4419347 C19.2569001,92.1915888 20.271051,91.1803991 21.5221855,91.1803991 C22.7709966,91.1803991 23.782824,92.1915888 23.782824,93.4419347" id="Fill-123"></path>
                        <path d="M23.782824,86.9161044 C23.782824,88.1629674 22.7709966,89.1776399 21.5221855,89.1776399 C20.271051,89.1776399 19.2569001,88.1629674 19.2569001,86.9161044 C19.2569001,85.6645976 20.271051,84.651086 21.5221855,84.651086 C22.7709966,84.651086 23.782824,85.6645976 23.782824,86.9161044" id="Fill-125"></path>
                        <path d="M11.0700428,99.1718159 C11.0700428,100.422162 10.0570537,101.434512 8.80475747,101.434512 C7.55478465,101.434512 6.54063383,100.422162 6.54063383,99.1718159 C6.54063383,97.920309 7.55478465,96.9091194 8.80475747,96.9091194 C10.0570537,96.9091194 11.0700428,97.920309 11.0700428,99.1718159" id="Fill-127"></path>
                        <path d="M17.497877,99.1718159 C17.497877,100.422162 16.4837262,101.434512 15.2349151,101.434512 C13.9837806,101.434512 12.9684681,100.422162 12.9684681,99.1718159 C12.9684681,97.920309 13.9837806,96.9091194 15.2349151,96.9091194 C16.4837262,96.9091194 17.497877,97.920309 17.497877,99.1718159" id="Fill-129"></path>
                        <path d="M30.3954823,47.7644895 C30.3954823,49.0136744 29.3824932,50.0283469 28.1290353,50.0283469 C26.8790625,50.0283469 25.8672351,49.0136744 25.8672351,47.7644895 C25.8672351,46.5164655 26.8790625,45.501793 28.1290353,45.501793 C29.3824932,45.501793 30.3954823,46.5164655 30.3954823,47.7644895" id="Fill-131"></path>
                    </g>
                    <g transform="translate(0.713632, 0.440429)" fill="#389A6E">
                        <path d="M32.8759833,9.50598807 C32.8759833,10.8571159 31.7803266,11.9545934 30.4245771,11.9545934 C29.072597,11.9545934 27.9781968,10.8571159 27.9781968,9.50598807 C27.9781968,8.15611591 29.072597,7.05863846 30.4245771,7.05863846 C31.7803266,7.05863846 32.8759833,8.15611591 32.8759833,9.50598807" id="Fill-1"></path>
                        <path d="M39.8885631,9.50598807 C39.8885631,10.8571159 38.7941629,11.9545934 37.4409264,11.9545934 C36.0889463,11.9545934 34.9907766,10.8571159 34.9907766,9.50598807 C34.9907766,8.15611591 36.0889463,7.05863846 37.4409264,7.05863846 C38.7941629,7.05863846 39.8885631,8.15611591 39.8885631,9.50598807" id="Fill-3"></path>
                        <path d="M32.8759833,16.0418807 C32.8759833,17.3917528 31.7803266,18.4879746 30.4245771,18.4879746 C29.072597,18.4879746 27.9781968,17.3917528 27.9781968,16.0418807 C27.9781968,14.6894971 29.072597,13.5920197 30.4245771,13.5920197 C31.7803266,13.5920197 32.8759833,14.6894971 32.8759833,16.0418807" id="Fill-5"></path>
                        <path d="M39.8885631,16.0418807 C39.8885631,17.3917528 38.7941629,18.4879746 37.4409264,18.4879746 C36.0889463,18.4879746 34.9907766,17.3917528 34.9907766,16.0418807 C34.9907766,14.6894971 36.0889463,13.5920197 37.4409264,13.5920197 C38.7941629,13.5920197 39.8885631,14.6894971 39.8885631,16.0418807" id="Fill-7"></path>
                        <path d="M39.8885631,2.44885644 C39.8885631,3.79998429 38.7941629,4.89620605 37.4409264,4.89620605 C36.0889463,4.89620605 34.9907766,3.79998429 34.9907766,2.44885644 C34.9907766,1.0964729 36.0889463,0.000251139009 37.4409264,0.000251139009 C38.7941629,0.000251139009 39.8885631,1.0964729 39.8885631,2.44885644" id="Fill-9"></path>
                        <path d="M32.8759833,30.1562695 C32.8759833,31.5061417 31.7803266,32.6011077 30.4245771,32.6011077 C29.072597,32.6011077 27.9781968,31.5061417 27.9781968,30.1562695 C27.9781968,28.803886 29.072597,27.7089199 30.4245771,27.7089199 C31.7803266,27.7089199 32.8759833,28.803886 32.8759833,30.1562695" id="Fill-11"></path>
                        <path d="M39.8885631,30.1562695 C39.8885631,31.5061417 38.7941629,32.6011077 37.4409264,32.6011077 C36.0889463,32.6011077 34.9907766,31.5061417 34.9907766,30.1562695 C34.9907766,28.803886 36.0889463,27.7089199 37.4409264,27.7089199 C38.7941629,27.7089199 39.8885631,28.803886 39.8885631,30.1562695" id="Fill-13"></path>
                        <path d="M32.8759833,23.0966265 C32.8759833,24.4477543 31.7803266,25.5439761 30.4245771,25.5439761 C29.072597,25.5439761 27.9781968,24.4477543 27.9781968,23.0966265 C27.9781968,21.74801 29.072597,20.6517883 30.4245771,20.6517883 C31.7803266,20.6517883 32.8759833,21.74801 32.8759833,23.0966265" id="Fill-15"></path>
                        <path d="M39.8885631,23.0966265 C39.8885631,24.4477543 38.7941629,25.5439761 37.4409264,25.5439761 C36.0889463,25.5439761 34.9907766,24.4477543 34.9907766,23.0966265 C34.9907766,21.74801 36.0889463,20.6517883 37.4409264,20.6517883 C38.7941629,20.6517883 39.8885631,21.74801 39.8885631,23.0966265" id="Fill-17"></path>
                        <path d="M11.9734419,44.605301 C11.9734419,45.9589403 10.8777852,47.0564177 9.52329219,47.0564177 C8.17131214,47.0564177 7.07439896,45.9589403 7.07439896,44.605301 C7.07439896,43.2566846 8.17131214,42.1592071 9.52329219,42.1592071 C10.8777852,42.1592071 11.9734419,43.2566846 11.9734419,44.605301" id="Fill-19"></path>
                        <path d="M18.925836,44.605301 C18.925836,45.9589403 17.8289228,47.0564177 16.4781992,47.0564177 C15.1249627,47.0564177 14.026793,45.9589403 14.026793,44.605301 C14.026793,43.2566846 15.1249627,42.1592071 16.4781992,42.1592071 C17.8289228,42.1592071 18.925836,43.2566846 18.925836,44.605301" id="Fill-21"></path>
                        <path d="M25.9212019,44.605301 C25.9212019,45.9589403 24.8255452,47.0564177 23.4735652,47.0564177 C22.1203286,47.0564177 21.0246719,45.9589403 21.0246719,44.605301 C21.0246719,43.2566846 22.1203286,42.1592071 23.4735652,42.1592071 C24.8255452,42.1592071 25.9212019,43.2566846 25.9212019,44.605301" id="Fill-23"></path>
                        <path d="M32.8759833,44.605301 C32.8759833,45.9589403 31.7803266,47.0564177 30.4245771,47.0564177 C29.072597,47.0564177 27.9781968,45.9589403 27.9781968,44.605301 C27.9781968,43.2566846 29.072597,42.1592071 30.4245771,42.1592071 C31.7803266,42.1592071 32.8759833,43.2566846 32.8759833,44.605301" id="Fill-25"></path>
                        <path d="M39.8885631,44.605301 C39.8885631,45.9589403 38.7941629,47.0564177 37.4409264,47.0564177 C36.0889463,47.0564177 34.9907766,45.9589403 34.9907766,44.605301 C34.9907766,43.2566846 36.0889463,42.1592071 37.4409264,42.1592071 C38.7941629,42.1592071 39.8885631,43.2566846 39.8885631,44.605301" id="Fill-27"></path>
                        <path d="M18.925836,37.5469137 C18.925836,38.900553 17.8289228,39.9967747 16.4781992,39.9967747 C15.1249627,39.9967747 14.026793,38.900553 14.026793,37.5469137 C14.026793,36.1982973 15.1249627,35.1008198 16.4781992,35.1008198 C17.8289228,35.1008198 18.925836,36.1982973 18.925836,37.5469137" id="Fill-29"></path>
                        <path d="M25.9212019,37.5469137 C25.9212019,38.900553 24.8255452,39.9967747 23.4735652,39.9967747 C22.1203286,39.9967747 21.0246719,38.900553 21.0246719,37.5469137 C21.0246719,36.1982973 22.1203286,35.1008198 23.4735652,35.1008198 C24.8255452,35.1008198 25.9212019,36.1982973 25.9212019,37.5469137" id="Fill-31"></path>
                        <path d="M32.8759833,37.5469137 C32.8759833,38.900553 31.7803266,39.9967747 30.4245771,39.9967747 C29.072597,39.9967747 27.9781968,38.900553 27.9781968,37.5469137 C27.9781968,36.1982973 29.072597,35.1008198 30.4245771,35.1008198 C31.7803266,35.1008198 32.8759833,36.1982973 32.8759833,37.5469137" id="Fill-33"></path>
                        <path d="M39.8885631,37.5469137 C39.8885631,38.900553 38.7941629,39.9967747 37.4409264,39.9967747 C36.0889463,39.9967747 34.9907766,38.900553 34.9907766,37.5469137 C34.9907766,36.1982973 36.0889463,35.1008198 37.4409264,35.1008198 C38.7941629,35.1008198 39.8885631,36.1982973 39.8885631,37.5469137" id="Fill-35"></path>
                        <path d="M46.6900531,9.50598807 C46.6900531,10.8571159 45.5931399,11.9545934 44.2424163,11.9545934 C42.8904363,11.9545934 41.7922666,10.8571159 41.7922666,9.50598807 C41.7922666,8.15611591 42.8904363,7.05863846 44.2424163,7.05863846 C45.5931399,7.05863846 46.6900531,8.15611591 46.6900531,9.50598807" id="Fill-37"></path>
                        <path d="M46.6900531,16.0418807 C46.6900531,17.3917528 45.5931399,18.4879746 44.2424163,18.4879746 C42.8904363,18.4879746 41.7922666,17.3917528 41.7922666,16.0418807 C41.7922666,14.6894971 42.8904363,13.5920197 44.2424163,13.5920197 C45.5931399,13.5920197 46.6900531,14.6894971 46.6900531,16.0418807" id="Fill-39"></path>
                        <path d="M46.6900531,30.1562695 C46.6900531,31.5061417 45.5931399,32.6011077 44.2424163,32.6011077 C42.8904363,32.6011077 41.7922666,31.5061417 41.7922666,30.1562695 C41.7922666,28.803886 42.8904363,27.7089199 44.2424163,27.7089199 C45.5931399,27.7089199 46.6900531,28.803886 46.6900531,30.1562695" id="Fill-41"></path>
                        <path d="M46.6900531,23.0966265 C46.6900531,24.4477543 45.5931399,25.5439761 44.2424163,25.5439761 C42.8904363,25.5439761 41.7922666,24.4477543 41.7922666,23.0966265 C41.7922666,21.74801 42.8904363,20.6517883 44.2424163,20.6517883 C45.5931399,20.6517883 46.6900531,21.74801 46.6900531,23.0966265" id="Fill-43"></path>
                        <path d="M60.8132187,16.0418807 C60.8132187,17.3917528 59.717562,18.4879746 58.3655819,18.4879746 C57.0136019,18.4879746 55.9179452,17.3917528 55.9179452,16.0418807 C55.9179452,14.6894971 57.0136019,13.5920197 58.3655819,13.5920197 C59.717562,13.5920197 60.8132187,14.6894971 60.8132187,16.0418807" id="Fill-45"></path>
                        <path d="M60.8132187,23.0966265 C60.8132187,24.4477543 59.717562,25.5439761 58.3655819,25.5439761 C57.0136019,25.5439761 55.9179452,24.4477543 55.9179452,23.0966265 C55.9179452,21.74801 57.0136019,20.6517883 58.3655819,20.6517883 C59.717562,20.6517883 60.8132187,21.74801 60.8132187,23.0966265" id="Fill-47"></path>
                        <path d="M53.4301008,9.66408007 C53.4301008,11.0152079 52.3344441,12.110174 50.9824641,12.110174 C49.630484,12.110174 48.5335709,11.0152079 48.5335709,9.66408007 C48.5335709,8.31295222 49.630484,7.21673046 50.9824641,7.21673046 C52.3344441,7.21673046 53.4301008,8.31295222 53.4301008,9.66408007" id="Fill-49"></path>
                        <path d="M53.7541488,23.0966265 C53.7541488,24.4477543 52.6572357,25.5439761 51.3052556,25.5439761 C49.9520191,25.5439761 48.8563624,24.4477543 48.8563624,23.0966265 C48.8563624,21.74801 49.9520191,20.6517883 51.3052556,20.6517883 C52.6572357,20.6517883 53.7541488,21.74801 53.7541488,23.0966265" id="Fill-51"></path>
                        <path d="M46.6900531,37.5469137 C46.6900531,38.900553 45.5931399,39.9967747 44.2424163,39.9967747 C42.8904363,39.9967747 41.7922666,38.900553 41.7922666,37.5469137 C41.7922666,36.1982973 42.8904363,35.1008198 44.2424163,35.1008198 C45.5931399,35.1008198 46.6900531,36.1982973 46.6900531,37.5469137" id="Fill-53"></path>
                        <path d="M11.9734419,58.7196899 C11.9734419,60.0733291 10.8777852,61.1695509 9.52329219,61.1695509 C8.17131214,61.1695509 7.07439896,60.0733291 7.07439896,58.7196899 C7.07439896,57.3698177 8.17131214,56.2723403 9.52329219,56.2723403 C10.8777852,56.2723403 11.9734419,57.3698177 11.9734419,58.7196899" id="Fill-55"></path>
                        <path d="M18.925836,58.7196899 C18.925836,60.0733291 17.8289228,61.1695509 16.4781992,61.1695509 C15.1249627,61.1695509 14.026793,60.0733291 14.026793,58.7196899 C14.026793,57.3698177 15.1249627,56.2723403 16.4781992,56.2723403 C17.8289228,56.2723403 18.925836,57.3698177 18.925836,58.7196899" id="Fill-57"></path>
                        <path d="M32.8759833,58.7196899 C32.8759833,60.0733291 31.7803266,61.1695509 30.4245771,61.1695509 C29.072597,61.1695509 27.9781968,60.0733291 27.9781968,58.7196899 C27.9781968,57.3698177 29.072597,56.2723403 30.4245771,56.2723403 C31.7803266,56.2723403 32.8759833,57.3698177 32.8759833,58.7196899" id="Fill-59"></path>
                        <path d="M39.8885631,58.7196899 C39.8885631,60.0733291 38.7941629,61.1695509 37.4409264,61.1695509 C36.0889463,61.1695509 34.9907766,60.0733291 34.9907766,58.7196899 C34.9907766,57.3698177 36.0889463,56.2723403 37.4409264,56.2723403 C38.7941629,56.2723403 39.8885631,57.3698177 39.8885631,58.7196899" id="Fill-61"></path>
                        <path d="M39.675086,65.5180227 C39.675086,66.8691506 38.5794293,67.962861 37.2274492,67.962861 C35.8729562,67.962861 34.778556,66.8691506 34.778556,65.5180227 C34.778556,64.1656392 35.8729562,63.0719288 37.2274492,63.0719288 C38.5794293,63.0719288 39.675086,64.1656392 39.675086,65.5180227" id="Fill-63"></path>
                        <path d="M46.6900531,65.5180227 C46.6900531,66.8691506 45.5931399,67.962861 44.2424163,67.962861 C42.8879233,67.962861 41.7922666,66.8691506 41.7922666,65.5180227 C41.7922666,64.1656392 42.8879233,63.0719288 44.2424163,63.0719288 C45.5931399,63.0719288 46.6900531,64.1656392 46.6900531,65.5180227" id="Fill-65"></path>
                        <path d="M74.9388972,37.5469137 C74.9388972,38.900553 73.841984,39.9967747 72.4887475,39.9967747 C71.1392804,39.9967747 70.0411108,38.900553 70.0411108,37.5469137 C70.0411108,36.1982973 71.1392804,35.1008198 72.4887475,35.1008198 C73.841984,35.1008198 74.9388972,36.1982973 74.9388972,37.5469137" id="Fill-67"></path>
                        <path d="M74.9388972,50.878879 C74.9388972,52.2325182 73.841984,53.3274843 72.4887475,53.3274843 C71.1392804,53.3274843 70.0411108,52.2325182 70.0411108,50.878879 C70.0411108,49.5302625 71.1392804,48.4327851 72.4887475,48.4327851 C73.841984,48.4327851 74.9388972,49.5302625 74.9388972,50.878879" id="Fill-69"></path>
                        <path d="M68.1374072,37.5469137 C68.1374072,38.900553 67.0404941,39.9967747 65.6897705,39.9967747 C64.3377904,39.9967747 63.2421338,38.900553 63.2421338,37.5469137 C63.2421338,36.1982973 64.3377904,35.1008198 65.6897705,35.1008198 C67.0404941,35.1008198 68.1374072,36.1982973 68.1374072,37.5469137" id="Fill-71"></path>
                        <path d="M74.9388972,58.7196899 C74.9388972,60.0733291 73.841984,61.1695509 72.4887475,61.1695509 C71.1392804,61.1695509 70.0411108,60.0733291 70.0411108,58.7196899 C70.0411108,57.3698177 71.1392804,56.2723403 72.4887475,56.2723403 C73.841984,56.2723403 74.9388972,57.3698177 74.9388972,58.7196899" id="Fill-73"></path>
                        <path d="M74.7229071,65.5180227 C74.7229071,66.8691506 73.6272504,67.962861 72.2765268,67.962861 C70.9245468,67.962861 69.8263771,66.8691506 69.8263771,65.5180227 C69.8263771,64.1656392 70.9245468,63.0719288 72.2765268,63.0719288 C73.6272504,63.0719288 74.7229071,64.1656392 74.7229071,65.5180227" id="Fill-75"></path>
                        <path d="M68.4478852,65.5180227 C68.4478852,66.8691506 67.350972,67.962861 65.998992,67.962861 C64.6457554,67.962861 63.5488422,66.8691506 63.5488422,65.5180227 C63.5488422,64.1656392 64.6457554,63.0719288 65.998992,63.0719288 C67.350972,63.0719288 68.4478852,64.1656392 68.4478852,65.5180227" id="Fill-77"></path>
                        <path d="M60.8132187,65.5180227 C60.8132187,66.8691506 59.717562,67.962861 58.3655819,67.962861 C57.0136019,67.962861 55.9179452,66.8691506 55.9179452,65.5180227 C55.9179452,64.1656392 57.0136019,63.0719288 58.3655819,63.0719288 C59.717562,63.0719288 60.8132187,64.1656392 60.8132187,65.5180227" id="Fill-79"></path>
                        <path d="M11.9734419,51.6624327 C11.9734419,53.0135605 10.8777852,54.111038 9.52329219,54.111038 C8.17131214,54.111038 7.07439896,53.0135605 7.07439896,51.6624327 C7.07439896,50.3125605 8.17131214,49.2150831 9.52329219,49.2150831 C10.8777852,49.2150831 11.9734419,50.3125605 11.9734419,51.6624327" id="Fill-81"></path>
                        <path d="M18.925836,51.6624327 C18.925836,53.0135605 17.8289228,54.111038 16.4781992,54.111038 C15.1249627,54.111038 14.026793,53.0135605 14.026793,51.6624327 C14.026793,50.3125605 15.1249627,49.2150831 16.4781992,49.2150831 C17.8289228,49.2150831 18.925836,50.3125605 18.925836,51.6624327" id="Fill-83"></path>
                        <path d="M4.89715822,72.5015706 C4.89715822,73.8539542 3.80150153,74.9489202 2.45077796,74.9489202 C1.09502845,74.9489202 0.000628243517,73.8539542 0.000628243517,72.5015706 C0.000628243517,71.1479314 1.09502845,70.0529653 2.45077796,70.0529653 C3.80150153,70.0529653 4.89715822,71.1479314 4.89715822,72.5015706" id="Fill-85"></path>
                        <path d="M11.9734419,72.5015706 C11.9734419,73.8539542 10.8777852,74.9489202 9.52329219,74.9489202 C8.17131214,74.9489202 7.07439896,73.8539542 7.07439896,72.5015706 C7.07439896,71.1479314 8.17131214,70.0529653 9.52329219,70.0529653 C10.8777852,70.0529653 11.9734419,71.1479314 11.9734419,72.5015706" id="Fill-87"></path>
                        <path d="M18.925836,72.5015706 C18.925836,73.8539542 17.8289228,74.9489202 16.4781992,74.9489202 C15.1249627,74.9489202 14.026793,73.8539542 14.026793,72.5015706 C14.026793,71.1479314 15.1249627,70.0529653 16.4781992,70.0529653 C17.8289228,70.0529653 18.925836,71.1479314 18.925836,72.5015706" id="Fill-89"></path>
                        <path d="M11.9734419,65.4420532 C11.9734419,66.7944367 10.8777852,67.8906585 9.52329219,67.8906585 C8.17131214,67.8906585 7.07439896,66.7944367 7.07439896,65.4420532 C7.07439896,64.0896696 8.17131214,62.9959593 9.52329219,62.9959593 C10.8777852,62.9959593 11.9734419,64.0896696 11.9734419,65.4420532" id="Fill-91"></path>
                        <path d="M18.925836,65.4420532 C18.925836,66.7944367 17.8289228,67.8906585 16.4781992,67.8906585 C15.1249627,67.8906585 14.026793,66.7944367 14.026793,65.4420532 C14.026793,64.0896696 15.1249627,62.9959593 16.4781992,62.9959593 C17.8289228,62.9959593 18.925836,64.0896696 18.925836,65.4420532" id="Fill-93"></path>
                        <path d="M4.89715822,86.9531136 C4.89715822,88.3042414 3.80150153,89.3992075 2.45077796,89.3992075 C1.09502845,89.3992075 0.000628243517,88.3042414 0.000628243517,86.9531136 C0.000628243517,85.5994743 1.09502845,84.5070197 2.45077796,84.5070197 C3.80150153,84.5070197 4.89715822,85.5994743 4.89715822,86.9531136" id="Fill-95"></path>
                        <path d="M11.9734419,86.9531136 C11.9734419,88.3042414 10.8777852,89.3992075 9.52329219,89.3992075 C8.17131214,89.3992075 7.07439896,88.3042414 7.07439896,86.9531136 C7.07439896,85.5994743 8.17131214,84.5070197 9.52329219,84.5070197 C10.8777852,84.5070197 11.9734419,85.5994743 11.9734419,86.9531136" id="Fill-97"></path>
                        <path d="M18.925836,86.9531136 C18.925836,88.3042414 17.8289228,89.3992075 16.4781992,89.3992075 C15.1249627,89.3992075 14.026793,88.3042414 14.026793,86.9531136 C14.026793,85.5994743 15.1249627,84.5070197 16.4781992,84.5070197 C17.8289228,84.5070197 18.925836,85.5994743 18.925836,86.9531136" id="Fill-99"></path>
                        <path d="M4.89715822,79.8923404 C4.89715822,81.244724 3.80150153,82.3422014 2.45077796,82.3422014 C1.09502845,82.3422014 0.000628243517,81.244724 0.000628243517,79.8923404 C0.000628243517,78.5424683 1.09502845,77.4475022 2.45077796,77.4475022 C3.80150153,77.4475022 4.89715822,78.5424683 4.89715822,79.8923404" id="Fill-101"></path>
                        <path d="M11.9734419,79.8923404 C11.9734419,81.244724 10.8777852,82.3422014 9.52329219,82.3422014 C8.17131214,82.3422014 7.07439896,81.244724 7.07439896,79.8923404 C7.07439896,78.5424683 8.17131214,77.4475022 9.52329219,77.4475022 C10.8777852,77.4475022 11.9734419,78.5424683 11.9734419,79.8923404" id="Fill-103"></path>
                        <path d="M18.925836,79.8923404 C18.925836,81.244724 17.8289228,82.3422014 16.4781992,82.3422014 C15.1249627,82.3422014 14.026793,81.244724 14.026793,79.8923404 C14.026793,78.5424683 15.1249627,77.4475022 16.4781992,77.4475022 C17.8289228,77.4475022 18.925836,78.5424683 18.925836,79.8923404" id="Fill-105"></path>
                        <path d="M11.9734419,101.067502 C11.9734419,102.416119 10.8777852,103.512341 9.52329219,103.512341 C8.17131214,103.512341 7.07439896,102.416119 7.07439896,101.067502 C7.07439896,99.7151188 8.17131214,98.6214085 9.52329219,98.6214085 C10.8777852,98.6214085 11.9734419,99.7151188 11.9734419,101.067502" id="Fill-107"></path>
                        <path d="M18.925836,101.067502 C18.925836,102.416119 17.8289228,103.512341 16.4781992,103.512341 C15.1249627,103.512341 14.026793,102.416119 14.026793,101.067502 C14.026793,99.7151188 15.1249627,98.6214085 16.4781992,98.6214085 C17.8289228,98.6214085 18.925836,99.7151188 18.925836,101.067502" id="Fill-109"></path>
                        <path d="M11.9734419,94.0091151 C11.9734419,95.3577315 10.8777852,96.455209 9.52329219,96.455209 C8.17131214,96.455209 7.07439896,95.3577315 7.07439896,94.0091151 C7.07439896,92.6554758 8.17131214,91.5592541 9.52329219,91.5592541 C10.8777852,91.5592541 11.9734419,92.6554758 11.9734419,94.0091151" id="Fill-111"></path>
                        <path d="M18.925836,94.0091151 C18.925836,95.3577315 17.8289228,96.455209 16.4781992,96.455209 C15.1249627,96.455209 14.026793,95.3577315 14.026793,94.0091151 C14.026793,92.6554758 15.1249627,91.5592541 16.4781992,91.5592541 C17.8289228,91.5592541 18.925836,92.6554758 18.925836,94.0091151" id="Fill-113"></path>
                        <path d="M25.7236821,86.9531136 C25.7236821,88.3042414 24.6292819,89.3992075 23.2785584,89.3992075 C21.9253218,89.3992075 20.8284087,88.3042414 20.8284087,86.9531136 C20.8284087,85.5994743 21.9253218,84.5070197 23.2785584,84.5070197 C24.6292819,84.5070197 25.7236821,85.5994743 25.7236821,86.9531136" id="Fill-115"></path>
                        <path d="M31.485806,86.9531136 C31.485806,88.3042414 30.3914058,89.3992075 29.0381693,89.3992075 C27.6849328,89.3992075 26.5892761,88.3042414 26.5892761,86.9531136 C26.5892761,85.5994743 27.6849328,84.5070197 29.0381693,84.5070197 C30.3914058,84.5070197 31.485806,85.5994743 31.485806,86.9531136" id="Fill-117"></path>
                        <path d="M34.88586,108.124634 C34.88586,109.479529 33.7914598,110.571984 32.4369667,110.571984 C31.0849867,110.571984 29.98933,109.479529 29.98933,108.124634 C29.98933,106.773506 31.0849867,105.67854 32.4369667,105.67854 C33.7914598,105.67854 34.88586,106.773506 34.88586,108.124634" id="Fill-119"></path>
                        <path d="M25.7236821,79.8923404 C25.7236821,81.244724 24.6292819,82.3422014 23.2785584,82.3422014 C21.9253218,82.3422014 20.8284087,81.244724 20.8284087,79.8923404 C20.8284087,78.5424683 21.9253218,77.4475022 23.2785584,77.4475022 C24.6292819,77.4475022 25.7236821,78.5424683 25.7236821,79.8923404" id="Fill-121"></path>
                        <path d="M25.7236821,101.067502 C25.7236821,102.416119 24.6292819,103.512341 23.2785584,103.512341 C21.9253218,103.512341 20.8284087,102.416119 20.8284087,101.067502 C20.8284087,99.7151188 21.9253218,98.6214085 23.2785584,98.6214085 C24.6292819,98.6214085 25.7236821,99.7151188 25.7236821,101.067502" id="Fill-123"></path>
                        <path d="M25.7236821,94.0091151 C25.7236821,95.3577315 24.6292819,96.455209 23.2785584,96.455209 C21.9253218,96.455209 20.8284087,95.3577315 20.8284087,94.0091151 C20.8284087,92.6554758 21.9253218,91.5592541 23.2785584,91.5592541 C24.6292819,91.5592541 25.7236821,92.6554758 25.7236821,94.0091151" id="Fill-125"></path>
                        <path d="M11.9734419,107.264985 C11.9734419,108.617369 10.8777852,109.712335 9.52329219,109.712335 C8.17131214,109.712335 7.07439896,108.617369 7.07439896,107.264985 C7.07439896,105.911346 8.17131214,104.817636 9.52329219,104.817636 C10.8777852,104.817636 11.9734419,105.911346 11.9734419,107.264985" id="Fill-127"></path>
                        <path d="M18.925836,107.264985 C18.925836,108.617369 17.8289228,109.712335 16.4781992,109.712335 C15.1249627,109.712335 14.026793,108.617369 14.026793,107.264985 C14.026793,105.911346 15.1249627,104.817636 16.4781992,104.817636 C17.8289228,104.817636 18.925836,105.911346 18.925836,107.264985" id="Fill-129"></path>
                        <path d="M32.8759833,51.6624327 C32.8759833,53.0135605 31.7803266,54.111038 30.4245771,54.111038 C29.072597,54.111038 27.9781968,53.0135605 27.9781968,51.6624327 C27.9781968,50.3125605 29.072597,49.2150831 30.4245771,49.2150831 C31.7803266,49.2150831 32.8759833,50.3125605 32.8759833,51.6624327" id="Fill-131"></path>
                    </g>
                </g>
            </g>
        </g>
    </g>
</svg>