<?xml version="1.0" encoding="UTF-8"?>
<svg width="117px" height="97px" viewBox="0 0 117 97" version="1.1" xmlns="http://www.w3.org/2000/svg" xmlns:xlink="http://www.w3.org/1999/xlink">
    <!-- Generator: sketchtool 39.1 (31720) - http://www.bohemiancoding.com/sketch -->
    <title>DCEB6AC8-A7C3-481F-8CB5-4C14A89E894D</title>
    <desc>Created with sketchtool.</desc>
    <defs></defs>
    <g id="M2U-Planner" stroke="none" stroke-width="1" fill="none" fill-rule="evenodd">
        <g id="304_M2U_Solutions-Copy-14" transform="translate(-668.000000, -396.000000)">
            <g id="Group" transform="translate(213.000000, 284.000000)">
                <g id="Middle-East" transform="translate(455.000000, 112.000000)">
                    <g transform="translate(4.562472, 4.085791)" fill="#FFFFFF">
                        <path d="M4.53103533,8.79941903 C4.53103533,10.0508239 3.51572283,11.0596094 2.26575,11.0596094 C1.01577717,11.0596094 0.000464673913,10.0508239 0.000464673913,8.79941903 C0.000464673913,7.55033592 1.01577717,6.53806783 2.26575,6.53806783 C3.51572283,6.53806783 4.53103533,7.55033592 4.53103533,8.79941903" id="Fill-1"></path>
                        <path d="M10.9565462,8.79941903 C10.9565462,10.0508239 9.94471875,11.0596094 8.69474592,11.0596094 C7.44593478,11.0596094 6.43062228,10.0508239 6.43062228,8.79941903 C6.43062228,7.55033592 7.44593478,6.53806783 8.69474592,6.53806783 C9.94471875,6.53806783 10.9565462,7.55033592 10.9565462,8.79941903" id="Fill-3"></path>
                        <path d="M17.443394,2.26169946 C17.443394,3.51078257 16.4292432,4.52653324 15.1792704,4.52653324 C13.9292976,4.52653324 12.9174701,3.51078257 12.9174701,2.26169946 C12.9174701,1.01493807 13.9292976,0.000348257373 15.1792704,0.000348257373 C16.4292432,0.000348257373 17.443394,1.01493807 17.443394,2.26169946" id="Fill-5"></path>
                        <path d="M17.443394,8.79941903 C17.443394,10.0508239 16.4292432,11.0596094 15.1792704,11.0596094 C13.9292976,11.0596094 12.9174701,10.0508239 12.9174701,8.79941903 C12.9174701,7.55033592 13.9292976,6.53806783 15.1792704,6.53806783 C16.4292432,6.53806783 17.443394,7.55033592 17.443394,8.79941903" id="Fill-7"></path>
                        <path d="M23.9835632,2.26169946 C23.9835632,3.51078257 22.9694124,4.52653324 21.7217629,4.52653324 C20.4717901,4.52653324 19.4564776,3.51078257 19.4564776,2.26169946 C19.4564776,1.01493807 20.4717901,0.000348257373 21.7217629,0.000348257373 C22.9694124,0.000348257373 23.9835632,1.01493807 23.9835632,2.26169946" id="Fill-9"></path>
                        <path d="M23.9835632,8.79941903 C23.9835632,10.0508239 22.9694124,11.0596094 21.7217629,11.0596094 C20.4717901,11.0596094 19.4564776,10.0508239 19.4564776,8.79941903 C19.4564776,7.55033592 20.4717901,6.53806783 21.7217629,6.53806783 C22.9694124,6.53806783 23.9835632,7.55033592 23.9835632,8.79941903" id="Fill-11"></path>
                        <path d="M4.53103533,15.334933 C4.53103533,16.5851769 3.51572283,17.5997668 2.26575,17.5997668 C1.01577717,17.5997668 0.000464673913,16.5851769 0.000464673913,15.334933 C0.000464673913,14.0870107 1.01577717,13.0759035 2.26575,13.0759035 C3.51572283,13.0759035 4.53103533,14.0870107 4.53103533,15.334933" id="Fill-13"></path>
                        <path d="M10.9565462,15.334933 C10.9565462,16.5851769 9.94471875,17.5997668 8.69474592,17.5997668 C7.44593478,17.5997668 6.43062228,16.5851769 6.43062228,15.334933 C6.43062228,14.0870107 7.44593478,13.0759035 8.69474592,13.0759035 C9.94471875,13.0759035 10.9565462,14.0870107 10.9565462,15.334933" id="Fill-15"></path>
                        <path d="M17.443394,15.334933 C17.443394,16.5851769 16.4292432,17.5997668 15.1792704,17.5997668 C13.9292976,17.5997668 12.9174701,16.5851769 12.9174701,15.334933 C12.9174701,14.0870107 13.9292976,13.0759035 15.1792704,13.0759035 C16.4292432,13.0759035 17.443394,14.0870107 17.443394,15.334933" id="Fill-17"></path>
                        <path d="M23.9835632,15.334933 C23.9835632,16.5851769 22.9694124,17.5997668 21.7217629,17.5997668 C20.4717901,17.5997668 19.4564776,16.5851769 19.4564776,15.334933 C19.4564776,14.0870107 20.4717901,13.0759035 21.7217629,13.0759035 C22.9694124,13.0759035 23.9835632,14.0870107 23.9835632,15.334933" id="Fill-19"></path>
                        <path d="M43.4111148,27.9240887 C43.4111148,29.1731718 42.396964,30.1877617 41.1469912,30.1877617 C39.89818,30.1877617 38.8840292,29.1731718 38.8840292,27.9240887 C38.8840292,26.6761665 39.89818,25.6615767 41.1469912,25.6615767 C42.396964,25.6615767 43.4111148,26.6761665 43.4111148,27.9240887" id="Fill-21"></path>
                        <path d="M49.8401107,27.9240887 C49.8401107,29.1731718 48.8271216,30.1877617 47.5771488,30.1877617 C46.327176,30.1877617 45.3118635,29.1731718 45.3118635,27.9240887 C45.3118635,26.6761665 46.327176,25.6615767 47.5771488,25.6615767 C48.8271216,25.6615767 49.8401107,26.6761665 49.8401107,27.9240887" id="Fill-23"></path>
                        <path d="M43.4111148,21.7706131 C43.4111148,23.0196962 42.396964,24.0319643 41.1469912,24.0319643 C39.89818,24.0319643 38.8840292,23.0196962 38.8840292,21.7706131 C38.8840292,20.5192083 39.89818,19.5104228 41.1469912,19.5104228 C42.396964,19.5104228 43.4111148,20.5192083 43.4111148,21.7706131" id="Fill-25"></path>
                        <path d="M49.8401107,21.7706131 C49.8401107,23.0196962 48.8271216,24.0319643 47.5771488,24.0319643 C46.327176,24.0319643 45.3118635,23.0196962 45.3118635,21.7706131 C45.3118635,20.5192083 46.327176,19.5104228 47.5771488,19.5104228 C48.8271216,19.5104228 49.8401107,20.5192083 49.8401107,21.7706131" id="Fill-27"></path>
                        <path d="M43.4111148,15.2464756 C43.4111148,16.493237 42.396964,17.5078268 41.1469912,17.5078268 C39.89818,17.5078268 38.8840292,16.493237 38.8840292,15.2464756 C38.8840292,13.9973925 39.89818,12.9816418 41.1469912,12.9816418 C42.396964,12.9816418 43.4111148,13.9973925 43.4111148,15.2464756" id="Fill-29"></path>
                        <path d="M49.8401107,15.2464756 C49.8401107,16.493237 48.8271216,17.5078268 47.5771488,17.5078268 C46.327176,17.5078268 45.3118635,16.493237 45.3118635,15.2464756 C45.3118635,13.9973925 46.327176,12.9816418 47.5771488,12.9816418 C48.8271216,12.9816418 49.8401107,13.9973925 49.8401107,15.2464756" id="Fill-31"></path>
                        <path d="M37.0275408,27.9240887 C37.0275408,29.1731718 36.0157133,30.1877617 34.7645788,30.1877617 C33.514606,30.1877617 32.4992935,29.1731718 32.4992935,27.9240887 C32.4992935,26.6761665 33.514606,25.6615767 34.7645788,25.6615767 C36.0157133,25.6615767 37.0275408,26.6761665 37.0275408,27.9240887" id="Fill-33"></path>
                        <path d="M37.0275408,21.7706131 C37.0275408,23.0196962 36.0157133,24.0319643 34.7645788,24.0319643 C33.514606,24.0319643 32.4992935,23.0196962 32.4992935,21.7706131 C32.4992935,20.5192083 33.514606,19.5104228 34.7645788,19.5104228 C36.0157133,19.5104228 37.0275408,20.5192083 37.0275408,21.7706131" id="Fill-35"></path>
                        <path d="M43.4111148,41.0824131 C43.4111148,42.3326571 42.396964,43.3472469 41.1469912,43.3472469 C39.89818,43.3472469 38.8840292,42.3326571 38.8840292,41.0824131 C38.8840292,39.8356517 39.89818,38.8210619 41.1469912,38.8210619 C42.396964,38.8210619 43.4111148,39.8356517 43.4111148,41.0824131" id="Fill-37"></path>
                        <path d="M49.8401107,41.0824131 C49.8401107,42.3326571 48.8271216,43.3472469 47.5771488,43.3472469 C46.327176,43.3472469 45.3118635,42.3326571 45.3118635,41.0824131 C45.3118635,39.8356517 46.327176,38.8210619 47.5771488,38.8210619 C48.8271216,38.8210619 49.8401107,39.8356517 49.8401107,41.0824131" id="Fill-39"></path>
                        <path d="M43.4111148,34.9312592 C43.4111148,36.1780206 42.396964,37.1926105 41.1469912,37.1926105 C39.89818,37.1926105 38.8840292,36.1780206 38.8840292,34.9312592 C38.8840292,33.6786936 39.89818,32.6664255 41.1469912,32.6664255 C42.396964,32.6664255 43.4111148,33.6786936 43.4111148,34.9312592" id="Fill-41"></path>
                        <path d="M49.8401107,34.9312592 C49.8401107,36.1780206 48.8271216,37.1926105 47.5771488,37.1926105 C46.327176,37.1926105 45.3118635,36.1780206 45.3118635,34.9312592 C45.3118635,33.6786936 46.327176,32.6664255 47.5771488,32.6664255 C48.8271216,32.6664255 49.8401107,33.6786936 49.8401107,34.9312592" id="Fill-43"></path>
                        <path d="M37.0275408,41.0824131 C37.0275408,42.3326571 36.0157133,43.3472469 34.7645788,43.3472469 C33.514606,43.3472469 32.4992935,42.3326571 32.4992935,41.0824131 C32.4992935,39.8356517 33.514606,38.8210619 34.7645788,38.8210619 C36.0157133,38.8210619 37.0275408,39.8356517 37.0275408,41.0824131" id="Fill-45"></path>
                        <path d="M37.0275408,34.9312592 C37.0275408,36.1780206 36.0157133,37.1926105 34.7645788,37.1926105 C33.514606,37.1926105 32.4992935,36.1780206 32.4992935,34.9312592 C32.4992935,33.6786936 33.514606,32.6664255 34.7645788,32.6664255 C36.0157133,32.6664255 37.0275408,33.6786936 37.0275408,34.9312592" id="Fill-47"></path>
                        <path d="M43.4111148,54.0423469 C43.4111148,55.2902692 42.396964,56.3036981 41.1469912,56.3036981 C39.89818,56.3036981 38.8840292,55.2902692 38.8840292,54.0423469 C38.8840292,52.7909421 39.89818,51.7798349 41.1469912,51.7798349 C42.396964,51.7798349 43.4111148,52.7909421 43.4111148,54.0423469" id="Fill-49"></path>
                        <path d="M36.9742194,54.0423469 C36.9742194,55.2902692 35.9589069,56.3036981 34.7100958,56.3036981 C33.4577996,56.3036981 32.4448105,55.2902692 32.4448105,54.0423469 C32.4448105,52.7909421 33.4577996,51.7798349 34.7100958,51.7798349 C35.9589069,51.7798349 36.9742194,52.7909421 36.9742194,54.0423469" id="Fill-51"></path>
                        <path d="M49.8401107,54.0423469 C49.8401107,55.2902692 48.8271216,56.3036981 47.5771488,56.3036981 C46.327176,56.3036981 45.3118635,55.2902692 45.3118635,54.0423469 C45.3118635,52.7909421 46.327176,51.7798349 47.5771488,51.7798349 C48.8271216,51.7798349 49.8401107,52.7909421 49.8401107,54.0423469" id="Fill-53"></path>
                        <path d="M43.4111148,47.8853887 C43.4111148,49.1367936 42.396964,50.1513834 41.1469912,50.1513834 C39.89818,50.1513834 38.8840292,49.1367936 38.8840292,47.8853887 C38.8840292,46.6386273 39.89818,45.6251984 41.1469912,45.6251984 C42.396964,45.6251984 43.4111148,46.6386273 43.4111148,47.8853887" id="Fill-55"></path>
                        <path d="M49.8401107,47.8853887 C49.8401107,49.1367936 48.8271216,50.1513834 47.5771488,50.1513834 C46.327176,50.1513834 45.3118635,49.1367936 45.3118635,47.8853887 C45.3118635,46.6386273 46.327176,45.6251984 47.5771488,45.6251984 C48.8271216,45.6251984 49.8401107,46.6386273 49.8401107,47.8853887" id="Fill-57"></path>
                        <path d="M37.0275408,47.8853887 C37.0275408,49.1367936 36.0157133,50.1513834 34.7645788,50.1513834 C33.514606,50.1513834 32.4992935,49.1367936 32.4992935,47.8853887 C32.4992935,46.6386273 33.514606,45.6251984 34.7645788,45.6251984 C36.0157133,45.6251984 37.0275408,46.6386273 37.0275408,47.8853887" id="Fill-59"></path>
                        <path d="M30.2968553,47.8853887 C30.2968553,49.1367936 29.2838662,50.1513834 28.035055,50.1513834 C26.7839205,50.1513834 25.7697697,49.1367936 25.7697697,47.8853887 C25.7697697,46.6386273 26.7839205,45.6251984 28.035055,45.6251984 C29.2838662,45.6251984 30.2968553,46.6386273 30.2968553,47.8853887" id="Fill-61"></path>
                        <path d="M43.4111148,66.9081351 C43.4111148,68.1572182 42.396964,69.171808 41.1469912,69.171808 C39.89818,69.171808 38.8840292,68.1572182 38.8840292,66.9081351 C38.8840292,65.6602129 39.89818,64.6467839 41.1469912,64.6467839 C42.396964,64.6467839 43.4111148,65.6602129 43.4111148,66.9081351" id="Fill-63"></path>
                        <path d="M43.4111148,73.9128678 C43.4111148,75.1631118 42.396964,76.174219 41.1469912,76.174219 C39.89818,76.174219 38.8840292,75.1631118 38.8840292,73.9128678 C38.8840292,72.6626239 39.89818,71.6526775 41.1469912,71.6526775 C42.396964,71.6526775 43.4111148,72.6626239 43.4111148,73.9128678" id="Fill-65"></path>
                        <path d="M49.8401107,66.9081351 C49.8401107,68.1572182 48.8271216,69.171808 47.5771488,69.171808 C46.327176,69.171808 45.3118635,68.1572182 45.3118635,66.9081351 C45.3118635,65.6602129 46.327176,64.6467839 47.5771488,64.6467839 C48.8271216,64.6467839 49.8401107,65.6602129 49.8401107,66.9081351" id="Fill-67"></path>
                        <path d="M43.4111148,60.7523378 C43.4111148,62.0025818 42.396964,63.0183324 41.1469912,63.0183324 C39.89818,63.0183324 38.8840292,62.0025818 38.8840292,60.7523378 C38.8840292,59.5044155 39.89818,58.4921475 41.1469912,58.4921475 C42.396964,58.4921475 43.4111148,59.5044155 43.4111148,60.7523378" id="Fill-69"></path>
                        <path d="M49.8401107,60.7523378 C49.8401107,62.0025818 48.8271216,63.0183324 47.5771488,63.0183324 C46.327176,63.0183324 45.3118635,62.0025818 45.3118635,60.7523378 C45.3118635,59.5044155 46.327176,58.4921475 47.5771488,58.4921475 C48.8271216,58.4921475 49.8401107,59.5044155 49.8401107,60.7523378" id="Fill-71"></path>
                        <path d="M37.0275408,60.7523378 C37.0275408,62.0025818 36.0157133,63.0183324 34.7645788,63.0183324 C33.514606,63.0183324 32.4992935,62.0025818 32.4992935,60.7523378 C32.4992935,59.5044155 33.514606,58.4921475 34.7645788,58.4921475 C36.0157133,58.4921475 37.0275408,59.5044155 37.0275408,60.7523378" id="Fill-73"></path>
                        <path d="M37.0275408,15.2464756 C37.0275408,16.493237 36.0157133,17.5078268 34.7645788,17.5078268 C33.514606,17.5078268 32.4992935,16.493237 32.4992935,15.2464756 C32.4992935,13.9973925 33.514606,12.9816418 34.7645788,12.9816418 C36.0157133,12.9816418 37.0275408,13.9973925 37.0275408,15.2464756" id="Fill-75"></path>
                        <path d="M43.4111148,8.99560402 C43.4111148,10.2470088 42.396964,11.2581161 41.1469912,11.2581161 C39.89818,11.2581161 38.8840292,10.2470088 38.8840292,8.99560402 C38.8840292,7.74884263 39.89818,6.73425282 41.1469912,6.73425282 C42.396964,6.73425282 43.4111148,7.74884263 43.4111148,8.99560402" id="Fill-77"></path>
                        <path d="M49.8401107,8.99560402 C49.8401107,10.2470088 48.8271216,11.2581161 47.5771488,11.2581161 C46.327176,11.2581161 45.3118635,10.2470088 45.3118635,8.99560402 C45.3118635,7.74884263 46.327176,6.73425282 47.5771488,6.73425282 C48.8271216,6.73425282 49.8401107,7.74884263 49.8401107,8.99560402" id="Fill-79"></path>
                        <path d="M37.0275408,8.99560402 C37.0275408,10.2470088 36.0157133,11.2581161 34.7645788,11.2581161 C33.514606,11.2581161 32.4992935,10.2470088 32.4992935,8.99560402 C32.4992935,7.74884263 33.514606,6.73425282 34.7645788,6.73425282 C36.0157133,6.73425282 37.0275408,7.74884263 37.0275408,8.99560402" id="Fill-81"></path>
                        <path d="M30.5985448,40.4974568 C30.5985448,41.7488617 29.5855557,42.7599689 28.3367446,42.7599689 C27.0856101,42.7599689 26.0702976,41.7488617 26.0702976,40.4974568 C26.0702976,39.2495346 27.0856101,38.2372665 28.3367446,38.2372665 C29.5855557,38.2372665 30.5985448,39.2495346 30.5985448,40.4974568" id="Fill-83"></path>
                        <path d="M30.5985448,34.3439812 C30.5985448,35.5930643 29.5855557,36.6053324 28.3367446,36.6053324 C27.0856101,36.6053324 26.0702976,35.5930643 26.0702976,34.3439812 C26.0702976,33.096059 27.0856101,32.0861126 28.3367446,32.0861126 C29.5855557,32.0861126 30.5985448,33.096059 30.5985448,34.3439812" id="Fill-85"></path>
                        <path d="M30.5985448,27.8198437 C30.5985448,29.0689268 29.5855557,30.0835166 28.3367446,30.0835166 C27.0856101,30.0835166 26.0702976,29.0689268 26.0702976,27.8198437 C26.0702976,26.5695997 27.0856101,25.5550099 28.3367446,25.5550099 C29.5855557,25.5550099 30.5985448,26.5695997 30.5985448,27.8198437" id="Fill-87"></path>
                        <path d="M30.5985448,21.568856 C30.5985448,22.8191 29.5855557,23.8313681 28.3367446,23.8313681 C27.0856101,23.8313681 26.0702976,22.8191 26.0702976,21.568856 C26.0702976,20.3220946 27.0856101,19.3075048 28.3367446,19.3075048 C29.5855557,19.3075048 30.5985448,20.3220946 30.5985448,21.568856" id="Fill-89"></path>
                        <path d="M30.5985448,15.4143357 C30.5985448,16.6669013 29.5855557,17.6780086 28.3367446,17.6780086 C27.0856101,17.6780086 26.0702976,16.6669013 26.0702976,15.4143357 C26.0702976,14.1664134 27.0856101,13.1541453 28.3367446,13.1541453 C29.5855557,13.1541453 30.5985448,14.1664134 30.5985448,15.4143357" id="Fill-91"></path>
                        <path d="M30.5985448,8.8912429 C30.5985448,10.1391651 29.5855557,11.153755 28.3367446,11.153755 C27.0856101,11.153755 26.0702976,10.1391651 26.0702976,8.8912429 C26.0702976,7.64099893 27.0856101,6.62989169 28.3367446,6.62989169 C29.5855557,6.62989169 30.5985448,7.64099893 30.5985448,8.8912429" id="Fill-93"></path>
                        <path d="M107.660067,54.3223458 C107.660067,55.5691072 106.647077,56.5825362 105.394781,56.5825362 C104.14597,56.5825362 103.131819,55.5691072 103.131819,54.3223458 C103.131819,53.0686193 104.14597,52.0586729 105.394781,52.0586729 C106.647077,52.0586729 107.660067,53.0686193 107.660067,54.3223458" id="Fill-95"></path>
                        <path d="M68.8797758,28.6246665 C68.8797758,29.8749105 67.865625,30.8848568 66.6144905,30.8848568 C65.363356,30.8848568 64.3503668,29.8749105 64.3503668,28.6246665 C64.3503668,27.3744225 65.363356,26.3586718 66.6144905,26.3586718 C67.865625,26.3586718 68.8797758,27.3744225 68.8797758,28.6246665" id="Fill-97"></path>
                        <path d="M56.2612072,15.551433 C56.2612072,16.7981944 55.2482181,17.8127842 53.9994069,17.8127842 C52.7482724,17.8127842 51.7352833,16.7981944 51.7352833,15.551433 C51.7352833,14.3000282 52.7482724,13.2889209 53.9994069,13.2889209 C55.2482181,13.2889209 56.2612072,14.3000282 56.2612072,15.551433" id="Fill-99"></path>
                        <path d="M56.3269586,40.7910378 C56.3269586,42.0424426 55.3116461,43.0547107 54.0616732,43.0547107 C52.8105387,43.0547107 51.7987113,42.0424426 51.7987113,40.7910378 C51.7987113,39.5419547 52.8105387,38.5296866 54.0616732,38.5296866 C55.3116461,38.5296866 56.3269586,39.5419547 56.3269586,40.7910378" id="Fill-101"></path>
                        <path d="M56.3269586,34.6365174 C56.3269586,35.8844397 55.3116461,36.9001903 54.0616732,36.9001903 C52.8105387,36.9001903 51.7987113,35.8844397 51.7987113,34.6365174 C51.7987113,33.3862735 52.8105387,32.3751662 54.0616732,32.3751662 C55.3116461,32.3751662 56.3269586,33.3862735 56.3269586,34.6365174" id="Fill-103"></path>
                        <path d="M56.3269586,53.9482013 C56.3269586,55.1996062 55.3116461,56.2118743 54.0616732,56.2118743 C52.8105387,56.2118743 51.7987113,55.1996062 51.7987113,53.9482013 C51.7987113,52.6991182 52.8105387,51.688011 54.0616732,51.688011 C55.3116461,51.688011 56.3269586,52.6991182 56.3269586,53.9482013" id="Fill-105"></path>
                        <path d="M56.3269586,47.7970475 C56.3269586,49.0472914 55.3116461,50.0595595 54.0616732,50.0595595 C52.8105387,50.0595595 51.7987113,49.0472914 51.7987113,47.7970475 C51.7987113,46.5468035 52.8105387,45.5333745 54.0616732,45.5333745 C55.3116461,45.5333745 56.3269586,46.5468035 56.3269586,47.7970475" id="Fill-107"></path>
                        <path d="M56.3269586,66.9081351 C56.3269586,68.1572182 55.3116461,69.171808 54.0616732,69.171808 C52.8105387,69.171808 51.7987113,68.1572182 51.7987113,66.9081351 C51.7987113,65.6602129 52.8105387,64.6467839 54.0616732,64.6467839 C55.3116461,64.6467839 56.3269586,65.6602129 56.3269586,66.9081351" id="Fill-109"></path>
                        <path d="M56.3269586,73.6170812 C56.3269586,74.8661643 55.3116461,75.8795933 54.0616732,75.8795933 C52.8105387,75.8795933 51.7987113,74.8661643 51.7987113,73.6170812 C51.7987113,72.3668373 52.8105387,71.3534083 54.0616732,71.3534083 C55.3116461,71.3534083 56.3269586,72.3668373 56.3269586,73.6170812" id="Fill-111"></path>
                        <path d="M56.3269586,60.7523378 C56.3269586,62.0025818 55.3116461,63.0183324 54.0616732,63.0183324 C52.8105387,63.0183324 51.7987113,62.0025818 51.7987113,60.7523378 C51.7987113,59.5044155 52.8105387,58.4921475 54.0616732,58.4921475 C55.3116461,58.4921475 56.3269586,59.5044155 56.3269586,60.7523378" id="Fill-113"></path>
                        <path d="M56.3269586,28.1122638 C56.3269586,29.3625078 55.3116461,30.373615 54.0616732,30.373615 C52.8105387,30.373615 51.7987113,29.3625078 51.7987113,28.1122638 C51.7987113,26.8620198 52.8105387,25.8497517 54.0616732,25.8497517 C55.3116461,25.8497517 56.3269586,26.8620198 56.3269586,28.1122638" id="Fill-115"></path>
                        <path d="M56.3269586,21.8613922 C56.3269586,23.1116362 55.3116461,24.1250651 54.0616732,24.1250651 C52.8105387,24.1250651 51.7987113,23.1116362 51.7987113,21.8613922 C51.7987113,20.6123091 52.8105387,19.6012019 54.0616732,19.6012019 C55.3116461,19.6012019 56.3269586,20.6123091 56.3269586,21.8613922" id="Fill-117"></path>
                        <path d="M56.2612072,79.8815349 C56.2612072,81.1329397 55.2482181,82.1452078 53.9994069,82.1452078 C52.7482724,82.1452078 51.7352833,81.1329397 51.7352833,79.8815349 C51.7352833,78.63013 52.7482724,77.6190228 53.9994069,77.6190228 C55.2482181,77.6190228 56.2612072,78.63013 56.2612072,79.8815349" id="Fill-119"></path>
                        <path d="M49.5281984,73.6170812 C49.5281984,74.8661643 48.5128859,75.8795933 47.2652364,75.8795933 C46.0129402,75.8795933 44.9999511,74.8661643 44.9999511,73.6170812 C44.9999511,72.3668373 46.0129402,71.3534083 47.2652364,71.3534083 C48.5128859,71.3534083 49.5281984,72.3668373 49.5281984,73.6170812" id="Fill-121"></path>
                        <path d="M49.4623308,79.8815349 C49.4623308,81.1329397 48.4493417,82.1452078 47.2005306,82.1452078 C45.9528811,82.1452078 44.9364069,81.1329397 44.9364069,79.8815349 C44.9364069,78.63013 45.9528811,77.6190228 47.2005306,77.6190228 C48.4493417,77.6190228 49.4623308,78.63013 49.4623308,79.8815349" id="Fill-123"></path>
                        <path d="M62.7899918,22.0869469 C62.7899918,23.33603 61.7781644,24.3471373 60.5281916,24.3471373 C59.2782188,24.3471373 58.2640679,23.33603 58.2640679,22.0869469 C58.2640679,20.8367029 59.2782188,19.8255957 60.5281916,19.8255957 C61.7781644,19.8255957 62.7899918,20.8367029 62.7899918,22.0869469" id="Fill-125"></path>
                        <path d="M62.7899918,28.6246665 C62.7899918,29.8749105 61.7781644,30.8848568 60.5281916,30.8848568 C59.2782188,30.8848568 58.2640679,29.8749105 58.2640679,28.6246665 C58.2640679,27.3744225 59.2782188,26.3586718 60.5281916,26.3586718 C61.7781644,26.3586718 62.7899918,27.3744225 62.7899918,28.6246665" id="Fill-127"></path>
                        <path d="M68.8797758,34.8190043 C68.8797758,36.0657657 67.865625,37.0791946 66.6144905,37.0791946 C65.363356,37.0791946 64.3503668,36.0657657 64.3503668,34.8190043 C64.3503668,33.5687603 65.363356,32.5564922 66.6144905,32.5564922 C67.865625,32.5564922 68.8797758,33.5687603 68.8797758,34.8190043" id="Fill-129"></path>
                        <path d="M75.3064484,34.8190043 C75.3064484,36.0657657 74.2934592,37.0791946 73.0446481,37.0791946 C71.7935136,37.0791946 70.7793628,36.0657657 70.7793628,34.8190043 C70.7793628,33.5687603 71.7935136,32.5564922 73.0446481,32.5564922 C74.2934592,32.5564922 75.3064484,33.5687603 75.3064484,34.8190043" id="Fill-131"></path>
                        <path d="M75.3064484,41.3533574 C75.3064484,42.6047622 74.2934592,43.6181912 73.0446481,43.6181912 C71.7935136,43.6181912 70.7793628,42.6047622 70.7793628,41.3533574 C70.7793628,40.1054351 71.7935136,39.0920062 73.0446481,39.0920062 C74.2934592,39.0920062 75.3064484,40.1054351 75.3064484,41.3533574" id="Fill-133"></path>
                        <path d="M81.7921345,41.3533574 C81.7921345,42.6047622 80.7779837,43.6181912 79.5280109,43.6181912 C78.2768764,43.6181912 77.2650489,42.6047622 77.2650489,41.3533574 C77.2650489,40.1054351 78.2768764,39.0920062 79.5280109,39.0920062 C80.7779837,39.0920062 81.7921345,40.1054351 81.7921345,41.3533574" id="Fill-135"></path>
                        <path d="M75.3064484,47.8808614 C75.3064484,49.1299445 74.2934592,50.1433735 73.0446481,50.1433735 C71.7935136,50.1433735 70.7793628,49.1299445 70.7793628,47.8808614 C70.7793628,46.6317783 71.7935136,45.6183493 73.0446481,45.6183493 C74.2934592,45.6183493 75.3064484,46.6317783 75.3064484,47.8808614" id="Fill-137"></path>
                        <path d="M81.7921345,47.8808614 C81.7921345,49.1299445 80.7779837,50.1433735 79.5280109,50.1433735 C78.2768764,50.1433735 77.2650489,49.1299445 77.2650489,47.8808614 C77.2650489,46.6317783 78.2768764,45.6183493 79.5280109,45.6183493 C80.7779837,45.6183493 81.7921345,46.6317783 81.7921345,47.8808614" id="Fill-139"></path>
                        <path d="M101.231071,54.6057113 C101.231071,55.8547944 100.21692,56.8682233 98.9657853,56.8682233 C97.7146508,56.8682233 96.7005,55.8547944 96.7005,54.6057113 C96.7005,53.3543064 97.7146508,52.3443601 98.9657853,52.3443601 C100.21692,52.3443601 101.231071,53.3543064 101.231071,54.6057113" id="Fill-141"></path>
                        <path d="M94.7623451,54.6057113 C94.7623451,55.8547944 93.7481943,56.8682233 92.4993832,56.8682233 C91.250572,56.8682233 90.2352595,55.8547944 90.2352595,54.6057113 C90.2352595,53.3543064 91.250572,52.3443601 92.4993832,52.3443601 C93.7481943,52.3443601 94.7623451,53.3543064 94.7623451,54.6057113" id="Fill-143"></path>
                        <path d="M68.8797758,61.0629834 C68.8797758,62.3132273 67.865625,63.3278172 66.6144905,63.3278172 C65.363356,63.3278172 64.3503668,62.3132273 64.3503668,61.0629834 C64.3503668,59.816222 65.363356,58.802793 66.6144905,58.802793 C67.865625,58.802793 68.8797758,59.816222 68.8797758,61.0629834" id="Fill-145"></path>
                        <path d="M68.8797758,67.6018638 C68.8797758,68.8521078 67.865625,69.863215 66.6144905,69.863215 C65.363356,69.863215 64.3503668,68.8521078 64.3503668,67.6018638 C64.3503668,66.3516198 65.363356,65.3393517 66.6144905,65.3393517 C67.865625,65.3393517 68.8797758,66.3516198 68.8797758,67.6018638" id="Fill-147"></path>
                        <path d="M68.8797758,74.1373777 C68.8797758,75.3876217 67.865625,76.398729 66.6144905,76.398729 C65.363356,76.398729 64.3503668,75.3876217 64.3503668,74.1373777 C64.3503668,72.8848121 65.363356,71.8748657 66.6144905,71.8748657 C67.865625,71.8748657 68.8797758,72.8848121 68.8797758,74.1373777" id="Fill-149"></path>
                        <path d="M68.8797758,80.6750973 C68.8797758,81.9206979 67.865625,82.9364485 66.6144905,82.9364485 C65.363356,82.9364485 64.3503668,81.9206979 64.3503668,80.6750973 C64.3503668,79.4236925 65.363356,78.4102635 66.6144905,78.4102635 C67.865625,78.4102635 68.8797758,79.4236925 68.8797758,80.6750973" id="Fill-151"></path>
                        <path d="M68.8797758,86.8682743 C68.8797758,88.1161965 67.865625,89.1307863 66.6144905,89.1307863 C65.363356,89.1307863 64.3503668,88.1161965 64.3503668,86.8682743 C64.3503668,85.6180303 65.363356,84.6069231 66.6144905,84.6069231 C67.865625,84.6069231 68.8797758,85.6180303 68.8797758,86.8682743" id="Fill-153"></path>
                        <path d="M68.8797758,54.8460088 C68.8797758,56.0962528 67.865625,57.1096818 66.6144905,57.1096818 C65.363356,57.1096818 64.3503668,56.0962528 64.3503668,54.8460088 C64.3503668,53.5969257 65.363356,52.5846576 66.6144905,52.5846576 C67.865625,52.5846576 68.8797758,53.5969257 68.8797758,54.8460088" id="Fill-155"></path>
                        <path d="M62.7899918,61.121955 C62.7899918,62.3710381 61.7781644,63.3856279 60.5281916,63.3856279 C59.2782188,63.3856279 58.2640679,62.3710381 58.2640679,61.121955 C58.2640679,59.871711 59.2782188,58.8617646 60.5281916,58.8617646 C61.7781644,58.8617646 62.7899918,59.871711 62.7899918,61.121955" id="Fill-157"></path>
                        <path d="M62.7899918,67.6585137 C62.7899918,68.9075968 61.7781644,69.9210257 60.5281916,69.9210257 C59.2782188,69.9210257 58.2640679,68.9075968 58.2640679,67.6585137 C58.2640679,66.4082697 59.2782188,65.3971625 60.5281916,65.3971625 C61.7781644,65.3971625 62.7899918,66.4082697 62.7899918,67.6585137" id="Fill-159"></path>
                        <path d="M62.7899918,74.1940276 C62.7899918,75.4442716 61.7781644,76.454218 60.5281916,76.454218 C59.2782188,76.454218 58.2640679,75.4442716 58.2640679,74.1940276 C58.2640679,72.9461054 59.2782188,71.9349981 60.5281916,71.9349981 C61.7781644,71.9349981 62.7899918,72.9461054 62.7899918,74.1940276" id="Fill-161"></path>
                        <path d="M62.7899918,80.7318633 C62.7899918,81.9821072 61.7781644,82.9943753 60.5281916,82.9943753 C59.2782188,82.9943753 58.2640679,81.9821072 58.2640679,80.7318633 C58.2640679,79.4804584 59.2782188,78.4693512 60.5281916,78.4693512 C61.7781644,78.4693512 62.7899918,79.4804584 62.7899918,80.7318633" id="Fill-163"></path>
                        <path d="M56.2612072,86.3173311 C56.2612072,87.5652534 55.2482181,88.5751997 53.9994069,88.5751997 C52.7482724,88.5751997 51.7352833,87.5652534 51.7352833,86.3173311 C51.7352833,85.068248 52.7482724,84.0524973 53.9994069,84.0524973 C55.2482181,84.0524973 56.2612072,85.068248 56.2612072,86.3173311" id="Fill-165"></path>
                        <path d="M62.7899918,87.1653378 C62.7899918,88.4120992 61.7781644,89.426689 60.5281916,89.426689 C59.2782188,89.426689 58.2640679,88.4120992 58.2640679,87.1653378 C58.2640679,85.913933 59.2782188,84.8993432 60.5281916,84.8993432 C61.7781644,84.8993432 62.7899918,85.913933 62.7899918,87.1653378" id="Fill-167"></path>
                        <path d="M81.7547283,61.0629834 C81.7547283,62.3132273 80.7417391,63.3278172 79.4882813,63.3278172 C78.2394701,63.3278172 77.226481,62.3132273 77.226481,61.0629834 C77.226481,59.816222 78.2394701,58.802793 79.4882813,58.802793 C80.7417391,58.802793 81.7547283,59.816222 81.7547283,61.0629834" id="Fill-169"></path>
                        <path d="M81.7547283,67.6018638 C81.7547283,68.8521078 80.7417391,69.863215 79.4882813,69.863215 C78.2394701,69.863215 77.226481,68.8521078 77.226481,67.6018638 C77.226481,66.3516198 78.2394701,65.3393517 79.4882813,65.3393517 C80.7417391,65.3393517 81.7547283,66.3516198 81.7547283,67.6018638" id="Fill-171"></path>
                        <path d="M81.7547283,74.1373777 C81.7547283,75.3876217 80.7417391,76.398729 79.4882813,76.398729 C78.2394701,76.398729 77.226481,75.3876217 77.226481,74.1373777 C77.226481,72.8848121 78.2394701,71.8748657 79.4882813,71.8748657 C80.7417391,71.8748657 81.7547283,72.8848121 81.7547283,74.1373777" id="Fill-173"></path>
                        <path d="M81.7547283,80.6750973 C81.7547283,81.9206979 80.7417391,82.9364485 79.4882813,82.9364485 C78.2394701,82.9364485 77.226481,81.9206979 77.226481,80.6750973 C77.226481,79.4236925 78.2394701,78.4102635 79.4882813,78.4102635 C80.7417391,78.4102635 81.7547283,79.4236925 81.7547283,80.6750973" id="Fill-175"></path>
                        <path d="M81.7547283,86.8682743 C81.7547283,88.1161965 80.7417391,89.1307863 79.4882813,89.1307863 C78.2394701,89.1307863 77.226481,88.1161965 77.226481,86.8682743 C77.226481,85.6180303 78.2394701,84.6069231 79.4882813,84.6069231 C80.7417391,84.6069231 81.7547283,85.6180303 81.7547283,86.8682743" id="Fill-177"></path>
                        <path d="M75.6671515,61.121955 C75.6671515,62.3710381 74.655324,63.3856279 73.4041895,63.3856279 C72.1542167,63.3856279 71.1400659,62.3710381 71.1400659,61.121955 C71.1400659,59.871711 72.1542167,58.8617646 73.4041895,58.8617646 C74.655324,58.8617646 75.6671515,59.871711 75.6671515,61.121955" id="Fill-179"></path>
                        <path d="M75.6671515,67.6585137 C75.6671515,68.9075968 74.655324,69.9210257 73.4041895,69.9210257 C72.1542167,69.9210257 71.1400659,68.9075968 71.1400659,67.6585137 C71.1400659,66.4082697 72.1542167,65.3971625 73.4041895,65.3971625 C74.655324,65.3971625 75.6671515,66.4082697 75.6671515,67.6585137" id="Fill-181"></path>
                        <path d="M75.6671515,74.1940276 C75.6671515,75.4442716 74.655324,76.454218 73.4041895,76.454218 C72.1542167,76.454218 71.1400659,75.4442716 71.1400659,74.1940276 C71.1400659,72.9461054 72.1542167,71.9349981 73.4041895,71.9349981 C74.655324,71.9349981 75.6671515,72.9461054 75.6671515,74.1940276" id="Fill-183"></path>
                        <path d="M75.6671515,80.7318633 C75.6671515,81.9821072 74.655324,82.9943753 73.4041895,82.9943753 C72.1542167,82.9943753 71.1400659,81.9821072 71.1400659,80.7318633 C71.1400659,79.4804584 72.1542167,78.4693512 73.4041895,78.4693512 C74.655324,78.4693512 75.6671515,79.4804584 75.6671515,80.7318633" id="Fill-185"></path>
                        <path d="M94.9201019,67.6018638 C94.9201019,68.8521078 93.9082745,69.863215 92.6583016,69.863215 C91.4071671,69.863215 90.394178,68.8521078 90.394178,67.6018638 C90.394178,66.3516198 91.4071671,65.3393517 92.6583016,65.3393517 C93.9082745,65.3393517 94.9201019,66.3516198 94.9201019,67.6018638" id="Fill-187"></path>
                        <path d="M94.9201019,74.1373777 C94.9201019,75.3876217 93.9082745,76.398729 92.6583016,76.398729 C91.4071671,76.398729 90.394178,75.3876217 90.394178,74.1373777 C90.394178,72.8848121 91.4071671,71.8748657 92.6583016,71.8748657 C93.9082745,71.8748657 94.9201019,72.8848121 94.9201019,74.1373777" id="Fill-189"></path>
                        <path d="M88.8348485,67.6585137 C88.8348485,68.9075968 87.8206977,69.9210257 86.5718865,69.9210257 C85.3230754,69.9210257 84.3077629,68.9075968 84.3077629,67.6585137 C84.3077629,66.4082697 85.3230754,65.3971625 86.5718865,65.3971625 C87.8206977,65.3971625 88.8348485,66.4082697 88.8348485,67.6585137" id="Fill-191"></path>
                        <path d="M94.9201019,60.9882241 C94.9201019,62.2361464 93.9082745,63.2518971 92.6583016,63.2518971 C91.4071671,63.2518971 90.394178,62.2361464 90.394178,60.9882241 C90.394178,59.7414627 91.4071671,58.7280338 92.6583016,58.7280338 C93.9082745,58.7280338 94.9201019,59.7414627 94.9201019,60.9882241" id="Fill-193"></path>
                        <path d="M88.8348485,61.0460349 C88.8348485,62.2974397 87.8206977,63.3097078 86.5718865,63.3097078 C85.3230754,63.3097078 84.3077629,62.2974397 84.3077629,61.0460349 C84.3077629,59.7992735 85.3230754,58.7846836 86.5718865,58.7846836 C87.8206977,58.7846836 88.8348485,59.7992735 88.8348485,61.0460349" id="Fill-195"></path>
                        <path d="M88.8348485,54.3223458 C88.8348485,55.5691072 87.8206977,56.5825362 86.5718865,56.5825362 C85.3230754,56.5825362 84.3077629,55.5691072 84.3077629,54.3223458 C84.3077629,53.0686193 85.3230754,52.0586729 86.5718865,52.0586729 C87.8206977,52.0586729 88.8348485,53.0686193 88.8348485,54.3223458" id="Fill-197"></path>
                        <path d="M88.8348485,74.1940276 C88.8348485,75.4442716 87.8206977,76.454218 86.5718865,76.454218 C85.3230754,76.454218 84.3077629,75.4442716 84.3077629,74.1940276 C84.3077629,72.9461054 85.3230754,71.9349981 86.5718865,71.9349981 C87.8206977,71.9349981 88.8348485,72.9461054 88.8348485,74.1940276" id="Fill-199"></path>
                        <path d="M88.8348485,80.7318633 C88.8348485,81.9821072 87.8206977,82.9943753 86.5718865,82.9943753 C85.3230754,82.9943753 84.3077629,81.9821072 84.3077629,80.7318633 C84.3077629,79.4804584 85.3230754,78.4693512 86.5718865,78.4693512 C87.8206977,78.4693512 88.8348485,79.4804584 88.8348485,80.7318633" id="Fill-201"></path>
                        <path d="M75.6671515,87.1653378 C75.6671515,88.4120992 74.655324,89.426689 73.4041895,89.426689 C72.1542167,89.426689 71.1400659,88.4120992 71.1400659,87.1653378 C71.1400659,85.913933 72.1542167,84.8993432 73.4041895,84.8993432 C74.655324,84.8993432 75.6671515,85.913933 75.6671515,87.1653378" id="Fill-203"></path>
                        <path d="M62.7899918,48.3694665 C62.7899918,49.6162279 61.7781644,50.6296568 60.5281916,50.6296568 C59.2782188,50.6296568 58.2640679,49.6162279 58.2640679,48.3694665 C58.2640679,47.1180617 59.2782188,46.1069544 60.5281916,46.1069544 C61.7781644,46.1069544 62.7899918,47.1180617 62.7899918,48.3694665" id="Fill-205"></path>
                        <path d="M62.7899918,54.9038196 C62.7899918,56.1540635 61.7781644,57.1686534 60.5281916,57.1686534 C59.2782188,57.1686534 58.2640679,56.1540635 58.2640679,54.9038196 C58.2640679,53.6558973 59.2782188,52.6413075 60.5281916,52.6413075 C61.7781644,52.6413075 62.7899918,53.6558973 62.7899918,54.9038196" id="Fill-207"></path>
                        <path d="M62.6333967,35.0219223 C62.6333967,36.2698445 61.6204076,37.2844343 60.3681114,37.2844343 C59.1181386,37.2844343 58.1063111,36.2698445 58.1063111,35.0219223 C58.1063111,33.7728391 59.1181386,32.7582493 60.3681114,32.7582493 C61.6204076,32.7582493 62.6333967,33.7728391 62.6333967,35.0219223" id="Fill-209"></path>
                        <path d="M62.7899918,41.558481 C62.7899918,42.8087249 61.7781644,43.8198322 60.5281916,43.8198322 C59.2782188,43.8198322 58.2640679,42.8087249 58.2640679,41.558481 C58.2640679,40.3070761 59.2782188,39.294808 60.5281916,39.294808 C61.7781644,39.294808 62.7899918,40.3070761 62.7899918,41.558481" id="Fill-211"></path>
                    </g>
                    <g transform="translate(0.515561, 0.711724)" fill="#389A6E">
                        <path d="M4.8710685,9.4597746 C4.8710685,10.8050915 3.77956151,11.8895817 2.43578402,11.8895817 C1.09200654,11.8895817 0.000499545534,10.8050915 0.000499545534,9.4597746 C0.000499545534,8.1169536 1.09200654,7.02871948 2.43578402,7.02871948 C3.77956151,7.02871948 4.8710685,8.1169536 4.8710685,9.4597746" id="Fill-1"></path>
                        <path d="M11.7787841,9.4597746 C11.7787841,10.8050915 10.6910237,11.8895817 9.34724625,11.8895817 C8.00471763,11.8895817 6.91321064,10.8050915 6.91321064,9.4597746 C6.91321064,8.1169536 8.00471763,7.02871948 9.34724625,7.02871948 C10.6910237,7.02871948 11.7787841,8.1169536 11.7787841,9.4597746" id="Fill-3"></path>
                        <path d="M18.7524398,2.43142951 C18.7524398,3.77425051 17.6621817,4.86622856 16.3184042,4.86622856 C14.9746267,4.86622856 13.8868663,3.77425051 13.8868663,2.43142951 C13.8868663,1.09110446 14.9746267,0.000374392473 16.3184042,0.000374392473 C17.6621817,0.000374392473 18.7524398,1.09110446 18.7524398,2.43142951" id="Fill-5"></path>
                        <path d="M18.7524398,9.4597746 C18.7524398,10.8050915 17.6621817,11.8895817 16.3184042,11.8895817 C14.9746267,11.8895817 13.8868663,10.8050915 13.8868663,9.4597746 C13.8868663,8.1169536 14.9746267,7.02871948 16.3184042,7.02871948 C17.6621817,7.02871948 18.7524398,8.1169536 18.7524398,9.4597746" id="Fill-7"></path>
                        <path d="M25.7834183,2.43142951 C25.7834183,3.77425051 24.6931602,4.86622856 23.3518804,4.86622856 C22.0081029,4.86622856 20.9165959,3.77425051 20.9165959,2.43142951 C20.9165959,1.09110446 22.0081029,0.000374392473 23.3518804,0.000374392473 C24.6931602,0.000374392473 25.7834183,1.09110446 25.7834183,2.43142951" id="Fill-9"></path>
                        <path d="M25.7834183,9.4597746 C25.7834183,10.8050915 24.6931602,11.8895817 23.3518804,11.8895817 C22.0081029,11.8895817 20.9165959,10.8050915 20.9165959,9.4597746 C20.9165959,8.1169536 22.0081029,7.02871948 23.3518804,7.02871948 C24.6931602,7.02871948 25.7834183,8.1169536 25.7834183,9.4597746" id="Fill-11"></path>
                        <path d="M4.8710685,16.4857485 C4.8710685,17.8298175 3.77956151,18.9205476 2.43578402,18.9205476 C1.09200654,18.9205476 0.000499545534,17.8298175 0.000499545534,16.4857485 C0.000499545534,15.1441755 1.09200654,14.0571894 2.43578402,14.0571894 C3.77956151,14.0571894 4.8710685,15.1441755 4.8710685,16.4857485" id="Fill-13"></path>
                        <path d="M11.7787841,16.4857485 C11.7787841,17.8298175 10.6910237,18.9205476 9.34724625,18.9205476 C8.00471763,18.9205476 6.91321064,17.8298175 6.91321064,16.4857485 C6.91321064,15.1441755 8.00471763,14.0571894 9.34724625,14.0571894 C10.6910237,14.0571894 11.7787841,15.1441755 11.7787841,16.4857485" id="Fill-15"></path>
                        <path d="M18.7524398,16.4857485 C18.7524398,17.8298175 17.6621817,18.9205476 16.3184042,18.9205476 C14.9746267,18.9205476 13.8868663,17.8298175 13.8868663,16.4857485 C13.8868663,15.1441755 14.9746267,14.0571894 16.3184042,14.0571894 C17.6621817,14.0571894 18.7524398,15.1441755 18.7524398,16.4857485" id="Fill-17"></path>
                        <path d="M25.7834183,16.4857485 C25.7834183,17.8298175 24.6931602,18.9205476 23.3518804,18.9205476 C22.0081029,18.9205476 20.9165959,17.8298175 20.9165959,16.4857485 C20.9165959,15.1441755 22.0081029,14.0571894 23.3518804,14.0571894 C24.6931602,14.0571894 25.7834183,15.1441755 25.7834183,16.4857485" id="Fill-19"></path>
                        <path d="M46.6689175,30.019662 C46.6689175,31.362483 45.5786594,32.4532131 44.2348819,32.4532131 C42.8923533,32.4532131 41.8020952,31.362483 41.8020952,30.019662 C41.8020952,28.678089 42.8923533,27.5873589 44.2348819,27.5873589 C45.5786594,27.5873589 46.6689175,28.678089 46.6689175,30.019662" id="Fill-21"></path>
                        <path d="M53.5803797,30.019662 C53.5803797,31.362483 52.4913705,32.4532131 51.147593,32.4532131 C49.8038155,32.4532131 48.7123085,31.362483 48.7123085,30.019662 C48.7123085,28.678089 49.8038155,27.5873589 51.147593,27.5873589 C52.4913705,27.5873589 53.5803797,28.678089 53.5803797,30.019662" id="Fill-23"></path>
                        <path d="M46.6689175,23.4043966 C46.6689175,24.7472176 45.5786594,25.8354517 44.2348819,25.8354517 C42.8923533,25.8354517 41.8020952,24.7472176 41.8020952,23.4043966 C41.8020952,22.0590797 42.8923533,20.9745895 44.2348819,20.9745895 C45.5786594,20.9745895 46.6689175,22.0590797 46.6689175,23.4043966" id="Fill-25"></path>
                        <path d="M53.5803797,23.4043966 C53.5803797,24.7472176 52.4913705,25.8354517 51.147593,25.8354517 C49.8038155,25.8354517 48.7123085,24.7472176 48.7123085,23.4043966 C48.7123085,22.0590797 49.8038155,20.9745895 51.147593,20.9745895 C52.4913705,20.9745895 53.5803797,22.0590797 53.5803797,23.4043966" id="Fill-27"></path>
                        <path d="M46.6689175,16.3906528 C46.6689175,17.7309779 45.5786594,18.821708 44.2348819,18.821708 C42.8923533,18.821708 41.8020952,17.7309779 41.8020952,16.3906528 C41.8020952,15.0478318 42.8923533,13.9558538 44.2348819,13.9558538 C45.5786594,13.9558538 46.6689175,15.0478318 46.6689175,16.3906528" id="Fill-29"></path>
                        <path d="M53.5803797,16.3906528 C53.5803797,17.7309779 52.4913705,18.821708 51.147593,18.821708 C49.8038155,18.821708 48.7123085,17.7309779 48.7123085,16.3906528 C48.7123085,15.0478318 49.8038155,13.9558538 51.147593,13.9558538 C52.4913705,13.9558538 53.5803797,15.0478318 53.5803797,16.3906528" id="Fill-31"></path>
                        <path d="M39.8062859,30.019662 C39.8062859,31.362483 38.7185255,32.4532131 37.3734991,32.4532131 C36.0297216,32.4532131 34.9382146,31.362483 34.9382146,30.019662 C34.9382146,28.678089 36.0297216,27.5873589 37.3734991,27.5873589 C38.7185255,27.5873589 39.8062859,28.678089 39.8062859,30.019662" id="Fill-33"></path>
                        <path d="M39.8062859,23.4043966 C39.8062859,24.7472176 38.7185255,25.8354517 37.3734991,25.8354517 C36.0297216,25.8354517 34.9382146,24.7472176 34.9382146,23.4043966 C34.9382146,22.0590797 36.0297216,20.9745895 37.3734991,20.9745895 C38.7185255,20.9745895 39.8062859,22.0590797 39.8062859,23.4043966" id="Fill-35"></path>
                        <path d="M46.6689175,44.1654576 C46.6689175,45.5095266 45.5786594,46.6002566 44.2348819,46.6002566 C42.8923533,46.6002566 41.8020952,45.5095266 41.8020952,44.1654576 C41.8020952,42.8251325 42.8923533,41.7344025 44.2348819,41.7344025 C45.5786594,41.7344025 46.6689175,42.8251325 46.6689175,44.1654576" id="Fill-37"></path>
                        <path d="M53.5803797,44.1654576 C53.5803797,45.5095266 52.4913705,46.6002566 51.147593,46.6002566 C49.8038155,46.6002566 48.7123085,45.5095266 48.7123085,44.1654576 C48.7123085,42.8251325 49.8038155,41.7344025 51.147593,41.7344025 C52.4913705,41.7344025 53.5803797,42.8251325 53.5803797,44.1654576" id="Fill-39"></path>
                        <path d="M46.6689175,37.5526881 C46.6689175,38.8930132 45.5786594,39.9837433 44.2348819,39.9837433 C42.8923533,39.9837433 41.8020952,38.8930132 41.8020952,37.5526881 C41.8020952,36.2061232 42.8923533,35.1178891 44.2348819,35.1178891 C45.5786594,35.1178891 46.6689175,36.2061232 46.6689175,37.5526881" id="Fill-41"></path>
                        <path d="M53.5803797,37.5526881 C53.5803797,38.8930132 52.4913705,39.9837433 51.147593,39.9837433 C49.8038155,39.9837433 48.7123085,38.8930132 48.7123085,37.5526881 C48.7123085,36.2061232 49.8038155,35.1178891 51.147593,35.1178891 C52.4913705,35.1178891 53.5803797,36.2061232 53.5803797,37.5526881" id="Fill-43"></path>
                        <path d="M39.8062859,44.1654576 C39.8062859,45.5095266 38.7185255,46.6002566 37.3734991,46.6002566 C36.0297216,46.6002566 34.9382146,45.5095266 34.9382146,44.1654576 C34.9382146,42.8251325 36.0297216,41.7344025 37.3734991,41.7344025 C38.7185255,41.7344025 39.8062859,42.8251325 39.8062859,44.1654576" id="Fill-45"></path>
                        <path d="M39.8062859,37.5526881 C39.8062859,38.8930132 38.7185255,39.9837433 37.3734991,39.9837433 C36.0297216,39.9837433 34.9382146,38.8930132 34.9382146,37.5526881 C34.9382146,36.2061232 36.0297216,35.1178891 37.3734991,35.1178891 C38.7185255,35.1178891 39.8062859,36.2061232 39.8062859,37.5526881" id="Fill-47"></path>
                        <path d="M46.6689175,58.0979743 C46.6689175,59.4395473 45.5786594,60.5290294 44.2348819,60.5290294 C42.8923533,60.5290294 41.8020952,59.4395473 41.8020952,58.0979743 C41.8020952,56.7526573 42.8923533,55.6656712 44.2348819,55.6656712 C45.5786594,55.6656712 46.6689175,56.7526573 46.6689175,58.0979743" id="Fill-49"></path>
                        <path d="M39.748963,58.0979743 C39.748963,59.4395473 38.657456,60.5290294 37.3149274,60.5290294 C35.9686522,60.5290294 34.8796429,59.4395473 34.8796429,58.0979743 C34.8796429,56.7526573 35.9686522,55.6656712 37.3149274,55.6656712 C38.657456,55.6656712 39.748963,56.7526573 39.748963,58.0979743" id="Fill-51"></path>
                        <path d="M53.5803797,58.0979743 C53.5803797,59.4395473 52.4913705,60.5290294 51.147593,60.5290294 C49.8038155,60.5290294 48.7123085,59.4395473 48.7123085,58.0979743 C48.7123085,56.7526573 49.8038155,55.6656712 51.147593,55.6656712 C52.4913705,55.6656712 53.5803797,56.7526573 53.5803797,58.0979743" id="Fill-53"></path>
                        <path d="M46.6689175,51.4789649 C46.6689175,52.8242819 45.5786594,53.915012 44.2348819,53.915012 C42.8923533,53.915012 41.8020952,52.8242819 41.8020952,51.4789649 C41.8020952,50.1386399 42.8923533,49.0491578 44.2348819,49.0491578 C45.5786594,49.0491578 46.6689175,50.1386399 46.6689175,51.4789649" id="Fill-55"></path>
                        <path d="M53.5803797,51.4789649 C53.5803797,52.8242819 52.4913705,53.915012 51.147593,53.915012 C49.8038155,53.915012 48.7123085,52.8242819 48.7123085,51.4789649 C48.7123085,50.1386399 49.8038155,49.0491578 51.147593,49.0491578 C52.4913705,49.0491578 53.5803797,50.1386399 53.5803797,51.4789649" id="Fill-57"></path>
                        <path d="M39.8062859,51.4789649 C39.8062859,52.8242819 38.7185255,53.915012 37.3734991,53.915012 C36.0297216,53.915012 34.9382146,52.8242819 34.9382146,51.4789649 C34.9382146,50.1386399 36.0297216,49.0491578 37.3734991,49.0491578 C38.7185255,49.0491578 39.8062859,50.1386399 39.8062859,51.4789649" id="Fill-59"></path>
                        <path d="M32.5704937,51.4789649 C32.5704937,52.8242819 31.4814844,53.915012 30.1389558,53.915012 C28.7939295,53.915012 27.7036713,52.8242819 27.7036713,51.4789649 C27.7036713,50.1386399 28.7939295,49.0491578 30.1389558,49.0491578 C31.4814844,49.0491578 32.5704937,50.1386399 32.5704937,51.4789649" id="Fill-61"></path>
                        <path d="M46.6689175,71.9292802 C46.6689175,73.2721012 45.5786594,74.3628312 44.2348819,74.3628312 C42.8923533,74.3628312 41.8020952,73.2721012 41.8020952,71.9292802 C41.8020952,70.5877071 42.8923533,69.498225 44.2348819,69.498225 C45.5786594,69.498225 46.6689175,70.5877071 46.6689175,71.9292802" id="Fill-63"></path>
                        <path d="M46.6689175,79.4596855 C46.6689175,80.8037545 45.5786594,81.8907407 44.2348819,81.8907407 C42.8923533,81.8907407 41.8020952,80.8037545 41.8020952,79.4596855 C41.8020952,78.1156166 42.8923533,77.0298784 44.2348819,77.0298784 C45.5786594,77.0298784 46.6689175,78.1156166 46.6689175,79.4596855" id="Fill-65"></path>
                        <path d="M53.5803797,71.9292802 C53.5803797,73.2721012 52.4913705,74.3628312 51.147593,74.3628312 C49.8038155,74.3628312 48.7123085,73.2721012 48.7123085,71.9292802 C48.7123085,70.5877071 49.8038155,69.498225 51.147593,69.498225 C52.4913705,69.498225 53.5803797,70.5877071 53.5803797,71.9292802" id="Fill-67"></path>
                        <path d="M46.6689175,65.3115188 C46.6689175,66.6555878 45.5786594,67.7475658 44.2348819,67.7475658 C42.8923533,67.7475658 41.8020952,66.6555878 41.8020952,65.3115188 C41.8020952,63.9699458 42.8923533,62.8817117 44.2348819,62.8817117 C45.5786594,62.8817117 46.6689175,63.9699458 46.6689175,65.3115188" id="Fill-69"></path>
                        <path d="M53.5803797,65.3115188 C53.5803797,66.6555878 52.4913705,67.7475658 51.147593,67.7475658 C49.8038155,67.7475658 48.7123085,66.6555878 48.7123085,65.3115188 C48.7123085,63.9699458 49.8038155,62.8817117 51.147593,62.8817117 C52.4913705,62.8817117 53.5803797,63.9699458 53.5803797,65.3115188" id="Fill-71"></path>
                        <path d="M39.8062859,65.3115188 C39.8062859,66.6555878 38.7185255,67.7475658 37.3734991,67.7475658 C36.0297216,67.7475658 34.9382146,66.6555878 34.9382146,65.3115188 C34.9382146,63.9699458 36.0297216,62.8817117 37.3734991,62.8817117 C38.7185255,62.8817117 39.8062859,63.9699458 39.8062859,65.3115188" id="Fill-73"></path>
                        <path d="M39.8062859,16.3906528 C39.8062859,17.7309779 38.7185255,18.821708 37.3734991,18.821708 C36.0297216,18.821708 34.9382146,17.7309779 34.9382146,16.3906528 C34.9382146,15.0478318 36.0297216,13.9558538 37.3734991,13.9558538 C38.7185255,13.9558538 39.8062859,15.0478318 39.8062859,16.3906528" id="Fill-75"></path>
                        <path d="M46.6689175,9.67068236 C46.6689175,11.0159993 45.5786594,12.1029855 44.2348819,12.1029855 C42.8923533,12.1029855 41.8020952,11.0159993 41.8020952,9.67068236 C41.8020952,8.33035731 42.8923533,7.23962724 44.2348819,7.23962724 C45.5786594,7.23962724 46.6689175,8.33035731 46.6689175,9.67068236" id="Fill-77"></path>
                        <path d="M53.5803797,9.67068236 C53.5803797,11.0159993 52.4913705,12.1029855 51.147593,12.1029855 C49.8038155,12.1029855 48.7123085,11.0159993 48.7123085,9.67068236 C48.7123085,8.33035731 49.8038155,7.23962724 51.147593,7.23962724 C52.4913705,7.23962724 53.5803797,8.33035731 53.5803797,9.67068236" id="Fill-79"></path>
                        <path d="M39.8062859,9.67068236 C39.8062859,11.0159993 38.7185255,12.1029855 37.3734991,12.1029855 C36.0297216,12.1029855 34.9382146,11.0159993 34.9382146,9.67068236 C34.9382146,8.33035731 36.0297216,7.23962724 37.3734991,7.23962724 C38.7185255,7.23962724 39.8062859,8.33035731 39.8062859,9.67068236" id="Fill-81"></path>
                        <path d="M32.8948236,43.536603 C32.8948236,44.88192 31.8058144,45.9689061 30.4632857,45.9689061 C29.1182594,45.9689061 28.0267524,44.88192 28.0267524,43.536603 C28.0267524,42.19503 29.1182594,41.1067959 30.4632857,41.1067959 C31.8058144,41.1067959 32.8948236,42.19503 32.8948236,43.536603" id="Fill-83"></path>
                        <path d="M32.8948236,36.9213376 C32.8948236,38.2641586 31.8058144,39.3523928 30.4632857,39.3523928 C29.1182594,39.3523928 28.0267524,38.2641586 28.0267524,36.9213376 C28.0267524,35.5797646 29.1182594,34.4940264 30.4632857,34.4940264 C31.8058144,34.4940264 32.8948236,35.5797646 32.8948236,36.9213376" id="Fill-85"></path>
                        <path d="M32.8948236,29.9075939 C32.8948236,31.2504149 31.8058144,32.3411449 30.4632857,32.3411449 C29.1182594,32.3411449 28.0267524,31.2504149 28.0267524,29.9075939 C28.0267524,28.5635249 29.1182594,27.4727948 30.4632857,27.4727948 C31.8058144,27.4727948 32.8948236,28.5635249 32.8948236,29.9075939" id="Fill-87"></path>
                        <path d="M32.8948236,23.1874986 C32.8948236,24.5315676 31.8058144,25.6198017 30.4632857,25.6198017 C29.1182594,25.6198017 28.0267524,24.5315676 28.0267524,23.1874986 C28.0267524,21.8471735 29.1182594,20.7564435 30.4632857,20.7564435 C31.8058144,20.7564435 32.8948236,21.8471735 32.8948236,23.1874986" id="Fill-89"></path>
                        <path d="M32.8948236,16.57111 C32.8948236,17.9176749 31.8058144,19.0046611 30.4632857,19.0046611 C29.1182594,19.0046611 28.0267524,17.9176749 28.0267524,16.57111 C28.0267524,15.229537 29.1182594,14.1413029 30.4632857,14.1413029 C31.8058144,14.1413029 32.8948236,15.229537 32.8948236,16.57111" id="Fill-91"></path>
                        <path d="M32.8948236,9.55848941 C32.8948236,10.9000624 31.8058144,11.9907925 30.4632857,11.9907925 C29.1182594,11.9907925 28.0267524,10.9000624 28.0267524,9.55848941 C28.0267524,8.21442044 29.1182594,7.12743429 30.4632857,7.12743429 C31.8058144,7.12743429 32.8948236,8.21442044 32.8948236,9.55848941" id="Fill-93"></path>
                        <path d="M115.739455,58.3989858 C115.739455,59.7393109 114.650446,60.8287929 113.30417,60.8287929 C111.961642,60.8287929 110.871384,59.7393109 110.871384,58.3989858 C110.871384,57.0511729 111.961642,55.9654347 113.30417,55.9654347 C114.650446,55.9654347 115.739455,57.0511729 115.739455,58.3989858" id="Fill-95"></path>
                        <path d="M74.0488833,30.7728149 C74.0488833,32.1168838 72.9586252,33.202622 71.6135989,33.202622 C70.2685725,33.202622 69.1795632,32.1168838 69.1795632,30.7728149 C69.1795632,29.4287459 70.2685725,28.3367678 71.6135989,28.3367678 C72.9586252,28.3367678 74.0488833,29.4287459 74.0488833,30.7728149" id="Fill-97"></path>
                        <path d="M60.4833497,16.7184958 C60.4833497,18.0588209 59.3943404,19.149551 58.0518118,19.149551 C56.7067855,19.149551 55.6177762,18.0588209 55.6177762,16.7184958 C55.6177762,15.3731789 56.7067855,14.2861928 58.0518118,14.2861928 C59.3943404,14.2861928 60.4833497,15.3731789 60.4833497,16.7184958" id="Fill-99"></path>
                        <path d="M60.5540354,43.8522159 C60.5540354,45.1975328 59.4625284,46.285767 58.1187509,46.285767 C56.7737246,46.285767 55.6859642,45.1975328 55.6859642,43.8522159 C55.6859642,42.5093949 56.7737246,41.4211608 58.1187509,41.4211608 C59.4625284,41.4211608 60.5540354,42.5093949 60.5540354,43.8522159" id="Fill-101"></path>
                        <path d="M60.5540354,37.2358273 C60.5540354,38.5774003 59.4625284,39.6693784 58.1187509,39.6693784 C56.7737246,39.6693784 55.6859642,38.5774003 55.6859642,37.2358273 C55.6859642,35.8917583 56.7737246,34.8047722 58.1187509,34.8047722 C59.4625284,34.8047722 60.5540354,35.8917583 60.5540354,37.2358273" id="Fill-103"></path>
                        <path d="M60.5540354,57.9967635 C60.5540354,59.3420804 59.4625284,60.4303146 58.1187509,60.4303146 C56.7737246,60.4303146 55.6859642,59.3420804 55.6859642,57.9967635 C55.6859642,56.6539425 56.7737246,55.5669563 58.1187509,55.5669563 C59.4625284,55.5669563 60.5540354,56.6539425 60.5540354,57.9967635" id="Fill-105"></path>
                        <path d="M60.5540354,51.383994 C60.5540354,52.728063 59.4625284,53.8162971 58.1187509,53.8162971 C56.7737246,53.8162971 55.6859642,52.728063 55.6859642,51.383994 C55.6859642,50.0399251 56.7737246,48.950443 58.1187509,48.950443 C59.4625284,48.950443 60.5540354,50.0399251 60.5540354,51.383994" id="Fill-107"></path>
                        <path d="M60.5540354,71.9292802 C60.5540354,73.2721012 59.4625284,74.3628312 58.1187509,74.3628312 C56.7737246,74.3628312 55.6859642,73.2721012 55.6859642,71.9292802 C55.6859642,70.5877071 56.7737246,69.498225 58.1187509,69.498225 C59.4625284,69.498225 60.5540354,70.5877071 60.5540354,71.9292802" id="Fill-109"></path>
                        <path d="M60.5540354,79.1417015 C60.5540354,80.4845225 59.4625284,81.5740046 58.1187509,81.5740046 C56.7737246,81.5740046 55.6859642,80.4845225 55.6859642,79.1417015 C55.6859642,77.7976326 56.7737246,76.7081505 58.1187509,76.7081505 C59.4625284,76.7081505 60.5540354,77.7976326 60.5540354,79.1417015" id="Fill-111"></path>
                        <path d="M60.5540354,65.3115188 C60.5540354,66.6555878 59.4625284,67.7475658 58.1187509,67.7475658 C56.7737246,67.7475658 55.6859642,66.6555878 55.6859642,65.3115188 C55.6859642,63.9699458 56.7737246,62.8817117 58.1187509,62.8817117 C59.4625284,62.8817117 60.5540354,63.9699458 60.5540354,65.3115188" id="Fill-113"></path>
                        <path d="M60.5540354,30.2219587 C60.5540354,31.5660277 59.4625284,32.6530139 58.1187509,32.6530139 C56.7737246,32.6530139 55.6859642,31.5660277 55.6859642,30.2219587 C55.6859642,28.8778898 56.7737246,27.7896556 58.1187509,27.7896556 C59.4625284,27.7896556 60.5540354,28.8778898 60.5540354,30.2219587" id="Fill-115"></path>
                        <path d="M60.5540354,23.5019883 C60.5540354,24.8460572 59.4625284,25.9355393 58.1187509,25.9355393 C56.7737246,25.9355393 55.6859642,24.8460572 55.6859642,23.5019883 C55.6859642,22.1591673 56.7737246,21.0721811 58.1187509,21.0721811 C59.4625284,21.0721811 60.5540354,22.1591673 60.5540354,23.5019883" id="Fill-117"></path>
                        <path d="M60.4833497,85.8762733 C60.4833497,87.2215903 59.3943404,88.3098244 58.0518118,88.3098244 C56.7067855,88.3098244 55.6177762,87.2215903 55.6177762,85.8762733 C55.6177762,84.5309564 56.7067855,83.4439702 58.0518118,83.4439702 C59.3943404,83.4439702 60.4833497,84.5309564 60.4833497,85.8762733" id="Fill-119"></path>
                        <path d="M53.2450598,79.1417015 C53.2450598,80.4845225 52.1535528,81.5740046 50.8122731,81.5740046 C49.4659978,81.5740046 48.3769886,80.4845225 48.3769886,79.1417015 C48.3769886,77.7976326 49.4659978,76.7081505 50.8122731,76.7081505 C52.1535528,76.7081505 53.2450598,77.7976326 53.2450598,79.1417015" id="Fill-121"></path>
                        <path d="M53.1742492,85.8762733 C53.1742492,87.2215903 52.08524,88.3098244 50.7427113,88.3098244 C49.4014316,88.3098244 48.3086757,87.2215903 48.3086757,85.8762733 C48.3086757,84.5309564 49.4014316,83.4439702 50.7427113,83.4439702 C52.08524,83.4439702 53.1742492,84.5309564 53.1742492,85.8762733" id="Fill-123"></path>
                        <path d="M67.5020893,23.7444698 C67.5020893,25.0872908 66.4143289,26.1742769 65.0705515,26.1742769 C63.726774,26.1742769 62.6365158,25.0872908 62.6365158,23.7444698 C62.6365158,22.4004008 63.726774,21.3134147 65.0705515,21.3134147 C66.4143289,21.3134147 67.5020893,22.4004008 67.5020893,23.7444698" id="Fill-125"></path>
                        <path d="M67.5020893,30.7728149 C67.5020893,32.1168838 66.4143289,33.202622 65.0705515,33.202622 C63.726774,33.202622 62.6365158,32.1168838 62.6365158,30.7728149 C62.6365158,29.4287459 63.726774,28.3367678 65.0705515,28.3367678 C66.4143289,28.3367678 67.5020893,29.4287459 67.5020893,30.7728149" id="Fill-127"></path>
                        <path d="M74.0488833,37.432009 C74.0488833,38.772334 72.9586252,39.8618161 71.6135989,39.8618161 C70.2685725,39.8618161 69.1795632,38.772334 69.1795632,37.432009 C69.1795632,36.08794 70.2685725,34.9997059 71.6135989,34.9997059 C72.9586252,34.9997059 74.0488833,36.08794 74.0488833,37.432009" id="Fill-129"></path>
                        <path d="M80.9578478,37.432009 C80.9578478,38.772334 79.8688386,39.8618161 78.52631,39.8618161 C77.1812836,39.8618161 76.0910255,38.772334 76.0910255,37.432009 C76.0910255,36.08794 77.1812836,34.9997059 78.52631,34.9997059 C79.8688386,34.9997059 80.9578478,36.08794 80.9578478,37.432009" id="Fill-131"></path>
                        <path d="M80.9578478,44.4567349 C80.9578478,45.8020519 79.8688386,46.891534 78.52631,46.891534 C77.1812836,46.891534 76.0910255,45.8020519 76.0910255,44.4567349 C76.0910255,43.1151619 77.1812836,42.0256798 78.52631,42.0256798 C79.8688386,42.0256798 80.9578478,43.1151619 80.9578478,44.4567349" id="Fill-133"></path>
                        <path d="M87.9302546,44.4567349 C87.9302546,45.8020519 86.8399965,46.891534 85.496219,46.891534 C84.1511927,46.891534 83.0634323,45.8020519 83.0634323,44.4567349 C83.0634323,43.1151619 84.1511927,42.0256798 85.496219,42.0256798 C86.8399965,42.0256798 87.9302546,43.1151619 87.9302546,44.4567349" id="Fill-135"></path>
                        <path d="M80.9578478,51.4740978 C80.9578478,52.8169188 79.8688386,53.9064009 78.52631,53.9064009 C77.1812836,53.9064009 76.0910255,52.8169188 76.0910255,51.4740978 C76.0910255,50.1312768 77.1812836,49.0417947 78.52631,49.0417947 C79.8688386,49.0417947 80.9578478,50.1312768 80.9578478,51.4740978" id="Fill-137"></path>
                        <path d="M87.9302546,51.4740978 C87.9302546,52.8169188 86.8399965,53.9064009 85.496219,53.9064009 C84.1511927,53.9064009 83.0634323,52.8169188 83.0634323,51.4740978 C83.0634323,50.1312768 84.1511927,49.0417947 85.496219,49.0417947 C86.8399965,49.0417947 87.9302546,50.1312768 87.9302546,51.4740978" id="Fill-139"></path>
                        <path d="M108.827993,58.7036165 C108.827993,60.0464375 107.737735,61.1359196 106.392708,61.1359196 C105.047682,61.1359196 103.957424,60.0464375 103.957424,58.7036165 C103.957424,57.3582995 105.047682,56.2725614 106.392708,56.2725614 C107.737735,56.2725614 108.827993,57.3582995 108.827993,58.7036165" id="Fill-141"></path>
                        <path d="M101.873819,58.7036165 C101.873819,60.0464375 100.783561,61.1359196 99.4410326,61.1359196 C98.098504,61.1359196 97.006997,60.0464375 97.006997,58.7036165 C97.006997,57.3582995 98.098504,56.2725614 99.4410326,56.2725614 C100.783561,56.2725614 101.873819,57.3582995 101.873819,58.7036165" id="Fill-143"></path>
                        <path d="M74.0488833,65.6454769 C74.0488833,66.9895459 72.9586252,68.0802759 71.6135989,68.0802759 C70.2685725,68.0802759 69.1795632,66.9895459 69.1795632,65.6454769 C69.1795632,64.3051518 70.2685725,63.2156698 71.6135989,63.2156698 C72.9586252,63.2156698 74.0488833,64.3051518 74.0488833,65.6454769" id="Fill-145"></path>
                        <path d="M74.0488833,72.67507 C74.0488833,74.0191389 72.9586252,75.1061251 71.6135989,75.1061251 C70.2685725,75.1061251 69.1795632,74.0191389 69.1795632,72.67507 C69.1795632,71.331001 70.2685725,70.2427669 71.6135989,70.2427669 C72.9586252,70.2427669 74.0488833,71.331001 74.0488833,72.67507" id="Fill-147"></path>
                        <path d="M74.0488833,79.7010439 C74.0488833,81.0451129 72.9586252,82.132099 71.6135989,82.132099 C70.2685725,82.132099 69.1795632,81.0451129 69.1795632,79.7010439 C69.1795632,78.354479 70.2685725,77.2687408 71.6135989,77.2687408 C72.9586252,77.2687408 74.0488833,78.354479 74.0488833,79.7010439" id="Fill-149"></path>
                        <path d="M74.0488833,86.729389 C74.0488833,88.0684661 72.9586252,89.1604441 71.6135989,89.1604441 C70.2685725,89.1604441 69.1795632,88.0684661 69.1795632,86.729389 C69.1795632,85.384072 70.2685725,84.2945899 71.6135989,84.2945899 C72.9586252,84.2945899 74.0488833,85.384072 74.0488833,86.729389" id="Fill-151"></path>
                        <path d="M74.0488833,93.3873351 C74.0488833,94.7289081 72.9586252,95.8196382 71.6135989,95.8196382 C70.2685725,95.8196382 69.1795632,94.7289081 69.1795632,93.3873351 C69.1795632,92.0432661 70.2685725,90.95628 71.6135989,90.95628 C72.9586252,90.95628 74.0488833,92.0432661 74.0488833,93.3873351" id="Fill-153"></path>
                        <path d="M74.0488833,58.9619473 C74.0488833,60.3060163 72.9586252,61.3954984 71.6135989,61.3954984 C70.2685725,61.3954984 69.1795632,60.3060163 69.1795632,58.9619473 C69.1795632,57.6191263 70.2685725,56.5308922 71.6135989,56.5308922 C72.9586252,56.5308922 74.0488833,57.6191263 74.0488833,58.9619473" id="Fill-155"></path>
                        <path d="M67.5020893,65.708874 C67.5020893,67.051695 66.4143289,68.1424251 65.0705515,68.1424251 C63.726774,68.1424251 62.6365158,67.051695 62.6365158,65.708874 C62.6365158,64.364805 63.726774,63.2790669 65.0705515,63.2790669 C66.4143289,63.2790669 67.5020893,64.364805 67.5020893,65.708874" id="Fill-157"></path>
                        <path d="M67.5020893,72.7359711 C67.5020893,74.0787921 66.4143289,75.1682742 65.0705515,75.1682742 C63.726774,75.1682742 62.6365158,74.0787921 62.6365158,72.7359711 C62.6365158,71.3919022 63.726774,70.304916 65.0705515,70.304916 C66.4143289,70.304916 67.5020893,71.3919022 67.5020893,72.7359711" id="Fill-159"></path>
                        <path d="M67.5020893,79.7619451 C67.5020893,81.106014 66.4143289,82.1917522 65.0705515,82.1917522 C63.726774,82.1917522 62.6365158,81.106014 62.6365158,79.7619451 C62.6365158,78.420372 63.726774,77.3333859 65.0705515,77.3333859 C66.4143289,77.3333859 67.5020893,78.420372 67.5020893,79.7619451" id="Fill-161"></path>
                        <path d="M67.5020893,86.7904149 C67.5020893,88.1344839 66.4143289,89.222718 65.0705515,89.222718 C63.726774,89.222718 62.6365158,88.1344839 62.6365158,86.7904149 C62.6365158,85.445098 63.726774,84.3581119 65.0705515,84.3581119 C66.4143289,84.3581119 67.5020893,85.445098 67.5020893,86.7904149" id="Fill-163"></path>
                        <path d="M60.4833497,92.7950462 C60.4833497,94.1366192 59.3943404,95.2223574 58.0518118,95.2223574 C56.7067855,95.2223574 55.6177762,94.1366192 55.6177762,92.7950462 C55.6177762,91.4522252 56.7067855,90.3602472 58.0518118,90.3602472 C59.3943404,90.3602472 60.4833497,91.4522252 60.4833497,92.7950462" id="Fill-165"></path>
                        <path d="M67.5020893,93.7066919 C67.5020893,95.0470169 66.4143289,96.137747 65.0705515,96.137747 C63.726774,96.137747 62.6365158,95.0470169 62.6365158,93.7066919 C62.6365158,92.3613749 63.726774,91.2706449 65.0705515,91.2706449 C66.4143289,91.2706449 67.5020893,92.3613749 67.5020893,93.7066919" id="Fill-167"></path>
                        <path d="M87.8900412,65.6454769 C87.8900412,66.9895459 86.8010319,68.0802759 85.4535079,68.0802759 C84.1109792,68.0802759 83.02197,66.9895459 83.02197,65.6454769 C83.02197,64.3051518 84.1109792,63.2156698 85.4535079,63.2156698 C86.8010319,63.2156698 87.8900412,64.3051518 87.8900412,65.6454769" id="Fill-169"></path>
                        <path d="M87.8900412,72.67507 C87.8900412,74.0191389 86.8010319,75.1061251 85.4535079,75.1061251 C84.1109792,75.1061251 83.02197,74.0191389 83.02197,72.67507 C83.02197,71.331001 84.1109792,70.2427669 85.4535079,70.2427669 C86.8010319,70.2427669 87.8900412,71.331001 87.8900412,72.67507" id="Fill-171"></path>
                        <path d="M87.8900412,79.7010439 C87.8900412,81.0451129 86.8010319,82.132099 85.4535079,82.132099 C84.1109792,82.132099 83.02197,81.0451129 83.02197,79.7010439 C83.02197,78.354479 84.1109792,77.2687408 85.4535079,77.2687408 C86.8010319,77.2687408 87.8900412,78.354479 87.8900412,79.7010439" id="Fill-173"></path>
                        <path d="M87.8900412,86.729389 C87.8900412,88.0684661 86.8010319,89.1604441 85.4535079,89.1604441 C84.1109792,89.1604441 83.02197,88.0684661 83.02197,86.729389 C83.02197,85.384072 84.1109792,84.2945899 85.4535079,84.2945899 C86.8010319,84.2945899 87.8900412,85.384072 87.8900412,86.729389" id="Fill-175"></path>
                        <path d="M87.8900412,93.3873351 C87.8900412,94.7289081 86.8010319,95.8196382 85.4535079,95.8196382 C84.1109792,95.8196382 83.02197,94.7289081 83.02197,93.3873351 C83.02197,92.0432661 84.1109792,90.95628 85.4535079,90.95628 C86.8010319,90.95628 87.8900412,92.0432661 87.8900412,93.3873351" id="Fill-177"></path>
                        <path d="M81.3456201,65.708874 C81.3456201,67.051695 80.2578597,68.1424251 78.9128333,68.1424251 C77.5690558,68.1424251 76.4787977,67.051695 76.4787977,65.708874 C76.4787977,64.364805 77.5690558,63.2790669 78.9128333,63.2790669 C80.2578597,63.2790669 81.3456201,64.364805 81.3456201,65.708874" id="Fill-179"></path>
                        <path d="M81.3456201,72.7359711 C81.3456201,74.0787921 80.2578597,75.1682742 78.9128333,75.1682742 C77.5690558,75.1682742 76.4787977,74.0787921 76.4787977,72.7359711 C76.4787977,71.3919022 77.5690558,70.304916 78.9128333,70.304916 C80.2578597,70.304916 81.3456201,71.3919022 81.3456201,72.7359711" id="Fill-181"></path>
                        <path d="M81.3456201,79.7619451 C81.3456201,81.106014 80.2578597,82.1917522 78.9128333,82.1917522 C77.5690558,82.1917522 76.4787977,81.106014 76.4787977,79.7619451 C76.4787977,78.420372 77.5690558,77.3333859 78.9128333,77.3333859 C80.2578597,77.3333859 81.3456201,78.420372 81.3456201,79.7619451" id="Fill-183"></path>
                        <path d="M81.3456201,86.7904149 C81.3456201,88.1344839 80.2578597,89.222718 78.9128333,89.222718 C77.5690558,89.222718 76.4787977,88.1344839 76.4787977,86.7904149 C76.4787977,85.445098 77.5690558,84.3581119 78.9128333,84.3581119 C80.2578597,84.3581119 81.3456201,85.445098 81.3456201,86.7904149" id="Fill-185"></path>
                        <path d="M102.043415,72.67507 C102.043415,74.0191389 100.955655,75.1061251 99.6118772,75.1061251 C98.2668508,75.1061251 97.1778415,74.0191389 97.1778415,72.67507 C97.1778415,71.331001 98.2668508,70.2427669 99.6118772,70.2427669 C100.955655,70.2427669 102.043415,71.331001 102.043415,72.67507" id="Fill-187"></path>
                        <path d="M102.043415,79.7010439 C102.043415,81.0451129 100.955655,82.132099 99.6118772,82.132099 C98.2668508,82.132099 97.1778415,81.0451129 97.1778415,79.7010439 C97.1778415,78.354479 98.2668508,77.2687408 99.6118772,77.2687408 C100.955655,77.2687408 102.043415,78.354479 102.043415,79.7010439" id="Fill-189"></path>
                        <path d="M95.5014916,72.7359711 C95.5014916,74.0787921 94.4112335,75.1682742 93.0687049,75.1682742 C91.7261763,75.1682742 90.6346693,74.0787921 90.6346693,72.7359711 C90.6346693,71.3919022 91.7261763,70.304916 93.0687049,70.304916 C94.4112335,70.304916 95.5014916,71.3919022 95.5014916,72.7359711" id="Fill-191"></path>
                        <path d="M102.043415,65.5651073 C102.043415,66.9066803 100.955655,67.9986584 99.6118772,67.9986584 C98.2668508,67.9986584 97.1778415,66.9066803 97.1778415,65.5651073 C97.1778415,64.2247823 98.2668508,63.1353002 99.6118772,63.1353002 C100.955655,63.1353002 102.043415,64.2247823 102.043415,65.5651073" id="Fill-193"></path>
                        <path d="M95.5014916,65.6272565 C95.5014916,66.9725734 94.4112335,68.0608075 93.0687049,68.0608075 C91.7261763,68.0608075 90.6346693,66.9725734 90.6346693,65.6272565 C90.6346693,64.2869314 91.7261763,63.1962013 93.0687049,63.1962013 C94.4112335,63.1962013 95.5014916,64.2869314 95.5014916,65.6272565" id="Fill-195"></path>
                        <path d="M95.5014916,58.3989858 C95.5014916,59.7393109 94.4112335,60.8287929 93.0687049,60.8287929 C91.7261763,60.8287929 90.6346693,59.7393109 90.6346693,58.3989858 C90.6346693,57.0511729 91.7261763,55.9654347 93.0687049,55.9654347 C94.4112335,55.9654347 95.5014916,57.0511729 95.5014916,58.3989858" id="Fill-197"></path>
                        <path d="M95.5014916,79.7619451 C95.5014916,81.106014 94.4112335,82.1917522 93.0687049,82.1917522 C91.7261763,82.1917522 90.6346693,81.106014 90.6346693,79.7619451 C90.6346693,78.420372 91.7261763,77.3333859 93.0687049,77.3333859 C94.4112335,77.3333859 95.5014916,78.420372 95.5014916,79.7619451" id="Fill-199"></path>
                        <path d="M95.5014916,86.7904149 C95.5014916,88.1344839 94.4112335,89.222718 93.0687049,89.222718 C91.7261763,89.222718 90.6346693,88.1344839 90.6346693,86.7904149 C90.6346693,85.445098 91.7261763,84.3581119 93.0687049,84.3581119 C94.4112335,84.3581119 95.5014916,85.445098 95.5014916,86.7904149" id="Fill-201"></path>
                        <path d="M81.3456201,93.7066919 C81.3456201,95.0470169 80.2578597,96.137747 78.9128333,96.137747 C77.5690558,96.137747 76.4787977,95.0470169 76.4787977,93.7066919 C76.4787977,92.3613749 77.5690558,91.2706449 78.9128333,91.2706449 C80.2578597,91.2706449 81.3456201,92.3613749 81.3456201,93.7066919" id="Fill-203"></path>
                        <path d="M67.5020893,51.9993705 C67.5020893,53.3396955 66.4143289,54.4291776 65.0705515,54.4291776 C63.726774,54.4291776 62.6365158,53.3396955 62.6365158,51.9993705 C62.6365158,50.6540535 63.726774,49.5670674 65.0705515,49.5670674 C66.4143289,49.5670674 67.5020893,50.6540535 67.5020893,51.9993705" id="Fill-205"></path>
                        <path d="M67.5020893,59.0240964 C67.5020893,60.3681654 66.4143289,61.4588955 65.0705515,61.4588955 C63.726774,61.4588955 62.6365158,60.3681654 62.6365158,59.0240964 C62.6365158,57.6825234 63.726774,56.5917933 65.0705515,56.5917933 C66.4143289,56.5917933 67.5020893,57.6825234 67.5020893,59.0240964" id="Fill-207"></path>
                        <path d="M67.3337425,37.650155 C67.3337425,38.991728 66.2447332,40.0824581 64.898458,40.0824581 C63.5546805,40.0824581 62.4669201,38.991728 62.4669201,37.650155 C62.4669201,36.307334 63.5546805,35.2166039 64.898458,35.2166039 C66.2447332,35.2166039 67.3337425,36.307334 67.3337425,37.650155" id="Fill-209"></path>
                        <path d="M67.5020893,44.6772521 C67.5020893,46.0213211 66.4143289,47.1083072 65.0705515,47.1083072 C63.726774,47.1083072 62.6365158,46.0213211 62.6365158,44.6772521 C62.6365158,43.3319351 63.726774,42.243701 65.0705515,42.243701 C66.4143289,42.243701 67.5020893,43.3319351 67.5020893,44.6772521" id="Fill-211"></path>
                    </g>
                </g>
            </g>
        </g>
    </g>
</svg>