<?xml version="1.0" encoding="UTF-8"?>
<svg width="576px" height="179px" viewBox="0 0 576 179" version="1.1" xmlns="http://www.w3.org/2000/svg" xmlns:xlink="http://www.w3.org/1999/xlink">
    <!-- Generator: sketchtool 41.2 (35397) - http://www.bohemiancoding.com/sketch -->
    <title>EEDCE241-4E1F-4FE5-93B6-D36BBD6939E7</title>
    <desc>Created with sketchtool.</desc>
    <defs>
        <polygon id="path-1" points="0 178.542979 376.890213 178.542979 376.890213 0 0 0"></polygon>
    </defs>
    <g id="Page-1" stroke="none" stroke-width="1" fill="none" fill-rule="evenodd">
        <g id="306_M2U_Planner_Travel-Copy-2" transform="translate(-704.000000, -240.000000)">
            <g id="Group-15" transform="translate(706.000000, 240.000000)">
                <path d="M156,138.2 L728.503493,138.2" id="Line" stroke="#1C1918" stroke-width="2.4" stroke-linecap="round" stroke-linejoin="round"></path>
                <path d="M23,138.2 L147,138.2" id="Line-Copy" stroke="#1C1918" stroke-width="2.4" stroke-linecap="round" stroke-linejoin="round"></path>
                <path d="M0,138.2 L13,138.2" id="Line-Copy" stroke="#1C1918" stroke-width="2.4" stroke-linecap="round" stroke-linejoin="round"></path>
                <g id="Page-1" transform="translate(144.957447, 0.000000)">
                    <path d="M64.0437879,27.9472319 C54.3625539,27.9472319 46.5132135,20.099161 46.5132135,10.4166574 C46.5132135,7.06389858 47.4564546,3.93203333 49.0877667,1.26861489 C44.8488943,4.46903333 42.1067667,9.54831702 42.1067667,15.2687 C42.1067667,24.9512035 49.9561071,32.7992745 59.6373411,32.7992745 C65.9670858,32.7992745 71.5110078,29.4439766 74.5933624,24.4167426 C71.6582702,26.6320262 68.004639,27.9472319 64.0437879,27.9472319 L64.0437879,27.9472319 Z" id="Stroke-1" stroke="#D1D1D1" stroke-width="2" stroke-linecap="round" stroke-linejoin="round"></path>
                    <g id="Group-6" transform="translate(1.269504, 137.918865)">
                        <path d="M374.351587,0.178111348 L0.000380851064,0.178111348" id="Fill-3" fill="#FFFFFF"></path>
                        <path d="M374.351587,0.178111348 L0.000380851064,0.178111348" id="Stroke-5" stroke="#000000" stroke-width="2" stroke-linecap="round" stroke-linejoin="round"></path>
                    </g>
                    <g id="Group-10" transform="translate(313.567376, 68.096170)">
                        <path d="M0.505262411,0.521639007 L11.4648865,0.521639007 C18.0040993,10.1990645 22.3788085,22.4929369 22.3788085,36.7456532 C22.3788085,36.7456532 22.3788085,57.3179582 17.5381915,69.8568447 L7.94074468,69.8568447" id="Fill-7" fill="#FFFFFF"></path>
                        <path d="M0.505262411,0.521639007 L11.4648865,0.521639007 C18.0040993,10.1990645 22.3788085,22.4929369 22.3788085,36.7456532 C22.3788085,36.7456532 22.3788085,57.3179582 17.5381915,69.8568447 L7.94074468,69.8568447" id="Stroke-9" stroke="#000000" stroke-width="2" stroke-linecap="round" stroke-linejoin="round"></path>
                    </g>
                    <path d="M321.50774,137.95238 C326.348357,125.413494 326.348357,104.841189 326.348357,104.841189 C326.348357,68.5384652 291.656633,43.1433163 291.656633,43.1433163 L291.656633,138.121224 L321.50774,137.95238 Z" id="Fill-11" fill="#FFFFFF"></path>
                    <path d="M321.50774,137.95238 C326.348357,125.413494 326.348357,104.841189 326.348357,104.841189 C326.348357,68.5384652 291.656633,43.1433163 291.656633,43.1433163 L291.656633,138.121224 L321.50774,137.95238 L321.50774,137.95238 Z" id="Stroke-13" stroke="#000000" stroke-width="2" stroke-linecap="round" stroke-linejoin="round"></path>
                    <path d="M292.913696,45.8564993 L292.913696,51.291244 C303.069724,61.4320383 318.198398,82.8168255 318.198398,106.421974 C318.198398,106.421974 317.457008,134.985804 306.348852,136.784691 L320.566022,136.784691 C325.260646,124.276272 325.074029,106.104599 325.074029,106.104599 C325.920788,71.722634 292.913696,45.8564993 292.913696,45.8564993" id="Fill-15" fill="#D1D1D1"></path>
                    <path d="M334.937945,68.2464794 L285.404455,68.2464794" id="Stroke-17" stroke="#000000" stroke-width="2" stroke-linecap="round" stroke-linejoin="round"></path>
                    <path d="M291.657014,137.31382 L291.657014,34.6757277" id="Stroke-19" stroke="#000000" stroke-width="2" stroke-linecap="round" stroke-linejoin="round"></path>
                    <polyline id="Stroke-21" stroke="#000000" stroke-width="2" stroke-linecap="round" stroke-linejoin="round" points="292.463784 79.4471823 311.624401 79.4471823 292.463784 95.2258418 317.674855 95.2258418 292.463784 111.235551 320.4995 111.235551 292.463784 126.318523 316.788741 126.318523"></polyline>
                    <path d="M309.020395,17.9509071 C310.240388,17.9509071 311.230601,18.9398504 311.230601,20.1611128 C311.230601,21.3811057 310.240388,22.3700489 309.020395,22.3700489 C307.800402,22.3700489 306.810189,21.3811057 306.810189,20.1611128 C306.810189,18.9398504 307.800402,17.9509071 309.020395,17.9509071" id="Fill-23" fill="#D1D1D1"></path>
                    <path d="M154.79628,7.3228773 C156.016273,7.3228773 157.006486,8.31182057 157.006486,9.53308298 C157.006486,10.7530759 156.016273,11.7432887 154.79628,11.7432887 C153.576287,11.7432887 152.586074,10.7530759 152.586074,9.53308298 C152.586074,8.31182057 153.576287,7.3228773 154.79628,7.3228773" id="Fill-25" fill="#D1D1D1"></path>
                    <path d="M338.46526,9.53282908 C339.685253,9.53282908 340.675466,10.5217723 340.675466,11.7430348 C340.675466,12.9630277 339.685253,13.9519709 338.46526,13.9519709 C337.243998,13.9519709 336.255055,12.9630277 336.255055,11.7430348 C336.255055,10.5217723 337.243998,9.53282908 338.46526,9.53282908" id="Fill-27" fill="#D1D1D1"></path>
                    <path d="M222.305686,25.5632312 C223.525679,25.5632312 224.515891,26.5521745 224.515891,27.7734369 C224.515891,28.9934298 223.525679,29.982373 222.305686,29.982373 C221.084423,29.982373 220.09548,28.9934298 220.09548,27.7734369 C220.09548,26.5521745 221.084423,25.5632312 222.305686,25.5632312" id="Fill-29" fill="#D1D1D1"></path>
                    <path d="M24.3264809,58.049573 C25.5464738,58.049573 26.5366865,59.0385163 26.5366865,60.2597787 C26.5366865,61.4797716 25.5464738,62.4699844 24.3264809,62.4699844 C23.1064879,62.4699844 22.1162752,61.4797716 22.1162752,60.2597787 C22.1162752,59.0385163 23.1064879,58.049573 24.3264809,58.049573" id="Fill-31" fill="#D1D1D1"></path>
                    <g id="Group-36" transform="translate(10.156028, 148.074894)">
                        <path d="M0.996052482,0.143453901 L355.06567,0.143453901" id="Fill-33" fill="#FFFFFF"></path>
                        <path d="M0.996052482,0.143453901 L355.06567,0.143453901" id="Stroke-35" stroke="#E2E2E2" stroke-width="12" stroke-linecap="round" stroke-linejoin="round"></path>
                    </g>
                    <g id="Group-40" transform="translate(102.829787, 158.230922)">
                        <path d="M124.66144,0.846378014 L0.081248227,0.846378014" id="Fill-37" fill="#FFFFFF"></path>
                        <path d="M124.66144,0.846378014 L0.081248227,0.846378014" id="Stroke-39" stroke="#000000" stroke-width="2" stroke-linecap="round" stroke-linejoin="round"></path>
                    </g>
                    <g id="Group-44" transform="translate(237.397163, 158.230922)">
                        <path d="M22.9587177,0.846378014 L0.445341844,0.846378014" id="Fill-41" fill="#FFFFFF"></path>
                        <path d="M22.9587177,0.846378014 L0.445341844,0.846378014" id="Stroke-43" stroke="#000000" stroke-width="2" stroke-linecap="round" stroke-linejoin="round"></path>
                    </g>
                    <g id="Group-48" transform="translate(34.276596, 158.230922)">
                        <path d="M59.4108617,0.846378014 L0.0818829787,0.846378014" id="Fill-45" fill="#FFFFFF"></path>
                        <path d="M59.4108617,0.846378014 L0.0818829787,0.846378014" id="Stroke-47" stroke="#000000" stroke-width="2" stroke-linecap="round" stroke-linejoin="round"></path>
                    </g>
                    <g id="Group-52" transform="translate(270.404255, 158.230922)">
                        <path d="M69.2694454,0.846378014 L0.230034043,0.846378014" id="Fill-49" fill="#FFFFFF"></path>
                        <path d="M69.2694454,0.846378014 L0.230034043,0.846378014" id="Stroke-51" stroke="#000000" stroke-width="2" stroke-linecap="round" stroke-linejoin="round"></path>
                    </g>
                    <g id="Group-56" transform="translate(217.085106, 177.273475)">
                        <path d="M59.3250433,0 L0.138248936,0" id="Fill-53" fill="#FFFFFF"></path>
                        <path d="M59.3250433,0 L0.138248936,0" id="Stroke-55" stroke="#000000" stroke-width="2" stroke-linecap="round" stroke-linejoin="round"></path>
                    </g>
                    <g id="Group-60" transform="translate(91.404255, 177.273475)">
                        <path d="M69.3180674,0 L0.716634752,0" id="Fill-57" fill="#FFFFFF"></path>
                        <path d="M69.3180674,0 L0.716634752,0" id="Stroke-59" stroke="#000000" stroke-width="2" stroke-linecap="round" stroke-linejoin="round"></path>
                    </g>
                    <g id="Group-64" transform="translate(168.843972, 177.273475)">
                        <path d="M39.7652943,0 L0.989578014,0" id="Fill-61" fill="#FFFFFF"></path>
                        <path d="M39.7652943,0 L0.989578014,0" id="Stroke-63" stroke="#000000" stroke-width="2" stroke-linecap="round" stroke-linejoin="round"></path>
                    </g>
                    <g id="Group-68" transform="translate(62.205674, 177.273475)">
                        <path d="M19.8282489,0 L0.0811212766,0" id="Fill-65" fill="#FFFFFF"></path>
                        <path d="M19.8282489,0 L0.0811212766,0" id="Stroke-67" stroke="#000000" stroke-width="2" stroke-linecap="round" stroke-linejoin="round"></path>
                    </g>
                    <g id="Group-72" transform="translate(186.617021, 8.429504)">
                        <path d="M0.561755319,19.6547078 L0.561755319,0.968885106" id="Fill-69" fill="#FFFFFF"></path>
                        <path d="M0.561755319,19.6547078 L0.561755319,0.968885106" id="Stroke-71" stroke="#000000" stroke-width="2" stroke-linecap="round" stroke-linejoin="round"></path>
                    </g>
                    <g id="Group-76" transform="translate(228.510638, 55.401135)">
                        <path d="M1.07463475,14.2725206 L1.07463475,1.25757021" id="Fill-73" fill="#FFFFFF"></path>
                        <path d="M1.07463475,14.2725206 L1.07463475,1.25757021" id="Stroke-75" stroke="#000000" stroke-width="2" stroke-linecap="round" stroke-linejoin="round"></path>
                    </g>
                    <g id="Group-80" transform="translate(144.723404, 55.401135)">
                        <path d="M0.0488758865,14.2725206 L0.0488758865,1.25757021" id="Fill-77" fill="#FFFFFF"></path>
                        <path d="M0.0488758865,14.2725206 L0.0488758865,1.25757021" id="Stroke-79" stroke="#000000" stroke-width="2" stroke-linecap="round" stroke-linejoin="round"></path>
                    </g>
                    <g id="Group-84" transform="translate(269.134752, 2.081986)">
                        <path d="M0.252758156,13.5796255 L0.252758156,0.564675177" id="Fill-81" fill="#FFFFFF"></path>
                        <path d="M0.252758156,13.5796255 L0.252758156,0.564675177" id="Stroke-83" stroke="#000000" stroke-width="2" stroke-linecap="round" stroke-linejoin="round"></path>
                    </g>
                    <g id="Group-88" transform="translate(106.638298, 2.081986)">
                        <path d="M0.954666667,13.5796255 L0.954666667,0.564675177" id="Fill-85" fill="#FFFFFF"></path>
                        <path d="M0.954666667,13.5796255 L0.954666667,0.564675177" id="Stroke-87" stroke="#000000" stroke-width="2" stroke-linecap="round" stroke-linejoin="round"></path>
                    </g>
                    <g id="Group-92" transform="translate(219.624113, 69.365674)">
                        <path d="M1.01242908,19.1437326 L1.01242908,9.60595248 C1.01242908,9.60595248 1.29045035,1.1282078 10.816805,1.1282078 C20.3418901,1.1282078 20.5907128,9.60595248 20.5907128,9.60595248 L20.5907128,19.1437326" id="Fill-89" fill="#FFFFFF"></path>
                        <path d="M1.01242908,19.1437326 L1.01242908,9.60595248 C1.01242908,9.60595248 1.29045035,1.1282078 10.816805,1.1282078 C20.3418901,1.1282078 20.5907128,9.60595248 20.5907128,9.60595248 L20.5907128,19.1437326" id="Stroke-91" stroke="#000000" stroke-width="2" stroke-linecap="round" stroke-linejoin="round"></path>
                    </g>
                    <g id="Group-96" transform="translate(134.567376, 69.365674)">
                        <path d="M1.23129149,19.1437326 L1.23129149,9.60595248 C1.23129149,9.60595248 2.16183759,1.1282078 11.6869227,1.1282078 C21.2132773,1.1282078 22.1146248,9.60595248 22.1146248,9.60595248 L22.1146248,19.1437326" id="Fill-93" fill="#FFFFFF"></path>
                        <path d="M1.23129149,19.1437326 L1.23129149,9.60595248 C1.23129149,9.60595248 2.16183759,1.1282078 11.6869227,1.1282078 C21.2132773,1.1282078 22.1146248,9.60595248 22.1146248,9.60595248 L22.1146248,19.1437326" id="Stroke-95" stroke="#000000" stroke-width="2" stroke-linecap="round" stroke-linejoin="round"></path>
                    </g>
                    <mask id="mask-2" fill="white">
                        <use xlink:href="#path-1"></use>
                    </mask>
                    <g id="Clip-98"></g>
                    <polygon id="Fill-97" fill="#FFFFFF" mask="url(#mask-2)" points="211.231426 141.905106 245.414078 141.905106 245.414078 89.4403333 211.231426 89.4403333"></polygon>
                    <polygon id="Stroke-99" stroke="#000000" stroke-width="2" stroke-linecap="round" stroke-linejoin="round" mask="url(#mask-2)" points="211.231426 141.905106 245.414078 141.905106 245.414078 89.4403333 211.231426 89.4403333"></polygon>
                    <polygon id="Fill-100" fill="#FFFFFF" mask="url(#mask-2)" points="130.013667 141.905106 164.196319 141.905106 164.196319 89.4403333 130.013667 89.4403333"></polygon>
                    <polygon id="Stroke-101" stroke="#000000" stroke-width="2" stroke-linecap="round" stroke-linejoin="round" mask="url(#mask-2)" points="130.013667 141.905106 164.196319 141.905106 164.196319 89.4403333 130.013667 89.4403333"></polygon>
                    <polygon id="Fill-102" fill="#FFFFFF" mask="url(#mask-2)" points="163.50444 141.905106 211.230156 141.905106 211.230156 89.4403333 163.50444 89.4403333"></polygon>
                    <polygon id="Stroke-103" stroke="#000000" stroke-width="2" stroke-linecap="round" stroke-linejoin="round" mask="url(#mask-2)" points="163.50444 141.905106 211.230156 141.905106 211.230156 89.4403333 163.50444 89.4403333"></polygon>
                    <polygon id="Fill-104" fill="#FFFFFF" mask="url(#mask-2)" points="163.50444 89.2829149 211.230156 89.2829149 211.230156 74.5135106 163.50444 74.5135106"></polygon>
                    <polygon id="Stroke-105" stroke="#000000" stroke-width="2" stroke-linecap="round" stroke-linejoin="round" mask="url(#mask-2)" points="163.50444 89.2829149 211.230156 89.2829149 211.230156 74.5135106 163.50444 74.5135106"></polygon>
                    <path d="M209.937928,88.4477085 L209.953162,77.8587794 C209.953162,77.8587794 206.94063,81.0096872 202.249815,82.9367936 C193.36329,86.5866163 164.79946,86.7453043 164.79946,86.7453043 L164.772801,88.6495596 L209.937928,88.4477085 Z" id="Fill-106" fill="#D1D1D1" mask="url(#mask-2)"></path>
                    <path d="M234.636882,72.5420986 C235.738811,74.4260418 235.891151,81.6672901 233.458782,84.2062972 C230.670952,87.1147298 221.979931,86.3225596 221.979931,86.3225596 L221.979931,88.1734957 L239.01286,88.1734957 L239.01286,79.138439 C239.01286,79.138439 238.671364,74.5898078 234.636882,72.5420986" id="Fill-107" fill="#D1D1D1" mask="url(#mask-2)"></path>
                    <path d="M150.629389,72.5420986 C151.812566,74.4260418 153.455304,81.0325383 150.841396,83.5715454 C147.845367,86.479978 137.029197,86.3225596 137.029197,86.3225596 L137.029197,88.1734957 L155.33163,88.1734957 L155.33163,79.138439 C155.33163,79.138439 154.964743,74.5898078 150.629389,72.5420986" id="Fill-108" fill="#D1D1D1" mask="url(#mask-2)"></path>
                    <path d="M117.048608,137.989957 L114.797778,19.5897092 C114.797778,19.5897092 114.165565,13.8109291 108.468033,13.8109291 C102.277934,13.8109291 101.856459,20.045461 101.856459,20.045461 L99.4774092,137.989957 L117.048608,137.989957 Z" id="Fill-109" fill="#FFFFFF" mask="url(#mask-2)"></path>
                    <path d="M117.048608,137.989957 L114.797778,19.5897092 C114.797778,19.5897092 114.165565,13.8109291 108.468033,13.8109291 C102.277934,13.8109291 101.856459,20.045461 101.856459,20.045461 L99.4774092,137.989957 L117.048608,137.989957 L117.048608,137.989957 Z" id="Stroke-110" stroke="#000000" stroke-width="2" stroke-linecap="round" stroke-linejoin="round" mask="url(#mask-2)"></path>
                    <path d="M260.701313,137.841172 L263.080362,20.0464766 C263.080362,20.0464766 263.501838,13.8106752 269.691937,13.8106752 C275.388199,13.8106752 276.021682,19.5894553 276.021682,19.5894553 L278.272511,137.841172 L260.701313,137.841172 Z" id="Fill-111" fill="#FFFFFF" mask="url(#mask-2)"></path>
                    <path d="M260.701313,137.841172 L263.080362,20.0464766 C263.080362,20.0464766 263.501838,13.8106752 269.691937,13.8106752 C275.388199,13.8106752 276.021682,19.5894553 276.021682,19.5894553 L278.272511,137.841172 L260.701313,137.841172 L260.701313,137.841172 Z" id="Stroke-112" stroke="#000000" stroke-width="2" stroke-linecap="round" stroke-linejoin="round" mask="url(#mask-2)"></path>
                    <path d="M211.208194,75.5214965 L163.120669,75.5214965 C161.526172,71.781539 160.679413,67.6873901 160.679413,63.5310355 C160.679413,54.0173759 165.033811,45.1486241 172.332187,39.8027447 C177.414009,36.0754823 182.288903,31.7502837 187.17903,26.6265674 C191.618484,31.2323262 196.644449,35.6717801 202.481626,40.1429716 C209.68225,45.6653121 213.862726,54.6533972 213.667222,64.1860993 C213.585974,68.0961702 212.734137,71.9668865 211.208194,75.5214965" id="Fill-113" fill="#FFC83D" mask="url(#mask-2)"></path>
                    <path d="M211.208194,75.5214965 L163.120669,75.5214965 C161.526172,71.781539 160.679413,67.6873901 160.679413,63.5310355 C160.679413,54.0173759 165.033811,45.1486241 172.332187,39.8027447 C177.414009,36.0754823 182.288903,31.7502837 187.17903,26.6265674 C191.618484,31.2323262 196.644449,35.6717801 202.481626,40.1429716 C209.68225,45.6653121 213.862726,54.6533972 213.667222,64.1860993 C213.585974,68.0961702 212.734137,71.9668865 211.208194,75.5214965 L211.208194,75.5214965 Z" id="Stroke-114" stroke="#000000" stroke-width="2" stroke-linecap="round" stroke-linejoin="round" mask="url(#mask-2)"></path>
                    <path d="M276.952228,136.771488 L274.717901,20.1485447 C274.717901,20.1485447 273.397618,34.3695234 273.34176,36.917417 C271.437504,125.147913 270.930972,136.754984 262.074916,136.732133 L276.952228,136.771488 Z" id="Fill-115" fill="#D1D1D1" mask="url(#mask-2)"></path>
                    <path d="M115.725277,136.771488 L113.490951,20.1485447 C113.490951,20.1485447 112.170667,34.3695234 112.114809,36.917417 C110.210554,125.147913 109.704022,136.754984 100.847965,136.732133 L115.725277,136.771488 Z" id="Fill-116" fill="#D1D1D1" mask="url(#mask-2)"></path>
                    <path d="M257.834774,96.9932447 L281.328206,96.9932447" id="Stroke-117" stroke="#000000" stroke-width="2" stroke-linecap="round" stroke-linejoin="round" mask="url(#mask-2)"></path>
                    <path d="M97.2952596,46.0904688 L119.483643,46.0904688" id="Stroke-118" stroke="#000000" stroke-width="2" stroke-linecap="round" stroke-linejoin="round" mask="url(#mask-2)"></path>
                    <path d="M95.990083,96.9932447 L120.788565,96.9932447" id="Stroke-119" stroke="#000000" stroke-width="2" stroke-linecap="round" stroke-linejoin="round" mask="url(#mask-2)"></path>
                    <path d="M162.181236,140.698951 L131.276442,140.698951 L131.276442,139.509426 C131.276442,139.509426 157.923321,140.064199 157.923321,126.734412 L159.642229,90.7122489 L162.181236,90.7122489 L162.181236,140.698951 Z" id="Fill-120" fill="#D1D1D1" mask="url(#mask-2)"></path>
                    <path d="M244.064215,140.698951 L212.524669,140.698951 L212.524669,139.509426 C212.524669,139.509426 236.420534,141.333703 239.594293,128.850674 L241.473158,90.7122489 L244.064215,90.7122489 L244.064215,140.698951 Z" id="Fill-121" fill="#D1D1D1" mask="url(#mask-2)"></path>
                    <path d="M209.999245,140.698951 L164.799841,140.698951 L164.799841,139.509426 C164.799841,139.509426 193.891784,141.968455 200.451309,130.542923 C207.645586,119.329398 207.408189,90.7122489 207.408189,90.7122489 L209.999245,90.7122489 L209.999245,140.698951 Z" id="Fill-122" fill="#D1D1D1" mask="url(#mask-2)"></path>
                    <path d="M234.993739,141.905487 L234.993739,123.804906 C234.993739,118.069289 228.477377,114.603544 228.477377,114.603544 C228.477377,114.603544 221.941973,117.515785 221.941973,123.804906 L221.941973,141.905487 L234.993739,141.905487 Z" id="Fill-123" fill="#FFC83D" mask="url(#mask-2)"></path>
                    <path d="M234.993739,141.905487 L234.993739,123.804906 C234.993739,118.069289 228.477377,114.603544 228.477377,114.603544 C228.477377,114.603544 221.941973,117.515785 221.941973,123.804906 L221.941973,141.905487 L234.993739,141.905487 L234.993739,141.905487 Z" id="Stroke-124" stroke="#000000" stroke-width="2" stroke-linecap="round" stroke-linejoin="round" mask="url(#mask-2)"></path>
                    <path d="M139.714197,141.905487 L139.714197,123.804906 C139.714197,117.515785 146.903396,114.603544 146.903396,114.603544 C146.903396,114.603544 154.071013,118.069289 154.071013,123.804906 L154.071013,141.905487 L139.714197,141.905487 Z" id="Fill-125" fill="#FFC83D" mask="url(#mask-2)"></path>
                    <path d="M139.714197,141.905487 L139.714197,123.804906 C139.714197,117.515785 146.903396,114.603544 146.903396,114.603544 C146.903396,114.603544 154.071013,118.069289 154.071013,123.804906 L154.071013,141.905487 L139.714197,141.905487 L139.714197,141.905487 Z" id="Stroke-126" stroke="#000000" stroke-width="2" stroke-linecap="round" stroke-linejoin="round" mask="url(#mask-2)"></path>
                    <path d="M259.13995,46.0904688 L281.328333,46.0904688" id="Stroke-127" stroke="#000000" stroke-width="2" stroke-linecap="round" stroke-linejoin="round" mask="url(#mask-2)"></path>
                    <path d="M176.259777,141.905487 L176.259777,112.932877 C176.259777,102.583884 187.370472,97.7940475 187.370472,97.7940475 C187.370472,97.7940475 198.44816,103.496657 198.44816,112.932877 L198.44816,141.905487 L176.259777,141.905487 Z" id="Fill-128" fill="#FFC83D" mask="url(#mask-2)"></path>
                    <path d="M176.259777,141.905487 L176.259777,112.932877 C176.259777,102.583884 187.370472,97.7940475 187.370472,97.7940475 C187.370472,97.7940475 198.44816,103.496657 198.44816,112.932877 L198.44816,141.905487 L176.259777,141.905487 L176.259777,141.905487 Z" id="Stroke-129" stroke="#000000" stroke-width="2" stroke-linecap="round" stroke-linejoin="round" mask="url(#mask-2)"></path>
                    <path d="M82.2339965,123.523965 C83.2826064,124.572574 83.2838759,126.27244 82.235266,127.32105 C81.710961,127.846624 81.0228901,128.108142 80.3360887,128.108142 C79.6480177,128.108142 78.9612163,127.846624 78.4369113,127.322319 C77.3883014,126.274979 77.3870319,124.573844 78.4356418,123.525234 L80.3335496,121.624787 L82.2339965,123.523965 Z" id="Fill-130" fill="#FFC83D" mask="url(#mask-2)"></path>
                    <path d="M82.2339965,123.523965 C83.2826064,124.572574 83.2838759,126.27244 82.235266,127.32105 C81.710961,127.846624 81.0228901,128.108142 80.3360887,128.108142 C79.6480177,128.108142 78.9612163,127.846624 78.4369113,127.322319 C77.3883014,126.274979 77.3870319,124.573844 78.4356418,123.525234 L80.3335496,121.624787 L82.2339965,123.523965 L82.2339965,123.523965 Z" id="Stroke-131" stroke="#000000" stroke-width="2" stroke-linecap="round" stroke-linejoin="round" mask="url(#mask-2)"></path>
                    <path d="M28.8436284,123.540976 C29.8935078,124.589586 29.8947773,126.289451 28.8448979,127.338061 C28.3218624,127.863635 27.635061,128.125153 26.9469901,128.125153 L26.9457206,128.125153 C26.2589191,128.125153 25.5733872,127.864905 25.0478128,127.33933 C23.9979333,126.29199 23.9966638,124.590855 25.0465433,123.542245 L26.9457206,121.641799 L28.8436284,123.540976 Z" id="Fill-132" fill="#FFC83D" mask="url(#mask-2)"></path>
                    <path d="M28.8436284,123.540976 C29.8935078,124.589586 29.8947773,126.289451 28.8448979,127.338061 C28.3218624,127.863635 27.635061,128.125153 26.9469901,128.125153 L26.9457206,128.125153 C26.2589191,128.125153 25.5733872,127.864905 25.0478128,127.33933 C23.9979333,126.29199 23.9966638,124.590855 25.0465433,123.542245 L26.9457206,121.641799 L28.8436284,123.540976 L28.8436284,123.540976 Z" id="Stroke-133" stroke="#000000" stroke-width="2" stroke-linecap="round" stroke-linejoin="round" mask="url(#mask-2)"></path>
                    <path d="M35.567427,104.021724 C36.6173064,105.071604 36.6185759,106.771469 35.5686965,107.820079 C35.045661,108.345653 34.3575901,108.607171 33.6695191,108.607171 C32.9827177,108.60844 32.2971858,108.346923 31.7716113,107.821348 C30.7204624,106.774008 30.7204624,105.072873 31.7703418,104.022994 L33.6669801,102.122547 L35.567427,104.021724 Z" id="Fill-134" fill="#FFC83D" mask="url(#mask-2)"></path>
                    <path d="M35.567427,104.021724 C36.6173064,105.071604 36.6185759,106.771469 35.5686965,107.820079 C35.045661,108.345653 34.3575901,108.607171 33.6695191,108.607171 C32.9827177,108.60844 32.2971858,108.346923 31.7716113,107.821348 C30.7204624,106.774008 30.7204624,105.072873 31.7703418,104.022994 L33.6669801,102.122547 L35.567427,104.021724 L35.567427,104.021724 Z" id="Stroke-135" stroke="#000000" stroke-width="2" stroke-linecap="round" stroke-linejoin="round" mask="url(#mask-2)"></path>
                    <path d="M75.4976298,104.009029 C76.5462397,105.058909 76.5475092,106.758774 75.4988993,107.807384 C74.9745943,108.332958 74.2877929,108.594476 73.599722,108.594476 C72.9116511,108.595745 72.2248496,108.334228 71.7005447,107.808653 C70.6519348,106.761313 70.6506652,105.060178 71.6992752,104.010299 L73.597183,102.109852 L75.4976298,104.009029 Z" id="Fill-136" fill="#FFC83D" mask="url(#mask-2)"></path>
                    <path d="M75.4976298,104.009029 C76.5462397,105.058909 76.5475092,106.758774 75.4988993,107.807384 C74.9745943,108.332958 74.2877929,108.594476 73.599722,108.594476 C72.9116511,108.595745 72.2248496,108.334228 71.7005447,107.808653 C70.6519348,106.761313 70.6506652,105.060178 71.6992752,104.010299 L73.597183,102.109852 L75.4976298,104.009029 L75.4976298,104.009029 Z" id="Stroke-137" stroke="#000000" stroke-width="2" stroke-linecap="round" stroke-linejoin="round" mask="url(#mask-2)"></path>
                    <path d="M66.5707348,90.4274993 C65.8826638,90.4274993 65.1958624,90.1647121 64.6715574,89.6416766 C63.6229475,88.5917972 63.621678,86.8919319 64.6702879,85.843322 L66.5681957,83.9428752 L68.4686426,85.8420525 C69.5172525,86.8893929 69.518522,88.5905277 68.4699121,89.6404071 C67.9456071,90.1634426 67.2588057,90.4274993 66.5707348,90.4274993" id="Fill-138" fill="#FFC83D" mask="url(#mask-2)"></path>
                    <path d="M66.5707348,90.4274993 C65.8826638,90.4274993 65.1958624,90.1647121 64.6715574,89.6416766 C63.6229475,88.5917972 63.621678,86.8919319 64.6702879,85.843322 L66.5681957,83.9428752 L68.4686426,85.8420525 C69.5172525,86.8893929 69.518522,88.5905277 68.4699121,89.6404071 C67.9456071,90.1634426 67.2588057,90.4274993 66.5707348,90.4274993 L66.5707348,90.4274993 Z" id="Stroke-139" stroke="#000000" stroke-width="2" stroke-linecap="round" stroke-linejoin="round" mask="url(#mask-2)"></path>
                    <path d="M55.5254191,79.360983 C56.5740291,80.4108624 56.5752986,82.1107277 55.5266887,83.1593376 C55.0023837,83.6836426 54.3143128,83.9464298 53.6275113,83.9464298 C52.9394404,83.9476993 52.2513695,83.6836426 51.728334,83.1606071 C50.6797241,82.1132667 50.6784546,80.4121319 51.7270645,79.3622525 L53.6249723,77.4618057 L55.5254191,79.360983 Z" id="Fill-140" fill="#FFC83D" mask="url(#mask-2)"></path>
                    <path d="M55.5254191,79.360983 C56.5740291,80.4108624 56.5752986,82.1107277 55.5266887,83.1593376 C55.0023837,83.6836426 54.3143128,83.9464298 53.6275113,83.9464298 C52.9394404,83.9476993 52.2513695,83.6836426 51.728334,83.1606071 C50.6797241,82.1132667 50.6784546,80.4121319 51.7270645,79.3622525 L53.6249723,77.4618057 L55.5254191,79.360983 L55.5254191,79.360983 Z" id="Stroke-141" stroke="#000000" stroke-width="2" stroke-linecap="round" stroke-linejoin="round" mask="url(#mask-2)"></path>
                    <path d="M40.686827,90.435878 C40.0000255,90.435878 39.3144936,90.1730908 38.7889191,89.6500553 C37.7390397,88.6001759 37.7377702,86.9003106 38.7876496,85.8517007 L40.6842879,83.9512539 L42.5847348,85.8491617 C43.6346142,86.8977716 43.6358837,88.5976369 42.5860043,89.6487858 C42.0629688,90.1718213 41.3748979,90.435878 40.686827,90.435878" id="Fill-142" fill="#FFC83D" mask="url(#mask-2)"></path>
                    <path d="M40.686827,90.435878 C40.0000255,90.435878 39.3144936,90.1730908 38.7889191,89.6500553 C37.7390397,88.6001759 37.7377702,86.9003106 38.7876496,85.8517007 L40.6842879,83.9512539 L42.5847348,85.8491617 C43.6346142,86.8977716 43.6358837,88.5976369 42.5860043,89.6487858 C42.0629688,90.1718213 41.3748979,90.435878 40.686827,90.435878 L40.686827,90.435878 Z" id="Stroke-143" stroke="#000000" stroke-width="2" stroke-linecap="round" stroke-linejoin="round" mask="url(#mask-2)"></path>
                    <polygon id="Fill-144" fill="#FFC83D" mask="url(#mask-2)" points="56.0964418 87.5354433 57.032066 94.0187979 50.2287965 94.0200674 51.1606121 87.5367128 53.628527 87.5367128"></polygon>
                    <polygon id="Stroke-145" stroke="#000000" stroke-width="2" stroke-linecap="round" stroke-linejoin="round" mask="url(#mask-2)" points="56.0964418 87.5354433 57.032066 94.0187979 50.2287965 94.0200674 51.1606121 87.5367128 53.628527 87.5367128"></polygon>
                    <polygon id="Fill-146" fill="#FFC83D" mask="url(#mask-2)" points="56.1013929 102.992157 57.0382865 112.862547 50.235017 112.865086 51.1655631 102.993426"></polygon>
                    <polygon id="Stroke-147" stroke="#000000" stroke-width="2" stroke-linecap="round" stroke-linejoin="round" mask="url(#mask-2)" points="56.1013929 102.992157 57.0382865 112.862547 50.235017 112.865086 51.1655631 102.993426"></polygon>
                    <polygon id="Fill-148" fill="#FFC83D" mask="url(#mask-2)" points="56.1072326 121.834763 57.0441262 131.705153 50.2408567 131.707692 51.1714028 121.836033"></polygon>
                    <polygon id="Stroke-149" stroke="#000000" stroke-width="2" stroke-linecap="round" stroke-linejoin="round" mask="url(#mask-2)" points="56.1072326 121.834763 57.0441262 131.705153 50.2408567 131.707692 51.1714028 121.836033"></polygon>
                    <path d="M70.0985582,94.0142277 L70.0998277,96.6662206 C70.0998277,100.156086 67.2713738,102.988348 63.780239,102.989618 L56.1010121,102.992157 L51.1664518,102.993426 L43.4872248,102.995965 C39.9948206,102.997235 37.1638277,100.167511 37.1625582,96.6763766 L37.1612887,94.0243837 L40.6879695,94.0231142 L50.2282887,94.0205752 L57.0315582,94.0180362 L66.5718773,94.0154972 L70.0985582,94.0142277 Z" id="Fill-150" fill="#FFFFFF" mask="url(#mask-2)"></path>
                    <path d="M70.0985582,94.0142277 L70.0998277,96.6662206 C70.0998277,100.156086 67.2713738,102.988348 63.780239,102.989618 L56.1010121,102.992157 L51.1664518,102.993426 L43.4872248,102.995965 C39.9948206,102.997235 37.1638277,100.167511 37.1625582,96.6763766 L37.1612887,94.0243837 L40.6879695,94.0231142 L50.2282887,94.0205752 L57.0315582,94.0180362 L66.5718773,94.0154972 L70.0985582,94.0142277 L70.0985582,94.0142277 Z" id="Stroke-151" stroke="#000000" stroke-width="2" stroke-linecap="round" stroke-linejoin="round" mask="url(#mask-2)"></path>
                    <path d="M77.1111688,112.856326 L77.1124383,115.50578 C77.1137078,118.998184 74.2827149,121.829177 70.7928496,121.830447 L56.1072326,121.834255 L51.1714028,121.836794 L36.4870553,121.840603 C32.9946511,121.841872 30.1623887,119.013418 30.1611191,115.521014 L30.1611191,112.87156 L50.2345092,112.865213 L57.0377787,112.862674 L77.1111688,112.856326 Z" id="Fill-152" fill="#FFFFFF" mask="url(#mask-2)"></path>
                    <path d="M77.1111688,112.856326 L77.1124383,115.50578 C77.1137078,118.998184 74.2827149,121.829177 70.7928496,121.830447 L56.1072326,121.834255 L51.1714028,121.836794 L36.4870553,121.840603 C32.9946511,121.841872 30.1623887,119.013418 30.1611191,115.521014 L30.1611191,112.87156 L50.2345092,112.865213 L57.0377787,112.862674 L77.1111688,112.856326 L77.1111688,112.856326 Z" id="Stroke-153" stroke="#000000" stroke-width="2" stroke-linecap="round" stroke-linejoin="round" mask="url(#mask-2)"></path>
                    <path d="M84.5951461,131.696521 L84.5964156,134.345974 C84.5976851,137.838379 81.7679617,140.670641 78.276827,140.671911 L29.0137418,140.688414 C25.5226071,140.688414 22.6903447,137.858691 22.6890752,134.366287 L22.6890752,131.716833 L26.9482596,131.715563 L50.2398411,131.707946 L57.0443801,131.705407 L80.3372312,131.69779 L84.5951461,131.696521 Z" id="Fill-154" fill="#FFFFFF" mask="url(#mask-2)"></path>
                    <path d="M84.5951461,131.696521 L84.5964156,134.345974 C84.5976851,137.838379 81.7679617,140.670641 78.276827,140.671911 L29.0137418,140.688414 C25.5226071,140.688414 22.6903447,137.858691 22.6890752,134.366287 L22.6890752,131.716833 L26.9482596,131.715563 L50.2398411,131.707946 L57.0443801,131.705407 L80.3372312,131.69779 L84.5951461,131.696521 L84.5951461,131.696521 Z" id="Stroke-155" stroke="#000000" stroke-width="2" stroke-linecap="round" stroke-linejoin="round" mask="url(#mask-2)"></path>
                    <path d="M37.8704333,119.22314 C37.8704333,119.22314 61.4603482,119.423722 67.5983979,118.339566 C70.9828943,117.74163 72.8871496,114.118467 72.8871496,114.118467 L76.0774121,114.118467 L76.0774121,114.872552 C76.0774121,118.48302 73.7072489,120.598013 71.221561,120.598013 L55.7183837,120.594204 L50.9513979,120.592935 L36.6275894,120.587857 C34.4326177,120.587857 32.9511071,119.27646 32.1614759,117.780984 C33.2100858,118.754694 35.3314262,119.27646 37.8704333,119.22314" id="Fill-156" fill="#D1D1D1" mask="url(#mask-2)"></path>
                    <path d="M44.9018326,100.497963 C44.9018326,100.497963 54.2656908,100.698545 60.4037404,99.6143887 C63.7895064,99.0164525 65.6937617,95.3932894 65.6937617,95.3932894 L68.8840241,95.3932894 L68.8840241,96.1473745 C68.8840241,99.7578426 66.513861,101.872835 64.028173,101.872835 L43.6589887,101.862679 C41.464017,101.862679 39.9825064,100.551282 39.1928752,99.0558071 C40.2414851,100.029516 42.3628255,100.551282 44.9018326,100.497963" id="Fill-157" fill="#D1D1D1" mask="url(#mask-2)"></path>
                    <path d="M30.4241603,138.159944 C30.4241603,138.159944 68.7593589,138.360526 74.8974085,137.27637 C78.2831745,136.678433 80.1874298,133.05527 80.1874298,133.05527 L83.3764227,133.05527 L83.3764227,133.809355 C83.3764227,137.419823 81.0075291,139.534816 78.5205716,139.534816 L63.0173943,139.531008 L58.2504085,139.529738 L29.1813163,139.52466 C26.9863447,139.52466 25.504834,138.213263 24.7152028,136.717788 C25.7638128,137.691497 27.8851532,138.213263 30.4241603,138.159944" id="Fill-158" fill="#D1D1D1" mask="url(#mask-2)"></path>
                    <path d="M340.576826,109.303874 L342.30462,112.143754 C342.288116,112.324023 342.267804,112.505562 342.244953,112.684562 L342.229719,112.79374 L336.459826,112.79374 C334.065542,110.36391 332.655123,107.08986 332.575145,103.616499 L332.384719,95.5335695 L338.209201,101.139697 C338.351386,101.275534 338.488492,101.41391 338.62179,101.554825 C338.480875,104.241094 339.142287,106.946406 340.576826,109.303874" id="Fill-159" fill="#FFFFFF" mask="url(#mask-2)"></path>
                    <path d="M340.576826,109.303874 L342.30462,112.143754 C342.288116,112.324023 342.267804,112.505562 342.244953,112.684562 L342.229719,112.79374 L336.459826,112.79374 C334.065542,110.36391 332.655123,107.08986 332.575145,103.616499 L332.384719,95.5335695 L338.209201,101.139697 C338.351386,101.275534 338.488492,101.41391 338.62179,101.554825 C338.480875,104.241094 339.142287,106.946406 340.576826,109.303874 L340.576826,109.303874 Z" id="Stroke-160" stroke="#000000" stroke-width="2" stroke-linecap="round" stroke-linejoin="round" mask="url(#mask-2)"></path>
                    <path d="M340.731578,110.759868 C340.731578,110.759868 337.482918,101.98379 337.345812,101.873343 L333.695989,98.6196057 C336.71106,104.253662 335.758933,109.384996 339.567443,111.289251 L340.731578,110.759868 Z" id="Fill-161" fill="#D1D1D1" mask="url(#mask-2)"></path>
                    <path d="M353.017579,95.5333156 L352.827154,103.617514 C352.745906,107.089606 351.336757,110.363656 348.941204,112.793486 L343.172579,112.793486 L343.157345,112.685578 C343.133225,112.504039 343.114182,112.3225 343.097679,112.14223 L344.825473,109.303621 C346.260012,106.946152 346.920154,104.24211 346.779239,101.55584 C346.912537,101.413656 347.050913,101.27528 347.191828,101.139443 L353.017579,95.5333156 Z" id="Fill-162" fill="#FFFFFF" mask="url(#mask-2)"></path>
                    <path d="M353.017579,95.5333156 L352.827154,103.617514 C352.745906,107.089606 351.336757,110.363656 348.941204,112.793486 L343.172579,112.793486 L343.157345,112.685578 C343.133225,112.504039 343.114182,112.3225 343.097679,112.14223 L344.825473,109.303621 C346.260012,106.946152 346.920154,104.24211 346.779239,101.55584 C346.912537,101.413656 347.050913,101.27528 347.191828,101.139443 L353.017579,95.5333156 L353.017579,95.5333156 Z" id="Stroke-163" stroke="#000000" stroke-width="2" stroke-linecap="round" stroke-linejoin="round" mask="url(#mask-2)"></path>
                    <path d="M350.543825,99.7574617 C350.543825,99.7574617 350.424491,108.009235 345.069726,111.539724 L348.371704,111.539724 C349.830364,109.91349 351.422321,107.019022 351.495952,104.565072 L351.65464,98.6072915 L350.543825,99.7574617 Z" id="Fill-164" fill="#D1D1D1" mask="url(#mask-2)"></path>
                    <path d="M346.778985,101.55546 C346.9199,104.242999 346.259758,106.945772 344.825219,109.304509 L343.097425,112.14185 L342.70134,112.794374 L342.303985,112.143119 L340.57746,109.304509 C339.141652,106.945772 338.48024,104.241729 338.621155,101.55546 C338.699865,100.047289 339.031205,98.5429277 339.622794,97.1109277 L342.70134,89.6348213 L345.779886,97.1109277 C346.368935,98.5441972 346.701545,100.047289 346.778985,101.55546" id="Fill-165" fill="#FFFFFF" mask="url(#mask-2)"></path>
                    <path d="M346.778985,101.55546 C346.9199,104.242999 346.259758,106.945772 344.825219,109.304509 L343.097425,112.14185 L342.70134,112.794374 L342.303985,112.143119 L340.57746,109.304509 C339.141652,106.945772 338.48024,104.241729 338.621155,101.55546 C338.699865,100.047289 339.031205,98.5429277 339.622794,97.1109277 L342.70134,89.6348213 L345.779886,97.1109277 C346.368935,98.5441972 346.701545,100.047289 346.778985,101.55546 L346.778985,101.55546 Z" id="Stroke-166" stroke="#000000" stroke-width="2" stroke-linecap="round" stroke-linejoin="round" mask="url(#mask-2)"></path>
                    <path d="M342.707179,93.0510553 L344.732038,97.9716511 C345.133201,99.0024879 345.436612,100.533509 345.488662,101.618935 C345.585144,103.54985 345.196676,105.996183 344.276286,107.612261 C343.853541,108.485679 343.146428,109.620616 343.146428,109.620616 L342.250158,109.61046 C342.250158,109.61046 344.434974,103.725041 342.707179,93.0510553" id="Fill-167" fill="#D1D1D1" mask="url(#mask-2)"></path>
                    <path d="M334.872819,117.101546 C333.015535,117.101546 331.503557,115.768567 331.503557,114.128369 L331.503557,113.846539 C331.503557,112.20761 333.015535,110.874631 334.872819,110.874631 L349.337543,110.874631 C351.194826,110.874631 352.706805,112.20761 352.706805,113.846539 L352.706805,114.128369 C352.706805,115.768567 351.194826,117.101546 349.337543,117.101546 L334.872819,117.101546 Z" id="Fill-168" fill="#FFC83D" mask="url(#mask-2)"></path>
                    <path d="M349.337416,109.604493 L348.94133,109.604493 L343.172706,109.604493 L342.701721,109.604493 L342.229465,109.604493 L336.459572,109.604493 L334.872692,109.604493 C332.314643,109.604493 330.233926,111.507479 330.233926,113.845904 L330.233926,114.129004 C330.233926,116.467429 332.314643,118.370415 334.872692,118.370415 L335.207841,118.370415 L349.002267,118.370415 L349.337416,118.370415 C351.895465,118.370415 353.976182,116.467429 353.976182,114.129004 L353.976182,113.845904 C353.976182,111.507479 351.895465,109.604493 349.337416,109.604493 M349.337416,112.1435 C350.496472,112.1435 351.437174,112.905202 351.437174,113.845904 L351.437174,114.129004 C351.437174,115.069706 350.496472,115.831408 349.337416,115.831408 L349.002267,115.831408 L335.207841,115.831408 L334.872692,115.831408 C333.712366,115.831408 332.772933,115.069706 332.772933,114.129004 L332.772933,113.845904 C332.772933,112.905202 333.712366,112.1435 334.872692,112.1435 L336.459572,112.1435 L342.229465,112.1435 L342.701721,112.1435 L343.172706,112.1435 L348.94133,112.1435 L349.337416,112.1435" id="Fill-169" fill="#000000" mask="url(#mask-2)"></path>
                    <path d="M354.134616,121.817117 C355.194651,122.741316 355.561538,124.230443 355.056275,125.54184 L329.154594,125.54184 C328.648062,124.230443 329.016218,122.741316 330.076254,121.817117 L335.207587,117.339578 L349.002013,117.339578 L354.134616,121.817117 Z" id="Fill-170" fill="#FFFFFF" mask="url(#mask-2)"></path>
                    <path d="M354.134616,121.817117 C355.194651,122.741316 355.561538,124.230443 355.056275,125.54184 L329.154594,125.54184 C328.648062,124.230443 329.016218,122.741316 330.076254,121.817117 L335.207587,117.339578 L349.002013,117.339578 L354.134616,121.817117 L354.134616,121.817117 Z" id="Stroke-171" stroke="#000000" stroke-width="2" stroke-linecap="round" stroke-linejoin="round" mask="url(#mask-2)"></path>
                    <polygon id="Fill-172" fill="#FFFFFF" mask="url(#mask-2)" points="355.056529 125.542475 349.002267 141.23227 335.207841 141.23227 329.154848 125.542475"></polygon>
                    <polygon id="Stroke-173" stroke="#000000" stroke-width="2" stroke-linecap="round" stroke-linejoin="round" mask="url(#mask-2)" points="355.056529 125.542475 349.002267 141.23227 335.207841 141.23227 329.154848 125.542475"></polygon>
                    <path d="M336.914308,122.894926 C337.462733,122.894926 337.90706,122.450599 337.90706,121.902174 C337.90706,121.355018 337.462733,120.910691 336.914308,120.910691 C336.365882,120.910691 335.921556,121.355018 335.921556,121.902174 C335.921556,122.450599 336.365882,122.894926 336.914308,122.894926" id="Fill-174" fill="#000000" mask="url(#mask-2)"></path>
                    <path d="M335.653564,118.641327 L348.507287,118.588008 C348.507287,118.588008 354.061365,122.925901 353.955996,124.195405 L347.687188,124.23476 C347.687188,124.23476 348.665975,119.540135 335.653564,118.641327" id="Fill-175" fill="#D1D1D1" mask="url(#mask-2)"></path>
                    <path d="M346.803233,122.894926 C347.350389,122.894926 347.795984,122.450599 347.795984,121.902174 C347.795984,121.355018 347.350389,120.910691 346.803233,120.910691 C346.254807,120.910691 345.810481,121.355018 345.810481,121.902174 C345.810481,122.450599 346.254807,122.894926 346.803233,122.894926" id="Fill-176" fill="#000000" mask="url(#mask-2)"></path>
                    <path d="M341.803547,122.894926 C342.350703,122.894926 342.796299,122.450599 342.796299,121.902174 C342.796299,121.355018 342.350703,120.910691 341.803547,120.910691 C341.253852,120.910691 340.810795,121.355018 340.810795,121.902174 C340.810795,122.450599 341.253852,122.894926 341.803547,122.894926" id="Fill-177" fill="#000000" mask="url(#mask-2)"></path>
                    <path d="M353.215114,126.78735 L348.11044,139.95845 L336.103476,139.985109 C336.103476,139.985109 346.655589,138.794315 347.131653,126.833052 L353.215114,126.78735 Z" id="Fill-178" fill="#D1D1D1" mask="url(#mask-2)"></path>
                    <path d="M346.803233,128.480995 C346.254807,128.480995 345.810481,128.925321 345.810481,129.473747 C345.810481,130.022172 346.254807,130.465229 346.803233,130.465229 C347.350389,130.465229 347.795984,130.022172 347.795984,129.473747 C347.795984,128.925321 347.350389,128.480995 346.803233,128.480995" id="Fill-179" fill="#000000" mask="url(#mask-2)"></path>
                    <path d="M341.803547,128.480995 C341.253852,128.480995 340.810795,128.925321 340.810795,129.473747 C340.810795,130.022172 341.253852,130.465229 341.803547,130.465229 C342.350703,130.465229 342.796299,130.022172 342.796299,129.473747 C342.796299,128.925321 342.350703,128.480995 341.803547,128.480995" id="Fill-180" fill="#000000" mask="url(#mask-2)"></path>
                    <path d="M336.914308,128.480995 C336.365882,128.480995 335.921556,128.925321 335.921556,129.473747 C335.921556,130.022172 336.365882,130.465229 336.914308,130.465229 C337.462733,130.465229 337.90706,130.022172 337.90706,129.473747 C337.90706,128.925321 337.462733,128.480995 336.914308,128.480995" id="Fill-181" fill="#000000" mask="url(#mask-2)"></path>
                </g>
                <g id="plane" transform="translate(117.110230, 115.168677) rotate(26.000000) translate(-117.110230, -115.168677) translate(87.110230, 99.668677)" fill="#373737">
                    <path d="M56.5074577,4.21624545 C56.521894,4.24632111 56.5399394,4.27399071 56.5543757,4.30406636 L56.892426,5.0306941 C57.4795027,6.28905937 56.5736241,7.2550893 55.6087972,7.70502105 L18.2716802,25.5579279 L13.5919088,27.7402172 C12.7558057,28.1299976 11.7801515,28.0253343 11.0451026,27.4671302 L3.47806866,21.7142596 L5.44381325,20.7975537 L10.50735,23.5296259 C10.8634457,23.7209071 11.291723,23.718501 11.6466157,23.5236108 L22.7734037,17.3893809 L24.4227525,18.7740639 C24.633282,18.9340664 24.8871205,19.0158721 25.1421621,19.0158721 C25.3129918,19.0158721 25.4850245,18.9797813 25.645027,18.9051937 L35.4472833,14.3336947 C35.8551092,14.1436166 36.1209779,13.7393998 36.1342112,13.2906711 C36.1474445,12.8407393 35.9056363,12.4220863 35.5098407,12.2091506 L33.7341742,11.3465809 L47.0288153,4.01774615 C50.0508168,2.56569369 52.6722106,2.06162577 54.4623134,2.57892698 L56.5074577,4.21624545 Z M25.2901343,16.4450054 L12.4779067,6.57417654 L16.4430806,4.72512548 L32.2953551,13.1775866 L25.2901343,16.4450054 Z M59.0482487,4.02496431 L58.7101984,3.29953959 C58.0725946,1.93169895 56.9634045,0.93318732 55.5029309,0.412277033 C53.0668031,-0.456307787 49.7705117,0.0537752652 45.9665433,1.88839002 C45.9472949,1.8968112 45.9280464,1.90763843 45.908798,1.91726264 L31.2427072,10.0028008 L17.0469997,2.34674295 C16.7161675,2.16869509 16.3203719,2.15786786 15.9799155,2.3166673 L9.68688619,5.25084787 C9.309136,5.42648968 9.0504854,5.7873975 9.00597344,6.20244149 C8.96146147,6.61628246 9.13710328,7.02410829 9.46913847,7.27554074 L20.7017929,15.8146198 L11.0655541,21.1271829 L6.04652931,18.4203742 C5.71569714,18.2423264 5.31990157,18.2302961 4.97944519,18.3890955 L0.687048186,20.3909309 C0.309298002,20.5677757 0.0506473974,20.9286836 0.007338459,21.3425245 C-0.0371735055,21.7563655 0.1384683,22.1641913 0.469300468,22.4168268 L9.60508042,29.3606933 C10.4676501,30.0163425 11.5010495,30.3531898 12.541667,30.3531898 C13.2394222,30.3531898 13.9407864,30.2028115 14.5976386,29.8960399 L19.2870342,27.7089385 L56.6241512,9.85603165 C57.7453715,9.33391834 58.6163624,8.49781522 59.0807304,7.50291267 C59.5920165,6.40214382 59.5811893,5.16663605 59.0482487,4.02496431 L59.0482487,4.02496431 Z" id="Fill-1"></path>
                </g>
            </g>
        </g>
    </g>
</svg>