<?xml version="1.0" encoding="UTF-8"?>
<svg width="372px" height="178px" viewBox="0 0 372 178" version="1.1" xmlns="http://www.w3.org/2000/svg" xmlns:xlink="http://www.w3.org/1999/xlink">
    <!-- Generator: sketchtool 41.2 (35397) - http://www.bohemiancoding.com/sketch -->
    <title>B3F3163B-975E-454B-BD5A-D23DAB0BC95D</title>
    <desc>Created with sketchtool.</desc>
    <defs></defs>
    <g id="Page-1" stroke="none" stroke-width="1" fill="none" fill-rule="evenodd">
        <g id="502_M2U_Solutions-Copy-25" transform="translate(-454.000000, -175.000000)">
            <g id="Group-4">
                <g id="Page-1" transform="translate(455.367133, 175.000000)">
                    <path d="M91.3116552,16.7874462 C91.3191657,16.2567049 91.4293196,15.3404252 92.013886,14.6156629 C92.6497741,13.8270615 94.9930469,12.0983972 96.5715014,12.0070196" id="Stroke-1" stroke="#D1D1D1" stroke-width="2" stroke-linecap="round" stroke-linejoin="round"></path>
                    <path d="M83.8658811,12.328093 C84.631951,12.3193308 89.5901259,13.6749741 90.021979,16.9733308" id="Stroke-3" stroke="#D1D1D1" stroke-width="2" stroke-linecap="round" stroke-linejoin="round"></path>
                    <g id="Group-8" transform="translate(0.000000, 136.615804)">
                        <path d="M369.1159,0.964221678 L0.000375524476,0.964221678" id="Fill-5" fill="#FFFFFF"></path>
                        <path d="M369.1159,0.964221678 L0.000375524476,0.964221678" id="Stroke-7" stroke="#000000" stroke-width="2" stroke-linecap="round" stroke-linejoin="round"></path>
                    </g>
                    <path d="M8.03835175,148.022986 L361.365576,148.022986" id="Stroke-9" stroke="#E2E2E2" stroke-width="12" stroke-linecap="round" stroke-linejoin="round"></path>
                    <g id="Group-14" transform="translate(33.797203, 157.895524)">
                        <path d="M164.247145,0.834540559 L0.996641958,0.834540559" id="Fill-11" fill="#FFFFFF"></path>
                        <path d="M164.247145,0.834540559 L0.996641958,0.834540559" id="Stroke-13" stroke="#000000" stroke-width="2" stroke-linecap="round" stroke-linejoin="round"></path>
                    </g>
                    <g id="Group-18" transform="translate(207.790210, 157.895524)">
                        <path d="M75.6207406,0.834540559 L0.509586713,0.834540559" id="Fill-15" fill="#FFFFFF"></path>
                        <path d="M75.6207406,0.834540559 L0.509586713,0.834540559" id="Stroke-17" stroke="#000000" stroke-width="2" stroke-linecap="round" stroke-linejoin="round"></path>
                    </g>
                    <g id="Group-22" transform="translate(292.909091, 157.895524)">
                        <path d="M44.054779,0.834540559 L0.685457343,0.834540559" id="Fill-19" fill="#FFFFFF"></path>
                        <path d="M44.054779,0.834540559 L0.685457343,0.834540559" id="Stroke-21" stroke="#000000" stroke-width="2" stroke-linecap="round" stroke-linejoin="round"></path>
                    </g>
                    <g id="Group-26" transform="translate(229.069930, 176.671748)">
                        <path d="M33.877565,0 L0.47966993,0" id="Fill-23" fill="#FFFFFF"></path>
                        <path d="M33.877565,0 L0.47966993,0" id="Stroke-25" stroke="#000000" stroke-width="2" stroke-linecap="round" stroke-linejoin="round"></path>
                    </g>
                    <g id="Group-30" transform="translate(88.874126, 176.671748)">
                        <path d="M49.3280189,0 L0.399683217,0" id="Fill-27" fill="#FFFFFF"></path>
                        <path d="M49.3280189,0 L0.399683217,0" id="Stroke-29" stroke="#000000" stroke-width="2" stroke-linecap="round" stroke-linejoin="round"></path>
                    </g>
                    <g id="Group-34" transform="translate(147.706294, 176.671748)">
                        <path d="M72.6427063,0 L1.00515385,0" id="Fill-31" fill="#FFFFFF"></path>
                        <path d="M72.6427063,0 L1.00515385,0" id="Stroke-33" stroke="#000000" stroke-width="2" stroke-linecap="round" stroke-linejoin="round"></path>
                    </g>
                    <g id="Group-38" transform="translate(65.090909, 176.671748)">
                        <path d="M15.7717776,0 L1.14635105,0" id="Fill-35" fill="#FFFFFF"></path>
                        <path d="M15.7717776,0 L1.14635105,0" id="Stroke-37" stroke="#000000" stroke-width="2" stroke-linecap="round" stroke-linejoin="round"></path>
                    </g>
                    <path d="M325.030954,69.2711224 C325.037213,68.7403811 325.143611,67.8241014 325.728178,67.0980874 C326.361562,66.3069825 328.699828,64.5720594 330.278283,64.4756748" id="Stroke-39" stroke="#D1D1D1" stroke-width="2" stroke-linecap="round" stroke-linejoin="round"></path>
                    <path d="M317.573163,64.8319224 C318.339233,64.8219084 323.301163,66.1637825 323.741778,69.4608874" id="Stroke-41" stroke="#D1D1D1" stroke-width="2" stroke-linecap="round" stroke-linejoin="round"></path>
                    <path d="M305.972962,40.4678944 C305.97922,39.9371531 306.085619,39.0208734 306.670185,38.2948594 C307.30357,37.5037545 309.641836,35.7688315 311.22029,35.6724469" id="Stroke-43" stroke="#D1D1D1" stroke-width="2" stroke-linecap="round" stroke-linejoin="round"></path>
                    <path d="M298.515045,36.0286944 C299.281115,36.0186804 304.243045,37.3605545 304.683661,40.6576594" id="Stroke-45" stroke="#D1D1D1" stroke-width="2" stroke-linecap="round" stroke-linejoin="round"></path>
                    <path d="M234.595272,20.1621594 C234.595272,27.8942084 240.862776,34.1617119 248.594824,34.1617119 C256.326873,34.1617119 262.594377,27.8942084 262.594377,20.1621594 C262.594377,12.4301105 256.326873,6.16260699 248.594824,6.16260699 C240.862776,6.16260699 234.595272,12.4301105 234.595272,20.1621594 L234.595272,20.1621594 Z" id="Stroke-47" stroke="#D1D1D1" stroke-width="2" stroke-linecap="round" stroke-linejoin="round"></path>
                    <g id="Group-52" transform="translate(246.594406, 0.175245)">
                        <path d="M0.878602098,1.0765035 L0.878602098,6.0834965" id="Fill-49" fill="#FFFFFF"></path>
                        <path d="M0.878602098,1.0765035 L0.878602098,6.0834965" id="Stroke-51" stroke="#D1D1D1" stroke-width="2" stroke-linecap="round" stroke-linejoin="round"></path>
                    </g>
                    <g id="Group-56" transform="translate(246.594406, 33.972448)">
                        <path d="M0.878602098,1.0765035 L0.878602098,6.0834965" id="Fill-53" fill="#FFFFFF"></path>
                        <path d="M0.878602098,1.0765035 L0.878602098,6.0834965" id="Stroke-55" stroke="#D1D1D1" stroke-width="2" stroke-linecap="round" stroke-linejoin="round"></path>
                    </g>
                    <g id="Group-60" transform="translate(257.860140, 6.433986)">
                        <path d="M4.53808811,0.291782517 L1.00940979,3.82046084" id="Fill-57" fill="#FFFFFF"></path>
                        <path d="M4.53808811,0.291782517 L1.00940979,3.82046084" id="Stroke-59" stroke="#D1D1D1" stroke-width="2" stroke-linecap="round" stroke-linejoin="round"></path>
                    </g>
                    <g id="Group-64" transform="translate(262.867133, 21.454965)">
                        <path d="M5.25972098,0.450629371 L0.252727972,0.450629371" id="Fill-61" fill="#FFFFFF"></path>
                        <path d="M5.25972098,0.450629371 L0.252727972,0.450629371" id="Stroke-63" stroke="#D1D1D1" stroke-width="2" stroke-linecap="round" stroke-linejoin="round"></path>
                    </g>
                    <g id="Group-68" transform="translate(257.860140, 28.965455)">
                        <path d="M4.72384755,4.50366503 L1.19516923,0.974986713" id="Fill-65" fill="#FFFFFF"></path>
                        <path d="M4.72384755,4.50366503 L1.19516923,0.974986713" id="Stroke-67" stroke="#D1D1D1" stroke-width="2" stroke-linecap="round" stroke-linejoin="round"></path>
                    </g>
                    <g id="Group-72" transform="translate(234.076923, 28.965455)">
                        <path d="M0.51183986,4.68942448 L4.04051818,1.16074615" id="Fill-69" fill="#FFFFFF"></path>
                        <path d="M0.51183986,4.68942448 L4.04051818,1.16074615" id="Stroke-71" stroke="#D1D1D1" stroke-width="2" stroke-linecap="round" stroke-linejoin="round"></path>
                    </g>
                    <g id="Group-76" transform="translate(229.069930, 21.454965)">
                        <path d="M0.252727972,0.450629371 L5.25972098,0.450629371" id="Fill-73" fill="#FFFFFF"></path>
                        <path d="M0.252727972,0.450629371 L5.25972098,0.450629371" id="Stroke-75" stroke="#D1D1D1" stroke-width="2" stroke-linecap="round" stroke-linejoin="round"></path>
                    </g>
                    <g id="Group-80" transform="translate(234.076923, 6.433986)">
                        <path d="M0.32608042,0.477541958 L3.85475874,4.00622028" id="Fill-77" fill="#FFFFFF"></path>
                        <path d="M0.32608042,0.477541958 L3.85475874,4.00622028" id="Stroke-79" stroke="#D1D1D1" stroke-width="2" stroke-linecap="round" stroke-linejoin="round"></path>
                    </g>
                    <path d="M222.784401,50.9311329 C222.793164,50.9436503 222.801926,50.9549161 222.810688,50.9674336 L275.465478,122.123063 L150.581059,122.123063 L193.452185,11.292021 L222.784401,50.9311329 Z" id="Fill-81" fill="#FFFFFF"></path>
                    <path d="M222.784401,50.9311329 C222.793164,50.9436503 222.801926,50.9549161 222.810688,50.9674336 L275.465478,122.123063 L150.581059,122.123063 L193.452185,11.292021 L222.784401,50.9311329 L222.784401,50.9311329 Z" id="Stroke-83" stroke="#000000" stroke-width="2" stroke-linecap="round" stroke-linejoin="round"></path>
                    <polygon id="Fill-85" fill="#E2E2E2" points="193.791033 13.6826098 179.49732 121.075099 153.174306 121.106393"></polygon>
                    <polygon id="Fill-87" fill="#FFC83D" points="193.452185 11.2916455 151.138087 122.123939 116.144213 122.123939"></polygon>
                    <polygon id="Stroke-89" stroke="#000000" stroke-width="2" stroke-linecap="round" stroke-linejoin="round" points="193.452185 11.2916455 151.138087 122.123939 116.144213 122.123939"></polygon>
                    <g id="Group-94" transform="translate(206.538462, 64.014406)">
                        <path d="M25.6722301,1.11906294 L1.04283147,1.11906294" id="Fill-91" fill="#FFFFFF"></path>
                        <path d="M25.6722301,1.11906294 L1.04283147,1.11906294" id="Stroke-93" stroke="#000000" stroke-width="2" stroke-linecap="round" stroke-linejoin="round"></path>
                    </g>
                    <g id="Group-98" transform="translate(192.769231, 87.797622)">
                        <path d="M52.3133133,1.21244336 L0.398306294,1.21244336" id="Fill-95" fill="#FFFFFF"></path>
                        <path d="M52.3133133,1.21244336 L0.398306294,1.21244336" id="Stroke-97" stroke="#000000" stroke-width="2" stroke-linecap="round" stroke-linejoin="round"></path>
                    </g>
                    <path d="M176.867897,50.1852161 C176.877911,50.2002371 176.889177,50.2140063 176.900443,50.2290273 L241.648373,137.729985 L88.080142,137.729985 L140.798771,1.44088741 L176.867897,50.1852161 Z" id="Fill-99" fill="#FFFFFF"></path>
                    <path d="M176.867897,50.1852161 C176.877911,50.2002371 176.889177,50.2140063 176.900443,50.2290273 L241.648373,137.729985 L88.080142,137.729985 L140.798771,1.44088741 L176.867897,50.1852161 L176.867897,50.1852161 Z" id="Stroke-101" stroke="#000000" stroke-width="2" stroke-linecap="round" stroke-linejoin="round"></path>
                    <polygon id="Fill-103" fill="#E2E2E2" points="141.214978 4.38111888 116.805887 136.440559 91.2689706 136.478112"></polygon>
                    <polygon id="Fill-105" fill="#FFC83D" points="140.798271 1.44088741 88.7655993 137.729985 45.7329979 137.729985"></polygon>
                    <polygon id="Stroke-107" stroke="#000000" stroke-width="2" stroke-linecap="round" stroke-linejoin="round" points="140.798271 1.44088741 88.7655993 137.729985 45.7329979 137.729985"></polygon>
                    <g id="Group-112" transform="translate(165.230769, 75.280140)">
                        <path d="M30.5400287,0.450629371 L0.252727972,0.450629371" id="Fill-109" fill="#FFFFFF"></path>
                        <path d="M30.5400287,0.450629371 L0.252727972,0.450629371" id="Stroke-111" stroke="#000000" stroke-width="2" stroke-linecap="round" stroke-linejoin="round"></path>
                    </g>
                    <g id="Group-116" transform="translate(140.195804, 96.559860)">
                        <path d="M64.0918888,0.450629371 L0.252727972,0.450629371" id="Fill-113" fill="#FFFFFF"></path>
                        <path d="M64.0918888,0.450629371 L0.252727972,0.450629371" id="Stroke-115" stroke="#000000" stroke-width="2" stroke-linecap="round" stroke-linejoin="round"></path>
                    </g>
                    <path d="M35.3192035,40.6818182 L46.603714,40.6818182 L49.1773084,46.9405594 L62.6398608,46.9405594 C62.6398608,46.9405594 61.0551476,51.9475524 56.5025392,51.9475524 L44.6897909,51.9475524 L44.6897909,60.7097902 L39.6827979,60.7097902 L39.6827979,68.2202797 L32.1723084,68.2202797 L32.1723084,60.7097902 L29.9742385,60.7097902 C29.9742385,60.7097902 27.2028678,40.6818182 35.3192035,40.6818182" id="Fill-117" fill="#FFC83D"></path>
                    <path d="M35.3192035,40.6818182 L46.603714,40.6818182 L49.1773084,46.9405594 L62.6398608,46.9405594 C62.6398608,46.9405594 61.0551476,51.9475524 56.5025392,51.9475524 L44.6897909,51.9475524 L44.6897909,60.7097902 L39.6827979,60.7097902 L39.6827979,68.2202797 L32.1723084,68.2202797 L32.1723084,60.7097902 L29.9742385,60.7097902 C29.9742385,60.7097902 27.2028678,40.6818182 35.3192035,40.6818182 L35.3192035,40.6818182 Z" id="Stroke-119" stroke="#000000" stroke-width="2" stroke-linecap="round" stroke-linejoin="round"></path>
                    <path d="M26.4106364,60.7097902 L51.3554755,60.7097902 C51.3554755,60.7097902 55.7103077,60.7085385 57.095993,66.8458601 L60.6597203,81.9895105 L68.5782797,81.9895105 L70.7563217,79.486014 L73.4801259,79.486014 L73.4801259,86.9965035 L55.5125315,86.9965035 L50.9098531,70.8464476 L47.7917483,90.4388112 L54.917951,137.404406 L63.6288671,144.576923 L50.7608951,144.576923 L40.6642937,99.5377692 L32.1511538,139.924175 L35.7148811,144.576923 L24.0348182,144.576923 L34.9237762,91.6192098 L30.0331958,70.4358741 L26.6084126,103.892601 L28.8452867,107.828098 L24.0348182,111.861231 L18.8876294,104.512217 L21.659,64.2234476 C21.659,64.2234476 22.0558042,60.7097902 26.4106364,60.7097902" id="Fill-121" fill="#FFFFFF"></path>
                    <polygon id="Fill-123" fill="#E2E2E2" points="38.1022154 80.8942308 30.5917259 69.3155594 33.4081594 80.7377622"></polygon>
                    <path d="M52.0279147,70.1501 C52.0279147,70.1501 55.939628,82.6150091 58.8599566,84.1796944 C61.7815371,85.7443797 68.5096839,85.7443797 68.5096839,85.7443797 L68.4045371,86.996128 L56.4090336,86.996128 L52.0279147,70.1501 Z" id="Fill-125" fill="#E2E2E2"></path>
                    <polygon id="Fill-127" fill="#E2E2E2" points="31.5305371 114.534965 25.4282643 143.325175 33.0952224 143.168706 30.7481944 139.882867 33.564628 113.439685"></polygon>
                    <polygon id="Fill-129" fill="#E2E2E2" points="43.8133168 107.787291 51.7556594 143.333186 60.1261 143.333186 53.9061629 138.005745 45.2415615 106.98492"></polygon>
                    <path d="M22.8204972,61.5443308 C22.8204972,61.5443308 23.7392804,60.986051 24.1761406,69.628121 C24.8157839,82.2632678 22.7679238,105.302946 28.8464133,107.827722 L26.3667,109.840534 L24.034693,111.860855 L18.8875042,104.511841 L22.8204972,61.5443308 Z" id="Fill-131" fill="#E2E2E2"></path>
                    <path d="M26.4106364,60.7097902 L51.3554755,60.7097902 C51.3554755,60.7097902 55.7103077,60.7085385 57.095993,66.8458601 L60.6597203,81.9895105 L68.5782797,81.9895105 L70.7563217,79.486014 L73.4801259,79.486014 L73.4801259,88.1956783 L55.5125315,88.1956783 L50.9098531,70.8464476 L47.7917483,90.4388112 L54.917951,137.404406 L63.6288671,144.576923 L50.7608951,144.576923 L40.6642937,99.5377692 L32.1511538,139.924175 L35.7148811,144.576923 L24.0348182,144.576923 L34.9237762,91.6192098 L30.0331958,70.4358741 L26.6084126,103.892601 L28.8452867,107.828098 L24.0348182,111.861231 L18.8876294,104.512217 L21.659,64.2234476 C21.659,64.2234476 22.0558042,60.7097902 26.4106364,60.7097902 L26.4106364,60.7097902 Z" id="Stroke-133" stroke="#000000" stroke-width="2" stroke-linecap="round" stroke-linejoin="round"></path>
                    <polyline id="Stroke-135" stroke="#000000" stroke-width="2" stroke-linecap="round" stroke-linejoin="round" points="71.0323322 48.2010699 73.4469545 53.5936014 69.7242552 57.9634545 69.7242552 140.195804"></polyline>
                    <polygon id="Fill-137" fill="#FFC83D" points="32.5477077 80.7277483 48.984414 82.3888182 47.7914979 90.0344965 34.9235259 90.8268531"></polygon>
                    <polygon id="Stroke-139" stroke="#000000" stroke-width="2" stroke-linecap="round" stroke-linejoin="round" points="32.5477077 80.7277483 48.984414 82.3888182 47.7914979 90.0344965 34.9235259 90.8268531"></polygon>
                    <g id="Group-144" transform="translate(33.797203, 35.224196)">
                        <path d="M0.878602098,4.83174825 L0.878602098,1.0765035" id="Fill-141" fill="#FFC83D"></path>
                        <path d="M0.878602098,4.83174825 L0.878602098,1.0765035" id="Stroke-143" stroke="#000000" stroke-width="2" stroke-linecap="round" stroke-linejoin="round"></path>
                    </g>
                    <g id="Group-148" transform="translate(40.055944, 35.224196)">
                        <path d="M0.878602098,4.83174825 L0.878602098,1.0765035" id="Fill-145" fill="#FFFFFF"></path>
                        <path d="M0.878602098,4.83174825 L0.878602098,1.0765035" id="Stroke-147" stroke="#000000" stroke-width="2" stroke-linecap="round" stroke-linejoin="round"></path>
                    </g>
                    <polygon id="Fill-149" fill="#FFFFFF" points="28.8457874 114.583533 50.3420601 102.769533 48.3855776 90.0354979 34.9230252 90.8266028"></polygon>
                    <polygon id="Stroke-151" stroke="#000000" stroke-width="2" stroke-linecap="round" stroke-linejoin="round" points="28.8457874 114.583533 50.3420601 102.769533 48.3855776 90.0354979 34.9230252 90.8266028"></polygon>
                    <path d="M39.3263,91.8193643 C39.3263,91.8193643 37.0068105,104.46828 38.3111322,107.963162 L30.7480692,112.031343 L35.8589573,92.0033713 L39.3263,91.8193643 Z" id="Fill-153" fill="#E2E2E2"></path>
                    <g id="Group-158" transform="translate(295.412587, 121.594825)">
                        <polyline id="Fill-155" fill="#E2E2E2" points="7.59448182 5.04642308 10.9867196 15.4722343 4.3486986 15.4722343 0.787474825 0.880604895"></polyline>
                        <polyline id="Stroke-157" stroke="#000000" stroke-width="2" stroke-linecap="round" stroke-linejoin="round" points="7.59448182 5.04642308 10.9867196 15.4722343 4.3486986 15.4722343 0.787474825 0.880604895"></polyline>
                    </g>
                    <g id="Group-162" transform="translate(317.944056, 122.846573)">
                        <polyline id="Fill-159" fill="#E2E2E2" points="8.12184336 5.61221329 7.07162657 12.967486 0.27213007 12.967486 2.13347972 0.437486014"></polyline>
                        <polyline id="Stroke-161" stroke="#000000" stroke-width="2" stroke-linecap="round" stroke-linejoin="round" points="8.12184336 5.61221329 7.07162657 12.967486 0.27213007 12.967486 2.13347972 0.437486014"></polyline>
                    </g>
                    <path d="M296.847341,103.631111 C296.847341,103.631111 316.370859,106.78802 323.244208,103.91651 C328.024635,101.919971 331.490726,101.041244 334.566271,101.849873 C337.643069,102.659755 342.337124,108.487894 342.337124,108.487894 L348.975145,105.655188 C348.975145,105.655188 347.679586,110.106405 345.8996,112.534797 L352.588943,119.476992 C352.588943,119.476992 357.878831,120.30565 365.162754,113.991831 C365.162754,113.991831 358.011516,126.340328 353.048334,126.340328 C348.085152,126.340328 341.771334,121.195643 341.771334,121.195643 L331.005048,123.866873 L337.96602,132.548999 L337.480341,139.570055 L329.872215,139.570055 L331.005048,133.58044 L320.321376,123.866873 C320.321376,123.866873 311.417691,132.609083 296.200187,122.895517 L289.562166,131.459978 L290.372048,135.81481 L282.278243,135.81481 L286.486621,120.775055 C286.486621,120.775055 282.925397,104.926671 296.847341,103.631111" id="Fill-163" fill="#FFFFFF"></path>
                    <path d="M296.847341,103.631111 C296.847341,103.631111 316.370859,106.78802 323.244208,103.91651 C328.024635,101.919971 331.490726,101.041244 334.566271,101.849873 C337.643069,102.659755 342.337124,108.487894 342.337124,108.487894 L348.975145,105.655188 C348.975145,105.655188 347.679586,110.106405 345.8996,112.534797 L352.588943,119.476992 C352.588943,119.476992 357.878831,120.30565 365.162754,113.991831 C365.162754,113.991831 358.011516,126.340328 353.048334,126.340328 C348.085152,126.340328 341.771334,121.195643 341.771334,121.195643 L331.005048,123.866873 L337.96602,132.548999 L337.480341,139.570055 L329.872215,139.570055 L331.005048,133.58044 L320.321376,123.866873 C320.321376,123.866873 311.417691,132.609083 296.200187,122.895517 L289.562166,131.459978 L290.372048,135.81481 L282.278243,135.81481 L286.486621,120.775055 C286.486621,120.775055 282.925397,104.926671 296.847341,103.631111 L296.847341,103.631111 Z" id="Stroke-165" stroke="#000000" stroke-width="2" stroke-linecap="round" stroke-linejoin="round"></path>
                    <path d="M287.773794,121.002373 L283.928423,134.566317 L288.89536,134.562562 L288.174353,131.212883 L295.127815,122.201548 C295.127815,122.201548 287.773794,115.26561 291.73808,106.633555 C285.426766,110.415086 287.773794,121.002373 287.773794,121.002373" id="Fill-167" fill="#E2E2E2"></path>
                    <path d="M296.536031,121.628247 C296.536031,121.628247 315.572619,124.235638 320.058885,122.463163 C320.058885,122.463163 316.30364,126.687813 308.740577,126.218408 C308.740577,126.218408 302.585731,125.800324 296.536031,121.628247" id="Fill-169" fill="#E2E2E2"></path>
                    <path d="M360.42739,118.759615 C360.42739,118.759615 357.259215,124.079545 353.386306,125.095965 C353.386306,125.095965 349.592257,125.800699 342.277041,120.088972 C342.277041,120.088972 351.431076,125.565371 360.42739,118.759615" id="Fill-171" fill="#E2E2E2"></path>
                    <polygon id="Fill-173" fill="#E2E2E2" points="320.632185 122.567058 334.088479 129.660715 336.748444 132.920268 336.279038 138.213911 331.481087 138.317806 332.314752 133.05045"></polygon>
                    <g id="Group-178" transform="translate(187.762238, 77.783636)">
                        <path d="M61.581758,2.02883357 C61.581758,2.02883357 39.7112126,5.09686853 30.4320028,2.10393846 C30.4320028,2.10393846 4.30050629,-5.70822238 0.109653147,21.8302392 C0.109653147,21.8302392 -0.239584615,24.8106517 1.55542238,32.8919385 C1.55542238,32.8919385 3.0813035,23.1283021 6.37465315,19.2366168 C6.37465315,19.2366168 4.61594685,35.1588545 14.9929399,45.3868895 C14.9929399,45.3868895 14.693772,55.6161762 12.0000098,64.2895399 L24.5713175,64.2895399 L26.0684084,49.6966587 L26.3675762,41.6529245 C26.3675762,41.6529245 39.2818629,41.3712811 53.0510937,35.6845888 L57.8402825,46.6949664 L56.942779,64.2895399 L70.7120098,64.2895399 L69.5140867,45.5070573 C69.5140867,45.5070573 67.1194923,33.2712182 72.207849,29.3795329" id="Fill-175" fill="#FFFFFF"></path>
                        <path d="M61.581758,2.02883357 C61.581758,2.02883357 39.7112126,5.09686853 30.4320028,2.10393846 C30.4320028,2.10393846 4.30050629,-5.70822238 0.109653147,21.8302392 C0.109653147,21.8302392 -0.239584615,24.8106517 1.55542238,32.8919385 C1.55542238,32.8919385 3.0813035,23.1283021 6.37465315,19.2366168 C6.37465315,19.2366168 4.61594685,35.1588545 14.9929399,45.3868895 C14.9929399,45.3868895 14.693772,55.6161762 12.0000098,64.2895399 L24.5713175,64.2895399 L26.0684084,49.6966587 L26.3675762,41.6529245 C26.3675762,41.6529245 39.2818629,41.3712811 53.0510937,35.6845888 L57.8402825,46.6949664 L56.942779,64.2895399 L70.7120098,64.2895399 L69.5140867,45.5070573 C69.5140867,45.5070573 67.1194923,33.2712182 72.207849,29.3795329" id="Stroke-177" stroke="#000000" stroke-width="2" stroke-linecap="round" stroke-linejoin="round"></path>
                    </g>
                    <path d="M257.940502,107.65035 C257.940502,107.65035 253.87232,111.249126 256.004048,123.453671 L257.105586,140.769105 L251.838229,140.821678 C251.838229,140.821678 250.351152,117.570455 249.085635,116.386301 C244.983656,112.547189 240.591271,105.55242 241.250943,94.0250699 C241.250943,94.0250699 246.465726,107.441308 257.940502,107.65035" id="Fill-179" fill="#E2E2E2"></path>
                    <path d="M281.097845,121.158841 C284.670334,118.968282 282.58367,108.093093 282.58367,108.093093 L285.844474,107.285715 C285.844474,107.285715 288.086355,117.66396 281.097845,121.158841" id="Fill-181" fill="#E2E2E2"></path>
                    <path d="M264.981586,96.3324175 C264.981586,96.3324175 276.990859,107.454201 293.497663,99.4355014 C293.497663,99.4355014 281.176705,113.635334 265.034159,99.2014245 L264.981586,96.3324175 Z" id="Fill-183" fill="#E2E2E2"></path>
                    <path d="M195.587792,96.854021 C195.587792,96.854021 201.559883,117.611762 209.487205,121.159217 C209.487205,121.159217 210.269548,133.102147 206.39789,140.829189 L201.420939,140.829189 C203.53389,134.336371 204.037093,122.827797 204.037093,122.827797 C204.037093,122.827797 193.397233,112.813811 195.587792,96.854021" id="Fill-185" fill="#E2E2E2"></path>
                    <g id="Group-190" transform="translate(266.622378, 105.322098)">
                        <path d="M20.2870839,1.05885385 C20.2870839,1.05885385 25.0762727,16.5454832 17.8924895,20.1380007 C12.3547552,23.2811406 5.85567832,20.6449587 2.78263636,16.2463154 C-3.92673427,6.64540629 8.91244755,13.7728608 8.91244755,13.7728608 C8.91244755,13.7728608 17.8924895,21.334672 14.6003916,2.25552517" id="Fill-187" fill="#FFFFFF"></path>
                        <path d="M20.2870839,1.05885385 C20.2870839,1.05885385 25.0762727,16.5454832 17.8924895,20.1380007 C12.3547552,23.2811406 5.85567832,20.6449587 2.78263636,16.2463154 C-3.92673427,6.64540629 8.91244755,13.7728608 8.91244755,13.7728608 C8.91244755,13.7728608 17.8924895,21.334672 14.6003916,2.25552517" id="Stroke-189" stroke="#000000" stroke-width="2" stroke-linecap="round" stroke-linejoin="round"></path>
                    </g>
                    <g id="Group-194" transform="translate(241.587413, 76.531888)">
                        <path d="M33.6484951,20.7911629 C39.635607,30.3695406 57.4605021,18.3965685 57.4605021,18.3965685 C40.1763622,42.4126105 22.1586979,23.078107 22.1586979,23.078107 L22.1586979,20.0063168 L22.1586979,29.4720371 C5.88597063,32.4649671 0.964096503,16.6754147 0.964096503,16.6754147 C3.05952308,5.59994615 9.22438322,2.22022587 9.22438322,2.22022587 C14.3127399,-2.73294196 23.8310336,3.72983427 23.8310336,3.72983427 L29.3387259,2.07001608 C29.3387259,2.07001608 38.4539566,6.32971538 42.643558,23.9906315" id="Fill-191" fill="#FFFFFF"></path>
                        <path d="M33.6484951,20.7911629 C39.635607,30.3695406 57.4605021,18.3965685 57.4605021,18.3965685 C40.1763622,42.4126105 22.1586979,23.078107 22.1586979,23.078107 L22.1586979,20.0063168 L22.1586979,29.4720371 C5.88597063,32.4649671 0.964096503,16.6754147 0.964096503,16.6754147 C3.05952308,5.59994615 9.22438322,2.22022587 9.22438322,2.22022587 C14.3127399,-2.73294196 23.8310336,3.72983427 23.8310336,3.72983427 L29.3387259,2.07001608 C29.3387259,2.07001608 38.4539566,6.32971538 42.643558,23.9906315" id="Stroke-193" stroke="#000000" stroke-width="2" stroke-linecap="round" stroke-linejoin="round"></path>
                    </g>
                </g>
            </g>
        </g>
    </g>
</svg>