<?xml version="1.0" encoding="UTF-8"?>
<svg width="328px" height="178px" viewBox="0 0 328 178" version="1.1" xmlns="http://www.w3.org/2000/svg" xmlns:xlink="http://www.w3.org/1999/xlink">
    <!-- Generator: sketchtool 41.2 (35397) - http://www.bohemiancoding.com/sketch -->
    <title>C93AC7F0-3D29-476B-8027-7477E6ADBAA7</title>
    <desc>Created with sketchtool.</desc>
    <defs></defs>
    <g id="Page-1" stroke="none" stroke-width="1" fill="none" fill-rule="evenodd">
        <g id="702_M2U_Solutions-Copy-23" transform="translate(-476.000000, -175.000000)">
            <g id="Group-4">
                <g id="Page-1" transform="translate(476.916667, 175.000000)">
                    <path d="M7.60194444,150.985475 L316.878586,150.985475 L7.60194444,150.985475 Z" id="Fill-1" fill="#FFFFFF"></path>
                    <path d="M7.60150247,150.985364 L316.878144,150.985364" id="Stroke-2" stroke="#E2E2E2" stroke-width="12" stroke-linecap="round" stroke-linejoin="round"></path>
                    <path d="M24.5025278,160.436675 L83.4145216,160.436675 L24.5025278,160.436675 Z" id="Fill-4" fill="#FFFFFF"></path>
                    <path d="M83.4145216,160.436675 L24.5025278,160.436675" id="Stroke-5" stroke="#000000" stroke-width="2" stroke-linecap="round" stroke-linejoin="round"></path>
                    <path d="M122.455306,160.436675 L239.947812,160.436675 L122.455306,160.436675 Z" id="Fill-6" fill="#FFFFFF"></path>
                    <path d="M239.94748,160.436675 L122.456079,160.436675" id="Stroke-7" stroke="#000000" stroke-width="2" stroke-linecap="round" stroke-linejoin="round"></path>
                    <path d="M92.9740056,160.436675 L112.879469,160.436675 L92.9740056,160.436675 Z" id="Fill-8" fill="#FFFFFF"></path>
                    <path d="M112.879579,160.436675 L92.9730111,160.436675" id="Stroke-9" stroke="#000000" stroke-width="2" stroke-linecap="round" stroke-linejoin="round"></path>
                    <path d="M248.032756,160.436675 L298.140601,160.436675 L248.032756,160.436675 Z" id="Fill-10" fill="#FFFFFF"></path>
                    <path d="M298.140933,160.436675 L248.033087,160.436675" id="Stroke-11" stroke="#000000" stroke-width="2" stroke-linecap="round" stroke-linejoin="round"></path>
                    <path d="M84.8344778,176.274197 L181.386194,176.274197 L84.8344778,176.274197 Z" id="Fill-12" fill="#FFFFFF"></path>
                    <path d="M181.385752,176.274086 L84.8340358,176.274086" id="Stroke-13" stroke="#000000" stroke-width="2" stroke-linecap="round" stroke-linejoin="round"></path>
                    <path d="M190.566794,176.274197 L213.531831,176.274197 L190.566794,176.274197 Z" id="Fill-15" fill="#FFFFFF"></path>
                    <path d="M213.53139,176.274086 L190.566352,176.274086" id="Stroke-16" stroke="#000000" stroke-width="2" stroke-linecap="round" stroke-linejoin="round"></path>
                    <path d="M51.7393667,176.274197 L75.0535642,176.274197 L51.7393667,176.274197 Z" id="Fill-18" fill="#FFFFFF"></path>
                    <g id="Group-173" transform="translate(0.000000, 0.483963)">
                        <polygon id="Stroke-19" stroke="#000000" stroke-width="2" stroke-linecap="round" stroke-linejoin="round" points="75.0533432 175.790123 51.7391457 175.790123"></polygon>
                        <path d="M154.032673,77.6133747 C154.032673,109.049973 178.97997,134.535375 209.753606,134.535375 C240.528346,134.535375 265.475643,109.049973 265.475643,77.6133747 C265.475643,46.1767759 240.528346,20.6913747 209.753606,20.6913747 C178.97997,20.6913747 154.032673,46.1767759 154.032673,77.6133747 L154.032673,77.6133747 Z" id="Stroke-21" stroke="#D1D1D1" stroke-width="2" stroke-linecap="round" stroke-linejoin="round"></path>
                        <g id="Group-26" transform="translate(208.938272, 0.104938)">
                            <path d="M0.451477778,0.620864815 L0.451477778,20.9108463" id="Fill-23" fill="#FFFFFF"></path>
                            <path d="M0.451477778,0.620864815 L0.451477778,20.9108463" id="Stroke-25" stroke="#D1D1D1" stroke-width="2" stroke-linecap="round" stroke-linejoin="round"></path>
                        </g>
                        <g id="Group-30" transform="translate(247.611111, 22.203704)">
                            <path d="M15.1064951,0.778870988 L1.06162469,15.1253895" id="Fill-27" fill="#FFFFFF"></path>
                            <path d="M15.1064951,0.778870988 L1.06162469,15.1253895" id="Stroke-29" stroke="#D1D1D1" stroke-width="2" stroke-linecap="round" stroke-linejoin="round"></path>
                        </g>
                        <g id="Group-34" transform="translate(265.290123, 76.345679)">
                            <path d="M19.8884469,0.733679012 L0.0260765432,0.733679012" id="Fill-31" fill="#FFFFFF"></path>
                            <path d="M19.8884469,0.733679012 L0.0260765432,0.733679012" id="Stroke-33" stroke="#D1D1D1" stroke-width="2" stroke-linecap="round" stroke-linejoin="round"></path>
                        </g>
                        <g id="Group-38" transform="translate(248.716049, 117.228395)">
                            <path d="M14.7407605,14.489608 L0.695890123,0.143089506" id="Fill-35" fill="#FFFFFF"></path>
                            <path d="M14.7407605,14.489608 L0.695890123,0.143089506" id="Stroke-37" stroke="#D1D1D1" stroke-width="2" stroke-linecap="round" stroke-linejoin="round"></path>
                        </g>
                        <g id="Group-42" transform="translate(157.006173, 117.228395)">
                            <path d="M0.00828703704,15.2447228 L14.0531574,0.898204321" id="Fill-39" fill="#FFFFFF"></path>
                            <path d="M0.00828703704,15.2447228 L14.0531574,0.898204321" id="Stroke-41" stroke="#D1D1D1" stroke-width="2" stroke-linecap="round" stroke-linejoin="round"></path>
                        </g>
                        <g id="Group-46" transform="translate(133.802469, 77.450617)">
                            <path d="M0.843841358,0.69666358 L20.7062117,0.69666358" id="Fill-43" fill="#FFFFFF"></path>
                            <path d="M0.843841358,0.69666358 L20.7062117,0.69666358" id="Stroke-45" stroke="#D1D1D1" stroke-width="2" stroke-linecap="round" stroke-linejoin="round"></path>
                        </g>
                        <g id="Group-50" transform="translate(155.901235, 23.308642)">
                            <path d="M0.373911111,0.429047531 L14.4187815,14.775566" id="Fill-47" fill="#FFFFFF"></path>
                            <path d="M0.373911111,0.429047531 L14.4187815,14.775566" id="Stroke-49" stroke="#D1D1D1" stroke-width="2" stroke-linecap="round" stroke-linejoin="round"></path>
                        </g>
                        <g id="Group-54" transform="translate(74.135802, 15.574074)">
                            <path d="M63.0986049,112.739725 L86.3984383,112.739725 L81.4284259,38.4215765 L117.345549,35.514484 L122.315562,35.514484 L129.938531,27.2451259 L76.1921235,24.1733975 C76.1921235,24.1733975 77.4749568,0.94207037 65.4035062,0.94207037 L65.2013025,0.94207037 C53.1298519,0.94207037 54.4126852,24.1733975 54.4126852,24.1733975 L0.667382716,27.2451259 L8.29035185,35.514484 L13.2603642,35.514484 L49.1763827,38.4215765 L44.2063704,112.739725 L67.5062037,112.739725" id="Fill-51" fill="#FFFFFF"></path>
                            <path d="M63.0986049,112.739725 L86.3984383,112.739725 L81.4284259,38.4215765 L117.345549,35.514484 L122.315562,35.514484 L129.938531,27.2451259 L76.1921235,24.1733975 C76.1921235,24.1733975 77.4749568,0.94207037 65.4035062,0.94207037 L65.2013025,0.94207037 C53.1298519,0.94207037 54.4126852,24.1733975 54.4126852,24.1733975 L0.667382716,27.2451259 L8.29035185,35.514484 L13.2603642,35.514484 L49.1763827,38.4215765 L44.2063704,112.739725 L67.5062037,112.739725" id="Stroke-53" stroke="#000000" stroke-width="2" stroke-linecap="round" stroke-linejoin="round"></path>
                        </g>
                        <path d="M148.833276,31.1356932 C149.426628,37.7686377 144.488659,41.6403414 139.45456,41.6403414 C134.421566,41.6403414 129.004054,37.8625574 130.010652,31.2793352 C131.40619,22.1492302 134.367424,17.1162364 139.400418,17.1162364 C144.433412,17.1162364 148.063134,22.5326438 148.833276,31.1356932" id="Fill-55" fill="#FFC83D"></path>
                        <path d="M132.215999,123.466877 C120.862758,122.558617 124.516789,53.1187716 124.516789,53.1187716 C124.516789,53.1187716 116.332511,50.264716 102.6589,46.811784 C96.3044,45.2074136 84.5489617,43.4892346 84.5489617,43.4892346 L77.1502951,43.8262407 L83.0351963,49.9884815 L87.8704062,49.9884815 L124.516789,53.1187716 L119.504789,126.919809 L159.333394,127.196043 L159.286986,125.400519 C159.286986,125.400519 152.933591,125.124284 132.215999,123.466877" id="Fill-57" fill="#E2E2E2"></path>
                        <path d="M187.462912,47.7786049 C179.237752,49.3586667 154.872758,52.9309321 154.872758,52.9309321 L185.036468,50.4028333 L195.844974,49.8967716 L201.459165,43.8196111 C201.459165,43.8196111 201.366351,45.1079691 187.462912,47.7786049" id="Fill-59" fill="#E2E2E2"></path>
                        <g id="Group-64" transform="translate(103.969136, 127.172840)">
                            <polyline id="Fill-61" fill="#FFFFFF" points="69.8925389 14.1297296 65.1490389 1.02847654 33.2649401 1.02847654 37.6736438 1.02847654 5.78954506 1.02847654 1.04604506 14.1297296"></polyline>
                            <polyline id="Stroke-63" stroke="#000000" stroke-width="2" stroke-linecap="round" stroke-linejoin="round" points="69.8925389 14.1297296 65.1490389 1.02847654 33.2649401 1.02847654 37.6736438 1.02847654 5.78954506 1.02847654 1.04604506 14.1297296"></polyline>
                        </g>
                        <path d="M106.672588,139.921396 L109.427199,132.444279 C109.427199,132.444279 134.426428,135.620977 172.545693,136.725915 C174.858329,136.793316 175.860508,139.921396 175.860508,139.921396 L106.672588,139.921396 Z" id="Fill-65" fill="#E2E2E2"></path>
                        <path d="M150.032355,31.7914741 C150.032355,31.7914741 148.813608,41.5712827 139.538756,41.5712827 L139.337657,41.5712827 C130.062806,41.5712827 128.844059,31.7914741 128.844059,31.7914741" id="Stroke-67" stroke="#000000" stroke-width="2" stroke-linecap="round" stroke-linejoin="round"></path>
                        <path d="M200.115892,141.522341 L80.5063241,141.522341" id="Stroke-69" stroke="#000000" stroke-width="2" stroke-linecap="round" stroke-linejoin="round"></path>
                        <path d="M132.423064,127.146984 L132.423064,111.01378" id="Stroke-71" stroke="#000000" stroke-width="2" stroke-linecap="round" stroke-linejoin="round"></path>
                        <path d="M139.539198,127.146984 L139.539198,114.740737" id="Stroke-73" stroke="#000000" stroke-width="2" stroke-linecap="round" stroke-linejoin="round"></path>
                        <path d="M146.655332,127.146984 L146.655332,118.129583" id="Stroke-75" stroke="#000000" stroke-width="2" stroke-linecap="round" stroke-linejoin="round"></path>
                        <path d="M137.188221,97.915179 C137.188221,97.915179 125.724486,90.7330802 122.824023,71.8110123 C122.824023,71.8110123 137.003696,93.4490185 144.554844,94.5539568 C152.104888,95.6588951 137.188221,97.915179 137.188221,97.915179" id="Fill-77" fill="#E2E2E2"></path>
                        <path d="M122.813306,69.9128389 C122.813306,69.9128389 128.874997,86.8780611 146.148497,94.9595796" id="Stroke-79" stroke="#000000" stroke-width="2" stroke-linecap="round" stroke-linejoin="round"></path>
                        <path d="M138.477352,110.575893 C138.477352,110.575893 122.087803,102.656801 122.087803,82.2154426 C122.087803,82.2154426 137.00447,106.708609 144.554513,107.813548 C152.104556,108.918486 138.477352,110.575893 138.477352,110.575893" id="Fill-81" fill="#E2E2E2"></path>
                        <path d="M122.813306,82.4362093 C122.813306,82.4362093 128.874997,99.4014315 146.148497,107.48295" id="Stroke-83" stroke="#000000" stroke-width="2" stroke-linecap="round" stroke-linejoin="round"></path>
                        <g id="Group-88" transform="translate(0.104938, 140.432099)">
                            <path d="M325.824529,0.713790123 L0.000331481482,0.713790123" id="Fill-85" fill="#FFFFFF"></path>
                            <path d="M325.824529,0.713790123 L0.000331481482,0.713790123" id="Stroke-87" stroke="#000000" stroke-width="2" stroke-linecap="round" stroke-linejoin="round"></path>
                        </g>
                        <path d="M42.6710278,62.8504049 C42.6898117,62.3819111 42.8069352,61.5764111 43.3395154,60.9499111 C43.9185031,60.2681642 46.0245154,58.7941765 47.4189475,58.7488741" id="Stroke-89" stroke="#D1D1D1" stroke-width="2" stroke-linecap="round" stroke-linejoin="round"></path>
                        <path d="M36.1999568,58.749537 C36.876179,58.7594815 41.2207963,60.0655185 41.5279691,62.9858704" id="Stroke-91" stroke="#D1D1D1" stroke-width="2" stroke-linecap="round" stroke-linejoin="round"></path>
                        <path d="M74.197679,76.9237827 C74.216463,76.4552889 74.3335864,75.6497889 74.8661667,75.0232889 C75.4451543,74.341542 77.5511667,72.8675543 78.9455988,72.8222519" id="Stroke-93" stroke="#D1D1D1" stroke-width="2" stroke-linecap="round" stroke-linejoin="round"></path>
                        <path d="M67.726608,72.8229148 C68.4028302,72.8328593 72.7474475,74.1388963 73.0546204,77.0592481" id="Stroke-95" stroke="#D1D1D1" stroke-width="2" stroke-linecap="round" stroke-linejoin="round"></path>
                        <polygon id="Fill-97" fill="#FFC83D" points="86.9652407 107.315994 96.0235247 107.315994 96.0235247 96.948358 86.9652407 96.948358"></polygon>
                        <polygon id="Stroke-99" stroke="#000000" stroke-width="2" stroke-linecap="round" stroke-linejoin="round" points="86.9652407 107.315994 96.0235247 107.315994 96.0235247 96.948358 86.9652407 96.948358"></polygon>
                        <path d="M99.7155654,125.380851 L99.7155654,115.929209 C99.7155654,113.890598 98.0625778,112.23761 96.0239667,112.23761 L96.0239667,107.316215 L86.9656827,107.316215 L86.9656827,112.23761 C84.9270716,112.23761 83.274084,113.890598 83.274084,115.929209 L83.274084,125.380851 L91.4948247,117.16011 L99.7155654,125.380851 Z" id="Fill-100" fill="#FFFFFF"></path>
                        <path d="M99.7155654,125.380851 L99.7155654,115.929209 C99.7155654,113.890598 98.0625778,112.23761 96.0239667,112.23761 L96.0239667,107.316215 L86.9656827,107.316215 L86.9656827,112.23761 C84.9270716,112.23761 83.274084,113.890598 83.274084,115.929209 L83.274084,125.380851 L91.4948247,117.16011 L99.7155654,125.380851 L99.7155654,125.380851 Z" id="Stroke-101" stroke="#000000" stroke-width="2" stroke-linecap="round" stroke-linejoin="round"></path>
                        <polygon id="Fill-102" fill="#E2E2E2" points="91.4948247 138.314153 83.274084 130.093412 83.274084 144.28303 99.7155654 144.28303 99.7155654 130.093412"></polygon>
                        <polygon id="Stroke-103" stroke="#000000" stroke-width="2" stroke-linecap="round" stroke-linejoin="round" points="91.4948247 138.314153 83.274084 130.093412 83.274084 144.28303 99.7155654 144.28303 99.7155654 130.093412"></polygon>
                        <polygon id="Fill-104" fill="#FFC83D" points="99.7155654 130.093302 99.7155654 125.38074 91.4948247 117.159999 83.274084 125.38074 83.274084 130.093302 91.4948247 138.314043"></polygon>
                        <polygon id="Stroke-105" stroke="#000000" stroke-width="2" stroke-linecap="round" stroke-linejoin="round" points="99.7155654 130.093302 99.7155654 125.38074 91.4948247 117.159999 83.274084 125.38074 83.274084 130.093302 91.4948247 138.314043"></polygon>
                        <polygon id="Fill-106" fill="#FFFFFF" points="169.23784 145.344654 263.159802 145.344654 263.159802 125.422617 169.23784 125.422617"></polygon>
                        <polygon id="Stroke-107" stroke="#000000" stroke-width="2" stroke-linecap="round" stroke-linejoin="round" points="169.23784 145.344654 263.159802 145.344654 263.159802 125.422617 169.23784 125.422617"></polygon>
                        <polygon id="Fill-108" fill="#FFFFFF" points="179.760167 125.422617 252.637475 125.422617 252.637475 106.957994 179.760167 106.957994"></polygon>
                        <polygon id="Stroke-109" stroke="#000000" stroke-width="2" stroke-linecap="round" stroke-linejoin="round" points="179.760167 125.422617 252.637475 125.422617 252.637475 106.957994 179.760167 106.957994"></polygon>
                        <polygon id="Fill-110" fill="#FFFFFF" points="190.282494 106.957994 242.115148 106.957994 242.115148 89.2259444 190.282494 89.2259444"></polygon>
                        <polygon id="Stroke-111" stroke="#000000" stroke-width="2" stroke-linecap="round" stroke-linejoin="round" points="190.282494 106.957994 242.115148 106.957994 242.115148 89.2259444 190.282494 89.2259444"></polygon>
                        <polygon id="Fill-112" fill="#FFFFFF" points="202.559463 89.2259444 229.839284 89.2259444 229.839284 67.4023086 202.559463 67.4023086"></polygon>
                        <polygon id="Stroke-113" stroke="#000000" stroke-width="2" stroke-linecap="round" stroke-linejoin="round" points="202.559463 89.2259444 229.839284 89.2259444 229.839284 67.4023086 202.559463 67.4023086"></polygon>
                        <polygon id="Fill-114" fill="#FFFFFF" points="223.213964 89.2261654 209.184562 89.2261654 204.31289 145.34598 227.890062 145.34598"></polygon>
                        <polygon id="Stroke-115" stroke="#000000" stroke-width="2" stroke-linecap="round" stroke-linejoin="round" points="223.213964 89.2261654 209.184562 89.2261654 204.31289 145.34598 227.890062 145.34598"></polygon>
                        <path d="M220.218034,89.2261654 L212.179608,89.2261654 L212.179608,82.3335605 C212.179608,80.1137395 213.979552,78.3137951 216.199373,78.3137951 C218.419194,78.3137951 220.218034,80.1137395 220.218034,82.3335605 L220.218034,89.2261654 Z" id="Fill-116" fill="#FFC83D"></path>
                        <path d="M220.218034,89.2261654 L212.179608,89.2261654 L212.179608,82.3335605 C212.179608,80.1137395 213.979552,78.3137951 216.199373,78.3137951 C218.419194,78.3137951 220.218034,80.1137395 220.218034,82.3335605 L220.218034,89.2261654 L220.218034,89.2261654 Z" id="Stroke-117" stroke="#000000" stroke-width="2" stroke-linecap="round" stroke-linejoin="round"></path>
                        <g id="Group-120" transform="translate(207.833333, 97.339506)">
                            <path d="M0.76075,0.161320988 L15.1249475,0.161320988" id="Fill-118" fill="#FFFFFF"></path>
                            <path d="M0.76075,0.161320988 L15.1249475,0.161320988" id="Stroke-119" stroke="#000000" stroke-width="2" stroke-linecap="round" stroke-linejoin="round"></path>
                        </g>
                        <g id="Group-123" transform="translate(207.833333, 102.864198)">
                            <path d="M0.76075,0.161320988 L15.1249475,0.161320988" id="Fill-121" fill="#FFFFFF"></path>
                            <path d="M0.76075,0.161320988 L15.1249475,0.161320988" id="Stroke-122" stroke="#000000" stroke-width="2" stroke-linecap="round" stroke-linejoin="round"></path>
                        </g>
                        <g id="Group-126" transform="translate(207.833333, 108.388889)">
                            <path d="M0.76075,0.161320988 L16.369108,0.161320988" id="Fill-124" fill="#FFFFFF"></path>
                            <path d="M0.76075,0.161320988 L16.369108,0.161320988" id="Stroke-125" stroke="#000000" stroke-width="2" stroke-linecap="round" stroke-linejoin="round"></path>
                        </g>
                        <g id="Group-129" transform="translate(206.728395, 115.018519)">
                            <path d="M0.76075,0.161320988 L17.3348241,0.161320988" id="Fill-127" fill="#FFFFFF"></path>
                            <path d="M0.76075,0.161320988 L17.3348241,0.161320988" id="Stroke-128" stroke="#000000" stroke-width="2" stroke-linecap="round" stroke-linejoin="round"></path>
                        </g>
                        <g id="Group-132" transform="translate(205.623457, 120.543210)">
                            <path d="M0.76075,0.161320988 L19.5447006,0.161320988" id="Fill-130" fill="#FFFFFF"></path>
                            <path d="M0.76075,0.161320988 L19.5447006,0.161320988" id="Stroke-131" stroke="#000000" stroke-width="2" stroke-linecap="round" stroke-linejoin="round"></path>
                        </g>
                        <g id="Group-135" transform="translate(205.623457, 126.067901)">
                            <path d="M0.76075,0.161320988 L20.6496389,0.161320988" id="Fill-133" fill="#FFFFFF"></path>
                            <path d="M0.76075,0.161320988 L20.6496389,0.161320988" id="Stroke-134" stroke="#000000" stroke-width="2" stroke-linecap="round" stroke-linejoin="round"></path>
                        </g>
                        <g id="Group-138" transform="translate(205.623457, 132.697531)">
                            <path d="M0.76075,0.161320988 L20.6496389,0.161320988" id="Fill-136" fill="#FFFFFF"></path>
                            <path d="M0.76075,0.161320988 L20.6496389,0.161320988" id="Stroke-137" stroke="#000000" stroke-width="2" stroke-linecap="round" stroke-linejoin="round"></path>
                        </g>
                        <g id="Group-141" transform="translate(204.518519, 138.222222)">
                            <path d="M0.76075,0.161320988 L22.8595154,0.161320988" id="Fill-139" fill="#FFFFFF"></path>
                            <path d="M0.76075,0.161320988 L22.8595154,0.161320988" id="Stroke-140" stroke="#000000" stroke-width="2" stroke-linecap="round" stroke-linejoin="round"></path>
                        </g>
                        <path d="M256.538239,146.093802 C256.538239,129.651216 269.868214,116.321241 286.310801,116.321241 C302.754492,116.321241 316.083362,129.650111 316.083362,146.093802 L256.538239,146.093802 L256.538239,146.093802 Z" id="Stroke-142" stroke="#000000" stroke-width="2" stroke-linecap="round" stroke-linejoin="round"></path>
                        <path d="M267.693806,126.890196 C270.197596,126.890196 272.227368,128.919968 272.227368,131.423758 C272.227368,133.927548 270.197596,135.95732 267.693806,135.95732 C265.190016,135.95732 263.160244,133.927548 263.160244,131.423758 C263.160244,128.919968 265.190016,126.890196 267.693806,126.890196" id="Fill-143" fill="#FFC83D"></path>
                        <path d="M267.693806,126.890196 C270.197596,126.890196 272.227368,128.919968 272.227368,131.423758 C272.227368,133.927548 270.197596,135.95732 267.693806,135.95732 C265.190016,135.95732 263.160244,133.927548 263.160244,131.423758 C263.160244,128.919968 265.190016,126.890196 267.693806,126.890196 L267.693806,126.890196 Z" id="Stroke-144" stroke="#000000" stroke-linecap="round" stroke-linejoin="round"></path>
                        <path d="M304.804705,126.890196 C307.308495,126.890196 309.338267,128.919968 309.338267,131.423758 C309.338267,133.927548 307.308495,135.95732 304.804705,135.95732 C302.300915,135.95732 300.271143,133.927548 300.271143,131.423758 C300.271143,128.919968 302.300915,126.890196 304.804705,126.890196" id="Fill-145" fill="#FFC83D"></path>
                        <path d="M304.804705,126.890196 C307.308495,126.890196 309.338267,128.919968 309.338267,131.423758 C309.338267,133.927548 307.308495,135.95732 304.804705,135.95732 C302.300915,135.95732 300.271143,133.927548 300.271143,131.423758 C300.271143,128.919968 302.300915,126.890196 304.804705,126.890196 L304.804705,126.890196 Z" id="Stroke-146" stroke="#000000" stroke-linecap="round" stroke-linejoin="round"></path>
                        <path d="M292.89568,119.403798 C295.39947,119.403798 297.429242,121.433569 297.429242,123.937359 C297.429242,126.441149 295.39947,128.470921 292.89568,128.470921 C290.39189,128.470921 288.362119,126.441149 288.362119,123.937359 C288.362119,121.433569 290.39189,119.403798 292.89568,119.403798" id="Fill-147" fill="#FFC83D"></path>
                        <path d="M292.89568,119.403798 C295.39947,119.403798 297.429242,121.433569 297.429242,123.937359 C297.429242,126.441149 295.39947,128.470921 292.89568,128.470921 C290.39189,128.470921 288.362119,126.441149 288.362119,123.937359 C288.362119,121.433569 290.39189,119.403798 292.89568,119.403798 L292.89568,119.403798 Z" id="Stroke-148" stroke="#000000" stroke-linecap="round" stroke-linejoin="round"></path>
                        <path d="M279.726473,119.403798 C282.230264,119.403798 284.260035,121.433569 284.260035,123.937359 C284.260035,126.441149 282.230264,128.470921 279.726473,128.470921 C277.222683,128.470921 275.192912,126.441149 275.192912,123.937359 C275.192912,121.433569 277.222683,119.403798 279.726473,119.403798" id="Fill-149" fill="#FFC83D"></path>
                        <path d="M279.726473,119.403798 C282.230264,119.403798 284.260035,121.433569 284.260035,123.937359 C284.260035,126.441149 282.230264,128.470921 279.726473,128.470921 C277.222683,128.470921 275.192912,126.441149 275.192912,123.937359 C275.192912,121.433569 277.222683,119.403798 279.726473,119.403798 L279.726473,119.403798 Z" id="Stroke-150" stroke="#000000" stroke-linecap="round" stroke-linejoin="round"></path>
                        <path d="M286.308591,118.909559 C288.812381,118.909559 290.842152,120.93933 290.842152,123.44312 C290.842152,125.94691 288.812381,127.976682 286.308591,127.976682 C283.804801,127.976682 281.775029,125.94691 281.775029,123.44312 C281.775029,120.93933 283.804801,118.909559 286.308591,118.909559" id="Fill-151" fill="#FFC83D"></path>
                        <path d="M286.308591,118.909559 C288.812381,118.909559 290.842152,120.93933 290.842152,123.44312 C290.842152,125.94691 288.812381,127.976682 286.308591,127.976682 C283.804801,127.976682 281.775029,125.94691 281.775029,123.44312 C281.775029,120.93933 283.804801,118.909559 286.308591,118.909559 L286.308591,118.909559 Z" id="Stroke-152" stroke="#000000" stroke-linecap="round" stroke-linejoin="round"></path>
                        <path d="M273.065243,121.773227 C275.569033,121.773227 277.598804,123.802999 277.598804,126.306789 C277.598804,128.810579 275.569033,130.840351 273.065243,130.840351 C270.561452,130.840351 268.531681,128.810579 268.531681,126.306789 C268.531681,123.802999 270.561452,121.773227 273.065243,121.773227" id="Fill-153" fill="#FFC83D"></path>
                        <path d="M273.065243,121.773227 C275.569033,121.773227 277.598804,123.802999 277.598804,126.306789 C277.598804,128.810579 275.569033,130.840351 273.065243,130.840351 C270.561452,130.840351 268.531681,128.810579 268.531681,126.306789 C268.531681,123.802999 270.561452,121.773227 273.065243,121.773227 L273.065243,121.773227 Z" id="Stroke-154" stroke="#000000" stroke-linecap="round" stroke-linejoin="round"></path>
                        <path d="M299.551939,121.773227 C302.055729,121.773227 304.085501,123.802999 304.085501,126.306789 C304.085501,128.810579 302.055729,130.840351 299.551939,130.840351 C297.048149,130.840351 295.018377,128.810579 295.018377,126.306789 C295.018377,123.802999 297.048149,121.773227 299.551939,121.773227" id="Fill-155" fill="#FFC83D"></path>
                        <path d="M299.551939,121.773227 C302.055729,121.773227 304.085501,123.802999 304.085501,126.306789 C304.085501,128.810579 302.055729,130.840351 299.551939,130.840351 C297.048149,130.840351 295.018377,128.810579 295.018377,126.306789 C295.018377,123.802999 297.048149,121.773227 299.551939,121.773227 L299.551939,121.773227 Z" id="Stroke-156" stroke="#000000" stroke-linecap="round" stroke-linejoin="round"></path>
                        <path d="M256.659451,146.336005 C256.659451,134.515375 269.989426,124.932246 286.432012,124.932246 C302.875704,124.932246 316.204574,134.515375 316.204574,146.336005 L256.659451,146.336005 Z" id="Fill-157" fill="#FFFFFF"></path>
                        <path d="M299.614147,127.087096 C302.86377,130.43064 305.55319,133.702362 301.685906,138.260232 C295.488307,145.563874 257.350258,142.77059 257.350258,142.77059 C256.641993,144.559485 257.488375,145.013615 257.488375,146.118553 L315.92856,146.118553 C315.92856,139.488923 312.459054,131.230615 299.614147,127.087096" id="Fill-159" fill="#E2E2E2"></path>
                        <path d="M256.659451,146.336005 C256.659451,134.515375 269.989426,124.932246 286.432012,124.932246 C302.875704,124.932246 316.204574,134.515375 316.204574,146.336005 L256.659451,146.336005 L256.659451,146.336005 Z" id="Stroke-158" stroke="#000000" stroke-width="2" stroke-linecap="round" stroke-linejoin="round"></path>
                        <polygon id="Fill-160" fill="#FFFFFF" points="49.0080698 138.697898 68.5665821 141.998349 85.1704895 139.196225 86.9483352 126.93583 11.0313414 126.93583 12.8854278 139.209485 29.4119895 141.998349"></polygon>
                        <path d="M10.7548858,126.229222 L12.6089722,138.71834 L12.8222253,139.013358 C13.9282685,144.89163 19.0695463,147.223049 25.0649414,147.223049 L53.9491327,145.933586 C17.607713,145.344654 28.4383179,131.666623 20.0650957,128.254574 C15.0928735,126.229222 10.7548858,126.229222 10.7548858,126.229222" id="Fill-164" fill="#E2E2E2"></path>
                        <polygon id="Stroke-161" stroke="#000000" stroke-width="2" stroke-linecap="round" stroke-linejoin="round" points="49.0080698 138.697898 68.5665821 141.998349 85.1704895 139.196225 86.9483352 126.93583 11.0313414 126.93583 12.8854278 139.209485 29.4119895 141.998349"></polygon>
                        <path d="M68.5670241,140.893079 L49.0085117,137.592628 L29.4124315,140.893079 L12.8858698,138.10532 L13.0891784,139.204733 C14.1786475,145.115048 19.3309747,147.195647 25.3418389,147.195647 L72.720487,147.195647 C78.7633944,147.195647 83.9356105,145.068641 84.9886167,139.117443 L85.1698265,138.09206 L68.5670241,140.893079 Z" id="Fill-162" fill="#FFFFFF"></path>
                        <path d="M68.5670241,140.893079 L49.0085117,137.592628 L29.4124315,140.893079 L12.8858698,138.10532 L13.0891784,139.204733 C14.1786475,145.115048 19.3309747,147.195647 25.3418389,147.195647 L72.720487,147.195647 C78.7633944,147.195647 83.9356105,145.068641 84.9886167,139.117443 L85.1698265,138.09206 L68.5670241,140.893079 L68.5670241,140.893079 Z" id="Stroke-163" stroke="#000000" stroke-width="2" stroke-linecap="round" stroke-linejoin="round"></path>
                        <path d="M64.8512272,114.127165 C63.2358074,106.714134 56.6625296,101.369548 49.0075173,101.369548 C41.3536099,101.369548 34.7792272,106.711924 33.1638074,114.127165 L31.7638506,119.95019 L30.5616778,126.935609 L67.4179988,126.935609 L66.2324,119.95019 L64.8512272,114.127165 Z" id="Fill-165" fill="#FFFFFF"></path>
                        <path d="M49.5599864,100.264278 L49.5599864,100.264278 C41.906079,100.264278 35.3316963,105.607759 33.7162765,113.021895 L32.3163198,118.84492 L31.1141469,125.831444 L41.0585914,125.831444 C41.0585914,125.831444 40.3215975,111.128031 49.5599864,100.264278" id="Fill-167" fill="#E2E2E2"></path>
                        <path d="M64.8512272,114.127165 C63.2358074,106.714134 56.6625296,101.369548 49.0075173,101.369548 C41.3536099,101.369548 34.7792272,106.711924 33.1638074,114.127165 L31.7638506,119.95019 L30.5616778,126.935609 L67.4179988,126.935609 L66.2324,119.95019 L64.8512272,114.127165 L64.8512272,114.127165 Z" id="Stroke-166" stroke="#000000" stroke-width="2" stroke-linecap="round" stroke-linejoin="round"></path>
                        <polygon id="Fill-168" fill="#FFC83D" points="85.9459352 131.659331 68.4028302 135.08022 48.9260833 131.127856 29.3708858 135.114473 12.2830154 131.77093 13.204534 137.981788 29.4128735 141.401572 49.0078488 137.449207 68.4028302 141.435825 85.2089414 138.092281"></polygon>
                        <polygon id="Stroke-169" stroke="#000000" stroke-width="2" stroke-linecap="round" stroke-linejoin="round" points="85.9459352 131.659331 68.4028302 135.08022 48.9260833 131.127856 29.3708858 135.114473 12.2830154 131.77093 13.204534 137.981788 29.4128735 141.401572 49.0078488 137.449207 68.4028302 141.435825 85.2089414 138.092281"></polygon>
                        <path d="M64.952108,116.284778 L32.9088981,116.284778" id="Stroke-170" stroke="#000000" stroke-width="2" stroke-linecap="round" stroke-linejoin="round"></path>
                        <polygon id="Fill-171" fill="#E2E2E2" points="207.956092 90.3532025 190.962141 144.236622 203.289938 144.255406"></polygon>
                        <polygon id="Fill-172" fill="#E2E2E2" points="224.478344 90.3532025 242.525301 144.236622 229.144499 144.255406"></polygon>
                    </g>
                </g>
            </g>
        </g>
    </g>
</svg>