<?xml version="1.0" encoding="UTF-8"?>
<svg width="335px" height="178px" viewBox="0 0 335 178" version="1.1" xmlns="http://www.w3.org/2000/svg" xmlns:xlink="http://www.w3.org/1999/xlink">
    <!-- Generator: sketchtool 41.2 (35397) - http://www.bohemiancoding.com/sketch -->
    <title>65B80961-48A2-43D1-B245-775CCCE00925</title>
    <desc>Created with sketchtool.</desc>
    <defs></defs>
    <g id="Page-1" stroke="none" stroke-width="1" fill="none" fill-rule="evenodd">
        <g id="402_M2U_Solutions-Copy-22" transform="translate(-472.000000, -173.000000)">
            <g id="Group-4">
                <g id="Page-1" transform="translate(473.500000, 173.000000)">
                    <path d="M10.4471619,150.926362 L322.472131,150.926362 L10.4471619,150.926362 Z" id="Fill-1" fill="#FFFFFF"></path>
                    <path d="M10.4476094,150.92625 L322.471459,150.92625" id="Stroke-2" stroke="#E2E2E2" stroke-width="12" stroke-linecap="round" stroke-linejoin="round"></path>
                    <path d="M27.5600094,160.495702 L41.3385344,160.495702 L27.5600094,160.495702 Z" id="Fill-4" fill="#FFFFFF"></path>
                    <path d="M41.3395412,160.495702 L27.5598975,160.495702" id="Stroke-5" stroke="#000000" stroke-width="2" stroke-linecap="round" stroke-linejoin="round"></path>
                    <path d="M51.7813944,160.495702 L196.209782,160.495702 L51.7813944,160.495702 Z" id="Fill-6" fill="#FFFFFF"></path>
                    <path d="M196.209222,160.495702 L51.780835,160.495702" id="Stroke-7" stroke="#000000" stroke-width="2" stroke-linecap="round" stroke-linejoin="round"></path>
                    <path d="M205.267406,160.495702 L266.108387,160.495702 L205.267406,160.495702 Z" id="Fill-8" fill="#FFFFFF"></path>
                    <path d="M266.108051,160.495702 L205.26707,160.495702" id="Stroke-9" stroke="#000000" stroke-width="2" stroke-linecap="round" stroke-linejoin="round"></path>
                    <path d="M276.121199,160.495702 L310.585412,160.495702 L276.121199,160.495702 Z" id="Fill-10" fill="#FFFFFF"></path>
                    <path d="M310.585412,160.495702 L276.121199,160.495702" id="Stroke-11" stroke="#000000" stroke-width="2" stroke-linecap="round" stroke-linejoin="round"></path>
                    <path d="M165.893559,176.531193 L209.525927,176.531193 L165.893559,176.531193 Z" id="Fill-12" fill="#FFFFFF"></path>
                    <path d="M209.525032,176.531081 L165.893782,176.531081" id="Stroke-13" stroke="#000000" stroke-width="2" stroke-linecap="round" stroke-linejoin="round"></path>
                    <path d="M62.5962388,176.531193 L132.069495,176.531193 L62.5962388,176.531193 Z" id="Fill-15" fill="#FFFFFF"></path>
                    <path d="M132.069719,176.531081 L62.5953437,176.531081" id="Stroke-16" stroke="#000000" stroke-width="2" stroke-linecap="round" stroke-linejoin="round"></path>
                    <path d="M141.416428,176.531193 L155.452265,176.531193 L141.416428,176.531193 Z" id="Fill-18" fill="#FFFFFF"></path>
                    <path d="M155.452041,176.531081 L141.417322,176.531081" id="Stroke-19" stroke="#000000" stroke-width="2" stroke-linecap="round" stroke-linejoin="round"></path>
                    <path d="M220.011076,176.531193 L249.800033,176.531193 L220.011076,176.531193 Z" id="Fill-21" fill="#FFFFFF"></path>
                    <g id="Group-261" transform="translate(0.000000, 0.768581)">
                        <polygon id="Stroke-22" stroke="#000000" stroke-width="2" stroke-linecap="round" stroke-linejoin="round" points="249.800033 175.7625 220.011076 175.7625"></polygon>
                        <path d="M225.106983,69.4283331 C225.106983,97.2482894 202.554101,119.801171 174.734145,119.801171 C146.91307,119.801171 124.360189,97.2482894 124.360189,69.4283331 C124.360189,41.6083769 146.91307,19.0554956 174.734145,19.0554956 C202.554101,19.0554956 225.106983,41.6083769 225.106983,69.4283331 L225.106983,69.4283331 Z" id="Stroke-24" stroke="#D1D1D1" stroke-width="2" stroke-linecap="round" stroke-linejoin="round"></path>
                        <g id="Group-29" transform="translate(172.406250, 19.137500)">
                            <path d="M0.214016875,0.349833125 L0.214016875,99.9185831" id="Fill-26" fill="#FFFFFF"></path>
                            <path d="M0.214016875,0.349833125 L0.214016875,99.9185831" id="Stroke-28" stroke="#D1D1D1" stroke-width="2" stroke-linecap="round" stroke-linejoin="round"></path>
                        </g>
                        <g id="Group-33" transform="translate(125.418750, 70.600000)">
                            <path d="M99.2233919,0.909208125 L0.773391875,0.909208125" id="Fill-30" fill="#FFFFFF"></path>
                            <path d="M99.2233919,0.909208125 L0.773391875,0.909208125" id="Stroke-32" stroke="#D1D1D1" stroke-width="2" stroke-linecap="round" stroke-linejoin="round"></path>
                        </g>
                        <g id="Group-37" transform="translate(139.962500, 33.681250)">
                            <path d="M70.784655,0.541363125 L0.741955,72.8819756" id="Fill-34" fill="#FFFFFF"></path>
                            <path d="M70.784655,0.541363125 L0.741955,72.8819756" id="Stroke-36" stroke="#D1D1D1" stroke-width="2" stroke-linecap="round" stroke-linejoin="round"></path>
                        </g>
                        <g id="Group-41" transform="translate(139.962500, 34.800000)">
                            <path d="M0.741619375,0.09822625 L68.8007756,71.7631138" id="Fill-38" fill="#FFFFFF"></path>
                            <path d="M0.741619375,0.09822625 L68.8007756,71.7631138" id="Stroke-40" stroke="#D1D1D1" stroke-width="2" stroke-linecap="round" stroke-linejoin="round"></path>
                        </g>
                        <path d="M226.149546,27.2200213 C226.149546,31.5272088 222.657927,35.0188275 218.350739,35.0188275 C214.043552,35.0188275 210.551933,31.5272088 210.551933,27.2200213 C210.551933,22.9128338 214.043552,19.421215 218.350739,19.421215 C222.657927,19.421215 226.149546,22.9128338 226.149546,27.2200213 L226.149546,27.2200213 Z" id="Stroke-42" stroke="#D1D1D1" stroke-width="2" stroke-linecap="round" stroke-linejoin="round"></path>
                        <path d="M218.489017,19.4873331 L218.489017,28.4373331" id="Stroke-44" stroke="#D1D1D1" stroke-width="2" stroke-linecap="round" stroke-linejoin="round"></path>
                        <path d="M211.217142,28.9967081 L225.760892,28.9967081" id="Stroke-46" stroke="#D1D1D1" stroke-width="2" stroke-linecap="round" stroke-linejoin="round"></path>
                        <path d="M242.364484,69.1087063 C242.364484,73.4158938 238.872866,76.9075125 234.565678,76.9075125 C230.258491,76.9075125 226.766872,73.4158938 226.766872,69.1087063 C226.766872,64.8015188 230.258491,61.3099 234.565678,61.3099 C238.872866,61.3099 242.364484,64.8015188 242.364484,69.1087063 L242.364484,69.1087063 Z" id="Stroke-48" stroke="#D1D1D1" stroke-width="2" stroke-linecap="round" stroke-linejoin="round"></path>
                        <path d="M234.151517,61.9998331 L234.151517,69.8310831" id="Stroke-50" stroke="#D1D1D1" stroke-width="2" stroke-linecap="round" stroke-linejoin="round"></path>
                        <path d="M226.879642,70.3904581 L242.542142,70.3904581" id="Stroke-52" stroke="#D1D1D1" stroke-width="2" stroke-linecap="round" stroke-linejoin="round"></path>
                        <path d="M141.139537,27.2200213 C141.139537,31.5272088 137.647918,35.0188275 133.340731,35.0188275 C129.033543,35.0188275 125.541924,31.5272088 125.541924,27.2200213 C125.541924,22.9128338 129.033543,19.421215 133.340731,19.421215 C137.647918,19.421215 141.139537,22.9128338 141.139537,27.2200213 L141.139537,27.2200213 Z" id="Stroke-54" stroke="#D1D1D1" stroke-width="2" stroke-linecap="round" stroke-linejoin="round"></path>
                        <path d="M133.464017,19.4873331 L133.464017,28.4373331" id="Stroke-56" stroke="#D1D1D1" stroke-width="2" stroke-linecap="round" stroke-linejoin="round"></path>
                        <path d="M126.192142,28.9967081 L140.735892,28.9967081" id="Stroke-58" stroke="#D1D1D1" stroke-width="2" stroke-linecap="round" stroke-linejoin="round"></path>
                        <path d="M125.02674,69.1087063 C125.02674,73.4158938 121.535121,76.9075125 117.227934,76.9075125 C112.920746,76.9075125 109.429127,73.4158938 109.429127,69.1087063 C109.429127,64.8015188 112.920746,61.3099 117.227934,61.3099 C121.535121,61.3099 125.02674,64.8015188 125.02674,69.1087063 L125.02674,69.1087063 Z" id="Stroke-60" stroke="#D1D1D1" stroke-width="2" stroke-linecap="round" stroke-linejoin="round"></path>
                        <path d="M116.682767,61.9998331 L116.682767,69.8310831" id="Stroke-62" stroke="#D1D1D1" stroke-width="2" stroke-linecap="round" stroke-linejoin="round"></path>
                        <path d="M109.410892,70.3904581 L125.073392,70.3904581" id="Stroke-64" stroke="#D1D1D1" stroke-width="2" stroke-linecap="round" stroke-linejoin="round"></path>
                        <path d="M179.553384,8.30263 C179.553384,12.6098175 176.061766,16.1014363 171.754578,16.1014363 C167.447391,16.1014363 163.955772,12.6098175 163.955772,8.30263 C163.955772,3.9954425 167.447391,0.50382375 171.754578,0.50382375 C176.061766,0.50382375 179.553384,3.9954425 179.553384,8.30263 L179.553384,8.30263 Z" id="Stroke-66" stroke="#D1D1D1" stroke-width="2" stroke-linecap="round" stroke-linejoin="round"></path>
                        <path d="M172.620267,0.468583125 L172.620267,8.29983313" id="Stroke-68" stroke="#D1D1D1" stroke-width="2" stroke-linecap="round" stroke-linejoin="round"></path>
                        <path d="M164.229642,9.97795813 L178.773392,9.97795813" id="Stroke-70" stroke="#D1D1D1" stroke-width="2" stroke-linecap="round" stroke-linejoin="round"></path>
                        <path d="M49.5256588,141.882051 C49.5256588,141.882051 80.0115963,106.08317 80.0115963,38.7601513 L84.6499338,38.7601513 C84.6499338,105.502539 115.078815,141.882051 115.078815,141.882051 L101.477053,141.882051 C101.477053,130.92837 92.9846213,121.892226 82.5086463,121.892226 C72.0326713,121.892226 63.54024,130.92837 63.54024,141.882051 L49.5256588,141.882051 Z" id="Fill-72" fill="#FFFFFF"></path>
                        <path d="M85.1572869,59.9106794 C84.1291556,51.7672981 84.0911181,49.2445169 84.0911181,40.2945169 L79.4516619,40.2945169 C79.4516619,107.419517 48.9657244,143.219517 48.9657244,143.219517 L54.3916619,143.219517 C57.5789806,138.744517 79.5635369,113.051304 85.1572869,59.9106794" id="Fill-76" fill="#E2E2E2"></path>
                        <path d="M86.4240475,121.442601 C85.5212163,121.442601 84.6396413,121.588038 83.7692538,121.717813 C91.7258038,124.111938 101.379498,126.438938 100.917454,143.220188 L108.721854,143.220188 C109.070904,135.388938 96.718785,121.442601 86.4240475,121.442601" id="Fill-78" fill="#E2E2E2"></path>
                        <path d="M49.5256588,141.882051 C49.5256588,141.882051 80.0115963,106.08317 80.0115963,38.7601513 L84.6499338,38.7601513 C84.6499338,105.502539 115.078815,141.882051 115.078815,141.882051 L101.477053,141.882051 C101.477053,130.92837 92.9846213,121.892226 82.5086463,121.892226 C72.0326713,121.892226 63.54024,130.92837 63.54024,141.882051 L49.5256588,141.882051 L49.5256588,141.882051 Z" id="Stroke-74" stroke="#000000" stroke-width="2" stroke-linecap="round" stroke-linejoin="round"></path>
                        <g id="Group-83" transform="translate(75.075000, 96.331250)">
                            <polyline id="Fill-80" fill="#FFC83D" points="0.078424375 18.1384056 4.63733062 0.691499375 10.2310806 0.691499375 14.5181306 18.1384056"></polyline>
                            <polyline id="Stroke-82" stroke="#000000" stroke-width="2" stroke-linecap="round" stroke-linejoin="round" points="0.078424375 18.1384056 4.63733062 0.691499375 10.2310806 0.691499375 14.5181306 18.1384056"></polyline>
                        </g>
                        <g id="Group-87" transform="translate(59.412500, 114.231250)">
                            <path d="M44.8426325,0.238405625 L0.64977,0.238405625" id="Fill-84" fill="#FFFFFF"></path>
                            <path d="M44.8426325,0.238405625 L0.64977,0.238405625" id="Stroke-86" stroke="#000000" stroke-width="2" stroke-linecap="round" stroke-linejoin="round"></path>
                        </g>
                        <g id="Group-91" transform="translate(69.481250, 89.618750)">
                            <path d="M25.0833819,0.518205 L0.271744375,0.518205" id="Fill-88" fill="#FFFFFF"></path>
                            <path d="M25.0833819,0.518205 L0.271744375,0.518205" id="Stroke-90" stroke="#000000" stroke-width="2" stroke-linecap="round" stroke-linejoin="round"></path>
                        </g>
                        <g id="Group-95" transform="translate(81.787500, 30.325000)">
                            <path d="M0.72137,0.836936875 L0.72137,7.43532437" id="Fill-92" fill="#FFFFFF"></path>
                            <path d="M0.72137,0.836936875 L0.72137,7.43532437" id="Stroke-94" stroke="#000000" stroke-width="2" stroke-linecap="round" stroke-linejoin="round"></path>
                        </g>
                        <path d="M132.223771,43.9294475 C132.223771,48.8284538 128.252208,52.7988975 123.354321,52.7988975 C118.455314,52.7988975 114.483752,48.8284538 114.483752,43.9294475 C114.483752,39.0304413 118.455314,35.0599975 123.354321,35.0599975 C128.252208,35.0599975 132.223771,39.0304413 132.223771,43.9294475" id="Fill-96" fill="#FFC83D"></path>
                        <polyline id="Fill-98" fill="#FFFFFF" points="131.402384 27.9930775 127.476691 20.6138025 117.016378 20.6138025 113.090684 27.9930775"></polyline>
                        <polygon id="Fill-102" fill="#E2E2E2" points="130.093782 27.7088031 114.058739 27.7088031 115.177489 24.6322406 128.975032 24.6322406"></polygon>
                        <polyline id="Stroke-100" stroke="#000000" stroke-width="2" stroke-linecap="round" stroke-linejoin="round" points="131.402384 27.9930775 127.476691 20.6138025 117.016378 20.6138025 113.090684 27.9930775"></polyline>
                        <polygon id="Fill-104" fill="#FFFFFF" points="106.662906 59.8667125 138.536094 59.8667125 138.536094 27.993525 106.662906 27.993525"></polygon>
                        <polygon id="Stroke-106" stroke="#000000" stroke-width="2" stroke-linecap="round" stroke-linejoin="round" points="106.662906 59.8667125 138.536094 59.8667125 138.536094 27.993525 106.662906 27.993525"></polygon>
                        <path d="M124.760701,52.5239087 C118.905164,52.5239087 114.158307,48.0019212 114.158307,42.422715 C114.158307,40.11809 114.977232,38.0002962 116.33987,36.300915 C113.405389,38.0976275 110.247157,42.3320962 110.247157,45.9020275 C110.247157,51.4812337 114.994014,56.0032212 120.85067,56.0032212 C124.28747,56.0032212 128.540957,53.3361212 130.478632,50.92074 C128.827357,51.9309712 126.868426,52.5239087 124.760701,52.5239087" id="Fill-107" fill="#E2E2E2"></path>
                        <path d="M132.109658,43.9294475 C132.109658,49.1819788 127.851696,53.4388225 122.600283,53.4388225 C117.348871,53.4388225 113.090908,49.1819788 113.090908,43.9294475 C113.090908,38.678035 117.348871,34.4200725 122.600283,34.4200725 C127.851696,34.4200725 132.109658,38.678035 132.109658,43.9294475" id="Fill-108" fill="#FFC83D"></path>
                        <path d="M132.109658,43.9294475 C132.109658,49.1819788 127.851696,53.4388225 122.600283,53.4388225 C117.348871,53.4388225 113.090908,49.1819788 113.090908,43.9294475 C113.090908,38.678035 117.348871,34.4200725 122.600283,34.4200725 C127.851696,34.4200725 132.109658,38.678035 132.109658,43.9294475 L132.109658,43.9294475 Z" id="Stroke-109" stroke="#000000" stroke-width="2" stroke-linecap="round" stroke-linejoin="round"></path>
                        <g id="Group-112" transform="translate(122.062500, 6.831250)">
                            <path d="M0.30183875,0.049113125 L0.30183875,12.9729131" id="Fill-110" fill="#FFFFFF"></path>
                            <path d="M0.30183875,0.049113125 L0.30183875,12.9729131" id="Stroke-111" stroke="#000000" stroke-width="2" stroke-linecap="round" stroke-linejoin="round"></path>
                        </g>
                        <polygon id="Fill-113" fill="#FFFFFF" points="109.54145 141.814031 135.521063 141.814031 135.521063 59.8655938 109.54145 59.8655938"></polygon>
                        <path d="M109.210412,114.469656 C109.210412,114.469656 113.965099,77.4927306 116.482287,71.3396056 C118.688462,65.9472306 128.669949,66.0255431 134.382287,66.0255431 L134.382287,60.1521056 L109.210412,60.1521056 L109.210412,114.469656 Z" id="Fill-115" fill="#E2E2E2"></path>
                        <polygon id="Stroke-114" stroke="#000000" stroke-width="2" stroke-linecap="round" stroke-linejoin="round" points="109.54145 141.814031 135.521063 141.814031 135.521063 59.8655938 109.54145 59.8655938"></polygon>
                        <g id="Group-118" transform="translate(125.418750, 65.006250)">
                            <path d="M0.511156875,0.287854375 L0.511156875,76.8081169" id="Fill-116" fill="#FFFFFF"></path>
                            <path d="M0.511156875,0.287854375 L0.511156875,76.8081169" id="Stroke-117" stroke="#000000" stroke-width="2" stroke-linecap="round" stroke-linejoin="round"></path>
                        </g>
                        <g id="Group-121" transform="translate(118.706250, 65.006250)">
                            <path d="M0.092744375,0.287854375 L0.092744375,76.8081169" id="Fill-119" fill="#FFFFFF"></path>
                            <path d="M0.092744375,0.287854375 L0.092744375,76.8081169" id="Stroke-120" stroke="#000000" stroke-width="2" stroke-linecap="round" stroke-linejoin="round"></path>
                        </g>
                        <polyline id="Stroke-122" stroke="#000000" stroke-width="2" stroke-linecap="round" stroke-linejoin="round" points="122.364451 38.5531825 122.364451 43.929895 125.394026 46.9583512"></polyline>
                        <polyline id="Fill-123" fill="#FFFFFF" points="150.058659 142.035208 150.058659 78.9958831 185.707628 78.9958831 194.572603 99.8012769 244.429697 99.9265769 244.222728 142.035208"></polyline>
                        <polygon id="Fill-124" fill="#E2E2E2" points="149.857844 105.408788 244.05995 105.408788 244.05995 100.987488 149.857844 100.987488"></polygon>
                        <polygon id="Fill-125" fill="#E2E2E2" points="149.857844 126.252219 244.05995 126.252219 244.05995 121.830919 149.857844 121.830919"></polygon>
                        <polygon id="Fill-126" fill="#E2E2E2" points="187.336416 83.9259906 150.058548 83.9259906 150.058548 79.7474594 186.030835 79.7474594"></polygon>
                        <g id="Group-129" transform="translate(150.031250, 141.081250)">
                            <path d="M62.5395794,0.953958125 L0.027185625,0.953958125" id="Fill-127" fill="#FFFFFF"></path>
                            <path d="M62.5395794,0.953958125 L0.027185625,0.953958125" id="Stroke-128" stroke="#000000" stroke-width="2" stroke-linecap="round" stroke-linejoin="round"></path>
                        </g>
                        <polyline id="Stroke-130" stroke="#000000" stroke-width="2" stroke-linecap="round" stroke-linejoin="round" points="143.882041 79.1574306 186.007453 79.1574306 212.571053 142.035656"></polyline>
                        <g id="Group-133" transform="translate(220.512500, 127.656250)">
                            <path d="M0.802703125,14.3789581 L0.802703125,5.44126437 C0.802703125,5.44126437 0.997365625,0.433739375 6.08655938,0.433739375 C11.1757531,0.433739375 11.3547531,5.44126437 11.3547531,5.44126437 L11.3547531,14.3789581" id="Fill-131" fill="#FFC83D"></path>
                            <path d="M0.802703125,14.3789581 L0.802703125,5.44126437 C0.802703125,5.44126437 0.997365625,0.433739375 6.08655938,0.433739375 C11.1757531,0.433739375 11.3547531,5.44126437 11.3547531,5.44126437 L11.3547531,14.3789581" id="Stroke-132" stroke="#000000" stroke-width="2" stroke-linecap="round" stroke-linejoin="round"></path>
                        </g>
                        <path d="M150.058659,142.035208 L150.058659,80.6796019" id="Stroke-134" stroke="#000000" stroke-width="2" stroke-linecap="round" stroke-linejoin="round"></path>
                        <path d="M244.222728,142.035208 L244.222728,101.604702" id="Stroke-135" stroke="#000000" stroke-width="2" stroke-linecap="round" stroke-linejoin="round"></path>
                        <g id="Group-138" transform="translate(156.743750, 127.656250)">
                            <path d="M0.28998,14.3789581 L0.28998,5.44126437 C0.28998,5.44126437 0.4846425,0.433739375 5.57383625,0.433739375 C10.66303,0.433739375 10.84203,5.44126437 10.84203,5.44126437 L10.84203,14.3789581" id="Fill-136" fill="#FFC83D"></path>
                            <path d="M0.28998,14.3789581 L0.28998,5.44126437 C0.28998,5.44126437 0.4846425,0.433739375 5.57383625,0.433739375 C10.66303,0.433739375 10.84203,5.44126437 10.84203,5.44126437 L10.84203,14.3789581" id="Stroke-137" stroke="#000000" stroke-width="2" stroke-linecap="round" stroke-linejoin="round"></path>
                        </g>
                        <g id="Group-141" transform="translate(173.525000, 127.656250)">
                            <path d="M1.04591937,14.3789581 L1.04591937,5.44126437 C1.04591937,5.44126437 1.24058188,0.433739375 6.32977563,0.433739375 C11.4189694,0.433739375 11.5979694,5.44126437 11.5979694,5.44126437 L11.5979694,14.3789581" id="Fill-139" fill="#FFC83D"></path>
                            <path d="M1.04591937,14.3789581 L1.04591937,5.44126437 C1.04591937,5.44126437 1.24058188,0.433739375 6.32977563,0.433739375 C11.4189694,0.433739375 11.5979694,5.44126437 11.5979694,5.44126437 L11.5979694,14.3789581" id="Stroke-140" stroke="#000000" stroke-width="2" stroke-linecap="round" stroke-linejoin="round"></path>
                        </g>
                        <g id="Group-144" transform="translate(156.743750, 86.262500)">
                            <path d="M0.28998,13.14397 L0.28998,5.048695 C0.28998,5.048695 0.4846425,0.04117 5.57383625,0.04117 C10.66303,0.04117 10.84203,5.048695 10.84203,5.048695 L10.84203,13.14397" id="Fill-142" fill="#FFFFFF"></path>
                            <path d="M0.28998,13.14397 L0.28998,5.048695 C0.28998,5.048695 0.4846425,0.04117 5.57383625,0.04117 C10.66303,0.04117 10.84203,5.048695 10.84203,5.048695 L10.84203,13.14397" id="Stroke-143" stroke="#000000" stroke-width="2" stroke-linecap="round" stroke-linejoin="round"></path>
                        </g>
                        <g id="Group-147" transform="translate(173.525000, 86.262500)">
                            <path d="M1.04591937,13.14397 L1.04591937,5.048695 C1.04591937,5.048695 1.24058188,0.04117 6.32977563,0.04117 C11.4189694,0.04117 11.5979694,5.048695 11.5979694,5.048695 L11.5979694,13.14397" id="Fill-145" fill="#FFFFFF"></path>
                            <path d="M1.04591937,13.14397 L1.04591937,5.048695 C1.04591937,5.048695 1.24058188,0.04117 6.32977563,0.04117 C11.4189694,0.04117 11.5979694,5.048695 11.5979694,5.048695 L11.5979694,13.14397" id="Stroke-146" stroke="#000000" stroke-width="2" stroke-linecap="round" stroke-linejoin="round"></path>
                        </g>
                        <g id="Group-150" transform="translate(156.743750, 106.400000)">
                            <path d="M0.28998,13.9263119 L0.28998,5.83103688 C0.28998,5.83103688 0.4846425,0.822393125 5.57383625,0.822393125 C10.66303,0.822393125 10.84203,5.83103688 10.84203,5.83103688 L10.84203,13.9263119" id="Fill-148" fill="#FFFFFF"></path>
                            <path d="M0.28998,13.9263119 L0.28998,5.83103688 C0.28998,5.83103688 0.4846425,0.822393125 5.57383625,0.822393125 C10.66303,0.822393125 10.84203,5.83103688 10.84203,5.83103688 L10.84203,13.9263119" id="Stroke-149" stroke="#000000" stroke-width="2" stroke-linecap="round" stroke-linejoin="round"></path>
                        </g>
                        <g id="Group-153" transform="translate(179.118750, 106.400000)">
                            <path d="M0.287854375,13.9263119 L0.287854375,5.83103688 C0.287854375,5.83103688 0.482516875,0.822393125 5.57171063,0.822393125 C10.6609044,0.822393125 10.8399044,5.83103688 10.8399044,5.83103688 L10.8399044,13.9263119" id="Fill-151" fill="#FFFFFF"></path>
                            <path d="M0.287854375,13.9263119 L0.287854375,5.83103688 C0.287854375,5.83103688 0.482516875,0.822393125 5.57171063,0.822393125 C10.6609044,0.822393125 10.8399044,5.83103688 10.8399044,5.83103688 L10.8399044,13.9263119" id="Stroke-152" stroke="#000000" stroke-width="2" stroke-linecap="round" stroke-linejoin="round"></path>
                        </g>
                        <g id="Group-156" transform="translate(209.325000, 106.400000)">
                            <path d="M0.304411875,13.9263119 L0.304411875,5.83103688 C0.304411875,5.83103688 0.499074375,0.822393125 5.58826813,0.822393125 C10.6774619,0.822393125 10.8564619,5.83103688 10.8564619,5.83103688 L10.8564619,13.9263119" id="Fill-154" fill="#FFFFFF"></path>
                            <path d="M0.304411875,13.9263119 L0.304411875,5.83103688 C0.304411875,5.83103688 0.499074375,0.822393125 5.58826813,0.822393125 C10.6774619,0.822393125 10.8564619,5.83103688 10.8564619,5.83103688 L10.8564619,13.9263119" id="Stroke-155" stroke="#000000" stroke-width="2" stroke-linecap="round" stroke-linejoin="round"></path>
                        </g>
                        <g id="Group-159" transform="translate(226.106250, 106.400000)">
                            <path d="M1.05218438,13.9263119 L1.05218438,5.83103688 C1.05218438,5.83103688 1.24684688,0.822393125 6.33604063,0.822393125 C11.4252344,0.822393125 11.6042344,5.83103688 11.6042344,5.83103688 L11.6042344,13.9263119" id="Fill-157" fill="#FFFFFF"></path>
                            <path d="M1.05218438,13.9263119 L1.05218438,5.83103688 C1.05218438,5.83103688 1.24684688,0.822393125 6.33604063,0.822393125 C11.4252344,0.822393125 11.6042344,5.83103688 11.6042344,5.83103688 L11.6042344,13.9263119" id="Stroke-158" stroke="#000000" stroke-width="2" stroke-linecap="round" stroke-linejoin="round"></path>
                        </g>
                        <g id="Group-162" transform="translate(191.425000, 127.656250)">
                            <path d="M0.68310875,14.3789581 L0.68310875,5.44126437 C0.68310875,5.44126437 0.87777125,0.433739375 5.966965,0.433739375 C11.0561587,0.433739375 11.2351587,5.44126437 11.2351587,5.44126437 L11.2351587,14.3789581" id="Fill-160" fill="#FFC83D"></path>
                            <path d="M0.68310875,14.3789581 L0.68310875,5.44126437 C0.68310875,5.44126437 0.87777125,0.433739375 5.966965,0.433739375 C11.0561587,0.433739375 11.2351587,5.44126437 11.2351587,5.44126437 L11.2351587,14.3789581" id="Stroke-161" stroke="#000000" stroke-width="2" stroke-linecap="round" stroke-linejoin="round"></path>
                        </g>
                        <g id="Group-165" transform="translate(143.318750, 120.943750)">
                            <path d="M0.563290625,0.034345625 L107.552709,0.034345625" id="Fill-163" fill="#FFFFFF"></path>
                            <path d="M0.563290625,0.034345625 L107.552709,0.034345625" id="Stroke-164" stroke="#000000" stroke-width="2" stroke-linecap="round" stroke-linejoin="round"></path>
                        </g>
                        <g id="Group-168" transform="translate(143.318750, 99.687500)">
                            <path d="M0.563290625,0.388765625 L107.552709,0.388765625" id="Fill-166" fill="#FFFFFF"></path>
                            <path d="M0.563290625,0.388765625 L107.552709,0.388765625" id="Stroke-167" stroke="#000000" stroke-width="2" stroke-linecap="round" stroke-linejoin="round"></path>
                        </g>
                        <polygon id="Fill-169" fill="#FFFFFF" points="281.929078 131.760944 256.857891 129.545819 262.993116 60.1083625 288.065422 62.3234875"></polygon>
                        <g id="Group-172" transform="translate(255.193750, 60.531250)"></g>
                        <g id="Group-175" transform="translate(252.956250, 127.656250)">
                            <polyline id="Fill-173" fill="#FFC83D" points="30.2249331 14.36654 31.1736331 3.35244625 2.07942062 0.30273375 0.767126875 13.9783337"></polyline>
                            <polyline id="Stroke-174" stroke="#000000" stroke-width="2" stroke-linecap="round" stroke-linejoin="round" points="30.2249331 14.36654 31.1736331 3.35244625 2.07942062 0.30273375 0.767126875 13.9783337"></polyline>
                        </g>
                        <polygon id="Fill-176" fill="#E2E2E2" points="283.768639 118.104922 257.187139 115.108909 257.692814 110.621603 284.274314 113.616497"></polygon>
                        <polygon id="Fill-177" fill="#E2E2E2" points="285.365431 101.724632 258.758199 98.9702694 259.222481 94.4773694 285.830831 97.2328506"></polygon>
                        <polygon id="Fill-178" fill="#E2E2E2" points="286.561039 85.7336669 259.959401 82.9244856 260.433751 78.4338231 287.035389 81.2418856"></polygon>
                        <polygon id="Fill-179" fill="#E2E2E2" points="288.298905 67.4841694 261.676011 64.8797194 262.11568 60.3857006 288.738574 62.9890319"></polygon>
                        <path d="M262.090732,61.3826188 L256.175901,128.078019" id="Fill-170" fill="#FFFFFF"></path>
                        <path d="M262.090732,61.3826188 L256.175901,128.078019" id="Stroke-171" stroke="#000000" stroke-width="2" stroke-linecap="round" stroke-linejoin="round"></path>
                        <g id="Group-182" transform="translate(282.043750, 63.887500)">
                            <path d="M6.59089188,0.3011675 L0.829329375,66.9887362" id="Fill-180" fill="#FFFFFF"></path>
                            <path d="M6.59089188,0.3011675 L0.829329375,66.9887362" id="Stroke-181" stroke="#000000" stroke-width="2" stroke-linecap="round" stroke-linejoin="round"></path>
                        </g>
                        <polygon id="Fill-183" fill="#FFC83D" points="291.741858 58.1050169 260.138289 54.6581481 259.722114 60.3525856 291.233946 63.6059106"></polygon>
                        <polygon id="Stroke-184" stroke="#000000" stroke-width="2" stroke-linecap="round" stroke-linejoin="round" points="291.741858 58.1050169 260.138289 54.6581481 259.722114 60.3525856 291.233946 63.6059106"></polygon>
                        <g id="Group-187" transform="translate(258.550000, 77.312500)">
                            <path d="M0.06421625,0.768693125 L31.5760475,4.02201813" id="Fill-185" fill="#FFFFFF"></path>
                            <path d="M0.06421625,0.768693125 L31.5760475,4.02201813" id="Stroke-186" stroke="#000000" stroke-width="2" stroke-linecap="round" stroke-linejoin="round"></path>
                        </g>
                        <g id="Group-190" transform="translate(256.312500, 94.093750)">
                            <path d="M0.93147125,0.21412875 L32.4433025,3.46745375" id="Fill-188" fill="#FFFFFF"></path>
                            <path d="M0.93147125,0.21412875 L32.4433025,3.46745375" id="Stroke-189" stroke="#000000" stroke-width="2" stroke-linecap="round" stroke-linejoin="round"></path>
                        </g>
                        <g id="Group-193" transform="translate(255.193750, 109.756250)">
                            <path d="M0.228336875,0.5938325 L31.7401681,3.8471575" id="Fill-191" fill="#FFFFFF"></path>
                            <path d="M0.228336875,0.5938325 L31.7401681,3.8471575" id="Stroke-192" stroke="#000000" stroke-width="2" stroke-linecap="round" stroke-linejoin="round"></path>
                        </g>
                        <g id="Group-196" transform="translate(277.568750, 103.043750)">
                            <path d="M1.02533437,0.53453875 L0.282484375,8.97886375" id="Fill-194" fill="#FFFFFF"></path>
                            <path d="M1.02533437,0.53453875 L0.282484375,8.97886375" id="Stroke-195" stroke="#000000" stroke-width="2" stroke-linecap="round" stroke-linejoin="round"></path>
                        </g>
                        <g id="Group-199" transform="translate(270.856250, 101.925000)">
                            <path d="M0.90148875,0.79587875 L0.16087625,9.53555375" id="Fill-197" fill="#FFFFFF"></path>
                            <path d="M0.90148875,0.79587875 L0.16087625,9.53555375" id="Stroke-198" stroke="#000000" stroke-width="2" stroke-linecap="round" stroke-linejoin="round"></path>
                        </g>
                        <g id="Group-202" transform="translate(264.143750, 101.925000)">
                            <path d="M0.849019375,0.0237175 L0.114000625,8.91889875" id="Fill-200" fill="#FFFFFF"></path>
                            <path d="M0.849019375,0.0237175 L0.114000625,8.91889875" id="Stroke-201" stroke="#000000" stroke-width="2" stroke-linecap="round" stroke-linejoin="round"></path>
                        </g>
                        <g id="Group-205" transform="translate(278.687500, 87.381250)">
                            <path d="M1.3510025,0.106393125 L0.6081525,8.55071813" id="Fill-203" fill="#FFFFFF"></path>
                            <path d="M1.3510025,0.106393125 L0.6081525,8.55071813" id="Stroke-204" stroke="#000000" stroke-width="2" stroke-linecap="round" stroke-linejoin="round"></path>
                        </g>
                        <g id="Group-208" transform="translate(271.975000, 86.262500)">
                            <path d="M1.22715688,0.367733125 L0.486544375,9.10740812" id="Fill-206" fill="#FFFFFF"></path>
                            <path d="M1.22715688,0.367733125 L0.486544375,9.10740812" id="Stroke-207" stroke="#000000" stroke-width="2" stroke-linecap="round" stroke-linejoin="round"></path>
                        </g>
                        <g id="Group-211" transform="translate(265.262500, 85.143750)">
                            <path d="M1.1746875,0.714321875 L0.43966875,9.60950312" id="Fill-209" fill="#FFFFFF"></path>
                            <path d="M1.1746875,0.714321875 L0.43966875,9.60950312" id="Stroke-210" stroke="#000000" stroke-width="2" stroke-linecap="round" stroke-linejoin="round"></path>
                        </g>
                        <g id="Group-214" transform="translate(279.806250, 70.600000)">
                            <path d="M1.68472563,0.146668125 L0.941875625,8.59099312" id="Fill-212" fill="#FFFFFF"></path>
                            <path d="M1.68472563,0.146668125 L0.941875625,8.59099312" id="Stroke-213" stroke="#000000" stroke-width="2" stroke-linecap="round" stroke-linejoin="round"></path>
                        </g>
                        <g id="Group-217" transform="translate(273.093750, 69.481250)">
                            <path d="M1.56088,0.408008125 L0.8202675,9.14768312" id="Fill-215" fill="#FFFFFF"></path>
                            <path d="M1.56088,0.408008125 L0.8202675,9.14768312" id="Stroke-216" stroke="#000000" stroke-width="2" stroke-linecap="round" stroke-linejoin="round"></path>
                        </g>
                        <g id="Group-220" transform="translate(266.381250, 68.362500)">
                            <path d="M1.50841063,0.754485 L0.773391875,9.64966625" id="Fill-218" fill="#FFFFFF"></path>
                            <path d="M1.50841063,0.754485 L0.773391875,9.64966625" id="Stroke-219" stroke="#000000" stroke-width="2" stroke-linecap="round" stroke-linejoin="round"></path>
                        </g>
                        <g id="Group-223" transform="translate(275.331250, 119.825000)">
                            <path d="M1.75408813,0.836936875 L1.01123813,9.28126188" id="Fill-221" fill="#FFFFFF"></path>
                            <path d="M1.75408813,0.836936875 L1.01123813,9.28126188" id="Stroke-222" stroke="#000000" stroke-width="2" stroke-linecap="round" stroke-linejoin="round"></path>
                        </g>
                        <g id="Group-226" transform="translate(268.618750, 118.706250)">
                            <path d="M1.6302425,1.09827687 L0.88963,9.83795187" id="Fill-224" fill="#FFFFFF"></path>
                            <path d="M1.6302425,1.09827687 L0.88963,9.83795187" id="Stroke-225" stroke="#000000" stroke-width="2" stroke-linecap="round" stroke-linejoin="round"></path>
                        </g>
                        <g id="Group-229" transform="translate(261.906250, 118.706250)">
                            <path d="M1.57777313,0.32600375 L0.842754375,9.221185" id="Fill-227" fill="#FFFFFF"></path>
                            <path d="M1.57777313,0.32600375 L0.842754375,9.221185" id="Stroke-228" stroke="#000000" stroke-width="2" stroke-linecap="round" stroke-linejoin="round"></path>
                        </g>
                        <g id="Group-232" transform="translate(274.212500, 135.487500)">
                            <path d="M1.470485,0.177769375 L0.99725375,6.53450687" id="Fill-230" fill="#FFFFFF"></path>
                            <path d="M1.470485,0.177769375 L0.99725375,6.53450687" id="Stroke-231" stroke="#000000" stroke-width="2" stroke-linecap="round" stroke-linejoin="round"></path>
                        </g>
                        <g id="Group-235" transform="translate(267.500000, 134.368750)">
                            <path d="M1.55584562,0.790620625 L0.862220625,7.35768313" id="Fill-233" fill="#FFFFFF"></path>
                            <path d="M1.55584562,0.790620625 L0.862220625,7.35768313" id="Stroke-234" stroke="#000000" stroke-width="2" stroke-linecap="round" stroke-linejoin="round"></path>
                        </g>
                        <g id="Group-238" transform="translate(260.787500, 134.368750)">
                            <path d="M1.4011225,0.146891875 L0.80035375,7.01713563" id="Fill-236" fill="#FFFFFF"></path>
                            <path d="M1.4011225,0.146891875 L0.80035375,7.01713563" id="Stroke-237" stroke="#000000" stroke-width="2" stroke-linecap="round" stroke-linejoin="round"></path>
                        </g>
                        <path d="M332.344093,142.035208 L0.11897375,142.035208" id="Stroke-239" stroke="#000000" stroke-width="2" stroke-linecap="round" stroke-linejoin="round"></path>
                        <path d="M35.6115413,60.7437006 C35.63056,60.2693506 35.7491475,59.4537819 36.288385,58.8194506 C36.87461,58.1291819 39.0069475,56.6367694 40.41881,56.5909006" id="Stroke-240" stroke="#D1D1D1" stroke-width="2" stroke-linecap="round" stroke-linejoin="round"></path>
                        <path d="M29.0595819,56.5915719 C29.7442569,56.6016406 34.1431819,57.9240031 34.4541944,60.8808594" id="Stroke-241" stroke="#D1D1D1" stroke-width="2" stroke-linecap="round" stroke-linejoin="round"></path>
                        <path d="M290.42274,30.4450419 C290.441759,29.9706919 290.560346,29.1551231 291.099584,28.5207919 C291.685809,27.8305231 293.818146,26.3381106 295.230009,26.2922419" id="Stroke-242" stroke="#D1D1D1" stroke-width="2" stroke-linecap="round" stroke-linejoin="round"></path>
                        <path d="M283.870781,26.2929131 C284.555456,26.3029819 288.954381,27.6253444 289.265393,30.5822006" id="Stroke-243" stroke="#D1D1D1" stroke-width="2" stroke-linecap="round" stroke-linejoin="round"></path>
                        <path d="M57.9865413,33.8937006 C58.00556,33.4193506 58.1241475,32.6037819 58.663385,31.9694506 C59.24961,31.2791819 61.3819475,29.7867694 62.79381,29.7409006" id="Stroke-244" stroke="#D1D1D1" stroke-width="2" stroke-linecap="round" stroke-linejoin="round"></path>
                        <path d="M51.4345819,29.7415719 C52.1192569,29.7516406 56.5181819,31.0740031 56.8291944,34.0308594" id="Stroke-245" stroke="#D1D1D1" stroke-width="2" stroke-linecap="round" stroke-linejoin="round"></path>
                        <path d="M40.9542437,142.038117 L34.9812375,142.038117 L34.9812375,127.137486 C43.1850312,126.352123 50.8943375,119.443842 50.8943375,111.034198 C50.8943375,108.181386 50.1559625,104.677461 48.86045,101.228354 L20.5706187,101.228354 C19.2751062,104.677461 18.5356125,108.181386 18.5356125,111.034198 C18.5356125,119.443842 26.2449187,126.352123 34.4487125,127.137486 L34.4487125,142.038117 L28.4757062,142.038117" id="Fill-246" fill="#FFFFFF"></path>
                        <path d="M39.4565731,121.963491 L38.9240481,121.963491 C30.7202544,120.844741 23.0109481,114.078541 23.0109481,105.670016 C23.0109481,104.216759 23.2044919,102.944741 23.5636106,100.707241 L21.1292106,100.707241 C19.8336981,105.182241 19.0953231,108.131266 19.0953231,110.984078 C19.0953231,119.392603 26.8046294,126.438491 35.0084231,127.557241 L35.5409481,127.557241 C41.5139544,126.438491 47.2083919,122.881984 49.8732544,117.602603 C46.9935919,120.165659 43.2849356,121.963491 39.4565731,121.963491" id="Fill-249" fill="#E2E2E2"></path>
                        <path d="M40.9542437,142.038117 L34.9812375,142.038117 L34.9812375,127.137486 C43.1850312,126.352123 50.8943375,119.443842 50.8943375,111.034198 C50.8943375,108.181386 50.1559625,104.677461 48.86045,101.228354 L20.5706187,101.228354 C19.2751062,104.677461 18.5356125,108.181386 18.5356125,111.034198 C18.5356125,119.443842 26.2449187,126.352123 34.4487125,127.137486 L34.4487125,142.038117 L28.4757062,142.038117" id="Stroke-247" stroke="#000000" stroke-width="2" stroke-linecap="round" stroke-linejoin="round"></path>
                        <path d="M24.9028663,110.458154 C24.9028663,116.487098 29.7895663,121.373798 35.81851,121.373798" id="Fill-250" fill="#FFFFFF"></path>
                        <path d="M24.9028663,110.458154 C24.9028663,116.487098 29.7895663,121.373798 35.81851,121.373798" id="Stroke-251" stroke="#000000" stroke-width="2" stroke-linecap="round" stroke-linejoin="round"></path>
                        <path d="M297.79575,145.878338 C297.70625,145.878338 297.586544,145.848132 297.517181,145.702694 L281.286356,111.546138 C284.7914,105.812544 291.063113,102.273938 297.79575,102.273938 C304.527269,102.273938 310.8001,105.812544 314.304025,111.546138 L298.0732,145.702694 C298.004956,145.848132 297.884131,145.878338 297.79575,145.878338" id="Fill-253" fill="#FFFFFF"></path>
                        <path d="M297.455874,103.31762 C291.117036,103.31762 285.258142,107.289183 281.684855,111.708245 C284.36538,110.401545 285.083617,109.700089 288.210524,108.91137 C294.883867,107.22877 303.860717,109.112745 307.229274,114.691951 L296.22413,144.023339 C296.717499,145.004483 298.194249,145.004483 298.687617,144.023339 L314.451924,112.659183 C311.083367,107.081095 304.736699,103.31762 297.455874,103.31762" id="Fill-255" fill="#E2E2E2"></path>
                        <path d="M297.795414,101.155636 C290.181202,101.155636 283.543658,105.318504 280.020714,111.488411 L296.506614,146.183086 C296.765046,146.725679 297.280789,146.997536 297.795414,146.997536 C298.311158,146.997536 298.825783,146.725679 299.084214,146.183086 L315.570114,111.488411 C312.047171,105.318504 305.409627,101.155636 297.795414,101.155636 M297.795414,103.393136 C303.937352,103.393136 309.673183,106.518923 313.029433,111.622661 L297.795414,143.680442 L282.561396,111.622661 C285.917646,106.518923 291.653477,103.393136 297.795414,103.393136" id="Fill-254" fill="#000000"></path>
                        <path d="M293.401412,116.295456 C294.492193,116.295456 295.377124,117.180387 295.377124,118.271168 C295.377124,119.363068 294.492193,120.246881 293.401412,120.246881 C292.310631,120.246881 291.425699,119.363068 291.425699,118.271168 C291.425699,117.180387 292.310631,116.295456 293.401412,116.295456" id="Fill-256" fill="#000000"></path>
                        <path d="M299.329221,122.223264 C300.420002,122.223264 301.304933,123.108196 301.304933,124.198977 C301.304933,125.290877 300.420002,126.174689 299.329221,126.174689 C298.237321,126.174689 297.353508,125.290877 297.353508,124.198977 C297.353508,123.108196 298.237321,122.223264 299.329221,122.223264" id="Fill-257" fill="#000000"></path>
                        <path d="M301.835892,112.343583 C302.926673,112.343583 303.811604,113.228514 303.811604,114.319296 C303.811604,115.411196 302.926673,116.295008 301.835892,116.295008 C300.745111,116.295008 299.860179,115.411196 299.860179,114.319296 C299.860179,113.228514 300.745111,112.343583 301.835892,112.343583" id="Fill-258" fill="#000000"></path>
                        <path d="M315.945231,114.527607 C312.041913,108.658644 305.371925,103.869276 297.79575,103.869276 C290.218456,103.869276 283.549588,108.658644 279.64515,114.527607 C279.05445,115.060132 277.961431,114.829669 276.7543,113.794826 C275.547169,112.759982 276.919875,109.797532 277.314794,109.184457 C281.645475,102.455176 289.197038,97.9947194 297.79575,97.9947194 C306.393344,97.9947194 313.944906,102.455176 318.276706,109.184457 C318.670506,109.796413 319.129194,111.380563 318.4971,113.104557 C317.865006,114.829669 316.390494,115.196619 315.945231,114.527607" id="Fill-259" fill="#FFC83D"></path>
                        <path d="M315.945231,114.527607 C312.041913,108.658644 305.371925,103.869276 297.79575,103.869276 C290.218456,103.869276 283.549588,108.658644 279.64515,114.527607 C279.05445,115.060132 277.961431,114.829669 276.7543,113.794826 C275.547169,112.759982 276.919875,109.797532 277.314794,109.184457 C281.645475,102.455176 289.197038,97.9947194 297.79575,97.9947194 C306.393344,97.9947194 313.944906,102.455176 318.276706,109.184457 C318.670506,109.796413 319.129194,111.380563 318.4971,113.104557 C317.865006,114.829669 316.390494,115.196619 315.945231,114.527607 L315.945231,114.527607 Z" id="Stroke-260" stroke="#000000" stroke-width="2" stroke-linecap="round" stroke-linejoin="round"></path>
                    </g>
                </g>
            </g>
        </g>
    </g>
</svg>