<?xml version="1.0" encoding="UTF-8"?>
<svg width="732px" height="189px" viewBox="0 0 732 189" version="1.1" xmlns="http://www.w3.org/2000/svg" xmlns:xlink="http://www.w3.org/1999/xlink">
    <!-- Generator: sketchtool 41.2 (35397) - http://www.bohemiancoding.com/sketch -->
    <title>D9D8423F-52DF-4B90-A157-0CC7DEC5B587</title>
    <desc>Created with sketchtool.</desc>
    <defs></defs>
    <g id="Page-1" stroke="none" stroke-width="1" fill="none" fill-rule="evenodd">
        <g id="803_M2U_Planner_Travel-Copy-34" transform="translate(-288.000000, -484.000000)">
            <g id="Group-5" transform="translate(290.000000, 484.000000)">
                <path d="M156,155.2 L728.503493,155.2" id="Line" stroke="#1C1918" stroke-width="2.4" stroke-linecap="round" stroke-linejoin="round"></path>
                <path d="M23,155.2 L147,155.2" id="Line-Copy" stroke="#1C1918" stroke-width="2.4" stroke-linecap="round" stroke-linejoin="round"></path>
                <path d="M0,155.2 L13,155.2" id="Line-Copy" stroke="#1C1918" stroke-width="2.4" stroke-linecap="round" stroke-linejoin="round"></path>
                <g id="Page-1" transform="translate(189.000000, 0.000000)">
                    <path d="M249.36344,5.216724 C249.36884,4.758804 249.46172,3.968244 249.965,3.341844 C250.51148,2.659284 252.52892,1.162404 253.8908,1.079244 L249.36344,5.216724 L249.36344,5.216724 Z" id="Stroke-1" stroke="#D1D1D1" stroke-width="2" stroke-linecap="round" stroke-linejoin="round"></path>
                    <path d="M242.929016,1.386612 C243.589976,1.377972 247.871096,2.535732 248.250176,5.380452" id="Stroke-3" stroke="#D1D1D1" stroke-width="2" stroke-linecap="round" stroke-linejoin="round"></path>
                    <path d="M277.674884,37.075644 C277.680284,36.617724 277.772084,35.827164 278.276444,35.200764 C278.822924,34.518204 280.840364,33.021324 282.202244,32.938164" id="Stroke-5" stroke="#D1D1D1" stroke-width="2" stroke-linecap="round" stroke-linejoin="round"></path>
                    <path d="M271.240352,33.245532 C271.901312,33.236892 276.182432,34.394652 276.562592,37.239372" id="Stroke-7" stroke="#D1D1D1" stroke-width="2" stroke-linecap="round" stroke-linejoin="round"></path>
                    <polygon id="Fill-9" fill="#FFFFFF" points="90.41012 155.80188 250.46504 155.80188 250.46504 103.81608 90.41012 103.81608"></polygon>
                    <polygon id="Stroke-11" stroke="#000000" stroke-width="2" points="90.41012 155.80188 250.46504 155.80188 250.46504 103.81608 90.41012 103.81608"></polygon>
                    <polygon id="Fill-12" fill="#FFC83D" points="230.58548 130.62276 241.04852 130.62276 241.04852 115.10316 230.58548 115.10316"></polygon>
                    <polygon id="Stroke-13" stroke="#000000" stroke-width="2" stroke-linecap="round" stroke-linejoin="round" points="230.58548 130.62276 241.04852 130.62276 241.04852 115.10316 230.58548 115.10316"></polygon>
                    <polygon id="Fill-14" fill="#E2E2E2" points="108.75284 154.00152 115.45748 154.00152 115.45748 106.32168 108.75284 106.32168"></polygon>
                    <polygon id="Fill-15" fill="#E2E2E2" points="223.03304 154.00152 229.73768 154.00152 229.73768 106.32168 223.03304 106.32168"></polygon>
                    <polygon id="Fill-16" fill="#FFC83D" points="99.91736 130.62276 110.3804 130.62276 110.3804 115.10316 99.91736 115.10316"></polygon>
                    <polygon id="Stroke-17" stroke="#000000" stroke-width="2" stroke-linecap="round" stroke-linejoin="round" points="99.91736 130.62276 110.3804 130.62276 110.3804 115.10316 99.91736 115.10316"></polygon>
                    <polygon id="Fill-18" fill="#FFFFFF" points="85.07816 105.7698 256.48172 105.7698 256.48172 81.02484 85.07816 81.02484"></polygon>
                    <polygon id="Stroke-19" stroke="#000000" stroke-width="2" points="85.07816 105.7698 256.48172 105.7698 256.48172 81.02484 85.07816 81.02484"></polygon>
                    <polygon id="Fill-20" fill="#FFC83D" points="75.52772 97.30476 263.9618 97.30476 263.9618 68.445 75.52772 68.445"></polygon>
                    <polygon id="Stroke-21" stroke="#000000" stroke-width="2" stroke-linecap="round" stroke-linejoin="round" points="75.52772 97.30476 263.9618 97.30476 263.9618 68.445 75.52772 68.445"></polygon>
                    <polygon id="Fill-22" fill="#FFFFFF" points="117.1088 155.80188 223.90136 155.80188 223.90136 90.46728 117.1088 90.46728"></polygon>
                    <g id="Group-25" transform="translate(223.640000, 92.510640)">
                        <path d="M0,0.290844 L0,61.850844" id="Fill-23" fill="#FFC83D"></path>
                        <path d="M0,0.290844 L0,61.850844" id="Stroke-24" stroke="#000000" stroke-width="2" stroke-linecap="round" stroke-linejoin="round"></path>
                    </g>
                    <g id="Group-28" transform="translate(205.360000, 91.510640)">
                        <path d="M1,1.290844 L1,62.850844" id="Fill-26" fill="#FFC83D"></path>
                        <polygon id="Fill-65" fill="#E2E2E2" points="0.48592 62.79976 8.27056 62.79976 8.27056 0.93088 0.48592 0.93088"></polygon>
                        <path d="M1,1.290844 L1,62.850844" id="Stroke-27" stroke="#000000" stroke-width="2" stroke-linecap="round" stroke-linejoin="round"></path>
                    </g>
                    <g id="Group-31" transform="translate(127.000000, 91.510640)">
                        <path d="M7,1.290844 L7,62.850844" id="Fill-29" fill="#FFC83D"></path>
                        <polygon id="Fill-67" fill="#E2E2E2" points="0.25216 62.79976 6.9568 62.79976 6.9568 0.93088 0.25216 0.93088"></polygon>
                        <path d="M7,1.290844 L7,62.850844" id="Stroke-30" stroke="#000000" stroke-width="2" stroke-linecap="round" stroke-linejoin="round"></path>
                    </g>
                    <g id="Group-34" transform="translate(116.720000, 92.510640)">
                        <path d="M0,0.290844 L0,61.850844" id="Fill-32" fill="#FFC83D"></path>
                        <path d="M0,0.290844 L0,61.850844" id="Stroke-33" stroke="#000000" stroke-width="2" stroke-linecap="round" stroke-linejoin="round"></path>
                    </g>
                    <polygon id="Fill-35" fill="#FFC83D" points="100.39796 90.48456 234.82772 90.48456 234.82772 46.40436 100.39796 46.40436"></polygon>
                    <polygon id="Stroke-36" stroke="#000000" stroke-width="2" stroke-linecap="round" stroke-linejoin="round" points="100.39796 90.48456 234.82772 90.48456 234.82772 46.40436 100.39796 46.40436"></polygon>
                    <polygon id="Fill-37" fill="#FFC83D" points="136.86092 72.252 199.8044 72.252 199.8044 28.1718 136.86092 28.1718"></polygon>
                    <polygon id="Fill-64" fill="#E2E2E2" points="191.12444 154.3104 196.74908 154.3104 196.74908 92.44152 191.12444 92.44152"></polygon>
                    <polygon id="Stroke-38" stroke="#000000" stroke-width="2" stroke-linecap="round" stroke-linejoin="round" points="136.86092 72.252 199.8044 72.252 199.8044 28.1718 136.86092 28.1718"></polygon>
                    <path d="M168.768332,1.854468 C168.768332,1.854468 175.088492,53.921268 223.684172,92.801268 L111.248612,92.801268 C111.248612,92.801268 168.768332,36.801108 168.768332,1.854468" id="Fill-39" fill="#FFFFFF"></path>
                    <path d="M122.04818,88.481484 C122.04818,88.481484 157.77134,53.741124 171.54782,15.828804 C168.74306,6.331284 168.7679,1.763964 168.7679,1.763964 C168.7679,36.710604 111.24818,92.801484 111.24818,92.801484 L223.68374,92.801484 C221.4665,90.641484 219.3389,89.561484 217.29338,88.481484 L122.04818,88.481484 Z" id="Fill-41" fill="#E2E2E2"></path>
                    <polygon id="Fill-66" fill="#E2E2E2" points="140.97572 154.3104 146.60036 154.3104 146.60036 92.44152 140.97572 92.44152"></polygon>
                    <path d="M168.768332,1.854468 C168.768332,1.854468 175.088492,53.921268 223.684172,92.801268 L111.248612,92.801268 C111.248612,92.801268 168.768332,36.801108 168.768332,1.854468 L168.768332,1.854468 Z" id="Stroke-40" stroke="#000000" stroke-width="2" stroke-linecap="round" stroke-linejoin="round"></path>
                    <polygon id="Fill-42" fill="#FFFFFF" points="144.67472 155.80188 191.12552 155.80188 191.12552 62.90136 144.67472 62.90136"></polygon>
                    <polygon id="Fill-63" fill="#E2E2E2" points="144.1952 72.15372 191.12552 72.15372 191.12552 62.90136 144.1952 62.90136"></polygon>
                    <polygon id="Stroke-43" stroke="#000000" stroke-width="2" points="144.67472 155.80188 191.12552 155.80188 191.12552 62.90136 144.67472 62.90136"></polygon>
                    <path d="M181.285748,103.005648 C181.624868,104.815728 181.214468,107.921808 181.214468,107.921808 L179.360108,107.921808 L179.360108,139.961088 L157.952348,140.610168 L162.729188,144.979848 L184.625108,145.541448 L183.320468,112.241808 L185.534468,112.241808 C185.534468,112.241808 188.236628,106.191648 181.285748,103.005648" id="Fill-44" fill="#E2E2E2"></path>
                    <polygon id="Fill-45" fill="#FFC83D" points="157.77188 140.60952 179.71424 140.60952 179.71424 108.46764 157.77188 108.46764"></polygon>
                    <polygon id="Stroke-46" stroke="#000000" stroke-width="2" stroke-linecap="round" stroke-linejoin="round" points="157.77188 140.60952 179.71424 140.60952 179.71424 108.46764 157.77188 108.46764"></polygon>
                    <g id="Group-49" transform="translate(153.440000, 91.430640)">
                        <path d="M15.918444,0.215136 C15.918444,0.215136 16.475724,6.287976 24.489324,9.494496 C32.502924,12.699936 28.854684,17.570736 28.854684,17.570736 L16.604244,17.570736 L15.604164,17.570736 L1.726164,17.570736 C1.726164,17.570736 -1.515996,12.699936 6.497604,9.494496 C14.511204,6.287976 15.475644,0.244296 15.475644,0.244296" id="Fill-47" fill="#FFC83D"></path>
                        <path d="M15.918444,0.215136 C15.918444,0.215136 16.475724,6.287976 24.489324,9.494496 C32.502924,12.699936 28.854684,17.570736 28.854684,17.570736 L16.604244,17.570736 L15.604164,17.570736 L1.726164,17.570736 C1.726164,17.570736 -1.515996,12.699936 6.497604,9.494496 C14.511204,6.287976 15.475644,0.244296 15.475644,0.244296" id="Stroke-48" stroke="#000000" stroke-width="2" stroke-linecap="round" stroke-linejoin="round"></path>
                    </g>
                    <g id="Group-52" transform="translate(144.800000, 77.390640)">
                        <path d="M0,0.290844 L45.36,0.290844" id="Fill-50" fill="#FFC83D"></path>
                        <path d="M0,0.290844 L45.36,0.290844" id="Stroke-51" stroke="#000000" stroke-width="2" stroke-linecap="round" stroke-linejoin="round"></path>
                    </g>
                    <path d="M266.488244,55.88406 C266.488244,55.88406 271.141964,62.67834 264.199724,68.02218" id="Stroke-53" stroke="#000000" stroke-width="2" stroke-linecap="round" stroke-linejoin="round"></path>
                    <path d="M237.1643,33.343056 C237.1643,33.343056 242.6453,41.274576 233.8757,46.481256" id="Stroke-54" stroke="#000000" stroke-width="2" stroke-linecap="round" stroke-linejoin="round"></path>
                    <path d="M203.45588,15.59898 C203.45588,15.59898 208.93688,24.90102 200.16728,28.73718" id="Stroke-55" stroke="#000000" stroke-width="2" stroke-linecap="round" stroke-linejoin="round"></path>
                    <path d="M73.012724,56.090232 C73.012724,56.090232 67.959404,66.039192 76.301324,69.228432" id="Stroke-56" stroke="#000000" stroke-width="2" stroke-linecap="round" stroke-linejoin="round"></path>
                    <path d="M97.952192,33.549336 C97.952192,33.549336 92.898872,42.577056 101.240792,46.687536" id="Stroke-57" stroke="#000000" stroke-width="2" stroke-linecap="round" stroke-linejoin="round"></path>
                    <path d="M133.852796,15.59898 C133.852796,15.59898 128.525156,24.90102 137.141396,28.73718" id="Stroke-58" stroke="#000000" stroke-width="2" stroke-linecap="round" stroke-linejoin="round"></path>
                    <path d="M223.614512,75.804228 C223.614512,75.804228 229.095512,85.106268 220.325912,88.942428" id="Stroke-59" stroke="#000000" stroke-width="2" stroke-linecap="round" stroke-linejoin="round"></path>
                    <path d="M208.046636,59.4729 C208.046636,59.4729 213.527636,68.77494 204.758036,72.6111" id="Stroke-60" stroke="#000000" stroke-width="2" stroke-linecap="round" stroke-linejoin="round"></path>
                    <path d="M108.817532,76.628916 C108.817532,76.628916 103.489892,85.930956 112.106132,89.767116" id="Stroke-61" stroke="#000000" stroke-width="2" stroke-linecap="round" stroke-linejoin="round"></path>
                    <path d="M126.76778,56.868156 C126.76778,56.868156 121.44014,66.170196 130.05638,70.006356" id="Stroke-62" stroke="#000000" stroke-width="2" stroke-linecap="round" stroke-linejoin="round"></path>
                    <path d="M10.081232,162.83268 L309.241232,162.83268" id="Stroke-68" stroke="#E2E2E2" stroke-width="12" stroke-linecap="round" stroke-linejoin="round"></path>
                    <g id="Group-71" transform="translate(30.320000, 171.350640)">
                        <path d="M14.232996,0.720036 L0.356076,0.720036" id="Fill-69" fill="#FFFFFF"></path>
                        <path d="M14.232996,0.720036 L0.356076,0.720036" id="Stroke-70" stroke="#000000" stroke-width="2" stroke-linecap="round" stroke-linejoin="round"></path>
                    </g>
                    <g id="Group-74" transform="translate(53.000000, 171.350640)">
                        <path d="M39.493116,0.720036 L0.236196,0.720036" id="Fill-72" fill="#FFFFFF"></path>
                        <path d="M39.493116,0.720036 L0.236196,0.720036" id="Stroke-73" stroke="#000000" stroke-width="2" stroke-linecap="round" stroke-linejoin="round"></path>
                    </g>
                    <g id="Group-77" transform="translate(226.880000, 171.350640)">
                        <path d="M67.252572,0.720036 L0.701892,0.720036" id="Fill-75" fill="#FFFFFF"></path>
                        <path d="M67.252572,0.720036 L0.701892,0.720036" id="Stroke-76" stroke="#000000" stroke-width="2" stroke-linecap="round" stroke-linejoin="round"></path>
                    </g>
                    <g id="Group-80" transform="translate(100.520000, 171.350640)">
                        <path d="M117.646236,0.720036 L0.595836,0.720036" id="Fill-78" fill="#FFFFFF"></path>
                        <path d="M117.646236,0.720036 L0.595836,0.720036" id="Stroke-79" stroke="#000000" stroke-width="2" stroke-linecap="round" stroke-linejoin="round"></path>
                    </g>
                    <g id="Group-83" transform="translate(225.800000, 187.550640)">
                        <path d="M14.551488,0 L0.124848,0" id="Fill-81" fill="#FFFFFF"></path>
                        <path d="M14.551488,0 L0.124848,0" id="Stroke-82" stroke="#000000" stroke-width="2" stroke-linecap="round" stroke-linejoin="round"></path>
                    </g>
                    <g id="Group-86" transform="translate(95.120000, 187.550640)">
                        <path d="M68.379768,0 L1.033128,0" id="Fill-84" fill="#FFFFFF"></path>
                        <path d="M68.379768,0 L1.033128,0" id="Stroke-85" stroke="#000000" stroke-width="2" stroke-linecap="round" stroke-linejoin="round"></path>
                    </g>
                    <g id="Group-89" transform="translate(170.720000, 187.550640)">
                        <path d="M46.334484,0 L0.597564,0" id="Fill-87" fill="#FFFFFF"></path>
                        <path d="M46.334484,0 L0.597564,0" id="Stroke-88" stroke="#000000" stroke-width="2" stroke-linecap="round" stroke-linejoin="round"></path>
                    </g>
                    <g id="Group-92" transform="translate(53.000000, 187.550640)">
                        <path d="M33.870744,0 L0.967464,0" id="Fill-90" fill="#FFFFFF"></path>
                        <path d="M33.870744,0 L0.967464,0" id="Stroke-91" stroke="#000000" stroke-width="2" stroke-linecap="round" stroke-linejoin="round"></path>
                    </g>
                    <g id="Group-95" transform="translate(0.080000, 155.150640)">
                        <path d="M0,0.290844 L317.52,0.290844" id="Fill-93" fill="#FFC83D"></path>
                        <path d="M0,0.290844 L317.52,0.290844" id="Stroke-94" stroke="#000000" stroke-width="2" stroke-linecap="round" stroke-linejoin="round"></path>
                    </g>
                    <path d="M34.607708,17.570088 C34.607708,24.241248 40.015268,29.648808 46.686428,29.648808 C53.357588,29.648808 58.765148,24.241248 58.765148,17.570088 C58.765148,10.898928 53.357588,5.491368 46.686428,5.491368 C40.015268,5.491368 34.607708,10.898928 34.607708,17.570088 L34.607708,17.570088 Z" id="Stroke-96" stroke="#D1D1D1" stroke-width="2" stroke-linecap="round" stroke-linejoin="round"></path>
                    <g id="Group-99" transform="translate(45.440000, 0.710640)">
                        <path d="M0.278532,0.543672 L0.278532,4.863672" id="Fill-97" fill="#FFFFFF"></path>
                        <path d="M0.278532,0.543672 L0.278532,4.863672" id="Stroke-98" stroke="#D1D1D1" stroke-width="2" stroke-linecap="round" stroke-linejoin="round"></path>
                    </g>
                    <g id="Group-102" transform="translate(45.440000, 29.870640)">
                        <path d="M0.278532,0.543672 L0.278532,4.863672" id="Fill-100" fill="#FFFFFF"></path>
                        <path d="M0.278532,0.543672 L0.278532,4.863672" id="Stroke-101" stroke="#D1D1D1" stroke-width="2" stroke-linecap="round" stroke-linejoin="round"></path>
                    </g>
                    <g id="Group-105" transform="translate(55.160000, 5.030640)">
                        <path d="M3.435912,0.94662 L0.391392,3.99114" id="Fill-103" fill="#FFFFFF"></path>
                        <path d="M3.435912,0.94662 L0.391392,3.99114" id="Stroke-104" stroke="#D1D1D1" stroke-width="2" stroke-linecap="round" stroke-linejoin="round"></path>
                    </g>
                    <g id="Group-108" transform="translate(58.400000, 19.070640)">
                        <path d="M5.138532,0.003672 L0.818532,0.003672" id="Fill-106" fill="#FFFFFF"></path>
                        <path d="M5.138532,0.003672 L0.818532,0.003672" id="Stroke-107" stroke="#D1D1D1" stroke-width="2" stroke-linecap="round" stroke-linejoin="round"></path>
                    </g>
                    <g id="Group-111" transform="translate(55.160000, 25.550640)">
                        <path d="M3.596184,3.500604 L0.551664,0.456084" id="Fill-109" fill="#FFFFFF"></path>
                        <path d="M3.596184,3.500604 L0.551664,0.456084" id="Stroke-110" stroke="#D1D1D1" stroke-width="2" stroke-linecap="round" stroke-linejoin="round"></path>
                    </g>
                    <g id="Group-114" transform="translate(33.560000, 25.550640)">
                        <path d="M1.042092,3.660876 L4.086612,0.616356" id="Fill-112" fill="#FFFFFF"></path>
                        <path d="M1.042092,3.660876 L4.086612,0.616356" id="Stroke-113" stroke="#D1D1D1" stroke-width="2" stroke-linecap="round" stroke-linejoin="round"></path>
                    </g>
                    <g id="Group-117" transform="translate(29.240000, 19.070640)">
                        <path d="M0.818532,0.003672 L5.138532,0.003672" id="Fill-115" fill="#FFFFFF"></path>
                        <path d="M0.818532,0.003672 L5.138532,0.003672" id="Stroke-116" stroke="#D1D1D1" stroke-width="2" stroke-linecap="round" stroke-linejoin="round"></path>
                    </g>
                    <g id="Group-120" transform="translate(33.560000, 6.110640)">
                        <path d="M0.88182,0.026892 L3.92634,3.071412" id="Fill-118" fill="#FFFFFF"></path>
                        <path d="M0.88182,0.026892 L3.92634,3.071412" id="Stroke-119" stroke="#D1D1D1" stroke-width="2" stroke-linecap="round" stroke-linejoin="round"></path>
                    </g>
                    <path d="M308.196332,137.722788 C308.196332,137.722788 306.255572,153.068508 289.001492,154.393668 C271.747412,155.717748 260.070452,154.613988 252.235052,151.301628 C244.398572,147.990348 239.828012,138.936708 240.044012,133.196508 C240.044012,133.196508 250.611812,145.004148 275.846012,144.067788 C301.079132,143.132508 308.196332,137.722788 308.196332,137.722788" id="Fill-121" fill="#FFFFFF"></path>
                    <path d="M258.12008,143.47476 C248.48216,141.39792 243.04436,138.0024 240.19424,135.53676 C240.26552,136.24956 240.3962,136.99368 240.57116,137.75184 C244.95164,143.0568 255.02264,150.61248 277.21124,151.61256 C289.52648,152.16768 297.674,149.98716 303.08048,146.95344 C305.04392,143.60868 305.53856,140.67 305.53856,140.67 C305.53856,140.67 298.44512,145.76544 274.1192,145.6056 C267.83144,145.56456 262.53188,144.71136 258.12008,143.47476" id="Fill-151" fill="#E2E2E2"></path>
                    <path d="M308.196332,137.722788 C308.196332,137.722788 306.255572,153.068508 289.001492,154.393668 C271.747412,155.717748 260.070452,154.613988 252.235052,151.301628 C244.398572,147.990348 239.828012,138.936708 240.044012,133.196508 C240.044012,133.196508 250.611812,145.004148 275.846012,144.067788 C301.079132,143.132508 308.196332,137.722788 308.196332,137.722788 L308.196332,137.722788 Z" id="Stroke-122" stroke="#000000" stroke-width="2" stroke-linecap="round" stroke-linejoin="round"></path>
                    <path d="M245.24,99.475236 C245.24,99.475236 248.6042,99.082116 249.22952,94.997556 C249.22952,94.997556 251.37116,99.560556 254.46212,98.015076 C254.46212,98.015076 253.988,103.682916 258.40412,103.682916 C258.40412,103.682916 257.68808,109.459836 261.25748,109.717956 C261.25748,109.717956 259.5932,115.752996 263.12588,116.930196 C263.12588,116.930196 261.91088,122.156316 265.07636,125.137116 L245.24,128.706516 L245.24,99.475236 Z" id="Fill-123" fill="#FFC83D"></path>
                    <path d="M245.24,99.475236 C245.24,99.475236 248.6042,99.082116 249.22952,94.997556 C249.22952,94.997556 251.37116,99.560556 254.46212,98.015076 C254.46212,98.015076 253.988,103.682916 258.40412,103.682916 C258.40412,103.682916 257.68808,109.459836 261.25748,109.717956 C261.25748,109.717956 259.5932,115.752996 263.12588,116.930196 C263.12588,116.930196 261.91088,122.156316 265.07636,125.137116 L245.24,128.706516 L245.24,99.475236 L245.24,99.475236 Z" id="Stroke-124" stroke="#000000" stroke-width="2" stroke-linecap="round" stroke-linejoin="round"></path>
                    <path d="M271.16,92.789712 C271.16,92.789712 276.32024,90.582192 277.77284,86.218992 C277.77284,86.218992 282.10256,92.292912 286.40852,90.140472 C286.40852,90.140472 286.58132,97.537392 292.5926,96.764112 C292.5926,96.764112 289.88936,103.627512 297.42668,104.566032 C297.42668,104.566032 294.60896,111.851712 300.35024,113.545152 C300.35024,113.545152 294.9362,118.887912 299.34584,123.040512 L271.16,130.473072 L271.16,116.047512 L271.16,92.789712 Z" id="Fill-125" fill="#FFC83D"></path>
                    <path d="M271.16,92.789712 C271.16,92.789712 276.32024,90.582192 277.77284,86.218992 C277.77284,86.218992 282.10256,92.292912 286.40852,90.140472 C286.40852,90.140472 286.58132,97.537392 292.5926,96.764112 C292.5926,96.764112 289.88936,103.627512 297.42668,104.566032 C297.42668,104.566032 294.60896,111.851712 300.35024,113.545152 C300.35024,113.545152 294.9362,118.887912 299.34584,123.040512 L271.16,130.473072 L271.16,116.047512 L271.16,92.789712 L271.16,92.789712 Z" id="Stroke-126" stroke="#000000" stroke-width="2" stroke-linecap="round" stroke-linejoin="round"></path>
                    <g id="Group-129" transform="translate(245.240000, 94.670640)">
                        <path d="M0,0.290844 L0,40.250844" id="Fill-127" fill="#FFC83D"></path>
                        <path d="M0,0.290844 L0,40.250844" id="Stroke-128" stroke="#000000" stroke-width="2" stroke-linecap="round" stroke-linejoin="round"></path>
                    </g>
                    <g id="Group-132" transform="translate(244.160000, 97.910640)">
                        <path d="M9.941832,0.104652 L0.717552,9.365652" id="Fill-130" fill="#FFC83D"></path>
                        <path d="M9.941832,0.104652 L0.717552,9.365652" id="Stroke-131" stroke="#000000" stroke-width="2" stroke-linecap="round" stroke-linejoin="round"></path>
                    </g>
                    <g id="Group-135" transform="translate(245.240000, 103.310640)">
                        <path d="M12.983436,0.371952 L0.299916,9.154512" id="Fill-133" fill="#FFC83D"></path>
                        <path d="M12.983436,0.371952 L0.299916,9.154512" id="Stroke-134" stroke="#000000" stroke-width="2" stroke-linecap="round" stroke-linejoin="round"></path>
                    </g>
                    <g id="Group-138" transform="translate(245.240000, 108.710640)">
                        <path d="M15.927516,1.0071 L0.299916,9.05418" id="Fill-136" fill="#FFC83D"></path>
                        <path d="M15.927516,1.0071 L0.299916,9.05418" id="Stroke-137" stroke="#000000" stroke-width="2" stroke-linecap="round" stroke-linejoin="round"></path>
                    </g>
                    <g id="Group-141" transform="translate(245.240000, 116.270640)">
                        <path d="M0.30024,8.093628 L17.8416,0.659988" id="Fill-139" fill="#FFC83D"></path>
                        <path d="M0.30024,8.093628 L17.8416,0.659988" id="Stroke-140" stroke="#000000" stroke-width="2" stroke-linecap="round" stroke-linejoin="round"></path>
                    </g>
                    <path d="M300.323024,113.545044 L271.373624,123.174324" id="Stroke-142" stroke="#000000" stroke-width="2" stroke-linecap="round" stroke-linejoin="round"></path>
                    <path d="M297.372572,104.565708 L271.373732,116.329068" id="Stroke-143" stroke="#000000" stroke-width="2" stroke-linecap="round" stroke-linejoin="round"></path>
                    <path d="M271.373948,110.551392 L292.484708,96.764112" id="Stroke-144" stroke="#000000" stroke-width="2" stroke-linecap="round" stroke-linejoin="round"></path>
                    <path d="M286.191656,90.14004 L271.374056,101.79324" id="Stroke-145" stroke="#000000" stroke-width="2" stroke-linecap="round" stroke-linejoin="round"></path>
                    <path d="M310.04,109.033776 C310.04,109.033776 312.64496,107.088696 314.0954,105.401736 C314.0954,105.401736 316.64636,108.933336 318.6098,107.951616 C318.6098,107.951616 317.951,114.404616 321.61976,114.404616 C321.61976,114.404616 319.07312,118.343376 321.80984,121.785336 L310.04,126.056736 L310.04,118.597176 L310.04,109.033776 Z" id="Fill-146" fill="#FFC83D"></path>
                    <path d="M310.04,109.033776 C310.04,109.033776 312.64496,107.088696 314.0954,105.401736 C314.0954,105.401736 316.64636,108.933336 318.6098,107.951616 C318.6098,107.951616 317.951,114.404616 321.61976,114.404616 C321.61976,114.404616 319.07312,118.343376 321.80984,121.785336 L310.04,126.056736 L310.04,118.597176 L310.04,109.033776 L310.04,109.033776 Z" id="Stroke-147" stroke="#000000" stroke-width="2" stroke-linecap="round" stroke-linejoin="round"></path>
                    <path d="M310.235048,120.984624 L321.078248,114.817824" id="Stroke-148" stroke="#000000" stroke-width="2" stroke-linecap="round" stroke-linejoin="round"></path>
                    <path d="M310.235048,115.504272 L318.387968,108.923832" id="Stroke-149" stroke="#000000" stroke-width="2" stroke-linecap="round" stroke-linejoin="round"></path>
                    <path d="M310.04,103.601484 L310.04,134.921484" id="Stroke-150" stroke="#000000" stroke-width="2" stroke-linecap="round" stroke-linejoin="round"></path>
                    <path d="M317.324708,127.676304 C317.324708,127.676304 307.609028,141.144984 276.697268,141.586704 C245.784428,142.028424 238.277348,130.473504 238.277348,130.473504 C238.277348,130.473504 244.421468,147.769704 280.412468,147.769704 C316.402388,147.769704 317.324708,127.676304 317.324708,127.676304" id="Fill-152" fill="#FFFFFF"></path>
                    <path d="M242.93258,135.664416 C247.81742,140.420736 252.16118,146.018376 274.76558,145.147896 C302.8013,144.067896 314.47394,135.103896 317.42126,129.163896 C313.5581,132.677136 301.44914,141.236136 274.8455,141.587136 C259.34318,141.791256 249.27974,138.263976 242.93258,135.664416" id="Fill-154" fill="#E2E2E2"></path>
                    <path d="M317.324708,127.676304 C317.324708,127.676304 307.609028,141.144984 276.697268,141.586704 C245.784428,142.028424 238.277348,130.473504 238.277348,130.473504 C238.277348,130.473504 244.421468,147.769704 280.412468,147.769704 C316.402388,147.769704 317.324708,127.676304 317.324708,127.676304 L317.324708,127.676304 Z" id="Stroke-153" stroke="#000000" stroke-width="2" stroke-linecap="round" stroke-linejoin="round"></path>
                    <path d="M271.16,141.401484 L271.16,85.241484" id="Stroke-155" stroke="#000000" stroke-width="2" stroke-linecap="round" stroke-linejoin="round"></path>
                    <path d="M49.52942,131.101632 L8.21942,134.458272 C8.21942,134.458272 20.2463,129.145752 27.21662,128.295792 C34.18694,127.445832 50.55002,127.148832 51.39998,127.318392 C52.24994,127.489032 49.52942,131.101632 49.52942,131.101632" id="Fill-156" fill="#FFC83D"></path>
                    <path d="M49.52942,131.101632 L8.21942,134.458272 C8.21942,134.458272 20.2463,129.145752 27.21662,128.295792 C34.18694,127.445832 50.55002,127.148832 51.39998,127.318392 C52.24994,127.489032 49.52942,131.101632 49.52942,131.101632 L49.52942,131.101632 Z" id="Stroke-157" stroke="#000000" stroke-width="2" stroke-linecap="round" stroke-linejoin="round"></path>
                    <g id="Group-160" transform="translate(31.400000, 133.550640)">
                        <path d="M0,0.290844 L0,11.090844" id="Fill-158" fill="#FFC83D"></path>
                        <path d="M0,0.290844 L0,11.090844" id="Stroke-159" stroke="#000000" stroke-width="2" stroke-linecap="round" stroke-linejoin="round"></path>
                    </g>
                    <g id="Group-163" transform="translate(47.600000, 132.470640)">
                        <path d="M0,0.290844 L0,12.170844" id="Fill-161" fill="#FFC83D"></path>
                        <path d="M0,0.290844 L0,12.170844" id="Stroke-162" stroke="#000000" stroke-width="2" stroke-linecap="round" stroke-linejoin="round"></path>
                    </g>
                    <polygon id="Fill-164" fill="#FFFFFF" points="14.759036 134.458704 13.291316 142.397784 14.322716 150.040944 27.079676 150.040944 27.079676 144.640944 49.759676 144.640944 49.759676 155.440944 8.719676 155.440944 8.719676 144.148464 12.783716 134.798904"></polygon>
                    <polygon id="Fill-184" fill="#E2E2E2" points="16.4825 152.65152 30.56786 152.65152 30.56786 147.52152 49.39982 147.52152 49.39982 144.28152 26.71982 144.28152 26.71982 149.68152 16.18442 149.68152"></polygon>
                    <polygon id="Fill-169" fill="#E2E2E2" points="11.96 145.408716 13.65236 135.878796 14.28848 135.780516 14.75072 133.378596 12.77972 133.718796 8.72 143.068356 8.72 154.001196 11.96 154.181556"></polygon>
                    <polygon id="Stroke-165" stroke="#000000" stroke-width="2" stroke-linecap="round" stroke-linejoin="round" points="14.759036 134.458704 13.291316 142.397784 14.322716 150.040944 27.079676 150.040944 27.079676 144.640944 49.759676 144.640944 49.759676 155.440944 8.719676 155.440944 8.719676 144.148464 12.783716 134.798904"></polygon>
                    <path d="M45.683864,155.312316 C45.683864,157.882716 43.600544,159.967116 41.029064,159.967116 C38.458664,159.967116 36.375344,157.882716 36.375344,155.312316 C36.375344,152.741916 38.458664,150.657516 41.029064,150.657516 C43.600544,150.657516 45.683864,152.741916 45.683864,155.312316" id="Fill-166" fill="#FFFFFF"></path>
                    <path d="M45.683864,155.312316 C45.683864,157.882716 43.600544,159.967116 41.029064,159.967116 C38.458664,159.967116 36.375344,157.882716 36.375344,155.312316 C36.375344,152.741916 38.458664,150.657516 41.029064,150.657516 C43.600544,150.657516 45.683864,152.741916 45.683864,155.312316 L45.683864,155.312316 Z" id="Stroke-167" stroke="#000000" stroke-width="2"></path>
                    <path d="M42.408116,155.312316 C42.408116,156.073716 41.790356,156.690396 41.028956,156.690396 C40.267556,156.690396 39.650876,156.073716 39.650876,155.312316 C39.650876,154.550916 40.267556,153.933156 41.028956,153.933156 C41.790356,153.933156 42.408116,154.550916 42.408116,155.312316" id="Fill-168" fill="#000000"></path>
                    <path d="M12.02372,155.312316 C12.02372,157.882716 9.93932,159.967116 7.36892,159.967116 C4.79852,159.967116 2.7152,157.882716 2.7152,155.312316 C2.7152,152.741916 4.79852,150.657516 7.36892,150.657516 C9.93932,150.657516 12.02372,152.741916 12.02372,155.312316" id="Fill-170" fill="#FFFFFF"></path>
                    <path d="M12.02372,155.312316 C12.02372,157.882716 9.93932,159.967116 7.36892,159.967116 C4.79852,159.967116 2.7152,157.882716 2.7152,155.312316 C2.7152,152.741916 4.79852,150.657516 7.36892,150.657516 C9.93932,150.657516 12.02372,152.741916 12.02372,155.312316 L12.02372,155.312316 Z" id="Stroke-171" stroke="#000000" stroke-width="2"></path>
                    <path d="M8.747972,155.312316 C8.747972,156.073716 8.130212,156.690396 7.368812,156.690396 C6.607412,156.690396 5.990732,156.073716 5.990732,155.312316 C5.990732,154.550916 6.607412,153.933156 7.368812,153.933156 C8.130212,153.933156 8.747972,154.550916 8.747972,155.312316" id="Fill-172" fill="#000000"></path>
                    <g id="Group-175" transform="translate(48.680000, 149.750640)">
                        <path d="M5.202468,0.12852 L1.019628,0.12852" id="Fill-173" fill="#FFC83D"></path>
                        <path d="M5.202468,0.12852 L1.019628,0.12852" id="Stroke-174" stroke="#000000" stroke-width="2" stroke-linecap="round" stroke-linejoin="round"></path>
                    </g>
                    <g id="Group-178" transform="translate(31.400000, 140.030640)">
                        <path d="M0,0.290844 L16.2,0.290844" id="Fill-176" fill="#FFC83D"></path>
                        <path d="M0,0.290844 L16.2,0.290844" id="Stroke-177" stroke="#000000" stroke-width="2" stroke-linecap="round" stroke-linejoin="round"></path>
                    </g>
                    <path d="M9.409796,142.331796 C9.409796,142.331796 6.264836,142.423596 5.779916,143.321076 C4.395356,145.886076 6.328556,147.881916 6.328556,147.881916 L9.485396,147.881916 L9.409796,142.331796 Z" id="Fill-179" fill="#FFC83D"></path>
                    <path d="M9.409796,142.331796 C9.409796,142.331796 6.264836,142.423596 5.779916,143.321076 C4.395356,145.886076 6.328556,147.881916 6.328556,147.881916 L9.485396,147.881916 L9.409796,142.331796 L9.409796,142.331796 Z" id="Stroke-180" stroke="#000000" stroke-width="2" stroke-linecap="round" stroke-linejoin="round"></path>
                    <g id="Group-183" transform="translate(13.040000, 141.110640)">
                        <path d="M0.881712,3.886056 L5.404752,0.570456" id="Fill-181" fill="#FFC83D"></path>
                        <path d="M0.881712,3.886056 L5.404752,0.570456" id="Stroke-182" stroke="#000000" stroke-width="2" stroke-linecap="round" stroke-linejoin="round"></path>
                    </g>
                    <path d="M62.257544,115.947936 C62.257544,115.947936 59.196824,113.567616 53.585144,114.757776 C53.585144,114.757776 60.896744,119.689056 59.706584,129.722256 C58.516424,139.755456 53.773064,150.942096 67.190984,154.040616 C79.981424,156.992256 83.459024,146.664216 84.194504,142.646616 C84.931064,138.621456 84.194504,129.552696 83.344544,122.920416 C82.493504,116.288136 82.664144,109.825416 82.664144,109.825416 L62.257544,115.947936 Z" id="Fill-185" fill="#FFFFFF"></path>
                    <path d="M83.34422,122.920092 C82.49426,116.287812 82.66382,109.826172 82.66382,109.826172 L79.65494,110.729052 C79.75754,112.206492 79.90118,113.776812 80.10422,115.360092 C80.95418,121.992372 81.69182,131.062212 80.95418,135.086292 C80.2187,139.104972 76.7411,149.433012 63.95174,146.480292 C61.27874,145.862532 59.33582,144.920772 57.93182,143.734932 C58.08842,148.517172 60.11018,152.405172 67.19174,154.040292 C79.9811,156.993012 83.4587,146.664972 84.19418,142.646292 C84.93182,138.622212 84.19418,129.552372 83.34422,122.920092" id="Fill-187" fill="#E2E2E2"></path>
                    <path d="M62.257544,115.947936 C62.257544,115.947936 59.196824,113.567616 53.585144,114.757776 C53.585144,114.757776 60.896744,119.689056 59.706584,129.722256 C58.516424,139.755456 53.773064,150.942096 67.190984,154.040616 C79.981424,156.992256 83.459024,146.664216 84.194504,142.646616 C84.931064,138.621456 84.194504,129.552696 83.344544,122.920416 C82.493504,116.288136 82.664144,109.825416 82.664144,109.825416 L62.257544,115.947936 L62.257544,115.947936 Z" id="Stroke-186" stroke="#000000" stroke-width="2" stroke-linecap="round" stroke-linejoin="round"></path>
                    <path d="M82.493936,91.043352 C82.493936,91.043352 86.405696,92.801592 86.405696,105.761592 L83.003696,105.761592 L87.595856,115.481592 L83.003696,115.481592 C83.003696,115.481592 85.209056,123.366672 88.779536,126.088272 L75.680216,122.240232 L75.680216,115.607952 C75.680216,115.607952 69.200216,114.587352 68.120216,117.478512 L68.120216,122.409792 L62.807696,124.620552 C62.807696,124.620552 59.811776,111.526632 63.893096,107.105112 C66.658976,104.108112 64.974176,101.422152 64.370456,97.710192 C64.084256,95.944392 60.433856,93.297312 64.075616,90.233352 C71.240336,84.209112 78.582176,87.371352 82.493936,91.043352" id="Fill-188" fill="#FFFFFF"></path>
                    <path d="M83.004128,115.481484 L87.595208,115.481484 L83.004128,105.761484 L86.405048,105.761484 C86.405048,92.801484 82.494368,91.043244 82.494368,91.043244 C81.438128,90.052884 76.807088,88.408044 75.319928,87.671484 C79.774928,90.911484 80.314928,101.801124 80.314928,101.801124 L79.584848,112.675644 L78.922808,115.132644 C78.922808,115.132644 79.040528,117.483804 81.050408,120.950604 L75.679568,119.411604 L75.679568,122.240124 L88.779968,126.088164 C85.209488,123.367644 83.004128,115.481484 83.004128,115.481484" id="Fill-211" fill="#E2E2E2"></path>
                    <path d="M61.74152,118.356444 C62.00504,121.811364 62.80748,124.620444 62.80748,124.620444 L68.12,122.409684 L68.12,117.478404 C68.12,116.597124 70.54784,113.410044 72.48428,115.444764 C69.22052,111.881844 73.43792,92.981844 73.43792,92.981844 C73.43792,92.981844 71.40536,108.801684 62.40464,108.838404 L61.74152,118.356444 Z" id="Fill-210" fill="#E2E2E2"></path>
                    <path d="M82.493936,91.043352 C82.493936,91.043352 86.405696,92.801592 86.405696,105.761592 L83.003696,105.761592 L87.595856,115.481592 L83.003696,115.481592 C83.003696,115.481592 85.209056,123.366672 88.779536,126.088272 L75.680216,122.240232 L75.680216,115.607952 C75.680216,115.607952 69.200216,114.587352 68.120216,117.478512 L68.120216,122.409792 L62.807696,124.620552 C62.807696,124.620552 59.811776,111.526632 63.893096,107.105112 C66.658976,104.108112 64.974176,101.422152 64.370456,97.710192 C64.084256,95.944392 60.433856,93.297312 64.075616,90.233352 C71.240336,84.209112 78.582176,87.371352 82.493936,91.043352 L82.493936,91.043352 Z" id="Stroke-189" stroke="#000000" stroke-width="2" stroke-linecap="round" stroke-linejoin="round"></path>
                    <g id="Group-192" transform="translate(78.920000, 98.990640)">
                        <path d="M0.120744,0.165672 C0.120744,0.165672 2.383344,10.010952 0.003024,16.490952 L4.319784,16.490952" id="Fill-190" fill="#FFFFFF"></path>
                        <path d="M0.120744,0.165672 C0.120744,0.165672 2.383344,10.010952 0.003024,16.490952 L4.319784,16.490952" id="Stroke-191" stroke="#000000" stroke-width="2" stroke-linecap="round" stroke-linejoin="round"></path>
                    </g>
                    <g id="Group-195" transform="translate(75.680000, 108.710640)">
                        <path d="M0,0.290844 L0,6.770844" id="Fill-193" fill="#FFC83D"></path>
                        <path d="M0,0.290844 L0,6.770844" id="Stroke-194" stroke="#000000" stroke-width="2" stroke-linecap="round" stroke-linejoin="round"></path>
                    </g>
                    <g id="Group-198" transform="translate(65.960000, 103.310640)">
                        <path d="M4.346676,0.393336 C4.346676,0.393336 -0.233604,10.256976 0.785916,14.167656" id="Fill-196" fill="#FFC83D"></path>
                        <path d="M4.346676,0.393336 C4.346676,0.393336 -0.233604,10.256976 0.785916,14.167656" id="Stroke-197" stroke="#000000" stroke-width="2" stroke-linecap="round" stroke-linejoin="round"></path>
                    </g>
                    <path d="M67.529132,90.949932 C67.529132,90.949932 61.577252,88.908732 60.387092,93.500892 L54.435212,95.541012 C54.435212,95.541012 54.944972,98.432172 57.836132,100.302732 C57.836132,100.302732 63.447812,97.922412 63.788012,100.302732 C63.788012,100.302732 65.148812,104.384052 60.216452,104.214492 C55.285172,104.043852 60.641972,108.542052 60.641972,108.542052 C60.641972,108.542052 68.672852,108.956772 70.987292,102.173292 C73.481012,94.860612 71.667692,91.630332 71.667692,91.630332 C71.667692,91.630332 69.570332,86.668812 67.529132,90.949932" id="Fill-199" fill="#FFFFFF"></path>
                    <path d="M67.529132,90.949932 C67.529132,90.949932 61.577252,88.908732 60.387092,93.500892 L54.435212,95.541012 C54.435212,95.541012 54.944972,98.432172 57.836132,100.302732 C57.836132,100.302732 63.447812,97.922412 63.788012,100.302732 C63.788012,100.302732 65.148812,104.384052 60.216452,104.214492 C55.285172,104.043852 60.641972,108.542052 60.641972,108.542052 C60.641972,108.542052 68.672852,108.956772 70.987292,102.173292 C73.481012,94.860612 71.667692,91.630332 71.667692,91.630332 C71.667692,91.630332 69.570332,86.668812 67.529132,90.949932 L67.529132,90.949932 Z" id="Stroke-200" stroke="#000000" stroke-width="2" stroke-linecap="round" stroke-linejoin="round"></path>
                    <g id="Group-203" transform="translate(64.880000, 94.670640)">
                        <path d="M0,0.290844 L1.08,0.290844" id="Fill-201" fill="#FFC83D"></path>
                        <path d="M0,0.290844 L1.08,0.290844" id="Stroke-202" stroke="#000000" stroke-width="2" stroke-linecap="round" stroke-linejoin="round"></path>
                    </g>
                    <g id="Group-206" transform="translate(63.800000, 129.230640)">
                        <path d="M0.752544,6.943428 C0.752544,6.943428 2.643624,5.923908 2.452464,2.101788 C2.261304,-1.720332 7.566264,0.682668 6.018624,7.941348 C6.018624,7.941348 7.102944,8.749188 7.749864,9.338868 C10.159344,11.539908 6.252984,16.568388 3.639384,13.414788" id="Fill-204" fill="#FFFFFF"></path>
                        <path d="M0.752544,6.943428 C0.752544,6.943428 2.643624,5.923908 2.452464,2.101788 C2.261304,-1.720332 7.566264,0.682668 6.018624,7.941348 C6.018624,7.941348 7.102944,8.749188 7.749864,9.338868 C10.159344,11.539908 6.252984,16.568388 3.639384,13.414788" id="Stroke-205" stroke="#000000" stroke-width="2" stroke-linecap="round" stroke-linejoin="round"></path>
                    </g>
                    <g id="Group-209" transform="translate(29.240000, 103.310640)">
                        <path d="M1.047276,11.61702 C1.047276,11.61702 7.508916,-1.4769 22.474476,0.73386 C22.474476,0.73386 9.890316,3.62394 7.679556,12.46698" id="Fill-207" fill="#FFC83D"></path>
                        <path d="M1.047276,11.61702 C1.047276,11.61702 7.508916,-1.4769 22.474476,0.73386 C22.474476,0.73386 9.890316,3.62394 7.679556,12.46698" id="Stroke-208" stroke="#000000" stroke-width="2" stroke-linecap="round" stroke-linejoin="round"></path>
                    </g>
                    <g id="Group-212" transform="translate(74.640000, 87.110640)"></g>
                </g>
            </g>
        </g>
    </g>
</svg>