<?xml version="1.0" encoding="UTF-8"?>
<svg width="122px" height="108px" viewBox="0 0 122 108" version="1.1" xmlns="http://www.w3.org/2000/svg" xmlns:xlink="http://www.w3.org/1999/xlink">
    <!-- Generator: sketchtool 39.1 (31720) - http://www.bohemiancoding.com/sketch -->
    <title>6382737E-6CCB-4AB4-886B-66E09D49BE11</title>
    <desc>Created with sketchtool.</desc>
    <defs></defs>
    <g id="M2U-Planner" stroke="none" stroke-width="1" fill="none" fill-rule="evenodd">
        <g id="309_M2U_Solutions-Copy-19" transform="translate(-863.000000, -462.000000)" fill="#389A6E">
            <g id="Group" transform="translate(213.000000, 284.000000)">
                <g id="South-East-Asia" transform="translate(650.000000, 178.000000)">
                    <g transform="translate(0.241198, 0.208623)">
                        <path d="M4.78258164,2.65556194 C4.78258164,3.97530914 3.71228492,5.04361751 2.39037027,5.04361751 C1.06968302,5.04361751 0.000613702251,3.97530914 0.000613702251,2.65556194 C0.000613702251,1.33336169 1.06968302,0.263826786 2.39037027,0.263826786 C3.71228492,0.263826786 4.78258164,1.33336169 4.78258164,2.65556194" id="Fill-1"></path>
                        <path d="M11.6938509,2.65556194 C11.6938509,3.97530914 10.6223268,5.04361751 9.30163954,5.04361751 C7.97972489,5.04361751 6.90942816,3.97530914 6.90942816,2.65556194 C6.90942816,1.33336169 7.97972489,0.263826786 9.30163954,0.263826786 C10.6223268,0.263826786 11.6938509,1.33336169 11.6938509,2.65556194" id="Fill-3"></path>
                        <path d="M11.6938509,9.56191185 C11.6938509,10.8804325 10.6223268,11.9524205 9.30163954,11.9524205 C7.97972489,11.9524205 6.90942816,10.8804325 6.90942816,9.56191185 C6.90942816,8.24093813 7.97972489,7.1701767 9.30163954,7.1701767 C10.6223268,7.1701767 11.6938509,8.24093813 11.6938509,9.56191185" id="Fill-5"></path>
                        <path d="M11.6938509,16.4683844 C11.6938509,17.7869051 10.6223268,18.85644 9.30163954,18.85644 C7.97972489,18.85644 6.90942816,17.7869051 6.90942816,16.4683844 C6.90942816,15.1498638 7.97972489,14.0778758 9.30163954,14.0778758 C10.6223268,14.0778758 11.6938509,15.1498638 11.6938509,16.4683844" id="Fill-7"></path>
                        <path d="M93.9671429,15.9041802 C93.9671429,17.2227009 92.8956188,18.2959154 91.5724767,18.2959154 C90.2542443,18.2959154 89.1839476,17.2227009 89.1839476,15.9041802 C89.1839476,14.5832065 90.2542443,13.5148981 91.5724767,13.5148981 C92.8956188,13.5148981 93.9671429,14.5832065 93.9671429,15.9041802" id="Fill-9"></path>
                        <path d="M93.9671429,23.0525247 C93.9671429,24.3759515 92.8956188,25.4430333 91.5724767,25.4430333 C90.2542443,25.4430333 89.1839476,24.3759515 89.1839476,23.0525247 C89.1839476,21.734004 90.2542443,20.6607895 91.5724767,20.6607895 C92.8956188,20.6607895 93.9671429,21.734004 93.9671429,23.0525247" id="Fill-11"></path>
                        <path d="M100.609979,30.4584406 C100.609979,31.7781878 99.5384547,32.8477227 98.2177675,32.8477227 C96.8946254,32.8477227 95.8243287,31.7781878 95.8243287,30.4584406 C95.8243287,29.1374669 96.8946254,28.067932 98.2177675,28.067932 C99.5384547,28.067932 100.609979,29.1374669 100.609979,30.4584406" id="Fill-13"></path>
                        <path d="M107.763538,36.4234281 C107.763538,37.7444018 106.693241,38.8127102 105.372554,38.8127102 C104.051867,38.8127102 102.98157,37.7444018 102.98157,36.4234281 C102.98157,35.1024544 104.051867,34.0316929 105.372554,34.0316929 C106.693241,34.0316929 107.763538,35.1024544 107.763538,36.4234281" id="Fill-15"></path>
                        <path d="M101.886602,43.3166541 C101.886602,44.6376278 100.815078,45.7071627 99.4968457,45.7071627 C98.174931,45.7071627 97.1034069,44.6376278 97.1034069,43.3166541 C97.1034069,41.9956804 98.174931,40.9236924 99.4968457,40.9236924 C100.815078,40.9236924 101.886602,41.9956804 101.886602,43.3166541" id="Fill-17"></path>
                        <path d="M87.0677795,43.3166541 C87.0677795,44.6376278 85.9987102,45.7071627 84.6767955,45.7071627 C83.3573357,45.7071627 82.2858115,44.6376278 82.2858115,43.3166541 C82.2858115,41.9956804 83.3573357,40.9236924 84.6767955,40.9236924 C85.9987102,40.9236924 87.0677795,41.9956804 87.0677795,43.3166541" id="Fill-19"></path>
                        <path d="M107.508115,50.2098801 C107.508115,51.5296273 106.436591,52.6016153 105.117131,52.6016153 C103.795216,52.6016153 102.72492,51.5296273 102.72492,50.2098801 C102.72492,48.8889064 103.795216,47.818145 105.117131,47.818145 C106.436591,47.818145 107.508115,48.8889064 107.508115,50.2098801" id="Fill-21"></path>
                        <path d="M113.386278,50.2098801 C113.386278,51.5296273 112.312299,52.6016153 110.992839,52.6016153 C109.672152,52.6016153 108.600628,51.5296273 108.600628,50.2098801 C108.600628,48.8889064 109.672152,47.818145 110.992839,47.818145 C112.312299,47.818145 113.386278,48.8889064 113.386278,50.2098801" id="Fill-23"></path>
                        <path d="M18.5225159,2.39320699 C18.5225159,3.7092746 17.4546739,4.78126256 16.1303045,4.78126256 C14.8120721,4.78126256 13.7405479,3.7092746 13.7405479,2.39320699 C13.7405479,1.07100674 14.8120721,0.00024530617 16.1303045,0.00024530617 C17.4546739,0.00024530617 18.5225159,1.07100674 18.5225159,2.39320699" id="Fill-25"></path>
                        <path d="M25.3164453,2.39320699 C25.3164453,3.7092746 24.2461485,4.78126256 22.9242339,4.78126256 C21.604774,4.78126256 20.5320225,3.7092746 20.5320225,2.39320699 C20.5320225,1.07100674 21.604774,0.00024530617 22.9242339,0.00024530617 C24.2461485,0.00024530617 25.3164453,1.07100674 25.3164453,2.39320699" id="Fill-27"></path>
                        <path d="M32.170272,2.39320699 C32.170272,3.7092746 31.0987479,4.78126256 29.7756058,4.78126256 C28.456146,4.78126256 27.3858493,3.7092746 27.3858493,2.39320699 C27.3858493,1.07100674 28.456146,0.00024530617 29.7756058,0.00024530617 C31.0987479,0.00024530617 32.170272,1.07100674 32.170272,2.39320699" id="Fill-29"></path>
                        <path d="M46.1715206,2.39320699 C46.1715206,3.7092746 45.0999965,4.78126256 43.7805367,4.78126256 C42.4573946,4.78126256 41.3883253,3.7092746 41.3883253,2.39320699 C41.3883253,1.07100674 42.4573946,0.00024530617 43.7805367,0.00024530617 C45.0999965,0.00024530617 46.1715206,1.07100674 46.1715206,2.39320699" id="Fill-31"></path>
                        <path d="M52.9665547,2.39320699 C52.9665547,3.7092746 51.8938032,4.78126256 50.5731159,4.78126256 C49.2512013,4.78126256 48.182132,3.7092746 48.182132,2.39320699 C48.182132,1.07100674 49.2512013,0.00024530617 50.5731159,0.00024530617 C51.8938032,0.00024530617 52.9665547,1.07100674 52.9665547,2.39320699" id="Fill-33"></path>
                        <path d="M59.816822,2.39320699 C59.816822,3.7092746 58.7465252,4.78126256 57.4270654,4.78126256 C56.1026959,4.78126256 55.0336266,3.7092746 55.0336266,2.39320699 C55.0336266,1.07100674 56.1026959,0.00024530617 57.4270654,0.00024530617 C58.7465252,0.00024530617 59.816822,1.07100674 59.816822,2.39320699" id="Fill-35"></path>
                        <path d="M39.4291422,2.39320699 C39.4291422,3.7092746 38.3576181,4.78126256 37.0369309,4.78126256 C35.7150162,4.78126256 34.6447195,3.7092746 34.6447195,2.39320699 C34.6447195,1.07100674 35.7150162,0.00024530617 37.0369309,0.00024530617 C38.3576181,0.00024530617 39.4291422,1.07100674 39.4291422,2.39320699" id="Fill-37"></path>
                        <path d="M121.083945,76.2485168 C121.083945,77.5707171 120.011194,78.640252 118.689279,78.640252 C117.368592,78.640252 116.298295,77.5707171 116.298295,76.2485168 C116.298295,74.9299962 117.368592,73.8604613 118.689279,73.8604613 C120.011194,73.8604613 121.083945,74.9299962 121.083945,76.2485168" id="Fill-39"></path>
                        <path d="M121.083945,70.1230991 C121.083945,71.4440728 120.011194,72.5123812 118.689279,72.5123812 C117.368592,72.5123812 116.298295,71.4440728 116.298295,70.1230991 C116.298295,68.8045784 117.368592,67.7325905 118.689279,67.7325905 C120.011194,67.7325905 121.083945,68.8045784 121.083945,70.1230991" id="Fill-42"></path>
                        <path d="M18.5225159,16.5054256 C18.5225159,17.8288524 17.4546739,18.8983873 16.1303045,18.8983873 C14.8120721,18.8983873 13.7405479,17.8288524 13.7405479,16.5054256 C13.7405479,15.1881315 14.8120721,14.1173701 16.1303045,14.1173701 C17.4546739,14.1173701 18.5225159,15.1881315 18.5225159,16.5054256" id="Fill-45"></path>
                        <path d="M25.3164453,16.5054256 C25.3164453,17.8288524 24.2461485,18.8983873 22.9242339,18.8983873 C21.604774,18.8983873 20.5320225,17.8288524 20.5320225,16.5054256 C20.5320225,15.1881315 21.604774,14.1173701 22.9242339,14.1173701 C24.2461485,14.1173701 25.3164453,15.1881315 25.3164453,16.5054256" id="Fill-47"></path>
                        <path d="M32.170272,16.5054256 C32.170272,17.8288524 31.0987479,18.8983873 29.7756058,18.8983873 C28.456146,18.8983873 27.3858493,17.8288524 27.3858493,16.5054256 C27.3858493,15.1881315 28.456146,14.1173701 29.7756058,14.1173701 C31.0987479,14.1173701 32.170272,15.1881315 32.170272,16.5054256" id="Fill-49"></path>
                        <path d="M18.5225159,9.61219962 C18.5225159,10.9319468 17.4546739,12.0002552 16.1303045,12.0002552 C14.8120721,12.0002552 13.7405479,10.9319468 13.7405479,9.61219962 C13.7405479,8.29367895 14.8120721,7.22291752 16.1303045,7.22291752 C17.4546739,7.22291752 18.5225159,8.29367895 18.5225159,9.61219962" id="Fill-51"></path>
                        <path d="M25.3164453,9.61219962 C25.3164453,10.9319468 24.2461485,12.0002552 22.9242339,12.0002552 C21.604774,12.0002552 20.5320225,10.9319468 20.5320225,9.61219962 C20.5320225,8.29367895 21.604774,7.22291752 22.9242339,7.22291752 C24.2461485,7.22291752 25.3164453,8.29367895 25.3164453,9.61219962" id="Fill-53"></path>
                        <path d="M32.170272,9.61219962 C32.170272,10.9319468 31.0987479,12.0002552 29.7756058,12.0002552 C28.456146,12.0002552 27.3858493,10.9319468 27.3858493,9.61219962 C27.3858493,8.29367895 28.456146,7.22291752 29.7756058,7.22291752 C31.0987479,7.22291752 32.170272,8.29367895 32.170272,9.61219962" id="Fill-55"></path>
                        <path d="M46.1715206,16.5054256 C46.1715206,17.8288524 45.0999965,18.8983873 43.7805367,18.8983873 C42.4573946,18.8983873 41.3883253,17.8288524 41.3883253,16.5054256 C41.3883253,15.1881315 42.4573946,14.1173701 43.7805367,14.1173701 C45.0999965,14.1173701 46.1715206,15.1881315 46.1715206,16.5054256" id="Fill-57"></path>
                        <path d="M39.4291422,16.5054256 C39.4291422,17.8288524 38.3576181,18.8983873 37.0369309,18.8983873 C35.7150162,18.8983873 34.6447195,17.8288524 34.6447195,16.5054256 C34.6447195,15.1881315 35.7150162,14.1173701 37.0369309,14.1173701 C38.3576181,14.1173701 39.4291422,15.1881315 39.4291422,16.5054256" id="Fill-59"></path>
                        <path d="M39.4291422,9.61219962 C39.4291422,10.9319468 38.3576181,12.0002552 37.0369309,12.0002552 C35.7150162,12.0002552 34.6447195,10.9319468 34.6447195,9.61219962 C34.6447195,8.29367895 35.7150162,7.22291752 37.0369309,7.22291752 C38.3576181,7.22291752 39.4291422,8.29367895 39.4291422,9.61219962" id="Fill-61"></path>
                        <path d="M73.115627,64.2527998 C73.115627,65.572547 72.0465577,66.6433084 70.7258704,66.6433084 C69.4051832,66.6433084 68.3336591,65.572547 68.3336591,64.2527998 C68.3336591,62.9342791 69.4051832,61.8622912 70.7258704,61.8622912 C72.0465577,61.8622912 73.115627,62.9342791 73.115627,64.2527998" id="Fill-63"></path>
                        <path d="M79.9095564,64.2527998 C79.9095564,65.572547 78.8380323,66.6433084 77.5185724,66.6433084 C76.1991126,66.6433084 75.1263611,65.572547 75.1263611,64.2527998 C75.1263611,62.9342791 76.1991126,61.8622912 77.5185724,61.8622912 C78.8380323,61.8622912 79.9095564,62.9342791 79.9095564,64.2527998" id="Fill-65"></path>
                        <path d="M86.7621558,64.2527998 C86.7621558,65.572547 85.691859,66.6433084 84.3699444,66.6433084 C83.0492571,66.6433084 81.977733,65.572547 81.977733,64.2527998 C81.977733,62.9342791 83.0492571,61.8622912 84.3699444,61.8622912 C85.691859,61.8622912 86.7621558,62.9342791 86.7621558,64.2527998" id="Fill-67"></path>
                        <path d="M86.7621558,57.6134657 C86.7621558,58.9344394 85.691859,60.0052008 84.3699444,60.0052008 C83.0492571,60.0052008 81.977733,58.9344394 81.977733,57.6134657 C81.977733,56.294945 83.0492571,55.222957 84.3699444,55.222957 C85.691859,55.222957 86.7621558,56.294945 86.7621558,57.6134657" id="Fill-69"></path>
                        <path d="M73.115627,78.0380253 C73.115627,79.3589991 72.0465577,80.428534 70.7258704,80.428534 C69.4051832,80.428534 68.3336591,79.3589991 68.3336591,78.0380253 C68.3336591,76.7170516 69.4051832,75.6487432 70.7258704,75.6487432 C72.0465577,75.6487432 73.115627,76.7170516 73.115627,78.0380253" id="Fill-71"></path>
                        <path d="M79.9095564,78.0380253 C79.9095564,79.3589991 78.8380323,80.428534 77.5185724,80.428534 C76.1991126,80.428534 75.1263611,79.3589991 75.1263611,78.0380253 C75.1263611,76.7170516 76.1991126,75.6487432 77.5185724,75.6487432 C78.8380323,75.6487432 79.9095564,76.7170516 79.9095564,78.0380253" id="Fill-73"></path>
                        <path d="M86.7621558,78.0380253 C86.7621558,79.3589991 85.691859,80.428534 84.3699444,80.428534 C83.0492571,80.428534 81.977733,79.3589991 81.977733,78.0380253 C81.977733,76.7170516 83.0492571,75.6487432 84.3699444,75.6487432 C85.691859,75.6487432 86.7621558,76.7170516 86.7621558,78.0380253" id="Fill-75"></path>
                        <path d="M93.6602918,78.0380253 C93.6602918,79.3589991 92.5899951,80.428534 91.266853,80.428534 C89.9461658,80.428534 88.875869,79.3589991 88.875869,78.0380253 C88.875869,76.7170516 89.9461658,75.6487432 91.266853,75.6487432 C92.5899951,75.6487432 93.6602918,76.7170516 93.6602918,78.0380253" id="Fill-77"></path>
                        <path d="M93.6602918,84.6749064 C93.6602918,85.9971067 92.5899951,87.0690946 91.266853,87.0690946 C89.9461658,87.0690946 88.875869,85.9971067 88.875869,84.6749064 C88.875869,83.3563857 89.9461658,82.2856243 91.266853,82.2856243 C92.5899951,82.2856243 93.6602918,83.3563857 93.6602918,84.6749064" id="Fill-79"></path>
                        <path d="M100.099379,84.6749064 C100.099379,85.9971067 99.026627,87.0690946 97.7071672,87.0690946 C96.3864799,87.0690946 95.3137284,85.9971067 95.3137284,84.6749064 C95.3137284,83.3563857 96.3864799,82.2856243 97.7071672,82.2856243 C99.026627,82.2856243 100.099379,83.3563857 100.099379,84.6749064" id="Fill-81"></path>
                        <path d="M93.6602918,91.0603487 C93.6602918,92.3813224 92.5899951,93.4484042 91.266853,93.4484042 C89.9461658,93.4484042 88.875869,92.3813224 88.875869,91.0603487 C88.875869,89.7406015 89.9461658,88.6710666 91.266853,88.6710666 C92.5899951,88.6710666 93.6602918,89.7406015 93.6602918,91.0603487" id="Fill-83"></path>
                        <path d="M100.559655,91.0603487 C100.559655,92.3813224 99.4881311,93.4484042 98.1674439,93.4484042 C96.8467566,93.4484042 95.7752325,92.3813224 95.7752325,91.0603487 C95.7752325,89.7406015 96.8467566,88.6710666 98.1674439,88.6710666 C99.4881311,88.6710666 100.559655,89.7406015 100.559655,91.0603487" id="Fill-85"></path>
                        <path d="M73.115627,71.1447993 C73.115627,72.465773 72.0465577,73.5365345 70.7258704,73.5365345 C69.4051832,73.5365345 68.3336591,72.465773 68.3336591,71.1447993 C68.3336591,69.8262786 69.4051832,68.7542907 70.7258704,68.7542907 C72.0465577,68.7542907 73.115627,69.8262786 73.115627,71.1447993" id="Fill-87"></path>
                        <path d="M79.9095564,71.1447993 C79.9095564,72.465773 78.8380323,73.5365345 77.5185724,73.5365345 C76.1991126,73.5365345 75.1263611,72.465773 75.1263611,71.1447993 C75.1263611,69.8262786 76.1991126,68.7542907 77.5185724,68.7542907 C78.8380323,68.7542907 79.9095564,69.8262786 79.9095564,71.1447993" id="Fill-89"></path>
                        <path d="M66.3733713,78.0380253 C66.3733713,79.3589991 65.3018472,80.428534 63.9823874,80.428534 C62.6604727,80.428534 61.5889486,79.3589991 61.5889486,78.0380253 C61.5889486,76.7170516 62.6604727,75.6487432 63.9823874,75.6487432 C65.3018472,75.6487432 66.3733713,76.7170516 66.3733713,78.0380253" id="Fill-91"></path>
                        <path d="M66.3733713,71.1447993 C66.3733713,72.465773 65.3018472,73.5365345 63.9823874,73.5365345 C62.6604727,73.5365345 61.5889486,72.465773 61.5889486,71.1447993 C61.5889486,69.8262786 62.6604727,68.7542907 63.9823874,68.7542907 C65.3018472,68.7542907 66.3733713,69.8262786 66.3733713,71.1447993" id="Fill-93"></path>
                        <path d="M86.7621558,71.1447993 C86.7621558,72.465773 85.691859,73.5365345 84.3699444,73.5365345 C83.0492571,73.5365345 81.977733,72.465773 81.977733,71.1447993 C81.977733,69.8262786 83.0492571,68.7542907 84.3699444,68.7542907 C85.691859,68.7542907 86.7621558,69.8262786 86.7621558,71.1447993" id="Fill-95"></path>
                        <path d="M73.115627,84.0927949 C73.115627,85.4137686 72.0465577,86.482077 70.7258704,86.482077 C69.4051832,86.482077 68.3336591,85.4137686 68.3336591,84.0927949 C68.3336591,82.7742742 69.4051832,81.7010597 70.7258704,81.7010597 C72.0465577,81.7010597 73.115627,82.7742742 73.115627,84.0927949" id="Fill-97"></path>
                        <path d="M79.9095564,84.0927949 C79.9095564,85.4137686 78.8380323,86.482077 77.5185724,86.482077 C76.1991126,86.482077 75.1263611,85.4137686 75.1263611,84.0927949 C75.1263611,82.7742742 76.1991126,81.7010597 77.5185724,81.7010597 C78.8380323,81.7010597 79.9095564,82.7742742 79.9095564,84.0927949" id="Fill-99"></path>
                        <path d="M66.3733713,84.0927949 C66.3733713,85.4137686 65.3018472,86.482077 63.9823874,86.482077 C62.6604727,86.482077 61.5889486,85.4137686 61.5889486,84.0927949 C61.5889486,82.7742742 62.6604727,81.7010597 63.9823874,81.7010597 C65.3018472,81.7010597 66.3733713,82.7742742 66.3733713,84.0927949" id="Fill-101"></path>
                        <path d="M73.115627,104.518704 C73.115627,105.839677 72.0465577,106.907986 70.7258704,106.907986 C69.4051832,106.907986 68.3336591,105.839677 68.3336591,104.518704 C68.3336591,103.200183 69.4051832,102.129422 70.7258704,102.129422 C72.0465577,102.129422 73.115627,103.200183 73.115627,104.518704" id="Fill-103"></path>
                        <path d="M66.3733713,104.518704 C66.3733713,105.839677 65.3018472,106.907986 63.9823874,106.907986 C62.6604727,106.907986 61.5889486,105.839677 61.5889486,104.518704 C61.5889486,103.200183 62.6604727,102.129422 63.9823874,102.129422 C65.3018472,102.129422 66.3733713,103.200183 66.3733713,104.518704" id="Fill-105"></path>
                        <path d="M52.8322767,98.3919368 C52.8322767,99.709231 51.7595251,100.782445 50.4388379,100.782445 C49.1169232,100.782445 48.0466265,99.709231 48.0466265,98.3919368 C48.0466265,97.0734162 49.1169232,96.0014282 50.4388379,96.0014282 C51.7595251,96.0014282 52.8322767,97.0734162 52.8322767,98.3919368" id="Fill-107"></path>
                        <path d="M25.3164453,30.2907738 C25.3164453,31.6129741 24.2461485,32.6837355 22.9242339,32.6837355 C21.604774,32.6837355 20.5320225,31.6129741 20.5320225,30.2907738 C20.5320225,28.9722532 21.604774,27.9027183 22.9242339,27.9027183 C24.2461485,27.9027183 25.3164453,28.9722532 25.3164453,30.2907738" id="Fill-109"></path>
                        <path d="M32.170272,30.2907738 C32.170272,31.6129741 31.0987479,32.6837355 29.7756058,32.6837355 C28.456146,32.6837355 27.3858493,31.6129741 27.3858493,30.2907738 C27.3858493,28.9722532 28.456146,27.9027183 29.7756058,27.9027183 C31.0987479,27.9027183 32.170272,28.9722532 32.170272,30.2907738" id="Fill-111"></path>
                        <path d="M25.3164453,23.3975478 C25.3164453,24.7197481 24.2461485,25.791736 22.9242339,25.791736 C21.604774,25.791736 20.5320225,24.7197481 20.5320225,23.3975478 C20.5320225,22.0802537 21.604774,21.0094922 22.9242339,21.0094922 C24.2461485,21.0094922 25.3164453,22.0802537 25.3164453,23.3975478" id="Fill-113"></path>
                        <path d="M32.170272,23.3975478 C32.170272,24.7197481 31.0987479,25.791736 29.7756058,25.791736 C28.456146,25.791736 27.3858493,24.7197481 27.3858493,23.3975478 C27.3858493,22.0802537 28.456146,21.0094922 29.7756058,21.0094922 C31.0987479,21.0094922 32.170272,22.0802537 32.170272,23.3975478" id="Fill-115"></path>
                        <path d="M25.5873334,71.0777081 C25.5873334,72.3986818 24.5170367,73.4706697 23.1951221,73.4706697 C21.8732074,73.4706697 20.8029107,72.3986818 20.8029107,71.0777081 C20.8029107,69.7604139 21.8732074,68.6896525 23.1951221,68.6896525 C24.5170367,68.6896525 25.5873334,69.7604139 25.5873334,71.0777081" id="Fill-117"></path>
                        <path d="M32.3800354,71.0777081 C32.3800354,72.3986818 31.3085113,73.4706697 29.9890515,73.4706697 C28.6671368,73.4706697 27.5943853,72.3986818 27.5943853,71.0777081 C27.5943853,69.7604139 28.6671368,68.6896525 29.9890515,68.6896525 C31.3085113,68.6896525 32.3800354,69.7604139 32.3800354,71.0777081" id="Fill-119"></path>
                        <path d="M39.2326348,71.0777081 C39.2326348,72.3986818 38.1598832,73.4706697 36.8404234,73.4706697 C35.5197361,73.4706697 34.448212,72.3986818 34.448212,71.0777081 C34.448212,69.7604139 35.5197361,68.6896525 36.8404234,68.6896525 C38.1598832,68.6896525 39.2326348,69.7604139 39.2326348,71.0777081" id="Fill-121"></path>
                        <path d="M39.2326348,84.0293832 C39.2326348,85.3503569 38.1598832,86.4198918 36.8404234,86.4198918 C35.5197361,86.4198918 34.448212,85.3503569 34.448212,84.0293832 C34.448212,82.7084095 35.5197361,81.6401011 36.8404234,81.6401011 C38.1598832,81.6401011 39.2326348,82.7084095 39.2326348,84.0293832" id="Fill-123"></path>
                        <path d="M32.3800354,77.1361572 C32.3800354,78.4559044 31.3085113,79.5242128 29.9890515,79.5242128 C28.6671368,79.5242128 27.5943853,78.4559044 27.5943853,77.1361572 C27.5943853,75.8139569 28.6671368,74.7456486 29.9890515,74.7456486 C31.3085113,74.7456486 32.3800354,75.8139569 32.3800354,77.1361572" id="Fill-125"></path>
                        <path d="M39.2326348,77.1361572 C39.2326348,78.4559044 38.1598832,79.5242128 36.8404234,79.5242128 C35.5197361,79.5242128 34.448212,78.4559044 34.448212,77.1361572 C34.448212,75.8139569 35.5197361,74.7456486 36.8404234,74.7456486 C38.1598832,74.7456486 39.2326348,75.8139569 39.2326348,77.1361572" id="Fill-127"></path>
                        <path d="M39.2326348,91.2483758 C39.2326348,92.5718026 38.1598832,93.640111 36.8404234,93.640111 C35.5197361,93.640111 34.448212,92.5718026 34.448212,91.2483758 C34.448212,89.9323082 35.5197361,88.8603203 36.8404234,88.8603203 C38.1598832,88.8603203 39.2326348,89.9323082 39.2326348,91.2483758" id="Fill-129"></path>
                        <path d="M45.8742433,84.0293832 C45.8742433,85.3503569 44.8014917,86.4198918 43.4832593,86.4198918 C42.1613447,86.4198918 41.0910479,85.3503569 41.0910479,84.0293832 C41.0910479,82.7084095 42.1613447,81.6401011 43.4832593,81.6401011 C44.8014917,81.6401011 45.8742433,82.7084095 45.8742433,84.0293832" id="Fill-131"></path>
                        <path d="M45.8742433,91.2483758 C45.8742433,92.5718026 44.8014917,93.640111 43.4832593,93.640111 C42.1613447,93.640111 41.0910479,92.5718026 41.0910479,91.2483758 C41.0910479,89.9323082 42.1613447,88.8603203 43.4832593,88.8603203 C44.8014917,88.8603203 45.8742433,89.9323082 45.8742433,91.2483758" id="Fill-133"></path>
                        <path d="M46.1715206,30.2907738 C46.1715206,31.6129741 45.0999965,32.6837355 43.7805367,32.6837355 C42.4573946,32.6837355 41.3883253,31.6129741 41.3883253,30.2907738 C41.3883253,28.9722532 42.4573946,27.9027183 43.7805367,27.9027183 C45.0999965,27.9027183 46.1715206,28.9722532 46.1715206,30.2907738" id="Fill-135"></path>
                        <path d="M52.9665547,30.2907738 C52.9665547,31.6129741 51.8938032,32.6837355 50.5731159,32.6837355 C49.2512013,32.6837355 48.182132,31.6129741 48.182132,30.2907738 C48.182132,28.9722532 49.2512013,27.9027183 50.5731159,27.9027183 C51.8938032,27.9027183 52.9665547,28.9722532 52.9665547,30.2907738" id="Fill-137"></path>
                        <path d="M46.1715206,23.3975478 C46.1715206,24.7197481 45.0999965,25.791736 43.7805367,25.791736 C42.4573946,25.791736 41.3883253,24.7197481 41.3883253,23.3975478 C41.3883253,22.0802537 42.4573946,21.0094922 43.7805367,21.0094922 C45.0999965,21.0094922 46.1715206,22.0802537 46.1715206,23.3975478" id="Fill-139"></path>
                        <path d="M52.9665547,23.3975478 C52.9665547,24.7197481 51.8938032,25.791736 50.5731159,25.791736 C49.2512013,25.791736 48.182132,24.7197481 48.182132,23.3975478 C48.182132,22.0802537 49.2512013,21.0094922 50.5731159,21.0094922 C51.8938032,21.0094922 52.9665547,22.0802537 52.9665547,23.3975478" id="Fill-141"></path>
                        <path d="M39.4291422,30.2907738 C39.4291422,31.6129741 38.3576181,32.6837355 37.0369309,32.6837355 C35.7150162,32.6837355 34.6447195,31.6129741 34.6447195,30.2907738 C34.6447195,28.9722532 35.7150162,27.9027183 37.0369309,27.9027183 C38.3576181,27.9027183 39.4291422,28.9722532 39.4291422,30.2907738" id="Fill-143"></path>
                        <path d="M39.4291422,23.3975478 C39.4291422,24.7197481 38.3576181,25.791736 37.0369309,25.791736 C35.7150162,25.791736 34.6447195,24.7197481 34.6447195,23.3975478 C34.6447195,22.0802537 35.7150162,21.0094922 37.0369309,21.0094922 C38.3576181,21.0094922 39.4291422,22.0802537 39.4291422,23.3975478" id="Fill-145"></path>
                        <path d="M25.3164453,36.67732 C25.3164453,37.9995202 24.2461485,39.0666021 22.9242339,39.0666021 C21.604774,39.0666021 20.5320225,37.9995202 20.5320225,36.67732 C20.5320225,35.3575728 21.604774,34.2880379 22.9242339,34.2880379 C24.2461485,34.2880379 25.3164453,35.3575728 25.3164453,36.67732" id="Fill-147"></path>
                        <path d="M46.1715206,36.67732 C46.1715206,37.9995202 45.0999965,39.0666021 43.7805367,39.0666021 C42.4573946,39.0666021 41.3883253,37.9995202 41.3883253,36.67732 C41.3883253,35.3575728 42.4573946,34.2880379 43.7805367,34.2880379 C45.0999965,34.2880379 46.1715206,35.3575728 46.1715206,36.67732" id="Fill-149"></path>
                        <path d="M52.9665547,36.67732 C52.9665547,37.9995202 51.8938032,39.0666021 50.5731159,39.0666021 C49.2512013,39.0666021 48.182132,37.9995202 48.182132,36.67732 C48.182132,35.3575728 49.2512013,34.2880379 50.5731159,34.2880379 C51.8938032,34.2880379 52.9665547,35.3575728 52.9665547,36.67732" id="Fill-151"></path>
                        <path d="M59.816822,36.67732 C59.816822,37.9995202 58.7465252,39.0666021 57.4270654,39.0666021 C56.1026959,39.0666021 55.0336266,37.9995202 55.0336266,36.67732 C55.0336266,35.3575728 56.1026959,34.2880379 57.4270654,34.2880379 C58.7465252,34.2880379 59.816822,35.3575728 59.816822,36.67732" id="Fill-153"></path>
                        <path d="M39.4291422,36.67732 C39.4291422,37.9995202 38.3576181,39.0666021 37.0369309,39.0666021 C35.7150162,39.0666021 34.6447195,37.9995202 34.6447195,36.67732 C34.6447195,35.3575728 35.7150162,34.2880379 37.0369309,34.2880379 C38.3576181,34.2880379 39.4291422,35.3575728 39.4291422,36.67732" id="Fill-155"></path>
                        <path d="M32.170272,50.7908878 C32.170272,52.1130881 31.0987479,53.182623 29.7756058,53.182623 C28.456146,53.182623 27.3858493,52.1130881 27.3858493,50.7908878 C27.3858493,49.4735937 28.456146,48.4016057 29.7756058,48.4016057 C31.0987479,48.4016057 32.170272,49.4735937 32.170272,50.7908878" id="Fill-157"></path>
                        <path d="M25.3164453,43.8964352 C25.3164453,45.2186355 24.2461485,46.2906235 22.9242339,46.2906235 C21.604774,46.2906235 20.5320225,45.2186355 20.5320225,43.8964352 C20.5320225,42.5803676 21.604774,41.5083797 22.9242339,41.5083797 C24.2461485,41.5083797 25.3164453,42.5803676 25.3164453,43.8964352" id="Fill-159"></path>
                        <path d="M25.3164453,64.5785664 C25.3164453,65.8983136 24.2461485,66.9703015 22.9242339,66.9703015 C21.604774,66.9703015 20.5320225,65.8983136 20.5320225,64.5785664 C20.5320225,63.2600457 21.604774,62.1880578 22.9242339,62.1880578 C24.2461485,62.1880578 25.3164453,63.2600457 25.3164453,64.5785664" id="Fill-161"></path>
                        <path d="M32.170272,57.6853404 C32.170272,59.0050876 31.0987479,60.0746225 29.7756058,60.0746225 C28.456146,60.0746225 27.3858493,59.0050876 27.3858493,57.6853404 C27.3858493,56.3655932 28.456146,55.2923787 29.7756058,55.2923787 C31.0987479,55.2923787 32.170272,56.3655932 32.170272,57.6853404" id="Fill-163"></path>
                        <path d="M46.1715206,43.6400903 C46.1715206,44.961064 45.0999965,46.033052 43.7805367,46.033052 C42.4573946,46.033052 41.3883253,44.961064 41.3883253,43.6400903 C41.3883253,42.3215696 42.4573946,41.2520347 43.7805367,41.2520347 C45.0999965,41.2520347 46.1715206,42.3215696 46.1715206,43.6400903" id="Fill-165"></path>
                        <path d="M39.4291422,64.5785664 C39.4291422,65.8983136 38.3576181,66.9703015 37.0369309,66.9703015 C35.7150162,66.9703015 34.6447195,65.8983136 34.6447195,64.5785664 C34.6447195,63.2600457 35.7150162,62.1880578 37.0369309,62.1880578 C38.3576181,62.1880578 39.4291422,63.2600457 39.4291422,64.5785664" id="Fill-167"></path>
                        <path d="M39.4291422,57.6853404 C39.4291422,59.0050876 38.3576181,60.0746225 37.0369309,60.0746225 C35.7150162,60.0746225 34.6447195,59.0050876 34.6447195,57.6853404 C34.6447195,56.3655932 35.7150162,55.2923787 37.0369309,55.2923787 C38.3576181,55.2923787 39.4291422,56.3655932 39.4291422,57.6853404" id="Fill-169"></path>
                    </g>
                </g>
            </g>
        </g>
    </g>
</svg>