<?xml version="1.0" encoding="utf-8"?>
<!-- Generator: Adobe Illustrator 16.0.2, SVG Export Plug-In . SVG Version: 6.00 Build 0)  -->
<!DOCTYPE svg PUBLIC "-//W3C//DTD SVG 1.1//EN" "http://www.w3.org/Graphics/SVG/1.1/DTD/svg11.dtd">
<svg version="1.1" id="Layer_1" xmlns="http://www.w3.org/2000/svg" xmlns:xlink="http://www.w3.org/1999/xlink" x="0px" y="0px"
	 width="576px" height="189px" viewBox="0 0 576 189" enable-background="new 0 0 576 189" xml:space="preserve">
<title>6A4D0189-E978-4AC6-BB8F-55A993C24AD4</title>
<desc>Created with sketchtool.</desc>
<g id="Page-1_1_">
	<g id="_x38_06_x5F_M2U_x5F_Planner_x5F_Travel-Copy-31" transform="translate(-704.000000, -223.000000)">
		<g id="Group-15" transform="translate(706.000000, 223.000000)">
			<g id="Group-32">
				<path id="Line" fill="none" stroke="#1C1918" stroke-width="2.4" stroke-linecap="round" stroke-linejoin="round" d="M156,155.2
					h572.504"/>
				<path id="Line-Copy" fill="none" stroke="#1C1918" stroke-width="2.4" stroke-linecap="round" stroke-linejoin="round" d="
					M23,155.2h124"/>
				<path id="Line-Copy_1_" fill="none" stroke="#1C1918" stroke-width="2.4" stroke-linecap="round" stroke-linejoin="round" d="
					M0,155.2h13"/>
				<g id="Page-1" transform="translate(199.265734, 0.000000)">
					<path id="Stroke-1" fill="none" stroke="#D1D1D1" stroke-width="2" stroke-linecap="round" stroke-linejoin="round" d="
						M249.363,5.217c0.006-0.458,0.099-1.249,0.602-1.875c0.547-0.683,2.564-2.179,3.926-2.263L249.363,5.217L249.363,5.217z"/>
					<path id="Stroke-3" fill="none" stroke="#D1D1D1" stroke-width="2" stroke-linecap="round" stroke-linejoin="round" d="
						M242.929,1.387c0.661-0.009,4.942,1.149,5.321,3.994"/>
					<path id="Stroke-5" fill="none" stroke="#D1D1D1" stroke-width="2" stroke-linecap="round" stroke-linejoin="round" d="
						M277.675,37.076c0.006-0.458,0.098-1.249,0.602-1.875c0.547-0.683,2.564-2.179,3.926-2.263"/>
					<path id="Stroke-7" fill="none" stroke="#D1D1D1" stroke-width="2" stroke-linecap="round" stroke-linejoin="round" d="
						M271.24,33.246c0.661-0.009,4.942,1.149,5.322,3.994"/>
					<polygon id="Fill-9" fill="#FFFFFF" points="90.41,155.802 250.465,155.802 250.465,103.816 90.41,103.816 					"/>
					<polygon id="Stroke-11" fill="none" stroke="#000000" stroke-width="2" points="90.41,155.802 250.465,155.802 
						250.465,103.816 90.41,103.816 					"/>
					<polygon id="Fill-12" fill="#FFC83D" points="230.586,130.623 241.049,130.623 241.049,115.104 230.586,115.104 					"/>
					
						<polygon id="Stroke-13" fill="none" stroke="#000000" stroke-width="2" stroke-linecap="round" stroke-linejoin="round" points="
						230.586,130.623 241.049,130.623 241.049,115.104 230.586,115.104 					"/>
					<polygon id="Fill-14" fill="#E2E2E2" points="108.753,154.002 115.458,154.002 115.458,106.322 108.753,106.322 					"/>
					<polygon id="Fill-15" fill="#E2E2E2" points="223.033,154.002 229.738,154.002 229.738,106.322 223.033,106.322 					"/>
					<polygon id="Fill-16" fill="#FFC83D" points="99.918,130.623 110.381,130.623 110.381,115.104 99.918,115.104 					"/>
					
						<polygon id="Stroke-17" fill="none" stroke="#000000" stroke-width="2" stroke-linecap="round" stroke-linejoin="round" points="
						99.918,130.623 110.381,130.623 110.381,115.104 99.918,115.104 					"/>
					<polygon id="Fill-18" fill="#FFFFFF" points="85.078,105.77 256.481,105.77 256.481,81.025 85.078,81.025 					"/>
					<polygon id="Stroke-19" fill="none" stroke="#000000" stroke-width="2" points="85.078,105.77 256.481,105.77 256.481,81.025 
						85.078,81.025 					"/>
					<polygon id="Fill-20" fill="#FFC83D" points="75.528,97.305 263.962,97.305 263.962,68.445 75.528,68.445 					"/>
					
						<polygon id="Stroke-21" fill="none" stroke="#000000" stroke-width="2" stroke-linecap="round" stroke-linejoin="round" points="
						75.528,97.305 263.962,97.305 263.962,68.445 75.528,68.445 					"/>
					<polygon id="Fill-22" fill="#FFFFFF" points="117.109,155.802 223.901,155.802 223.901,90.467 117.109,90.467 					"/>
					<g id="Group-25" transform="translate(223.640000, 92.510640)">
						<path id="Fill-23" fill="#FFC83D" d="M0,0.291v61.56"/>
						<path id="Stroke-24" fill="none" stroke="#000000" stroke-width="2" stroke-linecap="round" stroke-linejoin="round" d="
							M0,0.291v61.56"/>
					</g>
					<g id="Group-28" transform="translate(205.360000, 91.510640)">
						<path id="Fill-26" fill="#FFC83D" d="M1,1.291v61.56"/>
						<polygon id="Fill-65" fill="#E2E2E2" points="0.486,62.8 8.271,62.8 8.271,0.931 0.486,0.931 						"/>
						<path id="Stroke-27" fill="none" stroke="#000000" stroke-width="2" stroke-linecap="round" stroke-linejoin="round" d="
							M1,1.291v61.56"/>
					</g>
					<g id="Group-31" transform="translate(127.000000, 91.510640)">
						<path id="Fill-29" fill="#FFC83D" d="M7,1.291v61.56"/>
						<polygon id="Fill-67" fill="#E2E2E2" points="0.252,62.8 6.957,62.8 6.957,0.931 0.252,0.931 						"/>
						<path id="Stroke-30" fill="none" stroke="#000000" stroke-width="2" stroke-linecap="round" stroke-linejoin="round" d="
							M7,1.291v61.56"/>
					</g>
					<g id="Group-34" transform="translate(116.720000, 92.510640)">
						<path id="Fill-32" fill="#FFC83D" d="M0,0.291v61.56"/>
						<path id="Stroke-33" fill="none" stroke="#000000" stroke-width="2" stroke-linecap="round" stroke-linejoin="round" d="
							M0,0.291v61.56"/>
					</g>
					<polygon id="Fill-35" fill="#FFC83D" points="100.398,90.484 234.828,90.484 234.828,46.404 100.398,46.404 					"/>
					
						<polygon id="Stroke-36" fill="none" stroke="#000000" stroke-width="2" stroke-linecap="round" stroke-linejoin="round" points="
						100.398,90.484 234.828,90.484 234.828,46.404 100.398,46.404 					"/>
					<polygon id="Fill-37" fill="#FFC83D" points="136.861,72.252 199.805,72.252 199.805,28.172 136.861,28.172 					"/>
					<polygon id="Fill-64" fill="#E2E2E2" points="191.125,154.311 196.749,154.311 196.749,92.441 191.125,92.441 					"/>
					
						<polygon id="Stroke-38" fill="none" stroke="#000000" stroke-width="2" stroke-linecap="round" stroke-linejoin="round" points="
						136.861,72.252 199.805,72.252 199.805,28.172 136.861,28.172 					"/>
					<path id="Fill-39" fill="#FFFFFF" d="M168.768,1.854c0,0,6.32,52.067,54.916,90.947H111.249
						C111.249,92.801,168.768,36.801,168.768,1.854"/>
					<path id="Fill-41" fill="#E2E2E2" d="M122.048,88.481c0,0,35.724-34.74,49.5-72.653c-2.805-9.498-2.78-14.064-2.78-14.064
						c0,34.946-57.52,91.038-57.52,91.038h112.436c-2.217-2.16-4.345-3.24-6.39-4.32H122.048z"/>
					<polygon id="Fill-66" fill="#E2E2E2" points="140.975,154.311 146.6,154.311 146.6,92.441 140.975,92.441 					"/>
					<path id="Stroke-40" fill="none" stroke="#000000" stroke-width="2" stroke-linecap="round" stroke-linejoin="round" d="
						M168.768,1.854c0,0,6.32,52.067,54.916,90.947H111.249C111.249,92.801,168.768,36.801,168.768,1.854L168.768,1.854z"/>
					<polygon id="Fill-42" fill="#FFFFFF" points="144.675,155.802 191.126,155.802 191.126,62.901 144.675,62.901 					"/>
					<polygon id="Fill-63" fill="#E2E2E2" points="144.195,72.154 191.126,72.154 191.126,62.901 144.195,62.901 					"/>
					<polygon id="Stroke-43" fill="none" stroke="#000000" stroke-width="2" points="144.675,155.802 191.126,155.802 
						191.126,62.901 144.675,62.901 					"/>
					<path id="Fill-44" fill="#E2E2E2" d="M181.286,103.006c0.339,1.811-0.071,4.916-0.071,4.916h-1.854v32.039l-21.408,0.649
						l4.777,4.37l21.896,0.561l-1.305-33.299h2.214C185.534,112.242,188.236,106.191,181.286,103.006"/>
					<polygon id="Fill-45" fill="#FFC83D" points="157.771,140.609 179.715,140.609 179.715,108.468 157.771,108.468 					"/>
					
						<polygon id="Stroke-46" fill="none" stroke="#000000" stroke-width="2" stroke-linecap="round" stroke-linejoin="round" points="
						157.771,140.609 179.715,140.609 179.715,108.468 157.771,108.468 					"/>
					<g id="Group-49" transform="translate(153.440000, 91.430640)">
						<path id="Fill-47" fill="#FFC83D" d="M15.918,0.215c0,0,0.558,6.073,8.571,9.28c8.014,3.205,4.365,8.076,4.365,8.076H16.604
							h-1H1.726c0,0-3.242-4.871,4.771-8.076c8.014-3.207,8.979-9.251,8.979-9.251"/>
						<path id="Stroke-48" fill="none" stroke="#000000" stroke-width="2" stroke-linecap="round" stroke-linejoin="round" d="
							M15.918,0.215c0,0,0.558,6.073,8.571,9.28c8.014,3.205,4.365,8.076,4.365,8.076H16.604h-1H1.726c0,0-3.242-4.871,4.771-8.076
							c8.014-3.207,8.979-9.251,8.979-9.251"/>
					</g>
					<g id="Group-52" transform="translate(144.800000, 77.390640)">
						<path id="Fill-50" fill="#FFC83D" d="M0,0.291h45.36"/>
						<path id="Stroke-51" fill="none" stroke="#000000" stroke-width="2" stroke-linecap="round" stroke-linejoin="round" d="
							M0,0.291h45.36"/>
					</g>
					<path id="Stroke-53" fill="none" stroke="#000000" stroke-width="2" stroke-linecap="round" stroke-linejoin="round" d="
						M266.488,55.884c0,0,4.654,6.794-2.288,12.138"/>
					<path id="Stroke-54" fill="none" stroke="#000000" stroke-width="2" stroke-linecap="round" stroke-linejoin="round" d="
						M237.164,33.343c0,0,5.481,7.931-3.288,13.138"/>
					<path id="Stroke-55" fill="none" stroke="#000000" stroke-width="2" stroke-linecap="round" stroke-linejoin="round" d="
						M203.456,15.599c0,0,5.48,9.302-3.289,13.138"/>
					<path id="Stroke-56" fill="none" stroke="#000000" stroke-width="2" stroke-linecap="round" stroke-linejoin="round" d="
						M73.013,56.09c0,0-5.053,9.949,3.289,13.138"/>
					<path id="Stroke-57" fill="none" stroke="#000000" stroke-width="2" stroke-linecap="round" stroke-linejoin="round" d="
						M97.952,33.549c0,0-5.054,9.028,3.288,13.138"/>
					<path id="Stroke-58" fill="none" stroke="#000000" stroke-width="2" stroke-linecap="round" stroke-linejoin="round" d="
						M133.852,15.599c0,0-5.327,9.302,3.289,13.138"/>
					<path id="Stroke-59" fill="none" stroke="#000000" stroke-width="2" stroke-linecap="round" stroke-linejoin="round" d="
						M223.614,75.804c0,0,5.481,9.302-3.288,13.138"/>
					<path id="Stroke-60" fill="none" stroke="#000000" stroke-width="2" stroke-linecap="round" stroke-linejoin="round" d="
						M208.047,59.473c0,0,5.48,9.302-3.289,13.139"/>
					<path id="Stroke-61" fill="none" stroke="#000000" stroke-width="2" stroke-linecap="round" stroke-linejoin="round" d="
						M108.817,76.629c0,0-5.327,9.302,3.289,13.138"/>
					<path id="Stroke-62" fill="none" stroke="#000000" stroke-width="2" stroke-linecap="round" stroke-linejoin="round" d="
						M126.767,56.868c0,0-5.327,9.302,3.289,13.138"/>
					<path id="Stroke-68" fill="none" stroke="#E2E2E2" stroke-width="12" stroke-linecap="round" stroke-linejoin="round" d="
						M10.081,162.832h299.16"/>
					<g id="Group-71" transform="translate(30.320000, 171.350640)">
						<path id="Fill-69" fill="#FFFFFF" d="M14.233,0.72H0.356"/>
						<path id="Stroke-70" fill="none" stroke="#000000" stroke-width="2" stroke-linecap="round" stroke-linejoin="round" d="
							M14.233,0.72H0.356"/>
					</g>
					<g id="Group-74" transform="translate(53.000000, 171.350640)">
						<path id="Fill-72" fill="#FFFFFF" d="M39.493,0.72H0.236"/>
						<path id="Stroke-73" fill="none" stroke="#000000" stroke-width="2" stroke-linecap="round" stroke-linejoin="round" d="
							M39.493,0.72H0.236"/>
					</g>
					<g id="Group-77" transform="translate(226.880000, 171.350640)">
						<path id="Fill-75" fill="#FFFFFF" d="M67.253,0.72H0.702"/>
						<path id="Stroke-76" fill="none" stroke="#000000" stroke-width="2" stroke-linecap="round" stroke-linejoin="round" d="
							M67.253,0.72H0.702"/>
					</g>
					<g id="Group-80" transform="translate(100.520000, 171.350640)">
						<path id="Fill-78" fill="#FFFFFF" d="M117.646,0.72H0.595"/>
						<path id="Stroke-79" fill="none" stroke="#000000" stroke-width="2" stroke-linecap="round" stroke-linejoin="round" d="
							M117.646,0.72H0.595"/>
					</g>
					<g id="Group-83" transform="translate(225.800000, 187.550640)">
						<path id="Fill-81" fill="#FFFFFF" d="M14.551,0H0.125"/>
						<path id="Stroke-82" fill="none" stroke="#000000" stroke-width="2" stroke-linecap="round" stroke-linejoin="round" d="
							M14.551,0H0.125"/>
					</g>
					<g id="Group-86" transform="translate(95.120000, 187.550640)">
						<path id="Fill-84" fill="#FFFFFF" d="M68.38,0H1.033"/>
						<path id="Stroke-85" fill="none" stroke="#000000" stroke-width="2" stroke-linecap="round" stroke-linejoin="round" d="
							M68.38,0H1.033"/>
					</g>
					<g id="Group-89" transform="translate(170.720000, 187.550640)">
						<path id="Fill-87" fill="#FFFFFF" d="M46.335,0H0.597"/>
						<path id="Stroke-88" fill="none" stroke="#000000" stroke-width="2" stroke-linecap="round" stroke-linejoin="round" d="
							M46.335,0H0.597"/>
					</g>
					<g id="Group-92" transform="translate(53.000000, 187.550640)">
						<path id="Fill-90" fill="#FFFFFF" d="M33.871,0H0.968"/>
						<path id="Stroke-91" fill="none" stroke="#000000" stroke-width="2" stroke-linecap="round" stroke-linejoin="round" d="
							M33.871,0H0.968"/>
					</g>
					<g id="Group-95" transform="translate(0.080000, 155.150640)">
						<path id="Fill-93" fill="#FFC83D" d="M0,0.291h317.52"/>
						<path id="Stroke-94" fill="none" stroke="#000000" stroke-width="2" stroke-linecap="round" stroke-linejoin="round" d="
							M0,0.291h317.52"/>
					</g>
					<path id="Stroke-96" fill="none" stroke="#D1D1D1" stroke-width="2" stroke-linecap="round" stroke-linejoin="round" d="
						M34.608,17.57c0,6.671,5.408,12.079,12.079,12.079c6.671,0,12.079-5.408,12.079-12.079c0-6.671-5.407-12.079-12.079-12.079
						C40.016,5.491,34.608,10.899,34.608,17.57L34.608,17.57z"/>
					<g id="Group-99" transform="translate(45.440000, 0.710640)">
						<path id="Fill-97" fill="#FFFFFF" d="M0.279,0.544v4.32"/>
						<path id="Stroke-98" fill="none" stroke="#D1D1D1" stroke-width="2" stroke-linecap="round" stroke-linejoin="round" d="
							M0.279,0.544v4.32"/>
					</g>
					<g id="Group-102" transform="translate(45.440000, 29.870640)">
						<path id="Fill-100" fill="#FFFFFF" d="M0.279,0.544v4.32"/>
						<path id="Stroke-101" fill="none" stroke="#D1D1D1" stroke-width="2" stroke-linecap="round" stroke-linejoin="round" d="
							M0.279,0.544v4.32"/>
					</g>
					<g id="Group-105" transform="translate(55.160000, 5.030640)">
						<path id="Fill-103" fill="#FFFFFF" d="M3.436,0.946L0.391,3.991"/>
						<path id="Stroke-104" fill="none" stroke="#D1D1D1" stroke-width="2" stroke-linecap="round" stroke-linejoin="round" d="
							M3.436,0.946L0.391,3.991"/>
					</g>
					<g id="Group-108" transform="translate(58.400000, 19.070640)">
						<path id="Fill-106" fill="#FFFFFF" d="M5.138,0.004h-4.32"/>
						<path id="Stroke-107" fill="none" stroke="#D1D1D1" stroke-width="2" stroke-linecap="round" stroke-linejoin="round" d="
							M5.138,0.004h-4.32"/>
					</g>
					<g id="Group-111" transform="translate(55.160000, 25.550640)">
						<path id="Fill-109" fill="#FFFFFF" d="M3.596,3.501L0.552,0.456"/>
						<path id="Stroke-110" fill="none" stroke="#D1D1D1" stroke-width="2" stroke-linecap="round" stroke-linejoin="round" d="
							M3.596,3.501L0.552,0.456"/>
					</g>
					<g id="Group-114" transform="translate(33.560000, 25.550640)">
						<path id="Fill-112" fill="#FFFFFF" d="M1.042,3.661l3.044-3.044"/>
						<path id="Stroke-113" fill="none" stroke="#D1D1D1" stroke-width="2" stroke-linecap="round" stroke-linejoin="round" d="
							M1.042,3.661l3.044-3.044"/>
					</g>
					<g id="Group-117" transform="translate(29.240000, 19.070640)">
						<path id="Fill-115" fill="#FFFFFF" d="M0.818,0.004h4.32"/>
						<path id="Stroke-116" fill="none" stroke="#D1D1D1" stroke-width="2" stroke-linecap="round" stroke-linejoin="round" d="
							M0.818,0.004h4.32"/>
					</g>
					<g id="Group-120" transform="translate(33.560000, 6.110640)">
						<path id="Fill-118" fill="#FFFFFF" d="M0.882,0.027l3.044,3.044"/>
						<path id="Stroke-119" fill="none" stroke="#D1D1D1" stroke-width="2" stroke-linecap="round" stroke-linejoin="round" d="
							M0.882,0.027l3.044,3.044"/>
					</g>
					<path id="Fill-121" fill="#FFFFFF" d="M308.196,137.723c0,0-1.94,15.346-19.194,16.671
						c-17.255,1.324-28.932,0.221-36.767-3.092c-7.837-3.312-12.407-12.365-12.191-18.105c0,0,10.568,11.808,35.802,10.872
						S308.196,137.723,308.196,137.723"/>
					<path id="Fill-151" fill="#E2E2E2" d="M258.12,143.475c-9.638-2.076-15.075-5.473-17.926-7.938
						c0.071,0.713,0.202,1.457,0.377,2.215c4.381,5.305,14.451,12.86,36.64,13.86c12.315,0.556,20.463-1.625,25.869-4.659
						c1.964-3.345,2.459-6.283,2.459-6.283s-7.094,5.096-31.42,4.936C267.832,145.564,262.532,144.711,258.12,143.475"/>
					<path id="Stroke-122" fill="none" stroke="#000000" stroke-width="2" stroke-linecap="round" stroke-linejoin="round" d="
						M308.196,137.723c0,0-1.94,15.346-19.194,16.671c-17.255,1.324-28.932,0.221-36.767-3.092
						c-7.837-3.312-12.407-12.365-12.191-18.105c0,0,10.568,11.808,35.802,10.872S308.196,137.723,308.196,137.723L308.196,137.723z
						"/>
					<path id="Fill-123" fill="#FFC83D" d="M245.24,99.475c0,0,3.364-0.393,3.989-4.477c0,0,2.142,4.563,5.232,3.018
						c0,0-0.474,5.668,3.942,5.668c0,0-0.716,5.776,2.854,6.034c0,0-1.664,6.035,1.868,7.212c0,0-1.215,5.227,1.95,8.207
						l-19.836,3.57V99.475z"/>
					<path id="Stroke-124" fill="none" stroke="#000000" stroke-width="2" stroke-linecap="round" stroke-linejoin="round" d="
						M245.24,99.475c0,0,3.364-0.393,3.989-4.477c0,0,2.142,4.563,5.232,3.018c0,0-0.474,5.668,3.942,5.668
						c0,0-0.716,5.776,2.854,6.034c0,0-1.664,6.035,1.868,7.212c0,0-1.215,5.227,1.95,8.207l-19.836,3.57V99.475L245.24,99.475z"/>
					<path id="Fill-125" fill="#FFC83D" d="M271.16,92.79c0,0,5.16-2.208,6.613-6.571c0,0,4.329,6.074,8.635,3.922
						c0,0,0.173,7.396,6.185,6.623c0,0-2.703,6.863,4.834,7.803c0,0-2.817,7.285,2.924,8.979c0,0-5.414,5.343-1.005,9.496
						l-28.186,7.432v-14.426V92.79z"/>
					<path id="Stroke-126" fill="none" stroke="#000000" stroke-width="2" stroke-linecap="round" stroke-linejoin="round" d="
						M271.16,92.79c0,0,5.16-2.208,6.613-6.571c0,0,4.329,6.074,8.635,3.922c0,0,0.173,7.396,6.185,6.623
						c0,0-2.703,6.863,4.834,7.803c0,0-2.817,7.285,2.924,8.979c0,0-5.414,5.343-1.005,9.496l-28.186,7.432v-14.426V92.79
						L271.16,92.79z"/>
					<g id="Group-129" transform="translate(245.240000, 94.670640)">
						<path id="Fill-127" fill="#FFC83D" d="M0,0.291v39.96"/>
						<path id="Stroke-128" fill="none" stroke="#000000" stroke-width="2" stroke-linecap="round" stroke-linejoin="round" d="
							M0,0.291v39.96"/>
					</g>
					<g id="Group-132" transform="translate(244.160000, 97.910640)">
						<path id="Fill-130" fill="#FFC83D" d="M9.941,0.105L0.718,9.366"/>
						<path id="Stroke-131" fill="none" stroke="#000000" stroke-width="2" stroke-linecap="round" stroke-linejoin="round" d="
							M9.941,0.105L0.718,9.366"/>
					</g>
					<g id="Group-135" transform="translate(245.240000, 103.310640)">
						<path id="Fill-133" fill="#FFC83D" d="M12.984,0.372L0.3,9.154"/>
						<path id="Stroke-134" fill="none" stroke="#000000" stroke-width="2" stroke-linecap="round" stroke-linejoin="round" d="
							M12.984,0.372L0.3,9.154"/>
					</g>
					<g id="Group-138" transform="translate(245.240000, 108.710640)">
						<path id="Fill-136" fill="#FFC83D" d="M15.928,1.007L0.3,9.054"/>
						<path id="Stroke-137" fill="none" stroke="#000000" stroke-width="2" stroke-linecap="round" stroke-linejoin="round" d="
							M15.928,1.007L0.3,9.054"/>
					</g>
					<g id="Group-141" transform="translate(245.240000, 116.270640)">
						<path id="Fill-139" fill="#FFC83D" d="M0.3,8.094L17.842,0.66"/>
						<path id="Stroke-140" fill="none" stroke="#000000" stroke-width="2" stroke-linecap="round" stroke-linejoin="round" d="
							M0.3,8.094L17.842,0.66"/>
					</g>
					<path id="Stroke-142" fill="none" stroke="#000000" stroke-width="2" stroke-linecap="round" stroke-linejoin="round" d="
						M300.323,113.545l-28.949,9.629"/>
					<path id="Stroke-143" fill="none" stroke="#000000" stroke-width="2" stroke-linecap="round" stroke-linejoin="round" d="
						M297.373,104.565l-25.999,11.764"/>
					<path id="Stroke-144" fill="none" stroke="#000000" stroke-width="2" stroke-linecap="round" stroke-linejoin="round" d="
						M271.374,110.551l21.11-13.787"/>
					<path id="Stroke-145" fill="none" stroke="#000000" stroke-width="2" stroke-linecap="round" stroke-linejoin="round" d="
						M286.191,90.14l-14.817,11.653"/>
					<path id="Fill-146" fill="#FFC83D" d="M310.04,109.033c0,0,2.605-1.944,4.056-3.631c0,0,2.551,3.531,4.515,2.549
						c0,0-0.659,6.453,3.01,6.453c0,0-2.547,3.939,0.189,7.381l-11.77,4.271v-7.459V109.033z"/>
					<path id="Stroke-147" fill="none" stroke="#000000" stroke-width="2" stroke-linecap="round" stroke-linejoin="round" d="
						M310.04,109.033c0,0,2.605-1.944,4.056-3.631c0,0,2.551,3.531,4.515,2.549c0,0-0.659,6.453,3.01,6.453
						c0,0-2.547,3.939,0.189,7.381l-11.77,4.271v-7.459V109.033L310.04,109.033z"/>
					<path id="Stroke-148" fill="none" stroke="#000000" stroke-width="2" stroke-linecap="round" stroke-linejoin="round" d="
						M310.235,120.984l10.843-6.166"/>
					<path id="Stroke-149" fill="none" stroke="#000000" stroke-width="2" stroke-linecap="round" stroke-linejoin="round" d="
						M310.235,115.504l8.152-6.58"/>
					<path id="Stroke-150" fill="none" stroke="#000000" stroke-width="2" stroke-linecap="round" stroke-linejoin="round" d="
						M310.04,103.602v31.32"/>
					<path id="Fill-152" fill="#FFFFFF" d="M317.325,127.676c0,0-9.716,13.469-40.628,13.911
						c-30.913,0.441-38.42-11.113-38.42-11.113s6.145,17.296,42.135,17.296S317.325,127.676,317.325,127.676"/>
					<path id="Fill-154" fill="#E2E2E2" d="M242.933,135.664c4.885,4.757,9.229,10.354,31.833,9.484
						c28.036-1.08,39.708-10.045,42.656-15.984c-3.863,3.514-15.973,12.072-42.576,12.423
						C259.344,141.791,249.28,138.264,242.933,135.664"/>
					<path id="Stroke-153" fill="none" stroke="#000000" stroke-width="2" stroke-linecap="round" stroke-linejoin="round" d="
						M317.325,127.676c0,0-9.716,13.469-40.628,13.911c-30.913,0.441-38.42-11.113-38.42-11.113s6.145,17.296,42.135,17.296
						S317.325,127.676,317.325,127.676L317.325,127.676z"/>
					<path id="Stroke-155" fill="none" stroke="#000000" stroke-width="2" stroke-linecap="round" stroke-linejoin="round" d="
						M271.16,141.401v-56.16"/>
					<path id="Fill-156" fill="#FFC83D" d="M49.529,131.102l-41.31,3.356c0,0,12.027-5.313,18.997-6.162
						c6.97-0.851,23.333-1.147,24.183-0.978C52.25,127.489,49.529,131.102,49.529,131.102"/>
					<path id="Stroke-157" fill="none" stroke="#000000" stroke-width="2" stroke-linecap="round" stroke-linejoin="round" d="
						M49.529,131.102l-41.31,3.356c0,0,12.027-5.313,18.997-6.162c6.97-0.851,23.333-1.147,24.183-0.978
						C52.25,127.489,49.529,131.102,49.529,131.102L49.529,131.102z"/>
					<g id="Group-160" transform="translate(31.400000, 133.550640)">
						<path id="Fill-158" fill="#FFC83D" d="M0,0.291v10.8"/>
						<path id="Stroke-159" fill="none" stroke="#000000" stroke-width="2" stroke-linecap="round" stroke-linejoin="round" d="
							M0,0.291v10.8"/>
					</g>
					<g id="Group-163" transform="translate(47.600000, 132.470640)">
						<path id="Fill-161" fill="#FFC83D" d="M0,0.291v11.88"/>
						<path id="Stroke-162" fill="none" stroke="#000000" stroke-width="2" stroke-linecap="round" stroke-linejoin="round" d="
							M0,0.291v11.88"/>
					</g>
					<polygon id="Fill-164" fill="#FFFFFF" points="14.759,134.459 13.291,142.398 14.323,150.041 27.079,150.041 27.079,144.641 
						49.76,144.641 49.76,155.441 8.72,155.441 8.72,144.148 12.784,134.799 					"/>
					<polygon id="Fill-184" fill="#E2E2E2" points="16.482,152.651 30.568,152.651 30.568,147.521 49.4,147.521 49.4,144.281 
						26.72,144.281 26.72,149.682 16.184,149.682 					"/>
					<polygon id="Fill-169" fill="#E2E2E2" points="11.96,145.408 13.652,135.879 14.288,135.78 14.751,133.379 12.78,133.719 
						8.72,143.068 8.72,154.001 11.96,154.182 					"/>
					
						<polygon id="Stroke-165" fill="none" stroke="#000000" stroke-width="2" stroke-linecap="round" stroke-linejoin="round" points="
						14.759,134.459 13.291,142.398 14.323,150.041 27.079,150.041 27.079,144.641 49.76,144.641 49.76,155.441 8.72,155.441 
						8.72,144.148 12.784,134.799 					"/>
					<path id="Fill-166" fill="#FFFFFF" d="M45.684,155.313c0,2.57-2.083,4.654-4.655,4.654c-2.57,0-4.654-2.084-4.654-4.654
						s2.083-4.654,4.654-4.654C43.6,150.658,45.684,152.742,45.684,155.313"/>
					<path id="Stroke-167" fill="none" stroke="#000000" stroke-width="2" d="M45.684,155.313c0,2.57-2.083,4.654-4.655,4.654
						c-2.57,0-4.654-2.084-4.654-4.654s2.083-4.654,4.654-4.654C43.6,150.658,45.684,152.742,45.684,155.313L45.684,155.313z"/>
					<path id="Fill-168" d="M42.408,155.313c0,0.762-0.618,1.378-1.379,1.378c-0.762,0-1.378-0.616-1.378-1.378
						s0.617-1.379,1.378-1.379C41.79,153.934,42.408,154.551,42.408,155.313"/>
					<path id="Fill-170" fill="#FFFFFF" d="M12.024,155.313c0,2.57-2.084,4.654-4.655,4.654s-4.654-2.084-4.654-4.654
						s2.083-4.654,4.654-4.654S12.024,152.742,12.024,155.313"/>
					<path id="Stroke-171" fill="none" stroke="#000000" stroke-width="2" d="M12.024,155.313c0,2.57-2.084,4.654-4.655,4.654
						s-4.654-2.084-4.654-4.654s2.083-4.654,4.654-4.654S12.024,152.742,12.024,155.313L12.024,155.313z"/>
					<path id="Fill-172" d="M8.748,155.313c0,0.762-0.618,1.378-1.379,1.378c-0.762,0-1.378-0.616-1.378-1.378
						s0.617-1.379,1.378-1.379C8.13,153.934,8.748,154.551,8.748,155.313"/>
					<g id="Group-175" transform="translate(48.680000, 149.750640)">
						<path id="Fill-173" fill="#FFC83D" d="M5.203,0.128H1.02"/>
						<path id="Stroke-174" fill="none" stroke="#000000" stroke-width="2" stroke-linecap="round" stroke-linejoin="round" d="
							M5.203,0.128H1.02"/>
					</g>
					<g id="Group-178" transform="translate(31.400000, 140.030640)">
						<path id="Fill-176" fill="#FFC83D" d="M0,0.291h16.2"/>
						<path id="Stroke-177" fill="none" stroke="#000000" stroke-width="2" stroke-linecap="round" stroke-linejoin="round" d="
							M0,0.291h16.2"/>
					</g>
					<path id="Fill-179" fill="#FFC83D" d="M9.41,142.332c0,0-3.145,0.092-3.629,0.989c-1.385,2.565,0.548,4.561,0.548,4.561h3.157
						L9.41,142.332z"/>
					<path id="Stroke-180" fill="none" stroke="#000000" stroke-width="2" stroke-linecap="round" stroke-linejoin="round" d="
						M9.41,142.332c0,0-3.145,0.092-3.629,0.989c-1.385,2.565,0.548,4.561,0.548,4.561h3.157L9.41,142.332L9.41,142.332z"/>
					<g id="Group-183" transform="translate(13.040000, 141.110640)">
						<path id="Fill-181" fill="#FFC83D" d="M0.882,3.885l4.523-3.314"/>
						<path id="Stroke-182" fill="none" stroke="#000000" stroke-width="2" stroke-linecap="round" stroke-linejoin="round" d="
							M0.882,3.885l4.523-3.314"/>
					</g>
					<path id="Fill-185" fill="#FFFFFF" d="M62.258,115.947c0,0-3.061-2.38-8.672-1.189c0,0,7.312,4.932,6.121,14.965
						c-1.19,10.033-5.934,21.219,7.484,24.318c12.791,2.951,16.268-7.377,17.004-11.395c0.736-4.025,0-13.094-0.85-19.727
						c-0.851-6.632-0.681-13.095-0.681-13.095L62.258,115.947z"/>
					<path id="Fill-187" fill="#E2E2E2" d="M83.344,122.92c-0.85-6.632-0.68-13.094-0.68-13.094l-3.009,0.902
						c0.103,1.479,0.246,3.049,0.449,4.632c0.85,6.632,1.587,15.702,0.85,19.726c-0.735,4.02-4.213,14.348-17.002,11.395
						c-2.673-0.618-4.616-1.56-6.02-2.746c0.156,4.783,2.178,8.671,9.26,10.306c12.79,2.953,16.267-7.375,17.002-11.394
						C84.932,138.622,84.194,129.553,83.344,122.92"/>
					<path id="Stroke-186" fill="none" stroke="#000000" stroke-width="2" stroke-linecap="round" stroke-linejoin="round" d="
						M62.258,115.947c0,0-3.061-2.38-8.672-1.189c0,0,7.312,4.932,6.121,14.965c-1.19,10.033-5.934,21.219,7.484,24.318
						c12.791,2.951,16.268-7.377,17.004-11.395c0.736-4.025,0-13.094-0.85-19.727c-0.851-6.632-0.681-13.095-0.681-13.095
						L62.258,115.947L62.258,115.947z"/>
					<path id="Fill-188" fill="#FFFFFF" d="M82.494,91.043c0,0,3.912,1.758,3.912,14.718h-3.402l4.592,9.72h-4.592
						c0,0,2.205,7.886,5.775,10.606L75.68,122.24v-6.633c0,0-6.48-1.02-7.56,1.871v4.932l-5.313,2.211
						c0,0-2.996-13.095,1.085-17.516c2.766-2.998,1.081-5.684,0.478-9.396c-0.286-1.766-3.937-4.413-0.295-7.477
						C71.24,84.209,78.582,87.371,82.494,91.043"/>
					<path id="Fill-211" fill="#E2E2E2" d="M83.004,115.481h4.591l-4.591-9.72h3.401c0-12.96-3.911-14.719-3.911-14.719
						c-1.056-0.99-5.688-2.635-7.175-3.372c4.455,3.24,4.995,14.129,4.995,14.129l-0.73,10.875l-0.662,2.457
						c0,0,0.118,2.352,2.127,5.818l-5.371-1.539v2.828l13.101,3.848C85.209,123.367,83.004,115.481,83.004,115.481"/>
					<path id="Fill-210" fill="#E2E2E2" d="M61.742,118.356c0.264,3.455,1.066,6.265,1.066,6.265l5.313-2.211v-4.932
						c0-0.881,2.428-4.068,4.364-2.033c-3.264-3.563,0.954-22.463,0.954-22.463s-2.033,15.82-11.033,15.856L61.742,118.356z"/>
					<path id="Stroke-189" fill="none" stroke="#000000" stroke-width="2" stroke-linecap="round" stroke-linejoin="round" d="
						M82.494,91.043c0,0,3.912,1.758,3.912,14.718h-3.402l4.592,9.72h-4.592c0,0,2.205,7.886,5.775,10.606L75.68,122.24v-6.633
						c0,0-6.48-1.02-7.56,1.871v4.932l-5.313,2.211c0,0-2.996-13.095,1.085-17.516c2.766-2.998,1.081-5.684,0.478-9.396
						c-0.286-1.766-3.937-4.413-0.295-7.477C71.24,84.209,78.582,87.371,82.494,91.043L82.494,91.043z"/>
					<g id="Group-192" transform="translate(78.920000, 98.990640)">
						<path id="Fill-190" fill="#FFFFFF" d="M0.121,0.166c0,0,2.262,9.846-0.118,16.325H4.32"/>
						<path id="Stroke-191" fill="none" stroke="#000000" stroke-width="2" stroke-linecap="round" stroke-linejoin="round" d="
							M0.121,0.166c0,0,2.262,9.846-0.118,16.325H4.32"/>
					</g>
					<g id="Group-195" transform="translate(75.680000, 108.710640)">
						<path id="Fill-193" fill="#FFC83D" d="M0,0.291v6.479"/>
						<path id="Stroke-194" fill="none" stroke="#000000" stroke-width="2" stroke-linecap="round" stroke-linejoin="round" d="
							M0,0.291v6.479"/>
					</g>
					<g id="Group-198" transform="translate(65.960000, 103.310640)">
						<path id="Fill-196" fill="#FFC83D" d="M4.347,0.393c0,0-4.58,9.863-3.561,13.774"/>
						<path id="Stroke-197" fill="none" stroke="#000000" stroke-width="2" stroke-linecap="round" stroke-linejoin="round" d="
							M4.347,0.393c0,0-4.58,9.863-3.561,13.774"/>
					</g>
					<path id="Fill-199" fill="#FFFFFF" d="M67.529,90.95c0,0-5.952-2.042-7.142,2.551l-5.952,2.04c0,0,0.51,2.891,3.401,4.762
						c0,0,5.611-2.381,5.952,0c0,0,1.361,4.081-3.571,3.912c-4.932-0.171,0.425,4.327,0.425,4.327s8.031,0.415,10.345-6.368
						c2.494-7.313,0.681-10.543,0.681-10.543S69.57,86.669,67.529,90.95"/>
					<path id="Stroke-200" fill="none" stroke="#000000" stroke-width="2" stroke-linecap="round" stroke-linejoin="round" d="
						M67.529,90.95c0,0-5.952-2.042-7.142,2.551l-5.952,2.04c0,0,0.51,2.891,3.401,4.762c0,0,5.611-2.381,5.952,0
						c0,0,1.361,4.081-3.571,3.912c-4.932-0.171,0.425,4.327,0.425,4.327s8.031,0.415,10.345-6.368
						c2.494-7.313,0.681-10.543,0.681-10.543S69.57,86.669,67.529,90.95L67.529,90.95z"/>
					<g id="Group-203" transform="translate(64.880000, 94.670640)">
						<path id="Fill-201" fill="#FFC83D" d="M0,0.291h1.08"/>
						<path id="Stroke-202" fill="none" stroke="#000000" stroke-width="2" stroke-linecap="round" stroke-linejoin="round" d="
							M0,0.291h1.08"/>
					</g>
					<g id="Group-206" transform="translate(63.800000, 129.230640)">
						<path id="Fill-204" fill="#FFFFFF" d="M0.753,6.943c0,0,1.891-1.02,1.7-4.842c-0.191-3.822,5.114-1.419,3.566,5.84
							c0,0,1.084,0.809,1.731,1.397c2.41,2.201-1.497,7.229-4.11,4.076"/>
						<path id="Stroke-205" fill="none" stroke="#000000" stroke-width="2" stroke-linecap="round" stroke-linejoin="round" d="
							M0.753,6.943c0,0,1.891-1.02,1.7-4.842c-0.191-3.822,5.114-1.419,3.566,5.84c0,0,1.084,0.809,1.731,1.397
							c2.41,2.201-1.497,7.229-4.11,4.076"/>
					</g>
					<g id="Group-209" transform="translate(29.240000, 103.310640)">
						<path id="Fill-207" fill="#FFC83D" d="M1.047,11.617c0,0,6.461-13.094,21.427-10.883c0,0-12.584,2.89-14.795,11.732"/>
						<path id="Stroke-208" fill="none" stroke="#000000" stroke-width="2" stroke-linecap="round" stroke-linejoin="round" d="
							M1.047,11.617c0,0,6.461-13.094,21.427-10.883c0,0-12.584,2.89-14.795,11.732"/>
					</g>
					<g id="Group-212" transform="translate(74.640000, 87.110640)">
					</g>
				</g>
			</g>
		</g>
	</g>
</g>
<g id="Page-1_2_">
	<g id="_x32_07_x5F_M2U_x5F_Planner_x5F_Travel-Copy" transform="translate(-823.000000, -337.000000)">
		
			<g id="plane" transform="translate(853.110230, 355.168677) rotate(26.000000) translate(-853.110230, -355.168677) translate(823.110230, 339.668677)">
			<path id="Fill-1" fill="#373737" d="M205.326,60.694c0.015,0.031,0.033,0.058,0.047,0.088l0.339,0.727
				c0.586,1.258-0.319,2.224-1.284,2.674l-37.338,17.853l-4.68,2.182c-0.836,0.389-1.812,0.285-2.547-0.273l-7.567-5.753
				l1.966-0.915l5.063,2.732c0.356,0.191,0.784,0.189,1.14-0.006l11.127-6.134l1.649,1.384c0.211,0.16,0.465,0.243,0.72,0.242
				c0.171,0,0.343-0.036,0.503-0.111l9.802-4.572c0.408-0.189,0.673-0.593,0.687-1.042c0.013-0.45-0.228-0.869-0.624-1.081
				l-1.776-0.863l13.295-7.329c3.022-1.452,5.643-1.956,7.434-1.439L205.326,60.694z M174.11,72.922l-12.812-9.871l3.965-1.849
				l15.852,8.453L174.11,72.922z M207.868,60.503l-0.337-0.725c-0.639-1.368-1.747-2.366-3.208-2.888
				c-2.436-0.868-5.733-0.357-9.537,1.477c-0.019,0.009-0.038,0.02-0.057,0.029l-14.666,8.086l-14.195-7.657
				c-0.331-0.177-0.727-0.189-1.067-0.029l-6.293,2.935c-0.378,0.176-0.636,0.536-0.681,0.951c-0.045,0.413,0.13,0.821,0.463,1.073
				l11.232,8.539l-9.636,5.313l-5.019-2.706c-0.331-0.178-0.727-0.19-1.067-0.031l-4.292,2.002c-0.378,0.177-0.637,0.538-0.68,0.951
				c-0.044,0.415,0.132,0.822,0.462,1.074l9.136,6.944c0.863,0.656,1.896,0.993,2.937,0.993c0.698,0.001,1.399-0.15,2.056-0.457
				l4.689-2.187l37.337-17.852c1.121-0.523,1.993-1.359,2.457-2.354C208.411,62.88,208.401,61.644,207.868,60.503L207.868,60.503z"
				/>
		</g>
	</g>
</g>
</svg>
