<?xml version="1.0" encoding="utf-8"?>
<!-- Generator: Adobe Illustrator 16.0.2, SVG Export Plug-In . SVG Version: 6.00 Build 0)  -->
<!DOCTYPE svg PUBLIC "-//W3C//DTD SVG 1.1//EN" "http://www.w3.org/Graphics/SVG/1.1/DTD/svg11.dtd">
<svg version="1.1" id="Layer_1" xmlns="http://www.w3.org/2000/svg" xmlns:xlink="http://www.w3.org/1999/xlink" x="0px" y="0px"
	 width="730.904px" height="177.063px" viewBox="0.8 0.21 730.904 177.063" enable-background="new 0.8 0.21 730.904 177.063"
	 xml:space="preserve">
<title>E0492825-B249-4825-A50D-5E13E6EDA6C2</title>
<desc>Created with sketchtool.</desc>
<g id="Page-1_1_">
	<g id="_x37_06_x5F_M2U_x5F_Planner_x5F_Travel-Copy-27" transform="translate(-704.000000, -237.000000)">
		<g id="Group-15" transform="translate(706.000000, 237.000000)">
			<g id="Group-32">
				<path id="Line" fill="none" stroke="#1C1918" stroke-width="2.4" stroke-linecap="round" stroke-linejoin="round" d="M156,141.2
					h572.504"/>
				<path id="Line-Copy" fill="none" stroke="#1C1918" stroke-width="2.4" stroke-linecap="round" stroke-linejoin="round" d="
					M23,141.2h124"/>
				<path id="Line-Copy_1_" fill="none" stroke="#1C1918" stroke-width="2.4" stroke-linecap="round" stroke-linejoin="round" d="
					M0,141.2h13"/>
				<g id="Page-1" transform="translate(194.265734, 0.000000)">
					<path id="Fill-1" fill="#FFFFFF" d="M7.602,150.985h309.277H7.602z"/>
					<path id="Stroke-2" fill="none" stroke="#E2E2E2" stroke-width="12" stroke-linecap="round" stroke-linejoin="round" d="
						M7.601,150.985h309.276"/>
					<path id="Fill-4" fill="#FFFFFF" d="M24.502,160.437h58.912H24.502z"/>
					<path id="Stroke-5" fill="none" stroke="#000000" stroke-width="2" stroke-linecap="round" stroke-linejoin="round" d="
						M83.414,160.437H24.502"/>
					<path id="Fill-6" fill="#FFFFFF" d="M122.455,160.437h117.493H122.455z"/>
					<path id="Stroke-7" fill="none" stroke="#000000" stroke-width="2" stroke-linecap="round" stroke-linejoin="round" d="
						M239.947,160.437H122.456"/>
					<path id="Fill-8" fill="#FFFFFF" d="M92.975,160.437h19.905H92.975z"/>
					<path id="Stroke-9" fill="none" stroke="#000000" stroke-width="2" stroke-linecap="round" stroke-linejoin="round" d="
						M112.88,160.437H92.973"/>
					<path id="Fill-10" fill="#FFFFFF" d="M248.033,160.437h50.107H248.033z"/>
					<path id="Stroke-11" fill="none" stroke="#000000" stroke-width="2" stroke-linecap="round" stroke-linejoin="round" d="
						M298.141,160.437h-50.107"/>
					<path id="Fill-12" fill="#FFFFFF" d="M84.834,176.274h96.552H84.834z"/>
					<path id="Stroke-13" fill="none" stroke="#000000" stroke-width="2" stroke-linecap="round" stroke-linejoin="round" d="
						M181.386,176.273H84.834"/>
					<path id="Fill-15" fill="#FFFFFF" d="M190.566,176.274h22.966H190.566z"/>
					<path id="Stroke-16" fill="none" stroke="#000000" stroke-width="2" stroke-linecap="round" stroke-linejoin="round" d="
						M213.531,176.273h-22.965"/>
					<path id="Fill-18" fill="#FFFFFF" d="M51.739,176.274h23.314H51.739z"/>
					<g id="Group-173" transform="translate(0.000000, 0.483963)">
						<path id="Stroke-19" fill="none" stroke="#000000" stroke-width="2" stroke-linecap="round" stroke-linejoin="round" d="
							M75.054,175.789H51.739H75.054z"/>
						<path id="Stroke-21" fill="none" stroke="#D1D1D1" stroke-width="2" stroke-linecap="round" stroke-linejoin="round" d="
							M154.033,77.613c0,31.437,24.947,56.922,55.721,56.922c30.774,0,55.722-25.485,55.722-56.922
							c0-31.437-24.947-56.922-55.722-56.922C178.98,20.691,154.033,46.177,154.033,77.613L154.033,77.613z"/>
						<g id="Group-26" transform="translate(208.938272, 0.104938)">
							<path id="Fill-23" fill="#FFFFFF" d="M0.451,0.621v20.29"/>
							<path id="Stroke-25" fill="none" stroke="#D1D1D1" stroke-width="2" stroke-linecap="round" stroke-linejoin="round" d="
								M0.451,0.621v20.29"/>
						</g>
						<g id="Group-30" transform="translate(247.611111, 22.203704)">
							<path id="Fill-27" fill="#FFFFFF" d="M15.107,0.779L1.062,15.125"/>
							<path id="Stroke-29" fill="none" stroke="#D1D1D1" stroke-width="2" stroke-linecap="round" stroke-linejoin="round" d="
								M15.107,0.779L1.062,15.125"/>
						</g>
						<g id="Group-34" transform="translate(265.290123, 76.345679)">
							<path id="Fill-31" fill="#FFFFFF" d="M19.888,0.734H0.026"/>
							<path id="Stroke-33" fill="none" stroke="#D1D1D1" stroke-width="2" stroke-linecap="round" stroke-linejoin="round" d="
								M19.888,0.734H0.026"/>
						</g>
						<g id="Group-38" transform="translate(248.716049, 117.228395)">
							<path id="Fill-35" fill="#FFFFFF" d="M14.741,14.49L0.696,0.143"/>
							<path id="Stroke-37" fill="none" stroke="#D1D1D1" stroke-width="2" stroke-linecap="round" stroke-linejoin="round" d="
								M14.741,14.49L0.696,0.143"/>
						</g>
						<g id="Group-42" transform="translate(157.006173, 117.228395)">
							<path id="Fill-39" fill="#FFFFFF" d="M0.008,15.245L14.053,0.898"/>
							<path id="Stroke-41" fill="none" stroke="#D1D1D1" stroke-width="2" stroke-linecap="round" stroke-linejoin="round" d="
								M0.008,15.245L14.053,0.898"/>
						</g>
						<g id="Group-46" transform="translate(133.802469, 77.450617)">
							<path id="Fill-43" fill="#FFFFFF" d="M0.844,0.697h19.862"/>
							<path id="Stroke-45" fill="none" stroke="#D1D1D1" stroke-width="2" stroke-linecap="round" stroke-linejoin="round" d="
								M0.844,0.697h19.862"/>
						</g>
						<g id="Group-50" transform="translate(155.901235, 23.308642)">
							<path id="Fill-47" fill="#FFFFFF" d="M0.374,0.429l14.045,14.347"/>
							<path id="Stroke-49" fill="none" stroke="#D1D1D1" stroke-width="2" stroke-linecap="round" stroke-linejoin="round" d="
								M0.374,0.429l14.045,14.347"/>
						</g>
						<g id="Group-54" transform="translate(74.135802, 15.574074)">
							<path id="Fill-51" fill="#FFFFFF" d="M63.099,112.74h23.3l-4.97-74.318l35.917-2.907h4.97l7.623-8.269l-53.746-3.072
								c0,0,1.283-23.231-10.789-23.231h-0.202c-12.071,0-10.788,23.231-10.788,23.231L0.667,27.245l7.623,8.269h4.97l35.916,2.907
								l-4.971,74.318h23.301"/>
							<path id="Stroke-53" fill="none" stroke="#000000" stroke-width="2" stroke-linecap="round" stroke-linejoin="round" d="
								M63.099,112.74h23.3l-4.97-74.318l35.917-2.907h4.97l7.623-8.269l-53.746-3.072c0,0,1.283-23.231-10.789-23.231h-0.202
								c-12.071,0-10.788,23.231-10.788,23.231L0.667,27.245l7.623,8.269h4.97l35.916,2.907l-4.971,74.318h23.301"/>
						</g>
						<path id="Fill-55" fill="#FFC83D" d="M148.833,31.136c0.594,6.633-4.345,10.504-9.378,10.504s-10.451-3.777-9.444-10.361
							c1.396-9.13,4.356-14.163,9.39-14.163S148.063,22.533,148.833,31.136"/>
						<path id="Fill-57" fill="#E2E2E2" d="M132.216,123.467c-11.353-0.908-7.699-70.349-7.699-70.349s-8.184-2.854-21.857-6.307
							c-6.354-1.604-18.11-3.323-18.11-3.323l-7.398,0.337l5.885,6.163h4.835l36.646,3.13l-5.012,73.802l39.829,0.275l-0.047-1.795
							C159.287,125.401,152.934,125.124,132.216,123.467"/>
						<path id="Fill-59" fill="#E2E2E2" d="M187.463,47.779c-8.225,1.58-32.59,5.152-32.59,5.152l30.163-2.528l10.809-0.506
							l5.614-6.077C201.459,43.82,201.366,45.108,187.463,47.779"/>
						<g id="Group-64" transform="translate(103.969136, 127.172840)">
							<polyline id="Fill-61" fill="#FFFFFF" points="69.892,14.13 65.149,1.029 33.265,1.029 37.673,1.029 5.79,1.029 1.046,14.13 
															"/>
							
								<polyline id="Stroke-63" fill="none" stroke="#000000" stroke-width="2" stroke-linecap="round" stroke-linejoin="round" points="
								69.892,14.13 65.149,1.029 33.265,1.029 37.673,1.029 5.79,1.029 1.046,14.13 							"/>
						</g>
						<path id="Fill-65" fill="#E2E2E2" d="M106.673,139.921l2.755-7.478c0,0,24.999,3.178,63.118,4.282
							c2.313,0.067,3.314,3.195,3.314,3.195H106.673z"/>
						<path id="Stroke-67" fill="none" stroke="#000000" stroke-width="2" stroke-linecap="round" stroke-linejoin="round" d="
							M150.032,31.791c0,0-1.219,9.78-10.493,9.78h-0.201c-9.275,0-10.494-9.78-10.494-9.78"/>
						<path id="Stroke-69" fill="none" stroke="#000000" stroke-width="2" stroke-linecap="round" stroke-linejoin="round" d="
							M200.116,141.522H80.506"/>
						<path id="Stroke-71" fill="none" stroke="#000000" stroke-width="2" stroke-linecap="round" stroke-linejoin="round" d="
							M132.423,127.147v-16.133"/>
						<path id="Stroke-73" fill="none" stroke="#000000" stroke-width="2" stroke-linecap="round" stroke-linejoin="round" d="
							M139.539,127.147v-12.406"/>
						<path id="Stroke-75" fill="none" stroke="#000000" stroke-width="2" stroke-linecap="round" stroke-linejoin="round" d="
							M146.655,127.147v-9.018"/>
						<path id="Fill-77" fill="#E2E2E2" d="M137.188,97.914c0,0-11.464-7.182-14.364-26.104c0,0,14.18,21.639,21.73,22.743
							S137.188,97.914,137.188,97.914"/>
						<path id="Stroke-79" fill="none" stroke="#000000" stroke-width="2" stroke-linecap="round" stroke-linejoin="round" d="
							M122.813,69.913c0,0,6.062,16.965,23.335,25.046"/>
						<path id="Fill-81" fill="#E2E2E2" d="M138.477,110.576c0,0-16.39-7.919-16.39-28.36c0,0,14.917,24.493,22.467,25.598
							C152.104,108.918,138.477,110.576,138.477,110.576"/>
						<path id="Stroke-83" fill="none" stroke="#000000" stroke-width="2" stroke-linecap="round" stroke-linejoin="round" d="
							M122.813,82.436c0,0,6.062,16.965,23.335,25.047"/>
						<g id="Group-88" transform="translate(0.104938, 140.432099)">
							<path id="Fill-85" fill="#FFFFFF" d="M325.825,0.714H0"/>
							<path id="Stroke-87" fill="none" stroke="#000000" stroke-width="2" stroke-linecap="round" stroke-linejoin="round" d="
								M325.825,0.714H0"/>
						</g>
						<path id="Stroke-89" fill="none" stroke="#D1D1D1" stroke-width="2" stroke-linecap="round" stroke-linejoin="round" d="
							M42.671,62.851c0.019-0.469,0.136-1.274,0.669-1.901c0.579-0.682,2.685-2.155,4.079-2.201"/>
						<path id="Stroke-91" fill="none" stroke="#D1D1D1" stroke-width="2" stroke-linecap="round" stroke-linejoin="round" d="
							M36.2,58.749c0.676,0.01,5.021,1.316,5.328,4.236"/>
						<path id="Stroke-93" fill="none" stroke="#D1D1D1" stroke-width="2" stroke-linecap="round" stroke-linejoin="round" d="
							M74.198,76.924c0.019-0.468,0.136-1.274,0.668-1.9c0.579-0.682,2.685-2.156,4.08-2.201"/>
						<path id="Stroke-95" fill="none" stroke="#D1D1D1" stroke-width="2" stroke-linecap="round" stroke-linejoin="round" d="
							M67.727,72.823c0.676,0.01,5.021,1.316,5.328,4.236"/>
						<polygon id="Fill-97" fill="#FFC83D" points="86.965,107.316 96.023,107.316 96.023,96.948 86.965,96.948 						"/>
						
							<polygon id="Stroke-99" fill="none" stroke="#000000" stroke-width="2" stroke-linecap="round" stroke-linejoin="round" points="
							86.965,107.316 96.023,107.316 96.023,96.948 86.965,96.948 						"/>
						<path id="Fill-100" fill="#FFFFFF" d="M99.716,125.381v-9.452c0-2.038-1.653-3.691-3.692-3.691v-4.921h-9.058v4.921
							c-2.039,0-3.691,1.653-3.691,3.691v9.452l8.221-8.221L99.716,125.381z"/>
						<path id="Stroke-101" fill="none" stroke="#000000" stroke-width="2" stroke-linecap="round" stroke-linejoin="round" d="
							M99.716,125.381v-9.452c0-2.038-1.653-3.691-3.692-3.691v-4.921h-9.058v4.921c-2.039,0-3.691,1.653-3.691,3.691v9.452
							l8.221-8.221L99.716,125.381L99.716,125.381z"/>
						<polygon id="Fill-102" fill="#E2E2E2" points="91.495,138.314 83.274,130.093 83.274,144.284 99.716,144.284 99.716,130.093 
													"/>
						
							<polygon id="Stroke-103" fill="none" stroke="#000000" stroke-width="2" stroke-linecap="round" stroke-linejoin="round" points="
							91.495,138.314 83.274,130.093 83.274,144.284 99.716,144.284 99.716,130.093 						"/>
						<polygon id="Fill-104" fill="#FFC83D" points="99.716,130.093 99.716,125.381 91.495,117.161 83.274,125.381 83.274,130.093 
							91.495,138.314 						"/>
						
							<polygon id="Stroke-105" fill="none" stroke="#000000" stroke-width="2" stroke-linecap="round" stroke-linejoin="round" points="
							99.716,130.093 99.716,125.381 91.495,117.161 83.274,125.381 83.274,130.093 91.495,138.314 						"/>
						<polygon id="Fill-106" fill="#FFFFFF" points="169.238,145.344 263.16,145.344 263.16,125.422 169.238,125.422 						"/>
						
							<polygon id="Stroke-107" fill="none" stroke="#000000" stroke-width="2" stroke-linecap="round" stroke-linejoin="round" points="
							169.238,145.344 263.16,145.344 263.16,125.422 169.238,125.422 						"/>
						<polygon id="Fill-108" fill="#FFFFFF" points="179.76,125.422 252.638,125.422 252.638,106.957 179.76,106.957 						"/>
						
							<polygon id="Stroke-109" fill="none" stroke="#000000" stroke-width="2" stroke-linecap="round" stroke-linejoin="round" points="
							179.76,125.422 252.638,125.422 252.638,106.957 179.76,106.957 						"/>
						<polygon id="Fill-110" fill="#FFFFFF" points="190.282,106.957 242.115,106.957 242.115,89.226 190.282,89.226 						"/>
						
							<polygon id="Stroke-111" fill="none" stroke="#000000" stroke-width="2" stroke-linecap="round" stroke-linejoin="round" points="
							190.282,106.957 242.115,106.957 242.115,89.226 190.282,89.226 						"/>
						<polygon id="Fill-112" fill="#FFFFFF" points="202.56,89.226 229.84,89.226 229.84,67.402 202.56,67.402 						"/>
						
							<polygon id="Stroke-113" fill="none" stroke="#000000" stroke-width="2" stroke-linecap="round" stroke-linejoin="round" points="
							202.56,89.226 229.84,89.226 229.84,67.402 202.56,67.402 						"/>
						<polygon id="Fill-114" fill="#FFFFFF" points="223.214,89.226 209.185,89.226 204.312,145.346 227.891,145.346 						"/>
						
							<polygon id="Stroke-115" fill="none" stroke="#000000" stroke-width="2" stroke-linecap="round" stroke-linejoin="round" points="
							223.214,89.226 209.185,89.226 204.312,145.346 227.891,145.346 						"/>
						<path id="Fill-116" fill="#FFC83D" d="M220.218,89.226h-8.038v-6.893c0-2.22,1.8-4.02,4.02-4.02s4.019,1.8,4.019,4.02V89.226z
							"/>
						<path id="Stroke-117" fill="none" stroke="#000000" stroke-width="2" stroke-linecap="round" stroke-linejoin="round" d="
							M220.218,89.226h-8.038v-6.893c0-2.22,1.8-4.02,4.02-4.02s4.019,1.8,4.019,4.02V89.226L220.218,89.226z"/>
						<g id="Group-120" transform="translate(207.833333, 97.339506)">
							<path id="Fill-118" fill="#FFFFFF" d="M0.76,0.161h14.364"/>
							<path id="Stroke-119" fill="none" stroke="#000000" stroke-width="2" stroke-linecap="round" stroke-linejoin="round" d="
								M0.76,0.161h14.364"/>
						</g>
						<g id="Group-123" transform="translate(207.833333, 102.864198)">
							<path id="Fill-121" fill="#FFFFFF" d="M0.76,0.162h14.364"/>
							<path id="Stroke-122" fill="none" stroke="#000000" stroke-width="2" stroke-linecap="round" stroke-linejoin="round" d="
								M0.76,0.162h14.364"/>
						</g>
						<g id="Group-126" transform="translate(207.833333, 108.388889)">
							<path id="Fill-124" fill="#FFFFFF" d="M0.76,0.161h15.608"/>
							<path id="Stroke-125" fill="none" stroke="#000000" stroke-width="2" stroke-linecap="round" stroke-linejoin="round" d="
								M0.76,0.161h15.608"/>
						</g>
						<g id="Group-129" transform="translate(206.728395, 115.018519)">
							<path id="Fill-127" fill="#FFFFFF" d="M0.761,0.162h16.574"/>
							<path id="Stroke-128" fill="none" stroke="#000000" stroke-width="2" stroke-linecap="round" stroke-linejoin="round" d="
								M0.761,0.162h16.574"/>
						</g>
						<g id="Group-132" transform="translate(205.623457, 120.543210)">
							<path id="Fill-130" fill="#FFFFFF" d="M0.761,0.161h18.783"/>
							<path id="Stroke-131" fill="none" stroke="#000000" stroke-width="2" stroke-linecap="round" stroke-linejoin="round" d="
								M0.761,0.161h18.783"/>
						</g>
						<g id="Group-135" transform="translate(205.623457, 126.067901)">
							<path id="Fill-133" fill="#FFFFFF" d="M0.761,0.161H20.65"/>
							<path id="Stroke-134" fill="none" stroke="#000000" stroke-width="2" stroke-linecap="round" stroke-linejoin="round" d="
								M0.761,0.161H20.65"/>
						</g>
						<g id="Group-138" transform="translate(205.623457, 132.697531)">
							<path id="Fill-136" fill="#FFFFFF" d="M0.761,0.161H20.65"/>
							<path id="Stroke-137" fill="none" stroke="#000000" stroke-width="2" stroke-linecap="round" stroke-linejoin="round" d="
								M0.761,0.161H20.65"/>
						</g>
						<g id="Group-141" transform="translate(204.518519, 138.222222)">
							<path id="Fill-139" fill="#FFFFFF" d="M0.761,0.161h22.099"/>
							<path id="Stroke-140" fill="none" stroke="#000000" stroke-width="2" stroke-linecap="round" stroke-linejoin="round" d="
								M0.761,0.161h22.099"/>
						</g>
						<path id="Stroke-142" fill="none" stroke="#000000" stroke-width="2" stroke-linecap="round" stroke-linejoin="round" d="
							M256.538,146.094c0-16.443,13.33-29.773,29.772-29.773c16.444,0,29.773,13.329,29.773,29.773H256.538L256.538,146.094z"/>
						<path id="Fill-143" fill="#FFC83D" d="M267.694,126.89c2.503,0,4.533,2.03,4.533,4.534s-2.03,4.533-4.533,4.533
							c-2.504,0-4.534-2.029-4.534-4.533S265.19,126.89,267.694,126.89"/>
						<path id="Stroke-144" fill="none" stroke="#000000" stroke-linecap="round" stroke-linejoin="round" d="M267.694,126.89
							c2.503,0,4.533,2.03,4.533,4.534s-2.03,4.533-4.533,4.533c-2.504,0-4.534-2.029-4.534-4.533S265.19,126.89,267.694,126.89
							L267.694,126.89z"/>
						<path id="Fill-145" fill="#FFC83D" d="M304.805,126.89c2.504,0,4.533,2.03,4.533,4.534s-2.029,4.533-4.533,4.533
							s-4.533-2.029-4.533-4.533S302.301,126.89,304.805,126.89"/>
						<path id="Stroke-146" fill="none" stroke="#000000" stroke-linecap="round" stroke-linejoin="round" d="M304.805,126.89
							c2.504,0,4.533,2.03,4.533,4.534s-2.029,4.533-4.533,4.533s-4.533-2.029-4.533-4.533S302.301,126.89,304.805,126.89
							L304.805,126.89z"/>
						<path id="Fill-147" fill="#FFC83D" d="M292.895,119.404c2.504,0,4.534,2.03,4.534,4.534s-2.03,4.533-4.534,4.533
							s-4.533-2.029-4.533-4.533S290.392,119.404,292.895,119.404"/>
						<path id="Stroke-148" fill="none" stroke="#000000" stroke-linecap="round" stroke-linejoin="round" d="M292.895,119.404
							c2.504,0,4.534,2.03,4.534,4.534s-2.03,4.533-4.534,4.533s-4.533-2.029-4.533-4.533S290.392,119.404,292.895,119.404
							L292.895,119.404z"/>
						<path id="Fill-149" fill="#FFC83D" d="M279.726,119.404c2.504,0,4.533,2.03,4.533,4.534s-2.029,4.533-4.533,4.533
							s-4.533-2.029-4.533-4.533S277.223,119.404,279.726,119.404"/>
						<path id="Stroke-150" fill="none" stroke="#000000" stroke-linecap="round" stroke-linejoin="round" d="M279.726,119.404
							c2.504,0,4.533,2.03,4.533,4.534s-2.029,4.533-4.533,4.533s-4.533-2.029-4.533-4.533S277.223,119.404,279.726,119.404
							L279.726,119.404z"/>
						<path id="Fill-151" fill="#FFC83D" d="M286.309,118.91c2.504,0,4.533,2.03,4.533,4.534c0,2.503-2.029,4.533-4.533,4.533
							s-4.533-2.03-4.533-4.533C281.775,120.94,283.805,118.91,286.309,118.91"/>
						<path id="Stroke-152" fill="none" stroke="#000000" stroke-linecap="round" stroke-linejoin="round" d="M286.309,118.91
							c2.504,0,4.533,2.03,4.533,4.534c0,2.503-2.029,4.533-4.533,4.533s-4.533-2.03-4.533-4.533
							C281.775,120.94,283.805,118.91,286.309,118.91L286.309,118.91z"/>
						<path id="Fill-153" fill="#FFC83D" d="M273.065,121.774c2.504,0,4.533,2.029,4.533,4.533s-2.029,4.533-4.533,4.533
							s-4.533-2.029-4.533-4.533S270.561,121.774,273.065,121.774"/>
						<path id="Stroke-154" fill="none" stroke="#000000" stroke-linecap="round" stroke-linejoin="round" d="M273.065,121.774
							c2.504,0,4.533,2.029,4.533,4.533s-2.029,4.533-4.533,4.533s-4.533-2.029-4.533-4.533S270.561,121.774,273.065,121.774
							L273.065,121.774z"/>
						<path id="Fill-155" fill="#FFC83D" d="M299.552,121.774c2.504,0,4.534,2.029,4.534,4.533s-2.03,4.533-4.534,4.533
							s-4.533-2.029-4.533-4.533S297.048,121.774,299.552,121.774"/>
						<path id="Stroke-156" fill="none" stroke="#000000" stroke-linecap="round" stroke-linejoin="round" d="M299.552,121.774
							c2.504,0,4.534,2.029,4.534,4.533s-2.03,4.533-4.534,4.533s-4.533-2.029-4.533-4.533S297.048,121.774,299.552,121.774
							L299.552,121.774z"/>
						<path id="Fill-157" fill="#FFFFFF" d="M256.659,146.336c0-11.82,13.33-21.404,29.772-21.404
							c16.444,0,29.773,9.584,29.773,21.404H256.659z"/>
						<path id="Fill-159" fill="#E2E2E2" d="M299.614,127.087c3.25,3.343,5.939,6.615,2.071,11.173
							c-6.197,7.304-44.335,4.51-44.335,4.51c-0.708,1.789,0.138,2.244,0.138,3.349h58.44
							C315.929,139.489,312.459,131.231,299.614,127.087"/>
						<path id="Stroke-158" fill="none" stroke="#000000" stroke-width="2" stroke-linecap="round" stroke-linejoin="round" d="
							M256.659,146.336c0-11.82,13.33-21.404,29.772-21.404c16.444,0,29.773,9.584,29.773,21.404H256.659L256.659,146.336z"/>
						<polygon id="Fill-160" fill="#FFFFFF" points="49.008,138.698 68.567,141.998 85.17,139.196 86.948,126.936 11.031,126.936 
							12.886,139.209 29.412,141.998 						"/>
						<path id="Fill-164" fill="#E2E2E2" d="M10.755,126.229l1.854,12.489l0.213,0.295c1.106,5.878,6.248,8.21,12.243,8.21
							l28.884-1.289c-36.341-0.59-25.511-14.268-33.884-17.68C15.093,126.229,10.755,126.229,10.755,126.229"/>
						
							<polygon id="Stroke-161" fill="none" stroke="#000000" stroke-width="2" stroke-linecap="round" stroke-linejoin="round" points="
							49.008,138.698 68.567,141.998 85.17,139.196 86.948,126.936 11.031,126.936 12.886,139.209 29.412,141.998 						"/>
						<path id="Fill-162" fill="#FFFFFF" d="M68.567,140.893l-19.559-3.301l-19.596,3.301l-16.527-2.787l0.204,1.099
							c1.089,5.911,6.242,7.991,12.252,7.991h47.379c6.043,0,11.215-2.127,12.268-8.078l0.181-1.025L68.567,140.893z"/>
						<path id="Stroke-163" fill="none" stroke="#000000" stroke-width="2" stroke-linecap="round" stroke-linejoin="round" d="
							M68.567,140.893l-19.559-3.301l-19.596,3.301l-16.527-2.787l0.204,1.099c1.089,5.911,6.242,7.991,12.252,7.991h47.379
							c6.043,0,11.215-2.127,12.268-8.078l0.181-1.025L68.567,140.893L68.567,140.893z"/>
						<path id="Fill-165" fill="#FFFFFF" d="M64.851,114.127c-1.616-7.413-8.189-12.758-15.844-12.758
							c-7.654,0-14.229,5.342-15.844,12.758l-1.4,5.822l-1.202,6.986h36.856l-1.186-6.986L64.851,114.127z"/>
						<path id="Fill-167" fill="#E2E2E2" d="M49.56,100.264L49.56,100.264c-7.654,0-14.228,5.344-15.844,12.758l-1.4,5.823
							l-1.202,6.986h9.944C41.059,125.831,40.322,111.127,49.56,100.264"/>
						<path id="Stroke-166" fill="none" stroke="#000000" stroke-width="2" stroke-linecap="round" stroke-linejoin="round" d="
							M64.851,114.127c-1.616-7.413-8.189-12.758-15.844-12.758c-7.654,0-14.229,5.342-15.844,12.758l-1.4,5.822l-1.202,6.986
							h36.856l-1.186-6.986L64.851,114.127L64.851,114.127z"/>
						<polygon id="Fill-168" fill="#FFC83D" points="85.946,131.66 68.403,135.081 48.926,131.127 29.371,135.115 12.283,131.771 
							13.204,137.982 29.413,141.402 49.008,137.45 68.403,141.436 85.209,138.092 						"/>
						
							<polygon id="Stroke-169" fill="none" stroke="#000000" stroke-width="2" stroke-linecap="round" stroke-linejoin="round" points="
							85.946,131.66 68.403,135.081 48.926,131.127 29.371,135.115 12.283,131.771 13.204,137.982 29.413,141.402 49.008,137.45 
							68.403,141.436 85.209,138.092 						"/>
						<path id="Stroke-170" fill="none" stroke="#000000" stroke-width="2" stroke-linecap="round" stroke-linejoin="round" d="
							M64.952,116.285H32.909"/>
						<polygon id="Fill-171" fill="#E2E2E2" points="207.956,90.353 190.962,144.237 203.29,144.255 						"/>
						<polygon id="Fill-172" fill="#E2E2E2" points="224.478,90.353 242.525,144.237 229.144,144.255 						"/>
					</g>
				</g>
			</g>
		</g>
	</g>
</g>
</svg>
