<?xml version="1.0" encoding="UTF-8"?>
<svg width="732px" height="173px" viewBox="0 0 732 173" version="1.1" xmlns="http://www.w3.org/2000/svg" xmlns:xlink="http://www.w3.org/1999/xlink">
    <!-- Generator: sketchtool 39.1 (31720) - http://www.bohemiancoding.com/sketch -->
    <title>0F8D2CB9-A41E-497E-885C-192124162F1E</title>
    <desc>Created with sketchtool.</desc>
    <defs></defs>
    <g id="M2U-Planner" stroke="none" stroke-width="1" fill="none" fill-rule="evenodd">
        <g id="312_M2U_Planner_Travel" transform="translate(-288.000000, -497.000000)">
            <g id="Group-5" transform="translate(290.000000, 498.000000)">
                <path d="M156,141.2 L728.503493,141.2" id="Line" stroke="#1C1918" stroke-width="2.4" stroke-linecap="round" stroke-linejoin="round"></path>
                <path d="M23,141.2 L147,141.2" id="Line-Copy" stroke="#1C1918" stroke-width="2.4" stroke-linecap="round" stroke-linejoin="round"></path>
                <path d="M0,141.2 L13,141.2" id="Line-Copy" stroke="#1C1918" stroke-width="2.4" stroke-linecap="round" stroke-linejoin="round"></path>
                <g id="Page-1" transform="translate(199.000000, 0.000000)">
                    <polygon id="Fill-1" fill="#FFFFFF" points="208.74537 104.149741 295.3617 104.149741 295.3617 96.7583519 208.74537 96.7583519"></polygon>
                    <path d="M219.472947,98.1708984 L214.796189,99.6630859 C214.796189,99.6630859 212.834275,100.422852 212.834275,102.211914 C212.834275,104.000977 212.768752,129.694282 212.768752,129.694282 L209.535354,129.694275 L209.592285,97.8888889 L219.472947,98.1708984 Z" id="Path-14-Copy" fill="#E3E3E3"></path>
                    <polygon id="Fill-2" fill="#FFFFFF" points="213.701347 96.0656481 295.3617 96.0656481 295.3617 82.640963 213.701347 82.640963"></polygon>
                    <path d="M219.383789,96.6103516 L219.643555,90.2216797 C219.643555,90.2216797 220.432617,89.2021484 223.165039,89.7119141 C225.897461,90.2216797 257.996094,93.0029297 287.996094,88.9423828 C317.996094,84.8818359 284.012695,82.109375 284.012695,82.109375 L214.080078,84.7070312 L214.013672,96.0888672 L219.383789,96.6103516 Z" id="Path-13" fill="#E3E3E3"></path>
                    <polygon id="Fill-3" fill="#FFFFFF" points="223.636279 76.7573519 285.760522 76.7573519 285.760522 63.3337593 223.636279 63.3337593"></polygon>
                    <path d="M227.159797,76.5340602 L227.360356,70.6195683 C227.360356,70.6195683 227.96957,69.6757087 230.079201,70.1476385 C232.188831,70.6195683 256.971337,73.1943884 280.133544,69.4352234 C303.29575,65.6760584 277.058067,63.109375 277.058067,63.109375 L223.064942,65.514228 L223.013672,76.0512814 L227.159797,76.5340602 Z" id="Path-13" fill="#E3E3E3"></path>
                    <path d="M7.69818182,148.504739 L310.81266,148.504739 L7.69818182,148.504739 Z" id="Fill-4" fill="#FFFFFF"></path>
                    <path d="M8,149 L311.114478,149" id="Stroke-5" stroke="#E2E2E2" stroke-width="12" stroke-linecap="round" stroke-linejoin="round"></path>
                    <path d="M25.2826515,157.850339 L149.224739,157.850339 L25.2826515,157.850339 Z" id="Fill-7" fill="#FFFFFF"></path>
                    <path d="M149.22463,157.850667 L25.2825421,157.850667" id="Stroke-8" stroke="#000000" stroke-width="2" stroke-linecap="round" stroke-linejoin="round"></path>
                    <path d="M279.68415,170.772152 L218.402868,170.772152" id="Stroke-82-Copy-3" stroke="#000000" stroke-width="2" stroke-linecap="round" stroke-linejoin="round"></path>
                    <path d="M209.588587,170.772152 L172.778403,170.772152" id="Stroke-82-Copy-4" stroke="#000000" stroke-width="2" stroke-linecap="round" stroke-linejoin="round"></path>
                    <path d="M305.199194,170.772152 L288.508532,170.772152" id="Stroke-82-Copy-3" stroke="#000000" stroke-width="2" stroke-linecap="round" stroke-linejoin="round"></path>
                    <path d="M163.89544,170.772152 L153.818931,170.772152" id="Stroke-82-Copy-5" stroke="#000000" stroke-width="2" stroke-linecap="round" stroke-linejoin="round"></path>
                    <path d="M158.0225,157.850339 L187.949857,157.850339 L158.0225,157.850339 Z" id="Fill-9" fill="#FFFFFF"></path>
                    <path d="M187.949638,157.850667 L158.022281,157.850667" id="Stroke-10" stroke="#000000" stroke-width="2" stroke-linecap="round" stroke-linejoin="round"></path>
                    <path d="M196.686667,157.850339 L272.877828,157.850339 L196.686667,157.850339 Z" id="Fill-11" fill="#FFFFFF"></path>
                    <path d="M272.877828,157.850667 L196.686667,157.850667" id="Stroke-12" stroke="#000000" stroke-width="2" stroke-linecap="round" stroke-linejoin="round"></path>
                    <g id="Group-175">
                        <path d="M220.35367,62.221013 C220.35367,28.1277537 192.672862,0.489531481 158.527071,0.489531481 C158.260067,0.489531481 157.995253,0.496087037 157.729343,0.499364815 C141.025219,0.922198148 127.613771,14.5752352 127.613771,31.3552722 C127.613771,48.4019019 141.454175,62.221013 158.527071,62.221013 C175.599966,62.221013 189.44037,76.0390315 189.44037,93.0867537 C189.44037,109.866791 176.030017,123.519828 159.324798,123.941569 C193.102912,123.515457 220.35367,96.0476796 220.35367,62.221013 L220.35367,62.221013 Z" id="Stroke-27" stroke="#DDDDDD" stroke-width="2" stroke-linecap="round" stroke-linejoin="round"></path>
                        <path d="M157.728796,0.499146296 C123.951776,0.927442593 96.6999242,28.3941278 96.6999242,62.2207944 C96.6999242,96.3140537 124.380732,123.952276 158.526524,123.952276 C158.794621,123.952276 159.059436,123.94572 159.325345,123.94135" id="Stroke-25" stroke="#DDDDDD" stroke-width="2" stroke-linecap="round" stroke-linejoin="round"></path>
                        <path d="M158.527071,23.3037389 C162.980774,23.3037389 166.591886,26.9082019 166.591886,31.3550537 C166.591886,35.8019056 162.980774,39.4063685 158.527071,39.4063685 C154.073367,39.4063685 150.462256,35.8019056 150.462256,31.3550537 C150.462256,26.9082019 154.073367,23.3037389 158.527071,23.3037389" id="Fill-29" fill="#E8E8E8"></path>
                        <path d="M158.527071,85.0352204 C162.980774,85.0352204 166.591886,88.6396833 166.591886,93.0865352 C166.591886,97.533387 162.980774,101.13785 158.527071,101.13785 C154.073367,101.13785 150.462256,97.533387 150.462256,93.0865352 C150.462256,88.6396833 154.073367,85.0352204 158.527071,85.0352204" id="Fill-31" fill="#E8E8E8"></path>
                        <path d="M285.760194,74.9287389 L285.760194,65.7695352" id="Stroke-33" stroke="#000000" stroke-width="2" stroke-linecap="round" stroke-linejoin="round"></path>
                        <path d="M295.515118,96.1084278 L295.515118,85.1049278" id="Stroke-35" stroke="#000000" stroke-width="2" stroke-linecap="round" stroke-linejoin="round"></path>
                        <path d="M300.649352,92.673863 L300.649352,104.88577" id="Stroke-37" stroke="#000000" stroke-width="2" stroke-linecap="round" stroke-linejoin="round"></path>
                        <path d="M232.36346,56.0389056 C232.36346,56.0389056 225.176254,64.6244981 211.31287,64.6244981 C211.31287,64.6244981 217.987955,66.9145722 256.494436,66.9145722 L252.900833,66.9145722 C291.408409,66.9145722 298.082399,64.6244981 298.082399,64.6244981 C284.220109,64.6244981 277.03181,56.0389056 277.03181,56.0389056 L232.36346,56.0389056 Z" id="Fill-39" fill="#FFC83D"></path>
                        <path d="M232.36346,56.0389056 C232.36346,56.0389056 225.176254,64.6244981 211.31287,64.6244981 C211.31287,64.6244981 217.987955,66.9145722 256.494436,66.9145722 L252.900833,66.9145722 C291.408409,66.9145722 298.082399,64.6244981 298.082399,64.6244981 C284.220109,64.6244981 277.03181,56.0389056 277.03181,56.0389056 L232.36346,56.0389056 L232.36346,56.0389056 Z" id="Stroke-41" stroke="#000000" stroke-width="2" stroke-linecap="round" stroke-linejoin="round"></path>
                        <path d="M223.12197,74.9287389 C223.12197,74.9287389 216.961195,83.5154241 203.098906,83.5154241 C203.098906,83.5154241 217.303704,86.9494426 256.495202,86.9494426 L252.900505,86.9494426 C292.092003,86.9494426 306.297896,83.5154241 306.297896,83.5154241 C292.434512,83.5154241 286.273737,74.9287389 286.273737,74.9287389 L223.12197,74.9287389 Z" id="Fill-43" fill="#FBFBFB"></path>
                        <path d="M223.12197,74.9287389 C223.12197,74.9287389 216.961195,83.5154241 203.098906,83.5154241 C203.098906,83.5154241 217.303704,86.9494426 256.495202,86.9494426 L252.900505,86.9494426 C292.092003,86.9494426 306.297896,83.5154241 306.297896,83.5154241 C292.434512,83.5154241 286.273737,74.9287389 286.273737,74.9287389 L223.12197,74.9287389 L223.12197,74.9287389 Z" id="Stroke-45" stroke="#000000" stroke-width="2" stroke-linecap="round" stroke-linejoin="round"></path>
                        <path d="M223.635404,74.9287389 L223.635404,66.9145722" id="Stroke-47" stroke="#000000" stroke-width="2" stroke-linecap="round" stroke-linejoin="round"></path>
                        <path d="M213.88048,96.1084278 L213.88048,85.1049278" id="Stroke-49" stroke="#000000" stroke-width="2" stroke-linecap="round" stroke-linejoin="round"></path>
                        <path d="M208.745699,92.673863 L208.745699,104.88577" id="Stroke-51" stroke="#000000" stroke-width="2" stroke-linecap="round" stroke-linejoin="round"></path>
                        <g id="Group-56" transform="translate(208.006734, 96.240741)">
                            <path d="M0.738964646,0.82162963 L92.6428367,0.82162963" id="Fill-53" fill="#FFFFFF"></path>
                            <path d="M0.738964646,0.82162963 L92.6428367,0.82162963" id="Stroke-55" stroke="#000000" stroke-width="2" stroke-linecap="round" stroke-linejoin="round"></path>
                        </g>
                        <g id="Group-60" transform="translate(202.535354, 103.888889)">
                            <polyline id="Fill-57" fill="#FFFFFF" points="0.563114478 37.2505241 0.563114478 0.996116667 53.9594108 0.996116667 50.3658081 0.996116667 103.762104 0.996116667 103.762104 37.2505241"></polyline>
                            <path d="M20.1809551,15.058865 C20.1809551,15.058865 29.6682597,14.3567166 32.1697246,18.340115 C34.6711894,22.3235135 35.6570293,28.0490994 34.4978496,29.4050564 C33.3386699,30.7610135 30.8420879,30.9006619 30.8420879,32.0451931 C30.8420879,33.1897244 31.9050762,35.7449002 30.3894512,36.98074 C28.8738262,38.2165799 21.3499004,37.0041775 21.3499004,37.0041775 L13.2576152,35.234158 L15.1243144,27.7864041 L20.1809551,15.058865 Z" id="Path-15" fill="#E3E3E3"></path>
                            <path d="M10.9375937,1.28200955 L6.2608359,2.77419705 C6.2608359,2.77419705 4.29892184,3.53396267 4.29892184,5.32302517 C4.29892184,7.11208767 4.23339844,32.8053928 4.23339844,32.8053928 L1,32.805386 L1.05693162,1 L10.9375937,1.28200955 Z" id="Path-14" fill="#E3E3E3"></path>
                            <polyline id="Stroke-59" stroke="#000000" stroke-width="2" stroke-linecap="round" stroke-linejoin="round" points="0.563114478 37.2505241 0.563114478 0.996116667 53.9594108 0.996116667 50.3658081 0.996116667 103.762104 0.996116667 103.762104 37.2505241"></polyline>
                        </g>
                        <g id="Group-64" transform="translate(244.117845, 112.629630)">
                            <path d="M5,28.8578333 L5,10.7306296 C5,10.7306296 5.34250842,1 15.9526094,1 L14.9907407,1 C25.6030303,1 25.9444444,10.7306296 25.9444444,10.7306296 L25.9444444,28.8578333" id="Fill-61" fill="#E3E3E3"></path>
                            <path d="M0.331784512,28.5097833 L0.331784512,10.3825796 C0.331784512,10.3825796 0.674292929,0.65195 11.2843939,0.65195 L10.3225253,0.65195 C20.9348148,0.65195 21.276229,10.3825796 21.276229,10.3825796 L21.276229,28.5097833" id="Fill-61" fill="#FFC83D"></path>
                            <path d="M0.331784512,28.5097833 L0.331784512,10.3825796 C0.331784512,10.3825796 0.674292929,0.65195 11.2843939,0.65195 L10.3225253,0.65195 C20.9348148,0.65195 21.276229,10.3825796 21.276229,10.3825796 L21.276229,28.5097833" id="Stroke-63" stroke="#000000" stroke-width="2" stroke-linecap="round" stroke-linejoin="round"></path>
                        </g>
                        <path d="M316.638695,141.139413 L194.666305,141.139413" id="Stroke-65" stroke="#000000" stroke-width="2" stroke-linecap="round" stroke-linejoin="round"></path>
                        <polygon id="Fill-67" fill="#FFC83D" points="313.651978 119.035828 313.651978 106.531106 300.926641 104.452994 288.201305 106.531106 288.201305 119.035828 300.926641 121.113939"></polygon>
                        <polygon id="Stroke-69" stroke="#000000" stroke-width="2" stroke-linecap="round" stroke-linejoin="round" points="313.651978 119.035828 313.651978 106.531106 300.926641 104.452994 288.201305 106.531106 288.201305 119.035828 300.926641 121.113939"></polygon>
                        <path d="M306.176869,95.4682778 L300.926532,94.4303148 L295.675101,95.4682778 C291.29362,97.2360926 288.201195,101.522333 288.201195,106.530778 L313.651869,106.530778 C313.651869,101.522333 310.55835,97.2360926 306.176869,95.4682778" id="Fill-71" fill="#FFC83D"></path>
                        <path d="M306.176869,95.4682778 L300.926532,94.4303148 L295.675101,95.4682778 C291.29362,97.2360926 288.201195,101.522333 288.201195,106.530778 L313.651869,106.530778 C313.651869,101.522333 310.55835,97.2360926 306.176869,95.4682778 L306.176869,95.4682778 Z" id="Stroke-73" stroke="#000000" stroke-width="2" stroke-linecap="round" stroke-linejoin="round"></path>
                        <path d="M288.200976,119.035828 C288.200976,124.044272 291.293401,128.331606 295.675976,130.098328 L300.926313,131.136291 L306.17665,130.098328 C310.559226,128.331606 313.65165,124.044272 313.65165,119.035828 L288.200976,119.035828 Z" id="Fill-75" fill="#FFC83D"></path>
                        <path d="M288.200976,119.035828 C288.200976,124.044272 291.293401,128.331606 295.675976,130.098328 L300.926313,131.136291 L306.17665,130.098328 C310.559226,128.331606 313.65165,124.044272 313.65165,119.035828 L288.200976,119.035828 L288.200976,119.035828 Z" id="Stroke-77" stroke="#000000" stroke-width="2" stroke-linecap="round" stroke-linejoin="round"></path>
                        <path d="M300.844461,88.2426352 C302.086465,88.2426352 303.097576,89.2521907 303.097576,90.4933759 L303.097576,91.6755611 L298.590253,91.6755611 L298.590253,90.4933759 C298.590253,89.2521907 299.601364,88.2426352 300.844461,88.2426352 M300.926532,85.1735426 C298.031077,85.1735426 295.675101,87.5258944 295.675101,90.4168944 L295.675101,95.46795 L306.176869,95.46795 L306.176869,90.4168944 C306.176869,87.5258944 303.821987,85.1735426 300.926532,85.1735426" id="Fill-79" fill="#FFFFFF"></path>
                        <path d="M300.844461,88.2426352 C302.086465,88.2426352 303.097576,89.2521907 303.097576,90.4933759 L303.097576,91.6755611 L298.590253,91.6755611 L298.590253,90.4933759 C298.590253,89.2521907 299.601364,88.2426352 300.844461,88.2426352 L300.844461,88.2426352 Z M300.926532,85.1735426 C298.031077,85.1735426 295.675101,87.5258944 295.675101,90.4168944 L295.675101,95.46795 L306.176869,95.46795 L306.176869,90.4168944 C306.176869,87.5258944 303.821987,85.1735426 300.926532,85.1735426 L300.926532,85.1735426 Z" id="Stroke-81" stroke="#000000" stroke-width="2" stroke-linecap="round" stroke-linejoin="round"></path>
                        <polygon id="Fill-83" fill="#FFFFFF" points="295.675758 133.214074 306.177525 133.214074 306.177525 130.098 295.675758 130.098"></polygon>
                        <polygon id="Stroke-85" stroke="#000000" stroke-width="2" stroke-linecap="round" stroke-linejoin="round" points="295.675758 133.214074 306.177525 133.214074 306.177525 130.098 295.675758 130.098"></polygon>
                        <path d="M77.7024158,22.234637 L77.7024158,30.1286185" id="Stroke-86" stroke="#000000" stroke-width="2" stroke-linecap="round" stroke-linejoin="round"></path>
                        <g id="Group-89" transform="translate(49.336700, 30.685185)">
                            <polyline id="Fill-87" fill="#FFC83D" points="56.3172475 17.9744593 28.2895539 0.667792593 0.260765993 17.9744593"></polyline>
                            <polyline id="Stroke-88" stroke="#000000" stroke-width="2" stroke-linecap="round" stroke-linejoin="round" points="56.3172475 17.9744593 28.2895539 0.667792593 0.260765993 17.9744593"></polyline>
                        </g>
                        <polygon id="Fill-90" fill="#FFFFFF" points="56.4407407 60.2245185 97.8448653 60.2245185 97.8448653 49.3696111 56.4407407 49.3696111"></polygon>
                        <polygon id="Fill-90" fill="#E3E3E3" points="56.4407407 53.489611 97.8448653 53.489611 97.8448653 49.3696111 56.4407407 49.3696111"></polygon>
                        <path d="M68.3310547,51.1943359 L63.6542969,52.6865234 C63.6542969,52.6865234 61.6923828,53.4462891 61.6923828,55.2353516 C61.6923828,57.0244141 61.6923828,62.2773505 61.6923828,62.2773505 L56.4589844,62.2773437 L56.4589844,49.9140625 L68.3310547,51.1943359 Z" id="Path-14" fill="#E3E3E3"></path>
                        <polygon id="Stroke-91" stroke="#000000" stroke-width="2" stroke-linecap="round" stroke-linejoin="round" points="56.4407407 60.2245185 97.8448653 60.2245185 97.8448653 49.3696111 56.4407407 49.3696111"></polygon>
                        <polygon id="Fill-92" fill="#FFFFFF" points="47.488468 92.7881481 107.916582 92.7881481 107.916582 77.9867963 47.488468 77.9867963"></polygon>
                        <polygon id="Fill-92" fill="#E3E3E3" points="47.488468 82.9967965 107.916582 82.9967965 107.916582 77.9867963 47.488468 77.9867963"></polygon>
                        <path d="M59.3310547,81.1943359 L54.6542969,82.6865234 C54.6542969,82.6865234 52.6923828,83.4462891 52.6923828,85.2353516 C52.6923828,87.0244141 52.6923828,92.2773505 52.6923828,92.2773505 L47.4589844,92.2773437 L47.4589844,79.9140625 L59.3310547,81.1943359 Z" id="Path-14" fill="#E3E3E3"></path>
                        <polygon id="Stroke-93" stroke="#000000" stroke-width="2" stroke-linecap="round" stroke-linejoin="round" points="47.488468 92.7881481 107.916582 92.7881481 107.916582 77.9867963 47.488468 77.9867963"></polygon>
                        <polygon id="Fill-94" fill="#FFFFFF" points="37.4167508 141.139741 117.987205 141.139741 117.987205 109.563815 37.4167508 109.563815"></polygon>
                        <polygon id="Fill-94" fill="#E3E3E3" points="37 115.014167 53.1296296 115.014167 53.1296296 107 37 107"></polygon>
                        <path d="M48.8720703,114.280273 L44.1953125,115.772461 C44.1953125,115.772461 42.2333984,116.532227 42.2333984,118.321289 L42.2333984,141.156738 L37,141.156732 L37,113 L48.8720703,114.280273 Z" id="Path-14" fill="#E3E3E3"></path>
                        <polygon id="Fill-94" fill="#E3E3E3" points="103 115.014167 119.12963 115.014167 119.12963 107 103 107"></polygon>
                        <path d="M114.87207,114.280273 L110.195312,115.772461 C110.195312,115.772461 108.233398,116.532227 108.233398,118.321289 L108.233398,141.156738 L103,141.156732 L103,113 L114.87207,114.280273 Z" id="Path-14" fill="#E3E3E3"></path>
                        <polygon id="Stroke-95" stroke="#000000" stroke-width="2" stroke-linecap="round" stroke-linejoin="round" points="37.4167508 141.139741 117.987205 141.139741 117.987205 109.563815 37.4167508 109.563815"></polygon>
                        <g id="Group-98" transform="translate(41.676768, 60.185185)">
                            <polyline id="Fill-96" fill="#FBFBFB" points="69.6383081 16.8903889 59.2766077 0.0393333333 10.5846044 0.0393333333 0.33233165 16.5112593"></polyline>
                            <polyline id="Stroke-97" stroke="#000000" stroke-width="2" stroke-linecap="round" stroke-linejoin="round" points="69.6383081 16.8903889 59.2766077 0.0393333333 10.5846044 0.0393333333 0.33233165 16.5112593"></polyline>
                        </g>
                        <path d="M121.941481,69.997213 C121.941481,69.997213 121.060589,77.9873426 108.458906,77.9873426 L44.7556229,77.9873426 C32.1539394,77.9873426 31.2730471,70.0223426 31.2730471,70.0223426" id="Stroke-99" stroke="#000000" stroke-width="2" stroke-linecap="round" stroke-linejoin="round"></path>
                        <g id="Group-102" transform="translate(31.828283, 91.870370)">
                            <polyline id="Fill-100" fill="#FFFFFF" points="89.2615236 16.8359778 79.3922475 0.917996296 11.1914899 0.917996296 0.927180135 17.3320148"></polyline>
                            <polyline id="Stroke-101" stroke="#000000" stroke-width="2" stroke-linecap="round" stroke-linejoin="round" points="89.2615236 16.8359778 79.3922475 0.917996296 11.1914899 0.917996296 0.927180135 17.3320148"></polyline>
                        </g>
                        <path d="M131.182424,101.89895 C131.182424,101.89895 130.301532,109.563487 117.699848,109.563487 L34.4878114,109.563487 C21.8861279,109.563487 21.0041414,101.761283 21.0041414,101.761283" id="Stroke-103" stroke="#000000" stroke-width="2" stroke-linecap="round" stroke-linejoin="round"></path>
                        <path d="M113.031776,41.4275556 C113.031776,41.4275556 112.342382,49.3707037 102.485143,49.3707037 L52.6550926,49.3707037 C42.7967593,49.3707037 42.1084596,41.4297407 42.1084596,41.4297407" id="Stroke-104" stroke="#000000" stroke-width="2" stroke-linecap="round" stroke-linejoin="round"></path>
                        <g id="Group-107" transform="translate(0.094276, 141.037037)">
                            <path d="M205.274596,0.102375926 L0.000437710438,0.102375926" id="Fill-105" fill="#FFFFFF"></path>
                            <path d="M205.274596,0.102375926 L0.000437710438,0.102375926" id="Stroke-106" stroke="#000000" stroke-width="2" stroke-linecap="round" stroke-linejoin="round"></path>
                        </g>
                        <g id="Group-110" transform="translate(51.525253, 119.185185)">
                            <path d="M50.2362458,0.245396296 L0.998198653,0.245396296" id="Fill-108" fill="#FFFFFF"></path>
                            <path d="M50.2362458,0.245396296 L0.998198653,0.245396296" id="Stroke-109" stroke="#000000" stroke-width="2" stroke-linejoin="round"></path>
                        </g>
                        <polygon id="Fill-111" fill="#FBFBFB" points="53.0758418 141.139741 103.660943 141.139741 103.660943 119.431019 53.0758418 119.431019"></polygon>
                        <polygon id="Stroke-112" stroke="#000000" stroke-width="2" stroke-linecap="round" stroke-linejoin="round" points="53.0758418 141.139741 103.660943 141.139741 103.660943 119.431019 53.0758418 119.431019"></polygon>
                        <g id="Group-115" transform="translate(77.693603, 119.185185)">
                            <path d="M0.00881313131,22.3415519 L0.00881313131,0.739903704" id="Fill-113" fill="#FFFFFF"></path>
                            <path d="M0.00881313131,22.3415519 L0.00881313131,0.739903704" id="Stroke-114" stroke="#000000" stroke-width="2" stroke-linejoin="round"></path>
                        </g>
                        <polygon id="Fill-116" fill="#FFC83D" points="53.3111111 119.854944 103.647811 119.854944 103.647811 110.021611 53.3111111 110.021611"></polygon>
                        <polygon id="Stroke-117" stroke="#000000" stroke-width="2" stroke-linecap="round" stroke-linejoin="round" points="53.3111111 119.854944 103.647811 119.854944 103.647811 110.021611 53.3111111 110.021611"></polygon>
                        <path d="M293.067988,41.4169574 C293.07346,40.9526056 293.167567,40.1539204 293.6775,39.5202167 C294.231204,38.8307907 296.276406,37.3153648 297.655194,37.2312352" id="Stroke-118" stroke="#D1D1D1" stroke-width="2" stroke-linecap="round" stroke-linejoin="round"></path>
                        <path d="M286.548838,37.5416407 C287.218535,37.5329 291.556246,38.7041593 291.940337,41.5820481" id="Stroke-119" stroke="#D1D1D1" stroke-width="2" stroke-linecap="round" stroke-linejoin="round"></path>
                        <path d="M50.6430471,14.8287167 C50.6485185,14.3643648 50.741532,13.5656796 51.2525589,12.9319759 C51.8062626,12.2414574 53.8503704,10.7260315 55.2302525,10.6429944" id="Stroke-120" stroke="#D1D1D1" stroke-width="2" stroke-linecap="round" stroke-linejoin="round"></path>
                        <path d="M44.1233502,10.9534 C44.7930471,10.9446593 49.1307576,12.1148259 49.5159428,14.9938074" id="Stroke-121" stroke="#D1D1D1" stroke-width="2" stroke-linecap="round" stroke-linejoin="round"></path>
                        <path d="M28.0014899,103.088674 C25.9551936,106.190544 23.3256481,107.866581 20.6490488,108.120063 C20.8153788,104.062174 21.9216919,100.075304 23.9668939,96.9734333 C26.0131902,93.8726556 28.6427357,92.1966185 31.3204293,91.943137 C31.1530051,96.0021185 30.0477862,99.9878963 28.0014899,103.088674" id="Fill-122" fill="#FFC83D"></path>
                        <path d="M28.0014899,103.088674 C25.9551936,106.190544 23.3256481,107.866581 20.6490488,108.120063 C20.8153788,104.062174 21.9216919,100.075304 23.9668939,96.9734333 C26.0131902,93.8726556 28.6427357,92.1966185 31.3204293,91.943137 C31.1530051,96.0021185 30.0477862,99.9878963 28.0014899,103.088674 L28.0014899,103.088674 Z" id="Stroke-123" stroke="#000000" stroke-width="2" stroke-linecap="round" stroke-linejoin="round"></path>
                        <path d="M5.60198653,116.954111 C7.64828283,120.055981 10.276734,121.732019 12.9544276,121.984407 C12.7870034,117.927611 11.6817845,113.940741 9.63658249,110.83887 C7.5902862,107.738093 4.96074074,106.062056 2.28304714,105.808574 C2.45047138,109.867556 3.55569024,113.853333 5.60198653,116.954111" id="Fill-124" fill="#FFC83D"></path>
                        <path d="M5.60198653,116.954111 C7.64828283,120.055981 10.276734,121.732019 12.9544276,121.984407 C12.7870034,117.927611 11.6817845,113.940741 9.63658249,110.83887 C7.5902862,107.738093 4.96074074,106.062056 2.28304714,105.808574 C2.45047138,109.867556 3.55569024,113.853333 5.60198653,116.954111 L5.60198653,116.954111 Z" id="Stroke-125" stroke="#000000" stroke-width="2" stroke-linecap="round" stroke-linejoin="round"></path>
                        <polygon id="Fill-126" fill="#FBFBFB" points="13 120.2075 19.7462121 120.2075 19.7462121 100 13 100"></polygon>
                        <polygon id="Fill-130" fill="#E3E3E3" points="13 120.2075 15.75 120.2075 15.75 100 13 100"></polygon>
                        <polygon id="Stroke-127" stroke="#000000" stroke-width="2" stroke-linecap="round" stroke-linejoin="round" points="12.9542088 120.608833 19.7004209 120.608833 19.7004209 100.401333 12.9542088 100.401333"></polygon>
                        <polygon id="Fill-128" fill="#FFFFFF" points="13 100.206407 19.7462121 100.206407 19.7462121 80 13 80"></polygon>
                        <polygon id="Fill-130" fill="#E3E3E3" points="13 100.2075 15.75 100.2075 15.75 80 13 80"></polygon>
                        <polygon id="Stroke-129" stroke="#000000" stroke-width="2" stroke-linecap="round" stroke-linejoin="round" points="12.9542088 100.504037 19.7004209 100.504037 19.7004209 80.2976296 12.9542088 80.2976296"></polygon>
                        <polygon id="Fill-130" fill="#FFFFFF" points="12.9542088 140.783556 19.7004209 140.783556 19.7004209 120.576056 12.9542088 120.576056"></polygon>
                        <polygon id="Fill-130" fill="#E3E3E3" points="12.9542088 140.783556 15.7042088 140.783556 15.7042088 120.576056 12.9542088 120.576056"></polygon>
                        <polygon id="Stroke-131" stroke="#000000" stroke-width="2" stroke-linecap="round" stroke-linejoin="round" points="12.9542088 140.783556 19.7004209 140.783556 19.7004209 120.576056 12.9542088 120.576056"></polygon>
                        <path d="M23.3663552,50.1993259 C23.4801599,51.274437 22.402298,51.8556963 21.1570118,51.9900852 C22.0849579,52.8291963 22.6145875,53.9316222 21.8901768,54.7346778 C21.5487626,55.1127148 21.0990152,55.3323259 20.630665,55.3891407 C20.4315067,55.8163444 20.0835269,56.1769 19.6184596,56.3823074 C18.629234,56.8237148 17.7439646,55.9791407 17.2307492,54.8384741 C16.7164394,55.9791407 15.83117,56.8237148 14.8408502,56.3823074 C14.3768771,56.1769 14.0288973,55.8163444 13.8297391,55.3891407 C13.3613889,55.3323259 12.9105471,55.1127148 12.5702273,54.7346778 C11.8458165,53.9316222 12.3754461,52.8291963 13.3033923,51.9900852 C12.0581061,51.8556963 10.9813384,51.274437 11.0940488,50.1993259 C11.1476684,49.6934556 11.3829377,49.2520481 11.728729,48.9319185 C11.637904,48.4686593 11.7068434,47.9737148 11.9618098,47.5334 C12.5034764,46.5959556 13.7170286,46.7598444 14.8036448,47.3815296 C14.5464899,46.1567333 14.7664394,44.9548815 15.8267929,44.7298074 C16.3235943,44.6238259 16.8182071,44.7112333 17.2307492,44.9406778 C17.6432912,44.7112333 18.1357155,44.6238259 18.6336111,44.7298074 C19.6939646,44.9548815 19.9128199,46.1567333 19.6567593,47.3815296 C20.7444697,46.7598444 21.9569276,46.5959556 22.4985943,47.5334 C22.7524663,47.9737148 22.8225,48.4686593 22.7316751,48.9319185 C23.0774663,49.2520481 23.3127357,49.6934556 23.3663552,50.1993259 L23.3663552,50.1993259 Z M17.6356313,50.7161222 C17.6356313,50.6724185 17.6279714,50.6309 17.6159343,50.5904741 C17.5634091,50.4287704 17.4102104,50.311863 17.2307492,50.311863 C17.0501936,50.311863 16.8969949,50.4287704 16.845564,50.5904741 C16.8324327,50.6309 16.8247727,50.6724185 16.8247727,50.7161222 L17.6356313,50.7161222 Z" id="Stroke-132" stroke="#D1D1D1" stroke-width="2" stroke-linecap="round" stroke-linejoin="round"></path>
                        <path d="M19.1104966,54.8556278 C19.2221128,54.8556278 19.3129377,54.946313 19.3129377,55.05885 C19.3129377,55.1702944 19.2221128,55.259887 19.1104966,55.259887 C18.9988805,55.259887 18.9080556,55.1702944 18.9080556,55.05885 C18.9080556,54.946313 18.9988805,54.8556278 19.1104966,54.8556278" id="Fill-133" fill="#D1D1D1"></path>
                        <path d="M18.3005135,54.0467815 C18.4121296,54.0467815 18.5029545,54.1374667 18.5029545,54.2500037 C18.5029545,54.3603556 18.4121296,54.4510407 18.3005135,54.4510407 C18.187803,54.4510407 18.0980724,54.3603556 18.0980724,54.2500037 C18.0980724,54.1374667 18.187803,54.0467815 18.3005135,54.0467815" id="Fill-134" fill="#D1D1D1"></path>
                        <path d="M21.9471886,50.0701815 C22.0588047,50.0701815 22.1496296,50.1608667 22.1496296,50.2734037 C22.1496296,50.3837556 22.0588047,50.4744407 21.9471886,50.4744407 C21.8355724,50.4744407 21.7447475,50.3837556 21.7447475,50.2734037 C21.7447475,50.1608667 21.8355724,50.0701815 21.9471886,50.0701815" id="Fill-135" fill="#D1D1D1"></path>
                        <path d="M267.107273,25.8399741 C266.527306,27.4078444 264.638586,27.4744926 262.823182,26.8112889 C263.532273,28.6064185 263.510387,30.4933259 261.956515,31.1106407 C261.226633,31.4012704 260.45298,31.3969 259.765774,31.155437 C259.197845,31.6110481 258.470152,31.8721778 257.685556,31.8404926 C256.013502,31.7738444 255.36569,30.0016593 255.436818,28.0721407 C253.94532,29.3002148 252.141953,29.8639926 251.072845,28.5780111 C250.571667,27.9749 250.336397,27.2384926 250.353906,26.5119185 C249.744394,26.1131222 249.271667,25.502363 249.058283,24.7473815 C248.605253,23.1390852 250.093468,21.9765667 251.952643,21.4477519 C250.322172,20.4108815 249.22899,18.8725111 250.123013,17.4608815 C250.542121,16.7976778 251.170236,16.3475296 251.868384,16.1388444 C252.059882,15.4374 252.495404,14.7993259 253.148687,14.3633815 C254.540606,13.4357704 256.107609,14.4901222 257.186566,16.0929556 C257.670236,14.2235296 258.79734,12.7091963 260.417963,13.1221963 C261.179579,13.3155852 261.803316,13.7733815 262.216953,14.3721222 C262.944646,14.3371593 263.68766,14.5534926 264.303737,15.0386037 C265.616869,16.0743815 265.097088,17.8880852 263.904327,19.4067889 C265.833535,19.2887889 267.624865,19.8919 267.732104,21.5591963 C267.783535,22.3414926 267.540606,23.0746222 267.098519,23.6526037 C267.356768,24.3321963 267.379747,25.1046593 267.107273,25.8399741 L267.107273,25.8399741 Z M258.821414,22.6430481 C258.85096,22.5829556 258.870657,22.5195852 258.879411,22.4562148 C258.91771,22.1961778 258.786397,21.9295852 258.536902,21.8072148 C258.288502,21.6837519 257.99633,21.7416593 257.812492,21.9306778 C257.767626,21.9765667 257.730421,22.0301037 257.699781,22.0891037 L258.821414,22.6430481 Z" id="Stroke-136" stroke="#D1D1D1" stroke-width="2" stroke-linecap="round" stroke-linejoin="round"></path>
                        <path d="M258.027079,29.3803019 C258.182466,29.4556907 258.245934,29.6436167 258.169335,29.7987648 C258.092736,29.9517278 257.905614,30.0161907 257.750227,29.9397093 C257.59484,29.8632278 257.531372,29.6763944 257.607971,29.5212463 C257.684571,29.3660981 257.872786,29.3038204 258.027079,29.3803019" id="Fill-137" fill="#D1D1D1"></path>
                        <path d="M257.460244,27.7072148 C257.615631,27.7836963 257.678005,27.9705296 257.601406,28.1256778 C257.525901,28.2797333 257.337685,28.3431037 257.183392,28.2677148 C257.028005,28.1901407 256.964537,28.0033074 257.041136,27.8492519 C257.117736,27.6941037 257.304857,27.6318259 257.460244,27.7072148" id="Fill-138" fill="#D1D1D1"></path>
                        <path d="M265.231246,24.6929704 C265.386633,24.7694519 265.450101,24.9562852 265.373502,25.1114333 C265.296902,25.2654889 265.108687,25.3288593 264.954394,25.2534704 C264.799007,25.1758963 264.735539,24.989063 264.812138,24.8350074 C264.888737,24.6798593 265.076953,24.6175815 265.231246,24.6929704" id="Fill-139" fill="#D1D1D1"></path>
                        <g id="Group-142" transform="translate(136.878788, 89.685185)">
                            <path d="M55.2946465,0.413983333 L55.2946465,4.31672407 C55.2946465,4.31672407 55.399697,6.93676111 51.6408586,6.93676111 L28.7781481,6.93676111 L27.2746128,6.93676111 L4.41190236,6.93676111 C0.653063973,6.93676111 0.758114478,4.31672407 0.758114478,4.31672407 L0.758114478,0.413983333" id="Fill-140" fill="#FBFBFB"></path>
                            <path d="M55.2946465,0.114802608 L55.2946465,2.06617298 C55.2946465,2.06617298 55.399697,3.3761915 51.6408586,3.3761915 L28.7781481,3.3761915 L27.2746128,3.3761915 L4.41190236,3.3761915 C0.653063973,3.3761915 0.758114478,2.06617298 0.758114478,2.06617298 L0.758114478,0.114802608" id="Fill-140" fill="#E3E3E3"></path>
                            <path d="M55.2946465,0.413983333 L55.2946465,4.31672407 C55.2946465,4.31672407 55.399697,6.93676111 51.6408586,6.93676111 L28.7781481,6.93676111 L27.2746128,6.93676111 L4.41190236,6.93676111 C0.653063973,6.93676111 0.758114478,4.31672407 0.758114478,4.31672407 L0.758114478,0.413983333" id="Stroke-141" stroke="#000000" stroke-width="2" stroke-linecap="round" stroke-linejoin="round"></path>
                        </g>
                        <g id="Group-145" transform="translate(136.878788, 104.981481)">
                            <polyline id="Fill-143" fill="#FFFFFF" points="5.93031987 6.29311481 0.757676768 6.29311481 0.757676768 0.709966667 5.92047138 0.709966667"></polyline>
                            <polyline id="Stroke-144" stroke="#000000" stroke-width="2" stroke-linecap="round" stroke-linejoin="round" points="5.93031987 6.29311481 0.757676768 6.29311481 0.757676768 0.709966667 5.92047138 0.709966667"></polyline>
                        </g>
                        <g id="Group-148" transform="translate(148.915825, 110.444444)">
                            <path d="M31.443367,0.830151852 L0.495050505,0.830151852" id="Fill-146" fill="#FFFFFF"></path>
                            <path d="M31.443367,0.830151852 L0.495050505,0.830151852" id="Stroke-147" stroke="#000000" stroke-width="2" stroke-linecap="round" stroke-linejoin="round"></path>
                        </g>
                        <g id="Group-151" transform="translate(139.215488, 104.981481)">
                            <polyline id="Fill-149" fill="#FFFFFF" points="48.1944529 0.70952963 52.9676852 0.70952963 52.9676852 6.29267778 48.1944529 6.29267778"></polyline>
                            <path d="M51.1444971,2.38851364 L0.494472722,2.68853195" id="Stroke-147" stroke="#E3E3E3" stroke-width="2" stroke-linecap="round" stroke-linejoin="round"></path>
                            <polyline id="Stroke-150" stroke="#000000" stroke-width="2" stroke-linecap="round" stroke-linejoin="round" points="48.1944529 0.70952963 52.9676852 0.70952963 52.9676852 6.29267778 48.1944529 6.29267778"></polyline>
                        </g>
                        <path d="M149.410547,105.691011 L180.540513,105.691011" id="Stroke-152" stroke="#000000" stroke-width="2" stroke-linecap="round" stroke-linejoin="round"></path>
                        <polygon id="Fill-153" fill="#FFFFFF" points="142.804293 140.818519 149.410438 140.818519 149.410438 96.6220556 142.804293 96.6220556"></polygon>
                        <polygon id="Fill-153" fill="#E3E3E3" points="142.804293 140.818519 146.107365 140.818519 146.107365 96.6220556 142.804293 96.6220556"></polygon>
                        <polygon id="Stroke-154" stroke="#000000" stroke-width="2" stroke-linecap="round" stroke-linejoin="round" points="142.804293 140.818519 149.410438 140.818519 149.410438 96.6220556 142.804293 96.6220556"></polygon>
                        <g id="Group-157" transform="translate(133.595960, 84.222222)">
                            <path d="M62.5447727,0.362740741 C62.5447727,0.362740741 62.2307155,5.87705556 58.5780219,5.87705556 L31.3994865,5.87705556 L31.218931,5.87705556 L4.0414899,5.87705556 C0.386607744,5.87705556 0.0736447811,0.362740741 0.0736447811,0.362740741" id="Fill-155" fill="#FFC83D"></path>
                            <path d="M62.5447727,0.362740741 C62.5447727,0.362740741 62.2307155,5.87705556 58.5780219,5.87705556 L31.3994865,5.87705556 L31.218931,5.87705556 L4.0414899,5.87705556 C0.386607744,5.87705556 0.0736447811,0.362740741 0.0736447811,0.362740741" id="Stroke-156" stroke="#000000" stroke-width="2" stroke-linecap="round" stroke-linejoin="round"></path>
                        </g>
                        <polygon id="Fill-158" fill="#FFFFFF" points="180 141.196463 186.606145 141.196463 186.606145 97 180 97"></polygon>
                        <polygon id="Fill-153" fill="#E3E3E3" points="180 141.196463 183.303072 141.196463 183.303072 97 180 97"></polygon>
                        <polygon id="Stroke-159" stroke="#000000" stroke-width="2" stroke-linecap="round" stroke-linejoin="round" points="180.399242 140.818519 187.005387 140.818519 187.005387 96.6220556 180.399242 96.6220556"></polygon>
                        <g id="Group-162" transform="translate(137.973064, 139.944444)">
                            <path d="M8.15257576,0.873855556 L11.4561953,0.873855556 C15.1876768,0.873855556 16.0226094,5.53813333 16.0226094,5.53813333 L8.15257576,5.53813333 L8.13397306,5.53813333 L0.263939394,5.53813333 C0.263939394,5.53813333 1.09887205,0.873855556 4.83144781,0.873855556 L8.13397306,0.873855556" id="Fill-160" fill="#FFFFFF"></path>
                            <path d="M8.15257576,0.873855556 L11.4561953,0.873855556 C15.1876768,0.873855556 16.0226094,5.53813333 16.0226094,5.53813333 L8.15257576,5.53813333 L8.13397306,5.53813333 L0.263939394,5.53813333 C0.263939394,5.53813333 1.09887205,0.873855556 4.83144781,0.873855556 L8.13397306,0.873855556" id="Stroke-161" stroke="#000000" stroke-width="2" stroke-linecap="round" stroke-linejoin="round"></path>
                        </g>
                        <g id="Group-165" transform="translate(175.178451, 139.944444)">
                            <path d="M8.57846801,0.873855556 L11.8820875,0.873855556 C15.613569,0.873855556 16.4485017,5.53813333 16.4485017,5.53813333 L8.57846801,5.53813333 L8.55986532,5.53813333 L0.68983165,5.53813333 C0.68983165,5.53813333 1.52476431,0.873855556 5.25734007,0.873855556 L8.55986532,0.873855556" id="Fill-163" fill="#FFFFFF"></path>
                            <path d="M8.57846801,0.873855556 L11.8820875,0.873855556 C15.613569,0.873855556 16.4485017,5.53813333 16.4485017,5.53813333 L8.57846801,5.53813333 L8.55986532,5.53813333 L0.68983165,5.53813333 C0.68983165,5.53813333 1.52476431,0.873855556 5.25734007,0.873855556 L8.55986532,0.873855556" id="Stroke-164" stroke="#000000" stroke-width="2" stroke-linecap="round" stroke-linejoin="round"></path>
                        </g>
                        <polygon id="Fill-166" fill="#FFC83D" points="160.551263 105.691667 169.633754 105.691667 169.633754 96.6220556 160.551263 96.6220556"></polygon>
                        <polygon id="Stroke-167" stroke="#000000" stroke-width="2" stroke-linecap="round" stroke-linejoin="round" points="160.551263 105.691667 169.633754 105.691667 169.633754 96.6220556 160.551263 96.6220556"></polygon>
                        <path d="M200.83835,80.1388759 C200.83835,80.1388759 199.995758,83.6832463 194.568148,83.6832463 L164.995337,83.6832463 L135.24197,83.6832463 C129.813266,83.6832463 128.971768,80.1388759 128.971768,80.1388759" id="Stroke-168" stroke="#000000" stroke-width="2" stroke-linecap="round" stroke-linejoin="round"></path>
                        <path d="M200.839992,131.763876 C200.839992,131.763876 200.312551,134.097654 200.312551,136.086172 C200.312551,136.086172 199.916423,140.614969 204.741086,140.614969 L224.338476,140.614969 C229.16314,140.614969 228.762635,136.086172 228.762635,136.086172 C228.762635,134.097654 228.228628,131.756228 228.228628,131.756228 C228.228628,131.756228 226.583931,124.633617 213.760109,124.633617 C213.760109,124.633617 203.356827,123.734413 200.839992,131.763876" id="Fill-169" fill="#FFFFFF"></path>
                        <path d="M200.316473,135.781712 C200.364627,133.867232 200.839992,131.763876 200.839992,131.763876 C203.356827,123.734413 213.760109,124.633617 213.760109,124.633617 C226.583931,124.633617 228.228628,131.756228 228.228628,131.756228 C228.228628,131.756228 228.762635,134.097654 228.762635,136.086172 C228.762635,136.086172 228.781035,136.294243 228.762436,136.621186 C228.157202,136.29977 227.639591,135.729506 227.307904,134.973604 C225.059167,129.853715 220.764133,129.359863 220.311103,129.403567 C220.197298,129.419956 209.43181,129.667974 209.43181,129.667974 C204.57213,129.667974 201.279453,134.743067 201.247719,134.797696 C200.994828,135.223831 200.674834,135.552182 200.316473,135.781712 Z" id="Combined-Shape" fill="#E3E3E3"></path>
                        <path d="M200.839992,131.763876 C200.839992,131.763876 200.312551,134.097654 200.312551,136.086172 C200.312551,136.086172 199.916423,140.614969 204.741086,140.614969 L224.338476,140.614969 C229.16314,140.614969 228.762635,136.086172 228.762635,136.086172 C228.762635,134.097654 228.228628,131.756228 228.228628,131.756228 C228.228628,131.756228 226.583931,124.633617 213.760109,124.633617 C213.760109,124.633617 203.356827,123.734413 200.839992,131.763876 L200.839992,131.763876 Z" id="Stroke-170" stroke="#000000" stroke-width="2" stroke-linecap="round" stroke-linejoin="round"></path>
                        <path d="M229.925412,132.917326 C228.845362,132.917326 227.838628,132.183104 227.307904,130.973604 C225.059167,125.853715 220.764133,125.359863 220.311103,125.403567 C220.197298,125.419956 209.43181,125.667974 209.43181,125.667974 C204.57213,125.667974 201.279453,130.743067 201.247719,130.797696 C200.326338,132.35027 198.514217,132.604844 197.201086,131.511159 C195.887955,130.420752 195.570614,128.445344 196.493089,126.890585 C196.694436,126.552974 201.508157,118.762789 209.43181,118.762789 L219.896372,118.762789 C223.744941,118.762789 229.278695,119.759233 232.538544,128.212622 C233.204958,129.940011 232.631557,131.862974 231.187113,132.688974 C230.780042,132.922789 230.348897,132.917326 229.925412,132.917326" id="Fill-171" fill="#FFC83D"></path>
                        <path d="M229.925412,132.917326 C228.845362,132.917326 227.838628,132.183104 227.307904,130.973604 C225.059167,125.853715 220.764133,125.359863 220.311103,125.403567 C220.197298,125.419956 209.43181,125.667974 209.43181,125.667974 C204.57213,125.667974 201.279453,130.743067 201.247719,130.797696 C200.326338,132.35027 198.514217,132.604844 197.201086,131.511159 C195.887955,130.420752 195.570614,128.445344 196.493089,126.890585 C196.694436,126.552974 201.508157,118.762789 209.43181,118.762789 L219.896372,118.762789 C223.744941,118.762789 229.278695,119.759233 232.538544,128.212622 C233.204958,129.940011 232.631557,131.862974 231.187113,132.688974 C230.780042,132.922789 230.348897,132.917326 229.925412,132.917326 L229.925412,132.917326 Z" id="Stroke-172" stroke="#000000" stroke-width="2" stroke-linecap="round" stroke-linejoin="round"></path>
                        <polygon id="Fill-173" fill="#FBFBFB" points="211.013805 140.510407 217.835522 140.510407 217.835522 119.209222 211.013805 119.209222"></polygon>
                        <polygon id="Stroke-174" stroke="#000000" stroke-width="2" stroke-linecap="round" stroke-linejoin="round" points="211.013805 140.510407 217.835522 140.510407 217.835522 119.209222 211.013805 119.209222"></polygon>
                    </g>
                </g>
            </g>
        </g>
    </g>
</svg>