<?xml version="1.0" encoding="utf-8"?>
<!-- Generator: Adobe Illustrator 16.0.2, SVG Export Plug-In . SVG Version: 6.00 Build 0)  -->
<!DOCTYPE svg PUBLIC "-//W3C//DTD SVG 1.1//EN" "http://www.w3.org/Graphics/SVG/1.1/DTD/svg11.dtd">
<svg version="1.1" id="Layer_1" xmlns="http://www.w3.org/2000/svg" xmlns:xlink="http://www.w3.org/1999/xlink" x="0px" y="0px"
	 width="576px" height="173px" viewBox="0 0 576 173" enable-background="new 0 0 576 173" xml:space="preserve">
<title>17D605AB-B677-4C28-ABC8-431E1677DFEB</title>
<desc>Created with sketchtool.</desc>
<g id="Page-1_1_">
	<g id="_x31_07_x5F_M2U_x5F_Planner_x5F_Travel" transform="translate(-704.000000, -236.000000)">
		<g id="Group-15" transform="translate(706.000000, 237.000000)">
			<g id="Page-1" transform="translate(130.000000, 0.000000)">
				<polygon id="Fill-1" fill="#FFFFFF" points="278.745,104.15 365.361,104.15 365.361,96.758 278.745,96.758 				"/>
				<path id="Path-14-Copy" fill="#E3E3E3" d="M289.473,98.171l-4.677,1.492c0,0-1.962,0.76-1.962,2.549s-0.065,27.482-0.065,27.482
					h-3.233l0.057-31.806L289.473,98.171z"/>
				<polygon id="Fill-2" fill="#FFFFFF" points="283.701,96.065 365.361,96.065 365.361,82.641 283.701,82.641 				"/>
				<path id="Path-13" fill="#E3E3E3" d="M289.384,96.61l0.26-6.389c0,0,0.789-1.02,3.521-0.51s34.831,3.291,64.831-0.77
					s-3.983-6.833-3.983-6.833l-69.933,2.598l-0.066,11.382L289.384,96.61z"/>
				<polygon id="Fill-3" fill="#FFFFFF" points="293.637,76.757 355.761,76.757 355.761,63.334 293.637,63.334 				"/>
				<path id="Path-13_1_" fill="#E3E3E3" d="M297.16,76.534l0.2-5.915c0,0,0.609-0.944,2.719-0.472
					c2.109,0.472,26.893,3.047,50.055-0.712s-3.076-6.326-3.076-6.326l-53.993,2.405l-0.051,10.537L297.16,76.534z"/>
				<path id="Fill-4" fill="#FFFFFF" d="M77.698,148.505h303.114H77.698z"/>
				<path id="Stroke-5" fill="none" stroke="#E2E2E2" stroke-width="12" stroke-linecap="round" stroke-linejoin="round" d="M78,149
					h303.114"/>
				<path id="Stroke-5-Copy" fill="none" stroke="#E2E2E2" stroke-width="12" stroke-linecap="round" stroke-linejoin="round" d="
					M0,149h52.086"/>
				<path id="Fill-7" fill="#FFFFFF" d="M95.283,157.851h123.942H95.283z"/>
				<path id="Stroke-8" fill="none" stroke="#000000" stroke-width="2" stroke-linecap="round" stroke-linejoin="round" d="
					M219.225,157.851H95.283"/>
				<path id="Stroke-82-Copy-3" fill="none" stroke="#000000" stroke-width="2" stroke-linecap="round" stroke-linejoin="round" d="
					M349.685,170.771h-61.281"/>
				<path id="Stroke-82-Copy-4" fill="none" stroke="#000000" stroke-width="2" stroke-linecap="round" stroke-linejoin="round" d="
					M279.589,170.771h-36.811"/>
				
					<path id="Stroke-82-Copy-3_1_" fill="none" stroke="#000000" stroke-width="2" stroke-linecap="round" stroke-linejoin="round" d="
					M375.199,170.771h-16.69"/>
				<path id="Stroke-82-Copy-5" fill="none" stroke="#000000" stroke-width="2" stroke-linecap="round" stroke-linejoin="round" d="
					M233.896,170.771h-10.076"/>
				<path id="Fill-9" fill="#FFFFFF" d="M228.022,157.851h29.928H228.022z"/>
				<path id="Stroke-10" fill="none" stroke="#000000" stroke-width="2" stroke-linecap="round" stroke-linejoin="round" d="
					M257.949,157.851h-29.927"/>
				<path id="Fill-11" fill="#FFFFFF" d="M266.687,157.851h76.191H266.687z"/>
				<path id="Stroke-12" fill="none" stroke="#000000" stroke-width="2" stroke-linecap="round" stroke-linejoin="round" d="
					M342.878,157.851h-76.191"/>
				<g id="Group-175" transform="translate(70.000000, 0.000000)">
					<path id="Stroke-27" fill="none" stroke="#DDDDDD" stroke-width="2" stroke-linecap="round" stroke-linejoin="round" d="
						M220.354,62.221c0-34.093-27.681-61.732-61.826-61.732c-0.268,0-0.532,0.007-0.798,0.01
						c-16.704,0.423-30.116,14.076-30.116,30.856c0,17.046,13.841,30.866,30.914,30.866c17.072,0,30.913,13.818,30.913,30.866
						c0,16.78-13.41,30.433-30.115,30.854C193.103,123.516,220.354,96.048,220.354,62.221L220.354,62.221z"/>
					<path id="Stroke-25" fill="none" stroke="#DDDDDD" stroke-width="2" stroke-linecap="round" stroke-linejoin="round" d="
						M157.729,0.499c-33.776,0.428-61.029,27.895-61.029,61.722c0,34.094,27.682,61.731,61.827,61.731
						c0.269,0,0.533-0.007,0.799-0.011"/>
					<path id="Fill-29" fill="#E8E8E8" d="M158.527,23.304c4.453,0,8.064,3.604,8.064,8.051s-3.611,8.051-8.064,8.051
						c-4.454,0-8.065-3.604-8.065-8.051S154.073,23.304,158.527,23.304"/>
					<path id="Fill-31" fill="#E8E8E8" d="M158.527,85.035c4.453,0,8.064,3.604,8.064,8.051c0,4.447-3.611,8.052-8.064,8.052
						c-4.454,0-8.065-3.604-8.065-8.052C150.462,88.64,154.073,85.035,158.527,85.035"/>
					<path id="Stroke-33" fill="none" stroke="#000000" stroke-width="2" stroke-linecap="round" stroke-linejoin="round" d="
						M285.76,74.929V65.77"/>
					<path id="Stroke-35" fill="none" stroke="#000000" stroke-width="2" stroke-linecap="round" stroke-linejoin="round" d="
						M295.515,96.108V85.105"/>
					<path id="Stroke-37" fill="none" stroke="#000000" stroke-width="2" stroke-linecap="round" stroke-linejoin="round" d="
						M300.649,92.674v12.212"/>
					<path id="Fill-39" fill="#FFC83D" d="M232.363,56.039c0,0-7.188,8.585-21.051,8.585c0,0,6.676,2.29,45.182,2.29H252.9
						c38.508,0,45.182-2.29,45.182-2.29c-13.862,0-21.05-8.585-21.05-8.585H232.363z"/>
					<path id="Stroke-41" fill="none" stroke="#000000" stroke-width="2" stroke-linecap="round" stroke-linejoin="round" d="
						M232.363,56.039c0,0-7.188,8.585-21.051,8.585c0,0,6.676,2.29,45.182,2.29H252.9c38.508,0,45.182-2.29,45.182-2.29
						c-13.862,0-21.05-8.585-21.05-8.585H232.363L232.363,56.039z"/>
					<path id="Fill-43" fill="#FBFBFB" d="M223.122,74.929c0,0-6.161,8.587-20.023,8.587c0,0,14.205,3.434,53.396,3.434H252.9
						c39.191,0,53.397-3.434,53.397-3.434c-13.863,0-20.024-8.587-20.024-8.587H223.122z"/>
					<path id="Stroke-45" fill="none" stroke="#000000" stroke-width="2" stroke-linecap="round" stroke-linejoin="round" d="
						M223.122,74.929c0,0-6.161,8.587-20.023,8.587c0,0,14.205,3.434,53.396,3.434H252.9c39.191,0,53.397-3.434,53.397-3.434
						c-13.863,0-20.024-8.587-20.024-8.587H223.122L223.122,74.929z"/>
					<path id="Stroke-47" fill="none" stroke="#000000" stroke-width="2" stroke-linecap="round" stroke-linejoin="round" d="
						M223.636,74.929v-8.014"/>
					<path id="Stroke-49" fill="none" stroke="#000000" stroke-width="2" stroke-linecap="round" stroke-linejoin="round" d="
						M213.881,96.108V85.105"/>
					<path id="Stroke-51" fill="none" stroke="#000000" stroke-width="2" stroke-linecap="round" stroke-linejoin="round" d="
						M208.746,92.674v12.212"/>
					<g id="Group-56" transform="translate(208.006734, 96.240741)">
						<path id="Fill-53" fill="#FFFFFF" d="M0.739,0.822h91.903"/>
						<path id="Stroke-55" fill="none" stroke="#000000" stroke-width="2" stroke-linecap="round" stroke-linejoin="round" d="
							M0.739,0.822h91.903"/>
					</g>
					<g id="Group-60" transform="translate(202.535354, 103.888889)">
						<polyline id="Fill-57" fill="#FFFFFF" points="0.563,37.251 0.563,0.996 53.96,0.996 50.366,0.996 103.763,0.996 
							103.763,37.251 						"/>
						<path id="Path-15" fill="#E3E3E3" d="M20.181,15.058c0,0,9.486-0.701,11.988,3.281c2.502,3.984,3.487,9.709,2.328,11.065
							s-3.656,1.495-3.656,2.64s1.063,3.7-0.452,4.936c-1.516,1.236-9.04,0.023-9.04,0.023l-8.092-1.77l1.867-7.447L20.181,15.058z"
							/>
						<path id="Path-14" fill="#E3E3E3" d="M10.937,1.282L6.261,2.774c0,0-1.962,0.76-1.962,2.549S4.233,32.805,4.233,32.805H1
							L1.056,1L10.937,1.282z"/>
						
							<polyline id="Stroke-59" fill="none" stroke="#000000" stroke-width="2" stroke-linecap="round" stroke-linejoin="round" points="
							0.563,37.251 0.563,0.996 53.96,0.996 50.366,0.996 103.763,0.996 103.763,37.251 						"/>
					</g>
					<g id="Group-64" transform="translate(244.117845, 112.629630)">
						<path id="Fill-61" fill="#E3E3E3" d="M5,28.858V10.731C5,10.731,5.342,1,15.952,1h-0.962c10.612,0,10.954,9.73,10.954,9.73
							v18.127"/>
						<path id="Fill-61_1_" fill="#FFC83D" d="M0.331,28.51V10.382c0,0,0.343-9.73,10.953-9.73h-0.962
							c10.612,0,10.954,9.73,10.954,9.73V28.51"/>
						<path id="Stroke-63" fill="none" stroke="#000000" stroke-width="2" stroke-linecap="round" stroke-linejoin="round" d="
							M0.331,28.51V10.382c0,0,0.343-9.73,10.953-9.73h-0.962c10.612,0,10.954,9.73,10.954,9.73V28.51"/>
					</g>
					<path id="Stroke-65" fill="none" stroke="#000000" stroke-width="2" stroke-linecap="round" stroke-linejoin="round" d="
						M316.639,141.14H194.666"/>
					<polygon id="Fill-67" fill="#FFC83D" points="313.652,119.035 313.652,106.531 300.927,104.453 288.201,106.531 
						288.201,119.035 300.927,121.113 					"/>
					
						<polygon id="Stroke-69" fill="none" stroke="#000000" stroke-width="2" stroke-linecap="round" stroke-linejoin="round" points="
						313.652,119.035 313.652,106.531 300.927,104.453 288.201,106.531 288.201,119.035 300.927,121.113 					"/>
					<path id="Fill-71" fill="#FFC83D" d="M306.177,95.469l-5.25-1.039l-5.252,1.039c-4.381,1.768-7.474,6.054-7.474,11.063h25.451
						C313.652,101.522,310.559,97.236,306.177,95.469"/>
					<path id="Stroke-73" fill="none" stroke="#000000" stroke-width="2" stroke-linecap="round" stroke-linejoin="round" d="
						M306.177,95.469l-5.25-1.039l-5.252,1.039c-4.381,1.768-7.474,6.054-7.474,11.063h25.451
						C313.652,101.522,310.559,97.236,306.177,95.469L306.177,95.469z"/>
					<path id="Fill-75" fill="#FFC83D" d="M288.201,119.035c0,5.01,3.092,9.297,7.475,11.063l5.251,1.039l5.25-1.039
						c4.383-1.766,7.475-6.053,7.475-11.063H288.201z"/>
					<path id="Stroke-77" fill="none" stroke="#000000" stroke-width="2" stroke-linecap="round" stroke-linejoin="round" d="
						M288.201,119.035c0,5.01,3.092,9.297,7.475,11.063l5.251,1.039l5.25-1.039c4.383-1.766,7.475-6.053,7.475-11.063H288.201
						L288.201,119.035z"/>
					<path id="Fill-79" fill="#FFFFFF" d="M300.845,88.242c1.242,0,2.253,1.01,2.253,2.251v1.183h-4.508v-1.183
						C298.59,89.252,299.602,88.242,300.845,88.242 M300.927,85.173c-2.896,0-5.252,2.352-5.252,5.244v5.051h10.502v-5.051
						C306.177,87.525,303.822,85.173,300.927,85.173"/>
					<path id="Stroke-81" fill="none" stroke="#000000" stroke-width="2" stroke-linecap="round" stroke-linejoin="round" d="
						M300.845,88.242c1.242,0,2.253,1.01,2.253,2.251v1.183h-4.508v-1.183C298.59,89.252,299.602,88.242,300.845,88.242
						L300.845,88.242z M300.927,85.173c-2.896,0-5.252,2.352-5.252,5.244v5.051h10.502v-5.051
						C306.177,87.525,303.822,85.173,300.927,85.173L300.927,85.173z"/>
					<polygon id="Fill-83" fill="#FFFFFF" points="295.676,133.214 306.178,133.214 306.178,130.098 295.676,130.098 					"/>
					
						<polygon id="Stroke-85" fill="none" stroke="#000000" stroke-width="2" stroke-linecap="round" stroke-linejoin="round" points="
						295.676,133.214 306.178,133.214 306.178,130.098 295.676,130.098 					"/>
					<path id="Stroke-86" fill="none" stroke="#000000" stroke-width="2" stroke-linecap="round" stroke-linejoin="round" d="
						M77.703,22.234v7.894"/>
					<g id="Group-89" transform="translate(49.336700, 30.685185)">
						<polyline id="Fill-87" fill="#FFC83D" points="56.318,17.974 28.29,0.668 0.261,17.974 						"/>
						
							<polyline id="Stroke-88" fill="none" stroke="#000000" stroke-width="2" stroke-linecap="round" stroke-linejoin="round" points="
							56.318,17.974 28.29,0.668 0.261,17.974 						"/>
					</g>
					<polygon id="Fill-90" fill="#FFFFFF" points="56.441,60.225 97.845,60.225 97.845,49.37 56.441,49.37 					"/>
					<polygon id="Fill-90_1_" fill="#E3E3E3" points="56.441,53.49 97.845,53.49 97.845,49.37 56.441,49.37 					"/>
					<path id="Path-14_1_" fill="#E3E3E3" d="M68.331,51.194l-4.677,1.492c0,0-1.962,0.76-1.962,2.549s0,7.042,0,7.042h-5.233
						V49.914L68.331,51.194z"/>
					
						<polygon id="Stroke-91" fill="none" stroke="#000000" stroke-width="2" stroke-linecap="round" stroke-linejoin="round" points="
						56.441,60.225 97.845,60.225 97.845,49.37 56.441,49.37 					"/>
					<polygon id="Fill-92" fill="#FFFFFF" points="47.488,92.788 107.917,92.788 107.917,77.987 47.488,77.987 					"/>
					<polygon id="Fill-92_1_" fill="#E3E3E3" points="47.488,82.997 107.917,82.997 107.917,77.987 47.488,77.987 					"/>
					<path id="Path-14_2_" fill="#E3E3E3" d="M59.331,81.194l-4.677,1.492c0,0-1.962,0.76-1.962,2.549s0,7.042,0,7.042h-5.233
						V79.914L59.331,81.194z"/>
					
						<polygon id="Stroke-93" fill="none" stroke="#000000" stroke-width="2" stroke-linecap="round" stroke-linejoin="round" points="
						47.488,92.788 107.917,92.788 107.917,77.987 47.488,77.987 					"/>
					<polygon id="Fill-94" fill="#FFFFFF" points="37.417,141.14 117.987,141.14 117.987,109.564 37.417,109.564 					"/>
					<polygon id="Fill-94_1_" fill="#E3E3E3" points="37,115.014 53.13,115.014 53.13,107 37,107 					"/>
					<path id="Path-14_3_" fill="#E3E3E3" d="M48.872,114.28l-4.677,1.492c0,0-1.962,0.76-1.962,2.549v22.835H37V113L48.872,114.28z
						"/>
					<polygon id="Fill-94_2_" fill="#E3E3E3" points="103,115.014 119.13,115.014 119.13,107 103,107 					"/>
					<path id="Path-14_4_" fill="#E3E3E3" d="M114.872,114.28l-4.677,1.492c0,0-1.962,0.76-1.962,2.549v22.835H103V113
						L114.872,114.28z"/>
					
						<polygon id="Stroke-95" fill="none" stroke="#000000" stroke-width="2" stroke-linecap="round" stroke-linejoin="round" points="
						37.417,141.14 117.987,141.14 117.987,109.564 37.417,109.564 					"/>
					<g id="Group-98" transform="translate(41.676768, 60.185185)">
						<polyline id="Fill-96" fill="#FBFBFB" points="69.639,16.891 59.276,0.039 10.585,0.039 0.333,16.511 						"/>
						
							<polyline id="Stroke-97" fill="none" stroke="#000000" stroke-width="2" stroke-linecap="round" stroke-linejoin="round" points="
							69.639,16.891 59.276,0.039 10.585,0.039 0.333,16.511 						"/>
					</g>
					<path id="Stroke-99" fill="none" stroke="#000000" stroke-width="2" stroke-linecap="round" stroke-linejoin="round" d="
						M121.941,69.997c0,0-0.881,7.99-13.482,7.99H44.756c-12.602,0-13.483-7.965-13.483-7.965"/>
					<g id="Group-102" transform="translate(31.828283, 91.870370)">
						<polyline id="Fill-100" fill="#FFFFFF" points="89.262,16.837 79.392,0.918 11.191,0.918 0.927,17.332 						"/>
						
							<polyline id="Stroke-101" fill="none" stroke="#000000" stroke-width="2" stroke-linecap="round" stroke-linejoin="round" points="
							89.262,16.837 79.392,0.918 11.191,0.918 0.927,17.332 						"/>
					</g>
					<path id="Stroke-103" fill="none" stroke="#000000" stroke-width="2" stroke-linecap="round" stroke-linejoin="round" d="
						M131.183,101.898c0,0-0.881,7.665-13.482,7.665H34.488c-12.602,0-13.484-7.802-13.484-7.802"/>
					<path id="Stroke-104" fill="none" stroke="#000000" stroke-width="2" stroke-linecap="round" stroke-linejoin="round" d="
						M113.032,41.428c0,0-0.689,7.943-10.547,7.943h-49.83c-9.858,0-10.547-7.941-10.547-7.941"/>
					<g id="Group-107" transform="translate(0.094276, 141.037037)">
						<path id="Fill-105" fill="#FFFFFF" d="M205.275,0.103H0.001"/>
						<path id="Stroke-106" fill="none" stroke="#000000" stroke-width="2" stroke-linecap="round" stroke-linejoin="round" d="
							M205.275,0.103H0.001"/>
					</g>
					<g id="Group-110" transform="translate(51.525253, 119.185185)">
						<path id="Fill-108" fill="#FFFFFF" d="M50.237,0.245H0.998"/>
						<path id="Stroke-109" fill="none" stroke="#000000" stroke-width="2" stroke-linejoin="round" d="M50.237,0.245H0.998"/>
					</g>
					<polygon id="Fill-111" fill="#FBFBFB" points="53.076,141.14 103.661,141.14 103.661,119.432 53.076,119.432 					"/>
					
						<polygon id="Stroke-112" fill="none" stroke="#000000" stroke-width="2" stroke-linecap="round" stroke-linejoin="round" points="
						53.076,141.14 103.661,141.14 103.661,119.432 53.076,119.432 					"/>
					<g id="Group-115" transform="translate(77.693603, 119.185185)">
						<path id="Fill-113" fill="#FFFFFF" d="M0.009,22.342V0.741"/>
						<path id="Stroke-114" fill="none" stroke="#000000" stroke-width="2" stroke-linejoin="round" d="M0.009,22.342V0.741"/>
					</g>
					<polygon id="Fill-116" fill="#FFC83D" points="53.311,119.855 103.648,119.855 103.648,110.021 53.311,110.021 					"/>
					
						<polygon id="Stroke-117" fill="none" stroke="#000000" stroke-width="2" stroke-linecap="round" stroke-linejoin="round" points="
						53.311,119.855 103.648,119.855 103.648,110.021 53.311,110.021 					"/>
					<path id="Stroke-118" fill="none" stroke="#D1D1D1" stroke-width="2" stroke-linecap="round" stroke-linejoin="round" d="
						M293.068,41.417c0.005-0.464,0.1-1.263,0.609-1.897c0.554-0.689,2.599-2.205,3.978-2.289"/>
					<path id="Stroke-119" fill="none" stroke="#D1D1D1" stroke-width="2" stroke-linecap="round" stroke-linejoin="round" d="
						M286.549,37.542c0.67-0.009,5.008,1.163,5.392,4.041"/>
					<path id="Stroke-120" fill="none" stroke="#D1D1D1" stroke-width="2" stroke-linecap="round" stroke-linejoin="round" d="
						M50.643,14.829c0.005-0.464,0.099-1.263,0.609-1.896c0.554-0.691,2.598-2.206,3.978-2.289"/>
					<path id="Stroke-121" fill="none" stroke="#D1D1D1" stroke-width="2" stroke-linecap="round" stroke-linejoin="round" d="
						M44.124,10.953c0.669-0.008,5.007,1.162,5.393,4.041"/>
					<path id="Fill-122" fill="#FFC83D" d="M28.002,103.089c-2.046,3.102-4.676,4.778-7.353,5.031
						c0.167-4.058,1.273-8.045,3.318-11.146c2.046-3.101,4.676-4.776,7.354-5.03C31.153,96.002,30.048,99.988,28.002,103.089"/>
					<path id="Stroke-123" fill="none" stroke="#000000" stroke-width="2" stroke-linecap="round" stroke-linejoin="round" d="
						M28.002,103.089c-2.046,3.102-4.676,4.778-7.353,5.031c0.167-4.058,1.273-8.045,3.318-11.146
						c2.046-3.101,4.676-4.776,7.354-5.03C31.153,96.002,30.048,99.988,28.002,103.089L28.002,103.089z"/>
					<path id="Fill-124" fill="#FFC83D" d="M5.602,116.954c2.046,3.103,4.675,4.778,7.353,5.03
						c-0.167-4.057-1.273-8.043-3.318-11.146c-2.046-3.101-4.676-4.776-7.354-5.03C2.451,109.867,3.556,113.854,5.602,116.954"/>
					<path id="Stroke-125" fill="none" stroke="#000000" stroke-width="2" stroke-linecap="round" stroke-linejoin="round" d="
						M5.602,116.954c2.046,3.103,4.675,4.778,7.353,5.03c-0.167-4.057-1.273-8.043-3.318-11.146
						c-2.046-3.101-4.676-4.776-7.354-5.03C2.451,109.867,3.556,113.854,5.602,116.954L5.602,116.954z"/>
					<polygon id="Fill-126" fill="#FBFBFB" points="13,120.207 19.746,120.207 19.746,100 13,100 					"/>
					<polygon id="Fill-130" fill="#E3E3E3" points="13,120.207 15.75,120.207 15.75,100 13,100 					"/>
					
						<polygon id="Stroke-127" fill="none" stroke="#000000" stroke-width="2" stroke-linecap="round" stroke-linejoin="round" points="
						12.954,120.609 19.7,120.609 19.7,100.401 12.954,100.401 					"/>
					<polygon id="Fill-128" fill="#FFFFFF" points="13,100.207 19.746,100.207 19.746,80 13,80 					"/>
					<polygon id="Fill-130_1_" fill="#E3E3E3" points="13,100.207 15.75,100.207 15.75,80 13,80 					"/>
					
						<polygon id="Stroke-129" fill="none" stroke="#000000" stroke-width="2" stroke-linecap="round" stroke-linejoin="round" points="
						12.954,100.504 19.7,100.504 19.7,80.298 12.954,80.298 					"/>
					<polygon id="Fill-130_2_" fill="#FFFFFF" points="12.954,140.783 19.7,140.783 19.7,120.576 12.954,120.576 					"/>
					<polygon id="Fill-130_3_" fill="#E3E3E3" points="12.954,140.783 15.704,140.783 15.704,120.576 12.954,120.576 					"/>
					
						<polygon id="Stroke-131" fill="none" stroke="#000000" stroke-width="2" stroke-linecap="round" stroke-linejoin="round" points="
						12.954,140.783 19.7,140.783 19.7,120.576 12.954,120.576 					"/>
					<path id="Stroke-132" fill="none" stroke="#D1D1D1" stroke-width="2" stroke-linecap="round" stroke-linejoin="round" d="
						M23.366,50.199c0.114,1.075-0.964,1.656-2.209,1.791c0.928,0.839,1.458,1.941,0.733,2.745
						c-0.341,0.378-0.791,0.598-1.259,0.654c-0.199,0.427-0.547,0.788-1.012,0.993c-0.989,0.441-1.875-0.403-2.388-1.544
						c-0.515,1.141-1.4,1.985-2.39,1.544c-0.464-0.206-0.812-0.566-1.011-0.993c-0.468-0.057-0.919-0.276-1.259-0.654
						c-0.725-0.803-0.195-1.906,0.733-2.745c-1.245-0.135-2.322-0.716-2.209-1.791c0.053-0.506,0.289-0.947,0.634-1.267
						c-0.091-0.463-0.021-0.958,0.233-1.399c0.542-0.938,1.755-0.773,2.842-0.152c-0.257-1.225-0.037-2.426,1.023-2.651
						c0.497-0.106,0.992-0.019,1.404,0.21c0.412-0.229,0.905-0.316,1.403-0.21c1.06,0.225,1.279,1.427,1.023,2.651
						c1.088-0.622,2.3-0.786,2.842,0.152c0.254,0.44,0.324,0.936,0.233,1.399C23.078,49.252,23.313,49.693,23.366,50.199
						L23.366,50.199z M17.636,50.716c0-0.044-0.008-0.085-0.02-0.126c-0.052-0.162-0.206-0.278-0.385-0.278
						c-0.181,0-0.334,0.117-0.385,0.278c-0.013,0.041-0.021,0.082-0.021,0.126H17.636z"/>
					<path id="Fill-133" fill="#D1D1D1" d="M19.11,54.855c0.112,0,0.203,0.091,0.203,0.203c0,0.112-0.091,0.201-0.203,0.201
						c-0.111,0-0.202-0.089-0.202-0.201C18.908,54.946,18.999,54.855,19.11,54.855"/>
					<path id="Fill-134" fill="#D1D1D1" d="M18.3,54.047c0.112,0,0.203,0.091,0.203,0.203c0,0.11-0.091,0.201-0.203,0.201
						c-0.112,0-0.202-0.091-0.202-0.201C18.098,54.138,18.188,54.047,18.3,54.047"/>
					<path id="Fill-135" fill="#D1D1D1" d="M21.947,50.07c0.111,0,0.202,0.091,0.202,0.203c0,0.11-0.091,0.201-0.202,0.201
						c-0.112,0-0.203-0.091-0.203-0.201C21.745,50.161,21.836,50.07,21.947,50.07"/>
					<path id="Stroke-136" fill="none" stroke="#D1D1D1" stroke-width="2" stroke-linecap="round" stroke-linejoin="round" d="
						M267.107,25.84c-0.58,1.568-2.469,1.635-4.284,0.972c0.709,1.795,0.688,3.682-0.867,4.299c-0.729,0.291-1.503,0.286-2.19,0.044
						c-0.567,0.456-1.296,0.717-2.08,0.685c-1.672-0.066-2.32-1.839-2.249-3.768c-1.491,1.228-3.295,1.792-4.363,0.506
						c-0.502-0.603-0.737-1.34-0.72-2.066c-0.609-0.398-1.082-1.009-1.295-1.764c-0.453-1.608,1.035-2.771,2.895-3.3
						c-1.631-1.037-2.725-2.575-1.83-3.987c0.419-0.663,1.047-1.113,1.745-1.322c0.191-0.701,0.627-1.339,1.28-1.775
						c1.393-0.928,2.959,0.127,4.038,1.729c0.483-1.869,1.61-3.384,3.231-2.971c0.762,0.193,1.386,0.651,1.799,1.25
						c0.728-0.035,1.471,0.182,2.087,0.667c1.313,1.036,0.793,2.85-0.399,4.368c1.93-0.118,3.721,0.485,3.828,2.152
						c0.051,0.782-0.191,1.516-0.634,2.093C267.357,24.332,267.38,25.104,267.107,25.84L267.107,25.84z M258.821,22.643
						c0.029-0.06,0.05-0.124,0.059-0.187c0.038-0.26-0.094-0.526-0.343-0.649c-0.249-0.124-0.541-0.065-0.725,0.124
						c-0.045,0.046-0.082,0.1-0.112,0.158L258.821,22.643z"/>
					<path id="Fill-137" fill="#D1D1D1" d="M258.027,29.38c0.155,0.075,0.219,0.263,0.142,0.418
						c-0.076,0.153-0.264,0.217-0.419,0.141c-0.155-0.076-0.219-0.263-0.142-0.418C257.685,29.366,257.873,29.304,258.027,29.38"/>
					<path id="Fill-138" fill="#D1D1D1" d="M257.46,27.707c0.155,0.077,0.218,0.264,0.142,0.418
						c-0.075,0.154-0.264,0.218-0.418,0.142c-0.155-0.078-0.219-0.264-0.143-0.418C257.118,27.694,257.305,27.632,257.46,27.707"/>
					<path id="Fill-139" fill="#D1D1D1" d="M265.232,24.693c0.155,0.077,0.219,0.263,0.142,0.418
						c-0.076,0.154-0.265,0.218-0.419,0.142c-0.155-0.078-0.219-0.264-0.142-0.418C264.889,24.68,265.077,24.618,265.232,24.693"/>
					<g id="Group-142" transform="translate(136.878788, 89.685185)">
						<path id="Fill-140" fill="#FBFBFB" d="M55.295,0.414v3.902c0,0,0.104,2.62-3.654,2.62H28.779h-1.504H4.412
							c-3.759,0-3.654-2.62-3.654-2.62V0.414"/>
						<path id="Fill-140_1_" fill="#E3E3E3" d="M55.295,0.115v1.952c0,0,0.104,1.31-3.654,1.31H28.779h-1.504H4.412
							c-3.759,0-3.654-1.31-3.654-1.31V0.115"/>
						<path id="Stroke-141" fill="none" stroke="#000000" stroke-width="2" stroke-linecap="round" stroke-linejoin="round" d="
							M55.295,0.414v3.902c0,0,0.104,2.62-3.654,2.62H28.779h-1.504H4.412c-3.759,0-3.654-2.62-3.654-2.62V0.414"/>
					</g>
					<g id="Group-145" transform="translate(136.878788, 104.981481)">
						<polyline id="Fill-143" fill="#FFFFFF" points="5.931,6.293 0.758,6.293 0.758,0.71 5.92,0.71 						"/>
						
							<polyline id="Stroke-144" fill="none" stroke="#000000" stroke-width="2" stroke-linecap="round" stroke-linejoin="round" points="
							5.931,6.293 0.758,6.293 0.758,0.71 5.92,0.71 						"/>
					</g>
					<g id="Group-148" transform="translate(148.915825, 110.444444)">
						<path id="Fill-146" fill="#FFFFFF" d="M31.444,0.83H0.495"/>
						<path id="Stroke-147" fill="none" stroke="#000000" stroke-width="2" stroke-linecap="round" stroke-linejoin="round" d="
							M31.444,0.83H0.495"/>
					</g>
					<g id="Group-151" transform="translate(139.215488, 104.981481)">
						<polyline id="Fill-149" fill="#FFFFFF" points="48.195,0.71 52.968,0.71 52.968,6.293 48.195,6.293 						"/>
						<path id="Stroke-147_1_" fill="none" stroke="#E3E3E3" stroke-width="2" stroke-linecap="round" stroke-linejoin="round" d="
							M51.145,2.389l-50.65,0.3"/>
						
							<polyline id="Stroke-150" fill="none" stroke="#000000" stroke-width="2" stroke-linecap="round" stroke-linejoin="round" points="
							48.195,0.71 52.968,0.71 52.968,6.293 48.195,6.293 						"/>
					</g>
					<path id="Stroke-152" fill="none" stroke="#000000" stroke-width="2" stroke-linecap="round" stroke-linejoin="round" d="
						M149.41,105.691h31.131"/>
					<polygon id="Fill-153" fill="#FFFFFF" points="142.805,140.818 149.41,140.818 149.41,96.622 142.805,96.622 					"/>
					<polygon id="Fill-153_1_" fill="#E3E3E3" points="142.805,140.818 146.107,140.818 146.107,96.622 142.805,96.622 					"/>
					
						<polygon id="Stroke-154" fill="none" stroke="#000000" stroke-width="2" stroke-linecap="round" stroke-linejoin="round" points="
						142.805,140.818 149.41,140.818 149.41,96.622 142.805,96.622 					"/>
					<g id="Group-157" transform="translate(133.595960, 84.222222)">
						<path id="Fill-155" fill="#FFC83D" d="M62.545,0.363c0,0-0.314,5.515-3.967,5.515H31.399h-0.181H4.042
							c-3.655,0-3.968-5.515-3.968-5.515"/>
						<path id="Stroke-156" fill="none" stroke="#000000" stroke-width="2" stroke-linecap="round" stroke-linejoin="round" d="
							M62.545,0.363c0,0-0.314,5.515-3.967,5.515H31.399h-0.181H4.042c-3.655,0-3.968-5.515-3.968-5.515"/>
					</g>
					<polygon id="Fill-158" fill="#FFFFFF" points="180,141.196 186.607,141.196 186.607,97 180,97 					"/>
					<polygon id="Fill-153_2_" fill="#E3E3E3" points="180,141.196 183.303,141.196 183.303,97 180,97 					"/>
					
						<polygon id="Stroke-159" fill="none" stroke="#000000" stroke-width="2" stroke-linecap="round" stroke-linejoin="round" points="
						180.399,140.818 187.006,140.818 187.006,96.622 180.399,96.622 					"/>
					<g id="Group-162" transform="translate(137.973064, 139.944444)">
						<path id="Fill-160" fill="#FFFFFF" d="M8.153,0.874h3.304c3.731,0,4.566,4.664,4.566,4.664h-7.87H8.134h-7.87
							c0,0,0.835-4.664,4.567-4.664h3.303"/>
						<path id="Stroke-161" fill="none" stroke="#000000" stroke-width="2" stroke-linecap="round" stroke-linejoin="round" d="
							M8.153,0.874h3.304c3.731,0,4.566,4.664,4.566,4.664h-7.87H8.134h-7.87c0,0,0.835-4.664,4.567-4.664h3.303"/>
					</g>
					<g id="Group-165" transform="translate(175.178451, 139.944444)">
						<path id="Fill-163" fill="#FFFFFF" d="M8.578,0.874h3.304c3.731,0,4.566,4.664,4.566,4.664h-7.87H8.56H0.69
							c0,0,0.835-4.664,4.567-4.664H8.56"/>
						<path id="Stroke-164" fill="none" stroke="#000000" stroke-width="2" stroke-linecap="round" stroke-linejoin="round" d="
							M8.578,0.874h3.304c3.731,0,4.566,4.664,4.566,4.664h-7.87H8.56H0.69c0,0,0.835-4.664,4.567-4.664H8.56"/>
					</g>
					<polygon id="Fill-166" fill="#FFC83D" points="160.551,105.691 169.634,105.691 169.634,96.622 160.551,96.622 					"/>
					
						<polygon id="Stroke-167" fill="none" stroke="#000000" stroke-width="2" stroke-linecap="round" stroke-linejoin="round" points="
						160.551,105.691 169.634,105.691 169.634,96.622 160.551,96.622 					"/>
					<path id="Stroke-168" fill="none" stroke="#000000" stroke-width="2" stroke-linecap="round" stroke-linejoin="round" d="
						M200.838,80.139c0,0-0.842,3.544-6.27,3.544h-29.573h-29.753c-5.429,0-6.271-3.544-6.271-3.544"/>
					<path id="Fill-169" fill="#FFFFFF" d="M200.84,131.764c0,0-0.527,2.334-0.527,4.322c0,0-0.396,4.529,4.429,4.529h19.598
						c4.824,0,4.424-4.529,4.424-4.529c0-1.988-0.534-4.33-0.534-4.33s-1.645-7.122-14.469-7.122
						C213.76,124.634,203.357,123.734,200.84,131.764"/>
					<path id="Combined-Shape" fill="#E3E3E3" d="M200.316,135.781c0.048-1.914,0.523-4.018,0.523-4.018
						c2.517-8.029,12.92-7.13,12.92-7.13c12.824,0,14.469,7.122,14.469,7.122s0.534,2.342,0.534,4.33c0,0,0.019,0.209,0,0.535
						c-0.605-0.321-1.123-0.892-1.455-1.647c-2.248-5.12-6.544-5.614-6.996-5.57c-0.114,0.017-10.88,0.265-10.88,0.265
						c-4.859,0-8.152,5.075-8.184,5.13C200.995,135.224,200.675,135.553,200.316,135.781z"/>
					<path id="Stroke-170" fill="none" stroke="#000000" stroke-width="2" stroke-linecap="round" stroke-linejoin="round" d="
						M200.84,131.764c0,0-0.527,2.334-0.527,4.322c0,0-0.396,4.529,4.429,4.529h19.598c4.824,0,4.424-4.529,4.424-4.529
						c0-1.988-0.534-4.33-0.534-4.33s-1.645-7.122-14.469-7.122C213.76,124.634,203.357,123.734,200.84,131.764L200.84,131.764z"/>
					<path id="Fill-171" fill="#FFC83D" d="M229.926,132.918c-1.08,0-2.087-0.734-2.618-1.944c-2.248-5.12-6.544-5.614-6.996-5.57
						c-0.114,0.017-10.88,0.265-10.88,0.265c-4.859,0-8.152,5.075-8.184,5.13c-0.922,1.552-2.733,1.808-4.047,0.714
						c-1.313-1.091-1.631-3.066-0.708-4.621c0.201-0.338,5.015-8.128,12.938-8.128h10.465c3.849,0,9.382,0.997,12.642,9.45
						c0.667,1.727,0.094,3.65-1.351,4.477C230.78,132.923,230.349,132.918,229.926,132.918"/>
					<path id="Stroke-172" fill="none" stroke="#000000" stroke-width="2" stroke-linecap="round" stroke-linejoin="round" d="
						M229.926,132.918c-1.08,0-2.087-0.734-2.618-1.944c-2.248-5.12-6.544-5.614-6.996-5.57c-0.114,0.017-10.88,0.265-10.88,0.265
						c-4.859,0-8.152,5.075-8.184,5.13c-0.922,1.552-2.733,1.808-4.047,0.714c-1.313-1.091-1.631-3.066-0.708-4.621
						c0.201-0.338,5.015-8.128,12.938-8.128h10.465c3.849,0,9.382,0.997,12.642,9.45c0.667,1.727,0.094,3.65-1.351,4.477
						C230.78,132.923,230.349,132.918,229.926,132.918L229.926,132.918z"/>
					<polygon id="Fill-173" fill="#FBFBFB" points="211.014,140.51 217.836,140.51 217.836,119.209 211.014,119.209 					"/>
					
						<polygon id="Stroke-174" fill="none" stroke="#000000" stroke-width="2" stroke-linecap="round" stroke-linejoin="round" points="
						211.014,140.51 217.836,140.51 217.836,119.209 211.014,119.209 					"/>
				</g>
			</g>
			<path id="Line" fill="none" stroke="#1C1918" stroke-width="2.4" stroke-linecap="round" stroke-linejoin="round" d="M156,141.2
				h572.504"/>
			<path id="Line-Copy" fill="none" stroke="#1C1918" stroke-width="2.4" stroke-linecap="round" stroke-linejoin="round" d="
				M23,141.2h124"/>
			<path id="Line-Copy_1_" fill="none" stroke="#1C1918" stroke-width="2.4" stroke-linecap="round" stroke-linejoin="round" d="
				M0,141.2h13"/>
		</g>
	</g>
</g>
<g id="Page-1_2_">
	<g id="_x31_07_x5F_M2U_x5F_Planner_x5F_Travel_1_" transform="translate(-51.000000, -1504.000000)">
		<g id="Group-21-Copy-11" transform="translate(30.000000, 1481.000000)">
			<g id="Group-26" transform="translate(20.000000, 20.000000)">
				
					<g id="plane" transform="translate(17.104655, 11.962473) rotate(16.000000) translate(-17.104655, -11.962473) translate(1.604655, 3.962473)">
					<path id="Fill-1_1_" fill="#373737" d="M202.378,73.923c0.011,0.031,0.023,0.062,0.034,0.096l0.211,0.815
						c0.372,1.407-0.744,2.235-1.824,2.519L158.927,88.81l-5.238,1.383c-0.937,0.242-1.923-0.045-2.578-0.757l-6.738-7.352
						l2.2-0.581l4.717,3.765c0.333,0.267,0.774,0.342,1.179,0.208l12.63-4.255l1.443,1.737c0.188,0.205,0.434,0.338,0.698,0.385
						c0.176,0.032,0.362,0.028,0.541-0.022l10.97-2.889c0.456-0.118,0.808-0.488,0.905-0.948c0.096-0.461-0.075-0.941-0.442-1.234
						l-1.672-1.218l15.089-5.086c3.39-0.934,6.19-0.965,7.944-0.097L202.378,73.923z M167.872,80.716L156.49,68.134l4.439-1.165
						l14.784,11.682L167.872,80.716z M205.037,74.199l-0.214-0.816c-0.403-1.531-1.36-2.766-2.77-3.578
						c-2.354-1.35-5.853-1.44-10.121-0.256c-0.021,0.007-0.043,0.013-0.065,0.021l-16.647,5.608l-13.224-10.553
						c-0.31-0.247-0.715-0.33-1.097-0.23l-7.044,1.852c-0.421,0.111-0.756,0.435-0.879,0.858c-0.125,0.417-0.019,0.872,0.278,1.192
						l9.999,10.912l-10.938,3.686l-4.675-3.732c-0.307-0.245-0.714-0.331-1.096-0.231l-4.804,1.266
						c-0.423,0.109-0.757,0.437-0.88,0.854c-0.122,0.42-0.018,0.874,0.276,1.197l8.134,8.871c0.768,0.836,1.772,1.38,2.846,1.574
						c0.721,0.133,1.473,0.105,2.207-0.088l5.249-1.382l41.873-11.459c1.258-0.33,2.312-1.032,2.977-1.97
						C205.153,76.751,205.374,75.477,205.037,74.199L205.037,74.199z"/>
				</g>
			</g>
		</g>
	</g>
</g>
</svg>
