<?xml version="1.0" encoding="utf-8"?>
<!-- Generator: Adobe Illustrator 16.0.2, SVG Export Plug-In . SVG Version: 6.00 Build 0)  -->
<!DOCTYPE svg PUBLIC "-//W3C//DTD SVG 1.1//EN" "http://www.w3.org/Graphics/SVG/1.1/DTD/svg11.dtd">
<svg version="1.1" id="Layer_1" xmlns="http://www.w3.org/2000/svg" xmlns:xlink="http://www.w3.org/1999/xlink" x="0px" y="0px"
	 width="576px" height="178px" viewBox="0 0 576 178" enable-background="new 0 0 576 178" xml:space="preserve">
<title>DE04B4E0-B260-4BE7-B12C-8FE8BC094760</title>
<desc>Created with sketchtool.</desc>
<g id="Page-1_1_">
	<g id="_x36_06_x5F_M2U_x5F_Planner_x5F_Travel-Copy-23" transform="translate(-704.000000, -234.000000)">
		<g id="Group-32" transform="translate(706.000000, 234.000000)">
			<g id="Group-15" transform="translate(0.000000, 143.000000)">
				<path id="Line" fill="none" stroke="#1C1918" stroke-width="2.4" stroke-linecap="round" stroke-linejoin="round" d="M156,1.2
					h572.504"/>
				<path id="Line-Copy" fill="none" stroke="#1C1918" stroke-width="2.4" stroke-linecap="round" stroke-linejoin="round" d="
					M23,1.2h124"/>
				<path id="Line-Copy_1_" fill="none" stroke="#1C1918" stroke-width="2.4" stroke-linecap="round" stroke-linejoin="round" d="
					M0,1.2h13"/>
			</g>
			<g id="Page-1" transform="translate(197.265734, 0.000000)">
				<path id="Fill-1" fill="#FFFFFF" d="M7.549,151.105h309.575H7.549z"/>
				<path id="Stroke-2" fill="none" stroke="#E2E2E2" stroke-width="12" stroke-linecap="round" stroke-linejoin="round" d="
					M7.549,151.105h309.575"/>
				<path id="Fill-4" fill="#FFFFFF" d="M24.346,160.498h65.505H24.346z"/>
				<path id="Stroke-5" fill="none" stroke="#000000" stroke-width="2" stroke-linecap="round" stroke-linejoin="round" d="
					M89.851,160.498H24.346"/>
				<path id="Fill-6" fill="#FFFFFF" d="M98.637,160.498h24.525H98.637z"/>
				<path id="Stroke-7" fill="none" stroke="#000000" stroke-width="2" stroke-linecap="round" stroke-linejoin="round" d="
					M123.163,160.498H98.638"/>
				<path id="Fill-8" fill="#FFFFFF" d="M256.406,160.498h44.292H256.406z"/>
				<path id="Stroke-9" fill="none" stroke="#000000" stroke-width="2" stroke-linecap="round" stroke-linejoin="round" d="
					M300.698,160.498h-44.292"/>
				<path id="Fill-10" fill="#FFFFFF" d="M132.681,160.498H247.62H132.681z"/>
				<path id="Stroke-11" fill="none" stroke="#000000" stroke-width="2" stroke-linecap="round" stroke-linejoin="round" d="
					M247.621,160.498H132.68"/>
				<path id="Fill-12" fill="#FFFFFF" d="M246.783,176.238h23.898H246.783z"/>
				<path id="Stroke-13" fill="none" stroke="#000000" stroke-width="2" stroke-linecap="round" stroke-linejoin="round" d="
					M270.682,176.238h-23.898"/>
				<path id="Fill-15" fill="#FFFFFF" d="M140.733,176.238h15.009H140.733z"/>
				<path id="Stroke-16" fill="none" stroke="#000000" stroke-width="2" stroke-linecap="round" stroke-linejoin="round" d="
					M155.741,176.238h-15.009"/>
				<path id="Fill-18" fill="#FFFFFF" d="M163.429,176.238h75.321H163.429z"/>
				<path id="Stroke-19" fill="none" stroke="#000000" stroke-width="2" stroke-linecap="round" stroke-linejoin="round" d="
					M238.751,176.238h-75.322"/>
				<path id="Fill-21" fill="#FFFFFF" d="M80.335,176.238h53.054H80.335z"/>
				<path id="Stroke-22" fill="none" stroke="#000000" stroke-width="2" stroke-linecap="round" stroke-linejoin="round" d="
					M133.39,176.238H80.334"/>
				<path id="Fill-24" fill="#FFFFFF" d="M0.098,144.003h323.826H0.098z"/>
				<g id="Group-191" transform="translate(0.000000, 0.434871)">
					<path id="Stroke-27" fill="none" stroke="#D1D1D1" stroke-width="2" stroke-linecap="round" stroke-linejoin="round" d="
						M24.555,70.589c0.019-0.466,0.135-1.266,0.665-1.889c0.575-0.677,2.668-2.143,4.054-2.188"/>
					<path id="Stroke-29" fill="none" stroke="#D1D1D1" stroke-width="2" stroke-linecap="round" stroke-linejoin="round" d="
						M18.124,66.513c0.672,0.01,4.99,1.308,5.295,4.21"/>
					<path id="Stroke-31" fill="none" stroke="#D1D1D1" stroke-width="2" stroke-linecap="round" stroke-linejoin="round" d="
						M247.699,36.821c0.019-0.466,0.135-1.266,0.664-1.889c0.575-0.677,2.669-2.143,4.055-2.188"/>
					<path id="Stroke-33" fill="none" stroke="#D1D1D1" stroke-width="2" stroke-linecap="round" stroke-linejoin="round" d="
						M241.267,32.746c0.672,0.01,4.99,1.308,5.295,4.21"/>
					<path id="Stroke-35" fill="none" stroke="#D1D1D1" stroke-width="2" stroke-linecap="round" stroke-linejoin="round" d="
						M201.131,60.691l6.168-0.12c0,0,0.916-4.919,5.733-5.013c4.817-0.093,5.732,4.632,5.732,4.632s1.953-2.978,5.252-2.277
						c3.3,0.701,3.643,5.249,3.643,5.249l5.535-0.108"/>
					<polygon id="Fill-37" fill="#FFC83D" points="118.342,123.986 246.891,123.986 246.891,117.664 118.342,117.664 					"/>
					<path id="Stroke-39" fill="none" stroke="#000000" stroke-width="2" stroke-linecap="round" stroke-linejoin="round" d="
						M151.533,82.365v60.655"/>
					<path id="Stroke-40" fill="none" stroke="#000000" stroke-width="2" stroke-linecap="round" stroke-linejoin="round" d="
						M133.62,116.083v-10.536"/>
					<path id="Stroke-41" fill="none" stroke="#000000" stroke-width="2" stroke-linecap="round" stroke-linejoin="round" d="
						M124.141,116.083v-6.321"/>
					<path id="Stroke-42" fill="none" stroke="#000000" stroke-width="2" stroke-linecap="round" stroke-linejoin="round" d="
						M170.5,116.083v-13.697"/>
					<path id="Stroke-43" fill="none" stroke="#000000" stroke-width="2" stroke-linecap="round" stroke-linejoin="round" d="
						M143.103,116.083V97.117"/>
					<path id="Stroke-44" fill="none" stroke="#000000" stroke-width="2" stroke-linecap="round" stroke-linejoin="round" d="
						M161.016,116.083v-20.02"/>
					<path id="Stroke-45" fill="none" stroke="#000000" stroke-width="2" stroke-linecap="round" stroke-linejoin="round" d="
						M112.377,109.63h6.491c0,0,22.654-0.571,32.841-29.811c0,0,9.131,25.2,30.206,25.2h1.756c21.074,0,30.206-25.2,30.206-25.2
						c14.4,30.293,32.84,29.591,32.84,29.591h4.454"/>
					<path id="Stroke-46" fill="none" stroke="#000000" stroke-width="2" stroke-linecap="round" stroke-linejoin="round" d="
						M213.701,82.365v60.655"/>
					<path id="Stroke-47" fill="none" stroke="#000000" stroke-width="2" d="M246.892,123.986H118.342"/>
					<polyline id="Stroke-48" fill="none" stroke="#000000" stroke-width="2" points="246.892,117.664 183.671,117.664 
						181.563,117.664 118.342,117.664 					"/>
					<path id="Stroke-49" fill="none" stroke="#000000" stroke-width="2" stroke-linecap="round" stroke-linejoin="round" d="
						M232.668,116.083v-11.59"/>
					<path id="Stroke-50" fill="none" stroke="#000000" stroke-width="2" stroke-linecap="round" stroke-linejoin="round" d="
						M241.322,116.083v-6.321"/>
					<path id="Stroke-51" fill="none" stroke="#000000" stroke-width="2" stroke-linecap="round" stroke-linejoin="round" d="
						M193.681,116.083v-12.644"/>
					<path id="Stroke-52" fill="none" stroke="#000000" stroke-width="2" stroke-linecap="round" stroke-linejoin="round" d="
						M182.09,116.083v-10.536"/>
					<path id="Stroke-53" fill="none" stroke="#000000" stroke-width="2" stroke-linecap="round" stroke-linejoin="round" d="
						M223.184,116.083v-20.02"/>
					<path id="Stroke-54" fill="none" stroke="#000000" stroke-width="2" stroke-linecap="round" stroke-linejoin="round" d="
						M204.218,116.083v-20.02"/>
					<path id="Fill-55" fill="#FFFFFF" d="M91.133,64.226l0.646-7.413L80.477,46.381l-0.719-29.244c0,0,3.948-4.25,5.563,2.339
						l3.874,22.238l6.135,2.746l16.468,1.373L91.133,64.226z"/>
					<path id="Stroke-56" fill="none" stroke="#000000" stroke-width="2" stroke-linecap="round" stroke-linejoin="round" d="
						M91.133,64.226l0.646-7.413L80.477,46.381l-0.719-29.244c0,0,3.948-4.25,5.563,2.339l3.874,22.238l6.135,2.746l16.468,1.373
						L91.133,64.226L91.133,64.226z"/>
					<path id="Fill-57" fill="#E2E2E2" d="M96.258,59.399c0,0,0.48-3.227-1.99-5.628c-2.086-2.028-8.58-7.138-9.129-9.746
						c-1.337-6.353-0.928-27.574-0.928-27.574c-1.844-2.489-4.453,0.319-4.453,0.319l0.719,29.244l11.301,10.433l-0.646,7.413
						L96.258,59.399z"/>
					<polygon id="Fill-58" fill="#FFFFFF" points="91.688,109.251 91.688,95.249 113.044,83.307 113.667,109.251 					"/>
					<polygon id="Fill-60" fill="#E2E2E2" points="91.316,106.139 112.86,86.647 112.833,82.575 91.316,95.844 					"/>
					
						<polygon id="Stroke-59" fill="none" stroke="#000000" stroke-width="2" stroke-linecap="round" stroke-linejoin="round" points="
						91.688,109.251 91.688,95.249 113.044,83.307 113.667,109.251 					"/>
					<path id="Fill-61" fill="#FFFFFF" d="M89.095,64.001l23.994-18.169c0,0,2.583,24.434,3.552,35.141L89.517,96.347L89.095,64.001
						z"/>
					<path id="Stroke-62" fill="none" stroke="#000000" stroke-width="2" stroke-linecap="round" stroke-linejoin="round" d="
						M89.095,64.001l23.994-18.169c0,0,2.583,24.434,3.552,35.141L89.517,96.347L89.095,64.001L89.095,64.001z"/>
					<polygon id="Fill-63" fill="#FFC83D" points="111.96,67.8 106.475,61.001 118.239,51.336 123.725,58.135 					"/>
					
						<polygon id="Stroke-64" fill="none" stroke="#000000" stroke-width="2" stroke-linecap="round" stroke-linejoin="round" points="
						111.96,67.8 106.475,61.001 118.239,51.336 123.725,58.135 					"/>
					<polygon id="Fill-65" fill="#E2E2E2" points="111.96,69.082 105.867,62.075 105.019,66.849 110.505,73.648 114.377,70.312 
						114.24,67.429 					"/>
					<path id="Fill-66" fill="#FFC83D" d="M86.198,10.6c0,2.199-1.782,3.981-3.981,3.981c-2.198,0-3.981-1.782-3.981-3.981
						c0-2.198,3.981-9.839,3.981-9.839S86.198,8.402,86.198,10.6"/>
					<path id="Stroke-67" fill="none" stroke="#000000" stroke-width="2" stroke-linecap="round" stroke-linejoin="round" d="
						M86.198,10.6c0,2.199-1.782,3.981-3.981,3.981c-2.198,0-3.981-1.782-3.981-3.981c0-2.198,3.981-9.839,3.981-9.839
						S86.198,8.402,86.198,10.6L86.198,10.6z"/>
					<g id="Group-70" transform="translate(101.128834, 18.766871)">
						<path id="Fill-68" fill="#FFFFFF" d="M0.443,0.709V6.2"/>
						<path id="Stroke-69" fill="none" stroke="#000000" stroke-width="2" stroke-linecap="round" stroke-linejoin="round" d="
							M0.443,0.709V6.2"/>
					</g>
					<g id="Group-73" transform="translate(107.717791, 24.257669)">
						<path id="Fill-71" fill="#FFFFFF" d="M0.724,3.828L5.042,0.06"/>
						<path id="Stroke-72" fill="none" stroke="#000000" stroke-width="2" stroke-linecap="round" stroke-linejoin="round" d="
							M0.724,3.828L5.042,0.06"/>
					</g>
					<g id="Group-76" transform="translate(91.245399, 24.257669)">
						<path id="Fill-74" fill="#FFFFFF" d="M5.155,3.828L0.838,0.06"/>
						<path id="Stroke-75" fill="none" stroke="#000000" stroke-width="2" stroke-linecap="round" stroke-linejoin="round" d="
							M5.155,3.828L0.838,0.06"/>
					</g>
					<path id="Fill-77" fill="#FFFFFF" d="M107.334,36.183c0,2.485-2.377,4.507-5.301,4.507s-5.302-2.022-5.302-4.507v-4.508
						c0-2.485,2.378-4.507,5.302-4.507s5.301,2.021,5.301,4.507V36.183z"/>
					<path id="Fill-79" fill="#E2E2E2" d="M104.916,38.082c-2.924,0-5.301-2.022-5.301-4.507v-4.508
						c0-0.458,0.104-0.891,0.253-1.307c-1.617,0.773-2.724,2.228-2.724,3.915v4.508c0,2.485,2.377,4.507,5.301,4.507
						c2.385,0,4.383-1.355,5.047-3.201C106.724,37.856,105.855,38.082,104.916,38.082"/>
					<path id="Stroke-78" fill="none" stroke="#000000" stroke-width="2" stroke-linecap="round" stroke-linejoin="round" d="
						M107.334,36.183c0,2.485-2.377,4.507-5.301,4.507s-5.302-2.022-5.302-4.507v-4.508c0-2.485,2.378-4.507,5.302-4.507
						s5.301,2.021,5.301,4.507V36.183L107.334,36.183z"/>
					<polygon id="Fill-80" fill="#FFFFFF" points="84.352,135.057 121.484,135.057 121.484,114.967 84.352,114.967 					"/>
					<path id="Fill-82" fill="#E2E2E2" d="M90.767,130.39c-1.25-0.694-1.922-14.642-1.922-14.642h-4.118v19.768h36.24v-3.57
						C120.967,131.946,94.061,132.221,90.767,130.39"/>
					
						<polygon id="Stroke-81" fill="none" stroke="#000000" stroke-width="2" stroke-linecap="round" stroke-linejoin="round" points="
						84.352,135.057 121.484,135.057 121.484,114.967 84.352,114.967 					"/>
					<polygon id="Fill-83" fill="#FFC83D" points="88.872,115.016 115.672,115.016 115.672,106.506 88.872,106.506 					"/>
					
						<polygon id="Stroke-84" fill="none" stroke="#000000" stroke-width="2" stroke-linecap="round" stroke-linejoin="round" points="
						88.872,115.016 115.672,115.016 115.672,106.506 88.872,106.506 					"/>
					<g id="Group-87" transform="translate(106.619632, 121.993865)">
						<path id="Fill-85" fill="#FFFFFF" d="M0.443,0.71v4.393"/>
						<path id="Stroke-86" fill="none" stroke="#000000" stroke-width="2" stroke-linecap="round" stroke-linejoin="round" d="
							M0.443,0.71v4.393"/>
					</g>
					<g id="Group-90" transform="translate(96.736196, 121.993865)">
						<path id="Fill-88" fill="#FFFFFF" d="M0.443,0.71v4.393"/>
						<path id="Stroke-89" fill="none" stroke="#000000" stroke-width="2" stroke-linecap="round" stroke-linejoin="round" d="
							M0.443,0.71v4.393"/>
					</g>
					<polyline id="Fill-91" fill="#FFFFFF" points="129.879,142.47 129.879,135.057 77.248,135.057 77.248,142.47 					"/>
					<polygon id="Fill-94" fill="#E2E2E2" points="82.465,139.725 82.465,136.156 77.797,136.156 77.797,143.568 130.428,143.568 
						130.428,139.725 					"/>
					
						<polyline id="Stroke-92" fill="none" stroke="#000000" stroke-width="2" stroke-linecap="round" stroke-linejoin="round" points="
						129.879,142.47 129.879,135.057 77.248,135.057 77.248,142.47 					"/>
					<g id="Group-97" transform="translate(56.104294, 35.239264)">
						<polyline id="Fill-95" fill="#FFFFFF" points="5.352,17.16 4.317,0.96 1.216,0.96 0.181,17.16 						"/>
						
							<polyline id="Stroke-96" fill="none" stroke="#000000" stroke-width="2" stroke-linecap="round" stroke-linejoin="round" points="
							5.352,17.16 4.317,0.96 1.216,0.96 0.181,17.16 						"/>
					</g>
					<polygon id="Fill-98" fill="#FFFFFF" points="55.424,61.533 63.007,61.533 67.143,143.568 52.322,143.568 					"/>
					<path id="Stroke-25" fill="none" stroke="#000000" stroke-width="2" stroke-linecap="round" stroke-linejoin="round" d="
						M323.924,143.568H0.098H323.924z"/>
					
						<polygon id="Stroke-99" fill="none" stroke="#000000" stroke-width="2" stroke-linecap="round" stroke-linejoin="round" points="
						55.424,61.533 63.007,61.533 67.143,143.568 52.322,143.568 					"/>
					<polygon id="Fill-100" fill="#E2E2E2" points="55.973,61.939 52.87,143.202 60.018,143.202 57.822,61.939 					"/>
					<path id="Stroke-101" fill="none" stroke="#000000" stroke-width="2" stroke-linecap="round" stroke-linejoin="round" d="
						M59.11,34.85V23.869"/>
					<path id="Fill-102" fill="#FFC83D" d="M67.523,57.052c0,2.435-2.471,4.427-5.491,4.427h-5.175c-3.02,0-5.491-1.992-5.491-4.427
						c0-2.435,2.471-4.426,5.491-4.426h5.175C65.052,52.626,67.523,54.618,67.523,57.052"/>
					<path id="Stroke-103" fill="none" stroke="#000000" stroke-width="2" stroke-linecap="round" stroke-linejoin="round" d="
						M67.523,57.052c0,2.435-2.471,4.427-5.491,4.427h-5.175c-3.02,0-5.491-1.992-5.491-4.427c0-2.435,2.471-4.426,5.491-4.426
						h5.175C65.052,52.626,67.523,54.618,67.523,57.052L67.523,57.052z"/>
					<polygon id="Fill-104" fill="#FFFFFF" points="237.387,143.579 298.3,143.579 298.3,134.454 237.387,134.454 					"/>
					<polygon id="Fill-106" fill="#E2E2E2" points="293.228,134.569 293.228,139.575 236.433,139.575 236.433,143.693 
						297.347,143.693 297.347,134.569 					"/>
					
						<polygon id="Stroke-105" fill="none" stroke="#000000" stroke-width="2" stroke-linecap="round" stroke-linejoin="round" points="
						237.387,143.579 298.3,143.579 298.3,134.454 237.387,134.454 					"/>
					<g id="Group-109" transform="translate(287.815951, 124.190184)">
						<polyline id="Fill-107" fill="#FFFFFF" points="0.879,0.275 5.925,0.275 5.925,10.263 0.879,10.263 						"/>
						
							<polyline id="Stroke-108" fill="none" stroke="#000000" stroke-width="2" stroke-linecap="round" stroke-linejoin="round" points="
							0.879,0.275 5.925,0.275 5.925,10.263 0.879,10.263 						"/>
					</g>
					<path id="Fill-138" fill="#E2E2E2" d="M273.891,60.291v44.292l-15.106,0.459c0,0,9.615,2.217,14.642,5.765
						c6.224,4.394,8.243,7.688,8.243,7.688V60.291H273.891z"/>
					<polyline id="Fill-110" fill="#FFFFFF" points="257.511,43.636 257.511,37.596 276.18,37.596 276.18,43.636 					"/>
					<polygon id="Fill-188" fill="#E2E2E2" points="272.947,43.727 275.234,43.727 275.234,38.42 272.947,38.42 					"/>
					<polygon id="Fill-189" fill="#E2E2E2" points="267.272,43.727 269.286,43.727 269.286,38.42 267.272,38.42 					"/>
					<polygon id="Fill-190" fill="#E2E2E2" points="260.867,43.727 263.247,43.727 263.247,38.42 260.867,38.42 					"/>
					
						<polyline id="Stroke-111" fill="none" stroke="#000000" stroke-width="2" stroke-linecap="round" stroke-linejoin="round" points="
						257.511,43.636 257.511,37.596 276.18,37.596 276.18,43.636 					"/>
					<polyline id="Fill-113" fill="#FFFFFF" points="274.532,59.559 282.768,59.559 282.768,134.454 250.922,134.454 
						250.922,118.86 250.922,59.559 259.158,59.559 					"/>
					<polygon id="Fill-187" fill="#E2E2E2" points="273.982,59.805 279.497,59.805 279.497,44.368 273.982,44.368 					"/>
					<path id="Fill-122" fill="#E2E2E2" d="M281.16,131.534c0,0-13.955-0.411-16.884-2.424c-2.929-2.014-5.079-11.165-5.079-11.165
						l-7.366,16.392h29.804L281.16,131.534z"/>
					
						<polyline id="Stroke-114" fill="none" stroke="#000000" stroke-width="2" stroke-linecap="round" stroke-linejoin="round" points="
						274.532,59.559 282.768,59.559 282.768,134.454 250.922,134.454 250.922,118.86 250.922,59.559 259.158,59.559 					"/>
					<g id="Group-118" transform="translate(269.147239, 37.435583)">
						<path id="Fill-116" fill="#FFFFFF" d="M0.442,0.71v5.674"/>
					</g>
					<g id="Group-121" transform="translate(240.595092, 124.190184)">
						<polyline id="Fill-119" fill="#FFFFFF" points="5.225,0.275 0.179,0.275 0.179,10.263 5.225,10.263 						"/>
						
							<polyline id="Stroke-120" fill="none" stroke="#000000" stroke-width="2" stroke-linecap="round" stroke-linejoin="round" points="
							5.225,0.275 0.179,0.275 0.179,10.263 5.225,10.263 						"/>
					</g>
					<g id="Group-125" transform="translate(246.085890, 113.208589)">
						<polyline id="Fill-123" fill="#FFC83D" points="0.992,5.651 12.522,5.651 12.522,21.025 0.443,21.025 0.443,0.16 4.836,0.16 
							4.836,5.651 						"/>
						
							<polyline id="Stroke-124" fill="none" stroke="#000000" stroke-width="2" stroke-linecap="round" stroke-linejoin="round" points="
							0.992,5.651 12.522,5.651 12.522,21.025 0.443,21.025 0.443,0.16 4.836,0.16 4.836,5.651 						"/>
					</g>
					
						<polyline id="Stroke-127" fill="none" stroke="#000000" stroke-width="2" stroke-linecap="round" stroke-linejoin="round" points="
						254.216,58.919 254.216,44.185 279.473,44.185 279.473,58.919 					"/>
					<g id="Group-131" transform="translate(260.361963, 31.944785)">
						<polyline id="Fill-129" fill="#FFC83D" points="0.443,5.102 0.443,0.16 12.523,0.16 12.523,5.102 						"/>
						
							<polyline id="Stroke-130" fill="none" stroke="#000000" stroke-width="2" stroke-linecap="round" stroke-linejoin="round" points="
							0.443,5.102 0.443,0.16 12.523,0.16 12.523,5.102 						"/>
					</g>
					<g id="Group-134" transform="translate(263.656442, 38.533742)">
						<path id="Fill-132" fill="#FFFFFF" d="M0.443,0.229v5.056"/>
					</g>
					<polygon id="Fill-135" fill="#FFFFFF" points="259.706,104.584 273.982,104.584 273.982,44.368 259.706,44.368 					"/>
					<polygon id="Fill-137" fill="#E2E2E2" points="269.681,104.767 273.525,104.767 273.525,44.551 269.681,44.551 					"/>
					
						<polygon id="Stroke-136" fill="none" stroke="#000000" stroke-width="2" stroke-linecap="round" stroke-linejoin="round" points="
						259.706,104.584 273.982,104.584 273.982,44.368 259.706,44.368 					"/>
					<path id="Stroke-117" fill="none" stroke="#000000" stroke-width="2" stroke-linecap="round" stroke-linejoin="round" d="
						M269.59,38.145v5.674"/>
					<path id="Stroke-133" fill="none" stroke="#000000" stroke-width="2" stroke-linecap="round" stroke-linejoin="round" d="
						M264.099,38.763v5.056"/>
					<g id="Group-141" transform="translate(265.852761, 18.766871)">
						<path id="Fill-139" fill="#FFFFFF" d="M0.443,12.789V0.709"/>
						<path id="Stroke-140" fill="none" stroke="#000000" stroke-width="2" stroke-linecap="round" stroke-linejoin="round" d="
							M0.443,12.789V0.709"/>
					</g>
					<g id="Group-144" transform="translate(275.736196, 113.208589)">
						<polyline id="Fill-142" fill="#FFC83D" points="11.974,5.651 0.443,5.651 0.443,21.025 12.522,21.025 12.522,0.16 7.029,0.16 
							7.034,5.651 						"/>
						
							<polyline id="Stroke-143" fill="none" stroke="#000000" stroke-width="2" stroke-linecap="round" stroke-linejoin="round" points="
							11.974,5.651 0.443,5.651 0.443,21.025 12.522,21.025 12.522,0.16 7.029,0.16 7.034,5.651 						"/>
					</g>
					<path id="Fill-145" fill="#FFFFFF" d="M286.764,138.819h23.724c1.35,0,2.442-1.432,2.442-3.199
						c0-1.766-1.093-3.199-2.442-3.199h-23.724c-1.349,0-2.442,1.434-2.442,3.199C284.322,137.387,285.416,138.819,286.764,138.819"
						/>
					<path id="Stroke-146" fill="none" stroke="#000000" stroke-width="2" stroke-linecap="round" stroke-linejoin="round" d="
						M286.764,138.819h23.724c1.35,0,2.442-1.432,2.442-3.199c0-1.766-1.093-3.199-2.442-3.199h-23.724
						c-1.349,0-2.442,1.434-2.442,3.199C284.322,137.387,285.416,138.819,286.764,138.819L286.764,138.819z"/>
					<path id="Fill-147" fill="#FFFFFF" d="M284.272,146.327h28.872c1.455,0,2.635-1.649,2.635-3.684
						c0-2.035-1.18-3.686-2.635-3.686h-28.872c-1.455,0-2.634,1.65-2.634,3.686C281.639,144.677,282.817,146.327,284.272,146.327"/>
					<path id="Fill-149" fill="#E2E2E2" d="M313.385,138.62c-0.073,1.942-1.212,4.582-2.62,4.582h-28.871
						c-0.083,0-0.16-0.016-0.241-0.027c-0.003,0.066-0.014,0.398-0.014,0.465c0,2.035,1.18,2.857,2.635,2.857h28.871
						c1.454,0,2.634-1.92,2.634-3.955C315.778,140.622,314.724,138.792,313.385,138.62"/>
					<path id="Stroke-148" fill="none" stroke="#000000" stroke-width="2" stroke-linecap="round" stroke-linejoin="round" d="
						M284.272,146.327h28.872c1.455,0,2.635-1.649,2.635-3.684c0-2.035-1.18-3.686-2.635-3.686h-28.872
						c-1.455,0-2.634,1.65-2.634,3.686C281.639,144.677,282.817,146.327,284.272,146.327L284.272,146.327z"/>
					<path id="Fill-150" fill="#FFC83D" d="M302.357,132.215l-6.415,9.822c-0.349,0.531-1.34,0.531-1.688,0l-6.415-9.822
						c-0.314-0.479,0.142-1.044,0.843-1.044h12.832C302.215,131.171,302.672,131.735,302.357,132.215"/>
					<path id="Stroke-151" fill="none" stroke="#000000" stroke-width="2" stroke-linecap="round" stroke-linejoin="round" d="
						M302.357,132.215l-6.415,9.822c-0.349,0.531-1.34,0.531-1.688,0l-6.415-9.822c-0.314-0.479,0.142-1.044,0.843-1.044h12.832
						C302.215,131.171,302.672,131.735,302.357,132.215L302.357,132.215z"/>
					<path id="Fill-152" fill="#FFFFFF" d="M316.095,127.829c0.002-0.313-0.013-0.623-0.044-0.93
						c-0.001-0.008-0.002-0.017-0.003-0.024c-0.01-0.095-0.021-0.188-0.034-0.28c-0.002-0.013-0.005-0.025-0.006-0.037
						c-0.013-0.089-0.027-0.178-0.043-0.267c-0.001-0.005-0.002-0.009-0.002-0.013c-0.018-0.098-0.036-0.192-0.057-0.288
						c-0.002-0.01-0.005-0.021-0.007-0.03c-0.02-0.09-0.041-0.18-0.063-0.269c-0.003-0.013-0.008-0.026-0.011-0.04
						c-0.022-0.086-0.045-0.172-0.069-0.256c-0.004-0.01-0.007-0.021-0.01-0.031c-0.025-0.088-0.052-0.176-0.08-0.264
						c-0.005-0.014-0.011-0.025-0.015-0.039c-0.027-0.084-0.056-0.168-0.087-0.252c-0.004-0.01-0.009-0.02-0.012-0.031
						c-0.032-0.085-0.065-0.171-0.099-0.256c-0.005-0.012-0.011-0.022-0.015-0.032c-0.034-0.086-0.069-0.171-0.106-0.254
						c-0.005-0.009-0.008-0.017-0.012-0.024c-0.039-0.086-0.078-0.172-0.119-0.258c-0.004-0.009-0.009-0.018-0.013-0.026
						c-0.042-0.085-0.084-0.169-0.128-0.253c-0.003-0.008-0.008-0.013-0.011-0.02c-0.045-0.086-0.091-0.172-0.14-0.257
						c-0.006-0.01-0.011-0.02-0.018-0.03c-0.046-0.082-0.092-0.162-0.142-0.243c-0.009-0.015-0.018-0.027-0.026-0.042
						c-0.046-0.076-0.094-0.152-0.142-0.227c-0.01-0.016-0.021-0.031-0.031-0.047c-0.048-0.073-0.097-0.146-0.146-0.221
						c-0.014-0.018-0.026-0.036-0.04-0.054c-0.048-0.07-0.097-0.14-0.148-0.208c-0.011-0.018-0.022-0.032-0.035-0.048
						c-0.053-0.071-0.104-0.142-0.16-0.212c-0.012-0.016-0.023-0.029-0.036-0.045c-0.055-0.07-0.11-0.141-0.168-0.211
						c-0.014-0.018-0.029-0.035-0.045-0.053c-0.055-0.066-0.11-0.133-0.168-0.199c-0.018-0.02-0.036-0.039-0.054-0.059
						c-0.055-0.063-0.111-0.127-0.168-0.188c-0.018-0.02-0.036-0.04-0.055-0.06c-0.059-0.062-0.115-0.123-0.175-0.185
						c-0.02-0.021-0.041-0.042-0.062-0.062c-0.059-0.06-0.116-0.12-0.176-0.178c-0.024-0.023-0.05-0.046-0.073-0.07
						c-0.058-0.056-0.114-0.11-0.173-0.165c-0.026-0.023-0.053-0.049-0.079-0.071c-0.058-0.054-0.116-0.107-0.176-0.16
						c-0.027-0.024-0.056-0.048-0.084-0.073c-0.059-0.051-0.117-0.103-0.177-0.153c-0.032-0.026-0.065-0.053-0.097-0.079
						c-0.058-0.048-0.114-0.096-0.173-0.143c-0.036-0.028-0.072-0.057-0.108-0.086c-0.057-0.043-0.111-0.088-0.168-0.131
						c-0.039-0.03-0.078-0.059-0.117-0.088c-0.056-0.042-0.11-0.084-0.167-0.125c-0.041-0.03-0.083-0.061-0.125-0.09
						c-0.055-0.039-0.109-0.08-0.167-0.118c-0.046-0.033-0.094-0.065-0.142-0.097c-0.052-0.037-0.103-0.072-0.155-0.106
						c-0.051-0.034-0.103-0.067-0.154-0.101c-0.05-0.033-0.101-0.065-0.151-0.099c-0.052-0.032-0.104-0.063-0.156-0.097
						c-0.051-0.031-0.103-0.064-0.155-0.097c-0.057-0.032-0.112-0.065-0.168-0.099c-0.051-0.029-0.101-0.059-0.15-0.089
						c-0.061-0.035-0.122-0.069-0.184-0.104c-0.048-0.026-0.095-0.054-0.142-0.079c-0.063-0.033-0.125-0.068-0.189-0.101
						c-0.047-0.026-0.094-0.052-0.143-0.077c-0.068-0.035-0.136-0.068-0.204-0.104c-0.044-0.022-0.088-0.046-0.133-0.068
						c-0.072-0.035-0.146-0.07-0.218-0.104c-0.043-0.021-0.084-0.042-0.127-0.062c-0.076-0.037-0.153-0.072-0.229-0.107
						c-0.04-0.018-0.079-0.035-0.12-0.055c-0.08-0.035-0.161-0.07-0.244-0.105c-0.037-0.016-0.073-0.032-0.111-0.049
						c-0.082-0.035-0.167-0.069-0.251-0.104c-0.037-0.016-0.073-0.03-0.11-0.046c-0.086-0.034-0.172-0.067-0.257-0.101
						c-0.038-0.014-0.074-0.029-0.11-0.043c-0.087-0.033-0.174-0.064-0.262-0.097c-0.037-0.014-0.074-0.028-0.111-0.041
						c-0.09-0.032-0.182-0.063-0.273-0.095c-0.034-0.012-0.068-0.025-0.104-0.035c-0.096-0.033-0.19-0.064-0.286-0.096
						c-0.032-0.01-0.063-0.021-0.096-0.03c-0.097-0.03-0.194-0.061-0.291-0.089c-0.033-0.01-0.064-0.021-0.098-0.029
						c-0.102-0.031-0.204-0.06-0.307-0.09c-0.028-0.008-0.057-0.016-0.086-0.023c-0.102-0.029-0.206-0.057-0.311-0.082
						c-0.028-0.008-0.057-0.018-0.087-0.023c-0.107-0.029-0.216-0.055-0.325-0.082c-0.024-0.005-0.05-0.012-0.076-0.018
						c-0.108-0.025-0.217-0.05-0.326-0.075c-0.026-0.005-0.054-0.013-0.08-0.018c-0.11-0.024-0.22-0.047-0.33-0.069
						c-0.027-0.006-0.054-0.012-0.081-0.018c-0.108-0.021-0.219-0.041-0.327-0.063c-0.029-0.004-0.06-0.011-0.089-0.017
						c-0.113-0.02-0.227-0.039-0.341-0.058c-0.026-0.005-0.052-0.01-0.078-0.014c-0.114-0.019-0.229-0.036-0.346-0.054
						c-0.025-0.003-0.052-0.008-0.077-0.012c-0.116-0.017-0.233-0.032-0.351-0.048c-0.025-0.003-0.051-0.006-0.076-0.01
						c-0.117-0.016-0.236-0.028-0.354-0.041c-0.025-0.004-0.051-0.007-0.076-0.01c-0.117-0.013-0.234-0.025-0.354-0.035
						c-0.026-0.003-0.054-0.006-0.08-0.008c-0.116-0.012-0.231-0.02-0.348-0.029c-0.031-0.002-0.061-0.006-0.091-0.008
						c-0.115-0.008-0.231-0.016-0.347-0.021c-0.032-0.002-0.063-0.004-0.094-0.007c-0.116-0.005-0.231-0.011-0.348-0.015
						c-0.032-0.003-0.063-0.004-0.097-0.005c-0.116-0.005-0.235-0.008-0.353-0.011c-0.03,0-0.063-0.002-0.094-0.002
						c-0.116-0.003-0.232-0.004-0.35-0.005c-0.031,0-0.062-0.001-0.094-0.001l0,0h-0.029c-9.603-0.017-17.387,5.427-17.387,12.123
						v0.053c0.015,2.354,1.703,4.232,3.728,4.232h27.316c2.026,0,3.713-1.879,3.729-4.232v-0.05V127.829"/>
					<path id="Fill-154" fill="#E2E2E2" d="M316.405,126.534c-0.001-0.008,0.004-0.018,0.002-0.025
						c-0.01-0.094-0.018-0.188-0.03-0.28c-0.002-0.013-0.003-0.024-0.005-0.036c-0.013-0.09-0.026-0.18-0.041-0.268
						c-0.001-0.005-0.003-0.01-0.003-0.014c-0.018-0.096-0.036-0.192-0.056-0.288c-0.002-0.01-0.005-0.02-0.008-0.029
						c-0.019-0.091-0.039-0.179-0.063-0.269c-0.003-0.014-0.007-0.027-0.01-0.04c-0.022-0.086-0.045-0.171-0.07-0.256
						c-0.002-0.011-0.006-0.021-0.009-0.03c-0.026-0.088-0.053-0.176-0.081-0.264c-0.005-0.014-0.009-0.027-0.014-0.04
						c-0.028-0.083-0.057-0.168-0.088-0.251c-0.003-0.01-0.007-0.021-0.012-0.031c-0.03-0.086-0.063-0.172-0.099-0.257
						c-0.005-0.011-0.009-0.022-0.014-0.033c-0.035-0.085-0.07-0.169-0.107-0.253c-0.003-0.008-0.008-0.016-0.011-0.025
						c-0.038-0.085-0.078-0.172-0.12-0.258c-0.004-0.008-0.009-0.016-0.013-0.025c-0.041-0.084-0.084-0.17-0.128-0.253
						c-0.003-0.007-0.006-0.014-0.01-0.021c-0.045-0.085-0.092-0.171-0.14-0.256c-0.005-0.011-0.012-0.021-0.018-0.03
						c-0.046-0.081-0.093-0.163-0.142-0.243c-0.009-0.014-0.019-0.028-0.026-0.043c-0.047-0.075-0.094-0.15-0.143-0.227
						c-0.01-0.016-0.021-0.029-0.03-0.047c-0.049-0.073-0.097-0.146-0.147-0.219c-0.012-0.02-0.025-0.037-0.038-0.055
						c-0.049-0.07-0.098-0.141-0.148-0.208c-0.012-0.017-0.024-0.032-0.036-0.048c-0.053-0.07-0.105-0.143-0.159-0.211
						c-0.013-0.016-0.024-0.031-0.036-0.045c-0.057-0.07-0.111-0.143-0.17-0.211c-0.014-0.018-0.029-0.035-0.045-0.053
						c-0.055-0.067-0.109-0.133-0.167-0.199c-0.018-0.02-0.036-0.039-0.054-0.061c-0.056-0.063-0.11-0.125-0.168-0.187
						c-0.019-0.02-0.037-0.04-0.056-0.06c-0.058-0.061-0.115-0.124-0.174-0.184c-0.021-0.021-0.042-0.043-0.062-0.063
						c-0.058-0.061-0.117-0.119-0.177-0.178c-0.024-0.023-0.049-0.047-0.073-0.07c-0.058-0.055-0.114-0.111-0.173-0.164
						c-0.026-0.024-0.053-0.049-0.079-0.072c-0.057-0.053-0.115-0.107-0.175-0.16c-0.028-0.023-0.057-0.048-0.084-0.073
						c-0.06-0.051-0.117-0.103-0.177-0.153c-0.032-0.025-0.065-0.053-0.097-0.08c-0.058-0.047-0.114-0.095-0.173-0.141
						c-0.036-0.03-0.073-0.058-0.109-0.086c-0.055-0.045-0.111-0.089-0.167-0.132c-0.038-0.03-0.078-0.059-0.117-0.088
						c-0.056-0.042-0.111-0.083-0.167-0.126c-0.041-0.029-0.084-0.059-0.125-0.088c-0.056-0.04-0.11-0.08-0.166-0.12
						c-0.048-0.032-0.095-0.063-0.142-0.097c-0.052-0.035-0.104-0.07-0.156-0.105c-0.052-0.034-0.104-0.066-0.153-0.1
						c-0.051-0.033-0.102-0.067-0.153-0.1c-0.05-0.032-0.103-0.064-0.154-0.096c-0.053-0.032-0.104-0.064-0.157-0.098
						c-0.055-0.033-0.111-0.065-0.167-0.098c-0.051-0.03-0.1-0.061-0.151-0.09c-0.061-0.035-0.122-0.068-0.184-0.104
						c-0.047-0.025-0.094-0.053-0.142-0.08c-0.062-0.033-0.125-0.066-0.188-0.1c-0.049-0.025-0.096-0.051-0.145-0.076
						c-0.066-0.035-0.135-0.07-0.203-0.104c-0.045-0.023-0.089-0.046-0.134-0.068c-0.071-0.035-0.145-0.07-0.218-0.105
						c-0.041-0.02-0.083-0.04-0.126-0.061c-0.075-0.036-0.153-0.071-0.229-0.106c-0.041-0.018-0.08-0.036-0.119-0.055
						c-0.082-0.036-0.163-0.07-0.244-0.105c-0.037-0.017-0.075-0.033-0.112-0.049c-0.014-0.006-0.027-0.012-0.042-0.018
						c0.002,0,0.003,0.002,0.004,0.003c0.024,0.022,0.049,0.046,0.072,0.069c0.061,0.059,0.119,0.118,0.177,0.178
						c0.02,0.021,0.042,0.041,0.062,0.063c0.06,0.061,0.116,0.123,0.175,0.185c0.018,0.02,0.037,0.039,0.055,0.06
						c0.058,0.061,0.113,0.123,0.168,0.186c0.018,0.021,0.036,0.041,0.054,0.061c0.058,0.066,0.112,0.133,0.168,0.199
						c0.015,0.018,0.03,0.035,0.045,0.053c0.058,0.069,0.113,0.141,0.168,0.211c0.013,0.014,0.024,0.029,0.037,0.045
						c0.055,0.069,0.107,0.141,0.16,0.211c0.011,0.017,0.023,0.031,0.035,0.049c0.05,0.067,0.1,0.138,0.148,0.207
						c0.013,0.019,0.025,0.036,0.039,0.055c0.05,0.072,0.099,0.146,0.146,0.22c0.011,0.017,0.021,0.03,0.03,0.046
						c0.05,0.076,0.096,0.152,0.143,0.228c0.009,0.015,0.018,0.028,0.026,0.043c0.049,0.08,0.096,0.161,0.142,0.243
						c0.006,0.01,0.013,0.02,0.018,0.029c0.049,0.086,0.095,0.171,0.14,0.257c0.004,0.007,0.008,0.013,0.011,0.02
						c0.043,0.083,0.086,0.169,0.128,0.254c0.004,0.009,0.009,0.018,0.013,0.025c0.041,0.085,0.08,0.173,0.119,0.258
						c0.004,0.009,0.008,0.017,0.012,0.025c0.036,0.083,0.072,0.168,0.106,0.253c0.005,0.011,0.01,0.021,0.015,0.033
						c0.034,0.084,0.066,0.171,0.099,0.256c0.003,0.01,0.008,0.021,0.012,0.031c0.031,0.084,0.06,0.168,0.087,0.252
						c0.005,0.013,0.01,0.025,0.014,0.039c0.029,0.088,0.056,0.176,0.081,0.264c0.003,0.01,0.007,0.02,0.01,0.031
						c0.024,0.084,0.047,0.17,0.069,0.256c0.003,0.013,0.008,0.025,0.011,0.039c0.022,0.09,0.043,0.179,0.063,0.27
						c0.002,0.01,0.005,0.02,0.007,0.029c0.021,0.096,0.039,0.191,0.056,0.287c0.001,0.005,0.003,0.01,0.004,0.014
						c0.015,0.089,0.029,0.178,0.041,0.268c0.003,0.012,0.005,0.024,0.007,0.036c0.013,0.094,0.024,0.187,0.034,0.281
						c0,0.008-0.192,0.017-0.191,0.024c0.031,0.307-0.15,0.616-0.15,0.929v0.003v0.05c0,2.354-0.914,4.341-7.138,4.89l-21.597,0.73
						c0.388,1.099,1.456,2.381,3.203,2.381h27.317c2.024,0,3.705-2.352,3.705-4.706v-0.05v-0.003
						C316.438,127.149,316.437,126.84,316.405,126.534"/>
					<path id="Stroke-153" fill="none" stroke="#000000" stroke-width="2" stroke-linecap="round" stroke-linejoin="round" d="
						M316.095,127.829c0.002-0.313-0.013-0.623-0.044-0.93c-0.001-0.008-0.002-0.017-0.003-0.024
						c-0.01-0.095-0.021-0.188-0.034-0.28c-0.002-0.013-0.005-0.025-0.006-0.037c-0.013-0.089-0.027-0.178-0.043-0.267
						c-0.001-0.005-0.002-0.009-0.002-0.013c-0.018-0.098-0.036-0.192-0.057-0.288c-0.002-0.01-0.005-0.021-0.007-0.03
						c-0.02-0.09-0.041-0.18-0.063-0.269c-0.003-0.013-0.008-0.026-0.011-0.04c-0.022-0.086-0.045-0.172-0.069-0.256
						c-0.004-0.01-0.007-0.021-0.01-0.031c-0.025-0.088-0.052-0.176-0.08-0.264c-0.005-0.014-0.011-0.025-0.015-0.039
						c-0.027-0.084-0.056-0.168-0.087-0.252c-0.004-0.01-0.009-0.02-0.012-0.031c-0.032-0.085-0.065-0.171-0.099-0.256
						c-0.005-0.012-0.011-0.022-0.015-0.032c-0.034-0.086-0.069-0.171-0.106-0.254c-0.005-0.009-0.008-0.017-0.012-0.024
						c-0.039-0.086-0.078-0.172-0.119-0.258c-0.004-0.009-0.009-0.018-0.013-0.026c-0.042-0.085-0.084-0.169-0.128-0.253
						c-0.003-0.008-0.008-0.013-0.011-0.02c-0.045-0.086-0.091-0.172-0.14-0.257c-0.006-0.01-0.011-0.02-0.018-0.03
						c-0.046-0.082-0.092-0.162-0.142-0.243c-0.009-0.015-0.018-0.027-0.026-0.042c-0.046-0.076-0.094-0.152-0.142-0.227
						c-0.01-0.016-0.021-0.031-0.031-0.047c-0.048-0.073-0.097-0.146-0.146-0.221c-0.014-0.018-0.026-0.036-0.04-0.054
						c-0.048-0.07-0.097-0.14-0.148-0.208c-0.011-0.018-0.022-0.032-0.035-0.048c-0.053-0.071-0.104-0.142-0.16-0.212
						c-0.012-0.016-0.023-0.029-0.036-0.045c-0.055-0.07-0.11-0.141-0.168-0.211c-0.014-0.018-0.029-0.035-0.045-0.053
						c-0.055-0.066-0.11-0.133-0.168-0.199c-0.018-0.02-0.036-0.039-0.054-0.059c-0.055-0.063-0.111-0.127-0.168-0.188
						c-0.018-0.02-0.036-0.04-0.055-0.06c-0.059-0.062-0.115-0.123-0.175-0.185c-0.02-0.021-0.041-0.042-0.062-0.062
						c-0.059-0.06-0.116-0.12-0.176-0.178c-0.024-0.023-0.05-0.046-0.073-0.07c-0.058-0.056-0.114-0.11-0.173-0.165
						c-0.026-0.023-0.053-0.049-0.079-0.071c-0.058-0.054-0.116-0.107-0.176-0.16c-0.027-0.024-0.056-0.048-0.084-0.073
						c-0.059-0.051-0.117-0.103-0.177-0.153c-0.032-0.026-0.065-0.053-0.097-0.079c-0.058-0.048-0.114-0.096-0.173-0.143
						c-0.036-0.028-0.072-0.057-0.108-0.086c-0.057-0.043-0.111-0.088-0.168-0.131c-0.039-0.03-0.078-0.059-0.117-0.088
						c-0.056-0.042-0.11-0.084-0.167-0.125c-0.041-0.03-0.083-0.061-0.125-0.09c-0.055-0.039-0.109-0.08-0.167-0.118
						c-0.046-0.033-0.094-0.065-0.142-0.097c-0.052-0.037-0.103-0.072-0.155-0.106c-0.051-0.034-0.103-0.067-0.154-0.101
						c-0.05-0.033-0.101-0.065-0.151-0.099c-0.052-0.032-0.104-0.063-0.156-0.097c-0.051-0.031-0.103-0.064-0.155-0.097
						c-0.057-0.032-0.112-0.065-0.168-0.099c-0.051-0.029-0.101-0.059-0.15-0.089c-0.061-0.035-0.122-0.069-0.184-0.104
						c-0.048-0.026-0.095-0.054-0.142-0.079c-0.063-0.033-0.125-0.068-0.189-0.101c-0.047-0.026-0.094-0.052-0.143-0.077
						c-0.068-0.035-0.136-0.068-0.204-0.104c-0.044-0.022-0.088-0.046-0.133-0.068c-0.072-0.035-0.146-0.07-0.218-0.104
						c-0.043-0.021-0.084-0.042-0.127-0.062c-0.076-0.037-0.153-0.072-0.229-0.107c-0.04-0.018-0.079-0.035-0.12-0.055
						c-0.08-0.035-0.161-0.07-0.244-0.105c-0.037-0.016-0.073-0.032-0.111-0.049c-0.082-0.035-0.167-0.069-0.251-0.104
						c-0.037-0.016-0.073-0.03-0.11-0.046c-0.086-0.034-0.172-0.067-0.257-0.101c-0.038-0.014-0.074-0.029-0.11-0.043
						c-0.087-0.033-0.174-0.064-0.262-0.097c-0.037-0.014-0.074-0.028-0.111-0.041c-0.09-0.032-0.182-0.063-0.273-0.095
						c-0.034-0.012-0.068-0.025-0.104-0.035c-0.096-0.033-0.19-0.064-0.286-0.096c-0.032-0.01-0.063-0.021-0.096-0.03
						c-0.097-0.03-0.194-0.061-0.291-0.089c-0.033-0.01-0.064-0.021-0.098-0.029c-0.102-0.031-0.204-0.06-0.307-0.09
						c-0.028-0.008-0.057-0.016-0.086-0.023c-0.102-0.029-0.206-0.057-0.311-0.082c-0.028-0.008-0.057-0.018-0.087-0.023
						c-0.107-0.029-0.216-0.055-0.325-0.082c-0.024-0.005-0.05-0.012-0.076-0.018c-0.108-0.025-0.217-0.05-0.326-0.075
						c-0.026-0.005-0.054-0.013-0.08-0.018c-0.11-0.024-0.22-0.047-0.33-0.069c-0.027-0.006-0.054-0.012-0.081-0.018
						c-0.108-0.021-0.219-0.041-0.327-0.063c-0.029-0.004-0.06-0.011-0.089-0.017c-0.113-0.02-0.227-0.039-0.341-0.058
						c-0.026-0.005-0.052-0.01-0.078-0.014c-0.114-0.019-0.229-0.036-0.346-0.054c-0.025-0.003-0.052-0.008-0.077-0.012
						c-0.116-0.017-0.233-0.032-0.351-0.048c-0.025-0.003-0.051-0.006-0.076-0.01c-0.117-0.016-0.236-0.028-0.354-0.041
						c-0.025-0.004-0.051-0.007-0.076-0.01c-0.117-0.013-0.234-0.025-0.354-0.035c-0.026-0.003-0.054-0.006-0.08-0.008
						c-0.116-0.012-0.231-0.02-0.348-0.029c-0.031-0.002-0.061-0.006-0.091-0.008c-0.115-0.008-0.231-0.016-0.347-0.021
						c-0.032-0.002-0.063-0.004-0.094-0.007c-0.116-0.005-0.231-0.011-0.348-0.015c-0.032-0.003-0.063-0.004-0.097-0.005
						c-0.116-0.005-0.235-0.008-0.353-0.011c-0.03,0-0.063-0.002-0.094-0.002c-0.116-0.003-0.232-0.004-0.35-0.005
						c-0.031,0-0.062-0.001-0.094-0.001l0,0h-0.029c-9.603-0.017-17.387,5.427-17.387,12.123v0.053
						c0.015,2.354,1.703,4.232,3.728,4.232h27.316c2.026,0,3.713-1.879,3.729-4.232v-0.05V127.829L316.095,127.829z"/>
					<g id="Group-157" transform="translate(306.484663, 123.092025)">
						<path id="Fill-155" fill="#FFCF6D" d="M0.908,2.462L2.621,0.29"/>
						<path id="Stroke-156" fill="none" stroke="#000000" stroke-width="2" stroke-linecap="round" stroke-linejoin="round" d="
							M0.908,2.462L2.621,0.29"/>
					</g>
					<g id="Group-160" transform="translate(293.306748, 119.797546)">
						<path id="Fill-158" fill="#FFCF6D" d="M0.476,0.839l2.49-0.557"/>
						<path id="Stroke-159" fill="none" stroke="#000000" stroke-width="2" stroke-linecap="round" stroke-linejoin="round" d="
							M0.476,0.839l2.49-0.557"/>
					</g>
					<g id="Group-163" transform="translate(299.895706, 123.092025)">
						<path id="Fill-161" fill="#FFCF6D" d="M0.194,0.038l2.447,0.771"/>
						<path id="Stroke-162" fill="none" stroke="#000000" stroke-width="2" stroke-linecap="round" stroke-linejoin="round" d="
							M0.194,0.038l2.447,0.771"/>
					</g>
					<g id="Group-166" transform="translate(290.012270, 124.190184)">
						<path id="Fill-164" fill="#FFCF6D" d="M0.797,0.486l2.536,0.006"/>
						<path id="Stroke-165" fill="none" stroke="#000000" stroke-width="2" stroke-linecap="round" stroke-linejoin="round" d="
							M0.797,0.486l2.536,0.006"/>
					</g>
					<g id="Group-169" transform="translate(44.024540, 106.619632)">
						<polyline id="Fill-167" fill="#FFC83D" points="17.323,5.959 17.323,0.693 0.59,0.693 0.59,5.959 						"/>
						
							<polyline id="Stroke-168" fill="none" stroke="#000000" stroke-width="2" stroke-linecap="round" stroke-linejoin="round" points="
							17.323,5.959 17.323,0.693 0.59,0.693 0.59,5.959 						"/>
					</g>
					<path id="Fill-170" fill="#FFFFFF" d="M12.33,144.118h76.422c0,0,0.71-12.506-1.066-14.292
						c-1.778-1.788-9.242-3.448-9.242-3.448l-6.176-10.174c0,0-1.066-1.539-2-2.148c-0.933-0.609-3.065-0.687-3.065-0.687H41.241
						c0,0-1.792-0.095-3.096,0.556s-2.517,2.596-2.517,2.596l-7.065,10.115l-14.928,1.938c0,0-2.904,3.129-2.844,7.354
						L12.33,144.118z"/>
					<path id="Fill-172" fill="#E2E2E2" d="M19.524,138.536c-2.416-2.699-2.694-7.825-2.694-7.825
						c-0.011-0.787,0.081-1.537,0.238-2.235l-2.885,0.374c0,0-2.904,3.128-2.844,7.353l1.541,8.189h76.421
						c0,0-0.039-0.296-0.044-3.248C89.257,141.143,21.94,141.235,19.524,138.536"/>
					<path id="Stroke-171" fill="none" stroke="#000000" stroke-width="2" stroke-linecap="round" stroke-linejoin="round" d="
						M12.33,144.118h76.422c0,0,0.71-12.506-1.066-14.292c-1.778-1.788-9.242-3.448-9.242-3.448l-6.176-10.174
						c0,0-1.066-1.539-2-2.148c-0.933-0.609-3.065-0.687-3.065-0.687H41.241c0,0-1.792-0.095-3.096,0.556s-2.517,2.596-2.517,2.596
						l-7.065,10.115l-14.928,1.938c0,0-2.904,3.129-2.844,7.354L12.33,144.118L12.33,144.118z"/>
					<path id="Fill-173" fill="#FFC83D" d="M42.188,117.761h24.881l5.276,8.785H34.368l4.858-7.425
						C39.226,119.122,39.937,117.761,42.188,117.761"/>
					<path id="Stroke-174" fill="none" stroke="#000000" stroke-width="2" stroke-linecap="round" stroke-linejoin="round" d="
						M42.188,117.761h24.881l5.276,8.785H34.368l4.858-7.425C39.226,119.122,39.937,117.761,42.188,117.761L42.188,117.761z"/>
					<path id="Stroke-175" fill="none" stroke="#E2E2E2" stroke-width="2" stroke-linecap="round" stroke-linejoin="round" d="
						M33.114,128.926h38.436"/>
					<path id="Stroke-176" fill="none" stroke="#000000" stroke-width="2" stroke-linecap="round" stroke-linejoin="round" d="
						M43.918,130.94h3.294"/>
					<path id="Stroke-177" fill="none" stroke="#000000" stroke-width="2" stroke-linecap="round" stroke-linejoin="round" d="
						M12.072,135.333h4.393"/>
					<path id="Stroke-178" fill="none" stroke="#000000" stroke-width="2" stroke-linecap="round" stroke-linejoin="round" d="
						M65.882,130.94h4.393"/>
					<path id="Stroke-179" fill="none" stroke="#000000" stroke-width="2" stroke-linecap="round" stroke-linejoin="round" d="
						M53.253,125.998v-7.687"/>
					<path id="Fill-180" fill="#FFFFFF" d="M36.718,143.001c0,3.648-2.958,6.607-6.607,6.607c-3.65,0-6.609-2.959-6.609-6.607
						c0-3.65,2.958-6.608,6.609-6.608C33.759,136.392,36.718,139.35,36.718,143.001"/>
					<path id="Stroke-181" fill="none" stroke="#000000" stroke-width="2" stroke-linecap="round" stroke-linejoin="round" d="
						M36.718,143.001c0,3.648-2.958,6.607-6.607,6.607c-3.65,0-6.609-2.959-6.609-6.607c0-3.65,2.958-6.608,6.609-6.608
						C33.759,136.392,36.718,139.35,36.718,143.001L36.718,143.001z"/>
					<path id="Fill-182" d="M32.661,143.001c0,1.408-1.142,2.552-2.552,2.552c-1.409,0-2.551-1.144-2.551-2.552
						c0-1.41,1.142-2.553,2.551-2.553C31.519,140.448,32.661,141.591,32.661,143.001"/>
					<path id="Fill-183" fill="#FFFFFF" d="M80.699,143.001c0,3.648-2.958,6.607-6.607,6.607c-3.65,0-6.609-2.959-6.609-6.607
						c0-3.65,2.958-6.608,6.609-6.608C77.741,136.392,80.699,139.35,80.699,143.001"/>
					<path id="Stroke-184" fill="none" stroke="#000000" stroke-width="2" stroke-linecap="round" stroke-linejoin="round" d="
						M80.699,143.001c0,3.648-2.958,6.607-6.607,6.607c-3.65,0-6.609-2.959-6.609-6.607c0-3.65,2.958-6.608,6.609-6.608
						C77.741,136.392,80.699,139.35,80.699,143.001L80.699,143.001z"/>
					<path id="Fill-185" d="M76.643,143.001c0,1.408-1.142,2.552-2.552,2.552c-1.409,0-2.551-1.144-2.551-2.552
						c0-1.41,1.142-2.553,2.551-2.553C75.501,140.448,76.643,141.591,76.643,143.001"/>
					<path id="Stroke-186" fill="none" stroke="#D1D1D1" stroke-width="2" stroke-linecap="round" stroke-linejoin="round" d="
						M134.013,23.869h6.17c0,0,1.011-4.9,5.83-4.9c4.818,0,5.641,4.742,5.641,4.742s2.01-2.939,5.296-2.174
						c3.284,0.764,3.539,5.318,3.539,5.318h5.537"/>
				</g>
			</g>
		</g>
	</g>
</g>
<g id="Page-1_2_">
	<g id="_x32_07_x5F_M2U_x5F_Planner_x5F_Travel-Copy" transform="translate(-823.000000, -337.000000)">
		
			<g id="plane" transform="translate(853.110230, 355.168677) rotate(26.000000) translate(-853.110230, -355.168677) translate(823.110230, 339.668677)">
			<path id="Fill-1_1_" fill="#373737" d="M203.661,48.155c0.015,0.031,0.033,0.058,0.047,0.088l0.339,0.727
				c0.586,1.258-0.319,2.224-1.284,2.674l-37.338,17.853l-4.68,2.182c-0.836,0.389-1.812,0.285-2.547-0.273l-7.567-5.753
				l1.966-0.915l5.063,2.732c0.356,0.191,0.784,0.189,1.14-0.006l11.127-6.134l1.649,1.384c0.211,0.16,0.465,0.243,0.72,0.242
				c0.171,0,0.343-0.036,0.503-0.111l9.802-4.572c0.408-0.189,0.673-0.593,0.687-1.042c0.013-0.45-0.228-0.869-0.624-1.081
				l-1.776-0.863l13.295-7.329c3.022-1.452,5.643-1.956,7.434-1.439L203.661,48.155z M172.444,60.383l-12.812-9.871l3.965-1.849
				l15.852,8.453L172.444,60.383z M206.203,47.964l-0.337-0.725c-0.639-1.368-1.747-2.366-3.208-2.888
				c-2.436-0.868-5.733-0.357-9.537,1.477c-0.019,0.009-0.038,0.02-0.058,0.029l-14.666,8.086l-14.195-7.657
				c-0.331-0.177-0.727-0.189-1.067-0.029l-6.293,2.935c-0.378,0.176-0.636,0.536-0.681,0.951c-0.045,0.413,0.13,0.821,0.463,1.073
				l11.232,8.539l-9.636,5.313l-5.019-2.707c-0.331-0.178-0.727-0.19-1.067-0.031l-4.292,2.002c-0.378,0.177-0.637,0.538-0.68,0.951
				c-0.044,0.415,0.132,0.822,0.462,1.074l9.136,6.944c0.863,0.656,1.896,0.993,2.937,0.993c0.698,0.001,1.399-0.15,2.056-0.457
				l4.689-2.187l37.337-17.852c1.121-0.523,1.993-1.359,2.457-2.354C206.746,50.341,206.736,49.105,206.203,47.964L206.203,47.964z"
				/>
		</g>
	</g>
</g>
</svg>
