<?xml version="1.0" encoding="UTF-8"?>
<svg width="732px" height="178px" viewBox="0 0 732 178" version="1.1" xmlns="http://www.w3.org/2000/svg" xmlns:xlink="http://www.w3.org/1999/xlink">
    <!-- Generator: sketchtool 41.2 (35397) - http://www.bohemiancoding.com/sketch -->
    <title>7BBCB24D-36A2-43EE-B133-A9EBF12B9ECC</title>
    <desc>Created with sketchtool.</desc>
    <defs></defs>
    <g id="Page-1" stroke="none" stroke-width="1" fill="none" fill-rule="evenodd">
        <g id="603_M2U_Planner_Travel-Copy-26" transform="translate(-288.000000, -495.000000)">
            <g id="Group-5" transform="translate(290.000000, 495.000000)">
                <path d="M156,144.2 L728.503493,144.2" id="Line" stroke="#1C1918" stroke-width="2.4" stroke-linecap="round" stroke-linejoin="round"></path>
                <path d="M23,144.2 L147,144.2" id="Line-Copy" stroke="#1C1918" stroke-width="2.4" stroke-linecap="round" stroke-linejoin="round"></path>
                <path d="M0,144.2 L13,144.2" id="Line-Copy" stroke="#1C1918" stroke-width="2.4" stroke-linecap="round" stroke-linejoin="round"></path>
                <g id="Page-1" transform="translate(188.000000, 0.000000)">
                    <path d="M7.54917178,151.105085 L317.123632,151.105085 L7.54917178,151.105085 Z" id="Fill-1" fill="#FFFFFF"></path>
                    <path d="M7.54873252,151.104975 L317.124291,151.104975" id="Stroke-2" stroke="#E2E2E2" stroke-width="12" stroke-linecap="round" stroke-linejoin="round"></path>
                    <path d="M24.3460706,160.498302 L89.8512853,160.498302 L24.3460706,160.498302 Z" id="Fill-4" fill="#FFFFFF"></path>
                    <path d="M89.8517245,160.498302 L24.3454117,160.498302" id="Stroke-5" stroke="#000000" stroke-width="2" stroke-linecap="round" stroke-linejoin="round"></path>
                    <path d="M98.6368908,160.498302 L123.162087,160.498302 L98.6368908,160.498302 Z" id="Fill-6" fill="#FFFFFF"></path>
                    <path d="M123.162526,160.498302 L98.6373301,160.498302" id="Stroke-7" stroke="#000000" stroke-width="2" stroke-linecap="round" stroke-linejoin="round"></path>
                    <path d="M256.406173,160.498302 L300.69824,160.498302 L256.406173,160.498302 Z" id="Fill-8" fill="#FFFFFF"></path>
                    <path d="M300.69835,160.498302 L256.406283,160.498302" id="Stroke-9" stroke="#000000" stroke-width="2" stroke-linecap="round" stroke-linejoin="round"></path>
                    <path d="M132.680385,160.498302 L247.620348,160.498302 L132.680385,160.498302 Z" id="Fill-10" fill="#FFFFFF"></path>
                    <path d="M247.620567,160.498302 L132.679506,160.498302" id="Stroke-11" stroke="#000000" stroke-width="2" stroke-linecap="round" stroke-linejoin="round"></path>
                    <path d="M246.782672,176.238662 L270.681917,176.238662 L246.782672,176.238662 Z" id="Fill-12" fill="#FFFFFF"></path>
                    <path d="M270.681917,176.238552 L246.782672,176.238552" id="Stroke-13" stroke="#000000" stroke-width="2" stroke-linecap="round" stroke-linejoin="round"></path>
                    <path d="M140.733408,176.238662 L155.741954,176.238662 L140.733408,176.238662 Z" id="Fill-15" fill="#FFFFFF"></path>
                    <path d="M155.741295,176.238552 L140.732749,176.238552" id="Stroke-16" stroke="#000000" stroke-width="2" stroke-linecap="round" stroke-linejoin="round"></path>
                    <path d="M163.428741,176.238662 L238.750404,176.238662 L163.428741,176.238662 Z" id="Fill-18" fill="#FFFFFF"></path>
                    <path d="M238.750513,176.238552 L163.428851,176.238552" id="Stroke-19" stroke="#000000" stroke-width="2" stroke-linecap="round" stroke-linejoin="round"></path>
                    <path d="M80.3347448,176.238662 L133.389027,176.238662 L80.3347448,176.238662 Z" id="Fill-21" fill="#FFFFFF"></path>
                    <path d="M133.389356,176.238552 L80.3339761,176.238552" id="Stroke-22" stroke="#000000" stroke-width="2" stroke-linecap="round" stroke-linejoin="round"></path>
                    <path d="M0.0980496932,144.002848 L323.923326,144.002848 L0.0980496932,144.002848 Z" id="Fill-24" fill="#FFFFFF"></path>
                    <g id="Group-191" transform="translate(0.000000, 0.434871)">
                        <path d="M24.5551601,70.5889086 C24.5738288,70.123289 24.6902337,69.3227307 25.2195466,68.7000742 C25.7949822,68.0225098 27.8880742,66.557565 29.2739515,66.5125405" id="Stroke-27" stroke="#D1D1D1" stroke-width="2" stroke-linecap="round" stroke-linejoin="round"></path>
                        <path d="M18.123789,66.5131994 C18.7958626,66.5230828 23.1138258,67.8211074 23.4191141,70.7235429" id="Stroke-29" stroke="#D1D1D1" stroke-width="2" stroke-linecap="round" stroke-linejoin="round"></path>
                        <path d="M247.698866,36.8212724 C247.717535,36.3556528 247.83394,35.5550945 248.363253,34.932438 C248.938688,34.2548736 251.03178,32.7899288 252.417658,32.7449043" id="Stroke-31" stroke="#D1D1D1" stroke-width="2" stroke-linecap="round" stroke-linejoin="round"></path>
                        <path d="M241.267495,32.7455632 C241.939569,32.7554466 246.257532,34.0534712 246.56282,36.9559067" id="Stroke-33" stroke="#D1D1D1" stroke-width="2" stroke-linecap="round" stroke-linejoin="round"></path>
                        <path d="M201.130534,60.6904282 L207.298896,60.5707288 C207.298896,60.5707288 208.214761,55.6520724 213.032387,55.5576307 C217.850012,55.4642871 218.764779,60.1896675 218.764779,60.1896675 C218.764779,60.1896675 220.717307,57.2114589 224.016178,57.9120847 C227.316147,58.6127104 227.658773,63.1612871 227.658773,63.1612871 L233.194595,63.0536675" id="Stroke-35" stroke="#D1D1D1" stroke-width="2" stroke-linecap="round" stroke-linejoin="round"></path>
                        <polygon id="Fill-37" fill="#FFC83D" points="118.341387 123.985926 246.891939 123.985926 246.891939 117.663822 118.341387 117.663822"></polygon>
                        <path d="M151.533038,82.3650221 L151.533038,143.019666" id="Stroke-39" stroke="#000000" stroke-width="2" stroke-linecap="round" stroke-linejoin="round"></path>
                        <path d="M133.62019,116.083351 L133.62019,105.54651" id="Stroke-40" stroke="#000000" stroke-width="2" stroke-linecap="round" stroke-linejoin="round"></path>
                        <path d="M124.141206,116.083351 L124.141206,109.761247" id="Stroke-41" stroke="#000000" stroke-width="2" stroke-linecap="round" stroke-linejoin="round"></path>
                        <path d="M170.499571,116.083351 L170.499571,102.384909" id="Stroke-42" stroke="#000000" stroke-width="2" stroke-linecap="round" stroke-linejoin="round"></path>
                        <path d="M143.103456,116.083351 L143.103456,97.117038" id="Stroke-43" stroke="#000000" stroke-width="2" stroke-linecap="round" stroke-linejoin="round"></path>
                        <path d="M161.016304,116.083351 L161.016304,96.0628049" id="Stroke-44" stroke="#000000" stroke-width="2" stroke-linecap="round" stroke-linejoin="round"></path>
                        <path d="M112.377282,109.629467 L118.868503,109.629467 C118.868503,109.629467 141.522436,109.058425 151.708963,79.8188294 C151.708963,79.8188294 160.84016,105.019394 181.914939,105.019394 L183.670896,105.019394 C204.744577,105.019394 213.876871,79.8188294 213.876871,79.8188294 C228.277037,110.112658 246.716233,109.409836 246.716233,109.409836 L251.170368,109.409836" id="Stroke-45" stroke="#000000" stroke-width="2" stroke-linecap="round" stroke-linejoin="round"></path>
                        <path d="M213.701056,82.3650221 L213.701056,143.019666" id="Stroke-46" stroke="#000000" stroke-width="2" stroke-linecap="round" stroke-linejoin="round"></path>
                        <path d="M246.892488,123.986036 L118.341936,123.986036" id="Stroke-47" stroke="#000000" stroke-width="2"></path>
                        <polyline id="Stroke-48" stroke="#000000" stroke-width="2" points="246.892488 117.663822 183.670347 117.663822 181.562979 117.663822 118.341936 117.663822"></polyline>
                        <path d="M232.667588,116.083351 L232.667588,104.492277" id="Stroke-49" stroke="#000000" stroke-width="2" stroke-linecap="round" stroke-linejoin="round"></path>
                        <path d="M241.322623,116.083351 L241.322623,109.761247" id="Stroke-50" stroke="#000000" stroke-width="2" stroke-linecap="round" stroke-linejoin="round"></path>
                        <path d="M193.680839,116.083351 L193.680839,103.439142" id="Stroke-51" stroke="#000000" stroke-width="2" stroke-linecap="round" stroke-linejoin="round"></path>
                        <path d="M182.090205,116.083351 L182.090205,105.54651" id="Stroke-52" stroke="#000000" stroke-width="2" stroke-linecap="round" stroke-linejoin="round"></path>
                        <path d="M223.184322,116.083351 L223.184322,96.0628049" id="Stroke-53" stroke="#000000" stroke-width="2" stroke-linecap="round" stroke-linejoin="round"></path>
                        <path d="M204.21779,116.083351 L204.21779,96.0628049" id="Stroke-54" stroke="#000000" stroke-width="2" stroke-linecap="round" stroke-linejoin="round"></path>
                        <path d="M91.1323982,64.2262822 L91.778116,56.8137055 L80.4769564,46.3811902 L79.757662,17.1372025 C79.757662,17.1372025 83.7055454,12.8873252 85.320938,19.4762822 L89.1952448,41.7140123 L95.3295638,44.459411 L111.797564,45.8321104 L91.1323982,64.2262822 Z" id="Fill-55" fill="#FFFFFF"></path>
                        <path d="M91.1323982,64.2262822 L91.778116,56.8137055 L80.4769564,46.3811902 L79.757662,17.1372025 C79.757662,17.1372025 83.7055454,12.8873252 85.320938,19.4762822 L89.1952448,41.7140123 L95.3295638,44.459411 L111.797564,45.8321104 L91.1323982,64.2262822 L91.1323982,64.2262822 Z" id="Stroke-56" stroke="#000000" stroke-width="2" stroke-linecap="round" stroke-linejoin="round"></path>
                        <path d="M96.2576184,59.3991025 C96.2576184,59.3991025 96.7375141,56.1727098 94.2677534,53.771035 C92.1812503,51.7427344 85.6878331,46.6329982 85.1387534,44.0248693 C83.8011951,37.6720166 84.2108086,16.4511822 84.2108086,16.4511822 C82.3669988,13.9627528 79.7577718,16.7707466 79.7577718,16.7707466 L80.4770663,46.0147344 L91.7782258,56.4472497 L91.132508,63.8598264 L96.2576184,59.3991025 Z" id="Fill-57" fill="#E2E2E2"></path>
                        <polygon id="Fill-58" fill="#FFFFFF" points="91.6883963 109.250822 91.6883963 95.2492883 113.044304 83.3068037 113.666961 109.250822"></polygon>
                        <polygon id="Fill-60" fill="#E2E2E2" points="91.3159006 106.139517 112.860692 86.6471853 112.833238 82.5752098 91.3159006 95.8442712"></polygon>
                        <polygon id="Stroke-59" stroke="#000000" stroke-width="2" stroke-linecap="round" stroke-linejoin="round" points="91.6883963 109.250822 91.6883963 95.2492883 113.044304 83.3068037 113.666961 109.250822"></polygon>
                        <path d="M89.0953123,64.0011595 L113.088999,45.8321104 C113.088999,45.8321104 115.671871,70.2661595 116.640447,80.9732147 L89.5181037,96.3474479 L89.0953123,64.0011595 Z" id="Fill-61" fill="#FFFFFF"></path>
                        <path d="M89.0953123,64.0011595 L113.088999,45.8321104 C113.088999,45.8321104 115.671871,70.2661595 116.640447,80.9732147 L89.5181037,96.3474479 L89.0953123,64.0011595 L89.0953123,64.0011595 Z" id="Stroke-62" stroke="#000000" stroke-width="2" stroke-linecap="round" stroke-linejoin="round"></path>
                        <polygon id="Fill-63" fill="#FFC83D" points="111.960201 67.800462 106.473796 61.0006583 118.239477 51.3357564 123.725882 58.1355601"></polygon>
                        <polygon id="Stroke-64" stroke="#000000" stroke-width="2" stroke-linecap="round" stroke-linejoin="round" points="111.960201 67.800462 106.473796 61.0006583 118.239477 51.3357564 123.725882 58.1355601"></polygon>
                        <polygon id="Fill-65" fill="#E2E2E2" points="111.960201 69.0816847 105.866514 62.075427 105.019833 66.8491264 110.50514 73.6478319 114.37725 70.3116233 114.23998 67.4289546"></polygon>
                        <path d="M86.1975988,10.600408 C86.1975988,12.7989233 84.4152859,14.5812362 82.2167706,14.5812362 C80.0182552,14.5812362 78.2359423,12.7989233 78.2359423,10.600408 C78.2359423,8.40189264 82.2167706,0.760898773 82.2167706,0.760898773 C82.2167706,0.760898773 86.1975988,8.40189264 86.1975988,10.600408" id="Fill-66" fill="#FFC83D"></path>
                        <path d="M86.1975988,10.600408 C86.1975988,12.7989233 84.4152859,14.5812362 82.2167706,14.5812362 C80.0182552,14.5812362 78.2359423,12.7989233 78.2359423,10.600408 C78.2359423,8.40189264 82.2167706,0.760898773 82.2167706,0.760898773 C82.2167706,0.760898773 86.1975988,8.40189264 86.1975988,10.600408 L86.1975988,10.600408 Z" id="Stroke-67" stroke="#000000" stroke-width="2" stroke-linecap="round" stroke-linejoin="round"></path>
                        <g id="Group-70" transform="translate(101.128834, 18.766871)">
                            <path d="M0.442997546,0.709411043 L0.442997546,6.20020859" id="Fill-68" fill="#FFFFFF"></path>
                            <path d="M0.442997546,0.709411043 L0.442997546,6.20020859" id="Stroke-69" stroke="#000000" stroke-width="2" stroke-linecap="round" stroke-linejoin="round"></path>
                        </g>
                        <g id="Group-73" transform="translate(107.717791, 24.257669)">
                            <path d="M0.724895092,3.82774479 L5.04176012,0.0599595092" id="Fill-71" fill="#FFFFFF"></path>
                            <path d="M0.724895092,3.82774479 L5.04176012,0.0599595092" id="Stroke-72" stroke="#000000" stroke-width="2" stroke-linecap="round" stroke-linejoin="round"></path>
                        </g>
                        <g id="Group-76" transform="translate(91.245399, 24.257669)">
                            <path d="M5.15487055,3.82774479 L0.838005521,0.0599595092" id="Fill-74" fill="#FFFFFF"></path>
                            <path d="M5.15487055,3.82774479 L0.838005521,0.0599595092" id="Stroke-75" stroke="#000000" stroke-width="2" stroke-linecap="round" stroke-linejoin="round"></path>
                        </g>
                        <path d="M107.333875,36.1828025 C107.333875,38.6679374 104.95636,40.6896491 102.033059,40.6896491 C99.1097583,40.6896491 96.7311448,38.6679374 96.7311448,36.1828025 L96.7311448,31.6748577 C96.7311448,29.1897227 99.1097583,27.168011 102.033059,27.168011 C104.95636,27.168011 107.333875,29.1897227 107.333875,31.6748577 L107.333875,36.1828025 Z" id="Fill-77" fill="#FFFFFF"></path>
                        <path d="M104.915398,38.0820693 C101.992098,38.0820693 99.6145822,36.0603577 99.6145822,33.5752227 L99.6145822,29.0672779 C99.6145822,28.6093454 99.7189074,28.1766706 99.8682571,27.7604681 C98.2506681,28.5335724 97.1437233,29.9886337 97.1437233,31.6754067 L97.1437233,36.1833515 C97.1437233,38.6684865 99.5212387,40.6901982 102.444539,40.6901982 C104.829742,40.6901982 106.828392,39.3350693 107.49168,37.4890632 C106.725165,37.8558485 105.855423,38.0820693 104.915398,38.0820693" id="Fill-79" fill="#E2E2E2"></path>
                        <path d="M107.333875,36.1828025 C107.333875,38.6679374 104.95636,40.6896491 102.033059,40.6896491 C99.1097583,40.6896491 96.7311448,38.6679374 96.7311448,36.1828025 L96.7311448,31.6748577 C96.7311448,29.1897227 99.1097583,27.168011 102.033059,27.168011 C104.95636,27.168011 107.333875,29.1897227 107.333875,31.6748577 L107.333875,36.1828025 L107.333875,36.1828025 Z" id="Stroke-78" stroke="#000000" stroke-width="2" stroke-linecap="round" stroke-linejoin="round"></path>
                        <polygon id="Fill-80" fill="#FFFFFF" points="84.3522515 135.057571 121.484319 135.057571 121.484319 114.96784 84.3522515 114.96784"></polygon>
                        <path d="M90.7668209,130.390502 C89.5171153,129.696466 88.8450417,115.748742 88.8450417,115.748742 L84.7269436,115.748742 L84.7269436,135.515613 L120.966207,135.515613 L120.966207,131.946594 C120.966207,131.946594 94.0612994,132.221134 90.7668209,130.390502" id="Fill-82" fill="#E2E2E2"></path>
                        <polygon id="Stroke-81" stroke="#000000" stroke-width="2" stroke-linecap="round" stroke-linejoin="round" points="84.3522515 135.057571 121.484319 135.057571 121.484319 114.96784 84.3522515 114.96784"></polygon>
                        <polygon id="Fill-83" fill="#FFC83D" points="88.8722761 115.01616 115.671761 115.01616 115.671761 106.505423 88.8722761 106.505423"></polygon>
                        <polygon id="Stroke-84" stroke="#000000" stroke-width="2" stroke-linecap="round" stroke-linejoin="round" points="88.8722761 115.01616 115.671761 115.01616 115.671761 106.505423 88.8722761 106.505423"></polygon>
                        <g id="Group-87" transform="translate(106.619632, 121.993865)">
                            <path d="M0.442997546,0.709411043 L0.442997546,5.10204908" id="Fill-85" fill="#FFFFFF"></path>
                            <path d="M0.442997546,0.709411043 L0.442997546,5.10204908" id="Stroke-86" stroke="#000000" stroke-width="2" stroke-linecap="round" stroke-linejoin="round"></path>
                        </g>
                        <g id="Group-90" transform="translate(96.736196, 121.993865)">
                            <path d="M0.442997546,0.709411043 L0.442997546,5.10204908" id="Fill-88" fill="#FFFFFF"></path>
                            <path d="M0.442997546,0.709411043 L0.442997546,5.10204908" id="Stroke-89" stroke="#000000" stroke-width="2" stroke-linecap="round" stroke-linejoin="round"></path>
                        </g>
                        <polyline id="Fill-91" fill="#FFFFFF" points="129.87876 142.470147 129.87876 135.057571 77.2483675 135.057571 77.2483675 142.470147"></polyline>
                        <polygon id="Fill-94" fill="#E2E2E2" points="82.4645153 139.724748 82.4645153 136.15573 77.7973374 136.15573 77.7973374 143.568307 130.42773 143.568307 130.42773 139.724748"></polygon>
                        <polyline id="Stroke-92" stroke="#000000" stroke-width="2" stroke-linecap="round" stroke-linejoin="round" points="129.87876 142.470147 129.87876 135.057571 77.2483675 135.057571 77.2483675 142.470147"></polyline>
                        <g id="Group-97" transform="translate(56.104294, 35.239264)">
                            <polyline id="Fill-95" fill="#FFFFFF" points="5.35155092 17.1601699 4.31708466 0.960120859 1.21588221 0.960120859 0.181415951 17.1601699"></polyline>
                            <polyline id="Stroke-96" stroke="#000000" stroke-width="2" stroke-linecap="round" stroke-linejoin="round" points="5.35155092 17.1601699 4.31708466 0.960120859 1.21588221 0.960120859 0.181415951 17.1601699"></polyline>
                        </g>
                        <polygon id="Fill-98" fill="#FFFFFF" points="55.4238748 61.5334853 63.0066663 61.5334853 67.1434331 143.568197 52.3215742 143.568197"></polygon>
                        <polygon id="Stroke-25" stroke="#000000" stroke-width="2" stroke-linecap="round" stroke-linejoin="round" points="323.923765 143.568307 0.0984889571 143.568307"></polygon>
                        <polygon id="Stroke-99" stroke="#000000" stroke-width="2" stroke-linecap="round" stroke-linejoin="round" points="55.4238748 61.5334853 63.0066663 61.5334853 67.1434331 143.568197 52.3215742 143.568197"></polygon>
                        <polygon id="Fill-100" fill="#E2E2E2" points="55.9729546 61.9385963 52.870654 143.2024 60.0185742 143.2024 57.8222552 61.9385963"></polygon>
                        <path d="M59.1096276,34.8505153 L59.1096276,23.8689202" id="Stroke-101" stroke="#000000" stroke-width="2" stroke-linecap="round" stroke-linejoin="round"></path>
                        <path d="M67.5228472,57.052665 C67.5228472,59.4872847 65.0519883,61.479346 62.0320497,61.479346 L56.8575221,61.479346 C53.8375834,61.479346 51.3667245,59.4872847 51.3667245,57.052665 C51.3667245,54.6180454 53.8375834,52.625984 56.8575221,52.625984 L62.0320497,52.625984 C65.0519883,52.625984 67.5228472,54.6180454 67.5228472,57.052665" id="Fill-102" fill="#FFC83D"></path>
                        <path d="M67.5228472,57.052665 C67.5228472,59.4872847 65.0519883,61.479346 62.0320497,61.479346 L56.8575221,61.479346 C53.8375834,61.479346 51.3667245,59.4872847 51.3667245,57.052665 C51.3667245,54.6180454 53.8375834,52.625984 56.8575221,52.625984 L62.0320497,52.625984 C65.0519883,52.625984 67.5228472,54.6180454 67.5228472,57.052665 L67.5228472,57.052665 Z" id="Stroke-103" stroke="#000000" stroke-width="2" stroke-linecap="round" stroke-linejoin="round"></path>
                        <polygon id="Fill-104" fill="#FFFFFF" points="237.38627 143.57819 298.30008 143.57819 298.30008 134.453583 237.38627 134.453583"></polygon>
                        <polygon id="Fill-106" fill="#E2E2E2" points="293.228779 134.56856 293.228779 139.575069 236.433067 139.575069 236.433067 143.693167 297.346877 143.693167 297.346877 134.56856"></polygon>
                        <polygon id="Stroke-105" stroke="#000000" stroke-width="2" stroke-linecap="round" stroke-linejoin="round" points="237.38627 143.57819 298.30008 143.57819 298.30008 134.453583 237.38627 134.453583"></polygon>
                        <g id="Group-109" transform="translate(287.815951, 124.190184)">
                            <polyline id="Fill-107" fill="#FFFFFF" points="0.879515951 0.275088957 5.9255589 0.275088957 5.9255589 10.2628497 0.879515951 10.2628497"></polyline>
                            <polyline id="Stroke-108" stroke="#000000" stroke-width="2" stroke-linecap="round" stroke-linejoin="round" points="0.879515951 0.275088957 5.9255589 0.275088957 5.9255589 10.2628497 0.879515951 10.2628497"></polyline>
                        </g>
                        <path d="M273.891398,60.2912472 L273.891398,104.583315 L258.785116,105.041247 C258.785116,105.041247 268.400601,107.258431 273.426877,110.806585 C279.650147,115.199223 281.669662,118.493701 281.669662,118.493701 L281.669662,60.2912472 L273.891398,60.2912472 Z" id="Fill-138" fill="#E2E2E2"></path>
                        <polyline id="Fill-110" fill="#FFFFFF" points="257.510482 43.6357914 257.510482 37.5959141 276.179194 37.5959141 276.179194 43.6357914"></polyline>
                        <polygon id="Fill-188" fill="#E2E2E2" points="272.946871 43.7269387 275.234337 43.7269387 275.234337 38.4195337 272.946871 38.4195337"></polygon>
                        <polygon id="Fill-189" fill="#E2E2E2" points="267.272681 43.7269387 269.285607 43.7269387 269.285607 38.4195337 267.272681 38.4195337"></polygon>
                        <polygon id="Fill-190" fill="#E2E2E2" points="260.867117 43.7269387 263.246828 43.7269387 263.246828 38.4195337 260.867117 38.4195337"></polygon>
                        <polyline id="Stroke-111" stroke="#000000" stroke-width="2" stroke-linecap="round" stroke-linejoin="round" points="257.510482 43.6357914 257.510482 37.5959141 276.179194 37.5959141 276.179194 43.6357914"></polyline>
                        <polyline id="Fill-113" fill="#FFFFFF" points="274.531955 59.5591043 282.768151 59.5591043 282.768151 134.453583 250.921525 134.453583 250.921525 118.859718 250.921525 59.5591043 259.157721 59.5591043"></polyline>
                        <polygon id="Fill-187" fill="#E2E2E2" points="273.982436 59.805092 279.497393 59.805092 279.497393 44.3682638 273.982436 44.3682638"></polygon>
                        <path d="M281.160226,131.534455 C281.160226,131.534455 267.204815,131.122645 264.276023,129.109719 C261.347232,127.095694 259.197036,117.944731 259.197036,117.944731 L251.830582,134.336958 L281.634631,134.336958 L281.160226,131.534455 Z" id="Fill-122" fill="#E2E2E2"></path>
                        <polyline id="Stroke-114" stroke="#000000" stroke-width="2" stroke-linecap="round" stroke-linejoin="round" points="274.531955 59.5591043 282.768151 59.5591043 282.768151 134.453583 250.921525 134.453583 250.921525 118.859718 250.921525 59.5591043 259.157721 59.5591043"></polyline>
                        <g id="Group-118" transform="translate(269.147239, 37.435583)" fill="#FFFFFF">
                            <path d="M0.442997546,0.709411043 L0.442997546,6.38360123" id="Fill-116"></path>
                        </g>
                        <g id="Group-121" transform="translate(240.595092, 124.190184)">
                            <polyline id="Fill-119" fill="#FFFFFF" points="5.22548221 0.275088957 0.179439264 0.275088957 0.179439264 10.2628497 5.22548221 10.2628497"></polyline>
                            <polyline id="Stroke-120" stroke="#000000" stroke-width="2" stroke-linecap="round" stroke-linejoin="round" points="5.22548221 0.275088957 0.179439264 0.275088957 0.179439264 10.2628497 5.22548221 10.2628497"></polyline>
                        </g>
                        <g id="Group-125" transform="translate(246.085890, 113.208589)">
                            <polyline id="Fill-123" fill="#FFC83D" points="0.992077301 5.65112883 12.5227521 5.65112883 12.5227521 21.025362 0.442997546 21.025362 0.442997546 0.160331288 4.83563558 0.160331288 4.83563558 5.65112883"></polyline>
                            <polyline id="Stroke-124" stroke="#000000" stroke-width="2" stroke-linecap="round" stroke-linejoin="round" points="0.992077301 5.65112883 12.5227521 5.65112883 12.5227521 21.025362 0.442997546 21.025362 0.442997546 0.160331288 4.83563558 0.160331288 4.83563558 5.65112883"></polyline>
                        </g>
                        <polyline id="Stroke-127" stroke="#000000" stroke-width="2" stroke-linecap="round" stroke-linejoin="round" points="254.216004 58.9186577 254.216004 44.1846515 279.473672 44.1846515 279.473672 58.9186577"></polyline>
                        <g id="Group-131" transform="translate(260.361963, 31.944785)">
                            <polyline id="Fill-129" fill="#FFC83D" points="0.442997546 5.10204908 0.442997546 0.160331288 12.5227521 0.160331288 12.5227521 5.10204908"></polyline>
                            <polyline id="Stroke-130" stroke="#000000" stroke-width="2" stroke-linecap="round" stroke-linejoin="round" points="0.442997546 5.10204908 0.442997546 0.160331288 12.5227521 0.160331288 12.5227521 5.10204908"></polyline>
                        </g>
                        <g id="Group-134" transform="translate(263.656442, 38.533742)" fill="#FFFFFF">
                            <path d="M0.442997546,0.228966258 L0.442997546,5.28489264" id="Fill-132"></path>
                        </g>
                        <polygon id="Fill-135" fill="#FFFFFF" points="259.706362 104.583644 273.982436 104.583644 273.982436 44.3682638 259.706362 44.3682638"></polygon>
                        <polygon id="Fill-137" fill="#E2E2E2" points="269.682043 104.767037 273.525601 104.767037 273.525601 44.5516564 269.682043 44.5516564"></polygon>
                        <polygon id="Stroke-136" stroke="#000000" stroke-width="2" stroke-linecap="round" stroke-linejoin="round" points="259.706362 104.583644 273.982436 104.583644 273.982436 44.3682638 259.706362 44.3682638"></polygon>
                        <path d="M269.590237,38.1449939 L269.590237,43.819184" id="Stroke-117" stroke="#000000" stroke-width="2" stroke-linecap="round" stroke-linejoin="round"></path>
                        <path d="M264.099439,38.7627086 L264.099439,43.818635" id="Stroke-133" stroke="#000000" stroke-width="2" stroke-linecap="round" stroke-linejoin="round"></path>
                        <g id="Group-141" transform="translate(265.852761, 18.766871)">
                            <path d="M0.442997546,12.7891656 L0.442997546,0.709411043" id="Fill-139" fill="#FFFFFF"></path>
                            <path d="M0.442997546,12.7891656 L0.442997546,0.709411043" id="Stroke-140" stroke="#000000" stroke-width="2" stroke-linecap="round" stroke-linejoin="round"></path>
                        </g>
                        <g id="Group-144" transform="translate(275.736196, 113.208589)">
                            <polyline id="Fill-142" fill="#FFC83D" points="11.9736724 5.65112883 0.442997546 5.65112883 0.442997546 21.025362 12.5227521 21.025362 12.5227521 0.160331288 7.02975828 0.160331288 7.03415092 5.65112883"></polyline>
                            <polyline id="Stroke-143" stroke="#000000" stroke-width="2" stroke-linecap="round" stroke-linejoin="round" points="11.9736724 5.65112883 0.442997546 5.65112883 0.442997546 21.025362 12.5227521 21.025362 12.5227521 0.160331288 7.02975828 0.160331288 7.03415092 5.65112883"></polyline>
                        </g>
                        <path d="M286.764683,138.818767 L310.488223,138.818767 C311.837861,138.818767 312.930529,137.386767 312.930529,135.619828 C312.930529,133.853988 311.837861,132.42089 310.488223,132.42089 L286.764683,132.42089 C285.416143,132.42089 284.322376,133.853988 284.322376,135.619828 C284.322376,137.386767 285.416143,138.818767 286.764683,138.818767" id="Fill-145" fill="#FFFFFF"></path>
                        <path d="M286.764683,138.818767 L310.488223,138.818767 C311.837861,138.818767 312.930529,137.386767 312.930529,135.619828 C312.930529,133.853988 311.837861,132.42089 310.488223,132.42089 L286.764683,132.42089 C285.416143,132.42089 284.322376,133.853988 284.322376,135.619828 C284.322376,137.386767 285.416143,138.818767 286.764683,138.818767 L286.764683,138.818767 Z" id="Stroke-146" stroke="#000000" stroke-width="2" stroke-linecap="round" stroke-linejoin="round"></path>
                        <path d="M284.272629,146.326993 L313.144341,146.326993 C314.599402,146.326993 315.778826,144.677558 315.778826,142.642668 C315.778826,140.607779 314.599402,138.958343 313.144341,138.958343 L284.272629,138.958343 C282.817568,138.958343 281.638145,140.607779 281.638145,142.642668 C281.638145,144.677558 282.817568,146.326993 284.272629,146.326993" id="Fill-147" fill="#FFFFFF"></path>
                        <path d="M313.385167,138.61978 C313.311591,140.562425 312.172799,143.2024 310.764959,143.2024 L281.893247,143.2024 C281.810885,143.2024 281.732916,143.185928 281.65275,143.174946 C281.649456,143.240836 281.638474,143.573578 281.638474,143.639467 C281.638474,145.674357 282.817898,146.496879 284.272959,146.496879 L313.144671,146.496879 C314.598634,146.496879 315.778057,144.576198 315.778057,142.541308 C315.778057,140.621725 314.724922,138.792191 313.385167,138.61978" id="Fill-149" fill="#E2E2E2"></path>
                        <path d="M284.272629,146.326993 L313.144341,146.326993 C314.599402,146.326993 315.778826,144.677558 315.778826,142.642668 C315.778826,140.607779 314.599402,138.958343 313.144341,138.958343 L284.272629,138.958343 C282.817568,138.958343 281.638145,140.607779 281.638145,142.642668 C281.638145,144.677558 282.817568,146.326993 284.272629,146.326993 L284.272629,146.326993 Z" id="Stroke-148" stroke="#000000" stroke-width="2" stroke-linecap="round" stroke-linejoin="round"></path>
                        <path d="M302.35734,132.214765 L295.941892,142.036704 C295.593775,142.568213 294.602137,142.568213 294.254021,142.036704 L287.838573,132.214765 C287.524499,131.734869 287.980236,131.170415 288.68196,131.170415 L301.513953,131.170415 C302.214579,131.170415 302.671413,131.734869 302.35734,132.214765" id="Fill-150" fill="#FFC83D"></path>
                        <path d="M302.35734,132.214765 L295.941892,142.036704 C295.593775,142.568213 294.602137,142.568213 294.254021,142.036704 L287.838573,132.214765 C287.524499,131.734869 287.980236,131.170415 288.68196,131.170415 L301.513953,131.170415 C302.214579,131.170415 302.671413,131.734869 302.35734,132.214765 L302.35734,132.214765 Z" id="Stroke-151" stroke="#000000" stroke-width="2" stroke-linecap="round" stroke-linejoin="round"></path>
                        <path d="M316.094766,127.828167 C316.096963,127.51629 316.081588,127.20551 316.05084,126.899124 C316.049742,126.891437 316.048644,126.882652 316.047545,126.874964 C316.037662,126.780523 316.02668,126.687179 316.013502,126.593836 C316.011306,126.581756 316.00911,126.569676 316.008012,126.557596 C315.994834,126.468645 315.980558,126.379694 315.965183,126.290744 C315.964085,126.286351 315.962987,126.281958 315.962987,126.277566 C315.945417,126.180928 315.926748,126.085388 315.905883,125.989848 C315.903687,125.979964 315.90149,125.970081 315.899294,125.960198 C315.879527,125.870148 315.858662,125.780099 315.836699,125.691148 C315.833404,125.677971 315.829012,125.664793 315.825717,125.650517 C315.803754,125.56486 315.780693,125.479204 315.756533,125.394645 C315.753239,125.384762 315.749944,125.37378 315.74665,125.363897 C315.721392,125.276044 315.695036,125.188191 315.666484,125.100339 C315.662091,125.087161 315.656601,125.075081 315.652208,125.061903 C315.624754,124.977345 315.596202,124.892787 315.565453,124.809326 C315.561061,124.799443 315.556668,124.78956 315.553374,124.778578 C315.521527,124.692921 315.488582,124.607265 315.454539,124.521609 C315.450147,124.510627 315.444656,124.499645 315.440263,124.489762 C315.40622,124.404106 315.371079,124.319547 315.333742,124.236087 C315.329349,124.227302 315.326055,124.219615 315.321662,124.211928 C315.283226,124.125173 315.243693,124.039517 315.203061,123.95386 C315.198668,123.945075 315.194275,123.93629 315.189883,123.927504 C315.148153,123.842946 315.106423,123.758388 315.062496,123.673829 C315.059202,123.66724 315.054809,123.66175 315.051515,123.655161 C315.00649,123.568406 314.960367,123.48275 314.912048,123.398191 C314.906558,123.388308 314.901067,123.378425 314.894478,123.368541 C314.848355,123.286179 314.802233,123.206013 314.752815,123.12475 C314.74403,123.110474 314.735245,123.097296 314.72646,123.08302 C314.680337,123.006148 314.633116,122.930375 314.584797,122.855701 C314.574913,122.840326 314.563932,122.824952 314.554048,122.809578 C314.505729,122.736001 314.45741,122.662425 314.406895,122.588848 C314.393717,122.571277 314.380539,122.552609 314.367361,122.535038 C314.319042,122.464756 314.270723,122.395572 314.21911,122.326388 C314.208128,122.309915 314.196048,122.294541 314.183969,122.279167 C314.131257,122.207787 314.078545,122.137504 314.023637,122.067222 C314.011558,122.051848 313.999478,122.037572 313.987398,122.022198 C313.93249,121.951915 313.876484,121.881633 313.81938,121.811351 C313.805104,121.79378 313.789729,121.77621 313.774355,121.758639 C313.719447,121.691652 313.663441,121.625762 313.606337,121.559872 C313.588766,121.540106 313.570098,121.520339 313.552527,121.500572 C313.497619,121.437977 313.441613,121.374283 313.384509,121.312787 C313.366938,121.29302 313.348269,121.273253 313.329601,121.253486 C313.271398,121.191989 313.214294,121.130492 313.154993,121.068995 C313.135226,121.04813 313.114361,121.027265 313.093496,121.007498 C313.035294,120.948198 312.977091,120.887799 312.917791,120.829596 C312.893631,120.806535 312.868374,120.783474 312.844214,120.759314 C312.78711,120.704406 312.730006,120.649498 312.671803,120.59459 C312.645447,120.570431 312.619091,120.546271 312.592736,120.52321 C312.534533,120.4694 312.476331,120.41559 312.41703,120.362879 C312.389576,120.338719 312.361024,120.31456 312.332472,120.2904 C312.274269,120.238787 312.216067,120.187173 312.155668,120.136658 C312.123821,120.110302 312.090877,120.083946 312.05903,120.05759 C312.001926,120.009271 311.944821,119.96205 311.886619,119.914829 C311.85038,119.886277 311.81414,119.857725 311.777901,119.829173 C311.721895,119.785247 311.666987,119.740222 311.609883,119.697394 C311.571447,119.667744 311.531913,119.639191 311.493478,119.609541 C311.437472,119.567811 311.382564,119.526081 311.326558,119.484351 C311.284828,119.454701 311.243098,119.42505 311.201367,119.3954 C311.14646,119.355866 311.091552,119.315234 311.034447,119.276799 C310.988325,119.243854 310.940006,119.212007 310.892785,119.180161 C310.841171,119.143921 310.789558,119.10878 310.736846,119.073639 C310.686331,119.039596 310.634717,119.006652 310.583104,118.973707 C310.532588,118.940762 310.482073,118.907817 310.431558,118.874872 C310.379944,118.841928 310.327233,118.811179 310.275619,118.778234 C310.224006,118.746388 310.172392,118.713443 310.11968,118.681596 C310.063674,118.648652 310.007668,118.615707 309.951662,118.582762 C309.901147,118.553112 309.851729,118.523461 309.801214,118.493811 C309.740815,118.45867 309.679318,118.424627 309.617821,118.390584 C309.570601,118.364228 309.52338,118.336774 309.476159,118.311517 C309.413564,118.277474 309.350969,118.243431 309.287275,118.210486 C309.240055,118.18413 309.192834,118.158872 309.144515,118.133615 C309.076429,118.098474 309.008343,118.064431 308.940257,118.02929 C308.896331,118.007326 308.852404,117.984265 308.80738,117.962302 C308.734901,117.926063 308.662423,117.890921 308.589944,117.856879 C308.547116,117.836013 308.505386,117.815148 308.462558,117.795382 C308.386785,117.759142 308.309913,117.724001 308.233042,117.68886 C308.193509,117.67129 308.153975,117.652621 308.113343,117.633952 C308.033177,117.598811 307.951913,117.56367 307.869552,117.528529 C307.832214,117.512056 307.795975,117.495584 307.757539,117.479112 C307.675177,117.443971 307.590619,117.409928 307.507159,117.375885 C307.469821,117.36051 307.433582,117.345136 307.396245,117.329762 C307.310588,117.295719 307.224932,117.262774 307.139275,117.229829 C307.101938,117.215553 307.065699,117.200179 307.02946,117.185903 C306.942705,117.152958 306.854852,117.121112 306.766999,117.089265 C306.73076,117.076087 306.693423,117.061811 306.656085,117.048633 C306.566036,117.016787 306.474889,116.98494 306.382644,116.954191 C306.348601,116.942112 306.314558,116.928934 306.279417,116.917952 C306.183877,116.886106 306.088337,116.854259 305.992797,116.82351 C305.96095,116.813627 305.929104,116.802645 305.897257,116.792762 C305.800619,116.762013 305.702883,116.732363 305.606245,116.703811 C305.5733,116.693928 305.541453,116.682946 305.508509,116.674161 C305.407478,116.643412 305.304251,116.61486 305.202122,116.58521 C305.17357,116.577523 305.145018,116.568737 305.116466,116.56105 C305.014337,116.532498 304.910012,116.505044 304.805687,116.478688 C304.777134,116.471001 304.748582,116.462216 304.718932,116.455627 C304.611312,116.427075 304.502594,116.400719 304.393877,116.374363 C304.368619,116.368872 304.343361,116.362283 304.317006,116.355694 C304.209386,116.330437 304.100668,116.306277 303.990852,116.28102 C303.964496,116.275529 303.937042,116.26894 303.910687,116.263449 C303.800871,116.23929 303.691055,116.216228 303.581239,116.194265 C303.553785,116.188774 303.527429,116.182185 303.499975,116.176694 C303.391257,116.155829 303.281441,116.134964 303.172723,116.114099 C303.143073,116.109707 303.113423,116.103118 303.083772,116.097627 C302.970662,116.07786 302.857552,116.058093 302.743343,116.039425 C302.716987,116.035032 302.691729,116.030639 302.665374,116.026247 C302.551165,116.007578 302.435858,115.990007 302.319453,115.972437 C302.294196,115.969142 302.26784,115.96475 302.242582,115.960357 C302.126177,115.943885 302.008674,115.92851 301.891171,115.913136 C301.865913,115.909842 301.840656,115.906547 301.815398,115.903253 C301.697895,115.887879 301.579294,115.874701 301.460693,115.861523 C301.435435,115.858228 301.410177,115.854934 301.38492,115.852737 C301.267417,115.83956 301.149913,115.82748 301.031312,115.816498 C301.004956,115.814302 300.977502,115.811007 300.951147,115.808811 C300.834742,115.797829 300.719435,115.789044 300.60303,115.780259 C300.572282,115.778063 300.542631,115.774768 300.512981,115.772572 C300.397674,115.764885 300.281269,115.757198 300.165963,115.750609 C300.134116,115.748412 300.103367,115.746216 300.072619,115.74402 C299.956214,115.738529 299.840907,115.733038 299.724502,115.728645 C299.692656,115.726449 299.660809,115.725351 299.627864,115.724253 C299.51146,115.71986 299.392858,115.716566 299.275355,115.713271 C299.244607,115.713271 299.21276,115.711075 299.182012,115.711075 C299.065607,115.708879 298.949202,115.70778 298.831699,115.706682 C298.80095,115.706682 298.770202,115.705584 298.738355,115.705584 L298.738355,115.705584 L298.708705,115.705584 C289.106398,115.689112 281.322644,121.132688 281.322644,127.828167 L281.322644,127.881977 C281.33692,130.235333 283.024791,132.114283 285.049797,132.114283 L312.366515,132.114283 C314.392619,132.114283 316.079392,130.235333 316.094766,127.881977 L316.094766,127.831461 L316.094766,127.828167" id="Fill-152" fill="#FFFFFF"></path>
                        <path d="M316.405326,126.533327 C316.404228,126.52564 316.40862,126.516855 316.407522,126.509167 C316.397639,126.414726 316.389952,126.321382 316.376774,126.228039 C316.374577,126.215959 316.373479,126.203879 316.372381,126.191799 C316.359203,126.10175 316.346025,126.012799 316.330651,125.923848 C316.329553,125.919456 316.328455,125.915063 316.328455,125.910671 C316.310884,125.815131 316.292215,125.718493 316.272448,125.622953 C316.270252,125.613069 316.266958,125.603186 316.264761,125.593302 C316.246093,125.503253 316.225228,125.414302 316.202166,125.324253 C316.198872,125.311075 316.195577,125.297898 316.192283,125.28472 C316.17032,125.199063 316.147258,125.113407 316.122001,125.028848 C316.119804,125.017867 316.11651,125.007983 316.113215,124.9981 C316.08686,124.910247 316.060504,124.822394 316.031952,124.734542 C316.027559,124.721364 316.023166,124.708186 316.018774,124.695008 C315.990221,124.611548 315.961669,124.52699 315.930921,124.443529 C315.927626,124.433646 315.923234,124.422664 315.918841,124.412781 C315.888093,124.327125 315.855148,124.24037 315.820007,124.155812 C315.815614,124.14483 315.811221,124.133848 315.806829,124.122867 C315.771688,124.038309 315.736547,123.95375 315.699209,123.87029 C315.695915,123.861505 315.691522,123.853818 315.688228,123.845033 C315.649792,123.759376 315.610258,123.672621 315.568528,123.586965 C315.564136,123.579278 315.559743,123.570493 315.55535,123.561707 C315.514718,123.477149 315.47189,123.391493 315.427964,123.308033 C315.424669,123.301444 315.421375,123.294855 315.41808,123.288266 C315.373056,123.202609 315.325835,123.116953 315.278614,123.031296 C315.273123,123.021413 315.266534,123.011529 315.261044,123.001646 C315.214921,122.920382 315.1677,122.839118 315.119381,122.758953 C315.110596,122.744677 315.100712,122.730401 315.093025,122.716125 C315.045804,122.640352 314.998583,122.564579 314.950264,122.488806 C314.940381,122.473431 314.929399,122.459155 314.919516,122.442683 C314.871197,122.369106 314.822878,122.295529 314.772363,122.223051 C314.760283,122.204382 314.747105,122.186812 314.733927,122.168143 C314.685608,122.098959 314.636191,122.028677 314.585675,121.960591 C314.573596,121.944118 314.561516,121.928744 314.549436,121.912272 C314.496725,121.84199 314.444013,121.770609 314.390203,121.701425 C314.378123,121.686051 314.366044,121.670677 314.353964,121.656401 C314.297958,121.586118 314.24305,121.514738 314.184847,121.445554 C314.170571,121.427983 314.155197,121.410413 314.139823,121.392842 C314.084915,121.325855 314.030007,121.259965 313.972902,121.194075 C313.955332,121.174309 313.936663,121.154542 313.919093,121.133677 C313.863087,121.071082 313.808179,121.008487 313.751074,120.94699 C313.732406,120.927223 313.713737,120.907456 313.695068,120.887689 C313.637964,120.826192 313.579761,120.763597 313.521559,120.703198 C313.500694,120.682333 313.479829,120.661468 313.460062,120.640603 C313.40186,120.581302 313.342559,120.522002 313.283258,120.463799 C313.259099,120.43964 313.233841,120.416579 313.209682,120.393517 C313.152577,120.338609 313.095473,120.282603 313.037271,120.228793 C313.010915,120.204634 312.984559,120.180474 312.958203,120.156315 C312.901099,120.103603 312.842896,120.049793 312.783596,119.997082 C312.755044,119.972922 312.726491,119.948763 312.699037,119.923505 C312.639737,119.87299 312.581534,119.821376 312.522234,119.770861 C312.490387,119.744505 312.457442,119.718149 312.425596,119.690695 C312.368491,119.643474 312.311387,119.595155 312.253185,119.549033 C312.216945,119.519382 312.179608,119.491928 312.143369,119.463376 C312.088461,119.418352 312.032455,119.374425 311.976448,119.331597 C311.938013,119.301947 311.898479,119.273394 311.858945,119.243744 C311.804037,119.202014 311.748031,119.160284 311.692025,119.118554 C311.651393,119.088904 311.608565,119.059253 311.566835,119.029603 C311.511927,118.990069 311.457019,118.949437 311.401013,118.909904 C311.353792,118.878057 311.306571,118.84621 311.25935,118.813266 C311.207737,118.778125 311.156123,118.742983 311.103412,118.707842 C311.051798,118.673799 311.000185,118.640855 310.949669,118.60791 C310.899154,118.574965 310.848639,118.540922 310.797025,118.509075 C310.74651,118.476131 310.693798,118.444284 310.642185,118.412437 C310.589473,118.380591 310.53786,118.347646 310.485148,118.315799 C310.43024,118.281756 310.374234,118.24991 310.318228,118.216965 C310.267712,118.187315 310.218295,118.156566 310.166682,118.128014 C310.106283,118.092873 310.044786,118.05883 309.983289,118.024787 C309.936068,117.998431 309.889945,117.970977 309.841626,117.944621 C309.780129,117.910579 309.716436,117.877634 309.653841,117.844689 C309.605522,117.818333 309.558301,117.793075 309.509982,117.767818 C309.442994,117.732677 309.374909,117.697536 309.306823,117.663493 C309.261798,117.640431 309.217872,117.618468 309.172847,117.595407 C309.101467,117.560266 309.02789,117.525125 308.955412,117.489983 C308.913682,117.470217 308.871952,117.449352 308.829123,117.429585 C308.75335,117.393345 308.675381,117.358204 308.599608,117.323063 C308.558976,117.305493 308.519442,117.286824 308.479909,117.268155 C308.398645,117.231916 308.317381,117.197873 308.236117,117.162732 C308.19878,117.14626 308.161442,117.129787 308.124105,117.113315 C308.109829,117.107824 308.096651,117.102333 308.082375,117.095744 C308.083473,117.096842 308.084571,117.09794 308.085669,117.099039 C308.109829,117.1221 308.135087,117.145161 308.158148,117.169321 C308.218547,117.227523 308.276749,117.286824 308.334952,117.346125 C308.354718,117.36699 308.376682,117.387855 308.396448,117.40872 C308.455749,117.469118 308.512853,117.531713 308.571056,117.59321 C308.588626,117.612977 308.608393,117.632744 308.625964,117.652511 C308.683068,117.714008 308.739074,117.776603 308.793982,117.839198 C308.811553,117.860063 308.830221,117.87983 308.847792,117.899597 C308.904896,117.965487 308.959804,118.031376 309.01581,118.098364 C309.030087,118.115934 309.045461,118.133505 309.060835,118.151075 C309.117939,118.22026 309.173945,118.29164 309.228853,118.361922 C309.240933,118.376198 309.253013,118.391572 309.265093,118.406947 C309.320001,118.476131 309.372712,118.547511 309.425424,118.617793 C309.436406,118.634266 309.449583,118.64964 309.460565,118.666112 C309.51108,118.734198 309.560498,118.80448 309.608817,118.873664 C309.621994,118.892333 309.635172,118.909904 309.64835,118.928572 C309.697767,119.001051 309.747185,119.074628 309.794406,119.148204 C309.805387,119.164677 309.815271,119.178953 309.825154,119.194327 C309.874571,119.2701 309.920694,119.345873 309.967915,119.421646 C309.9767,119.435922 309.985485,119.450198 309.994271,119.464474 C310.04259,119.54464 310.08981,119.625904 310.135933,119.707167 C310.141424,119.717051 310.148013,119.726934 310.153504,119.736818 C310.201823,119.822474 310.247945,119.908131 310.29297,119.993787 C310.296264,120.000376 310.300657,120.006965 310.303952,120.013554 C310.34678,120.097014 310.389608,120.182671 310.431338,120.267229 C310.435731,120.276014 310.440123,120.284799 310.444516,120.292487 C310.485148,120.378143 310.524682,120.464898 310.563117,120.550554 C310.56751,120.559339 310.570804,120.567026 310.575197,120.575812 C310.611436,120.659272 310.647675,120.74383 310.681718,120.828388 C310.686111,120.83937 310.691602,120.850352 310.695994,120.861333 C310.730037,120.945891 310.762982,121.032646 310.794829,121.118302 C310.798123,121.128186 310.802516,121.139167 310.806909,121.149051 C310.837657,121.232511 310.866209,121.317069 310.893663,121.400529 C310.898056,121.413707 310.903547,121.426885 310.906841,121.440063 C310.936491,121.527916 310.962847,121.615769 310.988105,121.703621 C310.991399,121.713505 310.994694,121.723388 310.997988,121.73437 C311.022148,121.818928 311.045209,121.904585 311.067172,121.990241 C311.070467,122.003419 311.07486,122.016597 311.078154,122.029775 C311.100117,122.119824 311.120982,122.208775 311.140749,122.298824 C311.142945,122.308707 311.145142,122.318591 311.147338,122.328474 C311.168203,122.424014 311.186872,122.520652 311.203344,122.616192 C311.204442,122.620585 311.20554,122.624977 311.206639,122.62937 C311.222013,122.718321 311.236289,122.807272 311.248369,122.897321 C311.250565,122.909401 311.252761,122.92148 311.254958,122.93356 C311.267037,123.026904 311.279117,123.120247 311.289001,123.214689 C311.289001,123.222376 311.096823,123.231161 311.097921,123.238848 C311.128669,123.545235 310.947473,123.854916 310.947473,124.167891 L310.947473,124.171186 L310.947473,124.220603 C310.947473,126.575057 310.032706,128.560529 303.809436,129.109609 L282.213031,129.840983 C282.600682,130.939143 283.669191,132.220695 285.416363,132.220695 L312.73308,132.220695 C314.758087,132.220695 316.438271,129.869536 316.438271,127.515082 L316.438271,127.465664 L316.438271,127.46237 C316.438271,127.149394 316.437172,126.839713 316.405326,126.533327" id="Fill-154" fill="#E2E2E2"></path>
                        <path d="M316.094766,127.828167 C316.096963,127.51629 316.081588,127.20551 316.05084,126.899124 C316.049742,126.891437 316.048644,126.882652 316.047545,126.874964 C316.037662,126.780523 316.02668,126.687179 316.013502,126.593836 C316.011306,126.581756 316.00911,126.569676 316.008012,126.557596 C315.994834,126.468645 315.980558,126.379694 315.965183,126.290744 C315.964085,126.286351 315.962987,126.281958 315.962987,126.277566 C315.945417,126.180928 315.926748,126.085388 315.905883,125.989848 C315.903687,125.979964 315.90149,125.970081 315.899294,125.960198 C315.879527,125.870148 315.858662,125.780099 315.836699,125.691148 C315.833404,125.677971 315.829012,125.664793 315.825717,125.650517 C315.803754,125.56486 315.780693,125.479204 315.756533,125.394645 C315.753239,125.384762 315.749944,125.37378 315.74665,125.363897 C315.721392,125.276044 315.695036,125.188191 315.666484,125.100339 C315.662091,125.087161 315.656601,125.075081 315.652208,125.061903 C315.624754,124.977345 315.596202,124.892787 315.565453,124.809326 C315.561061,124.799443 315.556668,124.78956 315.553374,124.778578 C315.521527,124.692921 315.488582,124.607265 315.454539,124.521609 C315.450147,124.510627 315.444656,124.499645 315.440263,124.489762 C315.40622,124.404106 315.371079,124.319547 315.333742,124.236087 C315.329349,124.227302 315.326055,124.219615 315.321662,124.211928 C315.283226,124.125173 315.243693,124.039517 315.203061,123.95386 C315.198668,123.945075 315.194275,123.93629 315.189883,123.927504 C315.148153,123.842946 315.106423,123.758388 315.062496,123.673829 C315.059202,123.66724 315.054809,123.66175 315.051515,123.655161 C315.00649,123.568406 314.960367,123.48275 314.912048,123.398191 C314.906558,123.388308 314.901067,123.378425 314.894478,123.368541 C314.848355,123.286179 314.802233,123.206013 314.752815,123.12475 C314.74403,123.110474 314.735245,123.097296 314.72646,123.08302 C314.680337,123.006148 314.633116,122.930375 314.584797,122.855701 C314.574913,122.840326 314.563932,122.824952 314.554048,122.809578 C314.505729,122.736001 314.45741,122.662425 314.406895,122.588848 C314.393717,122.571277 314.380539,122.552609 314.367361,122.535038 C314.319042,122.464756 314.270723,122.395572 314.21911,122.326388 C314.208128,122.309915 314.196048,122.294541 314.183969,122.279167 C314.131257,122.207787 314.078545,122.137504 314.023637,122.067222 C314.011558,122.051848 313.999478,122.037572 313.987398,122.022198 C313.93249,121.951915 313.876484,121.881633 313.81938,121.811351 C313.805104,121.79378 313.789729,121.77621 313.774355,121.758639 C313.719447,121.691652 313.663441,121.625762 313.606337,121.559872 C313.588766,121.540106 313.570098,121.520339 313.552527,121.500572 C313.497619,121.437977 313.441613,121.374283 313.384509,121.312787 C313.366938,121.29302 313.348269,121.273253 313.329601,121.253486 C313.271398,121.191989 313.214294,121.130492 313.154993,121.068995 C313.135226,121.04813 313.114361,121.027265 313.093496,121.007498 C313.035294,120.948198 312.977091,120.887799 312.917791,120.829596 C312.893631,120.806535 312.868374,120.783474 312.844214,120.759314 C312.78711,120.704406 312.730006,120.649498 312.671803,120.59459 C312.645447,120.570431 312.619091,120.546271 312.592736,120.52321 C312.534533,120.4694 312.476331,120.41559 312.41703,120.362879 C312.389576,120.338719 312.361024,120.31456 312.332472,120.2904 C312.274269,120.238787 312.216067,120.187173 312.155668,120.136658 C312.123821,120.110302 312.090877,120.083946 312.05903,120.05759 C312.001926,120.009271 311.944821,119.96205 311.886619,119.914829 C311.85038,119.886277 311.81414,119.857725 311.777901,119.829173 C311.721895,119.785247 311.666987,119.740222 311.609883,119.697394 C311.571447,119.667744 311.531913,119.639191 311.493478,119.609541 C311.437472,119.567811 311.382564,119.526081 311.326558,119.484351 C311.284828,119.454701 311.243098,119.42505 311.201367,119.3954 C311.14646,119.355866 311.091552,119.315234 311.034447,119.276799 C310.988325,119.243854 310.940006,119.212007 310.892785,119.180161 C310.841171,119.143921 310.789558,119.10878 310.736846,119.073639 C310.686331,119.039596 310.634717,119.006652 310.583104,118.973707 C310.532588,118.940762 310.482073,118.907817 310.431558,118.874872 C310.379944,118.841928 310.327233,118.811179 310.275619,118.778234 C310.224006,118.746388 310.172392,118.713443 310.11968,118.681596 C310.063674,118.648652 310.007668,118.615707 309.951662,118.582762 C309.901147,118.553112 309.851729,118.523461 309.801214,118.493811 C309.740815,118.45867 309.679318,118.424627 309.617821,118.390584 C309.570601,118.364228 309.52338,118.336774 309.476159,118.311517 C309.413564,118.277474 309.350969,118.243431 309.287275,118.210486 C309.240055,118.18413 309.192834,118.158872 309.144515,118.133615 C309.076429,118.098474 309.008343,118.064431 308.940257,118.02929 C308.896331,118.007326 308.852404,117.984265 308.80738,117.962302 C308.734901,117.926063 308.662423,117.890921 308.589944,117.856879 C308.547116,117.836013 308.505386,117.815148 308.462558,117.795382 C308.386785,117.759142 308.309913,117.724001 308.233042,117.68886 C308.193509,117.67129 308.153975,117.652621 308.113343,117.633952 C308.033177,117.598811 307.951913,117.56367 307.869552,117.528529 C307.832214,117.512056 307.795975,117.495584 307.757539,117.479112 C307.675177,117.443971 307.590619,117.409928 307.507159,117.375885 C307.469821,117.36051 307.433582,117.345136 307.396245,117.329762 C307.310588,117.295719 307.224932,117.262774 307.139275,117.229829 C307.101938,117.215553 307.065699,117.200179 307.02946,117.185903 C306.942705,117.152958 306.854852,117.121112 306.766999,117.089265 C306.73076,117.076087 306.693423,117.061811 306.656085,117.048633 C306.566036,117.016787 306.474889,116.98494 306.382644,116.954191 C306.348601,116.942112 306.314558,116.928934 306.279417,116.917952 C306.183877,116.886106 306.088337,116.854259 305.992797,116.82351 C305.96095,116.813627 305.929104,116.802645 305.897257,116.792762 C305.800619,116.762013 305.702883,116.732363 305.606245,116.703811 C305.5733,116.693928 305.541453,116.682946 305.508509,116.674161 C305.407478,116.643412 305.304251,116.61486 305.202122,116.58521 C305.17357,116.577523 305.145018,116.568737 305.116466,116.56105 C305.014337,116.532498 304.910012,116.505044 304.805687,116.478688 C304.777134,116.471001 304.748582,116.462216 304.718932,116.455627 C304.611312,116.427075 304.502594,116.400719 304.393877,116.374363 C304.368619,116.368872 304.343361,116.362283 304.317006,116.355694 C304.209386,116.330437 304.100668,116.306277 303.990852,116.28102 C303.964496,116.275529 303.937042,116.26894 303.910687,116.263449 C303.800871,116.23929 303.691055,116.216228 303.581239,116.194265 C303.553785,116.188774 303.527429,116.182185 303.499975,116.176694 C303.391257,116.155829 303.281441,116.134964 303.172723,116.114099 C303.143073,116.109707 303.113423,116.103118 303.083772,116.097627 C302.970662,116.07786 302.857552,116.058093 302.743343,116.039425 C302.716987,116.035032 302.691729,116.030639 302.665374,116.026247 C302.551165,116.007578 302.435858,115.990007 302.319453,115.972437 C302.294196,115.969142 302.26784,115.96475 302.242582,115.960357 C302.126177,115.943885 302.008674,115.92851 301.891171,115.913136 C301.865913,115.909842 301.840656,115.906547 301.815398,115.903253 C301.697895,115.887879 301.579294,115.874701 301.460693,115.861523 C301.435435,115.858228 301.410177,115.854934 301.38492,115.852737 C301.267417,115.83956 301.149913,115.82748 301.031312,115.816498 C301.004956,115.814302 300.977502,115.811007 300.951147,115.808811 C300.834742,115.797829 300.719435,115.789044 300.60303,115.780259 C300.572282,115.778063 300.542631,115.774768 300.512981,115.772572 C300.397674,115.764885 300.281269,115.757198 300.165963,115.750609 C300.134116,115.748412 300.103367,115.746216 300.072619,115.74402 C299.956214,115.738529 299.840907,115.733038 299.724502,115.728645 C299.692656,115.726449 299.660809,115.725351 299.627864,115.724253 C299.51146,115.71986 299.392858,115.716566 299.275355,115.713271 C299.244607,115.713271 299.21276,115.711075 299.182012,115.711075 C299.065607,115.708879 298.949202,115.70778 298.831699,115.706682 C298.80095,115.706682 298.770202,115.705584 298.738355,115.705584 L298.738355,115.705584 L298.708705,115.705584 C289.106398,115.689112 281.322644,121.132688 281.322644,127.828167 L281.322644,127.881977 C281.33692,130.235333 283.024791,132.114283 285.049797,132.114283 L312.366515,132.114283 C314.392619,132.114283 316.079392,130.235333 316.094766,127.881977 L316.094766,127.831461 L316.094766,127.828167 L316.094766,127.828167 Z" id="Stroke-153" stroke="#000000" stroke-width="2" stroke-linecap="round" stroke-linejoin="round"></path>
                        <g id="Group-157" transform="translate(306.484663, 123.092025)">
                            <path d="M0.90773865,2.46240307 L2.62086748,0.290243558" id="Fill-155" fill="#FFCF6D"></path>
                            <path d="M0.90773865,2.46240307 L2.62086748,0.290243558" id="Stroke-156" stroke="#000000" stroke-width="2" stroke-linecap="round" stroke-linejoin="round"></path>
                        </g>
                        <g id="Group-160" transform="translate(293.306748, 119.797546)">
                            <path d="M0.476601227,0.838993865 L2.96612883,0.282226994" id="Fill-158" fill="#FFCF6D"></path>
                            <path d="M0.476601227,0.838993865 L2.96612883,0.282226994" id="Stroke-159" stroke="#000000" stroke-width="2" stroke-linecap="round" stroke-linejoin="round"></path>
                        </g>
                        <g id="Group-163" transform="translate(299.895706, 123.092025)">
                            <path d="M0.194484049,0.0375570552 L2.64118344,0.808465031" id="Fill-161" fill="#FFCF6D"></path>
                            <path d="M0.194484049,0.0375570552 L2.64118344,0.808465031" id="Stroke-162" stroke="#000000" stroke-width="2" stroke-linecap="round" stroke-linejoin="round"></path>
                        </g>
                        <g id="Group-166" transform="translate(290.012270, 124.190184)">
                            <path d="M0.797263804,0.485715951 L3.33291411,0.492304908" id="Fill-164" fill="#FFCF6D"></path>
                            <path d="M0.797263804,0.485715951 L3.33291411,0.492304908" id="Stroke-165" stroke="#000000" stroke-width="2" stroke-linecap="round" stroke-linejoin="round"></path>
                        </g>
                        <g id="Group-169" transform="translate(44.024540, 106.619632)">
                            <polyline id="Fill-167" fill="#FFC83D" points="17.3234663 5.95850368 17.3234663 0.692828834 0.589711656 0.692828834 0.589711656 5.95850368"></polyline>
                            <polyline id="Stroke-168" stroke="#000000" stroke-width="2" stroke-linecap="round" stroke-linejoin="round" points="17.3234663 5.95850368 17.3234663 0.692828834 0.589711656 0.692828834 0.589711656 5.95850368"></polyline>
                        </g>
                        <path d="M12.3304485,144.117387 L88.7524669,144.117387 C88.7524669,144.117387 89.4629761,131.612644 87.686154,129.825939 C85.9082337,128.038135 78.4440436,126.377718 78.4440436,126.377718 L72.2679945,116.204368 C72.2679945,116.204368 71.2016816,114.664748 70.268246,114.05527 C69.3359086,113.445791 67.2032828,113.36892 67.2032828,113.36892 L41.2405957,113.36892 C41.2405957,113.36892 39.4483994,113.274479 38.144884,113.924589 C36.8413687,114.574699 35.6279025,116.520638 35.6279025,116.520638 L28.5623442,126.635785 L13.6339638,128.574037 C13.6339638,128.574037 10.7304301,131.702693 10.7897307,135.927313 L12.3304485,144.117387 Z" id="Fill-170" fill="#FFFFFF"></path>
                        <path d="M19.5237227,138.535222 C17.1077718,135.835946 16.8299374,130.710836 16.8299374,130.710836 C16.8189558,129.923455 16.9112012,129.173412 17.068238,128.474983 L14.183373,128.849455 C14.183373,128.849455 11.2798393,131.977013 11.3391399,136.201633 L12.8798577,144.391707 L89.3007779,144.391707 C89.3007779,144.391707 89.2612442,144.095204 89.2568515,141.143351 C89.2568515,141.143351 21.9396736,141.234498 19.5237227,138.535222" id="Fill-172" fill="#E2E2E2"></path>
                        <path d="M12.3304485,144.117387 L88.7524669,144.117387 C88.7524669,144.117387 89.4629761,131.612644 87.686154,129.825939 C85.9082337,128.038135 78.4440436,126.377718 78.4440436,126.377718 L72.2679945,116.204368 C72.2679945,116.204368 71.2016816,114.664748 70.268246,114.05527 C69.3359086,113.445791 67.2032828,113.36892 67.2032828,113.36892 L41.2405957,113.36892 C41.2405957,113.36892 39.4483994,113.274479 38.144884,113.924589 C36.8413687,114.574699 35.6279025,116.520638 35.6279025,116.520638 L28.5623442,126.635785 L13.6339638,128.574037 C13.6339638,128.574037 10.7304301,131.702693 10.7897307,135.927313 L12.3304485,144.117387 L12.3304485,144.117387 Z" id="Stroke-171" stroke="#000000" stroke-width="2" stroke-linecap="round" stroke-linejoin="round"></path>
                        <path d="M42.1881975,117.761558 L67.0691975,117.761558 L72.345854,126.546834 L34.3682037,126.546834 L39.2264613,119.12108 C39.2264613,119.12108 39.9369706,117.761558 42.1881975,117.761558" id="Fill-173" fill="#FFC83D"></path>
                        <path d="M42.1881975,117.761558 L67.0691975,117.761558 L72.345854,126.546834 L34.3682037,126.546834 L39.2264613,119.12108 C39.2264613,119.12108 39.9369706,117.761558 42.1881975,117.761558 L42.1881975,117.761558 Z" id="Stroke-174" stroke="#000000" stroke-width="2" stroke-linecap="round" stroke-linejoin="round"></path>
                        <path d="M33.1134466,128.926326 L71.5490294,128.926326" id="Stroke-175" stroke="#E2E2E2" stroke-width="2" stroke-linecap="round" stroke-linejoin="round"></path>
                        <path d="M43.9184577,130.939472 L47.2129362,130.939472" id="Stroke-176" stroke="#000000" stroke-width="2" stroke-linecap="round" stroke-linejoin="round"></path>
                        <path d="M12.0718319,135.33211 L16.4644699,135.33211" id="Stroke-177" stroke="#000000" stroke-width="2" stroke-linecap="round" stroke-linejoin="round"></path>
                        <path d="M65.8816479,130.939472 L70.2742859,130.939472" id="Stroke-178" stroke="#000000" stroke-width="2" stroke-linecap="round" stroke-linejoin="round"></path>
                        <path d="M53.2528135,125.997755 L53.2528135,118.310638" id="Stroke-179" stroke="#000000" stroke-width="2" stroke-linecap="round" stroke-linejoin="round"></path>
                        <path d="M36.717716,143.000119 C36.717716,146.649303 33.7592742,149.607745 30.1100902,149.607745 C26.459808,149.607745 23.5013663,146.649303 23.5013663,143.000119 C23.5013663,139.350935 26.459808,136.392493 30.1100902,136.392493 C33.7592742,136.392493 36.717716,139.350935 36.717716,143.000119" id="Fill-180" fill="#FFFFFF"></path>
                        <path d="M36.717716,143.000119 C36.717716,146.649303 33.7592742,149.607745 30.1100902,149.607745 C26.459808,149.607745 23.5013663,146.649303 23.5013663,143.000119 C23.5013663,139.350935 26.459808,136.392493 30.1100902,136.392493 C33.7592742,136.392493 36.717716,139.350935 36.717716,143.000119 L36.717716,143.000119 Z" id="Stroke-181" stroke="#000000" stroke-width="2" stroke-linecap="round" stroke-linejoin="round"></path>
                        <path d="M32.6613344,143.000119 C32.6613344,144.409058 31.5192485,145.552242 30.1092117,145.552242 C28.700273,145.552242 27.5581871,144.409058 27.5581871,143.000119 C27.5581871,141.59118 28.700273,140.447996 30.1092117,140.447996 C31.5192485,140.447996 32.6613344,141.59118 32.6613344,143.000119" id="Fill-182" fill="#000000"></path>
                        <path d="M80.6992239,143.000119 C80.6992239,146.649303 77.7407822,149.607745 74.0915982,149.607745 C70.441316,149.607745 67.4828742,146.649303 67.4828742,143.000119 C67.4828742,139.350935 70.441316,136.392493 74.0915982,136.392493 C77.7407822,136.392493 80.6992239,139.350935 80.6992239,143.000119" id="Fill-183" fill="#FFFFFF"></path>
                        <path d="M80.6992239,143.000119 C80.6992239,146.649303 77.7407822,149.607745 74.0915982,149.607745 C70.441316,149.607745 67.4828742,146.649303 67.4828742,143.000119 C67.4828742,139.350935 70.441316,136.392493 74.0915982,136.392493 C77.7407822,136.392493 80.6992239,139.350935 80.6992239,143.000119 L80.6992239,143.000119 Z" id="Stroke-184" stroke="#000000" stroke-width="2" stroke-linecap="round" stroke-linejoin="round"></path>
                        <path d="M76.6428423,143.000119 C76.6428423,144.409058 75.5007564,145.552242 74.0907196,145.552242 C72.681781,145.552242 71.5396951,144.409058 71.5396951,143.000119 C71.5396951,141.59118 72.681781,140.447996 74.0907196,140.447996 C75.5007564,140.447996 76.6428423,141.59118 76.6428423,143.000119" id="Fill-185" fill="#000000"></path>
                        <path d="M134.01355,23.8689202 L140.18301,23.8689202 C140.18301,23.8689202 141.194415,18.9689325 146.013139,18.9689325 C150.831863,18.9689325 151.654385,23.7107853 151.654385,23.7107853 C151.654385,23.7107853 153.664017,20.7710123 156.94971,21.5364294 C160.234305,22.3007485 160.489078,26.854816 160.489078,26.854816 L166.025998,26.854816" id="Stroke-186" stroke="#D1D1D1" stroke-width="2" stroke-linecap="round" stroke-linejoin="round"></path>
                    </g>
                </g>
            </g>
        </g>
    </g>
</svg>