<?xml version="1.0" encoding="UTF-8"?>
<svg width="195px" height="133px" viewBox="0 0 195 133" version="1.1" xmlns="http://www.w3.org/2000/svg" xmlns:xlink="http://www.w3.org/1999/xlink">
    <!-- Generator: sketchtool 39.1 (31720) - http://www.bohemiancoding.com/sketch -->
    <title>8FCD509F-9022-4D0C-A341-E54124CB4AF6</title>
    <desc>Created with sketchtool.</desc>
    <defs></defs>
    <g id="M2U-Planner" stroke="none" stroke-width="1" fill="none" fill-rule="evenodd">
        <g id="307_M2U_Solutions-Copy-17" transform="translate(-244.000000, -369.000000)" fill="#389A6E">
            <g id="Group" transform="translate(213.000000, 284.000000)">
                <g id="USA" transform="translate(31.000000, 85.000000)">
                    <g transform="translate(0.380008, 0.296794)">
                        <path d="M96.4818226,58.8519064 C96.4818226,60.2133975 95.3797206,61.3121891 94.0197875,61.3121891 C92.6585904,61.3121891 91.5564885,60.2133975 91.5564885,58.8519064 C91.5564885,57.4929412 92.6585904,56.3928867 94.0197875,56.3928867 C95.3797206,56.3928867 96.4818226,57.4929412 96.4818226,58.8519064" id="Fill-1"></path>
                        <path d="M96.4818226,65.9648766 C96.4818226,67.3225788 95.3797206,68.4264222 94.0197875,68.4264222 C92.6585904,68.4264222 91.5564885,67.3225788 91.5564885,65.9648766 C91.5564885,64.6059114 92.6585904,63.500805 94.0197875,63.500805 C95.3797206,63.500805 96.4818226,64.6059114 96.4818226,65.9648766" id="Fill-3"></path>
                        <path d="M103.477516,58.8519064 C103.477516,60.2133975 102.372886,61.3121891 101.014217,61.3121891 C99.6530199,61.3121891 98.5521818,60.2133975 98.5521818,58.8519064 C98.5521818,57.4929412 99.6530199,56.3928867 101.014217,56.3928867 C102.372886,56.3928867 103.477516,57.4929412 103.477516,58.8519064" id="Fill-5"></path>
                        <path d="M103.477516,65.9648766 C103.477516,67.3225788 102.372886,68.4264222 101.014217,68.4264222 C99.6530199,68.4264222 98.5521818,67.3225788 98.5521818,65.9648766 C98.5521818,64.6059114 99.6530199,63.500805 101.014217,63.500805 C102.372886,63.500805 103.477516,64.6059114 103.477516,65.9648766" id="Fill-7"></path>
                        <path d="M110.532611,58.8519064 C110.532611,60.2133975 109.43051,61.3121891 108.069313,61.3121891 C106.709379,61.3121891 105.606014,60.2133975 105.606014,58.8519064 C105.606014,57.4929412 106.709379,56.3928867 108.069313,56.3928867 C109.43051,56.3928867 110.532611,57.4929412 110.532611,58.8519064" id="Fill-9"></path>
                        <path d="M110.532611,65.9648766 C110.532611,67.3225788 109.43051,68.4264222 108.069313,68.4264222 C106.709379,68.4264222 105.606014,67.3225788 105.606014,65.9648766 C105.606014,64.6059114 106.709379,63.500805 108.069313,63.500805 C109.43051,63.500805 110.532611,64.6059114 110.532611,65.9648766" id="Fill-11"></path>
                        <path d="M117.64989,58.8519064 C117.64989,60.2133975 116.54526,61.3121891 115.185327,61.3121891 C113.825394,61.3121891 112.722028,60.2133975 112.722028,58.8519064 C112.722028,57.4929412 113.825394,56.3928867 115.185327,56.3928867 C116.54526,56.3928867 117.64989,57.4929412 117.64989,58.8519064" id="Fill-13"></path>
                        <path d="M117.64989,65.9648766 C117.64989,67.3225788 116.54526,68.4264222 115.185327,68.4264222 C113.825394,68.4264222 112.722028,67.3225788 112.722028,65.9648766 C112.722028,64.6059114 113.825394,63.500805 115.185327,63.500805 C116.54526,63.500805 117.64989,64.6059114 117.64989,65.9648766" id="Fill-15"></path>
                        <path d="M124.643182,58.8519064 C124.643182,60.2133975 123.539816,61.3121891 122.179883,61.3121891 C120.81995,61.3121891 119.716584,60.2133975 119.716584,58.8519064 C119.716584,57.4929412 120.81995,56.3928867 122.179883,56.3928867 C123.539816,56.3928867 124.643182,57.4929412 124.643182,58.8519064" id="Fill-17"></path>
                        <path d="M124.643182,65.9648766 C124.643182,67.3225788 123.539816,68.4264222 122.179883,68.4264222 C120.81995,68.4264222 119.716584,67.3225788 119.716584,65.9648766 C119.716584,64.6059114 120.81995,63.500805 122.179883,63.500805 C123.539816,63.500805 124.643182,64.6059114 124.643182,65.9648766" id="Fill-19"></path>
                        <path d="M96.4818226,73.0753208 C96.4818226,74.435549 95.3797206,75.5368665 94.0197875,75.5368665 C92.6585904,75.5368665 91.5564885,74.435549 91.5564885,73.0753208 C91.5564885,71.7150927 92.6585904,70.6137752 94.0197875,70.6137752 C95.3797206,70.6137752 96.4818226,71.7150927 96.4818226,73.0753208" id="Fill-21"></path>
                        <path d="M117.64989,73.0753208 C117.64989,74.435549 116.54526,75.5368665 115.185327,75.5368665 C113.825394,75.5368665 112.722028,74.435549 112.722028,73.0753208 C112.722028,71.7150927 113.825394,70.6137752 115.185327,70.6137752 C116.54526,70.6137752 117.64989,71.7150927 117.64989,73.0753208" id="Fill-23"></path>
                        <path d="M117.64989,80.1857651 C117.64989,81.5447302 116.54526,82.6460477 115.185327,82.6460477 C113.825394,82.6460477 112.722028,81.5447302 112.722028,80.1857651 C112.722028,78.8267999 113.825394,77.7254824 115.185327,77.7254824 C116.54526,77.7254824 117.64989,78.8267999 117.64989,80.1857651" id="Fill-25"></path>
                        <path d="M124.456254,100.772067 C124.456254,102.132295 123.352888,103.236138 121.992955,103.236138 C120.633022,103.236138 119.529656,102.132295 119.529656,100.772067 C119.529656,99.4143644 120.633022,98.310521 121.992955,98.310521 C123.352888,98.310521 124.456254,99.4143644 124.456254,100.772067" id="Fill-27"></path>
                        <path d="M131.263124,100.772067 C131.263124,102.132295 130.161022,103.236138 128.799825,103.236138 C127.439892,103.236138 126.336526,102.132295 126.336526,100.772067 C126.336526,99.4143644 127.439892,98.310521 128.799825,98.310521 C130.161022,98.310521 131.263124,99.4143644 131.263124,100.772067" id="Fill-29"></path>
                        <path d="M145.057219,107.93303 C145.057219,109.294521 143.953853,110.393313 142.59392,110.393313 C141.232723,110.393313 140.131885,109.294521 140.131885,107.93303 C140.131885,106.576591 141.232723,105.471484 142.59392,105.471484 C143.953853,105.471484 145.057219,106.576591 145.057219,107.93303" id="Fill-31"></path>
                        <path d="M61.2839468,58.8519064 C61.2839468,60.2133975 60.1805809,61.3121891 58.8206478,61.3121891 C57.4607146,61.3121891 56.3586127,60.2133975 56.3586127,58.8519064 C56.3586127,57.4929412 57.4607146,56.3928867 58.8206478,56.3928867 C60.1805809,56.3928867 61.2839468,57.4929412 61.2839468,58.8519064" id="Fill-33"></path>
                        <path d="M61.2839468,65.9648766 C61.2839468,67.3225788 60.1805809,68.4264222 58.8206478,68.4264222 C57.4607146,68.4264222 56.3586127,67.3225788 56.3586127,65.9648766 C56.3586127,64.6059114 57.4607146,63.500805 58.8206478,63.500805 C60.1805809,63.500805 61.2839468,64.6059114 61.2839468,65.9648766" id="Fill-35"></path>
                        <path d="M68.2790081,58.8519064 C68.2790081,60.2133975 67.1756423,61.3121891 65.816973,61.3121891 C64.4545121,61.3121891 63.3524101,60.2133975 63.3524101,58.8519064 C63.3524101,57.4929412 64.4545121,56.3928867 65.816973,56.3928867 C67.1756423,56.3928867 68.2790081,57.4929412 68.2790081,58.8519064" id="Fill-37"></path>
                        <path d="M68.2790081,65.9648766 C68.2790081,67.3225788 67.1756423,68.4264222 65.816973,68.4264222 C64.4545121,68.4264222 63.3524101,67.3225788 63.3524101,65.9648766 C63.3524101,64.6059114 64.4545121,63.500805 65.816973,63.500805 C67.1756423,63.500805 68.2790081,64.6059114 68.2790081,65.9648766" id="Fill-39"></path>
                        <path d="M75.3341037,58.8519064 C75.3341037,60.2133975 74.2307379,61.3121891 72.8708047,61.3121891 C71.5108716,61.3121891 70.4087696,60.2133975 70.4087696,58.8519064 C70.4087696,57.4929412 71.5108716,56.3928867 72.8708047,56.3928867 C74.2307379,56.3928867 75.3341037,57.4929412 75.3341037,58.8519064" id="Fill-41"></path>
                        <path d="M75.3341037,65.9648766 C75.3341037,67.3225788 74.2307379,68.4264222 72.8708047,68.4264222 C71.5108716,68.4264222 70.4087696,67.3225788 70.4087696,65.9648766 C70.4087696,64.6059114 71.5108716,63.500805 72.8708047,63.500805 C74.2307379,63.500805 75.3341037,64.6059114 75.3341037,65.9648766" id="Fill-43"></path>
                        <path d="M82.4507502,58.8519064 C82.4507502,60.2133975 81.3473844,61.3121891 79.9874512,61.3121891 C78.6262542,61.3121891 77.5228883,60.2133975 77.5228883,58.8519064 C77.5228883,57.4929412 78.6262542,56.3928867 79.9874512,56.3928867 C81.3473844,56.3928867 82.4507502,57.4929412 82.4507502,58.8519064" id="Fill-45"></path>
                        <path d="M82.4507502,65.9648766 C82.4507502,67.3225788 81.3473844,68.4264222 79.9874512,68.4264222 C78.6262542,68.4264222 77.5228883,67.3225788 77.5228883,65.9648766 C77.5228883,64.6059114 78.6262542,63.500805 79.9874512,63.500805 C81.3473844,63.500805 82.4507502,64.6059114 82.4507502,65.9648766" id="Fill-47"></path>
                        <path d="M89.445306,58.8519064 C89.445306,60.2133975 88.3419402,61.3121891 86.9807431,61.3121891 C85.62081,61.3121891 84.518708,60.2133975 84.518708,58.8519064 C84.518708,57.4929412 85.62081,56.3928867 86.9807431,56.3928867 C88.3419402,56.3928867 89.445306,57.4929412 89.445306,58.8519064" id="Fill-49"></path>
                        <path d="M89.445306,65.9648766 C89.445306,67.3225788 88.3419402,68.4264222 86.9807431,68.4264222 C85.62081,68.4264222 84.518708,67.3225788 84.518708,65.9648766 C84.518708,64.6059114 85.62081,63.500805 86.9807431,63.500805 C88.3419402,63.500805 89.445306,64.6059114 89.445306,65.9648766" id="Fill-51"></path>
                        <path d="M32.6152667,73.0753208 C32.6152667,74.435549 31.5119009,75.5368665 30.1519677,75.5368665 C28.7907707,75.5368665 27.6886687,74.435549 27.6886687,73.0753208 C27.6886687,71.7150927 28.7907707,70.6137752 30.1519677,70.6137752 C31.5119009,70.6137752 32.6152667,71.7150927 32.6152667,73.0753208" id="Fill-53"></path>
                        <path d="M32.6152667,80.1857651 C32.6152667,81.5447302 31.5119009,82.6460477 30.1519677,82.6460477 C28.7907707,82.6460477 27.6886687,81.5447302 27.6886687,80.1857651 C27.6886687,78.8267999 28.7907707,77.7254824 30.1519677,77.7254824 C31.5119009,77.7254824 32.6152667,78.8267999 32.6152667,80.1857651" id="Fill-55"></path>
                        <path d="M68.2790081,73.0753208 C68.2790081,74.435549 67.1756423,75.5368665 65.816973,75.5368665 C64.4545121,75.5368665 63.3524101,74.435549 63.3524101,73.0753208 C63.3524101,71.7150927 64.4545121,70.6137752 65.816973,70.6137752 C67.1756423,70.6137752 68.2790081,71.7150927 68.2790081,73.0753208" id="Fill-57"></path>
                        <path d="M68.2790081,80.1857651 C68.2790081,81.5447302 67.1756423,82.6460477 65.816973,82.6460477 C64.4545121,82.6460477 63.3524101,81.5447302 63.3524101,80.1857651 C63.3524101,78.8267999 64.4545121,77.7254824 65.816973,77.7254824 C67.1756423,77.7254824 68.2790081,78.8267999 68.2790081,80.1857651" id="Fill-59"></path>
                        <path d="M75.3341037,73.0753208 C75.3341037,74.435549 74.2307379,75.5368665 72.8708047,75.5368665 C71.5108716,75.5368665 70.4087696,74.435549 70.4087696,73.0753208 C70.4087696,71.7150927 71.5108716,70.6137752 72.8708047,70.6137752 C74.2307379,70.6137752 75.3341037,71.7150927 75.3341037,73.0753208" id="Fill-61"></path>
                        <path d="M82.4507502,73.0753208 C82.4507502,74.435549 81.3473844,75.5368665 79.9874512,75.5368665 C78.6262542,75.5368665 77.5228883,74.435549 77.5228883,73.0753208 C77.5228883,71.7150927 78.6262542,70.6137752 79.9874512,70.6137752 C81.3473844,70.6137752 82.4507502,71.7150927 82.4507502,73.0753208" id="Fill-63"></path>
                        <path d="M89.445306,73.0753208 C89.445306,74.435549 88.3419402,75.5368665 86.9807431,75.5368665 C85.62081,75.5368665 84.518708,74.435549 84.518708,73.0753208 C84.518708,71.7150927 85.62081,70.6137752 86.9807431,70.6137752 C88.3419402,70.6137752 89.445306,71.7150927 89.445306,73.0753208" id="Fill-65"></path>
                        <path d="M61.2839468,86.9272932 C61.2839468,88.2849954 60.1805809,89.3888389 58.8206478,89.3888389 C57.4607146,89.3888389 56.3586127,88.2849954 56.3586127,86.9272932 C56.3586127,85.5670651 57.4607146,84.4657476 58.8206478,84.4657476 C60.1805809,84.4657476 61.2839468,85.5670651 61.2839468,86.9272932" id="Fill-67"></path>
                        <path d="M61.2839468,94.0377375 C61.2839468,95.3967026 60.1805809,96.4980201 58.8206478,96.4980201 C57.4607146,96.4980201 56.3586127,95.3967026 56.3586127,94.0377375 C56.3586127,92.6800353 57.4607146,91.5774548 58.8206478,91.5774548 C60.1805809,91.5774548 61.2839468,92.6800353 61.2839468,94.0377375" id="Fill-69"></path>
                        <path d="M39.9720501,58.8519064 C39.9720501,60.2133975 38.8674204,61.3121891 37.5087511,61.3121891 C36.1475541,61.3121891 35.0454521,60.2133975 35.0454521,58.8519064 C35.0454521,57.4929412 36.1475541,56.3928867 37.5087511,56.3928867 C38.8674204,56.3928867 39.9720501,57.4929412 39.9720501,58.8519064" id="Fill-71"></path>
                        <path d="M39.9720501,65.9648766 C39.9720501,67.3225788 38.8674204,68.4264222 37.5087511,68.4264222 C36.1475541,68.4264222 35.0454521,67.3225788 35.0454521,65.9648766 C35.0454521,64.6059114 36.1475541,63.500805 37.5087511,63.500805 C38.8674204,63.500805 39.9720501,64.6059114 39.9720501,65.9648766" id="Fill-73"></path>
                        <path d="M46.9664795,58.8519064 C46.9664795,60.2133975 45.8631137,61.3121891 44.5031805,61.3121891 C43.1432474,61.3121891 42.0398815,60.2133975 42.0398815,58.8519064 C42.0398815,57.4929412 43.1432474,56.3928867 44.5031805,56.3928867 C45.8631137,56.3928867 46.9664795,57.4929412 46.9664795,58.8519064" id="Fill-75"></path>
                        <path d="M46.9664795,65.9648766 C46.9664795,67.3225788 45.8631137,68.4264222 44.5031805,68.4264222 C43.1432474,68.4264222 42.0398815,67.3225788 42.0398815,65.9648766 C42.0398815,64.6059114 43.1432474,63.500805 44.5031805,63.500805 C45.8631137,63.500805 46.9664795,64.6059114 46.9664795,65.9648766" id="Fill-77"></path>
                        <path d="M54.0215751,58.8519064 C54.0215751,60.2133975 52.9182093,61.3121891 51.5582761,61.3121891 C50.198343,61.3121891 49.0949771,60.2133975 49.0949771,58.8519064 C49.0949771,57.4929412 50.198343,56.3928867 51.5582761,56.3928867 C52.9182093,56.3928867 54.0215751,57.4929412 54.0215751,58.8519064" id="Fill-79"></path>
                        <path d="M54.0215751,65.9648766 C54.0215751,67.3225788 52.9182093,68.4264222 51.5582761,68.4264222 C50.198343,68.4264222 49.0949771,67.3225788 49.0949771,65.9648766 C49.0949771,64.6059114 50.198343,63.500805 51.5582761,63.500805 C52.9182093,63.500805 54.0215751,64.6059114 54.0215751,65.9648766" id="Fill-81"></path>
                        <path d="M18.2972939,73.0753208 C18.2972939,74.435549 17.1939281,75.5368665 15.8339949,75.5368665 C14.4740618,75.5368665 13.3719598,74.435549 13.3719598,73.0753208 C13.3719598,71.7150927 14.4740618,70.6137752 15.8339949,70.6137752 C17.1939281,70.6137752 18.2972939,71.7150927 18.2972939,73.0753208" id="Fill-83"></path>
                        <path d="M18.2972939,80.1857651 C18.2972939,81.5447302 17.1939281,82.6460477 15.8339949,82.6460477 C14.4740618,82.6460477 13.3719598,81.5447302 13.3719598,80.1857651 C13.3719598,78.8267999 14.4740618,77.7254824 15.8339949,77.7254824 C17.1939281,77.7254824 18.2972939,78.8267999 18.2972939,80.1857651" id="Fill-85"></path>
                        <path d="M25.3528951,73.0753208 C25.3528951,74.435549 24.2495292,75.5368665 22.8895961,75.5368665 C21.5296629,75.5368665 20.4250332,74.435549 20.4250332,73.0753208 C20.4250332,71.7150927 21.5296629,70.6137752 22.8895961,70.6137752 C24.2495292,70.6137752 25.3528951,71.7150927 25.3528951,73.0753208" id="Fill-87"></path>
                        <path d="M32.9336377,86.9272932 C32.9336377,88.2849954 31.8315357,89.3888389 30.4690748,89.3888389 C29.1104055,89.3888389 28.0070397,88.2849954 28.0070397,86.9272932 C28.0070397,85.5670651 29.1104055,84.4657476 30.4690748,84.4657476 C31.8315357,84.4657476 32.9336377,85.5670651 32.9336377,86.9272932" id="Fill-89"></path>
                        <path d="M54.0215751,86.9272932 C54.0215751,88.2849954 52.9182093,89.3888389 51.5582761,89.3888389 C50.198343,89.3888389 49.0949771,88.2849954 49.0949771,86.9272932 C49.0949771,85.5670651 50.198343,84.4657476 51.5582761,84.4657476 C52.9182093,84.4657476 54.0215751,85.5670651 54.0215751,86.9272932" id="Fill-91"></path>
                        <path d="M32.9342696,58.8519064 C32.9342696,60.2133975 31.8321677,61.3121891 30.4709706,61.3121891 C29.1097736,61.3121891 28.0076716,60.2133975 28.0076716,58.8519064 C28.0076716,57.4929412 29.1097736,56.3928867 30.4709706,56.3928867 C31.8321677,56.3928867 32.9342696,57.4929412 32.9342696,58.8519064" id="Fill-93"></path>
                        <path d="M32.9342696,65.9648766 C32.9342696,67.3225788 31.8321677,68.4264222 30.4709706,68.4264222 C29.1097736,68.4264222 28.0076716,67.3225788 28.0076716,65.9648766 C28.0076716,64.6059114 29.1097736,63.500805 30.4709706,63.500805 C31.8321677,63.500805 32.9342696,64.6059114 32.9342696,65.9648766" id="Fill-95"></path>
                        <path d="M25.9632219,58.8519064 C25.9632219,60.2133975 24.8598561,61.3121891 23.499923,61.3121891 C22.1399898,61.3121891 21.036624,60.2133975 21.036624,58.8519064 C21.036624,57.4929412 22.1399898,56.3928867 23.499923,56.3928867 C24.8598561,56.3928867 25.9632219,57.4929412 25.9632219,58.8519064" id="Fill-97"></path>
                        <path d="M25.9632219,65.9648766 C25.9632219,67.3225788 24.8598561,68.4264222 23.499923,68.4264222 C22.1399898,68.4264222 21.036624,67.3225788 21.036624,65.9648766 C21.036624,64.6059114 22.1399898,63.500805 23.499923,63.500805 C24.8598561,63.500805 25.9632219,64.6059114 25.9632219,65.9648766" id="Fill-99"></path>
                        <path d="M18.9260734,58.8519064 C18.9260734,60.2133975 17.8227076,61.3121891 16.4627744,61.3121891 C15.1028413,61.3121891 13.9994754,60.2133975 13.9994754,58.8519064 C13.9994754,57.4929412 15.1028413,56.3928867 16.4627744,56.3928867 C17.8227076,56.3928867 18.9260734,57.4929412 18.9260734,58.8519064" id="Fill-101"></path>
                        <path d="M11.6039203,58.8519064 C11.6039203,60.2133975 10.4992906,61.3121891 9.13935746,61.3121891 C7.78068818,61.3121891 6.67732234,60.2133975 6.67732234,58.8519064 C6.67732234,57.4929412 7.78068818,56.3928867 9.13935746,56.3928867 C10.4992906,56.3928867 11.6039203,57.4929412 11.6039203,58.8519064" id="Fill-103"></path>
                        <path d="M18.9260734,65.9648766 C18.9260734,67.3225788 17.8227076,68.4264222 16.4627744,68.4264222 C15.1028413,68.4264222 13.9994754,67.3225788 13.9994754,65.9648766 C13.9994754,64.6059114 15.1028413,63.500805 16.4627744,63.500805 C17.8227076,63.500805 18.9260734,64.6059114 18.9260734,65.9648766" id="Fill-105"></path>
                        <path d="M131.68033,58.8519064 C131.68033,60.2133975 130.576965,61.3121891 129.217031,61.3121891 C127.857098,61.3121891 126.753732,60.2133975 126.753732,58.8519064 C126.753732,57.4929412 127.857098,56.3928867 129.217031,56.3928867 C130.576965,56.3928867 131.68033,57.4929412 131.68033,58.8519064" id="Fill-107"></path>
                        <path d="M96.4818226,44.9751796 C96.4818226,46.3354078 95.3797206,47.4379882 94.0197875,47.4379882 C92.6585904,47.4379882 91.5564885,46.3354078 91.5564885,44.9751796 C91.5564885,43.6174774 92.6585904,42.5174229 94.0197875,42.5174229 C95.3797206,42.5174229 96.4818226,43.6174774 96.4818226,44.9751796" id="Fill-109"></path>
                        <path d="M96.4818226,52.0881498 C96.4818226,53.448378 95.3797206,54.5484325 94.0197875,54.5484325 C92.6585904,54.5484325 91.5564885,53.448378 91.5564885,52.0881498 C91.5564885,50.7279217 92.6585904,49.6278671 94.0197875,49.6278671 C95.3797206,49.6278671 96.4818226,50.7279217 96.4818226,52.0881498" id="Fill-111"></path>
                        <path d="M103.477516,44.9751796 C103.477516,46.3354078 102.372886,47.4379882 101.014217,47.4379882 C99.6530199,47.4379882 98.5521818,46.3354078 98.5521818,44.9751796 C98.5521818,43.6174774 99.6530199,42.5174229 101.014217,42.5174229 C102.372886,42.5174229 103.477516,43.6174774 103.477516,44.9751796" id="Fill-113"></path>
                        <path d="M103.477516,52.0881498 C103.477516,53.448378 102.372886,54.5484325 101.014217,54.5484325 C99.6530199,54.5484325 98.5521818,53.448378 98.5521818,52.0881498 C98.5521818,50.7279217 99.6530199,49.6278671 101.014217,49.6278671 C102.372886,49.6278671 103.477516,50.7279217 103.477516,52.0881498" id="Fill-115"></path>
                        <path d="M110.532611,44.9751796 C110.532611,46.3354078 109.43051,47.4379882 108.069313,47.4379882 C106.709379,47.4379882 105.606014,46.3354078 105.606014,44.9751796 C105.606014,43.6174774 106.709379,42.5174229 108.069313,42.5174229 C109.43051,42.5174229 110.532611,43.6174774 110.532611,44.9751796" id="Fill-117"></path>
                        <path d="M110.532611,52.0881498 C110.532611,53.448378 109.43051,54.5484325 108.069313,54.5484325 C106.709379,54.5484325 105.606014,53.448378 105.606014,52.0881498 C105.606014,50.7279217 106.709379,49.6278671 108.069313,49.6278671 C109.43051,49.6278671 110.532611,50.7279217 110.532611,52.0881498" id="Fill-119"></path>
                        <path d="M117.64989,44.9751796 C117.64989,46.3354078 116.54526,47.4379882 115.185327,47.4379882 C113.825394,47.4379882 112.722028,46.3354078 112.722028,44.9751796 C112.722028,43.6174774 113.825394,42.5174229 115.185327,42.5174229 C116.54526,42.5174229 117.64989,43.6174774 117.64989,44.9751796" id="Fill-121"></path>
                        <path d="M117.64989,52.0881498 C117.64989,53.448378 116.54526,54.5484325 115.185327,54.5484325 C113.825394,54.5484325 112.722028,53.448378 112.722028,52.0881498 C112.722028,50.7279217 113.825394,49.6278671 115.185327,49.6278671 C116.54526,49.6278671 117.64989,50.7279217 117.64989,52.0881498" id="Fill-123"></path>
                        <path d="M124.643182,44.9751796 C124.643182,46.3354078 123.539816,47.4379882 122.179883,47.4379882 C120.81995,47.4379882 119.716584,46.3354078 119.716584,44.9751796 C119.716584,43.6174774 120.81995,42.5174229 122.179883,42.5174229 C123.539816,42.5174229 124.643182,43.6174774 124.643182,44.9751796" id="Fill-125"></path>
                        <path d="M124.643182,52.0881498 C124.643182,53.448378 123.539816,54.5484325 122.179883,54.5484325 C120.81995,54.5484325 119.716584,53.448378 119.716584,52.0881498 C119.716584,50.7279217 120.81995,49.6278671 122.179883,49.6278671 C123.539816,49.6278671 124.643182,50.7279217 124.643182,52.0881498" id="Fill-127"></path>
                        <path d="M61.2839468,44.9751796 C61.2839468,46.3354078 60.1805809,47.4379882 58.8206478,47.4379882 C57.4607146,47.4379882 56.3586127,46.3354078 56.3586127,44.9751796 C56.3586127,43.6174774 57.4607146,42.5174229 58.8206478,42.5174229 C60.1805809,42.5174229 61.2839468,43.6174774 61.2839468,44.9751796" id="Fill-129"></path>
                        <path d="M61.2839468,52.0881498 C61.2839468,53.448378 60.1805809,54.5484325 58.8206478,54.5484325 C57.4607146,54.5484325 56.3586127,53.448378 56.3586127,52.0881498 C56.3586127,50.7279217 57.4607146,49.6278671 58.8206478,49.6278671 C60.1805809,49.6278671 61.2839468,50.7279217 61.2839468,52.0881498" id="Fill-131"></path>
                        <path d="M68.2790081,44.9751796 C68.2790081,46.3354078 67.1756423,47.4379882 65.816973,47.4379882 C64.4545121,47.4379882 63.3524101,46.3354078 63.3524101,44.9751796 C63.3524101,43.6174774 64.4545121,42.5174229 65.816973,42.5174229 C67.1756423,42.5174229 68.2790081,43.6174774 68.2790081,44.9751796" id="Fill-133"></path>
                        <path d="M68.2790081,52.0881498 C68.2790081,53.448378 67.1756423,54.5484325 65.816973,54.5484325 C64.4545121,54.5484325 63.3524101,53.448378 63.3524101,52.0881498 C63.3524101,50.7279217 64.4545121,49.6278671 65.816973,49.6278671 C67.1756423,49.6278671 68.2790081,50.7279217 68.2790081,52.0881498" id="Fill-135"></path>
                        <path d="M75.3341037,44.9751796 C75.3341037,46.3354078 74.2307379,47.4379882 72.8708047,47.4379882 C71.5108716,47.4379882 70.4087696,46.3354078 70.4087696,44.9751796 C70.4087696,43.6174774 71.5108716,42.5174229 72.8708047,42.5174229 C74.2307379,42.5174229 75.3341037,43.6174774 75.3341037,44.9751796" id="Fill-137"></path>
                        <path d="M75.3341037,52.0881498 C75.3341037,53.448378 74.2307379,54.5484325 72.8708047,54.5484325 C71.5108716,54.5484325 70.4087696,53.448378 70.4087696,52.0881498 C70.4087696,50.7279217 71.5108716,49.6278671 72.8708047,49.6278671 C74.2307379,49.6278671 75.3341037,50.7279217 75.3341037,52.0881498" id="Fill-139"></path>
                        <path d="M82.4507502,44.9751796 C82.4507502,46.3354078 81.3473844,47.4379882 79.9874512,47.4379882 C78.6262542,47.4379882 77.5228883,46.3354078 77.5228883,44.9751796 C77.5228883,43.6174774 78.6262542,42.5174229 79.9874512,42.5174229 C81.3473844,42.5174229 82.4507502,43.6174774 82.4507502,44.9751796" id="Fill-141"></path>
                        <path d="M82.4507502,52.0881498 C82.4507502,53.448378 81.3473844,54.5484325 79.9874512,54.5484325 C78.6262542,54.5484325 77.5228883,53.448378 77.5228883,52.0881498 C77.5228883,50.7279217 78.6262542,49.6278671 79.9874512,49.6278671 C81.3473844,49.6278671 82.4507502,50.7279217 82.4507502,52.0881498" id="Fill-143"></path>
                        <path d="M89.445306,44.9751796 C89.445306,46.3354078 88.3419402,47.4379882 86.9807431,47.4379882 C85.62081,47.4379882 84.518708,46.3354078 84.518708,44.9751796 C84.518708,43.6174774 85.62081,42.5174229 86.9807431,42.5174229 C88.3419402,42.5174229 89.445306,43.6174774 89.445306,44.9751796" id="Fill-145"></path>
                        <path d="M89.445306,52.0881498 C89.445306,53.448378 88.3419402,54.5484325 86.9807431,54.5484325 C85.62081,54.5484325 84.518708,53.448378 84.518708,52.0881498 C84.518708,50.7279217 85.62081,49.6278671 86.9807431,49.6278671 C88.3419402,49.6278671 89.445306,50.7279217 89.445306,52.0881498" id="Fill-147"></path>
                        <path d="M39.9720501,44.9751796 C39.9720501,46.3354078 38.8674204,47.4379882 37.5087511,47.4379882 C36.1475541,47.4379882 35.0454521,46.3354078 35.0454521,44.9751796 C35.0454521,43.6174774 36.1475541,42.5174229 37.5087511,42.5174229 C38.8674204,42.5174229 39.9720501,43.6174774 39.9720501,44.9751796" id="Fill-149"></path>
                        <path d="M39.9720501,52.0881498 C39.9720501,53.448378 38.8674204,54.5484325 37.5087511,54.5484325 C36.1475541,54.5484325 35.0454521,53.448378 35.0454521,52.0881498 C35.0454521,50.7279217 36.1475541,49.6278671 37.5087511,49.6278671 C38.8674204,49.6278671 39.9720501,50.7279217 39.9720501,52.0881498" id="Fill-151"></path>
                        <path d="M46.9664795,44.9751796 C46.9664795,46.3354078 45.8631137,47.4379882 44.5031805,47.4379882 C43.1432474,47.4379882 42.0398815,46.3354078 42.0398815,44.9751796 C42.0398815,43.6174774 43.1432474,42.5174229 44.5031805,42.5174229 C45.8631137,42.5174229 46.9664795,43.6174774 46.9664795,44.9751796" id="Fill-153"></path>
                        <path d="M46.9664795,52.0881498 C46.9664795,53.448378 45.8631137,54.5484325 44.5031805,54.5484325 C43.1432474,54.5484325 42.0398815,53.448378 42.0398815,52.0881498 C42.0398815,50.7279217 43.1432474,49.6278671 44.5031805,49.6278671 C45.8631137,49.6278671 46.9664795,50.7279217 46.9664795,52.0881498" id="Fill-155"></path>
                        <path d="M39.9720501,86.3563005 C39.9720501,87.7177916 38.8674204,88.8203721 37.5087511,88.8203721 C36.1475541,88.8203721 35.0454521,87.7177916 35.0454521,86.3563005 C35.0454521,84.9998613 36.1475541,83.8985438 37.5087511,83.8985438 C38.8674204,83.8985438 39.9720501,84.9998613 39.9720501,86.3563005" id="Fill-157"></path>
                        <path d="M39.9720501,93.4691444 C39.9720501,94.8306355 38.8674204,95.9294271 37.5087511,95.9294271 C36.1475541,95.9294271 35.0454521,94.8306355 35.0454521,93.4691444 C35.0454521,92.1101792 36.1475541,91.0101247 37.5087511,91.0101247 C38.8674204,91.0101247 39.9720501,92.1101792 39.9720501,93.4691444" id="Fill-159"></path>
                        <path d="M46.9664795,86.3563005 C46.9664795,87.7177916 45.8631137,88.8203721 44.5031805,88.8203721 C43.1432474,88.8203721 42.0398815,87.7177916 42.0398815,86.3563005 C42.0398815,84.9998613 43.1432474,83.8985438 44.5031805,83.8985438 C45.8631137,83.8985438 46.9664795,84.9998613 46.9664795,86.3563005" id="Fill-161"></path>
                        <path d="M46.9664795,93.4691444 C46.9664795,94.8306355 45.8631137,95.9294271 44.5031805,95.9294271 C43.1432474,95.9294271 42.0398815,94.8306355 42.0398815,93.4691444 C42.0398815,92.1101792 43.1432474,91.0101247 44.5031805,91.0101247 C45.8631137,91.0101247 46.9664795,92.1101792 46.9664795,93.4691444" id="Fill-163"></path>
                        <path d="M39.9720501,72.4832364 C39.9720501,73.8422015 38.8674204,74.943519 37.5087511,74.943519 C36.1475541,74.943519 35.0454521,73.8422015 35.0454521,72.4832364 C35.0454521,71.1217453 36.1475541,70.0216907 37.5087511,70.0216907 C38.8674204,70.0216907 39.9720501,71.1217453 39.9720501,72.4832364" id="Fill-165"></path>
                        <path d="M39.9720501,79.5924176 C39.9720501,80.9526458 38.8674204,82.0552263 37.5087511,82.0552263 C36.1475541,82.0552263 35.0454521,80.9526458 35.0454521,79.5924176 C35.0454521,78.2359784 36.1475541,77.132135 37.5087511,77.132135 C38.8674204,77.132135 39.9720501,78.2359784 39.9720501,79.5924176" id="Fill-167"></path>
                        <path d="M46.9664795,72.4832364 C46.9664795,73.8422015 45.8631137,74.943519 44.5031805,74.943519 C43.1432474,74.943519 42.0398815,73.8422015 42.0398815,72.4832364 C42.0398815,71.1217453 43.1432474,70.0216907 44.5031805,70.0216907 C45.8631137,70.0216907 46.9664795,71.1217453 46.9664795,72.4832364" id="Fill-169"></path>
                        <path d="M46.9664795,79.5924176 C46.9664795,80.9526458 45.8631137,82.0552263 44.5031805,82.0552263 C43.1432474,82.0552263 42.0398815,80.9526458 42.0398815,79.5924176 C42.0398815,78.2359784 43.1432474,77.132135 44.5031805,77.132135 C45.8631137,77.132135 46.9664795,78.2359784 46.9664795,79.5924176" id="Fill-171"></path>
                        <path d="M54.0215751,44.9751796 C54.0215751,46.3354078 52.9182093,47.4379882 51.5582761,47.4379882 C50.198343,47.4379882 49.0949771,46.3354078 49.0949771,44.9751796 C49.0949771,43.6174774 50.198343,42.5174229 51.5582761,42.5174229 C52.9182093,42.5174229 54.0215751,43.6174774 54.0215751,44.9751796" id="Fill-173"></path>
                        <path d="M54.0215751,52.0881498 C54.0215751,53.448378 52.9182093,54.5484325 51.5582761,54.5484325 C50.198343,54.5484325 49.0949771,53.448378 49.0949771,52.0881498 C49.0949771,50.7279217 50.198343,49.6278671 51.5582761,49.6278671 C52.9182093,49.6278671 54.0215751,50.7279217 54.0215751,52.0881498" id="Fill-175"></path>
                        <path d="M25.9384499,44.9751796 C25.9384499,46.3354078 24.836348,47.4379882 23.4764148,47.4379882 C22.1164817,47.4379882 21.0131158,46.3354078 21.0131158,44.9751796 C21.0131158,43.6174774 22.1164817,42.5174229 23.4764148,42.5174229 C24.836348,42.5174229 25.9384499,43.6174774 25.9384499,44.9751796" id="Fill-177"></path>
                        <path d="M25.9384499,52.0881498 C25.9384499,53.448378 24.836348,54.5484325 23.4764148,54.5484325 C22.1164817,54.5484325 21.0131158,53.448378 21.0131158,52.0881498 C21.0131158,50.7279217 22.1164817,49.6278671 23.4764148,49.6278671 C24.836348,49.6278671 25.9384499,50.7279217 25.9384499,52.0881498" id="Fill-179"></path>
                        <path d="M32.9342696,44.9751796 C32.9342696,46.3354078 31.8321677,47.4379882 30.4709706,47.4379882 C29.1097736,47.4379882 28.0076716,46.3354078 28.0076716,44.9751796 C28.0076716,43.6174774 29.1097736,42.5174229 30.4709706,42.5174229 C31.8321677,42.5174229 32.9342696,43.6174774 32.9342696,44.9751796" id="Fill-181"></path>
                        <path d="M32.9342696,52.0881498 C32.9342696,53.448378 31.8321677,54.5484325 30.4709706,54.5484325 C29.1097736,54.5484325 28.0076716,53.448378 28.0076716,52.0881498 C28.0076716,50.7279217 29.1097736,49.6278671 30.4709706,49.6278671 C31.8321677,49.6278671 32.9342696,50.7279217 32.9342696,52.0881498" id="Fill-183"></path>
                        <path d="M131.68033,44.9751796 C131.68033,46.3354078 130.576965,47.4379882 129.217031,47.4379882 C127.857098,47.4379882 126.753732,46.3354078 126.753732,44.9751796 C126.753732,43.6174774 127.857098,42.5174229 129.217031,42.5174229 C130.576965,42.5174229 131.68033,43.6174774 131.68033,44.9751796" id="Fill-185"></path>
                        <path d="M131.68033,52.0881498 C131.68033,53.448378 130.576965,54.5484325 129.217031,54.5484325 C127.857098,54.5484325 126.753732,53.448378 126.753732,52.0881498 C126.753732,50.7279217 127.857098,49.6278671 129.217031,49.6278671 C130.576965,49.6278671 131.68033,50.7279217 131.68033,52.0881498" id="Fill-187"></path>
                        <path d="M138.4872,44.9751796 C138.4872,46.3354078 137.385098,47.4379882 136.023901,47.4379882 C134.665232,47.4379882 133.561866,46.3354078 133.561866,44.9751796 C133.561866,43.6174774 134.665232,42.5174229 136.023901,42.5174229 C137.385098,42.5174229 138.4872,43.6174774 138.4872,44.9751796" id="Fill-189"></path>
                        <path d="M138.4872,52.0881498 C138.4872,53.448378 137.385098,54.5484325 136.023901,54.5484325 C134.665232,54.5484325 133.561866,53.448378 133.561866,52.0881498 C133.561866,50.7279217 134.665232,49.6278671 136.023901,49.6278671 C137.385098,49.6278671 138.4872,50.7279217 138.4872,52.0881498" id="Fill-191"></path>
                        <path d="M96.4818226,30.4547126 C96.4818226,31.8149407 95.3797206,32.9175212 94.0197875,32.9175212 C92.6585904,32.9175212 91.5564885,31.8149407 91.5564885,30.4547126 C91.5564885,29.0970104 92.6585904,27.9944299 94.0197875,27.9944299 C95.3797206,27.9944299 96.4818226,29.0970104 96.4818226,30.4547126" id="Fill-193"></path>
                        <path d="M96.4818226,37.5688194 C96.4818226,38.9265216 95.3797206,40.0278391 94.0197875,40.0278391 C92.6585904,40.0278391 91.5564885,38.9265216 91.5564885,37.5688194 C91.5564885,36.2085913 92.6585904,35.1085368 94.0197875,35.1085368 C95.3797206,35.1085368 96.4818226,36.2085913 96.4818226,37.5688194" id="Fill-195"></path>
                        <path d="M103.477516,30.4547126 C103.477516,31.8149407 102.372886,32.9175212 101.014217,32.9175212 C99.6530199,32.9175212 98.5521818,31.8149407 98.5521818,30.4547126 C98.5521818,29.0970104 99.6530199,27.9944299 101.014217,27.9944299 C102.372886,27.9944299 103.477516,29.0970104 103.477516,30.4547126" id="Fill-197"></path>
                        <path d="M103.477516,37.5688194 C103.477516,38.9265216 102.372886,40.0278391 101.014217,40.0278391 C99.6530199,40.0278391 98.5521818,38.9265216 98.5521818,37.5688194 C98.5521818,36.2085913 99.6530199,35.1085368 101.014217,35.1085368 C102.372886,35.1085368 103.477516,36.2085913 103.477516,37.5688194" id="Fill-199"></path>
                        <path d="M110.532611,30.4547126 C110.532611,31.8149407 109.43051,32.9175212 108.069313,32.9175212 C106.709379,32.9175212 105.606014,31.8149407 105.606014,30.4547126 C105.606014,29.0970104 106.709379,27.9944299 108.069313,27.9944299 C109.43051,27.9944299 110.532611,29.0970104 110.532611,30.4547126" id="Fill-201"></path>
                        <path d="M110.532611,37.5688194 C110.532611,38.9265216 109.43051,40.0278391 108.069313,40.0278391 C106.709379,40.0278391 105.606014,38.9265216 105.606014,37.5688194 C105.606014,36.2085913 106.709379,35.1085368 108.069313,35.1085368 C109.43051,35.1085368 110.532611,36.2085913 110.532611,37.5688194" id="Fill-203"></path>
                        <path d="M117.64989,30.4547126 C117.64989,31.8149407 116.54526,32.9175212 115.185327,32.9175212 C113.825394,32.9175212 112.722028,31.8149407 112.722028,30.4547126 C112.722028,29.0970104 113.825394,27.9944299 115.185327,27.9944299 C116.54526,27.9944299 117.64989,29.0970104 117.64989,30.4547126" id="Fill-205"></path>
                        <path d="M117.64989,37.5688194 C117.64989,38.9265216 116.54526,40.0278391 115.185327,40.0278391 C113.825394,40.0278391 112.722028,38.9265216 112.722028,37.5688194 C112.722028,36.2085913 113.825394,35.1085368 115.185327,35.1085368 C116.54526,35.1085368 117.64989,36.2085913 117.64989,37.5688194" id="Fill-207"></path>
                        <path d="M124.643182,30.4547126 C124.643182,31.8149407 123.539816,32.9175212 122.179883,32.9175212 C120.81995,32.9175212 119.716584,31.8149407 119.716584,30.4547126 C119.716584,29.0970104 120.81995,27.9944299 122.179883,27.9944299 C123.539816,27.9944299 124.643182,29.0970104 124.643182,30.4547126" id="Fill-209"></path>
                        <path d="M124.643182,37.5688194 C124.643182,38.9265216 123.539816,40.0278391 122.179883,40.0278391 C120.81995,40.0278391 119.716584,38.9265216 119.716584,37.5688194 C119.716584,36.2085913 120.81995,35.1085368 122.179883,35.1085368 C123.539816,35.1085368 124.643182,36.2085913 124.643182,37.5688194" id="Fill-211"></path>
                        <path d="M61.2839468,30.4547126 C61.2839468,31.8149407 60.1805809,32.9175212 58.8206478,32.9175212 C57.4607146,32.9175212 56.3586127,31.8149407 56.3586127,30.4547126 C56.3586127,29.0970104 57.4607146,27.9944299 58.8206478,27.9944299 C60.1805809,27.9944299 61.2839468,29.0970104 61.2839468,30.4547126" id="Fill-213"></path>
                        <path d="M61.2839468,37.5688194 C61.2839468,38.9265216 60.1805809,40.0278391 58.8206478,40.0278391 C57.4607146,40.0278391 56.3586127,38.9265216 56.3586127,37.5688194 C56.3586127,36.2085913 57.4607146,35.1085368 58.8206478,35.1085368 C60.1805809,35.1085368 61.2839468,36.2085913 61.2839468,37.5688194" id="Fill-215"></path>
                        <path d="M68.2790081,30.4547126 C68.2790081,31.8149407 67.1756423,32.9175212 65.816973,32.9175212 C64.4545121,32.9175212 63.3524101,31.8149407 63.3524101,30.4547126 C63.3524101,29.0970104 64.4545121,27.9944299 65.816973,27.9944299 C67.1756423,27.9944299 68.2790081,29.0970104 68.2790081,30.4547126" id="Fill-217"></path>
                        <path d="M68.2790081,37.5688194 C68.2790081,38.9265216 67.1756423,40.0278391 65.816973,40.0278391 C64.4545121,40.0278391 63.3524101,38.9265216 63.3524101,37.5688194 C63.3524101,36.2085913 64.4545121,35.1085368 65.816973,35.1085368 C67.1756423,35.1085368 68.2790081,36.2085913 68.2790081,37.5688194" id="Fill-219"></path>
                        <path d="M75.3341037,30.4547126 C75.3341037,31.8149407 74.2307379,32.9175212 72.8708047,32.9175212 C71.5108716,32.9175212 70.4087696,31.8149407 70.4087696,30.4547126 C70.4087696,29.0970104 71.5108716,27.9944299 72.8708047,27.9944299 C74.2307379,27.9944299 75.3341037,29.0970104 75.3341037,30.4547126" id="Fill-221"></path>
                        <path d="M75.3341037,37.5688194 C75.3341037,38.9265216 74.2307379,40.0278391 72.8708047,40.0278391 C71.5108716,40.0278391 70.4087696,38.9265216 70.4087696,37.5688194 C70.4087696,36.2085913 71.5108716,35.1085368 72.8708047,35.1085368 C74.2307379,35.1085368 75.3341037,36.2085913 75.3341037,37.5688194" id="Fill-223"></path>
                        <path d="M82.4507502,30.4547126 C82.4507502,31.8149407 81.3473844,32.9175212 79.9874512,32.9175212 C78.6262542,32.9175212 77.5228883,31.8149407 77.5228883,30.4547126 C77.5228883,29.0970104 78.6262542,27.9944299 79.9874512,27.9944299 C81.3473844,27.9944299 82.4507502,29.0970104 82.4507502,30.4547126" id="Fill-225"></path>
                        <path d="M82.4507502,37.5688194 C82.4507502,38.9265216 81.3473844,40.0278391 79.9874512,40.0278391 C78.6262542,40.0278391 77.5228883,38.9265216 77.5228883,37.5688194 C77.5228883,36.2085913 78.6262542,35.1085368 79.9874512,35.1085368 C81.3473844,35.1085368 82.4507502,36.2085913 82.4507502,37.5688194" id="Fill-227"></path>
                        <path d="M89.445306,30.4547126 C89.445306,31.8149407 88.3419402,32.9175212 86.9807431,32.9175212 C85.62081,32.9175212 84.518708,31.8149407 84.518708,30.4547126 C84.518708,29.0970104 85.62081,27.9944299 86.9807431,27.9944299 C88.3419402,27.9944299 89.445306,29.0970104 89.445306,30.4547126" id="Fill-229"></path>
                        <path d="M89.445306,37.5688194 C89.445306,38.9265216 88.3419402,40.0278391 86.9807431,40.0278391 C85.62081,40.0278391 84.518708,38.9265216 84.518708,37.5688194 C84.518708,36.2085913 85.62081,35.1085368 86.9807431,35.1085368 C88.3419402,35.1085368 89.445306,36.2085913 89.445306,37.5688194" id="Fill-231"></path>
                        <path d="M39.9720501,30.4547126 C39.9720501,31.8149407 38.8674204,32.9175212 37.5087511,32.9175212 C36.1475541,32.9175212 35.0454521,31.8149407 35.0454521,30.4547126 C35.0454521,29.0970104 36.1475541,27.9944299 37.5087511,27.9944299 C38.8674204,27.9944299 39.9720501,29.0970104 39.9720501,30.4547126" id="Fill-233"></path>
                        <path d="M39.9720501,37.5688194 C39.9720501,38.9265216 38.8674204,40.0278391 37.5087511,40.0278391 C36.1475541,40.0278391 35.0454521,38.9265216 35.0454521,37.5688194 C35.0454521,36.2085913 36.1475541,35.1085368 37.5087511,35.1085368 C38.8674204,35.1085368 39.9720501,36.2085913 39.9720501,37.5688194" id="Fill-235"></path>
                        <path d="M46.9664795,30.4547126 C46.9664795,31.8149407 45.8631137,32.9175212 44.5031805,32.9175212 C43.1432474,32.9175212 42.0398815,31.8149407 42.0398815,30.4547126 C42.0398815,29.0970104 43.1432474,27.9944299 44.5031805,27.9944299 C45.8631137,27.9944299 46.9664795,29.0970104 46.9664795,30.4547126" id="Fill-237"></path>
                        <path d="M46.9664795,37.5688194 C46.9664795,38.9265216 45.8631137,40.0278391 44.5031805,40.0278391 C43.1432474,40.0278391 42.0398815,38.9265216 42.0398815,37.5688194 C42.0398815,36.2085913 43.1432474,35.1085368 44.5031805,35.1085368 C45.8631137,35.1085368 46.9664795,36.2085913 46.9664795,37.5688194" id="Fill-239"></path>
                        <path d="M54.0215751,30.4547126 C54.0215751,31.8149407 52.9182093,32.9175212 51.5582761,32.9175212 C50.198343,32.9175212 49.0949771,31.8149407 49.0949771,30.4547126 C49.0949771,29.0970104 50.198343,27.9944299 51.5582761,27.9944299 C52.9182093,27.9944299 54.0215751,29.0970104 54.0215751,30.4547126" id="Fill-241"></path>
                        <path d="M54.0215751,37.5688194 C54.0215751,38.9265216 52.9182093,40.0278391 51.5582761,40.0278391 C50.198343,40.0278391 49.0949771,38.9265216 49.0949771,37.5688194 C49.0949771,36.2085913 50.198343,35.1085368 51.5582761,35.1085368 C52.9182093,35.1085368 54.0215751,36.2085913 54.0215751,37.5688194" id="Fill-243"></path>
                        <path d="M25.9384499,30.4547126 C25.9384499,31.8149407 24.836348,32.9175212 23.4764148,32.9175212 C22.1164817,32.9175212 21.0131158,31.8149407 21.0131158,30.4547126 C21.0131158,29.0970104 22.1164817,27.9944299 23.4764148,27.9944299 C24.836348,27.9944299 25.9384499,29.0970104 25.9384499,30.4547126" id="Fill-245"></path>
                        <path d="M25.9384499,37.5688194 C25.9384499,38.9265216 24.836348,40.0278391 23.4764148,40.0278391 C22.1164817,40.0278391 21.0131158,38.9265216 21.0131158,37.5688194 C21.0131158,36.2085913 22.1164817,35.1085368 23.4764148,35.1085368 C24.836348,35.1085368 25.9384499,36.2085913 25.9384499,37.5688194" id="Fill-247"></path>
                        <path d="M32.9342696,30.4547126 C32.9342696,31.8149407 31.8321677,32.9175212 30.4709706,32.9175212 C29.1097736,32.9175212 28.0076716,31.8149407 28.0076716,30.4547126 C28.0076716,29.0970104 29.1097736,27.9944299 30.4709706,27.9944299 C31.8321677,27.9944299 32.9342696,29.0970104 32.9342696,30.4547126" id="Fill-249"></path>
                        <path d="M32.9342696,37.5688194 C32.9342696,38.9265216 31.8321677,40.0278391 30.4709706,40.0278391 C29.1097736,40.0278391 28.0076716,38.9265216 28.0076716,37.5688194 C28.0076716,36.2085913 29.1097736,35.1085368 30.4709706,35.1085368 C31.8321677,35.1085368 32.9342696,36.2085913 32.9342696,37.5688194" id="Fill-251"></path>
                        <path d="M96.4818226,16.3373883 C96.4818226,17.6938275 95.3797206,18.796408 94.0197875,18.796408 C92.6585904,18.796408 91.5564885,17.6938275 91.5564885,16.3373883 C91.5564885,14.9796861 92.6585904,13.8771057 94.0197875,13.8771057 C95.3797206,13.8771057 96.4818226,14.9796861 96.4818226,16.3373883" id="Fill-253"></path>
                        <path d="M96.4818226,23.4478326 C96.4818226,24.8080607 95.3797206,25.9119042 94.0197875,25.9119042 C92.6585904,25.9119042 91.5564885,24.8080607 91.5564885,23.4478326 C91.5564885,22.0901304 92.6585904,20.9875499 94.0197875,20.9875499 C95.3797206,20.9875499 96.4818226,22.0901304 96.4818226,23.4478326" id="Fill-255"></path>
                        <path d="M103.477516,16.3373883 C103.477516,17.6938275 102.372886,18.796408 101.014217,18.796408 C99.6530199,18.796408 98.5521818,17.6938275 98.5521818,16.3373883 C98.5521818,14.9796861 99.6530199,13.8771057 101.014217,13.8771057 C102.372886,13.8771057 103.477516,14.9796861 103.477516,16.3373883" id="Fill-257"></path>
                        <path d="M103.477516,23.4478326 C103.477516,24.8080607 102.372886,25.9119042 101.014217,25.9119042 C99.6530199,25.9119042 98.5521818,24.8080607 98.5521818,23.4478326 C98.5521818,22.0901304 99.6530199,20.9875499 101.014217,20.9875499 C102.372886,20.9875499 103.477516,22.0901304 103.477516,23.4478326" id="Fill-259"></path>
                        <path d="M110.532611,16.3373883 C110.532611,17.6938275 109.43051,18.796408 108.069313,18.796408 C106.709379,18.796408 105.606014,17.6938275 105.606014,16.3373883 C105.606014,14.9796861 106.709379,13.8771057 108.069313,13.8771057 C109.43051,13.8771057 110.532611,14.9796861 110.532611,16.3373883" id="Fill-261"></path>
                        <path d="M110.532611,23.4478326 C110.532611,24.8080607 109.43051,25.9119042 108.069313,25.9119042 C106.709379,25.9119042 105.606014,24.8080607 105.606014,23.4478326 C105.606014,22.0901304 106.709379,20.9875499 108.069313,20.9875499 C109.43051,20.9875499 110.532611,22.0901304 110.532611,23.4478326" id="Fill-263"></path>
                        <path d="M117.64989,16.3373883 C117.64989,17.6938275 116.54526,18.796408 115.185327,18.796408 C113.825394,18.796408 112.722028,17.6938275 112.722028,16.3373883 C112.722028,14.9796861 113.825394,13.8771057 115.185327,13.8771057 C116.54526,13.8771057 117.64989,14.9796861 117.64989,16.3373883" id="Fill-265"></path>
                        <path d="M117.64989,23.4478326 C117.64989,24.8080607 116.54526,25.9119042 115.185327,25.9119042 C113.825394,25.9119042 112.722028,24.8080607 112.722028,23.4478326 C112.722028,22.0901304 113.825394,20.9875499 115.185327,20.9875499 C116.54526,20.9875499 117.64989,22.0901304 117.64989,23.4478326" id="Fill-267"></path>
                        <path d="M124.643182,16.3373883 C124.643182,17.6938275 123.539816,18.796408 122.179883,18.796408 C120.81995,18.796408 119.716584,17.6938275 119.716584,16.3373883 C119.716584,14.9796861 120.81995,13.8771057 122.179883,13.8771057 C123.539816,13.8771057 124.643182,14.9796861 124.643182,16.3373883" id="Fill-269"></path>
                        <path d="M124.643182,23.4478326 C124.643182,24.8080607 123.539816,25.9119042 122.179883,25.9119042 C120.81995,25.9119042 119.716584,24.8080607 119.716584,23.4478326 C119.716584,22.0901304 120.81995,20.9875499 122.179883,20.9875499 C123.539816,20.9875499 124.643182,22.0901304 124.643182,23.4478326" id="Fill-271"></path>
                        <path d="M61.2839468,16.3373883 C61.2839468,17.6938275 60.1805809,18.796408 58.8206478,18.796408 C57.4607146,18.796408 56.3586127,17.6938275 56.3586127,16.3373883 C56.3586127,14.9796861 57.4607146,13.8771057 58.8206478,13.8771057 C60.1805809,13.8771057 61.2839468,14.9796861 61.2839468,16.3373883" id="Fill-273"></path>
                        <path d="M61.2839468,23.4478326 C61.2839468,24.8080607 60.1805809,25.9119042 58.8206478,25.9119042 C57.4607146,25.9119042 56.3586127,24.8080607 56.3586127,23.4478326 C56.3586127,22.0901304 57.4607146,20.9875499 58.8206478,20.9875499 C60.1805809,20.9875499 61.2839468,22.0901304 61.2839468,23.4478326" id="Fill-275"></path>
                        <path d="M68.2790081,16.3373883 C68.2790081,17.6938275 67.1756423,18.796408 65.816973,18.796408 C64.4545121,18.796408 63.3524101,17.6938275 63.3524101,16.3373883 C63.3524101,14.9796861 64.4545121,13.8771057 65.816973,13.8771057 C67.1756423,13.8771057 68.2790081,14.9796861 68.2790081,16.3373883" id="Fill-277"></path>
                        <path d="M68.2790081,23.4478326 C68.2790081,24.8080607 67.1756423,25.9119042 65.816973,25.9119042 C64.4545121,25.9119042 63.3524101,24.8080607 63.3524101,23.4478326 C63.3524101,22.0901304 64.4545121,20.9875499 65.816973,20.9875499 C67.1756423,20.9875499 68.2790081,22.0901304 68.2790081,23.4478326" id="Fill-279"></path>
                        <path d="M75.3341037,16.3373883 C75.3341037,17.6938275 74.2307379,18.796408 72.8708047,18.796408 C71.5108716,18.796408 70.4087696,17.6938275 70.4087696,16.3373883 C70.4087696,14.9796861 71.5108716,13.8771057 72.8708047,13.8771057 C74.2307379,13.8771057 75.3341037,14.9796861 75.3341037,16.3373883" id="Fill-281"></path>
                        <path d="M75.3341037,23.4478326 C75.3341037,24.8080607 74.2307379,25.9119042 72.8708047,25.9119042 C71.5108716,25.9119042 70.4087696,24.8080607 70.4087696,23.4478326 C70.4087696,22.0901304 71.5108716,20.9875499 72.8708047,20.9875499 C74.2307379,20.9875499 75.3341037,22.0901304 75.3341037,23.4478326" id="Fill-283"></path>
                        <path d="M82.4507502,16.3373883 C82.4507502,17.6938275 81.3473844,18.796408 79.9874512,18.796408 C78.6262542,18.796408 77.5228883,17.6938275 77.5228883,16.3373883 C77.5228883,14.9796861 78.6262542,13.8771057 79.9874512,13.8771057 C81.3473844,13.8771057 82.4507502,14.9796861 82.4507502,16.3373883" id="Fill-285"></path>
                        <path d="M82.4507502,23.4478326 C82.4507502,24.8080607 81.3473844,25.9119042 79.9874512,25.9119042 C78.6262542,25.9119042 77.5228883,24.8080607 77.5228883,23.4478326 C77.5228883,22.0901304 78.6262542,20.9875499 79.9874512,20.9875499 C81.3473844,20.9875499 82.4507502,22.0901304 82.4507502,23.4478326" id="Fill-287"></path>
                        <path d="M89.445306,16.3373883 C89.445306,17.6938275 88.3419402,18.796408 86.9807431,18.796408 C85.62081,18.796408 84.518708,17.6938275 84.518708,16.3373883 C84.518708,14.9796861 85.62081,13.8771057 86.9807431,13.8771057 C88.3419402,13.8771057 89.445306,14.9796861 89.445306,16.3373883" id="Fill-289"></path>
                        <path d="M89.445306,23.4478326 C89.445306,24.8080607 88.3419402,25.9119042 86.9807431,25.9119042 C85.62081,25.9119042 84.518708,24.8080607 84.518708,23.4478326 C84.518708,22.0901304 85.62081,20.9875499 86.9807431,20.9875499 C88.3419402,20.9875499 89.445306,22.0901304 89.445306,23.4478326" id="Fill-291"></path>
                        <path d="M39.9720501,16.3373883 C39.9720501,17.6938275 38.8674204,18.796408 37.5087511,18.796408 C36.1475541,18.796408 35.0454521,17.6938275 35.0454521,16.3373883 C35.0454521,14.9796861 36.1475541,13.8771057 37.5087511,13.8771057 C38.8674204,13.8771057 39.9720501,14.9796861 39.9720501,16.3373883" id="Fill-293"></path>
                        <path d="M39.9720501,23.4478326 C39.9720501,24.8080607 38.8674204,25.9119042 37.5087511,25.9119042 C36.1475541,25.9119042 35.0454521,24.8080607 35.0454521,23.4478326 C35.0454521,22.0901304 36.1475541,20.9875499 37.5087511,20.9875499 C38.8674204,20.9875499 39.9720501,22.0901304 39.9720501,23.4478326" id="Fill-295"></path>
                        <path d="M46.9664795,16.3373883 C46.9664795,17.6938275 45.8631137,18.796408 44.5031805,18.796408 C43.1432474,18.796408 42.0398815,17.6938275 42.0398815,16.3373883 C42.0398815,14.9796861 43.1432474,13.8771057 44.5031805,13.8771057 C45.8631137,13.8771057 46.9664795,14.9796861 46.9664795,16.3373883" id="Fill-297"></path>
                        <path d="M46.9664795,23.4478326 C46.9664795,24.8080607 45.8631137,25.9119042 44.5031805,25.9119042 C43.1432474,25.9119042 42.0398815,24.8080607 42.0398815,23.4478326 C42.0398815,22.0901304 43.1432474,20.9875499 44.5031805,20.9875499 C45.8631137,20.9875499 46.9664795,22.0901304 46.9664795,23.4478326" id="Fill-299"></path>
                        <path d="M54.0215751,16.3373883 C54.0215751,17.6938275 52.9182093,18.796408 51.5582761,18.796408 C50.198343,18.796408 49.0949771,17.6938275 49.0949771,16.3373883 C49.0949771,14.9796861 50.198343,13.8771057 51.5582761,13.8771057 C52.9182093,13.8771057 54.0215751,14.9796861 54.0215751,16.3373883" id="Fill-301"></path>
                        <path d="M54.0215751,23.4478326 C54.0215751,24.8080607 52.9182093,25.9119042 51.5582761,25.9119042 C50.198343,25.9119042 49.0949771,24.8080607 49.0949771,23.4478326 C49.0949771,22.0901304 50.198343,20.9875499 51.5582761,20.9875499 C52.9182093,20.9875499 54.0215751,22.0901304 54.0215751,23.4478326" id="Fill-303"></path>
                        <path d="M32.9342696,16.3373883 C32.9342696,17.6938275 31.8321677,18.796408 30.4709706,18.796408 C29.1097736,18.796408 28.0076716,17.6938275 28.0076716,16.3373883 C28.0076716,14.9796861 29.1097736,13.8771057 30.4709706,13.8771057 C31.8321677,13.8771057 32.9342696,14.9796861 32.9342696,16.3373883" id="Fill-305"></path>
                        <path d="M32.9342696,23.4478326 C32.9342696,24.8080607 31.8321677,25.9119042 30.4709706,25.9119042 C29.1097736,25.9119042 28.0076716,24.8080607 28.0076716,23.4478326 C28.0076716,22.0901304 29.1097736,20.9875499 30.4709706,20.9875499 C31.8321677,20.9875499 32.9342696,22.0901304 32.9342696,23.4478326" id="Fill-307"></path>
                        <path d="M25.9632219,16.3373883 C25.9632219,17.6938275 24.8598561,18.796408 23.499923,18.796408 C22.1399898,18.796408 21.036624,17.6938275 21.036624,16.3373883 C21.036624,14.9796861 22.1399898,13.8771057 23.499923,13.8771057 C24.8598561,13.8771057 25.9632219,14.9796861 25.9632219,16.3373883" id="Fill-309"></path>
                        <path d="M25.9632219,23.4478326 C25.9632219,24.8080607 24.8598561,25.9119042 23.499923,25.9119042 C22.1399898,25.9119042 21.036624,24.8080607 21.036624,23.4478326 C21.036624,22.0901304 22.1399898,20.9875499 23.499923,20.9875499 C24.8598561,20.9875499 25.9632219,22.0901304 25.9632219,23.4478326" id="Fill-311"></path>
                        <path d="M18.9248095,16.3373883 C18.9248095,17.6938275 17.8227076,18.796408 16.4615106,18.796408 C15.1015774,18.796408 13.9994754,17.6938275 13.9994754,16.3373883 C13.9994754,14.9796861 15.1015774,13.8771057 16.4615106,13.8771057 C17.8227076,13.8771057 18.9248095,14.9796861 18.9248095,16.3373883" id="Fill-313"></path>
                        <path d="M18.9248095,23.4478326 C18.9248095,24.8080607 17.8227076,25.9119042 16.4615106,25.9119042 C15.1015774,25.9119042 13.9994754,24.8080607 13.9994754,23.4478326 C13.9994754,22.0901304 15.1015774,20.9875499 16.4615106,20.9875499 C17.8227076,20.9875499 18.9248095,22.0901304 18.9248095,23.4478326" id="Fill-315"></path>
                        <path d="M11.9537619,23.4478326 C11.9537619,24.8080607 10.8516599,25.9119042 9.49046287,25.9119042 C8.13052972,25.9119042 7.02716388,24.8080607 7.02716388,23.4478326 C7.02716388,22.0901304 8.13052972,20.9875499 9.49046287,20.9875499 C10.8516599,20.9875499 11.9537619,22.0901304 11.9537619,23.4478326" id="Fill-317"></path>
                        <path d="M96.4818226,2.46066156 C96.4818226,3.82088971 95.3797206,4.92220721 94.0197875,4.92220721 C92.6585904,4.92220721 91.5564885,3.82088971 91.5564885,2.46066156 C91.5564885,1.10422235 92.6585904,0.000378893635 94.0197875,0.000378893635 C95.3797206,0.000378893635 96.4818226,1.10422235 96.4818226,2.46066156" id="Fill-319"></path>
                        <path d="M96.4818226,9.57476844 C96.4818226,10.9337336 95.3797206,12.0337881 94.0197875,12.0337881 C92.6585904,12.0337881 91.5564885,10.9337336 91.5564885,9.57476844 C91.5564885,8.21327732 92.6585904,7.11069684 94.0197875,7.11069684 C95.3797206,7.11069684 96.4818226,8.21327732 96.4818226,9.57476844" id="Fill-321"></path>
                        <path d="M103.477516,2.46066156 C103.477516,3.82088971 102.372886,4.92220721 101.014217,4.92220721 C99.6530199,4.92220721 98.5521818,3.82088971 98.5521818,2.46066156 C98.5521818,1.10422235 99.6530199,0.000378893635 101.014217,0.000378893635 C102.372886,0.000378893635 103.477516,1.10422235 103.477516,2.46066156" id="Fill-323"></path>
                        <path d="M103.477516,9.57476844 C103.477516,10.9337336 102.372886,12.0337881 101.014217,12.0337881 C99.6530199,12.0337881 98.5521818,10.9337336 98.5521818,9.57476844 C98.5521818,8.21327732 99.6530199,7.11069684 101.014217,7.11069684 C102.372886,7.11069684 103.477516,8.21327732 103.477516,9.57476844" id="Fill-325"></path>
                        <path d="M110.532611,2.46066156 C110.532611,3.82088971 109.43051,4.92220721 108.069313,4.92220721 C106.709379,4.92220721 105.606014,3.82088971 105.606014,2.46066156 C105.606014,1.10422235 106.709379,0.000378893635 108.069313,0.000378893635 C109.43051,0.000378893635 110.532611,1.10422235 110.532611,2.46066156" id="Fill-327"></path>
                        <path d="M110.532611,9.57476844 C110.532611,10.9337336 109.43051,12.0337881 108.069313,12.0337881 C106.709379,12.0337881 105.606014,10.9337336 105.606014,9.57476844 C105.606014,8.21327732 106.709379,7.11069684 108.069313,7.11069684 C109.43051,7.11069684 110.532611,8.21327732 110.532611,9.57476844" id="Fill-329"></path>
                        <path d="M117.64989,2.46066156 C117.64989,3.82088971 116.54526,4.92220721 115.185327,4.92220721 C113.825394,4.92220721 112.722028,3.82088971 112.722028,2.46066156 C112.722028,1.10422235 113.825394,0.000378893635 115.185327,0.000378893635 C116.54526,0.000378893635 117.64989,1.10422235 117.64989,2.46066156" id="Fill-331"></path>
                        <path d="M117.64989,9.57476844 C117.64989,10.9337336 116.54526,12.0337881 115.185327,12.0337881 C113.825394,12.0337881 112.722028,10.9337336 112.722028,9.57476844 C112.722028,8.21327732 113.825394,7.11069684 115.185327,7.11069684 C116.54526,7.11069684 117.64989,8.21327732 117.64989,9.57476844" id="Fill-333"></path>
                        <path d="M124.643182,2.46066156 C124.643182,3.82088971 123.539816,4.92220721 122.179883,4.92220721 C120.81995,4.92220721 119.716584,3.82088971 119.716584,2.46066156 C119.716584,1.10422235 120.81995,0.000378893635 122.179883,0.000378893635 C123.539816,0.000378893635 124.643182,1.10422235 124.643182,2.46066156" id="Fill-335"></path>
                        <path d="M124.643182,9.57476844 C124.643182,10.9337336 123.539816,12.0337881 122.179883,12.0337881 C120.81995,12.0337881 119.716584,10.9337336 119.716584,9.57476844 C119.716584,8.21327732 120.81995,7.11069684 122.179883,7.11069684 C123.539816,7.11069684 124.643182,8.21327732 124.643182,9.57476844" id="Fill-337"></path>
                        <path d="M61.2839468,2.46066156 C61.2839468,3.82088971 60.1805809,4.92220721 58.8206478,4.92220721 C57.4607146,4.92220721 56.3586127,3.82088971 56.3586127,2.46066156 C56.3586127,1.10422235 57.4607146,0.000378893635 58.8206478,0.000378893635 C60.1805809,0.000378893635 61.2839468,1.10422235 61.2839468,2.46066156" id="Fill-339"></path>
                        <path d="M61.2839468,9.57476844 C61.2839468,10.9337336 60.1805809,12.0337881 58.8206478,12.0337881 C57.4607146,12.0337881 56.3586127,10.9337336 56.3586127,9.57476844 C56.3586127,8.21327732 57.4607146,7.11069684 58.8206478,7.11069684 C60.1805809,7.11069684 61.2839468,8.21327732 61.2839468,9.57476844" id="Fill-341"></path>
                        <path d="M68.2790081,2.46066156 C68.2790081,3.82088971 67.1756423,4.92220721 65.816973,4.92220721 C64.4545121,4.92220721 63.3524101,3.82088971 63.3524101,2.46066156 C63.3524101,1.10422235 64.4545121,0.000378893635 65.816973,0.000378893635 C67.1756423,0.000378893635 68.2790081,1.10422235 68.2790081,2.46066156" id="Fill-343"></path>
                        <path d="M68.2790081,9.57476844 C68.2790081,10.9337336 67.1756423,12.0337881 65.816973,12.0337881 C64.4545121,12.0337881 63.3524101,10.9337336 63.3524101,9.57476844 C63.3524101,8.21327732 64.4545121,7.11069684 65.816973,7.11069684 C67.1756423,7.11069684 68.2790081,8.21327732 68.2790081,9.57476844" id="Fill-345"></path>
                        <path d="M75.3341037,2.46066156 C75.3341037,3.82088971 74.2307379,4.92220721 72.8708047,4.92220721 C71.5108716,4.92220721 70.4087696,3.82088971 70.4087696,2.46066156 C70.4087696,1.10422235 71.5108716,0.000378893635 72.8708047,0.000378893635 C74.2307379,0.000378893635 75.3341037,1.10422235 75.3341037,2.46066156" id="Fill-347"></path>
                        <path d="M75.3341037,9.57476844 C75.3341037,10.9337336 74.2307379,12.0337881 72.8708047,12.0337881 C71.5108716,12.0337881 70.4087696,10.9337336 70.4087696,9.57476844 C70.4087696,8.21327732 71.5108716,7.11069684 72.8708047,7.11069684 C74.2307379,7.11069684 75.3341037,8.21327732 75.3341037,9.57476844" id="Fill-349"></path>
                        <path d="M82.4507502,2.46066156 C82.4507502,3.82088971 81.3473844,4.92220721 79.9874512,4.92220721 C78.6262542,4.92220721 77.5228883,3.82088971 77.5228883,2.46066156 C77.5228883,1.10422235 78.6262542,0.000378893635 79.9874512,0.000378893635 C81.3473844,0.000378893635 82.4507502,1.10422235 82.4507502,2.46066156" id="Fill-351"></path>
                        <path d="M82.4507502,9.57476844 C82.4507502,10.9337336 81.3473844,12.0337881 79.9874512,12.0337881 C78.6262542,12.0337881 77.5228883,10.9337336 77.5228883,9.57476844 C77.5228883,8.21327732 78.6262542,7.11069684 79.9874512,7.11069684 C81.3473844,7.11069684 82.4507502,8.21327732 82.4507502,9.57476844" id="Fill-353"></path>
                        <path d="M89.445306,2.46066156 C89.445306,3.82088971 88.3419402,4.92220721 86.9807431,4.92220721 C85.62081,4.92220721 84.518708,3.82088971 84.518708,2.46066156 C84.518708,1.10422235 85.62081,0.000378893635 86.9807431,0.000378893635 C88.3419402,0.000378893635 89.445306,1.10422235 89.445306,2.46066156" id="Fill-355"></path>
                        <path d="M89.445306,9.57476844 C89.445306,10.9337336 88.3419402,12.0337881 86.9807431,12.0337881 C85.62081,12.0337881 84.518708,10.9337336 84.518708,9.57476844 C84.518708,8.21327732 85.62081,7.11069684 86.9807431,7.11069684 C88.3419402,7.11069684 89.445306,8.21327732 89.445306,9.57476844" id="Fill-357"></path>
                        <path d="M39.9720501,2.46066156 C39.9720501,3.82088971 38.8674204,4.92220721 37.5087511,4.92220721 C36.1475541,4.92220721 35.0454521,3.82088971 35.0454521,2.46066156 C35.0454521,1.10422235 36.1475541,0.000378893635 37.5087511,0.000378893635 C38.8674204,0.000378893635 39.9720501,1.10422235 39.9720501,2.46066156" id="Fill-359"></path>
                        <path d="M39.9720501,9.57476844 C39.9720501,10.9337336 38.8674204,12.0337881 37.5087511,12.0337881 C36.1475541,12.0337881 35.0454521,10.9337336 35.0454521,9.57476844 C35.0454521,8.21327732 36.1475541,7.11069684 37.5087511,7.11069684 C38.8674204,7.11069684 39.9720501,8.21327732 39.9720501,9.57476844" id="Fill-361"></path>
                        <path d="M46.9664795,2.46066156 C46.9664795,3.82088971 45.8631137,4.92220721 44.5031805,4.92220721 C43.1432474,4.92220721 42.0398815,3.82088971 42.0398815,2.46066156 C42.0398815,1.10422235 43.1432474,0.000378893635 44.5031805,0.000378893635 C45.8631137,0.000378893635 46.9664795,1.10422235 46.9664795,2.46066156" id="Fill-363"></path>
                        <path d="M46.9664795,9.57476844 C46.9664795,10.9337336 45.8631137,12.0337881 44.5031805,12.0337881 C43.1432474,12.0337881 42.0398815,10.9337336 42.0398815,9.57476844 C42.0398815,8.21327732 43.1432474,7.11069684 44.5031805,7.11069684 C45.8631137,7.11069684 46.9664795,8.21327732 46.9664795,9.57476844" id="Fill-365"></path>
                        <path d="M54.0215751,2.46066156 C54.0215751,3.82088971 52.9182093,4.92220721 51.5582761,4.92220721 C50.198343,4.92220721 49.0949771,3.82088971 49.0949771,2.46066156 C49.0949771,1.10422235 50.198343,0.000378893635 51.5582761,0.000378893635 C52.9182093,0.000378893635 54.0215751,1.10422235 54.0215751,2.46066156" id="Fill-367"></path>
                        <path d="M54.0215751,9.57476844 C54.0215751,10.9337336 52.9182093,12.0337881 51.5582761,12.0337881 C50.198343,12.0337881 49.0949771,10.9337336 49.0949771,9.57476844 C49.0949771,8.21327732 50.198343,7.11069684 51.5582761,7.11069684 C52.9182093,7.11069684 54.0215751,8.21327732 54.0215751,9.57476844" id="Fill-369"></path>
                        <path d="M25.9384499,2.46066156 C25.9384499,3.82088971 24.836348,4.92220721 23.4764148,4.92220721 C22.1164817,4.92220721 21.0131158,3.82088971 21.0131158,2.46066156 C21.0131158,1.10422235 22.1164817,0.000378893635 23.4764148,0.000378893635 C24.836348,0.000378893635 25.9384499,1.10422235 25.9384499,2.46066156" id="Fill-371"></path>
                        <path d="M25.9384499,9.57476844 C25.9384499,10.9337336 24.836348,12.0337881 23.4764148,12.0337881 C22.1164817,12.0337881 21.0131158,10.9337336 21.0131158,9.57476844 C21.0131158,8.21327732 22.1164817,7.11069684 23.4764148,7.11069684 C24.836348,7.11069684 25.9384499,8.21327732 25.9384499,9.57476844" id="Fill-373"></path>
                        <path d="M32.9342696,2.46066156 C32.9342696,3.82088971 31.8321677,4.92220721 30.4709706,4.92220721 C29.1097736,4.92220721 28.0076716,3.82088971 28.0076716,2.46066156 C28.0076716,1.10422235 29.1097736,0.000378893635 30.4709706,0.000378893635 C31.8321677,0.000378893635 32.9342696,1.10422235 32.9342696,2.46066156" id="Fill-375"></path>
                        <path d="M32.9342696,9.57476844 C32.9342696,10.9337336 31.8321677,12.0337881 30.4709706,12.0337881 C29.1097736,12.0337881 28.0076716,10.9337336 28.0076716,9.57476844 C28.0076716,8.21327732 29.1097736,7.11069684 30.4709706,7.11069684 C31.8321677,7.11069684 32.9342696,8.21327732 32.9342696,9.57476844" id="Fill-377"></path>
                        <path d="M152.456595,30.4547126 C152.456595,31.8149407 151.35323,32.9175212 149.993296,32.9175212 C148.632099,32.9175212 147.531261,31.8149407 147.531261,30.4547126 C147.531261,29.0970104 148.632099,27.9944299 149.993296,27.9944299 C151.35323,27.9944299 152.456595,29.0970104 152.456595,30.4547126" id="Fill-379"></path>
                        <path d="M159.452289,30.4547126 C159.452289,31.8149407 158.347659,32.9175212 156.98899,32.9175212 C155.627793,32.9175212 154.525691,31.8149407 154.525691,30.4547126 C154.525691,29.0970104 155.627793,27.9944299 156.98899,27.9944299 C158.347659,27.9944299 159.452289,29.0970104 159.452289,30.4547126" id="Fill-381"></path>
                        <path d="M131.308877,30.4547126 C131.308877,31.8149407 130.206775,32.9175212 128.845578,32.9175212 C127.486908,32.9175212 126.382279,31.8149407 126.382279,30.4547126 C126.382279,29.0970104 127.486908,27.9944299 128.845578,27.9944299 C130.206775,27.9944299 131.308877,29.0970104 131.308877,30.4547126" id="Fill-383"></path>
                        <path d="M138.425523,30.4547126 C138.425523,31.8149407 137.322157,32.9175212 135.962224,32.9175212 C134.602291,32.9175212 133.497661,31.8149407 133.497661,30.4547126 C133.497661,29.0970104 134.602291,27.9944299 135.962224,27.9944299 C137.322157,27.9944299 138.425523,29.0970104 138.425523,30.4547126" id="Fill-385"></path>
                        <path d="M145.420079,30.4547126 C145.420079,31.8149407 144.316713,32.9175212 142.95678,32.9175212 C141.596847,32.9175212 140.493481,31.8149407 140.493481,30.4547126 C140.493481,29.0970104 141.596847,27.9944299 142.95678,27.9944299 C144.316713,27.9944299 145.420079,29.0970104 145.420079,30.4547126" id="Fill-387"></path>
                        <path d="M152.456595,37.615676 C152.456595,38.9771671 151.35323,40.0772216 149.993296,40.0772216 C148.632099,40.0772216 147.531261,38.9771671 147.531261,37.615676 C147.531261,36.2567108 148.632099,35.1566563 149.993296,35.1566563 C151.35323,35.1566563 152.456595,36.2567108 152.456595,37.615676" id="Fill-389"></path>
                        <path d="M138.425523,37.615676 C138.425523,38.9771671 137.322157,40.0772216 135.962224,40.0772216 C134.602291,40.0772216 133.497661,38.9771671 133.497661,37.615676 C133.497661,36.2567108 134.602291,35.1566563 135.962224,35.1566563 C137.322157,35.1566563 138.425523,36.2567108 138.425523,37.615676" id="Fill-391"></path>
                        <path d="M145.420079,37.615676 C145.420079,38.9771671 144.316713,40.0772216 142.95678,40.0772216 C141.596847,40.0772216 140.493481,38.9771671 140.493481,37.615676 C140.493481,36.2567108 141.596847,35.1566563 142.95678,35.1566563 C144.316713,35.1566563 145.420079,36.2567108 145.420079,37.615676" id="Fill-393"></path>
                        <path d="M152.456595,16.3373883 C152.456595,17.6938275 151.35323,18.796408 149.993296,18.796408 C148.632099,18.796408 147.531261,17.6938275 147.531261,16.3373883 C147.531261,14.9796861 148.632099,13.8771057 149.993296,13.8771057 C151.35323,13.8771057 152.456595,14.9796861 152.456595,16.3373883" id="Fill-395"></path>
                        <path d="M152.456595,23.4478326 C152.456595,24.8080607 151.35323,25.9119042 149.993296,25.9119042 C148.632099,25.9119042 147.531261,24.8080607 147.531261,23.4478326 C147.531261,22.0901304 148.632099,20.9875499 149.993296,20.9875499 C151.35323,20.9875499 152.456595,22.0901304 152.456595,23.4478326" id="Fill-397"></path>
                        <path d="M159.452289,16.3373883 C159.452289,17.6938275 158.347659,18.796408 156.98899,18.796408 C155.627793,18.796408 154.525691,17.6938275 154.525691,16.3373883 C154.525691,14.9796861 155.627793,13.8771057 156.98899,13.8771057 C158.347659,13.8771057 159.452289,14.9796861 159.452289,16.3373883" id="Fill-399"></path>
                        <path d="M159.452289,23.4478326 C159.452289,24.8080607 158.347659,25.9119042 156.98899,25.9119042 C155.627793,25.9119042 154.525691,24.8080607 154.525691,23.4478326 C154.525691,22.0901304 155.627793,20.9875499 156.98899,20.9875499 C158.347659,20.9875499 159.452289,22.0901304 159.452289,23.4478326" id="Fill-401"></path>
                        <path d="M166.507384,16.3373883 C166.507384,17.6938275 165.405282,18.796408 164.044085,18.796408 C162.684152,18.796408 161.580786,17.6938275 161.580786,16.3373883 C161.580786,14.9796861 162.684152,13.8771057 164.044085,13.8771057 C165.405282,13.8771057 166.507384,14.9796861 166.507384,16.3373883" id="Fill-403"></path>
                        <path d="M166.507384,23.4478326 C166.507384,24.8080607 165.405282,25.9119042 164.044085,25.9119042 C162.684152,25.9119042 161.580786,24.8080607 161.580786,23.4478326 C161.580786,22.0901304 162.684152,20.9875499 164.044085,20.9875499 C165.405282,20.9875499 166.507384,22.0901304 166.507384,23.4478326" id="Fill-405"></path>
                        <path d="M173.624031,16.3373883 C173.624031,17.6938275 172.520665,18.796408 171.160732,18.796408 C169.799535,18.796408 168.697433,17.6938275 168.697433,16.3373883 C168.697433,14.9796861 169.799535,13.8771057 171.160732,13.8771057 C172.520665,13.8771057 173.624031,14.9796861 173.624031,16.3373883" id="Fill-407"></path>
                        <path d="M180.617955,16.3373883 C180.617955,17.6938275 179.514589,18.796408 178.154656,18.796408 C176.794722,18.796408 175.691357,17.6938275 175.691357,16.3373883 C175.691357,14.9796861 176.794722,13.8771057 178.154656,13.8771057 C179.514589,13.8771057 180.617955,14.9796861 180.617955,16.3373883" id="Fill-409"></path>
                        <path d="M131.308877,16.3373883 C131.308877,17.6938275 130.206775,18.796408 128.845578,18.796408 C127.486908,18.796408 126.382279,17.6938275 126.382279,16.3373883 C126.382279,14.9796861 127.486908,13.8771057 128.845578,13.8771057 C130.206775,13.8771057 131.308877,14.9796861 131.308877,16.3373883" id="Fill-411"></path>
                        <path d="M131.308877,23.4478326 C131.308877,24.8080607 130.206775,25.9119042 128.845578,25.9119042 C127.486908,25.9119042 126.382279,24.8080607 126.382279,23.4478326 C126.382279,22.0901304 127.486908,20.9875499 128.845578,20.9875499 C130.206775,20.9875499 131.308877,22.0901304 131.308877,23.4478326" id="Fill-413"></path>
                        <path d="M138.425523,16.3373883 C138.425523,17.6938275 137.322157,18.796408 135.962224,18.796408 C134.602291,18.796408 133.497661,17.6938275 133.497661,16.3373883 C133.497661,14.9796861 134.602291,13.8771057 135.962224,13.8771057 C137.322157,13.8771057 138.425523,14.9796861 138.425523,16.3373883" id="Fill-415"></path>
                        <path d="M138.425523,23.4478326 C138.425523,24.8080607 137.322157,25.9119042 135.962224,25.9119042 C134.602291,25.9119042 133.497661,24.8080607 133.497661,23.4478326 C133.497661,22.0901304 134.602291,20.9875499 135.962224,20.9875499 C137.322157,20.9875499 138.425523,22.0901304 138.425523,23.4478326" id="Fill-417"></path>
                        <path d="M145.420079,16.3373883 C145.420079,17.6938275 144.316713,18.796408 142.95678,18.796408 C141.596847,18.796408 140.493481,17.6938275 140.493481,16.3373883 C140.493481,14.9796861 141.596847,13.8771057 142.95678,13.8771057 C144.316713,13.8771057 145.420079,14.9796861 145.420079,16.3373883" id="Fill-419"></path>
                        <path d="M145.420079,23.4478326 C145.420079,24.8080607 144.316713,25.9119042 142.95678,25.9119042 C141.596847,25.9119042 140.493481,24.8080607 140.493481,23.4478326 C140.493481,22.0901304 141.596847,20.9875499 142.95678,20.9875499 C144.316713,20.9875499 145.420079,22.0901304 145.420079,23.4478326" id="Fill-421"></path>
                        <path d="M152.456595,2.46066156 C152.456595,3.82088971 151.35323,4.92220721 149.993296,4.92220721 C148.632099,4.92220721 147.531261,3.82088971 147.531261,2.46066156 C147.531261,1.10422235 148.632099,0.000378893635 149.993296,0.000378893635 C151.35323,0.000378893635 152.456595,1.10422235 152.456595,2.46066156" id="Fill-423"></path>
                        <path d="M152.456595,9.57476844 C152.456595,10.9337336 151.35323,12.0337881 149.993296,12.0337881 C148.632099,12.0337881 147.531261,10.9337336 147.531261,9.57476844 C147.531261,8.21327732 148.632099,7.11069684 149.993296,7.11069684 C151.35323,7.11069684 152.456595,8.21327732 152.456595,9.57476844" id="Fill-425"></path>
                        <path d="M159.452289,2.46066156 C159.452289,3.82088971 158.347659,4.92220721 156.98899,4.92220721 C155.627793,4.92220721 154.525691,3.82088971 154.525691,2.46066156 C154.525691,1.10422235 155.627793,0.000378893635 156.98899,0.000378893635 C158.347659,0.000378893635 159.452289,1.10422235 159.452289,2.46066156" id="Fill-427"></path>
                        <path d="M159.452289,9.57476844 C159.452289,10.9337336 158.347659,12.0337881 156.98899,12.0337881 C155.627793,12.0337881 154.525691,10.9337336 154.525691,9.57476844 C154.525691,8.21327732 155.627793,7.11069684 156.98899,7.11069684 C158.347659,7.11069684 159.452289,8.21327732 159.452289,9.57476844" id="Fill-429"></path>
                        <path d="M166.507384,2.46066156 C166.507384,3.82088971 165.405282,4.92220721 164.044085,4.92220721 C162.684152,4.92220721 161.580786,3.82088971 161.580786,2.46066156 C161.580786,1.10422235 162.684152,0.000378893635 164.044085,0.000378893635 C165.405282,0.000378893635 166.507384,1.10422235 166.507384,2.46066156" id="Fill-431"></path>
                        <path d="M166.507384,9.57476844 C166.507384,10.9337336 165.405282,12.0337881 164.044085,12.0337881 C162.684152,12.0337881 161.580786,10.9337336 161.580786,9.57476844 C161.580786,8.21327732 162.684152,7.11069684 164.044085,7.11069684 C165.405282,7.11069684 166.507384,8.21327732 166.507384,9.57476844" id="Fill-433"></path>
                        <path d="M173.624031,2.46066156 C173.624031,3.82088971 172.520665,4.92220721 171.160732,4.92220721 C169.799535,4.92220721 168.697433,3.82088971 168.697433,2.46066156 C168.697433,1.10422235 169.799535,0.000378893635 171.160732,0.000378893635 C172.520665,0.000378893635 173.624031,1.10422235 173.624031,2.46066156" id="Fill-435"></path>
                        <path d="M173.624031,9.57476844 C173.624031,10.9337336 172.520665,12.0337881 171.160732,12.0337881 C169.799535,12.0337881 168.697433,10.9337336 168.697433,9.57476844 C168.697433,8.21327732 169.799535,7.11069684 171.160732,7.11069684 C172.520665,7.11069684 173.624031,8.21327732 173.624031,9.57476844" id="Fill-437"></path>
                        <path d="M180.617955,2.46066156 C180.617955,3.82088971 179.514589,4.92220721 178.154656,4.92220721 C176.794722,4.92220721 175.691357,3.82088971 175.691357,2.46066156 C175.691357,1.10422235 176.794722,0.000378893635 178.154656,0.000378893635 C179.514589,0.000378893635 180.617955,1.10422235 180.617955,2.46066156" id="Fill-439"></path>
                        <path d="M180.617955,9.57476844 C180.617955,10.9337336 179.514589,12.0337881 178.154656,12.0337881 C176.794722,12.0337881 175.691357,10.9337336 175.691357,9.57476844 C175.691357,8.21327732 176.794722,7.11069684 178.154656,7.11069684 C179.514589,7.11069684 180.617955,8.21327732 180.617955,9.57476844" id="Fill-441"></path>
                        <path d="M131.308877,2.46066156 C131.308877,3.82088971 130.206775,4.92220721 128.845578,4.92220721 C127.486908,4.92220721 126.382279,3.82088971 126.382279,2.46066156 C126.382279,1.10422235 127.486908,0.000378893635 128.845578,0.000378893635 C130.206775,0.000378893635 131.308877,1.10422235 131.308877,2.46066156" id="Fill-443"></path>
                        <path d="M131.308877,9.57476844 C131.308877,10.9337336 130.206775,12.0337881 128.845578,12.0337881 C127.486908,12.0337881 126.382279,10.9337336 126.382279,9.57476844 C126.382279,8.21327732 127.486908,7.11069684 128.845578,7.11069684 C130.206775,7.11069684 131.308877,8.21327732 131.308877,9.57476844" id="Fill-445"></path>
                        <path d="M138.425523,2.46066156 C138.425523,3.82088971 137.322157,4.92220721 135.962224,4.92220721 C134.602291,4.92220721 133.497661,3.82088971 133.497661,2.46066156 C133.497661,1.10422235 134.602291,0.000378893635 135.962224,0.000378893635 C137.322157,0.000378893635 138.425523,1.10422235 138.425523,2.46066156" id="Fill-447"></path>
                        <path d="M138.425523,9.57476844 C138.425523,10.9337336 137.322157,12.0337881 135.962224,12.0337881 C134.602291,12.0337881 133.497661,10.9337336 133.497661,9.57476844 C133.497661,8.21327732 134.602291,7.11069684 135.962224,7.11069684 C137.322157,7.11069684 138.425523,8.21327732 138.425523,9.57476844" id="Fill-449"></path>
                        <path d="M145.420079,2.46066156 C145.420079,3.82088971 144.316713,4.92220721 142.95678,4.92220721 C141.596847,4.92220721 140.493481,3.82088971 140.493481,2.46066156 C140.493481,1.10422235 141.596847,0.000378893635 142.95678,0.000378893635 C144.316713,0.000378893635 145.420079,1.10422235 145.420079,2.46066156" id="Fill-451"></path>
                        <path d="M145.420079,9.57476844 C145.420079,10.9337336 144.316713,12.0337881 142.95678,12.0337881 C141.596847,12.0337881 140.493481,10.9337336 140.493481,9.57476844 C140.493481,8.21327732 141.596847,7.11069684 142.95678,7.11069684 C144.316713,7.11069684 145.420079,8.21327732 145.420079,9.57476844" id="Fill-453"></path>
                        <path d="M187.518099,16.3373883 C187.518099,17.6938275 186.415997,18.796408 185.056064,18.796408 C183.69613,18.796408 182.592765,17.6938275 182.592765,16.3373883 C182.592765,14.9796861 183.69613,13.8771057 185.056064,13.8771057 C186.415997,13.8771057 187.518099,14.9796861 187.518099,16.3373883" id="Fill-455"></path>
                        <path d="M194.635377,16.3373883 C194.635377,17.6938275 193.532011,18.796408 192.172078,18.796408 C190.812145,18.796408 189.708779,17.6938275 189.708779,16.3373883 C189.708779,14.9796861 190.812145,13.8771057 192.172078,13.8771057 C193.532011,13.8771057 194.635377,14.9796861 194.635377,16.3373883" id="Fill-457"></path>
                        <path d="M187.518099,2.46066156 C187.518099,3.82088971 186.415997,4.92220721 185.056064,4.92220721 C183.69613,4.92220721 182.592765,3.82088971 182.592765,2.46066156 C182.592765,1.10422235 183.69613,0.000378893635 185.056064,0.000378893635 C186.415997,0.000378893635 187.518099,1.10422235 187.518099,2.46066156" id="Fill-459"></path>
                        <path d="M187.518099,9.57476844 C187.518099,10.9337336 186.415997,12.0337881 185.056064,12.0337881 C183.69613,12.0337881 182.592765,10.9337336 182.592765,9.57476844 C182.592765,8.21327732 183.69613,7.11069684 185.056064,7.11069684 C186.415997,7.11069684 187.518099,8.21327732 187.518099,9.57476844" id="Fill-461"></path>
                        <path d="M11.6118828,44.9751796 C11.6118828,46.3354078 10.5097808,47.4379882 9.14984765,47.4379882 C7.78865061,47.4379882 6.68528477,46.3354078 6.68528477,44.9751796 C6.68528477,43.6174774 7.78865061,42.5174229 9.14984765,42.5174229 C10.5097808,42.5174229 11.6118828,43.6174774 11.6118828,44.9751796" id="Fill-463"></path>
                        <path d="M11.6118828,52.0881498 C11.6118828,53.448378 10.5097808,54.5484325 9.14984765,54.5484325 C7.78865061,54.5484325 6.68528477,53.448378 6.68528477,52.0881498 C6.68528477,50.7279217 7.78865061,49.6278671 9.14984765,49.6278671 C10.5097808,49.6278671 11.6118828,50.7279217 11.6118828,52.0881498" id="Fill-465"></path>
                        <path d="M18.6064386,44.9751796 C18.6064386,46.3354078 17.5043366,47.4379882 16.1431396,47.4379882 C14.7832064,47.4379882 13.6811045,46.3354078 13.6811045,44.9751796 C13.6811045,43.6174774 14.7832064,42.5174229 16.1431396,42.5174229 C17.5043366,42.5174229 18.6064386,43.6174774 18.6064386,44.9751796" id="Fill-467"></path>
                        <path d="M18.6064386,52.0881498 C18.6064386,53.448378 17.5043366,54.5484325 16.1431396,54.5484325 C14.7832064,54.5484325 13.6811045,53.448378 13.6811045,52.0881498 C13.6811045,50.7279217 14.7832064,49.6278671 16.1431396,49.6278671 C17.5043366,49.6278671 18.6064386,50.7279217 18.6064386,52.0881498" id="Fill-469"></path>
                        <path d="M11.6118828,30.4547126 C11.6118828,31.8149407 10.5097808,32.9175212 9.14984765,32.9175212 C7.78865061,32.9175212 6.68528477,31.8149407 6.68528477,30.4547126 C6.68528477,29.0970104 7.78865061,27.9944299 9.14984765,27.9944299 C10.5097808,27.9944299 11.6118828,29.0970104 11.6118828,30.4547126" id="Fill-471"></path>
                        <path d="M11.6118828,37.5688194 C11.6118828,38.9265216 10.5097808,40.0278391 9.14984765,40.0278391 C7.78865061,40.0278391 6.68528477,38.9265216 6.68528477,37.5688194 C6.68528477,36.2085913 7.78865061,35.1085368 9.14984765,35.1085368 C10.5097808,35.1085368 11.6118828,36.2085913 11.6118828,37.5688194" id="Fill-473"></path>
                        <path d="M4.92710354,37.5688194 C4.92710354,38.9265216 3.8237377,40.0278391 2.46380454,40.0278391 C1.10260751,40.0278391 0.000505551357,38.9265216 0.000505551357,37.5688194 C0.000505551357,36.2085913 1.10260751,35.1085368 2.46380454,35.1085368 C3.8237377,35.1085368 4.92710354,36.2085913 4.92710354,37.5688194" id="Fill-475"></path>
                        <path d="M18.6064386,30.4547126 C18.6064386,31.8149407 17.5043366,32.9175212 16.1431396,32.9175212 C14.7832064,32.9175212 13.6811045,31.8149407 13.6811045,30.4547126 C13.6811045,29.0970104 14.7832064,27.9944299 16.1431396,27.9944299 C17.5043366,27.9944299 18.6064386,29.0970104 18.6064386,30.4547126" id="Fill-477"></path>
                        <path d="M18.6064386,37.5688194 C18.6064386,38.9265216 17.5043366,40.0278391 16.1431396,40.0278391 C14.7832064,40.0278391 13.6811045,38.9265216 13.6811045,37.5688194 C13.6811045,36.2085913 14.7832064,35.1085368 16.1431396,35.1085368 C17.5043366,35.1085368 18.6064386,36.2085913 18.6064386,37.5688194" id="Fill-479"></path>
                        <path d="M61.2839468,115.476297 C61.2839468,116.833999 60.1805809,117.93658 58.8206478,117.93658 C57.4607146,117.93658 56.3586127,116.833999 56.3586127,115.476297 C56.3586127,114.114806 57.4607146,113.016014 58.8206478,113.016014 C60.1805809,113.016014 61.2839468,114.114806 61.2839468,115.476297" id="Fill-481"></path>
                        <path d="M54.0215751,115.476297 C54.0215751,116.833999 52.9182093,117.93658 51.5582761,117.93658 C50.198343,117.93658 49.0949771,116.833999 49.0949771,115.476297 C49.0949771,114.114806 50.198343,113.016014 51.5582761,113.016014 C52.9182093,113.016014 54.0215751,114.114806 54.0215751,115.476297" id="Fill-483"></path>
                        <path d="M61.2839468,100.95583 C61.2839468,102.312269 60.1805809,103.416113 58.8206478,103.416113 C57.4607146,103.416113 56.3586127,102.312269 56.3586127,100.95583 C56.3586127,99.5943389 57.4607146,98.4955474 58.8206478,98.4955474 C60.1805809,98.4955474 61.2839468,99.5943389 61.2839468,100.95583" id="Fill-485"></path>
                        <path d="M61.2839468,108.066148 C61.2839468,109.425113 60.1805809,110.528957 58.8206478,110.528957 C57.4607146,110.528957 56.3586127,109.425113 56.3586127,108.066148 C56.3586127,106.708446 57.4607146,105.604602 58.8206478,105.604602 C60.1805809,105.604602 61.2839468,106.708446 61.2839468,108.066148" id="Fill-487"></path>
                        <path d="M39.9720501,100.95583 C39.9720501,102.312269 38.8674204,103.416113 37.5087511,103.416113 C36.1475541,103.416113 35.0454521,102.312269 35.0454521,100.95583 C35.0454521,99.5943389 36.1475541,98.4955474 37.5087511,98.4955474 C38.8674204,98.4955474 39.9720501,99.5943389 39.9720501,100.95583" id="Fill-489"></path>
                        <path d="M39.9720501,108.066148 C39.9720501,109.425113 38.8674204,110.528957 37.5087511,110.528957 C36.1475541,110.528957 35.0454521,109.425113 35.0454521,108.066148 C35.0454521,106.708446 36.1475541,105.604602 37.5087511,105.604602 C38.8674204,105.604602 39.9720501,106.708446 39.9720501,108.066148" id="Fill-491"></path>
                        <path d="M46.9664795,100.95583 C46.9664795,102.312269 45.8631137,103.416113 44.5031805,103.416113 C43.1432474,103.416113 42.0398815,102.312269 42.0398815,100.95583 C42.0398815,99.5943389 43.1432474,98.4955474 44.5031805,98.4955474 C45.8631137,98.4955474 46.9664795,99.5943389 46.9664795,100.95583" id="Fill-493"></path>
                        <path d="M46.9664795,108.066148 C46.9664795,109.425113 45.8631137,110.528957 44.5031805,110.528957 C43.1432474,110.528957 42.0398815,109.425113 42.0398815,108.066148 C42.0398815,106.708446 43.1432474,105.604602 44.5031805,105.604602 C45.8631137,105.604602 46.9664795,106.708446 46.9664795,108.066148" id="Fill-495"></path>
                        <path d="M54.0215751,100.95583 C54.0215751,102.312269 52.9182093,103.416113 51.5582761,103.416113 C50.198343,103.416113 49.0949771,102.312269 49.0949771,100.95583 C49.0949771,99.5943389 50.198343,98.4955474 51.5582761,98.4955474 C52.9182093,98.4955474 54.0215751,99.5943389 54.0215751,100.95583" id="Fill-497"></path>
                        <path d="M25.6447246,94.4349443 C25.6447246,95.7926465 24.5413588,96.895227 23.1814256,96.895227 C21.8202286,96.895227 20.7193905,95.7926465 20.7193905,94.4349443 C20.7193905,93.0747161 21.8202286,91.9733986 23.1814256,91.9733986 C24.5413588,91.9733986 25.6447246,93.0747161 25.6447246,94.4349443" id="Fill-499"></path>
                        <path d="M54.0215751,94.4349443 C54.0215751,95.7926465 52.9182093,96.895227 51.5582761,96.895227 C50.198343,96.895227 49.0949771,95.7926465 49.0949771,94.4349443 C49.0949771,93.0747161 50.198343,91.9733986 51.5582761,91.9733986 C52.9182093,91.9733986 54.0215751,93.0747161 54.0215751,94.4349443" id="Fill-501"></path>
                        <path d="M61.2839468,72.9296994 C61.2839468,74.2861386 60.1805809,75.389982 58.8206478,75.389982 C57.4607146,75.389982 56.3586127,74.2861386 56.3586127,72.9296994 C56.3586127,71.5682082 57.4607146,70.4681537 58.8206478,70.4681537 C60.1805809,70.4681537 61.2839468,71.5682082 61.2839468,72.9296994" id="Fill-503"></path>
                        <path d="M61.2839468,80.0388806 C61.2839468,81.3991088 60.1805809,82.5004263 58.8206478,82.5004263 C57.4607146,82.5004263 56.3586127,81.3991088 56.3586127,80.0388806 C56.3586127,78.6773895 57.4607146,77.577335 58.8206478,77.577335 C60.1805809,77.577335 61.2839468,78.6773895 61.2839468,80.0388806" id="Fill-505"></path>
                        <path d="M54.0215751,72.9296994 C54.0215751,74.2861386 52.9182093,75.389982 51.5582761,75.389982 C50.198343,75.389982 49.0949771,74.2861386 49.0949771,72.9296994 C49.0949771,71.5682082 50.198343,70.4681537 51.5582761,70.4681537 C52.9182093,70.4681537 54.0215751,71.5682082 54.0215751,72.9296994" id="Fill-507"></path>
                        <path d="M54.0215751,80.4360875 C54.0215751,81.7950526 52.9182093,82.8976331 51.5582761,82.8976331 C50.198343,82.8976331 49.0949771,81.7950526 49.0949771,80.4360875 C49.0949771,79.0771223 50.198343,77.9732788 51.5582761,77.9732788 C52.9182093,77.9732788 54.0215751,79.0771223 54.0215751,80.4360875" id="Fill-509"></path>
                        <path d="M54.0215751,108.066148 C54.0215751,109.425113 52.9182093,110.528957 51.5582761,110.528957 C50.198343,110.528957 49.0949771,109.425113 49.0949771,108.066148 C49.0949771,106.708446 50.198343,105.604602 51.5582761,105.604602 C52.9182093,105.604602 54.0215751,106.708446 54.0215751,108.066148" id="Fill-511"></path>
                        <path d="M89.2299411,108.116793 C89.2299411,109.474496 88.1265753,110.577076 86.7666421,110.577076 C85.4054451,110.577076 84.304607,109.474496 84.304607,108.116793 C84.304607,106.756565 85.4054451,105.657774 86.7666421,105.657774 C88.1265753,105.657774 89.2299411,106.756565 89.2299411,108.116793" id="Fill-513"></path>
                        <path d="M95.3209503,108.116793 C95.3209503,109.474496 94.2175844,110.577076 92.8563874,110.577076 C91.4977181,110.577076 90.3943523,109.474496 90.3943523,108.116793 C90.3943523,106.756565 91.4977181,105.657774 92.8563874,105.657774 C94.2175844,105.657774 95.3209503,106.756565 95.3209503,108.116793" id="Fill-515"></path>
                        <path d="M95.3209503,100.95583 C95.3209503,102.312269 94.2175844,103.416113 92.8563874,103.416113 C91.4977181,103.416113 90.3943523,102.312269 90.3943523,100.95583 C90.3943523,99.5943389 91.4977181,98.4955474 92.8563874,98.4955474 C94.2175844,98.4955474 95.3209503,99.5943389 95.3209503,100.95583" id="Fill-517"></path>
                        <path d="M89.2299411,115.225975 C89.2299411,116.587466 88.1265753,117.688783 86.7666421,117.688783 C85.4054451,117.688783 84.304607,116.587466 84.304607,115.225975 C84.304607,113.868273 85.4054451,112.765692 86.7666421,112.765692 C88.1265753,112.765692 89.2299411,113.868273 89.2299411,115.225975" id="Fill-519"></path>
                        <path d="M89.2299411,122.254957 C89.2299411,123.616448 88.1265753,124.719028 86.7666421,124.719028 C85.4054451,124.719028 84.304607,123.616448 84.304607,122.254957 C84.304607,120.898518 85.4054451,119.7972 86.7666421,119.7972 C88.1265753,119.7972 89.2299411,120.898518 89.2299411,122.254957" id="Fill-521"></path>
                        <path d="M89.2299411,129.367927 C89.2299411,130.726892 88.1265753,131.82821 86.7666421,131.82821 C85.4054451,131.82821 84.304607,130.726892 84.304607,129.367927 C84.304607,128.008962 85.4054451,126.908907 86.7666421,126.908907 C88.1265753,126.908907 89.2299411,128.008962 89.2299411,129.367927" id="Fill-523"></path>
                        <path d="M82.2428422,122.254957 C82.2428422,123.616448 81.1394764,124.719028 79.7808071,124.719028 C78.4196101,124.719028 77.3175081,123.616448 77.3175081,122.254957 C77.3175081,120.898518 78.4196101,119.7972 79.7808071,119.7972 C81.1394764,119.7972 82.2428422,120.898518 82.2428422,122.254957" id="Fill-525"></path>
                        <path d="M75.0772836,122.254957 C75.0772836,123.616448 73.9751817,124.719028 72.6127208,124.719028 C71.2553154,124.719028 70.1506856,123.616448 70.1506856,122.254957 C70.1506856,120.898518 71.2553154,119.7972 72.6127208,119.7972 C73.9751817,119.7972 75.0772836,120.898518 75.0772836,122.254957" id="Fill-527"></path>
                        <path d="M82.2428422,129.367927 C82.2428422,130.726892 81.1394764,131.82821 79.7808071,131.82821 C78.4196101,131.82821 77.3175081,130.726892 77.3175081,129.367927 C77.3175081,128.008962 78.4196101,126.908907 79.7808071,126.908907 C81.1394764,126.908907 82.2428422,128.008962 82.2428422,129.367927" id="Fill-529"></path>
                        <path d="M103.381335,122.254957 C103.381335,123.616448 102.279233,124.719028 100.918036,124.719028 C99.5593665,124.719028 98.4547368,123.616448 98.4547368,122.254957 C98.4547368,120.898518 99.5593665,119.7972 100.918036,119.7972 C102.279233,119.7972 103.381335,120.898518 103.381335,122.254957" id="Fill-531"></path>
                        <path d="M103.381335,129.367927 C103.381335,130.726892 102.279233,131.82821 100.918036,131.82821 C99.5593665,131.82821 98.4547368,130.726892 98.4547368,129.367927 C98.4547368,128.008962 99.5593665,126.908907 100.918036,126.908907 C102.279233,126.908907 103.381335,128.008962 103.381335,129.367927" id="Fill-533"></path>
                        <path d="M96.3960053,122.254957 C96.3960053,123.616448 95.2926394,124.719028 93.9314424,124.719028 C92.5715092,124.719028 91.4694073,123.616448 91.4694073,122.254957 C91.4694073,120.898518 92.5715092,119.7972 93.9314424,119.7972 C95.2926394,119.7972 96.3960053,120.898518 96.3960053,122.254957" id="Fill-535"></path>
                        <path d="M96.3960053,129.367927 C96.3960053,130.726892 95.2926394,131.82821 93.9314424,131.82821 C92.5715092,131.82821 91.4694073,130.726892 91.4694073,129.367927 C91.4694073,128.008962 92.5715092,126.908907 93.9314424,126.908907 C95.2926394,126.908907 96.3960053,128.008962 96.3960053,129.367927" id="Fill-537"></path>
                        <path d="M67.9174125,108.116793 C67.9174125,109.474496 66.8140467,110.577076 65.4541135,110.577076 C64.0941804,110.577076 62.9908145,109.474496 62.9908145,108.116793 C62.9908145,106.756565 64.0941804,105.657774 65.4541135,105.657774 C66.8140467,105.657774 67.9174125,106.756565 67.9174125,108.116793" id="Fill-539"></path>
                        <path d="M67.9174125,115.225975 C67.9174125,116.587466 66.8140467,117.688783 65.4541135,117.688783 C64.0941804,117.688783 62.9908145,116.587466 62.9908145,115.225975 C62.9908145,113.868273 64.0941804,112.765692 65.4541135,112.765692 C66.8140467,112.765692 67.9174125,113.868273 67.9174125,115.225975" id="Fill-541"></path>
                        <path d="M74.9107045,115.225975 C74.9107045,116.587466 73.8086025,117.688783 72.4486693,117.688783 C71.0887362,117.688783 69.9866342,116.587466 69.9866342,115.225975 C69.9866342,113.868273 71.0887362,112.765692 72.4486693,112.765692 C73.8086025,112.765692 74.9107045,113.868273 74.9107045,115.225975" id="Fill-543"></path>
                        <path d="M81.9675695,115.225975 C81.9675695,116.587466 80.8642036,117.688783 79.5030066,117.688783 C78.1430735,117.688783 77.0397076,116.587466 77.0397076,115.225975 C77.0397076,113.868273 78.1430735,112.765692 79.5030066,112.765692 C80.8642036,112.765692 81.9675695,113.868273 81.9675695,115.225975" id="Fill-545"></path>
                        <path d="M131.68033,37.5688194 C131.68033,38.9265216 130.576965,40.0278391 129.217031,40.0278391 C127.857098,40.0278391 126.753732,38.9265216 126.753732,37.5688194 C126.753732,36.2085913 127.857098,35.1085368 129.217031,35.1085368 C130.576965,35.1085368 131.68033,36.2085913 131.68033,37.5688194" id="Fill-547"></path>
                    </g>
                </g>
            </g>
        </g>
    </g>
</svg>