<?xml version="1.0" encoding="UTF-8"?>
<svg width="37px" height="31px" viewBox="0 0 37 31" version="1.1" xmlns="http://www.w3.org/2000/svg" xmlns:xlink="http://www.w3.org/1999/xlink">
    <!-- Generator: sketchtool 39.1 (31720) - http://www.bohemiancoding.com/sketch -->
    <title>DD39D940-2C42-42C8-895C-92E56F1E19F5</title>
    <desc>Created with sketchtool.</desc>
    <defs>
        <polygon id="path-1" points="26.1236865 0.141591797 0 0.141591797 0 9.63466626 26.1236865 9.63466626 26.1236865 0.141591797"></polygon>
    </defs>
    <g id="Page-1" stroke="none" stroke-width="1" fill="none" fill-rule="evenodd">
        <g id="103_Home_Page_Side_Nav-Copy" transform="translate(-745.000000, -609.000000)">
            <g id="Group-25" transform="translate(745.000000, 609.000000)">
                <g id="Page-1" transform="translate(0.000000, 13.956543)">
                    <path d="M26.1375835,8.20603125 L33.8517144,3.76424414 C34.0549248,3.64362891 34.2922222,3.60954199 34.5203423,3.67116064 C34.7484624,3.73146826 34.9385625,3.8783042 35.0539336,4.08413672 L35.590147,5.03725928 C35.8169561,5.43974707 35.6884746,5.94842871 35.2990972,6.19490332 L20.5499517,15.5779819 C19.9258989,15.9752256 19.1497661,16.0342222 18.473272,15.7339951 L10.3605864,12.148314 C9.01677539,11.554415 7.47237598,11.665853 6.22820361,12.4446079 L3.92733691,13.8854355 C3.6992168,14.0283384 3.62973193,14.3298765 3.77263477,14.5593076 C3.9155376,14.7874277 4.21707568,14.8569126 4.44650684,14.7140098 L6.7460625,13.2731821 C6.988604,13.1224131 7.24556689,13.0031089 7.51170703,12.9165806 C7.77653613,12.8300522 8.05054248,12.7762998 8.3271709,12.7566343 C8.8791167,12.7173032 9.44155078,12.8116978 9.96465381,13.0424399 L18.0773394,16.6294321 C18.4903154,16.811666 18.9295122,16.9008164 19.3660869,16.9008164 C19.9626079,16.9008164 20.5551958,16.7330039 21.0743657,16.402623 L35.8248223,7.01954443 C36.6520854,6.49381934 36.9234697,5.41221533 36.4423198,4.55742041 L35.9061064,3.60429785 C35.6596318,3.16641211 35.257144,2.85438574 34.772061,2.7259043 C34.286978,2.59611182 33.7822295,2.66690771 33.3508989,2.92387061 L25.6616777,7.35123633" id="Fill-1" stroke="#373737" stroke-width="0.2" fill="#363737"></path>
                    <g id="Group-5" transform="translate(0.000000, 1.168919)">
                        <mask id="mask-2" fill="white">
                            <use xlink:href="#path-1"></use>
                        </mask>
                        <g id="Clip-4"></g>
                        <path d="M8.13890625,0.162437256 L8.13890625,0.162437256 C7.72855225,0.19914624 7.31950928,0.272564209 6.91833252,0.381380127 C6.51715576,0.490196045 6.12253418,0.635720947 5.73971191,0.816643799 L0.279250488,3.40331616 C0.218942871,3.43215894 0.166501465,3.47148999 0.12454834,3.51868726 C0.0393310547,3.61439282 -0.00524414062,3.73894116 1.89218216e-14,3.86611157 C0.00262207031,3.92904126 0.0183544922,3.99328198 0.0471972656,4.0535896 C0.162568359,4.29744214 0.453618164,4.40232495 0.698781738,4.28695386 L6.15924316,1.70028149 C7.97240479,0.841553467 10.0923486,0.926770752 11.8294702,1.92840161 L16.8848218,4.8441438 C16.9582397,4.88478589 17.0395239,4.90838452 17.1234302,4.90969556 C17.1234302,4.90969556 17.5573828,4.9149397 18.0988403,4.92149487 C18.8225317,4.93198315 19.7389453,4.94378247 20.0771924,4.94902661 C20.1624097,4.94902661 20.210918,4.95033765 20.210918,4.95033765 L23.2931616,4.95033765 C24.314458,4.95033765 25.1456543,5.78153394 25.1456543,6.80283032 C25.1456543,7.82543774 24.314458,8.65663403 23.2931616,8.65663403 L17.750105,8.65663403 C17.3384399,8.65663403 16.9254639,8.55961743 16.555752,8.37738354 L13.4014014,6.81725171 C13.1588599,6.69663647 12.866499,6.79627515 12.7471948,7.03881665 C12.6567334,7.2197395 12.6908203,7.43081616 12.8153687,7.57503003 C12.8560107,7.62222729 12.9084521,7.66286938 12.9687598,7.69302319 L16.1231104,9.25315503 C16.6265479,9.50225171 17.1889819,9.63466626 17.750105,9.63466626 L23.2931616,9.63466626 C24.8546045,9.63466626 26.1236865,8.36427319 26.1236865,6.80283032 C26.1236865,5.24269849 24.8532935,3.97230542 23.2931616,3.97230542 L21.7894043,3.97230542 L20.062771,3.96968335 L17.2637109,3.93297437 L12.3184863,1.0814729 C11.822915,0.795667236 11.299812,0.574102295 10.7622876,0.418089111 C10.2247632,0.260764893 9.67150635,0.168992432 9.11693848,0.141460693" id="Fill-3" stroke="#373737" stroke-width="0.2" fill="#363737" mask="url(#mask-2)"></path>
                    </g>
                </g>
                <g id="Group-11" transform="translate(12.851070, 0.324969)" stroke="#373737">
                    <ellipse id="Oval-465" stroke-width="1.2" cx="8.03916045" cy="7.65451162" rx="7.38525744" ry="7.38525744"></ellipse>
                    <path d="M8.31301673,10.5719345 C7.48920494,10.5719345 6.45838712,10.0819637 6.02150811,9.75110415 C5.89152758,9.65288023 5.8692624,9.47194142 5.97276541,9.34786909 C6.07626843,9.22379677 6.26522161,9.20254364 6.39520214,9.30134197 C6.77130321,9.58567438 7.67033522,9.99752557 8.31301673,9.99752557 C8.93824716,9.99752557 9.86315492,9.67872863 9.86315492,8.9934588 C9.86315492,8.3817133 9.2331104,8.14046156 8.40990037,7.88887046 L8.16618687,7.81304848 C7.5150807,7.60396364 6.16111683,7.16798727 6.16111683,6.12141423 C6.16111683,5.10988014 6.98553038,4.4303544 8.21192076,4.4303544 C9.44793933,4.4303544 10.2230084,5.0363558 10.2555036,5.0622042 C10.383077,5.16387458 10.4005281,5.34481338 10.2934145,5.46658807 C10.1875045,5.58778835 9.9985513,5.60502062 9.87037606,5.50392465 C9.85834082,5.49473411 9.21626107,5.00476331 8.211319,5.00476331 C7.31770285,5.00476331 6.76227679,5.43269795 6.76227679,6.12141423 C6.76227679,6.68031411 7.56863749,7.0151945 8.3575471,7.26908324 L8.59223417,7.34203317 C9.33721518,7.5694991 10.4637131,7.91357004 10.4637131,8.9934588 C10.4649166,10.0825381 9.20663288,10.5719345 8.31301673,10.5719345 L8.31301673,10.5719345 Z" id="Shape" stroke-width="0.25" fill="#373737"></path>
                    <path d="M8.2387987,11.4272294 C8.05787584,11.4272294 7.91103991,11.2985618 7.91103991,11.1400249 L7.91103991,4.00758944 C7.91103991,3.84905258 8.05787584,3.72038498 8.2387987,3.72038498 C8.41972155,3.72038498 8.56655748,3.84905258 8.56655748,4.00758944 L8.56655748,11.1400249 C8.56655748,11.2985618 8.41972155,11.4272294 8.2387987,11.4272294 L8.2387987,11.4272294 Z" id="Shape" stroke-width="0.25" fill="#373737"></path>
                </g>
            </g>
        </g>
    </g>
</svg>